ISO-10303-21;
HEADER;
FILE_DESCRIPTION (( 'STEP AP203' ),
    '1' );
FILE_NAME ('cubit3_wheel.STEP',
    '2025-06-11T07:42:48',
    ( '' ),
    ( '' ),
    'SwSTEP 2.0',
    'SolidWorks 2023',
    '' );
FILE_SCHEMA (( 'CONFIG_CONTROL_DESIGN' ));
ENDSEC;

DATA;
#1 = ORIENTED_EDGE ( 'NONE', *, *, #98, .F. ) ;
#2 = PLANE ( 'NONE',  #162 ) ;
#3 = CIRCLE ( 'NONE', #507, 9.757876667733341947 ) ;
#4 = AXIS2_PLACEMENT_3D ( 'NONE', #12, #471, #480 ) ;
#5 = FACE_OUTER_BOUND ( 'NONE', #648, .T. ) ;
#6 = EDGE_LOOP ( 'NONE', ( #282, #177 ) ) ;
#7 = FACE_OUTER_BOUND ( 'NONE', #34, .T. ) ;
#8 = ADVANCED_FACE ( 'NONE', ( #5 ), #14, .T. ) ;
#9 = CC_DESIGN_PERSON_AND_ORGANIZATION_ASSIGNMENT ( #195, #82, ( #248 ) ) ;
#10 = CARTESIAN_POINT ( 'NONE',  ( -3.000000000000000444, 3.673940397442060361E-16, -4.000000000000000000 ) ) ;
#11 = AXIS2_PLACEMENT_3D ( 'NONE', #64, #576, #422 ) ;
#12 = CARTESIAN_POINT ( 'NONE',  ( 0.000000000000000000, 0.000000000000000000, 0.000000000000000000 ) ) ;
#13 = LINE ( 'NONE', #72, #580 ) ;
#14 = TOROIDAL_SURFACE ( 'NONE', #399, 3.974888734254872436, 5.782961888622025981 ) ;
#15 = CARTESIAN_POINT ( 'NONE',  ( -4.000000000000000000, 8.420356707305952073E-16, 0.000000000000000000 ) ) ;
#16 = VECTOR ( 'NONE', #413, 1000.000000000000000 ) ;
#17 = EDGE_CURVE ( 'NONE', #378, #102, #311, .T. ) ;
#18 = AXIS2_PLACEMENT_3D ( 'NONE', #346, #644, #537 ) ;
#19 = DIRECTION ( 'NONE',  ( -0.000000000000000000, -0.000000000000000000, -1.000000000000000000 ) ) ;
#20 = CARTESIAN_POINT ( 'NONE',  ( 0.000000000000000000, 0.000000000000000000, -1.500000000000000000 ) ) ;
#21 = CARTESIAN_POINT ( 'NONE',  ( 4.000000000000000000, 0.000000000000000000, 0.000000000000000000 ) ) ;
#22 = EDGE_LOOP ( 'NONE', ( #252, #137 ) ) ;
#23 = CARTESIAN_POINT ( 'NONE',  ( -2.500000000000000000, 0.000000000000000000, 12.69999999999999929 ) ) ;
#24 = AXIS2_PLACEMENT_3D ( 'NONE', #619, #141, #43 ) ;
#25 = ORIENTED_EDGE ( 'NONE', *, *, #58, .T. ) ;
#26 = CARTESIAN_POINT ( 'NONE',  ( 0.000000000000000000, 0.000000000000000000, 6.000000000000000000 ) ) ;
#27 = CIRCLE ( 'NONE', #301, 4.000000000000000000 ) ;
#28 = ADVANCED_FACE ( 'NONE', ( #223, #375 ), #416, .T. ) ;
#29 = FACE_OUTER_BOUND ( 'NONE', #409, .T. ) ;
#30 = ADVANCED_FACE ( 'NONE', ( #325 ), #116, .F. ) ;
#31 = EDGE_LOOP ( 'NONE', ( #274, #206 ) ) ;
#32 = CARTESIAN_POINT ( 'NONE',  ( 3.000000000000000444, 0.000000000000000000, -4.000000000000000000 ) ) ;
#33 = PERSON_AND_ORGANIZATION ( #205, #203 ) ;
#34 = EDGE_LOOP ( 'NONE', ( #582, #412 ) ) ;
#35 = CARTESIAN_POINT ( 'NONE',  ( -2.500000000000000000, 0.000000000000000000, 12.69999999999999929 ) ) ;
#36 = PERSON_AND_ORGANIZATION ( #205, #203 ) ;
#37 = EDGE_CURVE ( 'NONE', #184, #595, #278, .T. ) ;
#38 = VECTOR ( 'NONE', #612, 1000.000000000000000 ) ;
#39 = CIRCLE ( 'NONE', #592, 6.000000000000000000 ) ;
#40 = ORIENTED_EDGE ( 'NONE', *, *, #133, .T. ) ;
#41 = EDGE_CURVE ( 'NONE', #433, #587, #129, .T. ) ;
#42 = COORDINATED_UNIVERSAL_TIME_OFFSET ( 8, 0, .BEHIND. ) ;
#43 = DIRECTION ( 'NONE',  ( -1.000000000000000000, 0.000000000000000000, -0.000000000000000000 ) ) ;
#44 = FACE_OUTER_BOUND ( 'NONE', #242, .T. ) ;
#45 = ORIENTED_EDGE ( 'NONE', *, *, #173, .T. ) ;
#46 = DATE_AND_TIME ( #344, #575 ) ;
#47 = DIRECTION ( 'NONE',  ( 1.000000000000000000, 0.000000000000000000, 0.000000000000000000 ) ) ;
#48 = ORIENTED_EDGE ( 'NONE', *, *, #414, .F. ) ;
#49 = CALENDAR_DATE ( 2025, 11, 6 ) ;
#50 = DIRECTION ( 'NONE',  ( -1.000000000000000000, 1.224646799147353207E-16, 0.000000000000000000 ) ) ;
#51 = AXIS2_PLACEMENT_3D ( 'NONE', #145, #396, #548 ) ;
#52 = EDGE_LOOP ( 'NONE', ( #308, #150 ) ) ;
#53 = DIRECTION ( 'NONE',  ( -0.000000000000000000, -0.000000000000000000, -1.000000000000000000 ) ) ;
#54 = EDGE_LOOP ( 'NONE', ( #593, #435 ) ) ;
#55 = ORIENTED_EDGE ( 'NONE', *, *, #104, .T. ) ;
#56 = CARTESIAN_POINT ( 'NONE',  ( -9.471207056481341979, 1.159888340578170064E-15, 7.887262954957523498 ) ) ;
#57 = ORIENTED_EDGE ( 'NONE', *, *, #87, .T. ) ;
#58 = EDGE_CURVE ( 'NONE', #83, #595, #621, .T. ) ;
#59 = ORIENTED_EDGE ( 'NONE', *, *, #581, .T. ) ;
#60 = FACE_OUTER_BOUND ( 'NONE', #360, .T. ) ;
#61 = DIRECTION ( 'NONE',  ( 1.000000000000000000, 0.000000000000000000, 0.000000000000000000 ) ) ;
#62 = DIRECTION ( 'NONE',  ( 1.000000000000000000, 0.000000000000000000, 0.000000000000000000 ) ) ;
#63 = DIRECTION ( 'NONE',  ( 1.000000000000000000, 0.000000000000000000, 0.000000000000000000 ) ) ;
#64 = CARTESIAN_POINT ( 'NONE',  ( 0.000000000000000000, 0.000000000000000000, 4.291079919564339207 ) ) ;
#65 = FACE_OUTER_BOUND ( 'NONE', #509, .T. ) ;
#66 = CIRCLE ( 'NONE', #90, 6.000000000000000000 ) ;
#67 = CIRCLE ( 'NONE', #380, 5.782961888622025093 ) ;
#68 = EDGE_CURVE ( 'NONE', #296, #184, #425, .T. ) ;
#69 = DIRECTION ( 'NONE',  ( -0.000000000000000000, -0.000000000000000000, 1.000000000000000000 ) ) ;
#70 = EDGE_LOOP ( 'NONE', ( #415, #441, #143, #539 ) ) ;
#71 = CARTESIAN_POINT ( 'NONE',  ( 0.000000000000000000, 0.000000000000000000, -1.500000000000000000 ) ) ;
#72 = CARTESIAN_POINT ( 'NONE',  ( -1.000000000000000000, 0.000000000000000000, 15.51999999999999957 ) ) ;
#73 = DIRECTION ( 'NONE',  ( -1.000000000000000000, 0.000000000000000000, 0.000000000000000000 ) ) ;
#74 = EDGE_CURVE ( 'NONE', #378, #488, #654, .T. ) ;
#75 = AXIS2_PLACEMENT_3D ( 'NONE', #331, #175, #478 ) ;
#76 = ORIENTED_EDGE ( 'NONE', *, *, #558, .F. ) ;
#77 = CARTESIAN_POINT ( 'NONE',  ( 2.020000000000000018, 2.473786534277653917E-16, -1.500000000000000000 ) ) ;
#78 = MANIFOLD_SOLID_BREP ( 'Cut-Revolve1', #300 ) ;
#79 = APPROVAL_PERSON_ORGANIZATION ( #447, #573, #541 ) ;
#80 = CIRCLE ( 'NONE', #508, 2.020000000000000018 ) ;
#81 = DIRECTION ( 'NONE',  ( 0.000000000000000000, 0.000000000000000000, 1.000000000000000000 ) ) ;
#82 = PERSON_AND_ORGANIZATION_ROLE ( 'classification_officer' ) ;
#83 = VERTEX_POINT ( 'NONE', #316 ) ;
#84 = CARTESIAN_POINT ( 'NONE',  ( -9.757876667733341947, 1.194995242761427676E-15, 7.887262954957523498 ) ) ;
#85 = EDGE_CURVE ( 'NONE', #180, #226, #451, .T. ) ;
#86 = APPROVAL_STATUS ( 'not_yet_approved' ) ;
#87 = EDGE_CURVE ( 'NONE', #587, #433, #176, .T. ) ;
#88 = ORIENTED_EDGE ( 'NONE', *, *, #383, .T. ) ;
#89 = APPLICATION_CONTEXT ( 'configuration controlled 3d designs of mechanical parts and assemblies' ) ;
#90 = AXIS2_PLACEMENT_3D ( 'NONE', #519, #253, #50 ) ;
#91 = DIRECTION ( 'NONE',  ( 0.000000000000000000, 0.000000000000000000, 1.000000000000000000 ) ) ;
#92 = AXIS2_PLACEMENT_3D ( 'NONE', #535, #523, #62 ) ;
#93 = ORIENTED_EDGE ( 'NONE', *, *, #362, .F. ) ;
#94 = CARTESIAN_POINT ( 'NONE',  ( 0.000000000000000000, 0.000000000000000000, 6.199999999999999289 ) ) ;
#95 = VERTEX_POINT ( 'NONE', #520 ) ;
#96 = PERSON_AND_ORGANIZATION_ROLE ( 'creator' ) ;
#97 = CIRCLE ( 'NONE', #524, 2.020000000000000018 ) ;
#98 = EDGE_CURVE ( 'NONE', #660, #485, #67, .T. ) ;
#99 = DIRECTION ( 'NONE',  ( -0.000000000000000000, -0.000000000000000000, 1.000000000000000000 ) ) ;
#100 = DIRECTION ( 'NONE',  ( -1.000000000000000000, 0.000000000000000000, 0.000000000000000000 ) ) ;
#101 = AXIS2_PLACEMENT_3D ( 'NONE', #407, #151, #354 ) ;
#102 = VERTEX_POINT ( 'NONE', #15 ) ;
#103 = CARTESIAN_POINT ( 'NONE',  ( 2.020000000000000018, 2.473786534277653917E-16, -4.000000000000000000 ) ) ;
#104 = EDGE_CURVE ( 'NONE', #254, #127, #164, .T. ) ;
#105 = ORIENTED_EDGE ( 'NONE', *, *, #197, .T. ) ;
#106 = EDGE_CURVE ( 'NONE', #238, #144, #356, .T. ) ;
#107 = ORIENTED_EDGE ( 'NONE', *, *, #383, .F. ) ;
#108 = CARTESIAN_POINT ( 'NONE',  ( -1.000000000000000000, 0.000000000000000000, 15.51999999999999957 ) ) ;
#109 = DIRECTION ( 'NONE',  ( 0.000000000000000000, 0.000000000000000000, 1.000000000000000000 ) ) ;
#110 = CIRCLE ( 'NONE', #132, 2.500000000000000000 ) ;
#111 = CARTESIAN_POINT ( 'NONE',  ( 0.000000000000000000, 0.000000000000000000, 12.19999999999999929 ) ) ;
#112 = AXIS2_PLACEMENT_3D ( 'NONE', #371, #163, #369 ) ;
#113 = DIRECTION ( 'NONE',  ( 1.224646799147353207E-16, 1.000000000000000000, -0.000000000000000000 ) ) ;
#114 = CARTESIAN_POINT ( 'NONE',  ( 0.000000000000000000, 0.000000000000000000, 0.000000000000000000 ) ) ;
#115 = DIRECTION ( 'NONE',  ( 1.000000000000000000, 0.000000000000000000, 0.000000000000000000 ) ) ;
#116 = CYLINDRICAL_SURFACE ( 'NONE', #482, 2.020000000000000018 ) ;
#117 = PRODUCT_DEFINITION ( 'UNKNOWN', '', #366, #561 ) ;
#118 = DIRECTION ( 'NONE',  ( 1.000000000000000000, 0.000000000000000000, 0.000000000000000000 ) ) ;
#119 = DIRECTION ( 'NONE',  ( 0.000000000000000000, 0.000000000000000000, -1.000000000000000000 ) ) ;
#120 = DIRECTION ( 'NONE',  ( 0.000000000000000000, 0.000000000000000000, 1.000000000000000000 ) ) ;
#121 = TOROIDAL_SURFACE ( 'NONE', #313, 4.000000000000000000, 6.000000000000000000 ) ;
#122 = DIRECTION ( 'NONE',  ( -0.000000000000000000, -0.000000000000000000, 1.000000000000000000 ) ) ;
#123 = ORIENTED_EDGE ( 'NONE', *, *, #104, .F. ) ;
#124 = DIRECTION ( 'NONE',  ( 0.000000000000000000, 0.000000000000000000, -1.000000000000000000 ) ) ;
#125 = EDGE_CURVE ( 'NONE', #504, #255, #39, .T. ) ;
#126 = ADVANCED_FACE ( 'NONE', ( #65 ), #219, .T. ) ;
#127 = VERTEX_POINT ( 'NONE', #568 ) ;
#128 = FACE_OUTER_BOUND ( 'NONE', #458, .T. ) ;
#129 = CIRCLE ( 'NONE', #160, 3.000000000000000444 ) ;
#130 = ORIENTED_EDGE ( 'NONE', *, *, #533, .F. ) ;
#131 = PLANE ( 'NONE',  #529 ) ;
#132 = AXIS2_PLACEMENT_3D ( 'NONE', #364, #146, #418 ) ;
#133 = EDGE_CURVE ( 'NONE', #595, #184, #642, .T. ) ;
#134 = ORIENTED_EDGE ( 'NONE', *, *, #336, .F. ) ;
#135 = DIRECTION ( 'NONE',  ( 1.000000000000000000, 0.000000000000000000, -0.000000000000000000 ) ) ;
#136 = LOCAL_TIME ( 0, 42, 48.00000000000000000, #298 ) ;
#137 = ORIENTED_EDGE ( 'NONE', *, *, #106, .T. ) ;
#138 = DIRECTION ( 'NONE',  ( -1.000000000000000000, 0.000000000000000000, 0.000000000000000000 ) ) ;
#139 = APPROVAL_DATE_TIME ( #545, #140 ) ;
#140 = APPROVAL ( #86, 'UNSPECIFIED' ) ;
#141 = DIRECTION ( 'NONE',  ( 0.000000000000000000, 0.000000000000000000, -1.000000000000000000 ) ) ;
#142 = CARTESIAN_POINT ( 'NONE',  ( 0.000000000000000000, 0.000000000000000000, 6.199999999999999289 ) ) ;
#143 = ORIENTED_EDGE ( 'NONE', *, *, #637, .T. ) ;
#144 = VERTEX_POINT ( 'NONE', #468 ) ;
#145 = CARTESIAN_POINT ( 'NONE',  ( 0.000000000000000000, 0.000000000000000000, -4.000000000000000000 ) ) ;
#146 = DIRECTION ( 'NONE',  ( 0.000000000000000000, 0.000000000000000000, 1.000000000000000000 ) ) ;
#147 = AXIS2_PLACEMENT_3D ( 'NONE', #279, #486, #343 ) ;
#148 = ORIENTED_EDGE ( 'NONE', *, *, #324, .T. ) ;
#149 = CARTESIAN_POINT ( 'NONE',  ( -2.020000000000000018, 0.000000000000000000, -4.000000000000000000 ) ) ;
#150 = ORIENTED_EDGE ( 'NONE', *, *, #305, .T. ) ;
#151 = DIRECTION ( 'NONE',  ( 0.000000000000000000, 0.000000000000000000, -1.000000000000000000 ) ) ;
#152 = TOROIDAL_SURFACE ( 'NONE', #338, 4.000000000000000000, 6.000000000000000000 ) ;
#153 = ADVANCED_FACE ( 'NONE', ( #211 ), #423, .T. ) ;
#154 = TOROIDAL_SURFACE ( 'NONE', #269, 4.000000000000000000, 6.000000000000000000 ) ;
#155 = ORIENTED_EDGE ( 'NONE', *, *, #558, .T. ) ;
#156 = FACE_OUTER_BOUND ( 'NONE', #564, .T. ) ;
#157 = UNCERTAINTY_MEASURE_WITH_UNIT (LENGTH_MEASURE( 1.000000000000000082E-05 ), #499, 'distance_accuracy_value', 'NONE');
#158 = CARTESIAN_POINT ( 'NONE',  ( 0.000000000000000000, 0.000000000000000000, 12.69999999999999929 ) ) ;
#159 = DIRECTION ( 'NONE',  ( -0.000000000000000000, -0.000000000000000000, 1.000000000000000000 ) ) ;
#160 = AXIS2_PLACEMENT_3D ( 'NONE', #114, #379, #532 ) ;
#161 = CARTESIAN_POINT ( 'NONE',  ( -3.000000000000000444, 3.673940397442060361E-16, 0.000000000000000000 ) ) ;
#162 = AXIS2_PLACEMENT_3D ( 'NONE', #556, #510, #609 ) ;
#163 = DIRECTION ( 'NONE',  ( 0.000000000000000000, 0.000000000000000000, 1.000000000000000000 ) ) ;
#164 = CIRCLE ( 'NONE', #585, 3.000000000000000444 ) ;
#165 = EDGE_CURVE ( 'NONE', #617, #198, #80, .T. ) ;
#166 = DIRECTION ( 'NONE',  ( 1.000000000000000000, 0.000000000000000000, 0.000000000000000000 ) ) ;
#167 = DIRECTION ( 'NONE',  ( 1.000000000000000000, 0.000000000000000000, 0.000000000000000000 ) ) ;
#168 = EDGE_CURVE ( 'NONE', #95, #517, #329, .T. ) ;
#169 = DIRECTION ( 'NONE',  ( 0.000000000000000000, 0.000000000000000000, -1.000000000000000000 ) ) ;
#170 = CARTESIAN_POINT ( 'NONE',  ( 0.000000000000000000, 0.000000000000000000, -4.000000000000000000 ) ) ;
#171 = DIRECTION ( 'NONE',  ( 0.000000000000000000, 0.000000000000000000, -1.000000000000000000 ) ) ;
#172 = CARTESIAN_POINT ( 'NONE',  ( 0.000000000000000000, 0.000000000000000000, 7.887262954957523498 ) ) ;
#173 = EDGE_CURVE ( 'NONE', #449, #488, #484, .T. ) ;
#174 = ORIENTED_EDGE ( 'NONE', *, *, #312, .T. ) ;
#175 = DIRECTION ( 'NONE',  ( 0.000000000000000000, -1.000000000000000000, 0.000000000000000000 ) ) ;
#176 = CIRCLE ( 'NONE', #4, 3.000000000000000444 ) ;
#177 = ORIENTED_EDGE ( 'NONE', *, *, #41, .F. ) ;
#178 = DIRECTION ( 'NONE',  ( -1.000000000000000000, 0.000000000000000000, -0.000000000000000000 ) ) ;
#179 = PLANE ( 'NONE',  #615 ) ;
#180 = VERTEX_POINT ( 'NONE', #185 ) ;
#181 = DIRECTION ( 'NONE',  ( 0.000000000000000000, -0.000000000000000000, 1.000000000000000000 ) ) ;
#182 = SHAPE_DEFINITION_REPRESENTATION ( #494, #332 ) ;
#183 = CIRCLE ( 'NONE', #560, 2.020000000000000018 ) ;
#184 = VERTEX_POINT ( 'NONE', #639 ) ;
#185 = CARTESIAN_POINT ( 'NONE',  ( 9.471207056481341979, 0.000000000000000000, 4.291079919564339207 ) ) ;
#186 =( NAMED_UNIT ( * ) PLANE_ANGLE_UNIT ( ) SI_UNIT ( $, .RADIAN. ) );
#187 = ORIENTED_EDGE ( 'NONE', *, *, #58, .F. ) ;
#188 = EDGE_LOOP ( 'NONE', ( #496, #25, #40, #388 ) ) ;
#189 = DIRECTION ( 'NONE',  ( 0.000000000000000000, 0.000000000000000000, 1.000000000000000000 ) ) ;
#190 = DIRECTION ( 'NONE',  ( 0.000000000000000000, 0.000000000000000000, 1.000000000000000000 ) ) ;
#191 = ORIENTED_EDGE ( 'NONE', *, *, #68, .T. ) ;
#192 = ADVANCED_FACE ( 'NONE', ( #337 ), #334, .T. ) ;
#193 = APPLICATION_PROTOCOL_DEFINITION ( 'international standard', 'config_control_design', 1994, #89 ) ;
#194 = AXIS2_PLACEMENT_3D ( 'NONE', #503, #190, #47 ) ;
#195 = PERSON_AND_ORGANIZATION ( #205, #203 ) ;
#196 = DIRECTION ( 'NONE',  ( 1.000000000000000000, 0.000000000000000000, 0.000000000000000000 ) ) ;
#197 = EDGE_CURVE ( 'NONE', #127, #254, #280, .T. ) ;
#198 = VERTEX_POINT ( 'NONE', #77 ) ;
#199 = DIRECTION ( 'NONE',  ( 0.000000000000000000, 0.000000000000000000, 1.000000000000000000 ) ) ;
#200 = CIRCLE ( 'NONE', #610, 4.000000000000000000 ) ;
#201 = ORIENTED_EDGE ( 'NONE', *, *, #613, .F. ) ;
#202 = CYLINDRICAL_SURFACE ( 'NONE', #641, 2.020000000000000018 ) ;
#203 = ORGANIZATION ( 'UNSPECIFIED', 'UNSPECIFIED', '' ) ;
#204 = ORIENTED_EDGE ( 'NONE', *, *, #456, .F. ) ;
#205 = PERSON ( 'UNSPECIFIED', 'UNSPECIFIED', 'UNSPECIFIED', ('UNSPECIFIED'), ('UNSPECIFIED'), ('UNSPECIFIED') ) ;
#206 = ORIENTED_EDGE ( 'NONE', *, *, #637, .F. ) ;
#207 = CARTESIAN_POINT ( 'NONE',  ( 0.000000000000000000, 0.000000000000000000, 15.51999999999999957 ) ) ;
#208 = DIRECTION ( 'NONE',  ( -1.000000000000000000, 0.000000000000000000, 0.000000000000000000 ) ) ;
#209 = VECTOR ( 'NONE', #272, 1000.000000000000000 ) ;
#210 = CARTESIAN_POINT ( 'NONE',  ( -4.000000000000000000, 8.424269812101844304E-16, 12.19999999999999929 ) ) ;
#211 = FACE_OUTER_BOUND ( 'NONE', #604, .T. ) ;
#212 = EDGE_CURVE ( 'NONE', #95, #238, #489, .T. ) ;
#213 = VECTOR ( 'NONE', #225, 1000.000000000000000 ) ;
#214 = CC_DESIGN_PERSON_AND_ORGANIZATION_ASSIGNMENT ( #605, #340, ( #366 ) ) ;
#215 = CARTESIAN_POINT ( 'NONE',  ( 0.000000000000000000, 0.000000000000000000, 6.089171437260931796 ) ) ;
#216 = DIRECTION ( 'NONE',  ( -0.000000000000000000, -0.000000000000000000, -1.000000000000000000 ) ) ;
#217 = VECTOR ( 'NONE', #348, 1000.000000000000000 ) ;
#218 = DIRECTION ( 'NONE',  ( 0.000000000000000000, 0.000000000000000000, 1.000000000000000000 ) ) ;
#219 = TOROIDAL_SURFACE ( 'NONE', #402, 3.974888734254872436, 5.782961888622025981 ) ;
#220 = FACE_OUTER_BOUND ( 'NONE', #188, .T. ) ;
#221 = DIRECTION ( 'NONE',  ( 0.000000000000000000, -1.000000000000000000, 0.000000000000000000 ) ) ;
#222 = EDGE_CURVE ( 'NONE', #517, #95, #391, .T. ) ;
#223 = FACE_OUTER_BOUND ( 'NONE', #638, .T. ) ;
#224 = DIRECTION ( 'NONE',  ( -1.000000000000000000, 0.000000000000000000, 0.000000000000000000 ) ) ;
#225 = DIRECTION ( 'NONE',  ( -0.000000000000000000, -0.000000000000000000, -1.000000000000000000 ) ) ;
#226 = VERTEX_POINT ( 'NONE', #442 ) ;
#227 = FACE_BOUND ( 'NONE', #333, .T. ) ;
#228 = ORIENTED_EDGE ( 'NONE', *, *, #197, .F. ) ;
#229 = DIRECTION ( 'NONE',  ( 1.000000000000000000, 0.000000000000000000, 0.000000000000000000 ) ) ;
#230 = ORIENTED_EDGE ( 'NONE', *, *, #362, .T. ) ;
#231 = FACE_OUTER_BOUND ( 'NONE', #351, .T. ) ;
#232 = AXIS2_PLACEMENT_3D ( 'NONE', #319, #69, #370 ) ;
#233 =( NAMED_UNIT ( * ) SI_UNIT ( $, .STERADIAN. ) SOLID_ANGLE_UNIT ( ) );
#234 = ORIENTED_EDGE ( 'NONE', *, *, #384, .T. ) ;
#235 = DIRECTION ( 'NONE',  ( 1.000000000000000000, 0.000000000000000000, 0.000000000000000000 ) ) ;
#236 = CIRCLE ( 'NONE', #194, 2.500000000000000000 ) ;
#237 = AXIS2_PLACEMENT_3D ( 'NONE', #111, #218, #262 ) ;
#238 = VERTEX_POINT ( 'NONE', #544 ) ;
#239 = DATE_TIME_ROLE ( 'creation_date' ) ;
#240 = EDGE_CURVE ( 'NONE', #565, #477, #183, .T. ) ;
#241 = CARTESIAN_POINT ( 'NONE',  ( 3.000000000000000444, 0.000000000000000000, 0.000000000000000000 ) ) ;
#242 = EDGE_LOOP ( 'NONE', ( #155, #341, #500, #516 ) ) ;
#243 = ADVANCED_FACE ( 'NONE', ( #29 ), #154, .T. ) ;
#244 = FACE_OUTER_BOUND ( 'NONE', #616, .T. ) ;
#245 = ORIENTED_EDGE ( 'NONE', *, *, #461, .F. ) ;
#246 = AXIS2_PLACEMENT_3D ( 'NONE', #328, #120, #428 ) ;
#247 = APPROVAL_DATE_TIME ( #640, #481 ) ;
#248 = SECURITY_CLASSIFICATION ( '', '', #501 ) ;
#249 = AXIS2_PLACEMENT_3D ( 'NONE', #265, #221, #124 ) ;
#250 = ORIENTED_EDGE ( 'NONE', *, *, #479, .F. ) ;
#251 = FACE_BOUND ( 'NONE', #6, .T. ) ;
#252 = ORIENTED_EDGE ( 'NONE', *, *, #479, .T. ) ;
#253 = DIRECTION ( 'NONE',  ( 1.224646799147353207E-16, 1.000000000000000000, -0.000000000000000000 ) ) ;
#254 = VERTEX_POINT ( 'NONE', #32 ) ;
#255 = VERTEX_POINT ( 'NONE', #547 ) ;
#256 = DIRECTION ( 'NONE',  ( -1.000000000000000000, 0.000000000000000000, 0.000000000000000000 ) ) ;
#257 = CIRCLE ( 'NONE', #632, 9.471207056481341979 ) ;
#258 = ORIENTED_EDGE ( 'NONE', *, *, #165, .F. ) ;
#259 = ORIENTED_EDGE ( 'NONE', *, *, #461, .T. ) ;
#260 = CARTESIAN_POINT ( 'NONE',  ( 0.000000000000000000, 0.000000000000000000, 15.51999999999999957 ) ) ;
#261 = DIRECTION ( 'NONE',  ( 1.000000000000000000, 0.000000000000000000, -0.000000000000000000 ) ) ;
#262 = DIRECTION ( 'NONE',  ( 1.000000000000000000, 0.000000000000000000, 0.000000000000000000 ) ) ;
#263 = CIRCLE ( 'NONE', #439, 9.757876667733341947 ) ;
#264 = DIRECTION ( 'NONE',  ( -1.000000000000000000, 0.000000000000000000, 0.000000000000000000 ) ) ;
#265 = CARTESIAN_POINT ( 'NONE',  ( 3.974888734254872436, 0.000000000000000000, 6.089171437260931796 ) ) ;
#266 = DIRECTION ( 'NONE',  ( -1.000000000000000000, 1.224646799147353207E-16, 0.000000000000000000 ) ) ;
#267 = AXIS2_PLACEMENT_3D ( 'NONE', #260, #299, #314 ) ;
#268 = CARTESIAN_POINT ( 'NONE',  ( 0.000000000000000000, 0.000000000000000000, 4.291079919564339207 ) ) ;
#269 = AXIS2_PLACEMENT_3D ( 'NONE', #26, #81, #589 ) ;
#270 = ADVANCED_FACE ( 'NONE', ( #231, #227 ), #131, .T. ) ;
#271 = CARTESIAN_POINT ( 'NONE',  ( 0.000000000000000000, 0.000000000000000000, 0.000000000000000000 ) ) ;
#272 = DIRECTION ( 'NONE',  ( -0.000000000000000000, -0.000000000000000000, 1.000000000000000000 ) ) ;
#273 = CC_DESIGN_PERSON_AND_ORGANIZATION_ASSIGNMENT ( #658, #450, ( #117 ) ) ;
#274 = ORIENTED_EDGE ( 'NONE', *, *, #240, .F. ) ;
#275 = DIRECTION ( 'NONE',  ( 0.000000000000000000, 0.000000000000000000, -1.000000000000000000 ) ) ;
#276 = PRODUCT ( 'cubit3_wheel', 'cubit3_wheel', '', ( #645 ) ) ;
#277 = CARTESIAN_POINT ( 'NONE',  ( 4.000000000000000000, 0.000000000000000000, 6.199999999999999289 ) ) ;
#278 = CIRCLE ( 'NONE', #246, 2.500000000000000000 ) ;
#279 = CARTESIAN_POINT ( 'NONE',  ( 0.000000000000000000, 0.000000000000000000, 12.69999999999999929 ) ) ;
#280 = CIRCLE ( 'NONE', #18, 3.000000000000000444 ) ;
#281 = ADVANCED_FACE ( 'NONE', ( #389, #594 ), #179, .T. ) ;
#282 = ORIENTED_EDGE ( 'NONE', *, *, #87, .F. ) ;
#283 = CARTESIAN_POINT ( 'NONE',  ( 0.000000000000000000, 0.000000000000000000, -1.500000000000000000 ) ) ;
#284 = COORDINATED_UNIVERSAL_TIME_OFFSET ( 8, 0, .BEHIND. ) ;
#285 = ORIENTED_EDGE ( 'NONE', *, *, #85, .F. ) ;
#286 = DIRECTION ( 'NONE',  ( 0.000000000000000000, 0.000000000000000000, -1.000000000000000000 ) ) ;
#287 = CALENDAR_DATE ( 2025, 11, 6 ) ;
#288 = ORIENTED_EDGE ( 'NONE', *, *, #240, .T. ) ;
#289 = PERSON_AND_ORGANIZATION_ROLE ( 'design_owner' ) ;
#290 = LOCAL_TIME ( 0, 42, 48.00000000000000000, #650 ) ;
#291 = ADVANCED_FACE ( 'NONE', ( #128 ), #636, .T. ) ;
#292 = DIRECTION ( 'NONE',  ( 1.000000000000000000, 0.000000000000000000, -0.000000000000000000 ) ) ;
#293 = VERTEX_POINT ( 'NONE', #84 ) ;
#294 = COORDINATED_UNIVERSAL_TIME_OFFSET ( 8, 0, .BEHIND. ) ;
#295 = DIRECTION ( 'NONE',  ( 1.000000000000000000, 0.000000000000000000, 0.000000000000000000 ) ) ;
#296 = VERTEX_POINT ( 'NONE', #35 ) ;
#297 = AXIS2_PLACEMENT_3D ( 'NONE', #170, #330, #167 ) ;
#298 = COORDINATED_UNIVERSAL_TIME_OFFSET ( 8, 0, .BEHIND. ) ;
#299 = DIRECTION ( 'NONE',  ( -0.000000000000000000, -0.000000000000000000, -1.000000000000000000 ) ) ;
#300 = CLOSED_SHELL ( 'NONE', ( #243, #408, #30, #126, #502, #406, #622, #600, #646, #291, #281, #153, #553, #28, #270, #8, #192, #440, #522, #326, #511, #430 ) ) ;
#301 = AXIS2_PLACEMENT_3D ( 'NONE', #566, #303, #61 ) ;
#302 = ORIENTED_EDGE ( 'NONE', *, *, #173, .F. ) ;
#303 = DIRECTION ( 'NONE',  ( 0.000000000000000000, 0.000000000000000000, 1.000000000000000000 ) ) ;
#304 = ORIENTED_EDGE ( 'NONE', *, *, #336, .T. ) ;
#305 = EDGE_CURVE ( 'NONE', #198, #617, #97, .T. ) ;
#306 = ORIENTED_EDGE ( 'NONE', *, *, #324, .F. ) ;
#307 = CARTESIAN_POINT ( 'NONE',  ( 9.751486082629755359, 0.000000000000000000, 4.291079919564339207 ) ) ;
#308 = ORIENTED_EDGE ( 'NONE', *, *, #165, .T. ) ;
#309 = ORIENTED_EDGE ( 'NONE', *, *, #17, .F. ) ;
#310 = CARTESIAN_POINT ( 'NONE',  ( 0.000000000000000000, 0.000000000000000000, 6.000000000000000000 ) ) ;
#311 = CIRCLE ( 'NONE', #335, 4.000000000000000000 ) ;
#312 = EDGE_CURVE ( 'NONE', #254, #587, #626, .T. ) ;
#313 = AXIS2_PLACEMENT_3D ( 'NONE', #310, #109, #518 ) ;
#314 = DIRECTION ( 'NONE',  ( -1.000000000000000000, 0.000000000000000000, 0.000000000000000000 ) ) ;
#315 = PRODUCT_RELATED_PRODUCT_CATEGORY ( 'detail', '', ( #276 ) ) ;
#316 = CARTESIAN_POINT ( 'NONE',  ( 2.500000000000000000, 3.061616997868383141E-16, 12.69999999999999929 ) ) ;
#317 = DIRECTION ( 'NONE',  ( -0.000000000000000000, -0.000000000000000000, 1.000000000000000000 ) ) ;
#318 = APPROVAL_PERSON_ORGANIZATION ( #33, #481, #554 ) ;
#319 = CARTESIAN_POINT ( 'NONE',  ( 0.000000000000000000, 0.000000000000000000, 4.291079919564339207 ) ) ;
#320 = CARTESIAN_POINT ( 'NONE',  ( 0.000000000000000000, 0.000000000000000000, -4.000000000000000000 ) ) ;
#321 = APPLICATION_CONTEXT ( 'configuration controlled 3d designs of mechanical parts and assemblies' ) ;
#322 = CIRCLE ( 'NONE', #11, 9.471207056481341979 ) ;
#323 = CARTESIAN_POINT ( 'NONE',  ( -4.000000000000000000, 4.898587196589412829E-16, 6.000000000000000000 ) ) ;
#324 = EDGE_CURVE ( 'NONE', #180, #660, #608, .T. ) ;
#325 = FACE_OUTER_BOUND ( 'NONE', #70, .T. ) ;
#326 = ADVANCED_FACE ( 'NONE', ( #631 ), #521, .T. ) ;
#327 = DIRECTION ( 'NONE',  ( -0.000000000000000000, -0.000000000000000000, -1.000000000000000000 ) ) ;
#328 = CARTESIAN_POINT ( 'NONE',  ( 0.000000000000000000, 0.000000000000000000, 12.19999999999999929 ) ) ;
#329 = CIRCLE ( 'NONE', #112, 1.000000000000000000 ) ;
#330 = DIRECTION ( 'NONE',  ( -0.000000000000000000, -0.000000000000000000, 1.000000000000000000 ) ) ;
#331 = CARTESIAN_POINT ( 'NONE',  ( 4.000000000000000000, 0.000000000000000000, 6.000000000000000000 ) ) ;
#332 = ADVANCED_BREP_SHAPE_REPRESENTATION ( 'cubit3_wheel', ( #78, #497 ), #411 ) ;
#333 = EDGE_LOOP ( 'NONE', ( #306, #134 ) ) ;
#334 = PLANE ( 'NONE',  #570 ) ;
#335 = AXIS2_PLACEMENT_3D ( 'NONE', #271, #578, #118 ) ;
#336 = EDGE_CURVE ( 'NONE', #660, #180, #322, .T. ) ;
#337 = FACE_OUTER_BOUND ( 'NONE', #52, .T. ) ;
#338 = AXIS2_PLACEMENT_3D ( 'NONE', #142, #651, #295 ) ;
#339 = AXIS2_PLACEMENT_3D ( 'NONE', #268, #275, #591 ) ;
#340 = PERSON_AND_ORGANIZATION_ROLE ( 'design_supplier' ) ;
#341 = ORIENTED_EDGE ( 'NONE', *, *, #533, .T. ) ;
#342 = ORIENTED_EDGE ( 'NONE', *, *, #74, .F. ) ;
#343 = DIRECTION ( 'NONE',  ( -1.000000000000000000, 0.000000000000000000, 0.000000000000000000 ) ) ;
#344 = CALENDAR_DATE ( 2025, 11, 6 ) ;
#345 = ORIENTED_EDGE ( 'NONE', *, *, #571, .F. ) ;
#346 = CARTESIAN_POINT ( 'NONE',  ( 0.000000000000000000, 0.000000000000000000, -4.000000000000000000 ) ) ;
#347 = APPROVAL_ROLE ( '' ) ;
#348 = DIRECTION ( 'NONE',  ( -0.000000000000000000, -0.000000000000000000, -1.000000000000000000 ) ) ;
#349 = EDGE_LOOP ( 'NONE', ( #204, #123, #174, #57 ) ) ;
#350 = APPROVAL_DATE_TIME ( #601, #573 ) ;
#351 = EDGE_LOOP ( 'NONE', ( #107, #302 ) ) ;
#352 = CARTESIAN_POINT ( 'NONE',  ( 0.000000000000000000, 0.000000000000000000, 0.000000000000000000 ) ) ;
#353 = DIRECTION ( 'NONE',  ( -0.000000000000000000, -0.000000000000000000, 1.000000000000000000 ) ) ;
#354 = DIRECTION ( 'NONE',  ( -1.000000000000000000, 0.000000000000000000, -0.000000000000000000 ) ) ;
#355 = AXIS2_PLACEMENT_3D ( 'NONE', #207, #567, #261 ) ;
#356 = CIRCLE ( 'NONE', #92, 1.000000000000000000 ) ;
#357 = ORIENTED_EDGE ( 'NONE', *, *, #414, .T. ) ;
#358 = FACE_OUTER_BOUND ( 'NONE', #542, .T. ) ;
#359 = ORIENTED_EDGE ( 'NONE', *, *, #41, .T. ) ;
#360 = EDGE_LOOP ( 'NONE', ( #55, #105 ) ) ;
#361 = LINE ( 'NONE', #10, #16 ) ;
#362 = EDGE_CURVE ( 'NONE', #102, #449, #590, .T. ) ;
#363 = EDGE_CURVE ( 'NONE', #293, #504, #263, .T. ) ;
#364 = CARTESIAN_POINT ( 'NONE',  ( 0.000000000000000000, 0.000000000000000000, 12.69999999999999929 ) ) ;
#365 = DIRECTION ( 'NONE',  ( 1.000000000000000000, 0.000000000000000000, 0.000000000000000000 ) ) ;
#366 = PRODUCT_DEFINITION_FORMATION_WITH_SPECIFIED_SOURCE ( 'ANY', '', #276, .NOT_KNOWN. ) ;
#367 = AXIS2_PLACEMENT_3D ( 'NONE', #540, #394, #235 ) ;
#368 = DIRECTION ( 'NONE',  ( -0.000000000000000000, -0.000000000000000000, 1.000000000000000000 ) ) ;
#369 = DIRECTION ( 'NONE',  ( 1.000000000000000000, 0.000000000000000000, 0.000000000000000000 ) ) ;
#370 = DIRECTION ( 'NONE',  ( 1.000000000000000000, 0.000000000000000000, 0.000000000000000000 ) ) ;
#371 = CARTESIAN_POINT ( 'NONE',  ( 0.000000000000000000, 0.000000000000000000, 15.51999999999999957 ) ) ;
#372 = CARTESIAN_POINT ( 'NONE',  ( 0.000000000000000000, 0.000000000000000000, -1.500000000000000000 ) ) ;
#373 = DIRECTION ( 'NONE',  ( -0.000000000000000000, -0.000000000000000000, 1.000000000000000000 ) ) ;
#374 = DIRECTION ( 'NONE',  ( -1.000000000000000000, 0.000000000000000000, 0.000000000000000000 ) ) ;
#375 = FACE_BOUND ( 'NONE', #462, .T. ) ;
#376 = CARTESIAN_POINT ( 'NONE',  ( 0.000000000000000000, 0.000000000000000000, -4.000000000000000000 ) ) ;
#377 = CC_DESIGN_APPROVAL ( #140, ( #117 ) ) ;
#378 = VERTEX_POINT ( 'NONE', #21 ) ;
#379 = DIRECTION ( 'NONE',  ( -0.000000000000000000, -0.000000000000000000, -1.000000000000000000 ) ) ;
#380 = AXIS2_PLACEMENT_3D ( 'NONE', #421, #577, #475 ) ;
#381 = ORIENTED_EDGE ( 'NONE', *, *, #628, .T. ) ;
#382 = CARTESIAN_POINT ( 'NONE',  ( 0.000000000000000000, 0.000000000000000000, -4.000000000000000000 ) ) ;
#383 = EDGE_CURVE ( 'NONE', #488, #449, #464, .T. ) ;
#384 = EDGE_CURVE ( 'NONE', #485, #226, #257, .T. ) ;
#385 = ORIENTED_EDGE ( 'NONE', *, *, #168, .F. ) ;
#386 = CARTESIAN_POINT ( 'NONE',  ( 1.000000000000000000, 1.224646799147352961E-16, 15.51999999999999957 ) ) ;
#387 = ORIENTED_EDGE ( 'NONE', *, *, #74, .T. ) ;
#388 = ORIENTED_EDGE ( 'NONE', *, *, #68, .F. ) ;
#389 = FACE_BOUND ( 'NONE', #22, .T. ) ;
#390 = CIRCLE ( 'NONE', #473, 4.000000000000000000 ) ;
#391 = CIRCLE ( 'NONE', #367, 1.000000000000000000 ) ;
#392 = EDGE_CURVE ( 'NONE', #102, #378, #200, .T. ) ;
#393 = ORIENTED_EDGE ( 'NONE', *, *, #551, .T. ) ;
#394 = DIRECTION ( 'NONE',  ( 0.000000000000000000, 0.000000000000000000, 1.000000000000000000 ) ) ;
#395 = DIRECTION ( 'NONE',  ( 1.000000000000000000, 0.000000000000000000, 0.000000000000000000 ) ) ;
#396 = DIRECTION ( 'NONE',  ( 0.000000000000000000, 0.000000000000000000, -1.000000000000000000 ) ) ;
#397 = EDGE_LOOP ( 'NONE', ( #381, #393 ) ) ;
#398 = CALENDAR_DATE ( 2025, 11, 6 ) ;
#399 = AXIS2_PLACEMENT_3D ( 'NONE', #215, #317, #166 ) ;
#400 = CARTESIAN_POINT ( 'NONE',  ( -2.020000000000000018, 0.000000000000000000, -1.500000000000000000 ) ) ;
#401 = CIRCLE ( 'NONE', #559, 1.000000000000000000 ) ;
#402 = AXIS2_PLACEMENT_3D ( 'NONE', #527, #159, #365 ) ;
#403 = PLANE ( 'NONE',  #614 ) ;
#404 = DIRECTION ( 'NONE',  ( -0.000000000000000000, -0.000000000000000000, -1.000000000000000000 ) ) ;
#405 = DATE_AND_TIME ( #287, #656 ) ;
#406 = ADVANCED_FACE ( 'NONE', ( #220 ), #629, .T. ) ;
#407 = CARTESIAN_POINT ( 'NONE',  ( 0.000000000000000000, 0.000000000000000000, -4.000000000000000000 ) ) ;
#408 = ADVANCED_FACE ( 'NONE', ( #572 ), #530, .T. ) ;
#409 = EDGE_LOOP ( 'NONE', ( #465, #230, #45, #342 ) ) ;
#410 = CARTESIAN_POINT ( 'NONE',  ( -2.020000000000000018, 0.000000000000000000, -1.500000000000000000 ) ) ;
#411 =( GEOMETRIC_REPRESENTATION_CONTEXT ( 3 ) GLOBAL_UNCERTAINTY_ASSIGNED_CONTEXT ( ( #157 ) ) GLOBAL_UNIT_ASSIGNED_CONTEXT ( ( #499, #186, #233 ) ) REPRESENTATION_CONTEXT ( 'NONE', 'WORKASPACE' ) );
#412 = ORIENTED_EDGE ( 'NONE', *, *, #168, .T. ) ;
#413 = DIRECTION ( 'NONE',  ( -0.000000000000000000, -0.000000000000000000, 1.000000000000000000 ) ) ;
#414 = EDGE_CURVE ( 'NONE', #517, #144, #13, .T. ) ;
#415 = ORIENTED_EDGE ( 'NONE', *, *, #305, .F. ) ;
#416 = PLANE ( 'NONE',  #24 ) ;
#417 = VERTEX_POINT ( 'NONE', #210 ) ;
#418 = DIRECTION ( 'NONE',  ( 1.000000000000000000, 0.000000000000000000, 0.000000000000000000 ) ) ;
#419 = DIRECTION ( 'NONE',  ( 0.000000000000000000, -1.000000000000000000, 0.000000000000000000 ) ) ;
#420 = FACE_OUTER_BOUND ( 'NONE', #543, .T. ) ;
#421 = CARTESIAN_POINT ( 'NONE',  ( -3.974888734254872436, 4.867834765372104099E-16, 6.089171437260931796 ) ) ;
#422 = DIRECTION ( 'NONE',  ( 1.000000000000000000, 0.000000000000000000, 0.000000000000000000 ) ) ;
#423 = CYLINDRICAL_SURFACE ( 'NONE', #444, 1.000000000000000000 ) ;
#424 = CARTESIAN_POINT ( 'NONE',  ( 0.000000000000000000, 0.000000000000000000, 7.887262954957523498 ) ) ;
#425 = LINE ( 'NONE', #23, #213 ) ;
#426 = CARTESIAN_POINT ( 'NONE',  ( 3.000000000000000444, 0.000000000000000000, -4.000000000000000000 ) ) ;
#427 = EDGE_LOOP ( 'NONE', ( #130, #634, #531, #245 ) ) ;
#428 = DIRECTION ( 'NONE',  ( 1.000000000000000000, 0.000000000000000000, 0.000000000000000000 ) ) ;
#429 = AXIS2_PLACEMENT_3D ( 'NONE', #376, #122, #470 ) ;
#430 = ADVANCED_FACE ( 'NONE', ( #420 ), #121, .T. ) ;
#431 = CARTESIAN_POINT ( 'NONE',  ( 0.000000000000000000, 10.59910082667283326, 4.291079919564339207 ) ) ;
#432 = CC_DESIGN_PERSON_AND_ORGANIZATION_ASSIGNMENT ( #550, #96, ( #366 ) ) ;
#433 = VERTEX_POINT ( 'NONE', #161 ) ;
#434 = CARTESIAN_POINT ( 'NONE',  ( 0.000000000000000000, 0.000000000000000000, 12.19999999999999929 ) ) ;
#435 = ORIENTED_EDGE ( 'NONE', *, *, #133, .F. ) ;
#436 = ORIENTED_EDGE ( 'NONE', *, *, #212, .F. ) ;
#437 = DIRECTION ( 'NONE',  ( -0.000000000000000000, -0.000000000000000000, -1.000000000000000000 ) ) ;
#438 = DATE_TIME_ROLE ( 'classification_date' ) ;
#439 = AXIS2_PLACEMENT_3D ( 'NONE', #424, #373, #224 ) ;
#440 = ADVANCED_FACE ( 'NONE', ( #358 ), #202, .F. ) ;
#441 = ORIENTED_EDGE ( 'NONE', *, *, #613, .T. ) ;
#442 = CARTESIAN_POINT ( 'NONE',  ( 9.471207056481341979, 0.000000000000000000, 7.887262954957523498 ) ) ;
#443 = CIRCLE ( 'NONE', #625, 9.471207056481341979 ) ;
#444 = AXIS2_PLACEMENT_3D ( 'NONE', #627, #583, #374 ) ;
#445 = APPROVAL_STATUS ( 'not_yet_approved' ) ;
#446 = ORIENTED_EDGE ( 'NONE', *, *, #106, .F. ) ;
#447 = PERSON_AND_ORGANIZATION ( #205, #203 ) ;
#448 = FACE_OUTER_BOUND ( 'NONE', #427, .T. ) ;
#449 = VERTEX_POINT ( 'NONE', #659 ) ;
#450 = PERSON_AND_ORGANIZATION_ROLE ( 'creator' ) ;
#451 = CIRCLE ( 'NONE', #249, 5.782961888622025981 ) ;
#452 = LINE ( 'NONE', #552, #217 ) ;
#453 = ORIENTED_EDGE ( 'NONE', *, *, #571, .T. ) ;
#454 = EDGE_CURVE ( 'NONE', #255, #417, #27, .T. ) ;
#455 = LOCAL_TIME ( 0, 42, 48.00000000000000000, #294 ) ;
#456 = EDGE_CURVE ( 'NONE', #127, #433, #361, .T. ) ;
#457 = FACE_BOUND ( 'NONE', #31, .T. ) ;
#458 = EDGE_LOOP ( 'NONE', ( #187, #490, #191, #611 ) ) ;
#459 = CARTESIAN_POINT ( 'NONE',  ( 0.000000000000000000, 0.000000000000000000, 7.887262954957523498 ) ) ;
#460 = EDGE_LOOP ( 'NONE', ( #228, #495, #359, #652 ) ) ;
#461 = EDGE_CURVE ( 'NONE', #417, #255, #390, .T. ) ;
#462 = EDGE_LOOP ( 'NONE', ( #453, #234 ) ) ;
#463 = PLANE ( 'NONE',  #355 ) ;
#464 = CIRCLE ( 'NONE', #526, 9.751486082629755359 ) ;
#465 = ORIENTED_EDGE ( 'NONE', *, *, #392, .F. ) ;
#466 = CARTESIAN_POINT ( 'NONE',  ( 0.000000000000000000, 0.000000000000000000, 12.19999999999999929 ) ) ;
#467 = CARTESIAN_POINT ( 'NONE',  ( 0.000000000000000000, 0.000000000000000000, 7.887262954957523498 ) ) ;
#468 = CARTESIAN_POINT ( 'NONE',  ( -1.000000000000000000, 0.000000000000000000, 12.69999999999999929 ) ) ;
#469 = AXIS2_PLACEMENT_3D ( 'NONE', #323, #113, #266 ) ;
#470 = DIRECTION ( 'NONE',  ( 1.000000000000000000, 0.000000000000000000, 0.000000000000000000 ) ) ;
#471 = DIRECTION ( 'NONE',  ( -0.000000000000000000, -0.000000000000000000, -1.000000000000000000 ) ) ;
#472 = CC_DESIGN_DATE_AND_TIME_ASSIGNMENT ( #405, #239, ( #117 ) ) ;
#473 = AXIS2_PLACEMENT_3D ( 'NONE', #466, #199, #196 ) ;
#474 = CARTESIAN_POINT ( 'NONE',  ( 0.000000000000000000, 0.000000000000000000, 0.000000000000000000 ) ) ;
#475 = DIRECTION ( 'NONE',  ( -1.000000000000000000, 1.224646799147353207E-16, 0.000000000000000000 ) ) ;
#476 = DIRECTION ( 'NONE',  ( -1.000000000000000000, 0.000000000000000000, 0.000000000000000000 ) ) ;
#477 = VERTEX_POINT ( 'NONE', #103 ) ;
#478 = DIRECTION ( 'NONE',  ( 0.000000000000000000, 0.000000000000000000, -1.000000000000000000 ) ) ;
#479 = EDGE_CURVE ( 'NONE', #144, #238, #401, .T. ) ;
#480 = DIRECTION ( 'NONE',  ( 1.000000000000000000, 0.000000000000000000, 0.000000000000000000 ) ) ;
#481 = APPROVAL ( #445, 'UNSPECIFIED' ) ;
#482 = AXIS2_PLACEMENT_3D ( 'NONE', #20, #574, #73 ) ;
#483 = TOROIDAL_SURFACE ( 'NONE', #528, 4.000000000000000000, 6.000000000000000000 ) ;
#484 = CIRCLE ( 'NONE', #339, 9.751486082629755359 ) ;
#485 = VERTEX_POINT ( 'NONE', #56 ) ;
#486 = DIRECTION ( 'NONE',  ( -0.000000000000000000, -0.000000000000000000, -1.000000000000000000 ) ) ;
#487 = ORIENTED_EDGE ( 'NONE', *, *, #85, .T. ) ;
#488 = VERTEX_POINT ( 'NONE', #307 ) ;
#489 = LINE ( 'NONE', #386, #657 ) ;
#490 = ORIENTED_EDGE ( 'NONE', *, *, #628, .F. ) ;
#491 = ORIENTED_EDGE ( 'NONE', *, *, #212, .T. ) ;
#492 = DIRECTION ( 'NONE',  ( 0.000000000000000000, 0.000000000000000000, 1.000000000000000000 ) ) ;
#493 = AXIS2_PLACEMENT_3D ( 'NONE', #579, #327, #264 ) ;
#494 = PRODUCT_DEFINITION_SHAPE ( 'NONE', 'NONE',  #117 ) ;
#495 = ORIENTED_EDGE ( 'NONE', *, *, #456, .T. ) ;
#496 = ORIENTED_EDGE ( 'NONE', *, *, #551, .F. ) ;
#497 = AXIS2_PLACEMENT_3D ( 'NONE', #352, #189, #395 ) ;
#498 = CALENDAR_DATE ( 2025, 11, 6 ) ;
#499 =( LENGTH_UNIT ( ) NAMED_UNIT ( * ) SI_UNIT ( .MILLI., .METRE. ) );
#500 = ORIENTED_EDGE ( 'NONE', *, *, #454, .F. ) ;
#501 = SECURITY_CLASSIFICATION_LEVEL ( 'unclassified' ) ;
#502 = ADVANCED_FACE ( 'NONE', ( #620 ), #515, .T. ) ;
#503 = CARTESIAN_POINT ( 'NONE',  ( 0.000000000000000000, 0.000000000000000000, 12.69999999999999929 ) ) ;
#504 = VERTEX_POINT ( 'NONE', #618 ) ;
#505 = APPLICATION_PROTOCOL_DEFINITION ( 'international standard', 'config_control_design', 1994, #321 ) ;
#506 = PLANE ( 'NONE',  #101 ) ;
#507 = AXIS2_PLACEMENT_3D ( 'NONE', #467, #353, #256 ) ;
#508 = AXIS2_PLACEMENT_3D ( 'NONE', #71, #169, #624 ) ;
#509 = EDGE_LOOP ( 'NONE', ( #148, #514, #345, #285 ) ) ;
#510 = DIRECTION ( 'NONE',  ( 0.000000000000000000, 0.000000000000000000, 1.000000000000000000 ) ) ;
#511 = ADVANCED_FACE ( 'NONE', ( #251, #156 ), #2, .F. ) ;
#512 = CC_DESIGN_APPROVAL ( #481, ( #248 ) ) ;
#513 = ORIENTED_EDGE ( 'NONE', *, *, #222, .F. ) ;
#514 = ORIENTED_EDGE ( 'NONE', *, *, #98, .T. ) ;
#515 = CYLINDRICAL_SURFACE ( 'NONE', #267, 1.000000000000000000 ) ;
#516 = ORIENTED_EDGE ( 'NONE', *, *, #125, .F. ) ;
#517 = VERTEX_POINT ( 'NONE', #108 ) ;
#518 = DIRECTION ( 'NONE',  ( 1.000000000000000000, 0.000000000000000000, 0.000000000000000000 ) ) ;
#519 = CARTESIAN_POINT ( 'NONE',  ( -4.000000000000000000, 4.898587196589412829E-16, 6.199999999999999289 ) ) ;
#520 = CARTESIAN_POINT ( 'NONE',  ( 1.000000000000000000, 1.224646799147352961E-16, 15.51999999999999957 ) ) ;
#521 = CYLINDRICAL_SURFACE ( 'NONE', #297, 3.000000000000000444 ) ;
#522 = ADVANCED_FACE ( 'NONE', ( #457, #60 ), #506, .T. ) ;
#523 = DIRECTION ( 'NONE',  ( -0.000000000000000000, -0.000000000000000000, -1.000000000000000000 ) ) ;
#524 = AXIS2_PLACEMENT_3D ( 'NONE', #372, #534, #476 ) ;
#525 = CARTESIAN_POINT ( 'NONE',  ( 0.000000000000000000, 0.000000000000000000, 4.291079919564339207 ) ) ;
#526 = AXIS2_PLACEMENT_3D ( 'NONE', #525, #119, #63 ) ;
#527 = CARTESIAN_POINT ( 'NONE',  ( 0.000000000000000000, 0.000000000000000000, 6.089171437260931796 ) ) ;
#528 = AXIS2_PLACEMENT_3D ( 'NONE', #94, #598, #655 ) ;
#529 = AXIS2_PLACEMENT_3D ( 'NONE', #431, #181, #229 ) ;
#530 = CYLINDRICAL_SURFACE ( 'NONE', #429, 3.000000000000000444 ) ;
#531 = ORIENTED_EDGE ( 'NONE', *, *, #125, .T. ) ;
#532 = DIRECTION ( 'NONE',  ( 1.000000000000000000, 0.000000000000000000, 0.000000000000000000 ) ) ;
#533 = EDGE_CURVE ( 'NONE', #293, #417, #66, .T. ) ;
#534 = DIRECTION ( 'NONE',  ( 0.000000000000000000, 0.000000000000000000, -1.000000000000000000 ) ) ;
#535 = CARTESIAN_POINT ( 'NONE',  ( 0.000000000000000000, 0.000000000000000000, 12.69999999999999929 ) ) ;
#536 = ORIENTED_EDGE ( 'NONE', *, *, #454, .T. ) ;
#537 = DIRECTION ( 'NONE',  ( -1.000000000000000000, 0.000000000000000000, 0.000000000000000000 ) ) ;
#538 = CC_DESIGN_APPROVAL ( #573, ( #366 ) ) ;
#539 = ORIENTED_EDGE ( 'NONE', *, *, #581, .F. ) ;
#540 = CARTESIAN_POINT ( 'NONE',  ( 0.000000000000000000, 0.000000000000000000, 15.51999999999999957 ) ) ;
#541 = APPROVAL_ROLE ( '' ) ;
#542 = EDGE_LOOP ( 'NONE', ( #201, #258, #59, #288 ) ) ;
#543 = EDGE_LOOP ( 'NONE', ( #93, #309, #387, #88 ) ) ;
#544 = CARTESIAN_POINT ( 'NONE',  ( 1.000000000000000000, 1.224646799147352961E-16, 12.69999999999999929 ) ) ;
#545 = DATE_AND_TIME ( #498, #290 ) ;
#546 = ORIENTED_EDGE ( 'NONE', *, *, #384, .F. ) ;
#547 = CARTESIAN_POINT ( 'NONE',  ( 4.000000000000000000, 0.000000000000000000, 12.19999999999999929 ) ) ;
#548 = DIRECTION ( 'NONE',  ( -1.000000000000000000, 0.000000000000000000, 0.000000000000000000 ) ) ;
#549 = ORIENTED_EDGE ( 'NONE', *, *, #363, .F. ) ;
#550 = PERSON_AND_ORGANIZATION ( #205, #203 ) ;
#551 = EDGE_CURVE ( 'NONE', #83, #296, #110, .T. ) ;
#552 = CARTESIAN_POINT ( 'NONE',  ( 2.020000000000000018, 2.473786534277653917E-16, -1.500000000000000000 ) ) ;
#553 = ADVANCED_FACE ( 'NONE', ( #7 ), #463, .T. ) ;
#554 = APPROVAL_ROLE ( '' ) ;
#555 = CARTESIAN_POINT ( 'NONE',  ( 2.500000000000000000, 3.061616997868383141E-16, 12.19999999999999929 ) ) ;
#556 = CARTESIAN_POINT ( 'NONE',  ( 0.000000000000000000, 0.000000000000000000, 0.000000000000000000 ) ) ;
#557 = DIRECTION ( 'NONE',  ( 1.000000000000000000, 0.000000000000000000, 0.000000000000000000 ) ) ;
#558 = EDGE_CURVE ( 'NONE', #504, #293, #3, .T. ) ;
#559 = AXIS2_PLACEMENT_3D ( 'NONE', #158, #404, #606 ) ;
#560 = AXIS2_PLACEMENT_3D ( 'NONE', #382, #596, #138 ) ;
#561 = DESIGN_CONTEXT ( 'detailed design', #321, 'design' ) ;
#562 = ORIENTED_EDGE ( 'NONE', *, *, #392, .T. ) ;
#563 = CARTESIAN_POINT ( 'NONE',  ( 0.000000000000000000, 0.000000000000000000, -1.500000000000000000 ) ) ;
#564 = EDGE_LOOP ( 'NONE', ( #643, #562 ) ) ;
#565 = VERTEX_POINT ( 'NONE', #149 ) ;
#566 = CARTESIAN_POINT ( 'NONE',  ( 0.000000000000000000, 0.000000000000000000, 12.19999999999999929 ) ) ;
#567 = DIRECTION ( 'NONE',  ( 0.000000000000000000, 0.000000000000000000, 1.000000000000000000 ) ) ;
#568 = CARTESIAN_POINT ( 'NONE',  ( -3.000000000000000444, 3.673940397442060361E-16, -4.000000000000000000 ) ) ;
#569 = CIRCLE ( 'NONE', #51, 2.020000000000000018 ) ;
#570 = AXIS2_PLACEMENT_3D ( 'NONE', #283, #286, #178 ) ;
#571 = EDGE_CURVE ( 'NONE', #226, #485, #443, .T. ) ;
#572 = FACE_OUTER_BOUND ( 'NONE', #460, .T. ) ;
#573 = APPROVAL ( #653, 'UNSPECIFIED' ) ;
#574 = DIRECTION ( 'NONE',  ( -0.000000000000000000, -0.000000000000000000, -1.000000000000000000 ) ) ;
#575 = LOCAL_TIME ( 0, 42, 48.00000000000000000, #284 ) ;
#576 = DIRECTION ( 'NONE',  ( -0.000000000000000000, -0.000000000000000000, 1.000000000000000000 ) ) ;
#577 = DIRECTION ( 'NONE',  ( 1.224646799147353207E-16, 1.000000000000000000, 0.000000000000000000 ) ) ;
#578 = DIRECTION ( 'NONE',  ( -0.000000000000000000, -0.000000000000000000, -1.000000000000000000 ) ) ;
#579 = CARTESIAN_POINT ( 'NONE',  ( 0.000000000000000000, 0.000000000000000000, 12.69999999999999929 ) ) ;
#580 = VECTOR ( 'NONE', #216, 1000.000000000000000 ) ;
#581 = EDGE_CURVE ( 'NONE', #617, #565, #661, .T. ) ;
#582 = ORIENTED_EDGE ( 'NONE', *, *, #222, .T. ) ;
#583 = DIRECTION ( 'NONE',  ( -0.000000000000000000, -0.000000000000000000, -1.000000000000000000 ) ) ;
#584 = APPROVAL_PERSON_ORGANIZATION ( #597, #140, #347 ) ;
#585 = AXIS2_PLACEMENT_3D ( 'NONE', #320, #171, #208 ) ;
#586 = DIRECTION ( 'NONE',  ( 1.000000000000000000, 0.000000000000000000, 0.000000000000000000 ) ) ;
#587 = VERTEX_POINT ( 'NONE', #241 ) ;
#588 = CARTESIAN_POINT ( 'NONE',  ( 2.500000000000000000, 3.061616997868383141E-16, 12.69999999999999929 ) ) ;
#589 = DIRECTION ( 'NONE',  ( 1.000000000000000000, 0.000000000000000000, 0.000000000000000000 ) ) ;
#590 = CIRCLE ( 'NONE', #469, 6.000000000000000000 ) ;
#591 = DIRECTION ( 'NONE',  ( 1.000000000000000000, 0.000000000000000000, 0.000000000000000000 ) ) ;
#592 = AXIS2_PLACEMENT_3D ( 'NONE', #277, #419, #630 ) ;
#593 = ORIENTED_EDGE ( 'NONE', *, *, #37, .F. ) ;
#594 = FACE_OUTER_BOUND ( 'NONE', #397, .T. ) ;
#595 = VERTEX_POINT ( 'NONE', #555 ) ;
#596 = DIRECTION ( 'NONE',  ( 0.000000000000000000, 0.000000000000000000, -1.000000000000000000 ) ) ;
#597 = PERSON_AND_ORGANIZATION ( #205, #203 ) ;
#598 = DIRECTION ( 'NONE',  ( 0.000000000000000000, 0.000000000000000000, 1.000000000000000000 ) ) ;
#599 = EDGE_LOOP ( 'NONE', ( #385, #491, #250, #48 ) ) ;
#600 = ADVANCED_FACE ( 'NONE', ( #448 ), #483, .T. ) ;
#601 = DATE_AND_TIME ( #398, #455 ) ;
#602 = CC_DESIGN_DATE_AND_TIME_ASSIGNMENT ( #46, #438, ( #248 ) ) ;
#603 = CARTESIAN_POINT ( 'NONE',  ( -9.471207056481341979, 1.159888340578170064E-15, 4.291079919564339207 ) ) ;
#604 = EDGE_LOOP ( 'NONE', ( #436, #513, #357, #446 ) ) ;
#605 = PERSON_AND_ORGANIZATION ( #205, #203 ) ;
#606 = DIRECTION ( 'NONE',  ( 1.000000000000000000, 0.000000000000000000, 0.000000000000000000 ) ) ;
#607 = CC_DESIGN_SECURITY_CLASSIFICATION ( #248, ( #366 ) ) ;
#608 = CIRCLE ( 'NONE', #232, 9.471207056481341979 ) ;
#609 = DIRECTION ( 'NONE',  ( 1.000000000000000000, 0.000000000000000000, -0.000000000000000000 ) ) ;
#610 = AXIS2_PLACEMENT_3D ( 'NONE', #474, #19, #115 ) ;
#611 = ORIENTED_EDGE ( 'NONE', *, *, #37, .T. ) ;
#612 = DIRECTION ( 'NONE',  ( -0.000000000000000000, -0.000000000000000000, -1.000000000000000000 ) ) ;
#613 = EDGE_CURVE ( 'NONE', #198, #477, #452, .T. ) ;
#614 = AXIS2_PLACEMENT_3D ( 'NONE', #434, #91, #292 ) ;
#615 = AXIS2_PLACEMENT_3D ( 'NONE', #635, #492, #135 ) ;
#616 = EDGE_LOOP ( 'NONE', ( #536, #259 ) ) ;
#617 = VERTEX_POINT ( 'NONE', #400 ) ;
#618 = CARTESIAN_POINT ( 'NONE',  ( 9.757876667733341947, 0.000000000000000000, 7.887262954957523498 ) ) ;
#619 = CARTESIAN_POINT ( 'NONE',  ( 0.000000000000000000, 10.59910082667283326, 7.887262954957523498 ) ) ;
#620 = FACE_OUTER_BOUND ( 'NONE', #599, .T. ) ;
#621 = LINE ( 'NONE', #588, #623 ) ;
#622 = ADVANCED_FACE ( 'NONE', ( #44 ), #152, .T. ) ;
#623 = VECTOR ( 'NONE', #633, 1000.000000000000000 ) ;
#624 = DIRECTION ( 'NONE',  ( -1.000000000000000000, 0.000000000000000000, 0.000000000000000000 ) ) ;
#625 = AXIS2_PLACEMENT_3D ( 'NONE', #459, #99, #557 ) ;
#626 = LINE ( 'NONE', #426, #209 ) ;
#627 = CARTESIAN_POINT ( 'NONE',  ( 0.000000000000000000, 0.000000000000000000, 15.51999999999999957 ) ) ;
#628 = EDGE_CURVE ( 'NONE', #296, #83, #236, .T. ) ;
#629 = CYLINDRICAL_SURFACE ( 'NONE', #493, 2.500000000000000000 ) ;
#630 = DIRECTION ( 'NONE',  ( 0.000000000000000000, 0.000000000000000000, -1.000000000000000000 ) ) ;
#631 = FACE_OUTER_BOUND ( 'NONE', #349, .T. ) ;
#632 = AXIS2_PLACEMENT_3D ( 'NONE', #172, #368, #586 ) ;
#633 = DIRECTION ( 'NONE',  ( -0.000000000000000000, -0.000000000000000000, -1.000000000000000000 ) ) ;
#634 = ORIENTED_EDGE ( 'NONE', *, *, #363, .T. ) ;
#635 = CARTESIAN_POINT ( 'NONE',  ( 0.000000000000000000, 0.000000000000000000, 12.69999999999999929 ) ) ;
#636 = CYLINDRICAL_SURFACE ( 'NONE', #147, 2.500000000000000000 ) ;
#637 = EDGE_CURVE ( 'NONE', #477, #565, #569, .T. ) ;
#638 = EDGE_LOOP ( 'NONE', ( #76, #549 ) ) ;
#639 = CARTESIAN_POINT ( 'NONE',  ( -2.500000000000000000, 0.000000000000000000, 12.19999999999999929 ) ) ;
#640 = DATE_AND_TIME ( #49, #136 ) ;
#641 = AXIS2_PLACEMENT_3D ( 'NONE', #563, #53, #100 ) ;
#642 = CIRCLE ( 'NONE', #237, 2.500000000000000000 ) ;
#643 = ORIENTED_EDGE ( 'NONE', *, *, #17, .T. ) ;
#644 = DIRECTION ( 'NONE',  ( 0.000000000000000000, 0.000000000000000000, -1.000000000000000000 ) ) ;
#645 = MECHANICAL_CONTEXT ( 'NONE', #89, 'mechanical' ) ;
#646 = ADVANCED_FACE ( 'NONE', ( #244, #647 ), #403, .T. ) ;
#647 = FACE_BOUND ( 'NONE', #54, .T. ) ;
#648 = EDGE_LOOP ( 'NONE', ( #1, #304, #487, #546 ) ) ;
#649 = CC_DESIGN_PERSON_AND_ORGANIZATION_ASSIGNMENT ( #36, #289, ( #276 ) ) ;
#650 = COORDINATED_UNIVERSAL_TIME_OFFSET ( 8, 0, .BEHIND. ) ;
#651 = DIRECTION ( 'NONE',  ( 0.000000000000000000, 0.000000000000000000, 1.000000000000000000 ) ) ;
#652 = ORIENTED_EDGE ( 'NONE', *, *, #312, .F. ) ;
#653 = APPROVAL_STATUS ( 'not_yet_approved' ) ;
#654 = CIRCLE ( 'NONE', #75, 6.000000000000000000 ) ;
#655 = DIRECTION ( 'NONE',  ( 1.000000000000000000, 0.000000000000000000, 0.000000000000000000 ) ) ;
#656 = LOCAL_TIME ( 0, 42, 48.00000000000000000, #42 ) ;
#657 = VECTOR ( 'NONE', #437, 1000.000000000000000 ) ;
#658 = PERSON_AND_ORGANIZATION ( #205, #203 ) ;
#659 = CARTESIAN_POINT ( 'NONE',  ( -9.751486082629755359, 1.194212621802249230E-15, 4.291079919564339207 ) ) ;
#660 = VERTEX_POINT ( 'NONE', #603 ) ;
#661 = LINE ( 'NONE', #410, #38 ) ;
ENDSEC;
END-ISO-10303-21;
