ISO-10303-21;
HEADER;
FILE_DESCRIPTION (( 'STEP AP214' ),
    '1' );
FILE_NAME ('cubit3_mag_support_P.STEP',
    '2025-06-11T07:44:50',
    ( '' ),
    ( '' ),
    'SwSTEP 2.0',
    'SolidWorks 2023',
    '' );
FILE_SCHEMA (( 'AUTOMOTIVE_DESIGN' ));
ENDSEC;

DATA;
#1 = ORIENTED_EDGE ( 'NONE', *, *, #611, .T. ) ;
#2 = LINE ( 'NONE', #475, #35 ) ;
#3 = DIRECTION ( 'NONE',  ( 0.000000000000000000, 0.000000000000000000, 1.000000000000000000 ) ) ;
#4 = CARTESIAN_POINT ( 'NONE',  ( -3.828430242851232901, 2.760334413162493394, 12.59487999942863645 ) ) ;
#5 = CARTESIAN_POINT ( 'NONE',  ( -1.808430242851232883, 2.760334413162493394, 17.74487999942863681 ) ) ;
#6 = CIRCLE ( 'NONE', #551, 3.000000000000000444 ) ;
#7 = APPLICATION_PROTOCOL_DEFINITION ( 'draft international standard', 'automotive_design', 1998, #637 ) ;
#8 = CARTESIAN_POINT ( 'NONE',  ( 13.69871272854152799, -13.26657293854942665, 12.24487999942863681 ) ) ;
#9 = ORIENTED_EDGE ( 'NONE', *, *, #513, .T. ) ;
#10 = CARTESIAN_POINT ( 'NONE',  ( -3.828430242851232901, 2.760334413162493394, 13.59487999942863823 ) ) ;
#11 = VECTOR ( 'NONE', #158, 1000.000000000000000 ) ;
#12 = DIRECTION ( 'NONE',  ( 0.000000000000000000, 0.000000000000000000, 1.000000000000000000 ) ) ;
#13 = PRODUCT_CONTEXT ( 'NONE', #637, 'mechanical' ) ;
#14 = EDGE_CURVE ( 'NONE', #130, #45, #661, .T. ) ;
#15 = CARTESIAN_POINT ( 'NONE',  ( 9.023254223771152382, 16.88988523300021072, 9.044879999428637518 ) ) ;
#16 = AXIS2_PLACEMENT_3D ( 'NONE', #564, #353, #272 ) ;
#17 = PLANE ( 'NONE',  #273 ) ;
#18 = ORIENTED_EDGE ( 'NONE', *, *, #662, .T. ) ;
#19 = ADVANCED_FACE ( 'NONE', ( #385, #75 ), #524, .T. ) ;
#20 = DIRECTION ( 'NONE',  ( 0.000000000000000000, 0.000000000000000000, 1.000000000000000000 ) ) ;
#21 = ORIENTED_EDGE ( 'NONE', *, *, #945, .T. ) ;
#22 = EDGE_CURVE ( 'NONE', #241, #453, #264, .T. ) ;
#23 = ADVANCED_FACE ( 'NONE', ( #926 ), #355, .F. ) ;
#24 = DIRECTION ( 'NONE',  ( 0.000000000000000000, 0.000000000000000000, 1.000000000000000000 ) ) ;
#25 = CIRCLE ( 'NONE', #411, 23.75000000000000355 ) ;
#26 = AXIS2_PLACEMENT_3D ( 'NONE', #435, #136, #772 ) ;
#27 = DIRECTION ( 'NONE',  ( 1.000000000000000000, 0.000000000000000000, 0.000000000000000000 ) ) ;
#28 = ORIENTED_EDGE ( 'NONE', *, *, #192, .F. ) ;
#29 = CYLINDRICAL_SURFACE ( 'NONE', #530, 2.020000000000000018 ) ;
#30 = EDGE_CURVE ( 'NONE', #436, #948, #404, .T. ) ;
#31 = CARTESIAN_POINT ( 'NONE',  ( -16.68011470947362795, 16.88988523300021072, 47.22444312810840472 ) ) ;
#32 = ORIENTED_EDGE ( 'NONE', *, *, #292, .T. ) ;
#33 = CARTESIAN_POINT ( 'NONE',  ( -17.95798106268894756, -10.09135005345990166, 47.22444312810840472 ) ) ;
#34 = ORIENTED_EDGE ( 'NONE', *, *, #854, .T. ) ;
#35 = VECTOR ( 'NONE', #749, 1000.000000000000000 ) ;
#36 = AXIS2_PLACEMENT_3D ( 'NONE', #812, #135, #944 ) ;
#37 = DIRECTION ( 'NONE',  ( 0.000000000000000000, -1.000000000000000000, 0.000000000000000000 ) ) ;
#38 = VERTEX_POINT ( 'NONE', #588 ) ;
#39 = EDGE_CURVE ( 'NONE', #402, #303, #942, .T. ) ;
#40 = VERTEX_POINT ( 'NONE', #47 ) ;
#41 = LINE ( 'NONE', #347, #265 ) ;
#42 = CYLINDRICAL_SURFACE ( 'NONE', #587, 3.000000000000000888 ) ;
#43 = VECTOR ( 'NONE', #667, 1000.000000000000000 ) ;
#44 = CARTESIAN_POINT ( 'NONE',  ( -19.85533759456316005, 20.28747738455524541, 12.24487999942863681 ) ) ;
#45 = VERTEX_POINT ( 'NONE', #657 ) ;
#46 = PRODUCT ( 'cubit3_mag_support_P', 'cubit3_mag_support_P', '', ( #13 ) ) ;
#47 = CARTESIAN_POINT ( 'NONE',  ( -27.57843024285123334, 2.760334413162493394, 12.24487999942863681 ) ) ;
#48 = DIRECTION ( 'NONE',  ( 0.000000000000000000, 0.000000000000000000, 1.000000000000000000 ) ) ;
#49 = CARTESIAN_POINT ( 'NONE',  ( -3.828430242851232901, 2.760334413162493394, 13.59487999942863823 ) ) ;
#50 = ORIENTED_EDGE ( 'NONE', *, *, #468, .T. ) ;
#51 = ADVANCED_FACE ( 'NONE', ( #866 ), #294, .F. ) ;
#52 = CARTESIAN_POINT ( 'NONE',  ( -3.828430242851232901, 2.760334413162493394, 9.044879999428637518 ) ) ;
#53 = EDGE_CURVE ( 'NONE', #533, #303, #96, .T. ) ;
#54 = DIRECTION ( 'NONE',  ( -1.000000000000000000, 0.000000000000000000, 0.000000000000000000 ) ) ;
#55 = CARTESIAN_POINT ( 'NONE',  ( -21.35557321424398225, -13.26657293854943021, 12.24487999942863681 ) ) ;
#56 = EDGE_LOOP ( 'NONE', ( #234, #879 ) ) ;
#57 = DIRECTION ( 'NONE',  ( 1.000000000000000000, 0.000000000000000000, 0.000000000000000000 ) ) ;
#58 = ADVANCED_FACE ( 'NONE', ( #133 ), #440, .F. ) ;
#59 = ORIENTED_EDGE ( 'NONE', *, *, #937, .T. ) ;
#60 = DIRECTION ( 'NONE',  ( -1.000000000000000000, 0.000000000000000000, 0.000000000000000000 ) ) ;
#61 =( NAMED_UNIT ( * ) PLANE_ANGLE_UNIT ( ) SI_UNIT ( $, .RADIAN. ) );
#62 = ORIENTED_EDGE ( 'NONE', *, *, #826, .F. ) ;
#63 = AXIS2_PLACEMENT_3D ( 'NONE', #612, #689, #695 ) ;
#64 = CARTESIAN_POINT ( 'NONE',  ( -21.35557321424398580, -13.26657293854943376, 11.24487999942863681 ) ) ;
#65 = ORIENTED_EDGE ( 'NONE', *, *, #87, .F. ) ;
#66 = DIRECTION ( 'NONE',  ( -0.000000000000000000, -0.000000000000000000, -1.000000000000000000 ) ) ;
#67 = DIRECTION ( 'NONE',  ( -0.000000000000000000, -0.000000000000000000, -1.000000000000000000 ) ) ;
#68 = PRODUCT_DEFINITION_CONTEXT ( 'detailed design', #349, 'design' ) ;
#69 = FACE_BOUND ( 'NONE', #735, .T. ) ;
#70 = ORIENTED_EDGE ( 'NONE', *, *, #403, .F. ) ;
#71 = CARTESIAN_POINT ( 'NONE',  ( -6.828430242851234233, 2.760334413162493394, 12.59487999942863645 ) ) ;
#72 = FACE_OUTER_BOUND ( 'NONE', #585, .T. ) ;
#73 = VECTOR ( 'NONE', #214, 1000.000000000000114 ) ;
#74 = EDGE_CURVE ( 'NONE', #538, #38, #748, .T. ) ;
#75 = FACE_OUTER_BOUND ( 'NONE', #116, .T. ) ;
#76 = EDGE_CURVE ( 'NONE', #688, #589, #871, .T. ) ;
#77 = PRODUCT_DEFINITION_SHAPE ( 'NONE', 'NONE',  #342 ) ;
#78 = CARTESIAN_POINT ( 'NONE',  ( -3.828430242851232901, 2.760334413162493394, 47.22444312810840472 ) ) ;
#79 = CARTESIAN_POINT ( 'NONE',  ( -16.68011470947362795, 16.88988523300021072, 9.044879999428637518 ) ) ;
#80 = PRESENTATION_STYLE_ASSIGNMENT (( #220 ) ) ;
#81 = ORIENTED_EDGE ( 'NONE', *, *, #53, .T. ) ;
#82 = DIRECTION ( 'NONE',  ( -0.000000000000000000, -0.000000000000000000, -1.000000000000000000 ) ) ;
#83 = CARTESIAN_POINT ( 'NONE',  ( -3.828430242851232901, 2.760334413162493394, 12.59487999942863645 ) ) ;
#84 = ORIENTED_EDGE ( 'NONE', *, *, #912, .F. ) ;
#85 = EDGE_CURVE ( 'NONE', #910, #696, #505, .T. ) ;
#86 = DIRECTION ( 'NONE',  ( -0.000000000000000000, -0.000000000000000000, -1.000000000000000000 ) ) ;
#87 = EDGE_CURVE ( 'NONE', #137, #688, #804, .T. ) ;
#88 = LINE ( 'NONE', #239, #803 ) ;
#89 = FACE_BOUND ( 'NONE', #255, .T. ) ;
#90 = ORIENTED_EDGE ( 'NONE', *, *, #39, .T. ) ;
#91 = VECTOR ( 'NONE', #308, 1000.000000000000000 ) ;
#92 = LINE ( 'NONE', #674, #91 ) ;
#93 = CARTESIAN_POINT ( 'NONE',  ( 9.171569757148768431, 2.760334413162495171, 12.24487999942863681 ) ) ;
#94 = ORIENTED_EDGE ( 'NONE', *, *, #746, .F. ) ;
#95 = ORIENTED_EDGE ( 'NONE', *, *, #74, .F. ) ;
#96 = CIRCLE ( 'NONE', #201, 23.75000000000000355 ) ;
#97 = AXIS2_PLACEMENT_3D ( 'NONE', #743, #753, #681 ) ;
#98 = CIRCLE ( 'NONE', #701, 23.75000000000000355 ) ;
#99 = APPLICATION_PROTOCOL_DEFINITION ( 'draft international standard', 'automotive_design', 1998, #349 ) ;
#100 = CARTESIAN_POINT ( 'NONE',  ( 8.171569757148768431, 2.760334413162493394, 13.59487999942863823 ) ) ;
#101 = ORIENTED_EDGE ( 'NONE', *, *, #539, .T. ) ;
#102 = EDGE_LOOP ( 'NONE', ( #70, #874, #864, #549 ) ) ;
#103 = DIRECTION ( 'NONE',  ( -0.000000000000000000, -0.000000000000000000, -1.000000000000000000 ) ) ;
#104 = DIRECTION ( 'NONE',  ( -0.000000000000000000, -0.000000000000000000, 1.000000000000000000 ) ) ;
#105 = ORIENTED_EDGE ( 'NONE', *, *, #859, .T. ) ;
#106 = DIRECTION ( 'NONE',  ( 0.000000000000000000, 0.000000000000000000, 1.000000000000000000 ) ) ;
#107 = COLOUR_RGB ( '',0.7921568627450980005, 0.8196078431372548767, 0.9333333333333333481 ) ;
#108 = VECTOR ( 'NONE', #111, 1000.000000000000000 ) ;
#109 = LINE ( 'NONE', #15, #152 ) ;
#110 = ADVANCED_FACE ( 'NONE', ( #646 ), #881, .T. ) ;
#111 = DIRECTION ( 'NONE',  ( 0.7306113773142041135, -0.6827935378568266156, -0.000000000000000000 ) ) ;
#112 = DIRECTION ( 'NONE',  ( 0.000000000000000000, 0.000000000000000000, 1.000000000000000000 ) ) ;
#113 = LINE ( 'NONE', #331, #851 ) ;
#114 = EDGE_CURVE ( 'NONE', #184, #422, #365, .T. ) ;
#115 = CARTESIAN_POINT ( 'NONE',  ( -3.828430242851232901, 2.760334413162493394, 12.24487999942863681 ) ) ;
#116 = EDGE_LOOP ( 'NONE', ( #293, #1 ) ) ;
#117 = STYLED_ITEM ( 'NONE', ( #889 ), #684 ) ;
#118 = AXIS2_PLACEMENT_3D ( 'NONE', #49, #106, #280 ) ;
#119 = CARTESIAN_POINT ( 'NONE',  ( -3.828430242851232901, 2.760334413162493394, 12.24487999942863681 ) ) ;
#120 = ORIENTED_EDGE ( 'NONE', *, *, #22, .T. ) ;
#121 = ORIENTED_EDGE ( 'NONE', *, *, #488, .T. ) ;
#122 = DIRECTION ( 'NONE',  ( 0.000000000000000000, 0.000000000000000000, 1.000000000000000000 ) ) ;
#123 = DIRECTION ( 'NONE',  ( 0.000000000000000000, 0.000000000000000000, -1.000000000000000000 ) ) ;
#124 = CYLINDRICAL_SURFACE ( 'NONE', #26, 13.00000000000000178 ) ;
#125 = EDGE_CURVE ( 'NONE', #453, #520, #41, .T. ) ;
#126 = EDGE_LOOP ( 'NONE', ( #726, #617, #374, #811 ) ) ;
#127 = DIRECTION ( 'NONE',  ( 1.000000000000000000, 0.000000000000000000, 0.000000000000000000 ) ) ;
#128 = LINE ( 'NONE', #318, #11 ) ;
#129 = DIRECTION ( 'NONE',  ( -0.7306113773142052237, -0.6827935378568253943, 0.000000000000000000 ) ) ;
#130 = VERTEX_POINT ( 'NONE', #268 ) ;
#131 = FACE_OUTER_BOUND ( 'NONE', #409, .T. ) ;
#132 = ADVANCED_FACE ( 'NONE', ( #572 ), #565, .T. ) ;
#133 = FACE_OUTER_BOUND ( 'NONE', #668, .T. ) ;
#134 = VECTOR ( 'NONE', #396, 1000.000000000000000 ) ;
#135 = DIRECTION ( 'NONE',  ( 0.000000000000000000, 0.000000000000000000, -1.000000000000000000 ) ) ;
#136 = DIRECTION ( 'NONE',  ( -0.000000000000000000, -0.000000000000000000, -1.000000000000000000 ) ) ;
#137 = VERTEX_POINT ( 'NONE', #499 ) ;
#138 = DIRECTION ( 'NONE',  ( 0.6827935378568266156, 0.7306113773142041135, 0.000000000000000000 ) ) ;
#139 = ORIENTED_EDGE ( 'NONE', *, *, #848, .T. ) ;
#140 = AXIS2_PLACEMENT_3D ( 'NONE', #4, #122, #373 ) ;
#141 = VERTEX_POINT ( 'NONE', #788 ) ;
#142 = CIRCLE ( 'NONE', #686, 13.00000000000000178 ) ;
#143 = CARTESIAN_POINT ( 'NONE',  ( -3.828430242851232901, 2.760334413162493394, 9.044879999428637518 ) ) ;
#144 = ADVANCED_FACE ( 'NONE', ( #359 ), #742, .F. ) ;
#145 = VERTEX_POINT ( 'NONE', #822 ) ;
#146 = CARTESIAN_POINT ( 'NONE',  ( 12.19847710886069336, 20.28747738455524541, 12.24487999942863681 ) ) ;
#147 = EDGE_CURVE ( 'NONE', #320, #371, #186, .T. ) ;
#148 = DIRECTION ( 'NONE',  ( 0.000000000000000000, 0.000000000000000000, 1.000000000000000000 ) ) ;
#149 = ORIENTED_EDGE ( 'NONE', *, *, #338, .F. ) ;
#150 = DIRECTION ( 'NONE',  ( 1.000000000000000000, 0.000000000000000000, 0.000000000000000000 ) ) ;
#151 = CARTESIAN_POINT ( 'NONE',  ( -3.828430242851232901, 2.760334413162493394, 47.22444312810840472 ) ) ;
#152 = VECTOR ( 'NONE', #541, 1000.000000000000000 ) ;
#153 = CARTESIAN_POINT ( 'NONE',  ( -21.35557321424398580, -13.26657293854943376, 9.044879999428637518 ) ) ;
#154 = AXIS2_PLACEMENT_3D ( 'NONE', #434, #361, #269 ) ;
#155 = ORIENTED_EDGE ( 'NONE', *, *, #386, .F. ) ;
#156 = AXIS2_PLACEMENT_3D ( 'NONE', #178, #485, #457 ) ;
#157 = LINE ( 'NONE', #225, #173 ) ;
#158 = DIRECTION ( 'NONE',  ( -0.000000000000000000, -0.000000000000000000, -1.000000000000000000 ) ) ;
#159 = DIRECTION ( 'NONE',  ( -1.000000000000000000, 0.000000000000000000, 0.000000000000000000 ) ) ;
#160 = ORIENTED_EDGE ( 'NONE', *, *, #394, .F. ) ;
#161 = ADVANCED_FACE ( 'NONE', ( #69, #747 ), #450, .T. ) ;
#162 = CARTESIAN_POINT ( 'NONE',  ( -17.95798106268894756, -10.09135005345990166, 9.044879999428637518 ) ) ;
#163 = LINE ( 'NONE', #673, #43 ) ;
#164 = CARTESIAN_POINT ( 'NONE',  ( -22.92843024285123477, 2.760334413162493394, 47.22444312810840472 ) ) ;
#165 = CARTESIAN_POINT ( 'NONE',  ( -3.828430242851232901, 2.760334413162493394, 15.24487999942863503 ) ) ;
#166 = DIRECTION ( 'NONE',  ( 0.000000000000000000, 0.000000000000000000, 1.000000000000000000 ) ) ;
#167 = VERTEX_POINT ( 'NONE', #5 ) ;
#168 = CIRCLE ( 'NONE', #569, 19.09999999999999432 ) ;
#169 = AXIS2_PLACEMENT_3D ( 'NONE', #270, #362, #868 ) ;
#170 = DIRECTION ( 'NONE',  ( 1.000000000000000000, 0.000000000000000000, 0.000000000000000000 ) ) ;
#171 = DIRECTION ( 'NONE',  ( -1.000000000000000000, 0.000000000000000000, 0.000000000000000000 ) ) ;
#172 = ORIENTED_EDGE ( 'NONE', *, *, #76, .T. ) ;
#173 = VECTOR ( 'NONE', #603, 1000.000000000000000 ) ;
#174 = VECTOR ( 'NONE', #774, 1000.000000000000000 ) ;
#175 = CARTESIAN_POINT ( 'NONE',  ( -3.828430242851232901, 2.760334413162493394, 17.74487999942863681 ) ) ;
#176 = EDGE_LOOP ( 'NONE', ( #929, #443, #946, #340 ) ) ;
#177 = ORIENTED_EDGE ( 'NONE', *, *, #338, .T. ) ;
#178 = CARTESIAN_POINT ( 'NONE',  ( -3.828430242851232901, 2.760334413162493394, 11.24487999942863681 ) ) ;
#179 = CARTESIAN_POINT ( 'NONE',  ( -3.828430242851232901, 2.760334413162493394, 15.24487999942863503 ) ) ;
#180 = ORIENTED_EDGE ( 'NONE', *, *, #85, .F. ) ;
#181 = DIRECTION ( 'NONE',  ( 0.000000000000000000, 0.000000000000000000, 1.000000000000000000 ) ) ;
#182 = CIRCLE ( 'NONE', #919, 2.020000000000000018 ) ;
#183 = DIRECTION ( 'NONE',  ( 0.000000000000000000, -0.000000000000000000, -1.000000000000000000 ) ) ;
#184 = VERTEX_POINT ( 'NONE', #819 ) ;
#185 = EDGE_CURVE ( 'NONE', #40, #38, #534, .T. ) ;
#186 = CIRCLE ( 'NONE', #923, 12.00000000000000178 ) ;
#187 = DIRECTION ( 'NONE',  ( 0.000000000000000000, 0.000000000000000000, 1.000000000000000000 ) ) ;
#188 = EDGE_LOOP ( 'NONE', ( #267, #914, #205, #306 ) ) ;
#189 = EDGE_CURVE ( 'NONE', #787, #555, #157, .T. ) ;
#190 = LINE ( 'NONE', #33, #310 ) ;
#191 = VERTEX_POINT ( 'NONE', #162 ) ;
#192 = EDGE_CURVE ( 'NONE', #38, #141, #521, .T. ) ;
#193 = MECHANICAL_DESIGN_GEOMETRIC_PRESENTATION_REPRESENTATION (  '', ( #708 ), #212 ) ;
#194 = DIRECTION ( 'NONE',  ( -0.000000000000000000, -0.000000000000000000, -1.000000000000000000 ) ) ;
#195 = AXIS2_PLACEMENT_3D ( 'NONE', #492, #781, #778 ) ;
#196 = PLANE ( 'NONE',  #470 ) ;
#197 = LINE ( 'NONE', #567, #108 ) ;
#198 = ORIENTED_EDGE ( 'NONE', *, *, #733, .T. ) ;
#199 = DIRECTION ( 'NONE',  ( 1.000000000000000000, 0.000000000000000000, -0.000000000000000000 ) ) ;
#200 = CARTESIAN_POINT ( 'NONE',  ( -3.828430242851232901, 2.760334413162493394, 9.044879999428637518 ) ) ;
#201 = AXIS2_PLACEMENT_3D ( 'NONE', #200, #444, #127 ) ;
#202 = FACE_OUTER_BOUND ( 'NONE', #847, .T. ) ;
#203 = CARTESIAN_POINT ( 'NONE',  ( -3.828430242851232901, 2.760334413162493394, 15.24487999942863503 ) ) ;
#204 = ADVANCED_FACE ( 'NONE', ( #390 ), #752, .T. ) ;
#205 = ORIENTED_EDGE ( 'NONE', *, *, #917, .T. ) ;
#206 = DIRECTION ( 'NONE',  ( -0.7306113773142041135, 0.6827935378568266156, 0.000000000000000000 ) ) ;
#207 = FILL_AREA_STYLE ('',( #732 ) ) ;
#208 = CARTESIAN_POINT ( 'NONE',  ( -3.828430242851232901, 2.760334413162493394, 12.59487999942863645 ) ) ;
#209 = ORIENTED_EDGE ( 'NONE', *, *, #336, .F. ) ;
#210 = DIRECTION ( 'NONE',  ( 1.000000000000000000, 0.000000000000000000, 0.000000000000000000 ) ) ;
#211 = ORIENTED_EDGE ( 'NONE', *, *, #494, .T. ) ;
#212 =( GEOMETRIC_REPRESENTATION_CONTEXT ( 3 ) GLOBAL_UNCERTAINTY_ASSIGNED_CONTEXT ( ( #274 ) ) GLOBAL_UNIT_ASSIGNED_CONTEXT ( ( #750, #61, #291 ) ) REPRESENTATION_CONTEXT ( 'NONE', 'WORKASPACE' ) );
#213 = PLANE ( 'NONE',  #275 ) ;
#214 = DIRECTION ( 'NONE',  ( 0.7306113773142052237, 0.6827935378568253943, 0.000000000000000000 ) ) ;
#215 = VERTEX_POINT ( 'NONE', #736 ) ;
#216 = EDGE_CURVE ( 'NONE', #428, #432, #561, .T. ) ;
#217 = CARTESIAN_POINT ( 'NONE',  ( -3.828430242851232901, 2.760334413162493394, 47.22444312810840472 ) ) ;
#218 = ORIENTED_EDGE ( 'NONE', *, *, #30, .T. ) ;
#219 = DIRECTION ( 'NONE',  ( -1.000000000000000000, 0.000000000000000000, 0.000000000000000000 ) ) ;
#220 = SURFACE_STYLE_USAGE ( .BOTH. , #678 ) ;
#221 = DIRECTION ( 'NONE',  ( -0.000000000000000000, -0.000000000000000000, -1.000000000000000000 ) ) ;
#222 = AXIS2_PLACEMENT_3D ( 'NONE', #886, #86, #680 ) ;
#223 = CARTESIAN_POINT ( 'NONE',  ( -3.828430242851232901, 2.760334413162493394, 12.24487999942863681 ) ) ;
#224 = VERTEX_POINT ( 'NONE', #954 ) ;
#225 = CARTESIAN_POINT ( 'NONE',  ( -19.85533759456316005, 20.28747738455524541, 12.24487999942863681 ) ) ;
#226 = DIRECTION ( 'NONE',  ( -0.000000000000000000, -0.000000000000000000, -1.000000000000000000 ) ) ;
#227 = EDGE_CURVE ( 'NONE', #191, #421, #348, .T. ) ;
#228 = DIRECTION ( 'NONE',  ( 1.000000000000000000, 0.000000000000000000, 0.000000000000000000 ) ) ;
#229 = MECHANICAL_DESIGN_GEOMETRIC_PRESENTATION_REPRESENTATION (  '', ( #831 ), #329 ) ;
#230 = VECTOR ( 'NONE', #556, 1000.000000000000000 ) ;
#231 = DIRECTION ( 'NONE',  ( 0.000000000000000000, -0.000000000000000000, 1.000000000000000000 ) ) ;
#232 = CARTESIAN_POINT ( 'NONE',  ( -16.82843024285123334, 2.760334413162493394, 12.24487999942863681 ) ) ;
#233 = DIRECTION ( 'NONE',  ( -0.000000000000000000, -0.000000000000000000, -1.000000000000000000 ) ) ;
#234 = ORIENTED_EDGE ( 'NONE', *, *, #513, .F. ) ;
#235 = AXIS2_PLACEMENT_3D ( 'NONE', #719, #723, #206 ) ;
#236 = ADVANCED_FACE ( 'NONE', ( #671 ), #592, .F. ) ;
#237 = VECTOR ( 'NONE', #621, 1000.000000000000000 ) ;
#238 = LINE ( 'NONE', #599, #885 ) ;
#239 = CARTESIAN_POINT ( 'NONE',  ( 13.69871272854152799, -13.26657293854942665, 12.24487999942863681 ) ) ;
#240 = CARTESIAN_POINT ( 'NONE',  ( 9.023254223771152382, 16.88988523300021072, 9.044879999428637518 ) ) ;
#241 = VERTEX_POINT ( 'NONE', #395 ) ;
#242 = PLANE ( 'NONE',  #801 ) ;
#243 = CARTESIAN_POINT ( 'NONE',  ( -15.82843024285123690, 2.760334413162494727, 13.59487999942863823 ) ) ;
#244 = ORIENTED_EDGE ( 'NONE', *, *, #591, .T. ) ;
#245 = ORIENTED_EDGE ( 'NONE', *, *, #903, .F. ) ;
#246 = EDGE_CURVE ( 'NONE', #241, #432, #238, .T. ) ;
#247 = DIRECTION ( 'NONE',  ( -0.000000000000000000, -0.000000000000000000, -1.000000000000000000 ) ) ;
#248 = ORIENTED_EDGE ( 'NONE', *, *, #30, .F. ) ;
#249 = CARTESIAN_POINT ( 'NONE',  ( -5.848430242851232919, 2.760334413162493838, 17.74487999942863681 ) ) ;
#250 = ORIENTED_EDGE ( 'NONE', *, *, #764, .F. ) ;
#251 = DIRECTION ( 'NONE',  ( 1.000000000000000000, 0.000000000000000000, 0.000000000000000000 ) ) ;
#252 = DIRECTION ( 'NONE',  ( -1.000000000000000000, 0.000000000000000000, 0.000000000000000000 ) ) ;
#253 =( GEOMETRIC_REPRESENTATION_CONTEXT ( 3 ) GLOBAL_UNCERTAINTY_ASSIGNED_CONTEXT ( ( #372 ) ) GLOBAL_UNIT_ASSIGNED_CONTEXT ( ( #400, #312, #323 ) ) REPRESENTATION_CONTEXT ( 'NONE', 'WORKASPACE' ) );
#254 = LINE ( 'NONE', #699, #663 ) ;
#255 = EDGE_LOOP ( 'NONE', ( #399, #245 ) ) ;
#256 = CARTESIAN_POINT ( 'NONE',  ( 9.023254223771152382, 16.88988523300021072, 11.24487999942863681 ) ) ;
#257 = ADVANCED_FACE ( 'NONE', ( #711 ), #817, .F. ) ;
#258 = CARTESIAN_POINT ( 'NONE',  ( 12.19847710886069336, 20.28747738455524541, 11.24487999942863681 ) ) ;
#259 = ADVANCED_FACE ( 'NONE', ( #131 ), #503, .F. ) ;
#260 = ORIENTED_EDGE ( 'NONE', *, *, #437, .F. ) ;
#261 = CIRCLE ( 'NONE', #756, 23.75000000000000000 ) ;
#262 = CARTESIAN_POINT ( 'NONE',  ( 13.69871272854152444, -13.26657293854943021, 9.044879999428637518 ) ) ;
#263 = ORIENTED_EDGE ( 'NONE', *, *, #391, .T. ) ;
#264 = CIRCLE ( 'NONE', #808, 23.75000000000000355 ) ;
#265 = VECTOR ( 'NONE', #794, 1000.000000000000114 ) ;
#266 = DIRECTION ( 'NONE',  ( -1.000000000000000000, 0.000000000000000000, 0.000000000000000000 ) ) ;
#267 = ORIENTED_EDGE ( 'NONE', *, *, #354, .F. ) ;
#268 = CARTESIAN_POINT ( 'NONE',  ( 10.30112057698648265, -10.09135005345989100, 11.24487999942863681 ) ) ;
#269 = DIRECTION ( 'NONE',  ( -1.000000000000000000, 0.000000000000000000, 0.000000000000000000 ) ) ;
#270 = CARTESIAN_POINT ( 'NONE',  ( -3.828430242851232901, 2.760334413162493394, 15.24487999942863503 ) ) ;
#271 = EDGE_LOOP ( 'NONE', ( #343, #198, #50, #705 ) ) ;
#272 = DIRECTION ( 'NONE',  ( 1.000000000000000000, 0.000000000000000000, -0.000000000000000000 ) ) ;
#273 = AXIS2_PLACEMENT_3D ( 'NONE', #31, #339, #900 ) ;
#274 = UNCERTAINTY_MEASURE_WITH_UNIT (LENGTH_MEASURE( 1.000000000000000082E-05 ), #750, 'distance_accuracy_value', 'NONE');
#275 = AXIS2_PLACEMENT_3D ( 'NONE', #938, #517, #284 ) ;
#276 = DIRECTION ( 'NONE',  ( 1.000000000000000000, 0.000000000000000000, 0.000000000000000000 ) ) ;
#277 = CIRCLE ( 'NONE', #487, 13.00000000000000178 ) ;
#278 = ADVANCED_FACE ( 'NONE', ( #504 ), #793, .T. ) ;
#279 = LINE ( 'NONE', #573, #931 ) ;
#280 = DIRECTION ( 'NONE',  ( 1.000000000000000000, 0.000000000000000000, -0.000000000000000000 ) ) ;
#281 = ORIENTED_EDGE ( 'NONE', *, *, #366, .T. ) ;
#282 = DIRECTION ( 'NONE',  ( 1.000000000000000000, 0.000000000000000000, 0.000000000000000000 ) ) ;
#283 = VECTOR ( 'NONE', #947, 1000.000000000000114 ) ;
#284 = DIRECTION ( 'NONE',  ( -1.000000000000000000, 0.000000000000000000, 0.000000000000000000 ) ) ;
#285 = CARTESIAN_POINT ( 'NONE',  ( 9.023254223771150606, 16.88988523300021072, 11.24487999942863681 ) ) ;
#286 = ORIENTED_EDGE ( 'NONE', *, *, #632, .F. ) ;
#287 = DIRECTION ( 'NONE',  ( -0.000000000000000000, -0.000000000000000000, -1.000000000000000000 ) ) ;
#288 = DIRECTION ( 'NONE',  ( 0.7306113773142041135, -0.6827935378568266156, 0.000000000000000000 ) ) ;
#289 = ORIENTED_EDGE ( 'NONE', *, *, #313, .T. ) ;
#290 = FACE_OUTER_BOUND ( 'NONE', #935, .T. ) ;
#291 =( NAMED_UNIT ( * ) SI_UNIT ( $, .STERADIAN. ) SOLID_ANGLE_UNIT ( ) );
#292 = EDGE_CURVE ( 'NONE', #184, #371, #113, .T. ) ;
#293 = ORIENTED_EDGE ( 'NONE', *, *, #114, .T. ) ;
#294 = PLANE ( 'NONE',  #792 ) ;
#295 = VECTOR ( 'NONE', #247, 1000.000000000000000 ) ;
#296 = CIRCLE ( 'NONE', #785, 19.10000000000000142 ) ;
#297 = EDGE_LOOP ( 'NONE', ( #393, #575, #289, #546 ) ) ;
#298 = CIRCLE ( 'NONE', #156, 23.75000000000000355 ) ;
#299 = CARTESIAN_POINT ( 'NONE',  ( -6.828430242851234233, 2.760334413162493394, 17.74487999942863681 ) ) ;
#300 = LINE ( 'NONE', #153, #73 ) ;
#301 = CARTESIAN_POINT ( 'NONE',  ( 10.30112057698648265, -10.09135005345989100, 47.22444312810840472 ) ) ;
#302 = DIRECTION ( 'NONE',  ( 1.000000000000000000, 0.000000000000000000, 0.000000000000000000 ) ) ;
#303 = VERTEX_POINT ( 'NONE', #602 ) ;
#304 = FILL_AREA_STYLE ('',( #527 ) ) ;
#305 = CLOSED_SHELL ( 'NONE', ( #776, #780, #257, #647, #110, #445, #925, #832 ) ) ;
#306 = ORIENTED_EDGE ( 'NONE', *, *, #902, .T. ) ;
#307 = EDGE_CURVE ( 'NONE', #918, #887, #142, .T. ) ;
#308 = DIRECTION ( 'NONE',  ( -0.000000000000000000, -0.000000000000000000, 1.000000000000000000 ) ) ;
#309 =( NAMED_UNIT ( * ) PLANE_ANGLE_UNIT ( ) SI_UNIT ( $, .RADIAN. ) );
#310 = VECTOR ( 'NONE', #626, 1000.000000000000000 ) ;
#311 = ORIENTED_EDGE ( 'NONE', *, *, #76, .F. ) ;
#312 =( NAMED_UNIT ( * ) PLANE_ANGLE_UNIT ( ) SI_UNIT ( $, .RADIAN. ) );
#313 = EDGE_CURVE ( 'NONE', #650, #458, #163, .T. ) ;
#314 =( LENGTH_UNIT ( ) NAMED_UNIT ( * ) SI_UNIT ( .MILLI., .METRE. ) );
#315 = CIRCLE ( 'NONE', #891, 3.000000000000000444 ) ;
#316 = VERTEX_POINT ( 'NONE', #249 ) ;
#317 = DIRECTION ( 'NONE',  ( 1.000000000000000000, 0.000000000000000000, 0.000000000000000000 ) ) ;
#318 = CARTESIAN_POINT ( 'NONE',  ( -16.68011470947362795, 16.88988523300021072, 47.22444312810840472 ) ) ;
#319 = FACE_OUTER_BOUND ( 'NONE', #825, .T. ) ;
#320 = VERTEX_POINT ( 'NONE', #243 ) ;
#321 = VECTOR ( 'NONE', #221, 1000.000000000000000 ) ;
#322 = AXIS2_PLACEMENT_3D ( 'NONE', #858, #194, #54 ) ;
#323 =( NAMED_UNIT ( * ) SI_UNIT ( $, .STERADIAN. ) SOLID_ANGLE_UNIT ( ) );
#324 = FACE_OUTER_BOUND ( 'NONE', #622, .T. ) ;
#325 = ADVANCED_FACE ( 'NONE', ( #89, #615 ), #839, .T. ) ;
#326 = VERTEX_POINT ( 'NONE', #258 ) ;
#327 = LINE ( 'NONE', #476, #610 ) ;
#328 = ORIENTED_EDGE ( 'NONE', *, *, #427, .F. ) ;
#329 =( GEOMETRIC_REPRESENTATION_CONTEXT ( 3 ) GLOBAL_UNCERTAINTY_ASSIGNED_CONTEXT ( ( #865 ) ) GLOBAL_UNIT_ASSIGNED_CONTEXT ( ( #655, #506, #720 ) ) REPRESENTATION_CONTEXT ( 'NONE', 'WORKASPACE' ) );
#330 = VECTOR ( 'NONE', #939, 1000.000000000000000 ) ;
#331 = CARTESIAN_POINT ( 'NONE',  ( 8.171569757148768431, 2.760334413162493394, 12.59487999942863645 ) ) ;
#332 = LINE ( 'NONE', #619, #570 ) ;
#333 = CARTESIAN_POINT ( 'NONE',  ( 12.19847710886069336, 20.28747738455524541, 12.24487999942863681 ) ) ;
#334 = EDGE_LOOP ( 'NONE', ( #714, #94, #940, #782, #924, #807 ) ) ;
#335 = CARTESIAN_POINT ( 'NONE',  ( -3.828430242851232901, 2.760334413162493394, 15.24487999942863503 ) ) ;
#336 = EDGE_CURVE ( 'NONE', #520, #840, #537, .T. ) ;
#337 = AXIS2_PLACEMENT_3D ( 'NONE', #634, #583, #282 ) ;
#338 = EDGE_CURVE ( 'NONE', #141, #658, #481, .T. ) ;
#339 = DIRECTION ( 'NONE',  ( -0.7306113773142052237, -0.6827935378568253943, 0.000000000000000000 ) ) ;
#340 = ORIENTED_EDGE ( 'NONE', *, *, #682, .T. ) ;
#341 = DIRECTION ( 'NONE',  ( 1.000000000000000000, 0.000000000000000000, 0.000000000000000000 ) ) ;
#342 = PRODUCT_DEFINITION ( 'UNKNOWN', '', #852, #68 ) ;
#343 = ORIENTED_EDGE ( 'NONE', *, *, #377, .F. ) ;
#344 = DIRECTION ( 'NONE',  ( -0.000000000000000000, -0.000000000000000000, -1.000000000000000000 ) ) ;
#345 = ADVANCED_FACE ( 'NONE', ( #472 ), #685, .F. ) ;
#346 = ORIENTED_EDGE ( 'NONE', *, *, #391, .F. ) ;
#347 = CARTESIAN_POINT ( 'NONE',  ( -16.68011470947362795, 16.88988523300021072, 11.24487999942863681 ) ) ;
#348 = CIRCLE ( 'NONE', #728, 19.10000000000000142 ) ;
#349 = APPLICATION_CONTEXT ( 'automotive_design' ) ;
#350 = CYLINDRICAL_SURFACE ( 'NONE', #860, 23.75000000000000355 ) ;
#351 = DIRECTION ( 'NONE',  ( 0.000000000000000000, 0.000000000000000000, 1.000000000000000000 ) ) ;
#352 = ORIENTED_EDGE ( 'NONE', *, *, #87, .T. ) ;
#353 = DIRECTION ( 'NONE',  ( 0.000000000000000000, 0.000000000000000000, 1.000000000000000000 ) ) ;
#354 = EDGE_CURVE ( 'NONE', #215, #316, #904, .T. ) ;
#355 = PLANE ( 'NONE',  #235 ) ;
#356 = AXIS2_PLACEMENT_3D ( 'NONE', #115, #849, #559 ) ;
#357 = LINE ( 'NONE', #489, #230 ) ;
#358 = ORIENTED_EDGE ( 'NONE', *, *, #185, .F. ) ;
#359 = FACE_OUTER_BOUND ( 'NONE', #724, .T. ) ;
#360 = CIRCLE ( 'NONE', #456, 2.020000000000000018 ) ;
#361 = DIRECTION ( 'NONE',  ( -0.000000000000000000, -0.000000000000000000, 1.000000000000000000 ) ) ;
#362 = DIRECTION ( 'NONE',  ( -0.000000000000000000, -0.000000000000000000, 1.000000000000000000 ) ) ;
#363 = ORIENTED_EDGE ( 'NONE', *, *, #336, .T. ) ;
#364 = CARTESIAN_POINT ( 'NONE',  ( 12.19847710886069336, 20.28747738455524541, 47.22444312810840472 ) ) ;
#365 = CIRCLE ( 'NONE', #850, 12.00000000000000178 ) ;
#366 = EDGE_CURVE ( 'NONE', #887, #436, #327, .T. ) ;
#367 = ORIENTED_EDGE ( 'NONE', *, *, #873, .F. ) ;
#368 = VECTOR ( 'NONE', #557, 1000.000000000000000 ) ;
#369 = SURFACE_SIDE_STYLE ('',( #579 ) ) ;
#370 = LINE ( 'NONE', #670, #628 ) ;
#371 = VERTEX_POINT ( 'NONE', #100 ) ;
#372 = UNCERTAINTY_MEASURE_WITH_UNIT (LENGTH_MEASURE( 1.000000000000000082E-05 ), #400, 'distance_accuracy_value', 'NONE');
#373 = DIRECTION ( 'NONE',  ( 1.000000000000000000, 0.000000000000000000, -0.000000000000000000 ) ) ;
#374 = ORIENTED_EDGE ( 'NONE', *, *, #826, .T. ) ;
#375 = CARTESIAN_POINT ( 'NONE',  ( -3.828430242851232901, 2.760334413162493394, 11.24487999942863681 ) ) ;
#376 = DIRECTION ( 'NONE',  ( -0.000000000000000000, -0.000000000000000000, -1.000000000000000000 ) ) ;
#377 = EDGE_CURVE ( 'NONE', #840, #421, #909, .T. ) ;
#378 = ORIENTED_EDGE ( 'NONE', *, *, #843, .T. ) ;
#379 = CARTESIAN_POINT ( 'NONE',  ( -27.57843024285123334, 2.760334413162493394, 12.24487999942863681 ) ) ;
#380 = COLOUR_RGB ( '',0.7921568627450980005, 0.8196078431372548767, 0.9333333333333333481 ) ;
#381 = ORIENTED_EDGE ( 'NONE', *, *, #620, .F. ) ;
#382 = AXIS2_PLACEMENT_3D ( 'NONE', #702, #351, #697 ) ;
#383 = DIRECTION ( 'NONE',  ( 0.000000000000000000, 0.000000000000000000, 1.000000000000000000 ) ) ;
#384 = DIRECTION ( 'NONE',  ( 1.000000000000000000, 0.000000000000000000, 0.000000000000000000 ) ) ;
#385 = FACE_BOUND ( 'NONE', #687, .T. ) ;
#386 = EDGE_CURVE ( 'NONE', #145, #856, #6, .T. ) ;
#387 = DIRECTION ( 'NONE',  ( 0.000000000000000000, 0.000000000000000000, 1.000000000000000000 ) ) ;
#388 = DIRECTION ( 'NONE',  ( 0.000000000000000000, 0.000000000000000000, 1.000000000000000000 ) ) ;
#389 = CIRCLE ( 'NONE', #870, 3.000000000000000444 ) ;
#390 = FACE_OUTER_BOUND ( 'NONE', #613, .T. ) ;
#391 = EDGE_CURVE ( 'NONE', #224, #638, #389, .T. ) ;
#392 = LINE ( 'NONE', #596, #134 ) ;
#393 = ORIENTED_EDGE ( 'NONE', *, *, #14, .F. ) ;
#394 = EDGE_CURVE ( 'NONE', #658, #326, #98, .T. ) ;
#395 = CARTESIAN_POINT ( 'NONE',  ( -27.57843024285123690, 2.760334413162493394, 11.24487999942863681 ) ) ;
#396 = DIRECTION ( 'NONE',  ( -1.000000000000000000, -0.000000000000000000, -0.000000000000000000 ) ) ;
#397 = CARTESIAN_POINT ( 'NONE',  ( -5.848430242851232919, 2.760334413162493838, 15.24487999942863503 ) ) ;
#398 = VECTOR ( 'NONE', #834, 1000.000000000000114 ) ;
#399 = ORIENTED_EDGE ( 'NONE', *, *, #902, .F. ) ;
#400 =( LENGTH_UNIT ( ) NAMED_UNIT ( * ) SI_UNIT ( .MILLI., .METRE. ) );
#401 = CARTESIAN_POINT ( 'NONE',  ( -3.828430242851232901, 2.760334413162493394, 17.74487999942863681 ) ) ;
#402 = VERTEX_POINT ( 'NONE', #410 ) ;
#403 = EDGE_CURVE ( 'NONE', #215, #474, #625, .T. ) ;
#404 = CIRCLE ( 'NONE', #593, 13.00000000000000178 ) ;
#405 = VECTOR ( 'NONE', #82, 1000.000000000000000 ) ;
#406 = ORIENTED_EDGE ( 'NONE', *, *, #854, .F. ) ;
#407 = CARTESIAN_POINT ( 'NONE',  ( -3.828430242851232901, 2.760334413162493394, 12.59487999942863645 ) ) ;
#408 = ORIENTED_EDGE ( 'NONE', *, *, #632, .T. ) ;
#409 = EDGE_LOOP ( 'NONE', ( #95, #84, #160, #149, #28 ) ) ;
#410 = CARTESIAN_POINT ( 'NONE',  ( 12.19847710886069336, 20.28747738455524541, 11.24487999942863681 ) ) ;
#411 = AXIS2_PLACEMENT_3D ( 'NONE', #867, #48, #932 ) ;
#412 = AXIS2_PLACEMENT_3D ( 'NONE', #806, #675, #159 ) ;
#413 = DIRECTION ( 'NONE',  ( -0.000000000000000000, -0.000000000000000000, 1.000000000000000000 ) ) ;
#414 = CARTESIAN_POINT ( 'NONE',  ( -21.35557321424398225, -13.26657293854943021, 11.24487999942863681 ) ) ;
#415 = CARTESIAN_POINT ( 'NONE',  ( -21.35557321424398580, -13.26657293854943376, 47.22444312810840472 ) ) ;
#416 = AXIS2_PLACEMENT_3D ( 'NONE', #838, #103, #252 ) ;
#417 = EDGE_CURVE ( 'NONE', #787, #326, #913, .T. ) ;
#418 = DIRECTION ( 'NONE',  ( 1.000000000000000000, 0.000000000000000000, 0.000000000000000000 ) ) ;
#419 = ORIENTED_EDGE ( 'NONE', *, *, #14, .T. ) ;
#420 = CARTESIAN_POINT ( 'NONE',  ( -3.828430242851232901, 2.760334413162493394, 17.74487999942863681 ) ) ;
#421 = VERTEX_POINT ( 'NONE', #624 ) ;
#422 = VERTEX_POINT ( 'NONE', #547 ) ;
#423 = AXIS2_PLACEMENT_3D ( 'NONE', #119, #187, #266 ) ;
#424 = CARTESIAN_POINT ( 'NONE',  ( -3.828430242851232901, 2.760334413162493394, 12.59487999942863645 ) ) ;
#425 = DIRECTION ( 'NONE',  ( 0.000000000000000000, 0.000000000000000000, 1.000000000000000000 ) ) ;
#426 = ORIENTED_EDGE ( 'NONE', *, *, #53, .F. ) ;
#427 = EDGE_CURVE ( 'NONE', #422, #320, #254, .T. ) ;
#428 = VERTEX_POINT ( 'NONE', #486 ) ;
#429 = DIRECTION ( 'NONE',  ( -1.000000000000000000, 0.000000000000000000, 0.000000000000000000 ) ) ;
#430 = CARTESIAN_POINT ( 'NONE',  ( -22.92843024285123477, 2.760334413162493394, 11.24487999942863681 ) ) ;
#431 = FACE_OUTER_BOUND ( 'NONE', #102, .T. ) ;
#432 = VERTEX_POINT ( 'NONE', #916 ) ;
#433 = DIRECTION ( 'NONE',  ( 0.000000000000000000, 0.000000000000000000, 1.000000000000000000 ) ) ;
#434 = CARTESIAN_POINT ( 'NONE',  ( -3.828430242851232901, 2.760334413162493394, 11.24487999942863681 ) ) ;
#435 = CARTESIAN_POINT ( 'NONE',  ( -3.828430242851232901, 2.760334413162493394, 13.59487999942863823 ) ) ;
#436 = VERTEX_POINT ( 'NONE', #93 ) ;
#437 = EDGE_CURVE ( 'NONE', #303, #458, #109, .T. ) ;
#438 = UNCERTAINTY_MEASURE_WITH_UNIT (LENGTH_MEASURE( 1.000000000000000082E-05 ), #314, 'distance_accuracy_value', 'NONE');
#439 = AXIS2_PLACEMENT_3D ( 'NONE', #535, #383, #899 ) ;
#440 = CYLINDRICAL_SURFACE ( 'NONE', #337, 12.00000000000000178 ) ;
#441 = DIRECTION ( 'NONE',  ( -0.000000000000000000, -0.000000000000000000, -1.000000000000000000 ) ) ;
#442 = DIRECTION ( 'NONE',  ( -1.000000000000000000, 0.000000000000000000, 0.000000000000000000 ) ) ;
#443 = ORIENTED_EDGE ( 'NONE', *, *, #307, .F. ) ;
#444 = DIRECTION ( 'NONE',  ( 0.000000000000000000, 0.000000000000000000, 1.000000000000000000 ) ) ;
#445 = ADVANCED_FACE ( 'NONE', ( #319 ), #17, .F. ) ;
#446 = EDGE_LOOP ( 'NONE', ( #211, #263 ) ) ;
#447 = AXIS2_PLACEMENT_3D ( 'NONE', #897, #676, #666 ) ;
#448 = CYLINDRICAL_SURFACE ( 'NONE', #773, 19.10000000000000142 ) ;
#449 = EDGE_LOOP ( 'NONE', ( #477, #890, #767, #740 ) ) ;
#450 = PLANE ( 'NONE',  #447 ) ;
#451 = ORIENTED_EDGE ( 'NONE', *, *, #692, .T. ) ;
#452 = SURFACE_STYLE_USAGE ( .BOTH. , #369 ) ;
#453 = VERTEX_POINT ( 'NONE', #609 ) ;
#454 = CARTESIAN_POINT ( 'NONE',  ( -3.828430242851232901, 2.760334413162493394, 9.044879999428637518 ) ) ;
#455 = CIRCLE ( 'NONE', #36, 23.75000000000000355 ) ;
#456 = AXIS2_PLACEMENT_3D ( 'NONE', #203, #181, #636 ) ;
#457 = DIRECTION ( 'NONE',  ( -1.000000000000000000, 0.000000000000000000, 0.000000000000000000 ) ) ;
#458 = VERTEX_POINT ( 'NONE', #240 ) ;
#459 = ADVANCED_FACE ( 'NONE', ( #324 ), #784, .T. ) ;
#460 = DIRECTION ( 'NONE',  ( 0.000000000000000000, 0.000000000000000000, 1.000000000000000000 ) ) ;
#461 = DIRECTION ( 'NONE',  ( 1.000000000000000000, 0.000000000000000000, 0.000000000000000000 ) ) ;
#462 = SURFACE_STYLE_FILL_AREA ( #304 ) ;
#463 = VECTOR ( 'NONE', #515, 1000.000000000000000 ) ;
#464 = CARTESIAN_POINT ( 'NONE',  ( -3.828430242851232901, 2.760334413162493394, 11.24487999942863681 ) ) ;
#465 = CARTESIAN_POINT ( 'NONE',  ( -3.828430242851232901, 2.760334413162493394, 17.74487999942863681 ) ) ;
#466 = DIRECTION ( 'NONE',  ( -1.000000000000000000, 0.000000000000000000, 0.000000000000000000 ) ) ;
#467 = ORIENTED_EDGE ( 'NONE', *, *, #125, .T. ) ;
#468 = EDGE_CURVE ( 'NONE', #137, #191, #190, .T. ) ;
#469 = CARTESIAN_POINT ( 'NONE',  ( -21.35557321424398225, -13.26657293854943021, 12.24487999942863681 ) ) ;
#470 = AXIS2_PLACEMENT_3D ( 'NONE', #500, #123, #716 ) ;
#471 = DIRECTION ( 'NONE',  ( 0.000000000000000000, 0.000000000000000000, 1.000000000000000000 ) ) ;
#472 = FACE_OUTER_BOUND ( 'NONE', #449, .T. ) ;
#473 = PRESENTATION_LAYER_ASSIGNMENT (  '', '', ( #708 ) ) ;
#474 = VERTEX_POINT ( 'NONE', #495 ) ;
#475 = CARTESIAN_POINT ( 'NONE',  ( -19.85533759456316005, 20.28747738455524541, 47.22444312810840472 ) ) ;
#476 = CARTESIAN_POINT ( 'NONE',  ( 9.171569757148768431, 2.760334413162495171, 13.59487999942863823 ) ) ;
#477 = ORIENTED_EDGE ( 'NONE', *, *, #611, .F. ) ;
#478 = CLOSED_SHELL ( 'NONE', ( #554, #482, #345, #204, #278, #459, #144, #496, #508, #161, #259, #605, #627, #58, #19, #325, #132, #558, #857 ) ) ;
#479 = AXIS2_PLACEMENT_3D ( 'NONE', #529, #598, #231 ) ;
#480 = ORIENTED_EDGE ( 'NONE', *, *, #581, .F. ) ;
#481 = LINE ( 'NONE', #414, #237 ) ;
#482 = ADVANCED_FACE ( 'NONE', ( #713 ), #42, .T. ) ;
#483 = EDGE_LOOP ( 'NONE', ( #906, #120, #59, #710 ) ) ;
#484 = ORIENTED_EDGE ( 'NONE', *, *, #377, .T. ) ;
#485 = DIRECTION ( 'NONE',  ( 0.000000000000000000, 0.000000000000000000, -1.000000000000000000 ) ) ;
#486 = CARTESIAN_POINT ( 'NONE',  ( -19.85533759456316005, 20.28747738455524541, 9.044879999428637518 ) ) ;
#487 = AXIS2_PLACEMENT_3D ( 'NONE', #601, #148, #878 ) ;
#488 = EDGE_CURVE ( 'NONE', #696, #787, #908, .T. ) ;
#489 = CARTESIAN_POINT ( 'NONE',  ( 13.69871272854152444, -13.26657293854943021, 47.22444312810840472 ) ) ;
#490 = CARTESIAN_POINT ( 'NONE',  ( -3.828430242851232901, 2.760334413162493394, 17.74487999942863681 ) ) ;
#491 = ORIENTED_EDGE ( 'NONE', *, *, #403, .T. ) ;
#492 = CARTESIAN_POINT ( 'NONE',  ( -3.828430242851232901, 2.760334413162493394, 12.24487999942863681 ) ) ;
#493 = ORIENTED_EDGE ( 'NONE', *, *, #691, .T. ) ;
#494 = EDGE_CURVE ( 'NONE', #638, #224, #933, .T. ) ;
#495 = CARTESIAN_POINT ( 'NONE',  ( -1.808430242851232883, 2.760334413162493394, 15.24487999942863503 ) ) ;
#496 = ADVANCED_FACE ( 'NONE', ( #846 ), #920, .T. ) ;
#497 = ORIENTED_EDGE ( 'NONE', *, *, #937, .F. ) ;
#498 = VECTOR ( 'NONE', #928, 1000.000000000000000 ) ;
#499 = CARTESIAN_POINT ( 'NONE',  ( -17.95798106268894756, -10.09135005345989988, 11.24487999942863681 ) ) ;
#500 = CARTESIAN_POINT ( 'NONE',  ( -3.828430242851232901, 2.760334413162493394, 11.24487999942863681 ) ) ;
#501 = CARTESIAN_POINT ( 'NONE',  ( -21.35557321424399291, -13.26657293854942665, 9.044879999428637518 ) ) ;
#502 = ORIENTED_EDGE ( 'NONE', *, *, #703, .T. ) ;
#503 = PLANE ( 'NONE',  #16 ) ;
#504 = FACE_OUTER_BOUND ( 'NONE', #751, .T. ) ;
#505 = LINE ( 'NONE', #930, #577 ) ;
#506 =( NAMED_UNIT ( * ) PLANE_ANGLE_UNIT ( ) SI_UNIT ( $, .RADIAN. ) );
#507 = FACE_OUTER_BOUND ( 'NONE', #755, .T. ) ;
#508 = ADVANCED_FACE ( 'NONE', ( #706 ), #562, .F. ) ;
#509 = ORIENTED_EDGE ( 'NONE', *, *, #488, .F. ) ;
#510 = CARTESIAN_POINT ( 'NONE',  ( 9.023254223771152382, 16.88988523300021072, 47.22444312810840472 ) ) ;
#511 = FACE_OUTER_BOUND ( 'NONE', #759, .T. ) ;
#512 = ORIENTED_EDGE ( 'NONE', *, *, #437, .T. ) ;
#513 = EDGE_CURVE ( 'NONE', #371, #320, #786, .T. ) ;
#514 = CIRCLE ( 'NONE', #614, 19.10000000000000142 ) ;
#515 = DIRECTION ( 'NONE',  ( -0.000000000000000000, -0.000000000000000000, -1.000000000000000000 ) ) ;
#516 = ORIENTED_EDGE ( 'NONE', *, *, #246, .T. ) ;
#517 = DIRECTION ( 'NONE',  ( -0.000000000000000000, 0.000000000000000000, -1.000000000000000000 ) ) ;
#518 = CARTESIAN_POINT ( 'NONE',  ( -3.828430242851232901, 2.760334413162493394, 9.044879999428637518 ) ) ;
#519 = DIRECTION ( 'NONE',  ( -0.000000000000000000, -0.000000000000000000, -1.000000000000000000 ) ) ;
#520 = VERTEX_POINT ( 'NONE', #855 ) ;
#521 = CIRCLE ( 'NONE', #633, 23.75000000000000000 ) ;
#522 = FACE_OUTER_BOUND ( 'NONE', #745, .T. ) ;
#523 =( NAMED_UNIT ( * ) SI_UNIT ( $, .STERADIAN. ) SOLID_ANGLE_UNIT ( ) );
#524 = PLANE ( 'NONE',  #140 ) ;
#525 = DIRECTION ( 'NONE',  ( 1.000000000000000000, 0.000000000000000000, 0.000000000000000000 ) ) ;
#526 = CARTESIAN_POINT ( 'NONE',  ( 13.69871272854152444, -13.26657293854943021, 11.24487999942863681 ) ) ;
#527 = FILL_AREA_STYLE_COLOUR ( '', #107 ) ;
#528 = ORIENTED_EDGE ( 'NONE', *, *, #746, .T. ) ;
#529 = CARTESIAN_POINT ( 'NONE',  ( -21.35557321424398225, -13.26657293854943021, 12.24487999942863681 ) ) ;
#530 = AXIS2_PLACEMENT_3D ( 'NONE', #335, #413, #872 ) ;
#531 = CARTESIAN_POINT ( 'NONE',  ( 9.171569757148768431, 2.760334413162495171, 13.59487999942863823 ) ) ;
#532 = FILL_AREA_STYLE_COLOUR ( '', #380 ) ;
#533 = VERTEX_POINT ( 'NONE', #262 ) ;
#534 = LINE ( 'NONE', #379, #405 ) ;
#535 = CARTESIAN_POINT ( 'NONE',  ( -3.828430242851232901, 2.760334413162493394, 17.74487999942863681 ) ) ;
#536 = CARTESIAN_POINT ( 'NONE',  ( -3.828430242851232901, 2.760334413162493394, 11.24487999942863681 ) ) ;
#537 = CIRCLE ( 'NONE', #652, 19.10000000000000142 ) ;
#538 = VERTEX_POINT ( 'NONE', #721 ) ;
#539 = EDGE_CURVE ( 'NONE', #943, #130, #643, .T. ) ;
#540 = FACE_OUTER_BOUND ( 'NONE', #271, .T. ) ;
#541 = DIRECTION ( 'NONE',  ( -0.6827935378568266156, -0.7306113773142041135, -0.000000000000000000 ) ) ;
#542 = ORIENTED_EDGE ( 'NONE', *, *, #85, .T. ) ;
#543 = DIRECTION ( 'NONE',  ( 0.000000000000000000, 0.000000000000000000, 1.000000000000000000 ) ) ;
#544 = CIRCLE ( 'NONE', #154, 19.09999999999999432 ) ;
#545 = CARTESIAN_POINT ( 'NONE',  ( -3.828430242851232901, 2.760334413162493394, 11.24487999942863681 ) ) ;
#546 = ORIENTED_EDGE ( 'NONE', *, *, #730, .T. ) ;
#547 = CARTESIAN_POINT ( 'NONE',  ( -15.82843024285123690, 2.760334413162494727, 12.59487999942863645 ) ) ;
#548 = ORIENTED_EDGE ( 'NONE', *, *, #945, .F. ) ;
#549 = ORIENTED_EDGE ( 'NONE', *, *, #917, .F. ) ;
#550 = DIRECTION ( 'NONE',  ( -0.000000000000000000, -0.000000000000000000, 1.000000000000000000 ) ) ;
#551 = AXIS2_PLACEMENT_3D ( 'NONE', #407, #20, #828 ) ;
#552 = LINE ( 'NONE', #55, #498 ) ;
#553 = DIRECTION ( 'NONE',  ( 1.000000000000000000, 0.000000000000000000, -0.000000000000000000 ) ) ;
#554 = ADVANCED_FACE ( 'NONE', ( #431 ), #863, .F. ) ;
#555 = VERTEX_POINT ( 'NONE', #44 ) ;
#556 = DIRECTION ( 'NONE',  ( -0.000000000000000000, -0.000000000000000000, -1.000000000000000000 ) ) ;
#557 = DIRECTION ( 'NONE',  ( -0.000000000000000000, -0.000000000000000000, 1.000000000000000000 ) ) ;
#558 = ADVANCED_FACE ( 'NONE', ( #790 ), #29, .F. ) ;
#559 = DIRECTION ( 'NONE',  ( -1.000000000000000000, 0.000000000000000000, 0.000000000000000000 ) ) ;
#560 = ORIENTED_EDGE ( 'NONE', *, *, #394, .T. ) ;
#561 = CIRCLE ( 'NONE', #766, 23.75000000000000355 ) ;
#562 = PLANE ( 'NONE',  #862 ) ;
#563 = ORIENTED_EDGE ( 'NONE', *, *, #730, .F. ) ;
#564 = CARTESIAN_POINT ( 'NONE',  ( -3.828430242851232901, 2.760334413162493394, 11.24487999942863681 ) ) ;
#565 = CYLINDRICAL_SURFACE ( 'NONE', #322, 3.000000000000000888 ) ;
#566 = PLANE ( 'NONE',  #694 ) ;
#567 = CARTESIAN_POINT ( 'NONE',  ( 13.69871272854152089, -13.26657293854943376, 9.044879999428637518 ) ) ;
#568 = ORIENTED_EDGE ( 'NONE', *, *, #386, .T. ) ;
#569 = AXIS2_PLACEMENT_3D ( 'NONE', #518, #376, #950 ) ;
#570 = VECTOR ( 'NONE', #841, 1000.000000000000000 ) ;
#571 = EDGE_CURVE ( 'NONE', #555, #40, #833, .T. ) ;
#572 = FACE_OUTER_BOUND ( 'NONE', #126, .T. ) ;
#573 = CARTESIAN_POINT ( 'NONE',  ( -19.85533759456316005, 20.28747738455524541, 12.24487999942863681 ) ) ;
#574 = CARTESIAN_POINT ( 'NONE',  ( -3.828430242851232901, 2.760334413162493394, 13.59487999942863823 ) ) ;
#575 = ORIENTED_EDGE ( 'NONE', *, *, #768, .T. ) ;
#576 = DIRECTION ( 'NONE',  ( 0.000000000000000000, 0.000000000000000000, 1.000000000000000000 ) ) ;
#577 = VECTOR ( 'NONE', #57, 1000.000000000000000 ) ;
#578 = CARTESIAN_POINT ( 'NONE',  ( -3.828430242851232901, 2.760334413162493394, 12.24487999942863681 ) ) ;
#579 = SURFACE_STYLE_FILL_AREA ( #207 ) ;
#580 = CARTESIAN_POINT ( 'NONE',  ( 13.69871272854152799, -13.26657293854942665, 11.24487999942863681 ) ) ;
#581 = EDGE_CURVE ( 'NONE', #910, #141, #552, .T. ) ;
#582 = ORIENTED_EDGE ( 'NONE', *, *, #768, .F. ) ;
#583 = DIRECTION ( 'NONE',  ( -0.000000000000000000, -0.000000000000000000, 1.000000000000000000 ) ) ;
#584 = ORIENTED_EDGE ( 'NONE', *, *, #74, .T. ) ;
#585 = EDGE_LOOP ( 'NONE', ( #700, #644, #408, #81 ) ) ;
#586 = AXIS2_PLACEMENT_3D ( 'NONE', #151, #888, #757 ) ;
#587 = AXIS2_PLACEMENT_3D ( 'NONE', #420, #344, #704 ) ;
#588 = CARTESIAN_POINT ( 'NONE',  ( -27.57843024285123334, 2.760334413162493394, 11.24487999942863681 ) ) ;
#589 = VERTEX_POINT ( 'NONE', #501 ) ;
#590 = ORIENTED_EDGE ( 'NONE', *, *, #703, .F. ) ;
#591 = EDGE_CURVE ( 'NONE', #45, #533, #197, .T. ) ;
#592 = CYLINDRICAL_SURFACE ( 'NONE', #941, 19.09999999999999432 ) ;
#593 = AXIS2_PLACEMENT_3D ( 'NONE', #578, #798, #936 ) ;
#594 = ORIENTED_EDGE ( 'NONE', *, *, #639, .F. ) ;
#595 = AXIS2_PLACEMENT_3D ( 'NONE', #52, #576, #199 ) ;
#596 = CARTESIAN_POINT ( 'NONE',  ( -19.85533759456316005, 20.28747738455524541, 11.24487999942863681 ) ) ;
#597 = ORIENTED_EDGE ( 'NONE', *, *, #591, .F. ) ;
#598 = DIRECTION ( 'NONE',  ( 0.000000000000000000, 1.000000000000000000, 0.000000000000000000 ) ) ;
#599 = CARTESIAN_POINT ( 'NONE',  ( -27.57843024285123690, 2.760334413162493394, 47.22444312810840472 ) ) ;
#600 = DIRECTION ( 'NONE',  ( 1.000000000000000000, 0.000000000000000000, -0.000000000000000000 ) ) ;
#601 = CARTESIAN_POINT ( 'NONE',  ( -3.828430242851232901, 2.760334413162493394, 12.24487999942863681 ) ) ;
#602 = CARTESIAN_POINT ( 'NONE',  ( 12.19847710886069336, 20.28747738455524541, 9.044879999428637518 ) ) ;
#603 = DIRECTION ( 'NONE',  ( -1.000000000000000000, -0.000000000000000000, -0.000000000000000000 ) ) ;
#604 = LINE ( 'NONE', #79, #398 ) ;
#605 = ADVANCED_FACE ( 'NONE', ( #915 ), #124, .T. ) ;
#606 = DIRECTION ( 'NONE',  ( -0.000000000000000000, -0.000000000000000000, 1.000000000000000000 ) ) ;
#607 = DIRECTION ( 'NONE',  ( -0.000000000000000000, -0.000000000000000000, -1.000000000000000000 ) ) ;
#608 = DIRECTION ( 'NONE',  ( 0.000000000000000000, 0.000000000000000000, 1.000000000000000000 ) ) ;
#609 = CARTESIAN_POINT ( 'NONE',  ( -19.85533759456316005, 20.28747738455524541, 11.24487999942863681 ) ) ;
#610 = VECTOR ( 'NONE', #765, 1000.000000000000000 ) ;
#611 = EDGE_CURVE ( 'NONE', #422, #184, #709, .T. ) ;
#612 = CARTESIAN_POINT ( 'NONE',  ( -3.828430242851232901, 2.760334413162493394, 12.59487999942863645 ) ) ;
#613 = EDGE_LOOP ( 'NONE', ( #594, #281, #218, #707 ) ) ;
#614 = AXIS2_PLACEMENT_3D ( 'NONE', #734, #233, #384 ) ;
#615 = FACE_OUTER_BOUND ( 'NONE', #446, .T. ) ;
#616 = AXIS2_PLACEMENT_3D ( 'NONE', #490, #425, #341 ) ;
#617 = ORIENTED_EDGE ( 'NONE', *, *, #494, .F. ) ;
#618 = ORIENTED_EDGE ( 'NONE', *, *, #571, .F. ) ;
#619 = CARTESIAN_POINT ( 'NONE',  ( -16.82843024285123334, 2.760334413162493394, 13.59487999942863823 ) ) ;
#620 = EDGE_CURVE ( 'NONE', #650, #402, #649, .T. ) ;
#621 = DIRECTION ( 'NONE',  ( 1.000000000000000000, 0.000000000000000000, 0.000000000000000000 ) ) ;
#622 = EDGE_LOOP ( 'NONE', ( #358, #618, #139, #584 ) ) ;
#623 = CARTESIAN_POINT ( 'NONE',  ( 13.69871272854152089, -13.26657293854943376, 11.24487999942863681 ) ) ;
#624 = CARTESIAN_POINT ( 'NONE',  ( -22.92843024285123477, 2.760334413162493394, 9.044879999428637518 ) ) ;
#625 = CIRCLE ( 'NONE', #830, 2.020000000000000018 ) ;
#626 = DIRECTION ( 'NONE',  ( -0.000000000000000000, -0.000000000000000000, -1.000000000000000000 ) ) ;
#627 = ADVANCED_FACE ( 'NONE', ( #934, #511 ), #717, .T. ) ;
#628 = VECTOR ( 'NONE', #67, 1000.000000000000000 ) ;
#629 = ORIENTED_EDGE ( 'NONE', *, *, #733, .F. ) ;
#630 = CARTESIAN_POINT ( 'NONE',  ( -19.85533759456316005, 20.28747738455524541, 12.24487999942863681 ) ) ;
#631 = ORIENTED_EDGE ( 'NONE', *, *, #581, .T. ) ;
#632 = EDGE_CURVE ( 'NONE', #943, #533, #357, .T. ) ;
#633 = AXIS2_PLACEMENT_3D ( 'NONE', #464, #460, #150 ) ;
#634 = CARTESIAN_POINT ( 'NONE',  ( -3.828430242851232901, 2.760334413162493394, 12.59487999942863645 ) ) ;
#635 = CARTESIAN_POINT ( 'NONE',  ( -16.68011470947362795, 16.88988523300021072, 9.044879999428637518 ) ) ;
#636 = DIRECTION ( 'NONE',  ( 1.000000000000000000, 0.000000000000000000, 0.000000000000000000 ) ) ;
#637 = APPLICATION_CONTEXT ( 'automotive_design' ) ;
#638 = VERTEX_POINT ( 'NONE', #844 ) ;
#639 = EDGE_CURVE ( 'NONE', #887, #918, #665, .T. ) ;
#640 = EDGE_CURVE ( 'NONE', #474, #215, #360, .T. ) ;
#641 = CARTESIAN_POINT ( 'NONE',  ( -21.35557321424399291, -13.26657293854942665, 47.22444312810840472 ) ) ;
#642 = FACE_OUTER_BOUND ( 'NONE', #837, .T. ) ;
#643 = LINE ( 'NONE', #623, #818 ) ;
#644 = ORIENTED_EDGE ( 'NONE', *, *, #764, .T. ) ;
#645 = AXIS2_PLACEMENT_3D ( 'NONE', #208, #799, #251 ) ;
#646 = FACE_OUTER_BOUND ( 'NONE', #483, .T. ) ;
#647 = ADVANCED_FACE ( 'NONE', ( #507 ), #796, .F. ) ;
#648 = FACE_OUTER_BOUND ( 'NONE', #896, .T. ) ;
#649 = LINE ( 'NONE', #256, #330 ) ;
#650 = VERTEX_POINT ( 'NONE', #285 ) ;
#651 = AXIS2_PLACEMENT_3D ( 'NONE', #729, #433, #210 ) ;
#652 = AXIS2_PLACEMENT_3D ( 'NONE', #545, #104, #171 ) ;
#653 = CARTESIAN_POINT ( 'NONE',  ( -3.828430242851232901, 2.760334413162493394, 11.24487999942863681 ) ) ;
#654 = ORIENTED_EDGE ( 'NONE', *, *, #192, .T. ) ;
#655 =( LENGTH_UNIT ( ) NAMED_UNIT ( * ) SI_UNIT ( .MILLI., .METRE. ) );
#656 = EDGE_LOOP ( 'NONE', ( #346, #451, #568, #62 ) ) ;
#657 = CARTESIAN_POINT ( 'NONE',  ( 10.30112057698648265, -10.09135005345989100, 9.044879999428637518 ) ) ;
#658 = VERTEX_POINT ( 'NONE', #580 ) ;
#659 = DIRECTION ( 'NONE',  ( -1.000000000000000000, 0.000000000000000000, -0.000000000000000000 ) ) ;
#660 = EDGE_CURVE ( 'NONE', #918, #948, #332, .T. ) ;
#661 = LINE ( 'NONE', #301, #321 ) ;
#662 = EDGE_CURVE ( 'NONE', #688, #241, #298, .T. ) ;
#663 = VECTOR ( 'NONE', #758, 1000.000000000000000 ) ;
#664 = PRESENTATION_LAYER_ASSIGNMENT (  '', '', ( #117 ) ) ;
#665 = CIRCLE ( 'NONE', #775, 13.00000000000000178 ) ;
#666 = DIRECTION ( 'NONE',  ( 1.000000000000000000, 0.000000000000000000, -0.000000000000000000 ) ) ;
#667 = DIRECTION ( 'NONE',  ( -0.000000000000000000, -0.000000000000000000, -1.000000000000000000 ) ) ;
#668 = EDGE_LOOP ( 'NONE', ( #328, #876, #32, #9 ) ) ;
#669 = CYLINDRICAL_SURFACE ( 'NONE', #586, 19.10000000000000142 ) ;
#670 = CARTESIAN_POINT ( 'NONE',  ( -0.8284302428512324568, 2.760334413162493838, 17.74487999942863681 ) ) ;
#671 = FACE_OUTER_BOUND ( 'NONE', #297, .T. ) ;
#672 = DIRECTION ( 'NONE',  ( -1.000000000000000000, 0.000000000000000000, 0.000000000000000000 ) ) ;
#673 = CARTESIAN_POINT ( 'NONE',  ( 9.023254223771152382, 16.88988523300021072, 47.22444312810840472 ) ) ;
#674 = CARTESIAN_POINT ( 'NONE',  ( -1.808430242851232883, 2.760334413162493394, 15.24487999942863503 ) ) ;
#675 = DIRECTION ( 'NONE',  ( -0.000000000000000000, -0.000000000000000000, -1.000000000000000000 ) ) ;
#676 = DIRECTION ( 'NONE',  ( 0.000000000000000000, 0.000000000000000000, 1.000000000000000000 ) ) ;
#677 = ADVANCED_FACE ( 'NONE', ( #72 ), #744, .T. ) ;
#678 = SURFACE_SIDE_STYLE ('',( #895 ) ) ;
#679 = ORIENTED_EDGE ( 'NONE', *, *, #307, .T. ) ;
#680 = DIRECTION ( 'NONE',  ( -1.000000000000000000, 0.000000000000000000, 0.000000000000000000 ) ) ;
#681 = DIRECTION ( 'NONE',  ( 1.000000000000000000, 0.000000000000000000, 0.000000000000000000 ) ) ;
#682 = EDGE_CURVE ( 'NONE', #948, #436, #277, .T. ) ;
#683 = CARTESIAN_POINT ( 'NONE',  ( -3.828430242851232901, 2.760334413162493394, 11.24487999942863681 ) ) ;
#684 = MANIFOLD_SOLID_BREP ( 'Cut-Extrude3', #478 ) ;
#685 = CYLINDRICAL_SURFACE ( 'NONE', #63, 12.00000000000000178 ) ;
#686 = AXIS2_PLACEMENT_3D ( 'NONE', #892, #471, #823 ) ;
#687 = EDGE_LOOP ( 'NONE', ( #367, #155 ) ) ;
#688 = VERTEX_POINT ( 'NONE', #813 ) ;
#689 = DIRECTION ( 'NONE',  ( -0.000000000000000000, -0.000000000000000000, 1.000000000000000000 ) ) ;
#690 = ORIENTED_EDGE ( 'NONE', *, *, #189, .F. ) ;
#691 = EDGE_CURVE ( 'NONE', #421, #797, #514, .T. ) ;
#692 = EDGE_CURVE ( 'NONE', #224, #145, #370, .T. ) ;
#693 = DIRECTION ( 'NONE',  ( -0.7306113773142041135, 0.6827935378568266156, 0.000000000000000000 ) ) ;
#694 = AXIS2_PLACEMENT_3D ( 'NONE', #375, #927, #659 ) ;
#695 = DIRECTION ( 'NONE',  ( 1.000000000000000000, 0.000000000000000000, 0.000000000000000000 ) ) ;
#696 = VERTEX_POINT ( 'NONE', #8 ) ;
#697 = DIRECTION ( 'NONE',  ( 1.000000000000000000, 0.000000000000000000, 0.000000000000000000 ) ) ;
#698 = SHAPE_DEFINITION_REPRESENTATION ( #77, #738 ) ;
#699 = CARTESIAN_POINT ( 'NONE',  ( -15.82843024285123690, 2.760334413162494727, 12.59487999942863645 ) ) ;
#700 = ORIENTED_EDGE ( 'NONE', *, *, #39, .F. ) ;
#701 = AXIS2_PLACEMENT_3D ( 'NONE', #683, #770, #466 ) ;
#702 = CARTESIAN_POINT ( 'NONE',  ( -3.828430242851232901, 2.760334413162493394, 12.24487999942863681 ) ) ;
#703 = EDGE_CURVE ( 'NONE', #40, #910, #261, .T. ) ;
#704 = DIRECTION ( 'NONE',  ( -1.000000000000000000, 0.000000000000000000, 0.000000000000000000 ) ) ;
#705 = ORIENTED_EDGE ( 'NONE', *, *, #227, .T. ) ;
#706 = FACE_OUTER_BOUND ( 'NONE', #952, .T. ) ;
#707 = ORIENTED_EDGE ( 'NONE', *, *, #660, .F. ) ;
#708 = STYLED_ITEM ( 'NONE', ( #80 ), #761 ) ;
#709 = CIRCLE ( 'NONE', #645, 12.00000000000000178 ) ;
#710 = ORIENTED_EDGE ( 'NONE', *, *, #216, .T. ) ;
#711 = FACE_OUTER_BOUND ( 'NONE', #334, .T. ) ;
#712 = DIRECTION ( 'NONE',  ( 0.000000000000000000, 0.000000000000000000, 1.000000000000000000 ) ) ;
#713 = FACE_OUTER_BOUND ( 'NONE', #656, .T. ) ;
#714 = ORIENTED_EDGE ( 'NONE', *, *, #227, .F. ) ;
#715 = DIRECTION ( 'NONE',  ( -0.000000000000000000, -0.000000000000000000, -1.000000000000000000 ) ) ;
#716 = DIRECTION ( 'NONE',  ( -1.000000000000000000, 0.000000000000000000, -0.000000000000000000 ) ) ;
#717 = PLANE ( 'NONE',  #118 ) ;
#718 = EDGE_LOOP ( 'NONE', ( #882, #502, #542, #121, #815 ) ) ;
#719 = CARTESIAN_POINT ( 'NONE',  ( 13.69871272854152089, -13.26657293854943376, 47.22444312810840472 ) ) ;
#720 =( NAMED_UNIT ( * ) SI_UNIT ( $, .STERADIAN. ) SOLID_ANGLE_UNIT ( ) );
#721 = CARTESIAN_POINT ( 'NONE',  ( -19.85533759456316005, 20.28747738455524541, 11.24487999942863681 ) ) ;
#722 = ORIENTED_EDGE ( 'NONE', *, *, #682, .F. ) ;
#723 = DIRECTION ( 'NONE',  ( 0.6827935378568266156, 0.7306113773142041135, -0.000000000000000000 ) ) ;
#724 = EDGE_LOOP ( 'NONE', ( #177, #548, #180, #631 ) ) ;
#725 = CARTESIAN_POINT ( 'NONE',  ( -3.828430242851232901, 2.760334413162493394, 47.22444312810840472 ) ) ;
#726 = ORIENTED_EDGE ( 'NONE', *, *, #692, .F. ) ;
#727 = CLOSED_SHELL ( 'NONE', ( #802, #51, #677, #23, #236, #821 ) ) ;
#728 = AXIS2_PLACEMENT_3D ( 'NONE', #454, #607, #302 ) ;
#729 = CARTESIAN_POINT ( 'NONE',  ( -3.828430242851232901, 2.760334413162493394, 11.24487999942863681 ) ) ;
#730 = EDGE_CURVE ( 'NONE', #458, #45, #168, .T. ) ;
#731 = ORIENTED_EDGE ( 'NONE', *, *, #640, .T. ) ;
#732 = FILL_AREA_STYLE_COLOUR ( '', #907 ) ;
#733 = EDGE_CURVE ( 'NONE', #840, #137, #296, .T. ) ;
#734 = CARTESIAN_POINT ( 'NONE',  ( -3.828430242851232901, 2.760334413162493394, 9.044879999428637518 ) ) ;
#735 = EDGE_LOOP ( 'NONE', ( #722, #248 ) ) ;
#736 = CARTESIAN_POINT ( 'NONE',  ( -5.848430242851232919, 2.760334413162493838, 15.24487999942863503 ) ) ;
#737 = ORIENTED_EDGE ( 'NONE', *, *, #417, .T. ) ;
#738 = ADVANCED_BREP_SHAPE_REPRESENTATION ( 'cubit3_mag_support_P', ( #761, #763, #684, #97 ), #253 ) ;
#739 = SURFACE_SIDE_STYLE ('',( #462 ) ) ;
#740 = ORIENTED_EDGE ( 'NONE', *, *, #292, .F. ) ;
#741 = PRESENTATION_LAYER_ASSIGNMENT (  '', '', ( #831 ) ) ;
#742 = PLANE ( 'NONE',  #479 ) ;
#743 = CARTESIAN_POINT ( 'NONE',  ( 0.000000000000000000, 0.000000000000000000, 0.000000000000000000 ) ) ;
#744 = CYLINDRICAL_SURFACE ( 'NONE', #412, 23.75000000000000355 ) ;
#745 = EDGE_LOOP ( 'NONE', ( #800, #820, #814, #65, #629, #209 ) ) ;
#746 = EDGE_CURVE ( 'NONE', #589, #191, #300, .T. ) ;
#747 = FACE_OUTER_BOUND ( 'NONE', #718, .T. ) ;
#748 = CIRCLE ( 'NONE', #651, 23.75000000000000000 ) ;
#749 = DIRECTION ( 'NONE',  ( -0.000000000000000000, -0.000000000000000000, -1.000000000000000000 ) ) ;
#750 =( LENGTH_UNIT ( ) NAMED_UNIT ( * ) SI_UNIT ( .MILLI., .METRE. ) );
#751 = EDGE_LOOP ( 'NONE', ( #590, #905, #654, #480 ) ) ;
#752 = CYLINDRICAL_SURFACE ( 'NONE', #222, 13.00000000000000178 ) ;
#753 = DIRECTION ( 'NONE',  ( 0.000000000000000000, 0.000000000000000000, 1.000000000000000000 ) ) ;
#754 = DIRECTION ( 'NONE',  ( 0.000000000000000000, 0.000000000000000000, 1.000000000000000000 ) ) ;
#755 = EDGE_LOOP ( 'NONE', ( #901, #352, #172, #528 ) ) ;
#756 = AXIS2_PLACEMENT_3D ( 'NONE', #223, #3, #228 ) ;
#757 = DIRECTION ( 'NONE',  ( -1.000000000000000000, 0.000000000000000000, 0.000000000000000000 ) ) ;
#758 = DIRECTION ( 'NONE',  ( -0.000000000000000000, -0.000000000000000000, 1.000000000000000000 ) ) ;
#759 = EDGE_LOOP ( 'NONE', ( #679, #884 ) ) ;
#760 = ORIENTED_EDGE ( 'NONE', *, *, #313, .F. ) ;
#761 = MANIFOLD_SOLID_BREP ( 'Boss-Extrude1[1]', #305 ) ;
#762 = DIRECTION ( 'NONE',  ( -0.000000000000000000, -0.000000000000000000, -1.000000000000000000 ) ) ;
#763 = MANIFOLD_SOLID_BREP ( 'Boss-Extrude1[2]', #727 ) ;
#764 = EDGE_CURVE ( 'NONE', #402, #943, #455, .T. ) ;
#765 = DIRECTION ( 'NONE',  ( -0.000000000000000000, -0.000000000000000000, -1.000000000000000000 ) ) ;
#766 = AXIS2_PLACEMENT_3D ( 'NONE', #143, #12, #317 ) ;
#767 = ORIENTED_EDGE ( 'NONE', *, *, #147, .T. ) ;
#768 = EDGE_CURVE ( 'NONE', #130, #650, #544, .T. ) ;
#769 = ORIENTED_EDGE ( 'NONE', *, *, #417, .F. ) ;
#770 = DIRECTION ( 'NONE',  ( 0.000000000000000000, 0.000000000000000000, 1.000000000000000000 ) ) ;
#771 = EDGE_LOOP ( 'NONE', ( #286, #101, #419, #244 ) ) ;
#772 = DIRECTION ( 'NONE',  ( -1.000000000000000000, 0.000000000000000000, 0.000000000000000000 ) ) ;
#773 = AXIS2_PLACEMENT_3D ( 'NONE', #725, #441, #60 ) ;
#774 = DIRECTION ( 'NONE',  ( -0.000000000000000000, -0.000000000000000000, -1.000000000000000000 ) ) ;
#775 = AXIS2_PLACEMENT_3D ( 'NONE', #574, #24, #777 ) ;
#776 = ADVANCED_FACE ( 'NONE', ( #648 ), #448, .F. ) ;
#777 = DIRECTION ( 'NONE',  ( 1.000000000000000000, 0.000000000000000000, 0.000000000000000000 ) ) ;
#778 = DIRECTION ( 'NONE',  ( -1.000000000000000000, 0.000000000000000000, 0.000000000000000000 ) ) ;
#779 = AXIS2_PLACEMENT_3D ( 'NONE', #217, #519, #809 ) ;
#780 = ADVANCED_FACE ( 'NONE', ( #290 ), #350, .T. ) ;
#781 = DIRECTION ( 'NONE',  ( -0.000000000000000000, -0.000000000000000000, -1.000000000000000000 ) ) ;
#782 = ORIENTED_EDGE ( 'NONE', *, *, #216, .F. ) ;
#783 = ORIENTED_EDGE ( 'NONE', *, *, #912, .T. ) ;
#784 = CYLINDRICAL_SURFACE ( 'NONE', #356, 23.75000000000000000 ) ;
#785 = AXIS2_PLACEMENT_3D ( 'NONE', #536, #606, #442 ) ;
#786 = CIRCLE ( 'NONE', #953, 12.00000000000000178 ) ;
#787 = VERTEX_POINT ( 'NONE', #146 ) ;
#788 = CARTESIAN_POINT ( 'NONE',  ( -21.35557321424398225, -13.26657293854943021, 11.24487999942863681 ) ) ;
#789 = CARTESIAN_POINT ( 'NONE',  ( -3.828430242851232901, 2.760334413162493394, 47.22444312810840472 ) ) ;
#790 = FACE_OUTER_BOUND ( 'NONE', #188, .T. ) ;
#791 = ORIENTED_EDGE ( 'NONE', *, *, #848, .F. ) ;
#792 = AXIS2_PLACEMENT_3D ( 'NONE', #510, #288, #138 ) ;
#793 = CYLINDRICAL_SURFACE ( 'NONE', #416, 23.75000000000000000 ) ;
#794 = DIRECTION ( 'NONE',  ( 0.6827935378568253943, -0.7306113773142052237, 0.000000000000000000 ) ) ;
#795 = DIRECTION ( 'NONE',  ( -0.000000000000000000, -0.000000000000000000, -1.000000000000000000 ) ) ;
#796 = PLANE ( 'NONE',  #893 ) ;
#797 = VERTEX_POINT ( 'NONE', #635 ) ;
#798 = DIRECTION ( 'NONE',  ( 0.000000000000000000, 0.000000000000000000, 1.000000000000000000 ) ) ;
#799 = DIRECTION ( 'NONE',  ( 0.000000000000000000, 0.000000000000000000, 1.000000000000000000 ) ) ;
#800 = ORIENTED_EDGE ( 'NONE', *, *, #125, .F. ) ;
#801 = AXIS2_PLACEMENT_3D ( 'NONE', #165, #543, #600 ) ;
#802 = ADVANCED_FACE ( 'NONE', ( #202 ), #213, .T. ) ;
#803 = VECTOR ( 'NONE', #226, 1000.000000000000000 ) ;
#804 = LINE ( 'NONE', #64, #283 ) ;
#805 = ORIENTED_EDGE ( 'NONE', *, *, #539, .F. ) ;
#806 = CARTESIAN_POINT ( 'NONE',  ( -3.828430242851232901, 2.760334413162493394, 47.22444312810840472 ) ) ;
#807 = ORIENTED_EDGE ( 'NONE', *, *, #691, .F. ) ;
#808 = AXIS2_PLACEMENT_3D ( 'NONE', #653, #875, #429 ) ;
#809 = DIRECTION ( 'NONE',  ( -1.000000000000000000, 0.000000000000000000, 0.000000000000000000 ) ) ;
#810 = PRODUCT_RELATED_PRODUCT_CATEGORY ( 'part', '', ( #46 ) ) ;
#811 = ORIENTED_EDGE ( 'NONE', *, *, #873, .T. ) ;
#812 = CARTESIAN_POINT ( 'NONE',  ( -3.828430242851232901, 2.760334413162493394, 11.24487999942863681 ) ) ;
#813 = CARTESIAN_POINT ( 'NONE',  ( -21.35557321424399291, -13.26657293854942665, 11.24487999942863681 ) ) ;
#814 = ORIENTED_EDGE ( 'NONE', *, *, #662, .F. ) ;
#815 = ORIENTED_EDGE ( 'NONE', *, *, #189, .T. ) ;
#816 = MECHANICAL_DESIGN_GEOMETRIC_PRESENTATION_REPRESENTATION (  '', ( #117 ), #880 ) ;
#817 = PLANE ( 'NONE',  #595 ) ;
#818 = VECTOR ( 'NONE', #693, 1000.000000000000000 ) ;
#819 = CARTESIAN_POINT ( 'NONE',  ( 8.171569757148768431, 2.760334413162493394, 12.59487999942863645 ) ) ;
#820 = ORIENTED_EDGE ( 'NONE', *, *, #22, .F. ) ;
#821 = ADVANCED_FACE ( 'NONE', ( #642 ), #566, .F. ) ;
#822 = CARTESIAN_POINT ( 'NONE',  ( -0.8284302428512324568, 2.760334413162493838, 12.59487999942863645 ) ) ;
#823 = DIRECTION ( 'NONE',  ( 1.000000000000000000, 0.000000000000000000, 0.000000000000000000 ) ) ;
#824 = SURFACE_STYLE_USAGE ( .BOTH. , #739 ) ;
#825 = EDGE_LOOP ( 'NONE', ( #497, #467, #34, #105 ) ) ;
#826 = EDGE_CURVE ( 'NONE', #638, #856, #949, .T. ) ;
#827 = FACE_OUTER_BOUND ( 'NONE', #829, .T. ) ;
#828 = DIRECTION ( 'NONE',  ( 1.000000000000000000, 0.000000000000000000, 0.000000000000000000 ) ) ;
#829 = EDGE_LOOP ( 'NONE', ( #731, #491 ) ) ;
#830 = AXIS2_PLACEMENT_3D ( 'NONE', #179, #754, #27 ) ;
#831 = STYLED_ITEM ( 'NONE', ( #877 ), #763 ) ;
#832 = ADVANCED_FACE ( 'NONE', ( #522 ), #196, .F. ) ;
#833 = CIRCLE ( 'NONE', #382, 23.75000000000000000 ) ;
#834 = DIRECTION ( 'NONE',  ( -0.6827935378568253943, 0.7306113773142052237, 0.000000000000000000 ) ) ;
#835 = DIRECTION ( 'NONE',  ( 0.000000000000000000, 0.000000000000000000, 1.000000000000000000 ) ) ;
#836 = ORIENTED_EDGE ( 'NONE', *, *, #620, .T. ) ;
#837 = EDGE_LOOP ( 'NONE', ( #805, #250, #381, #582 ) ) ;
#838 = CARTESIAN_POINT ( 'NONE',  ( -3.828430242851232901, 2.760334413162493394, 12.24487999942863681 ) ) ;
#839 = PLANE ( 'NONE',  #898 ) ;
#840 = VERTEX_POINT ( 'NONE', #430 ) ;
#841 = DIRECTION ( 'NONE',  ( -0.000000000000000000, -0.000000000000000000, -1.000000000000000000 ) ) ;
#842 = DIRECTION ( 'NONE',  ( 1.000000000000000000, 0.000000000000000000, 0.000000000000000000 ) ) ;
#843 = EDGE_CURVE ( 'NONE', #432, #589, #25, .T. ) ;
#844 = CARTESIAN_POINT ( 'NONE',  ( -6.828430242851234233, 2.760334413162493394, 17.74487999942863681 ) ) ;
#845 = CIRCLE ( 'NONE', #439, 2.020000000000000018 ) ;
#846 = FACE_OUTER_BOUND ( 'NONE', #869, .T. ) ;
#847 = EDGE_LOOP ( 'NONE', ( #563, #260, #426, #597 ) ) ;
#848 = EDGE_CURVE ( 'NONE', #555, #538, #279, .T. ) ;
#849 = DIRECTION ( 'NONE',  ( -0.000000000000000000, -0.000000000000000000, -1.000000000000000000 ) ) ;
#850 = AXIS2_PLACEMENT_3D ( 'NONE', #424, #712, #276 ) ;
#851 = VECTOR ( 'NONE', #550, 1000.000000000000000 ) ;
#852 = PRODUCT_DEFINITION_FORMATION_WITH_SPECIFIED_SOURCE ( 'ANY', '', #46, .NOT_KNOWN. ) ;
#853 = EDGE_LOOP ( 'NONE', ( #760, #836, #90, #512 ) ) ;
#854 = EDGE_CURVE ( 'NONE', #520, #797, #128, .T. ) ;
#855 = CARTESIAN_POINT ( 'NONE',  ( -16.68011470947362795, 16.88988523300021072, 11.24487999942863681 ) ) ;
#856 = VERTEX_POINT ( 'NONE', #71 ) ;
#857 = ADVANCED_FACE ( 'NONE', ( #827 ), #242, .T. ) ;
#858 = CARTESIAN_POINT ( 'NONE',  ( -3.828430242851232901, 2.760334413162493394, 17.74487999942863681 ) ) ;
#859 = EDGE_CURVE ( 'NONE', #797, #428, #604, .T. ) ;
#860 = AXIS2_PLACEMENT_3D ( 'NONE', #789, #66, #219 ) ;
#861 = DIRECTION ( 'NONE',  ( -0.000000000000000000, -0.000000000000000000, -1.000000000000000000 ) ) ;
#862 = AXIS2_PLACEMENT_3D ( 'NONE', #630, #37, #183 ) ;
#863 = CYLINDRICAL_SURFACE ( 'NONE', #169, 2.020000000000000018 ) ;
#864 = ORIENTED_EDGE ( 'NONE', *, *, #903, .T. ) ;
#865 = UNCERTAINTY_MEASURE_WITH_UNIT (LENGTH_MEASURE( 1.000000000000000082E-05 ), #655, 'distance_accuracy_value', 'NONE');
#866 = FACE_OUTER_BOUND ( 'NONE', #853, .T. ) ;
#867 = CARTESIAN_POINT ( 'NONE',  ( -3.828430242851232901, 2.760334413162493394, 9.044879999428637518 ) ) ;
#868 = DIRECTION ( 'NONE',  ( 1.000000000000000000, 0.000000000000000000, 0.000000000000000000 ) ) ;
#869 = EDGE_LOOP ( 'NONE', ( #560, #769, #509, #21 ) ) ;
#870 = AXIS2_PLACEMENT_3D ( 'NONE', #175, #166, #842 ) ;
#871 = LINE ( 'NONE', #641, #463 ) ;
#872 = DIRECTION ( 'NONE',  ( 1.000000000000000000, 0.000000000000000000, 0.000000000000000000 ) ) ;
#873 = EDGE_CURVE ( 'NONE', #856, #145, #315, .T. ) ;
#874 = ORIENTED_EDGE ( 'NONE', *, *, #354, .T. ) ;
#875 = DIRECTION ( 'NONE',  ( 0.000000000000000000, 0.000000000000000000, -1.000000000000000000 ) ) ;
#876 = ORIENTED_EDGE ( 'NONE', *, *, #114, .F. ) ;
#877 = PRESENTATION_STYLE_ASSIGNMENT (( #452 ) ) ;
#878 = DIRECTION ( 'NONE',  ( 1.000000000000000000, 0.000000000000000000, 0.000000000000000000 ) ) ;
#879 = ORIENTED_EDGE ( 'NONE', *, *, #147, .F. ) ;
#880 =( GEOMETRIC_REPRESENTATION_CONTEXT ( 3 ) GLOBAL_UNCERTAINTY_ASSIGNED_CONTEXT ( ( #438 ) ) GLOBAL_UNIT_ASSIGNED_CONTEXT ( ( #314, #309, #523 ) ) REPRESENTATION_CONTEXT ( 'NONE', 'WORKASPACE' ) );
#881 = CYLINDRICAL_SURFACE ( 'NONE', #779, 23.75000000000000355 ) ;
#882 = ORIENTED_EDGE ( 'NONE', *, *, #571, .T. ) ;
#883 = FILL_AREA_STYLE ('',( #532 ) ) ;
#884 = ORIENTED_EDGE ( 'NONE', *, *, #639, .T. ) ;
#885 = VECTOR ( 'NONE', #287, 1000.000000000000000 ) ;
#886 = CARTESIAN_POINT ( 'NONE',  ( -3.828430242851232901, 2.760334413162493394, 13.59487999942863823 ) ) ;
#887 = VERTEX_POINT ( 'NONE', #531 ) ;
#888 = DIRECTION ( 'NONE',  ( -0.000000000000000000, -0.000000000000000000, -1.000000000000000000 ) ) ;
#889 = PRESENTATION_STYLE_ASSIGNMENT (( #824 ) ) ;
#890 = ORIENTED_EDGE ( 'NONE', *, *, #427, .T. ) ;
#891 = AXIS2_PLACEMENT_3D ( 'NONE', #83, #608, #461 ) ;
#892 = CARTESIAN_POINT ( 'NONE',  ( -3.828430242851232901, 2.760334413162493394, 13.59487999942863823 ) ) ;
#893 = AXIS2_PLACEMENT_3D ( 'NONE', #415, #911, #129 ) ;
#894 = CARTESIAN_POINT ( 'NONE',  ( -16.82843024285123334, 2.760334413162493394, 13.59487999942863823 ) ) ;
#895 = SURFACE_STYLE_FILL_AREA ( #883 ) ;
#896 = EDGE_LOOP ( 'NONE', ( #363, #484, #493, #406 ) ) ;
#897 = CARTESIAN_POINT ( 'NONE',  ( -3.828430242851232901, 2.760334413162493394, 12.24487999942863681 ) ) ;
#898 = AXIS2_PLACEMENT_3D ( 'NONE', #401, #835, #553 ) ;
#899 = DIRECTION ( 'NONE',  ( 1.000000000000000000, 0.000000000000000000, 0.000000000000000000 ) ) ;
#900 = DIRECTION ( 'NONE',  ( 0.6827935378568253943, -0.7306113773142052237, 0.000000000000000000 ) ) ;
#901 = ORIENTED_EDGE ( 'NONE', *, *, #468, .F. ) ;
#902 = EDGE_CURVE ( 'NONE', #167, #316, #182, .T. ) ;
#903 = EDGE_CURVE ( 'NONE', #316, #167, #845, .T. ) ;
#904 = LINE ( 'NONE', #397, #368 ) ;
#905 = ORIENTED_EDGE ( 'NONE', *, *, #185, .T. ) ;
#906 = ORIENTED_EDGE ( 'NONE', *, *, #246, .F. ) ;
#907 = COLOUR_RGB ( '',0.7921568627450980005, 0.8196078431372548767, 0.9333333333333333481 ) ;
#908 = CIRCLE ( 'NONE', #423, 23.75000000000000355 ) ;
#909 = LINE ( 'NONE', #164, #174 ) ;
#910 = VERTEX_POINT ( 'NONE', #469 ) ;
#911 = DIRECTION ( 'NONE',  ( -0.6827935378568253943, 0.7306113773142052237, 0.000000000000000000 ) ) ;
#912 = EDGE_CURVE ( 'NONE', #326, #538, #392, .T. ) ;
#913 = LINE ( 'NONE', #333, #295 ) ;
#914 = ORIENTED_EDGE ( 'NONE', *, *, #640, .F. ) ;
#915 = FACE_OUTER_BOUND ( 'NONE', #176, .T. ) ;
#916 = CARTESIAN_POINT ( 'NONE',  ( -27.57843024285123690, 2.760334413162493394, 9.044879999428637518 ) ) ;
#917 = EDGE_CURVE ( 'NONE', #474, #167, #92, .T. ) ;
#918 = VERTEX_POINT ( 'NONE', #894 ) ;
#919 = AXIS2_PLACEMENT_3D ( 'NONE', #465, #388, #170 ) ;
#920 = CYLINDRICAL_SURFACE ( 'NONE', #195, 23.75000000000000355 ) ;
#921 = CARTESIAN_POINT ( 'NONE',  ( -3.828430242851232901, 2.760334413162493394, 13.59487999942863823 ) ) ;
#922 = VECTOR ( 'NONE', #715, 1000.000000000000000 ) ;
#923 = AXIS2_PLACEMENT_3D ( 'NONE', #10, #387, #525 ) ;
#924 = ORIENTED_EDGE ( 'NONE', *, *, #859, .F. ) ;
#925 = ADVANCED_FACE ( 'NONE', ( #540 ), #669, .F. ) ;
#926 = FACE_OUTER_BOUND ( 'NONE', #771, .T. ) ;
#927 = DIRECTION ( 'NONE',  ( 0.000000000000000000, 0.000000000000000000, -1.000000000000000000 ) ) ;
#928 = DIRECTION ( 'NONE',  ( -0.000000000000000000, -0.000000000000000000, -1.000000000000000000 ) ) ;
#929 = ORIENTED_EDGE ( 'NONE', *, *, #366, .F. ) ;
#930 = CARTESIAN_POINT ( 'NONE',  ( -21.35557321424398225, -13.26657293854943021, 12.24487999942863681 ) ) ;
#931 = VECTOR ( 'NONE', #795, 1000.000000000000000 ) ;
#932 = DIRECTION ( 'NONE',  ( 1.000000000000000000, 0.000000000000000000, 0.000000000000000000 ) ) ;
#933 = CIRCLE ( 'NONE', #616, 3.000000000000000444 ) ;
#934 = FACE_BOUND ( 'NONE', #56, .T. ) ;
#935 = EDGE_LOOP ( 'NONE', ( #18, #516, #378, #311 ) ) ;
#936 = DIRECTION ( 'NONE',  ( 1.000000000000000000, 0.000000000000000000, 0.000000000000000000 ) ) ;
#937 = EDGE_CURVE ( 'NONE', #453, #428, #2, .T. ) ;
#938 = CARTESIAN_POINT ( 'NONE',  ( -3.828430242851232901, 2.760334413162493394, 9.044879999428637518 ) ) ;
#939 = DIRECTION ( 'NONE',  ( 0.6827935378568266156, 0.7306113773142041135, 0.000000000000000000 ) ) ;
#940 = ORIENTED_EDGE ( 'NONE', *, *, #843, .F. ) ;
#941 = AXIS2_PLACEMENT_3D ( 'NONE', #78, #762, #672 ) ;
#942 = LINE ( 'NONE', #364, #922 ) ;
#943 = VERTEX_POINT ( 'NONE', #526 ) ;
#944 = DIRECTION ( 'NONE',  ( -1.000000000000000000, 0.000000000000000000, 0.000000000000000000 ) ) ;
#945 = EDGE_CURVE ( 'NONE', #696, #658, #88, .T. ) ;
#946 = ORIENTED_EDGE ( 'NONE', *, *, #660, .T. ) ;
#947 = DIRECTION ( 'NONE',  ( -0.7306113773142052237, -0.6827935378568253943, 0.000000000000000000 ) ) ;
#948 = VERTEX_POINT ( 'NONE', #232 ) ;
#949 = LINE ( 'NONE', #299, #951 ) ;
#950 = DIRECTION ( 'NONE',  ( -1.000000000000000000, 0.000000000000000000, 0.000000000000000000 ) ) ;
#951 = VECTOR ( 'NONE', #861, 1000.000000000000000 ) ;
#952 = EDGE_LOOP ( 'NONE', ( #783, #791, #690, #737 ) ) ;
#953 = AXIS2_PLACEMENT_3D ( 'NONE', #921, #112, #418 ) ;
#954 = CARTESIAN_POINT ( 'NONE',  ( -0.8284302428512324568, 2.760334413162493838, 17.74487999942863681 ) ) ;
ENDSEC;
END-ISO-10303-21;
