ISO-10303-21;
HEADER;
FILE_DESCRIPTION (( 'STEP AP214' ),
    '1' );
FILE_NAME ('cubit3_bottom_enclosure.STEP',
    '2025-06-08T07:55:17',
    ( '' ),
    ( '' ),
    'SwSTEP 2.0',
    'SolidWorks 2023',
    '' );
FILE_SCHEMA (( 'AUTOMOTIVE_DESIGN' ));
ENDSEC;

DATA;
#1 = DIRECTION ( 'NONE',  ( -0.000000000000000000, -0.000000000000000000, 1.000000000000000000 ) ) ;
#2 = ORIENTED_EDGE ( 'NONE', *, *, #491, .T. ) ;
#3 = CARTESIAN_POINT ( 'NONE',  ( 53.05264674755989063, 3.205038549915393276, 0.000000000000000000 ) ) ;
#4 = EDGE_CURVE ( 'NONE', #388, #122, #786, .T. ) ;
#5 =( LENGTH_UNIT ( ) NAMED_UNIT ( * ) SI_UNIT ( .MILLI., .METRE. ) );
#6 = LINE ( 'NONE', #98, #1075 ) ;
#7 = DIRECTION ( 'NONE',  ( 0.000000000000000000, 0.000000000000000000, -1.000000000000000000 ) ) ;
#8 = VECTOR ( 'NONE', #163, 1000.000000000000000 ) ;
#9 = VECTOR ( 'NONE', #915, 1000.000000000000000 ) ;
#10 = ORIENTED_EDGE ( 'NONE', *, *, #498, .F. ) ;
#11 = DIRECTION ( 'NONE',  ( -0.000000000000000000, -0.000000000000000000, 1.000000000000000000 ) ) ;
#12 = PRESENTATION_LAYER_ASSIGNMENT (  '', '', ( #294 ) ) ;
#13 = EDGE_CURVE ( 'NONE', #766, #315, #280, .T. ) ;
#14 = ADVANCED_FACE ( 'NONE', ( #568 ), #675, .T. ) ;
#15 = CARTESIAN_POINT ( 'NONE',  ( 0.000000000000000000, 65.12986164836351577, 2.000000000000000000 ) ) ;
#16 = CARTESIAN_POINT ( 'NONE',  ( 4.125584991616801034, 0.000000000000000000, 2.000000000000000000 ) ) ;
#17 = DIRECTION ( 'NONE',  ( 1.000000000000000000, 1.778901277296108536E-16, -0.000000000000000000 ) ) ;
#18 = EDGE_LOOP ( 'NONE', ( #1154, #768, #1059, #1220 ) ) ;
#19 = LINE ( 'NONE', #316, #666 ) ;
#20 = CARTESIAN_POINT ( 'NONE',  ( 43.57797558682614891, 54.89351411270024528, 2.000000000000000000 ) ) ;
#21 = ADVANCED_FACE ( 'NONE', ( #989 ), #894, .T. ) ;
#22 = CARTESIAN_POINT ( 'NONE',  ( 58.74048259065698829, 68.70578460258892051, 0.000000000000000000 ) ) ;
#23 = DIRECTION ( 'NONE',  ( 0.000000000000000000, 0.000000000000000000, -1.000000000000000000 ) ) ;
#24 = ORIENTED_EDGE ( 'NONE', *, *, #550, .F. ) ;
#25 = CARTESIAN_POINT ( 'NONE',  ( 33.46530128803042459, 54.89351411270024528, 0.000000000000000000 ) ) ;
#26 = CIRCLE ( 'NONE', #433, 1.100000000000001199 ) ;
#27 = VECTOR ( 'NONE', #72, 1000.000000000000000 ) ;
#28 = ORIENTED_EDGE ( 'NONE', *, *, #471, .T. ) ;
#29 = FACE_OUTER_BOUND ( 'NONE', #1124, .T. ) ;
#30 = EDGE_CURVE ( 'NONE', #477, #198, #978, .T. ) ;
#31 = DIRECTION ( 'NONE',  ( 0.000000000000000000, 1.000000000000000000, 0.000000000000000000 ) ) ;
#32 = DIRECTION ( 'NONE',  ( -0.000000000000000000, -1.000000000000000000, -0.000000000000000000 ) ) ;
#33 = ORIENTED_EDGE ( 'NONE', *, *, #422, .T. ) ;
#34 = DIRECTION ( 'NONE',  ( -1.000000000000000000, -1.778901277296108290E-16, 0.000000000000000000 ) ) ;
#35 = VERTEX_POINT ( 'NONE', #605 ) ;
#36 = FACE_BOUND ( 'NONE', #1122, .T. ) ;
#37 = CARTESIAN_POINT ( 'NONE',  ( 43.40393525603455771, 15.07248610966331803, 2.000000000000000000 ) ) ;
#38 = DIRECTION ( 'NONE',  ( -0.000000000000000000, 1.000000000000000000, -0.000000000000000000 ) ) ;
#39 = ORIENTED_EDGE ( 'NONE', *, *, #224, .T. ) ;
#40 = ORIENTED_EDGE ( 'NONE', *, *, #618, .F. ) ;
#41 = FACE_BOUND ( 'NONE', #636, .T. ) ;
#42 = DIRECTION ( 'NONE',  ( 1.000000000000000000, 0.000000000000000000, 0.000000000000000000 ) ) ;
#43 = DIRECTION ( 'NONE',  ( -1.000000000000000000, 0.000000000000000000, 0.000000000000000000 ) ) ;
#44 = ORIENTED_EDGE ( 'NONE', *, *, #672, .F. ) ;
#45 = DIRECTION ( 'NONE',  ( 0.000000000000000000, -0.000000000000000000, 1.000000000000000000 ) ) ;
#46 = VECTOR ( 'NONE', #719, 1000.000000000000000 ) ;
#47 = VECTOR ( 'NONE', #581, 1000.000000000000000 ) ;
#48 = ORIENTED_EDGE ( 'NONE', *, *, #731, .F. ) ;
#49 = EDGE_CURVE ( 'NONE', #531, #548, #699, .T. ) ;
#50 = PRODUCT_DEFINITION_FORMATION_WITH_SPECIFIED_SOURCE ( 'ANY', '', #65, .NOT_KNOWN. ) ;
#51 = VECTOR ( 'NONE', #330, 1000.000000000000000 ) ;
#52 = LINE ( 'NONE', #362, #649 ) ;
#53 = CARTESIAN_POINT ( 'NONE',  ( 59.65800094604500003, 64.70199890136701981, -0.1000000000000002554 ) ) ;
#54 = ORIENTED_EDGE ( 'NONE', *, *, #232, .F. ) ;
#55 = ORIENTED_EDGE ( 'NONE', *, *, #917, .T. ) ;
#56 = AXIS2_PLACEMENT_3D ( 'NONE', #506, #120, #202 ) ;
#57 = ADVANCED_FACE ( 'NONE', ( #807 ), #1029, .T. ) ;
#58 = DIRECTION ( 'NONE',  ( 0.000000000000000000, 0.000000000000000000, -1.000000000000000000 ) ) ;
#59 = EDGE_CURVE ( 'NONE', #555, #1239, #888, .T. ) ;
#60 = FACE_OUTER_BOUND ( 'NONE', #1198, .T. ) ;
#61 = ORIENTED_EDGE ( 'NONE', *, *, #823, .T. ) ;
#62 = CYLINDRICAL_SURFACE ( 'NONE', #305, 1.100000000000000311 ) ;
#63 = VERTEX_POINT ( 'NONE', #597 ) ;
#64 = CARTESIAN_POINT ( 'NONE',  ( 43.40393525603455771, 4.928960542525273603, 2.000000000000000000 ) ) ;
#65 = PRODUCT ( 'cubit3_bottom_enclosure', 'cubit3_bottom_enclosure', '', ( #1228 ) ) ;
#66 = CARTESIAN_POINT ( 'NONE',  ( 50.65800094604500003, 73.70199890136701981, -0.1000000000000002554 ) ) ;
#67 = ADVANCED_FACE ( 'NONE', ( #1204 ), #525, .T. ) ;
#68 = CARTESIAN_POINT ( 'NONE',  ( 55.50600094604465795, 66.57499890136696763, -36.02814615619893601 ) ) ;
#69 = CARTESIAN_POINT ( 'NONE',  ( 3.276000946044667295, 66.72799890136695922, 2.000000000000000000 ) ) ;
#70 = ORIENTED_EDGE ( 'NONE', *, *, #1041, .F. ) ;
#71 = PRODUCT_DEFINITION_CONTEXT ( 'detailed design', #199, 'design' ) ;
#72 = DIRECTION ( 'NONE',  ( -1.000000000000000000, -2.250695395364005083E-16, -0.000000000000000000 ) ) ;
#73 = PLANE ( 'NONE',  #971 ) ;
#74 = EDGE_CURVE ( 'NONE', #1239, #1024, #1110, .T. ) ;
#75 = ORIENTED_EDGE ( 'NONE', *, *, #88, .T. ) ;
#76 = CARTESIAN_POINT ( 'NONE',  ( 54.15264674755988494, 3.205038549915393276, -36.02814615619893601 ) ) ;
#77 = VERTEX_POINT ( 'NONE', #405 ) ;
#78 = LINE ( 'NONE', #681, #1178 ) ;
#79 = CYLINDRICAL_SURFACE ( 'NONE', #846, 1.099999999999996758 ) ;
#80 = CARTESIAN_POINT ( 'NONE',  ( 43.57797558682614891, 65.08547442474340983, 5.000000000000000000 ) ) ;
#81 = CARTESIAN_POINT ( 'NONE',  ( -2.001999053954990782, -2.498001098633011896, 2.000000000000000000 ) ) ;
#82 = ORIENTED_EDGE ( 'NONE', *, *, #156, .F. ) ;
#83 = EDGE_CURVE ( 'NONE', #384, #1020, #1001, .T. ) ;
#84 = CARTESIAN_POINT ( 'NONE',  ( 4.125584991616801034, 15.07248610966331626, 0.000000000000000000 ) ) ;
#85 = FACE_OUTER_BOUND ( 'NONE', #259, .T. ) ;
#86 = EDGE_LOOP ( 'NONE', ( #830, #576, #101, #546 ) ) ;
#87 = VERTEX_POINT ( 'NONE', #499 ) ;
#88 = EDGE_CURVE ( 'NONE', #580, #388, #6, .T. ) ;
#89 = VECTOR ( 'NONE', #1277, 1000.000000000000000 ) ;
#90 = CIRCLE ( 'NONE', #113, 6.999999999999999112 ) ;
#91 = CARTESIAN_POINT ( 'NONE',  ( 13.87724180426212683, 15.07248610966331803, 0.000000000000000000 ) ) ;
#92 = CYLINDRICAL_SURFACE ( 'NONE', #1130, 1.100000000000001199 ) ;
#93 = ORIENTED_EDGE ( 'NONE', *, *, #165, .F. ) ;
#94 = EDGE_CURVE ( 'NONE', #408, #277, #709, .T. ) ;
#95 = B_SPLINE_CURVE_WITH_KNOTS ( 'NONE', 3,
 ( #791, #258, #674, #1074 ),
 .UNSPECIFIED., .F., .F.,
 ( 4, 4 ),
 ( 0.000000000000000000, 1.000000000000000000 ),
 .UNSPECIFIED. ) ;
#96 = CARTESIAN_POINT ( 'NONE',  ( -2.001999053955005436, 66.70199890136699139, 0.000000000000000000 ) ) ;
#97 = EDGE_CURVE ( 'NONE', #1225, #210, #610, .T. ) ;
#98 = CARTESIAN_POINT ( 'NONE',  ( 13.71247529139376198, 55.06052811971416361, 5.000000000000000000 ) ) ;
#99 = AXIS2_PLACEMENT_3D ( 'NONE', #958, #1062, #42 ) ;
#100 = FACE_OUTER_BOUND ( 'NONE', #1288, .T. ) ;
#101 = ORIENTED_EDGE ( 'NONE', *, *, #379, .F. ) ;
#102 = DIRECTION ( 'NONE',  ( 1.000000000000000000, 0.000000000000000000, 0.000000000000000000 ) ) ;
#103 = CARTESIAN_POINT ( 'NONE',  ( 50.65800094604500003, 73.70199890136701981, 2.000000000000000000 ) ) ;
#104 = ADVANCED_FACE ( 'NONE', ( #1009, #826, #1216, #1016, #722, #1120 ), #819, .T. ) ;
#105 = DIRECTION ( 'NONE',  ( 0.000000000000000000, 0.000000000000000000, -1.000000000000000000 ) ) ;
#106 = ORIENTED_EDGE ( 'NONE', *, *, #244, .T. ) ;
#107 = DIRECTION ( 'NONE',  ( -0.000000000000000000, -0.000000000000000000, 1.000000000000000000 ) ) ;
#108 = ORIENTED_EDGE ( 'NONE', *, *, #1294, .F. ) ;
#109 = CARTESIAN_POINT ( 'NONE',  ( 56.14979430631497337, 71.85829481200374858, 2.000000000000000000 ) ) ;
#110 = VECTOR ( 'NONE', #739, 1000.000000000000000 ) ;
#111 = DIRECTION ( 'NONE',  ( 0.000000000000000000, 1.000000000000000000, 0.000000000000000000 ) ) ;
#112 = CARTESIAN_POINT ( 'NONE',  ( 53.25478145081195436, 65.08547442474340983, 5.000000000000000000 ) ) ;
#113 = AXIS2_PLACEMENT_3D ( 'NONE', #613, #7, #1111 ) ;
#114 = CIRCLE ( 'NONE', #373, 7.000000000000000000 ) ;
#115 = EDGE_CURVE ( 'NONE', #580, #793, #619, .T. ) ;
#116 = EDGE_LOOP ( 'NONE', ( #760, #638, #884, #376, #188, #684, #1085, #1258, #511, #1132, #61, #949, #630, #219, #253, #401, #233, #1221, #469, #1293 ) ) ;
#117 = LINE ( 'NONE', #123, #539 ) ;
#118 = ORIENTED_EDGE ( 'NONE', *, *, #171, .F. ) ;
#119 = PLANE ( 'NONE',  #1049 ) ;
#120 = DIRECTION ( 'NONE',  ( -1.000000000000000000, 0.000000000000000000, -0.000000000000000000 ) ) ;
#121 = DIRECTION ( 'NONE',  ( -0.000000000000000000, -0.000000000000000000, 1.000000000000000000 ) ) ;
#122 = VERTEX_POINT ( 'NONE', #518 ) ;
#123 = CARTESIAN_POINT ( 'NONE',  ( 53.25478145081196146, 15.07248610966331626, 5.000000000000000000 ) ) ;
#124 = VERTEX_POINT ( 'NONE', #1230 ) ;
#125 = EDGE_CURVE ( 'NONE', #343, #388, #1127, .T. ) ;
#126 = CARTESIAN_POINT ( 'NONE',  ( 55.50600094604465795, 66.57499890136696763, 0.000000000000000000 ) ) ;
#127 = DIRECTION ( 'NONE',  ( -1.000000000000000000, -2.250695395364005083E-16, -0.000000000000000000 ) ) ;
#128 = CARTESIAN_POINT ( 'NONE',  ( 43.40393525603455771, 15.07248610966331803, 0.000000000000000000 ) ) ;
#129 = EDGE_LOOP ( 'NONE', ( #1011, #320, #694, #1180 ) ) ;
#130 = CARTESIAN_POINT ( 'NONE',  ( 52.65800094604500714, 4.501998901367001871, 2.000000000000000000 ) ) ;
#131 = EDGE_CURVE ( 'NONE', #35, #954, #534, .T. ) ;
#132 = LINE ( 'NONE', #423, #51 ) ;
#133 = DIRECTION ( 'NONE',  ( -1.000000000000000000, -0.000000000000000000, -0.000000000000000000 ) ) ;
#134 = CARTESIAN_POINT ( 'NONE',  ( 0.000000000000000000, 65.08547442474340983, 2.000000000000000000 ) ) ;
#135 = VERTEX_POINT ( 'NONE', #37 ) ;
#136 = VECTOR ( 'NONE', #723, 1000.000000000000114 ) ;
#137 = CARTESIAN_POINT ( 'NONE',  ( 33.46530128803042459, 54.89351411270024528, 0.000000000000000000 ) ) ;
#138 = EDGE_LOOP ( 'NONE', ( #181, #980 ) ) ;
#139 = CARTESIAN_POINT ( 'NONE',  ( 59.65800094604500714, -2.498001098632996797, 2.000000000000000000 ) ) ;
#140 = LINE ( 'NONE', #153, #990 ) ;
#141 = LINE ( 'NONE', #737, #583 ) ;
#142 = VERTEX_POINT ( 'NONE', #1057 ) ;
#143 = CARTESIAN_POINT ( 'NONE',  ( 4.125584991616801034, 15.07248610966331626, 5.000000000000000000 ) ) ;
#144 = VERTEX_POINT ( 'NONE', #838 ) ;
#145 = VECTOR ( 'NONE', #133, 1000.000000000000000 ) ;
#146 = FACE_BOUND ( 'NONE', #828, .T. ) ;
#147 = DIRECTION ( 'NONE',  ( 1.000000000000000000, 0.000000000000000000, 0.000000000000000000 ) ) ;
#148 = EDGE_CURVE ( 'NONE', #882, #1269, #634, .T. ) ;
#149 = ORIENTED_EDGE ( 'NONE', *, *, #148, .F. ) ;
#150 = CARTESIAN_POINT ( 'NONE',  ( 4.125584991616801034, 65.11340853431774178, 5.000000000000000000 ) ) ;
#151 = ORIENTED_EDGE ( 'NONE', *, *, #187, .T. ) ;
#152 = CARTESIAN_POINT ( 'NONE',  ( 59.65800094604500714, 4.501998901367029404, 0.000000000000000000 ) ) ;
#153 = CARTESIAN_POINT ( 'NONE',  ( -2.001999053955006769, 73.70199890136700560, 0.000000000000000000 ) ) ;
#154 = VERTEX_POINT ( 'NONE', #1036 ) ;
#155 = PLANE ( 'NONE',  #1025 ) ;
#156 = EDGE_CURVE ( 'NONE', #1183, #868, #140, .T. ) ;
#157 = CIRCLE ( 'NONE', #921, 1.099999999999996758 ) ;
#158 = ORIENTED_EDGE ( 'NONE', *, *, #30, .F. ) ;
#159 = AXIS2_PLACEMENT_3D ( 'NONE', #753, #1159, #936 ) ;
#160 = AXIS2_PLACEMENT_3D ( 'NONE', #1249, #1157, #234 ) ;
#161 = PLANE ( 'NONE',  #922 ) ;
#162 = DIRECTION ( 'NONE',  ( 1.000000000000000000, 0.000000000000000000, 0.000000000000000000 ) ) ;
#163 = DIRECTION ( 'NONE',  ( -0.000000000000000000, 1.000000000000000000, -0.000000000000000000 ) ) ;
#164 = ORIENTED_EDGE ( 'NONE', *, *, #639, .T. ) ;
#165 = EDGE_CURVE ( 'NONE', #1252, #907, #852, .T. ) ;
#166 = DIRECTION ( 'NONE',  ( 0.000000000000000000, 0.000000000000000000, -1.000000000000000000 ) ) ;
#167 = CARTESIAN_POINT ( 'NONE',  ( -2.001999053955006769, 73.70199890136700560, 2.000000000000000000 ) ) ;
#168 = DIRECTION ( 'NONE',  ( -1.000000000000000000, 0.000000000000000000, -0.000000000000000000 ) ) ;
#169 = LINE ( 'NONE', #575, #47 ) ;
#170 = FACE_OUTER_BOUND ( 'NONE', #738, .T. ) ;
#171 = EDGE_CURVE ( 'NONE', #1183, #956, #1191, .T. ) ;
#172 = FACE_OUTER_BOUND ( 'NONE', #1065, .T. ) ;
#173 = ORIENTED_EDGE ( 'NONE', *, *, #806, .T. ) ;
#174 = LINE ( 'NONE', #383, #1109 ) ;
#175 = VECTOR ( 'NONE', #883, 1000.000000000000000 ) ;
#176 = LINE ( 'NONE', #975, #27 ) ;
#177 = VECTOR ( 'NONE', #617, 1000.000000000000000 ) ;
#178 = CARTESIAN_POINT ( 'NONE',  ( 50.65800094604500003, 73.70199890136701981, 1.366666666666667140 ) ) ;
#179 = EDGE_CURVE ( 'NONE', #198, #802, #524, .T. ) ;
#180 = EDGE_LOOP ( 'NONE', ( #656, #363 ) ) ;
#181 = ORIENTED_EDGE ( 'NONE', *, *, #891, .T. ) ;
#182 = DIRECTION ( 'NONE',  ( -1.000000000000000000, 0.000000000000000000, 0.000000000000000000 ) ) ;
#183 = CARTESIAN_POINT ( 'NONE',  ( 59.65800094604500003, 64.70199890136701981, 2.100000000000000089 ) ) ;
#184 = VECTOR ( 'NONE', #1082, 1000.000000000000000 ) ;
#185 = CARTESIAN_POINT ( 'NONE',  ( 53.25478145081196146, 7.388666240755884252E-15, 2.000000000000000000 ) ) ;
#186 = CARTESIAN_POINT ( 'NONE',  ( 59.65800094604500003, 64.70199890136701981, 0.000000000000000000 ) ) ;
#187 = EDGE_CURVE ( 'NONE', #817, #761, #417, .T. ) ;
#188 = ORIENTED_EDGE ( 'NONE', *, *, #344, .T. ) ;
#189 = LINE ( 'NONE', #615, #430 ) ;
#190 = CARTESIAN_POINT ( 'NONE',  ( 4.376000946044668716, 66.72799890136695922, 2.000000000000000000 ) ) ;
#191 = DIRECTION ( 'NONE',  ( -0.000000000000000000, -0.000000000000000000, 1.000000000000000000 ) ) ;
#192 = LINE ( 'NONE', #474, #514 ) ;
#193 = ORIENTED_EDGE ( 'NONE', *, *, #1096, .F. ) ;
#194 = EDGE_CURVE ( 'NONE', #372, #868, #335, .T. ) ;
#195 = AXIS2_PLACEMENT_3D ( 'NONE', #794, #801, #1199 ) ;
#196 = CARTESIAN_POINT ( 'NONE',  ( 4.998000946045008774, 4.501998901366989436, 2.000000000000000000 ) ) ;
#197 = CARTESIAN_POINT ( 'NONE',  ( 4.376000946044668716, 66.72799890136695922, -36.02814615619893601 ) ) ;
#198 = VERTEX_POINT ( 'NONE', #445 ) ;
#199 = APPLICATION_CONTEXT ( 'automotive_design' ) ;
#200 =( NAMED_UNIT ( * ) SI_UNIT ( $, .STERADIAN. ) SOLID_ANGLE_UNIT ( ) );
#201 =( NAMED_UNIT ( * ) SI_UNIT ( $, .STERADIAN. ) SOLID_ANGLE_UNIT ( ) );
#202 = DIRECTION ( 'NONE',  ( -0.000000000000000000, 0.000000000000000000, 1.000000000000000000 ) ) ;
#203 = CARTESIAN_POINT ( 'NONE',  ( 23.98644712270021273, 65.12986164836351577, 2.000000000000000000 ) ) ;
#204 = ORIENTED_EDGE ( 'NONE', *, *, #115, .T. ) ;
#205 = ORIENTED_EDGE ( 'NONE', *, *, #1227, .T. ) ;
#206 = CARTESIAN_POINT ( 'NONE',  ( 33.46530128803042459, 65.12986164836351577, 5.000000000000000000 ) ) ;
#207 = EDGE_CURVE ( 'NONE', #668, #513, #729, .T. ) ;
#208 = DIRECTION ( 'NONE',  ( -1.000000000000000000, 0.000000000000000000, -0.000000000000000000 ) ) ;
#209 = LINE ( 'NONE', #1135, #1215 ) ;
#210 = VERTEX_POINT ( 'NONE', #347 ) ;
#211 = CARTESIAN_POINT ( 'NONE',  ( 53.05264674755989063, 3.205038549915393276, 2.000000000000000000 ) ) ;
#212 = EDGE_LOOP ( 'NONE', ( #584, #850, #589, #1168 ) ) ;
#213 = DIRECTION ( 'NONE',  ( -1.000000000000000000, 0.000000000000000000, 0.000000000000000000 ) ) ;
#214 = CARTESIAN_POINT ( 'NONE',  ( 4.998000946045008774, -2.498001098633010120, 2.000000000000000000 ) ) ;
#215 = CARTESIAN_POINT ( 'NONE',  ( 23.98644712270021273, 55.06052811971416361, 5.000000000000000000 ) ) ;
#216 = AXIS2_PLACEMENT_3D ( 'NONE', #829, #1131, #328 ) ;
#217 = EDGE_LOOP ( 'NONE', ( #1174, #608 ) ) ;
#218 = DIRECTION ( 'NONE',  ( 0.000000000000000000, 0.000000000000000000, -1.000000000000000000 ) ) ;
#219 = ORIENTED_EDGE ( 'NONE', *, *, #1260, .T. ) ;
#220 = SHAPE_DEFINITION_REPRESENTATION ( #256, #252 ) ;
#221 = CARTESIAN_POINT ( 'NONE',  ( 23.59274383753431792, 15.07248610966331803, 0.000000000000000000 ) ) ;
#222 = ORIENTED_EDGE ( 'NONE', *, *, #171, .T. ) ;
#223 = CARTESIAN_POINT ( 'NONE',  ( 50.65800094604498582, 73.70199890136701981, 0.6666666666666666297 ) ) ;
#224 = EDGE_CURVE ( 'NONE', #1259, #1112, #236, .T. ) ;
#225 = AXIS2_PLACEMENT_3D ( 'NONE', #682, #367, #387 ) ;
#226 = VERTEX_POINT ( 'NONE', #845 ) ;
#227 = CARTESIAN_POINT ( 'NONE',  ( 4.998000946045022985, -2.498001098633010120, 2.000000000000000000 ) ) ;
#228 = DIRECTION ( 'NONE',  ( 0.000000000000000000, -1.000000000000000000, 0.000000000000000000 ) ) ;
#229 = CARTESIAN_POINT ( 'NONE',  ( 59.65800094604500003, 73.70199890136701981, 2.000000000000000000 ) ) ;
#230 = EDGE_LOOP ( 'NONE', ( #616, #164, #1145, #1200 ) ) ;
#231 = CYLINDRICAL_SURFACE ( 'NONE', #391, 1.100000000000001199 ) ;
#232 = EDGE_CURVE ( 'NONE', #350, #882, #250, .T. ) ;
#233 = ORIENTED_EDGE ( 'NONE', *, *, #943, .T. ) ;
#234 = DIRECTION ( 'NONE',  ( 0.000000000000000000, -0.000000000000000000, 1.000000000000000000 ) ) ;
#235 = AXIS2_PLACEMENT_3D ( 'NONE', #130, #733, #994 ) ;
#236 = LINE ( 'NONE', #1143, #505 ) ;
#237 = DIRECTION ( 'NONE',  ( 0.000000000000000000, 0.000000000000000000, 1.000000000000000000 ) ) ;
#238 = ORIENTED_EDGE ( 'NONE', *, *, #156, .T. ) ;
#239 = FACE_OUTER_BOUND ( 'NONE', #453, .T. ) ;
#240 = CIRCLE ( 'NONE', #478, 1.099999999999996758 ) ;
#241 = CIRCLE ( 'NONE', #1155, 1.099999999999996758 ) ;
#242 = ORIENTED_EDGE ( 'NONE', *, *, #740, .F. ) ;
#243 = CARTESIAN_POINT ( 'NONE',  ( 54.15264674755988494, 3.205038549915393276, 2.000000000000000000 ) ) ;
#244 = EDGE_CURVE ( 'NONE', #264, #447, #743, .T. ) ;
#245 = DIRECTION ( 'NONE',  ( 1.000000000000000000, 2.461698088679381068E-16, -0.000000000000000000 ) ) ;
#246 = ORIENTED_EDGE ( 'NONE', *, *, #1294, .T. ) ;
#247 = ORIENTED_EDGE ( 'NONE', *, *, #394, .T. ) ;
#248 = DIRECTION ( 'NONE',  ( 0.000000000000000000, -0.000000000000000000, -1.000000000000000000 ) ) ;
#249 = ADVANCED_FACE ( 'NONE', ( #60 ), #73, .F. ) ;
#250 = LINE ( 'NONE', #1262, #1248 ) ;
#251 = FACE_OUTER_BOUND ( 'NONE', #932, .T. ) ;
#252 = ADVANCED_BREP_SHAPE_REPRESENTATION ( 'cubit3_bottom_enclosure', ( #402, #940 ), #816 ) ;
#253 = ORIENTED_EDGE ( 'NONE', *, *, #815, .T. ) ;
#254 = CARTESIAN_POINT ( 'NONE',  ( 13.87724180426212683, 15.07248610966331803, 5.000000000000000000 ) ) ;
#255 = ORIENTED_EDGE ( 'NONE', *, *, #83, .F. ) ;
#256 = PRODUCT_DEFINITION_SHAPE ( 'NONE', 'NONE',  #712 ) ;
#257 = CARTESIAN_POINT ( 'NONE',  ( 43.57797558682614891, 54.89351411270024528, 5.000000000000000000 ) ) ;
#258 = CARTESIAN_POINT ( 'NONE',  ( 59.65800094604500003, 64.70199890136701981, 0.6666666666666666297 ) ) ;
#259 = EDGE_LOOP ( 'NONE', ( #460, #33, #149, #54 ) ) ;
#260 = DIRECTION ( 'NONE',  ( -0.000000000000000000, -0.000000000000000000, 1.000000000000000000 ) ) ;
#261 = CIRCLE ( 'NONE', #235, 6.999999999999999112 ) ;
#262 = EDGE_CURVE ( 'NONE', #124, #1311, #1268, .T. ) ;
#263 = AXIS2_PLACEMENT_3D ( 'NONE', #767, #1169, #45 ) ;
#264 = VERTEX_POINT ( 'NONE', #287 ) ;
#265 = VECTOR ( 'NONE', #309, 1000.000000000000000 ) ;
#266 = VECTOR ( 'NONE', #742, 1000.000000000000000 ) ;
#267 = CARTESIAN_POINT ( 'NONE',  ( 33.65029304469298665, 0.000000000000000000, 2.000000000000000000 ) ) ;
#268 = CARTESIAN_POINT ( 'NONE',  ( 23.98644712270021273, 55.06052811971416361, 0.000000000000000000 ) ) ;
#269 = EDGE_LOOP ( 'NONE', ( #82, #222, #887, #1048, #1161, #854, #968, #741 ) ) ;
#270 = DIRECTION ( 'NONE',  ( -0.000000000000000000, 0.000000000000000000, 1.000000000000000000 ) ) ;
#271 = ORIENTED_EDGE ( 'NONE', *, *, #1136, .T. ) ;
#272 = ADVANCED_FACE ( 'NONE', ( #172 ), #79, .F. ) ;
#273 = DIRECTION ( 'NONE',  ( -0.000000000000000000, -0.000000000000000000, 1.000000000000000000 ) ) ;
#274 = VECTOR ( 'NONE', #162, 1000.000000000000000 ) ;
#275 = PLANE ( 'NONE',  #1164 ) ;
#276 = ORIENTED_EDGE ( 'NONE', *, *, #449, .F. ) ;
#277 = VERTEX_POINT ( 'NONE', #893 ) ;
#278 = DIRECTION ( 'NONE',  ( 0.000000000000000000, 0.000000000000000000, -1.000000000000000000 ) ) ;
#279 = CARTESIAN_POINT ( 'NONE',  ( 53.30600094604466221, 66.57499890136696763, 0.000000000000000000 ) ) ;
#280 = LINE ( 'NONE', #185, #1034 ) ;
#281 = DIRECTION ( 'NONE',  ( 1.000000000000000000, 0.000000000000000000, 0.000000000000000000 ) ) ;
#282 = ORIENTED_EDGE ( 'NONE', *, *, #59, .F. ) ;
#283 = VECTOR ( 'NONE', #364, 1000.000000000000000 ) ;
#284 = LINE ( 'NONE', #692, #688 ) ;
#285 = VECTOR ( 'NONE', #1058, 1000.000000000000000 ) ;
#286 = VECTOR ( 'NONE', #928, 1000.000000000000000 ) ;
#287 = CARTESIAN_POINT ( 'NONE',  ( 52.65800094604500714, -2.498001098632998573, 0.000000000000000000 ) ) ;
#288 = EDGE_CURVE ( 'NONE', #956, #824, #95, .T. ) ;
#289 = ORIENTED_EDGE ( 'NONE', *, *, #933, .T. ) ;
#290 = CARTESIAN_POINT ( 'NONE',  ( 53.05264674755989063, 3.205038549915393276, -36.02814615619893601 ) ) ;
#291 = ORIENTED_EDGE ( 'NONE', *, *, #440, .F. ) ;
#292 = DIRECTION ( 'NONE',  ( 0.000000000000000000, 0.000000000000000000, -1.000000000000000000 ) ) ;
#293 = FACE_OUTER_BOUND ( 'NONE', #1079, .T. ) ;
#294 = STYLED_ITEM ( 'NONE', ( #1312 ), #402 ) ;
#295 = ADVANCED_FACE ( 'NONE', ( #381 ), #275, .F. ) ;
#296 = CARTESIAN_POINT ( 'NONE',  ( 4.998000946044994564, 66.70199890136699139, 2.000000000000000000 ) ) ;
#297 = DIRECTION ( 'NONE',  ( 1.000000000000000000, 0.000000000000000000, 0.000000000000000000 ) ) ;
#298 = ADVANCED_FACE ( 'NONE', ( #1290 ), #977, .T. ) ;
#299 = ORIENTED_EDGE ( 'NONE', *, *, #311, .F. ) ;
#300 = CARTESIAN_POINT ( 'NONE',  ( 55.17822106540132410, 72.50835338804098740, 1.999999999999999556 ) ) ;
#301 = CARTESIAN_POINT ( 'NONE',  ( -2.001999053955005436, 66.70199890136699139, 2.000000000000000000 ) ) ;
#302 = ORIENTED_EDGE ( 'NONE', *, *, #194, .F. ) ;
#303 = EDGE_LOOP ( 'NONE', ( #247, #974, #299, #1012 ) ) ;
#304 = B_SPLINE_CURVE_WITH_KNOTS ( 'NONE', 3,
 ( #426, #1226, #223, #1032 ),
 .UNSPECIFIED., .F., .F.,
 ( 4, 4 ),
 ( 0.000000000000000000, 1.000000000000000000 ),
 .UNSPECIFIED. ) ;
#305 = AXIS2_PLACEMENT_3D ( 'NONE', #997, #468, #297 ) ;
#306 = VECTOR ( 'NONE', #1310, 1000.000000000000000 ) ;
#307 = CARTESIAN_POINT ( 'NONE',  ( 23.59274383753431792, 15.07248610966331803, 5.000000000000000000 ) ) ;
#308 = VECTOR ( 'NONE', #950, 1000.000000000000000 ) ;
#309 = DIRECTION ( 'NONE',  ( -0.000000000000000000, -0.000000000000000000, 1.000000000000000000 ) ) ;
#310 = VERTEX_POINT ( 'NONE', #770 ) ;
#311 = EDGE_CURVE ( 'NONE', #747, #343, #1184, .T. ) ;
#312 = EDGE_LOOP ( 'NONE', ( #40, #1266, #463, #875 ) ) ;
#313 = DIRECTION ( 'NONE',  ( -0.000000000000000000, 0.000000000000000000, 1.000000000000000000 ) ) ;
#314 = DIRECTION ( 'NONE',  ( -1.000000000000000000, -2.461698088679381068E-16, 0.000000000000000000 ) ) ;
#315 = VERTEX_POINT ( 'NONE', #1196 ) ;
#316 = CARTESIAN_POINT ( 'NONE',  ( 43.57797558682614891, 54.89351411270024528, 5.000000000000000000 ) ) ;
#317 = CARTESIAN_POINT ( 'NONE',  ( 33.65029304469298665, 4.927887692425605870, 5.000000000000000000 ) ) ;
#318 = CARTESIAN_POINT ( 'NONE',  ( 2.176000946044666318, 66.72799890136695922, -36.02814615619893601 ) ) ;
#319 = DIRECTION ( 'NONE',  ( 0.000000000000000000, 0.000000000000000000, -1.000000000000000000 ) ) ;
#320 = ORIENTED_EDGE ( 'NONE', *, *, #721, .T. ) ;
#321 = FACE_OUTER_BOUND ( 'NONE', #490, .T. ) ;
#322 = CARTESIAN_POINT ( 'NONE',  ( 33.65029304469298665, 4.927887692425605870, 5.000000000000000000 ) ) ;
#323 = AXIS2_PLACEMENT_3D ( 'NONE', #519, #105, #705 ) ;
#324 = CARTESIAN_POINT ( 'NONE',  ( 58.46435543271896762, 69.22221902070501187, -0.000000000000000000 ) ) ;
#325 = PLANE ( 'NONE',  #475 ) ;
#326 = AXIS2_PLACEMENT_3D ( 'NONE', #1149, #1144, #432 ) ;
#327 = ORIENTED_EDGE ( 'NONE', *, *, #933, .F. ) ;
#328 = DIRECTION ( 'NONE',  ( -1.000000000000000000, 0.000000000000000000, 0.000000000000000000 ) ) ;
#329 =( LENGTH_UNIT ( ) NAMED_UNIT ( * ) SI_UNIT ( .MILLI., .METRE. ) );
#330 = DIRECTION ( 'NONE',  ( 1.000000000000000000, 1.778901277296108290E-16, 0.000000000000000000 ) ) ;
#331 = LINE ( 'NONE', #635, #564 ) ;
#332 = ADVANCED_FACE ( 'NONE', ( #1089 ), #600, .T. ) ;
#333 = VERTEX_POINT ( 'NONE', #279 ) ;
#334 = PLANE ( 'NONE',  #792 ) ;
#335 = CIRCLE ( 'NONE', #1076, 7.000000000000000000 ) ;
#336 = ADVANCED_FACE ( 'NONE', ( #459 ), #879, .T. ) ;
#337 = ORIENTED_EDGE ( 'NONE', *, *, #179, .T. ) ;
#338 = FACE_OUTER_BOUND ( 'NONE', #520, .T. ) ;
#339 = CARTESIAN_POINT ( 'NONE',  ( 4.998000946044994564, 66.70199890136699139, 0.000000000000000000 ) ) ;
#340 = DIRECTION ( 'NONE',  ( 1.000000000000000000, 0.000000000000000000, 0.000000000000000000 ) ) ;
#341 = ORIENTED_EDGE ( 'NONE', *, *, #483, .F. ) ;
#342 = CARTESIAN_POINT ( 'NONE',  ( 13.87724180426212861, 4.981564326187250202, 5.000000000000000000 ) ) ;
#343 = VERTEX_POINT ( 'NONE', #871 ) ;
#344 = EDGE_CURVE ( 'NONE', #1020, #124, #866, .T. ) ;
#345 = CARTESIAN_POINT ( 'NONE',  ( 33.65029304469298665, 4.927887692425605870, 0.000000000000000000 ) ) ;
#346 = VECTOR ( 'NONE', #938, 1000.000000000000000 ) ;
#347 = CARTESIAN_POINT ( 'NONE',  ( 4.122021903402160348, 3.380005767011427409, 0.000000000000000000 ) ) ;
#348 = LINE ( 'NONE', #558, #1004 ) ;
#349 = CIRCLE ( 'NONE', #431, 1.100000000000001199 ) ;
#350 = VERTEX_POINT ( 'NONE', #1274 ) ;
#351 = FACE_OUTER_BOUND ( 'NONE', #1018, .T. ) ;
#352 = AXIS2_PLACEMENT_3D ( 'NONE', #864, #1267, #248 ) ;
#353 = ORIENTED_EDGE ( 'NONE', *, *, #1015, .T. ) ;
#354 = ADVANCED_FACE ( 'NONE', ( #1179 ), #886, .F. ) ;
#355 = CARTESIAN_POINT ( 'NONE',  ( 52.65800094604500714, -2.498001098632998573, 2.000000000000000000 ) ) ;
#356 = DIRECTION ( 'NONE',  ( -0.000000000000000000, -0.000000000000000000, 1.000000000000000000 ) ) ;
#357 = DIRECTION ( 'NONE',  ( -9.106159978880878627E-17, 1.000000000000000000, -0.000000000000000000 ) ) ;
#358 = ORIENTED_EDGE ( 'NONE', *, *, #262, .F. ) ;
#359 = LINE ( 'NONE', #342, #110 ) ;
#360 = ORIENTED_EDGE ( 'NONE', *, *, #1126, .F. ) ;
#361 = AXIS2_PLACEMENT_3D ( 'NONE', #466, #764, #1280 ) ;
#362 = CARTESIAN_POINT ( 'NONE',  ( 43.40393525603455771, 0.000000000000000000, 2.000000000000000000 ) ) ;
#363 = ORIENTED_EDGE ( 'NONE', *, *, #504, .F. ) ;
#364 = DIRECTION ( 'NONE',  ( 0.000000000000000000, 0.000000000000000000, -1.000000000000000000 ) ) ;
#365 = VERTEX_POINT ( 'NONE', #1008 ) ;
#366 = CARTESIAN_POINT ( 'NONE',  ( 43.40393525603455771, 15.07248610966331803, 5.000000000000000000 ) ) ;
#367 = DIRECTION ( 'NONE',  ( 0.000000000000000000, -1.000000000000000000, 0.000000000000000000 ) ) ;
#368 = ADVANCED_FACE ( 'NONE', ( #293 ), #1229, .T. ) ;
#369 = ORIENTED_EDGE ( 'NONE', *, *, #179, .F. ) ;
#370 = DIRECTION ( 'NONE',  ( 1.000000000000000000, 0.000000000000000000, 0.000000000000000000 ) ) ;
#371 = CIRCLE ( 'NONE', #159, 1.100000000000000089 ) ;
#372 = VERTEX_POINT ( 'NONE', #96 ) ;
#373 = AXIS2_PLACEMENT_3D ( 'NONE', #969, #386, #892 ) ;
#374 = LINE ( 'NONE', #1279, #456 ) ;
#375 = DIRECTION ( 'NONE',  ( 1.000000000000000000, 2.105799495116202281E-16, -0.000000000000000000 ) ) ;
#376 = ORIENTED_EDGE ( 'NONE', *, *, #83, .T. ) ;
#377 = DIRECTION ( 'NONE',  ( -0.000000000000000000, -0.000000000000000000, 1.000000000000000000 ) ) ;
#378 = VERTEX_POINT ( 'NONE', #190 ) ;
#379 = EDGE_CURVE ( 'NONE', #277, #1137, #1000, .T. ) ;
#380 = PLANE ( 'NONE',  #774 ) ;
#381 = FACE_OUTER_BOUND ( 'NONE', #1031, .T. ) ;
#382 = ORIENTED_EDGE ( 'NONE', *, *, #429, .F. ) ;
#383 = CARTESIAN_POINT ( 'NONE',  ( 33.65029304469298665, 4.927887692425605870, 0.000000000000000000 ) ) ;
#384 = VERTEX_POINT ( 'NONE', #703 ) ;
#385 = EDGE_CURVE ( 'NONE', #824, #365, #496, .T. ) ;
#386 = DIRECTION ( 'NONE',  ( -0.000000000000000000, -0.000000000000000000, 1.000000000000000000 ) ) ;
#387 = DIRECTION ( 'NONE',  ( 0.000000000000000000, -0.000000000000000000, -1.000000000000000000 ) ) ;
#388 = VERTEX_POINT ( 'NONE', #604 ) ;
#389 = FACE_OUTER_BOUND ( 'NONE', #873, .T. ) ;
#390 = VERTEX_POINT ( 'NONE', #904 ) ;
#391 = AXIS2_PLACEMENT_3D ( 'NONE', #1053, #547, #967 ) ;
#392 = DIRECTION ( 'NONE',  ( 1.000000000000000000, -0.000000000000000000, 0.000000000000000000 ) ) ;
#393 = AXIS2_PLACEMENT_3D ( 'NONE', #759, #744, #147 ) ;
#394 = EDGE_CURVE ( 'NONE', #1071, #563, #1107, .T. ) ;
#395 = CARTESIAN_POINT ( 'NONE',  ( 3.276000946044667295, 66.72799890136695922, 0.000000000000000000 ) ) ;
#396 = CARTESIAN_POINT ( 'NONE',  ( 2.654248678619039752E-15, 15.07248610966332514, 2.000000000000000000 ) ) ;
#397 = ORIENTED_EDGE ( 'NONE', *, *, #1302, .F. ) ;
#398 = CARTESIAN_POINT ( 'NONE',  ( 59.65800094604500714, 65.89522085300855281, 1.999999999999999556 ) ) ;
#399 = ADVANCED_FACE ( 'NONE', ( #1103 ), #1213, .T. ) ;
#400 = CARTESIAN_POINT ( 'NONE',  ( 59.65800094604500714, 4.501998901367001871, 2.000000000000000000 ) ) ;
#401 = ORIENTED_EDGE ( 'NONE', *, *, #148, .T. ) ;
#402 = MANIFOLD_SOLID_BREP ( 'Cut-Extrude4', #461 ) ;
#403 = ORIENTED_EDGE ( 'NONE', *, *, #1106, .F. ) ;
#404 = SURFACE_STYLE_USAGE ( .BOTH. , #611 ) ;
#405 = CARTESIAN_POINT ( 'NONE',  ( 4.125584991616801034, 65.11340853431774178, 0.000000000000000000 ) ) ;
#406 = LINE ( 'NONE', #418, #602 ) ;
#407 = EDGE_CURVE ( 'NONE', #907, #1311, #720, .T. ) ;
#408 = VERTEX_POINT ( 'NONE', #409 ) ;
#409 = CARTESIAN_POINT ( 'NONE',  ( 53.25478145081196146, 15.07248610966331626, 0.000000000000000000 ) ) ;
#410 = DIRECTION ( 'NONE',  ( -0.000000000000000000, -0.000000000000000000, 1.000000000000000000 ) ) ;
#411 = CARTESIAN_POINT ( 'NONE',  ( 59.65800094604500714, -2.498001098632996797, 2.000000000000000000 ) ) ;
#412 = ORIENTED_EDGE ( 'NONE', *, *, #1195, .T. ) ;
#413 = CARTESIAN_POINT ( 'NONE',  ( 43.40393525603455771, 15.07248610966331803, 5.000000000000000000 ) ) ;
#414 = ADVANCED_FACE ( 'NONE', ( #85 ), #818, .T. ) ;
#415 = CARTESIAN_POINT ( 'NONE',  ( 57.86630211824153491, 70.22089005834077113, 2.000000000000000000 ) ) ;
#416 = DIRECTION ( 'NONE',  ( -0.000000000000000000, -0.000000000000000000, 1.000000000000000000 ) ) ;
#417 = CIRCLE ( 'NONE', #783, 1.100000000000000311 ) ;
#418 = CARTESIAN_POINT ( 'NONE',  ( 4.125584991616801034, 65.11340853431774178, 0.000000000000000000 ) ) ;
#419 = ORIENTED_EDGE ( 'NONE', *, *, #775, .F. ) ;
#420 = CARTESIAN_POINT ( 'NONE',  ( 54.40600094604466364, 66.57499890136696763, -36.02814615619893601 ) ) ;
#421 = ORIENTED_EDGE ( 'NONE', *, *, #394, .F. ) ;
#422 = EDGE_CURVE ( 'NONE', #930, #1269, #715, .T. ) ;
#423 = CARTESIAN_POINT ( 'NONE',  ( -2.681246479250792545E-15, 15.07248610966331626, 2.000000000000000000 ) ) ;
#424 = LINE ( 'NONE', #301, #562 ) ;
#425 = ORIENTED_EDGE ( 'NONE', *, *, #670, .F. ) ;
#426 = CARTESIAN_POINT ( 'NONE',  ( 50.65800094604500003, 73.70199890136701981, 2.000000000000000000 ) ) ;
#427 = CARTESIAN_POINT ( 'NONE',  ( 0.000000000000000000, 0.000000000000000000, 0.000000000000000000 ) ) ;
#428 = FACE_OUTER_BOUND ( 'NONE', #599, .T. ) ;
#429 = EDGE_CURVE ( 'NONE', #531, #447, #540, .T. ) ;
#430 = VECTOR ( 'NONE', #1102, 1000.000000000000000 ) ;
#431 = AXIS2_PLACEMENT_3D ( 'NONE', #69, #985, #370 ) ;
#432 = DIRECTION ( 'NONE',  ( -1.000000000000000000, 0.000000000000000000, 0.000000000000000000 ) ) ;
#433 = AXIS2_PLACEMENT_3D ( 'NONE', #1257, #237, #1263 ) ;
#434 = AXIS2_PLACEMENT_3D ( 'NONE', #257, #470, #278 ) ;
#435 = ORIENTED_EDGE ( 'NONE', *, *, #288, .F. ) ;
#436 = ORIENTED_EDGE ( 'NONE', *, *, #1015, .F. ) ;
#437 = PLANE ( 'NONE',  #160 ) ;
#438 = DIRECTION ( 'NONE',  ( 0.000000000000000000, 0.000000000000000000, -1.000000000000000000 ) ) ;
#439 = CYLINDRICAL_SURFACE ( 'NONE', #772, 1.100000000000000311 ) ;
#440 = EDGE_CURVE ( 'NONE', #793, #35, #632, .T. ) ;
#441 = ORIENTED_EDGE ( 'NONE', *, *, #1182, .F. ) ;
#442 = AXIS2_PLACEMENT_3D ( 'NONE', #196, #908, #1307 ) ;
#443 = ORIENTED_EDGE ( 'NONE', *, *, #30, .T. ) ;
#444 = DIRECTION ( 'NONE',  ( -1.000000000000000000, 0.000000000000000000, -0.000000000000000000 ) ) ;
#445 = CARTESIAN_POINT ( 'NONE',  ( 55.50600094604465795, 66.57499890136696763, 2.000000000000000000 ) ) ;
#446 = LINE ( 'NONE', #229, #515 ) ;
#447 = VERTEX_POINT ( 'NONE', #355 ) ;
#448 = CARTESIAN_POINT ( 'NONE',  ( 23.59274383753431792, 15.07248610966331803, 5.000000000000000000 ) ) ;
#449 = EDGE_CURVE ( 'NONE', #930, #1071, #549, .T. ) ;
#450 = ORIENTED_EDGE ( 'NONE', *, *, #550, .T. ) ;
#451 = CARTESIAN_POINT ( 'NONE',  ( 3.022021903402160259, 3.380005767011427409, 2.000000000000000000 ) ) ;
#452 = CARTESIAN_POINT ( 'NONE',  ( 33.65029304469298665, 4.927887692425605870, 2.000000000000000000 ) ) ;
#453 = EDGE_LOOP ( 'NONE', ( #1040, #282, #1052, #621 ) ) ;
#454 = VECTOR ( 'NONE', #43, 1000.000000000000000 ) ;
#455 = CARTESIAN_POINT ( 'NONE',  ( 54.40600094604466364, 66.57499890136696763, 2.000000000000000000 ) ) ;
#456 = VECTOR ( 'NONE', #479, 1000.000000000000000 ) ;
#457 = ORIENTED_EDGE ( 'NONE', *, *, #232, .T. ) ;
#458 = PLANE ( 'NONE',  #352 ) ;
#459 = FACE_OUTER_BOUND ( 'NONE', #890, .T. ) ;
#460 = ORIENTED_EDGE ( 'NONE', *, *, #731, .T. ) ;
#461 = CLOSED_SHELL ( 'NONE', ( #1039, #1007, #865, #1056, #497, #104, #354, #249, #1072, #295, #67, #399, #1050, #332, #897, #809, #272, #1273, #530, #903, #336, #542, #905, #872, #368, #1033, #14, #653, #601, #21, #578, #644, #414, #298, #686, #763, #57, #856 ) ) ;
#462 = FACE_OUTER_BOUND ( 'NONE', #862, .T. ) ;
#463 = ORIENTED_EDGE ( 'NONE', *, *, #707, .F. ) ;
#464 = PLANE ( 'NONE',  #1090 ) ;
#465 = EDGE_CURVE ( 'NONE', #333, #802, #831, .T. ) ;
#466 = CARTESIAN_POINT ( 'NONE',  ( 13.87724180426212683, 15.07248610966331803, 5.000000000000000000 ) ) ;
#467 = ORIENTED_EDGE ( 'NONE', *, *, #863, .F. ) ;
#468 = DIRECTION ( 'NONE',  ( -0.000000000000000000, -0.000000000000000000, 1.000000000000000000 ) ) ;
#469 = ORIENTED_EDGE ( 'NONE', *, *, #125, .T. ) ;
#470 = DIRECTION ( 'NONE',  ( 1.000000000000000000, -0.000000000000000000, 0.000000000000000000 ) ) ;
#471 = EDGE_CURVE ( 'NONE', #776, #706, #241, .T. ) ;
#472 = CARTESIAN_POINT ( 'NONE',  ( 59.65800094604500003, 64.70199890136701981, 0.6333333333333334147 ) ) ;
#473 = ORIENTED_EDGE ( 'NONE', *, *, #94, .F. ) ;
#474 = CARTESIAN_POINT ( 'NONE',  ( 13.71247529139376198, 65.11340853431774178, 5.000000000000000000 ) ) ;
#475 = AXIS2_PLACEMENT_3D ( 'NONE', #411, #527, #314 ) ;
#476 = VECTOR ( 'NONE', #820, 1000.000000000000000 ) ;
#477 = VERTEX_POINT ( 'NONE', #126 ) ;
#478 = AXIS2_PLACEMENT_3D ( 'NONE', #1133, #533, #851 ) ;
#479 = DIRECTION ( 'NONE',  ( -1.000000000000000000, 0.000000000000000000, 0.000000000000000000 ) ) ;
#480 = DIRECTION ( 'NONE',  ( -0.000000000000000000, 1.000000000000000000, -0.000000000000000000 ) ) ;
#481 = ORIENTED_EDGE ( 'NONE', *, *, #1308, .T. ) ;
#482 = CARTESIAN_POINT ( 'NONE',  ( 54.15264674755988494, 3.205038549915393276, 0.000000000000000000 ) ) ;
#483 = EDGE_CURVE ( 'NONE', #954, #927, #132, .T. ) ;
#484 = ORIENTED_EDGE ( 'NONE', *, *, #288, .T. ) ;
#485 = AXIS2_PLACEMENT_3D ( 'NONE', #296, #1104, #716 ) ;
#486 = DIRECTION ( 'NONE',  ( -1.000000000000000000, -1.387418376241074944E-16, 0.000000000000000000 ) ) ;
#487 = CARTESIAN_POINT ( 'NONE',  ( 59.65800094604500003, 73.70199890136701981, 2.000000000000000000 ) ) ;
#488 = DIRECTION ( 'NONE',  ( 0.000000000000000000, -1.000000000000000000, 0.000000000000000000 ) ) ;
#489 = DIRECTION ( 'NONE',  ( 2.105799495116202281E-16, -1.000000000000000000, -0.000000000000000000 ) ) ;
#490 = EDGE_LOOP ( 'NONE', ( #566, #75, #939, #1147 ) ) ;
#491 = EDGE_CURVE ( 'NONE', #1286, #1060, #934, .T. ) ;
#492 = CARTESIAN_POINT ( 'NONE',  ( 4.998000946044994564, 66.70199890136699139, 2.000000000000000000 ) ) ;
#493 = DIRECTION ( 'NONE',  ( -1.000000000000000000, 0.000000000000000000, -0.000000000000000000 ) ) ;
#494 = ORIENTED_EDGE ( 'NONE', *, *, #571, .T. ) ;
#495 = DIRECTION ( 'NONE',  ( -0.000000000000000000, -0.000000000000000000, 1.000000000000000000 ) ) ;
#496 = B_SPLINE_CURVE_WITH_KNOTS ( 'NONE', 3,
 ( #503, #398, #825, #1118, #415, #1014, #109, #300, #509, #698, #899, #103 ),
 .UNSPECIFIED., .F., .F.,
 ( 4, 2, 2, 2, 2, 4 ),
 ( 0.000000000000000000, 0.2500000000000003331, 0.5000000000000006661, 0.6250000000000008882, 0.7500000000000009992, 1.000000000000000000 ),
 .UNSPECIFIED. ) ;
#497 = ADVANCED_FACE ( 'NONE', ( #29, #626, #41, #942, #36, #146 ), #119, .F. ) ;
#498 = EDGE_CURVE ( 'NONE', #1112, #1060, #523, .T. ) ;
#499 = CARTESIAN_POINT ( 'NONE',  ( 43.57797558682614891, 54.89351411270024528, 0.000000000000000000 ) ) ;
#500 = CARTESIAN_POINT ( 'NONE',  ( 43.57797558682614891, 65.08547442474340983, 0.000000000000000000 ) ) ;
#501 = EDGE_LOOP ( 'NONE', ( #204, #607, #1091, #1175 ) ) ;
#502 = APPLICATION_PROTOCOL_DEFINITION ( 'draft international standard', 'automotive_design', 1998, #199 ) ;
#503 = CARTESIAN_POINT ( 'NONE',  ( 59.65800094604500003, 64.70199890136701981, 2.000000000000000000 ) ) ;
#504 = EDGE_CURVE ( 'NONE', #706, #776, #240, .T. ) ;
#505 = VECTOR ( 'NONE', #438, 1000.000000000000000 ) ;
#506 = CARTESIAN_POINT ( 'NONE',  ( 13.71247529139376198, 65.11340853431774178, 5.000000000000000000 ) ) ;
#507 = DIRECTION ( 'NONE',  ( -0.000000000000000000, -0.000000000000000000, 1.000000000000000000 ) ) ;
#508 = EDGE_LOOP ( 'NONE', ( #1301, #435, #118, #1006 ) ) ;
#509 = CARTESIAN_POINT ( 'NONE',  ( 54.66178664727917891, 72.78448054597899386, 1.999999999999999556 ) ) ;
#510 = DIRECTION ( 'NONE',  ( 1.000000000000000000, 0.000000000000000000, 0.000000000000000000 ) ) ;
#511 = ORIENTED_EDGE ( 'NONE', *, *, #945, .T. ) ;
#512 = CARTESIAN_POINT ( 'NONE',  ( 23.59274383753431792, 4.981564326187250202, 5.000000000000000000 ) ) ;
#513 = VERTEX_POINT ( 'NONE', #20 ) ;
#514 = VECTOR ( 'NONE', #1092, 1000.000000000000000 ) ;
#515 = VECTOR ( 'NONE', #946, 1000.000000000000000 ) ;
#516 = VECTOR ( 'NONE', #585, 1000.000000000000000 ) ;
#517 = DIRECTION ( 'NONE',  ( 1.000000000000000000, -0.000000000000000000, 0.000000000000000000 ) ) ;
#518 = CARTESIAN_POINT ( 'NONE',  ( 13.71247529139376198, 65.11340853431774178, 0.000000000000000000 ) ) ;
#519 = CARTESIAN_POINT ( 'NONE',  ( 52.65800094604500714, 4.501998901367001871, 2.000000000000000000 ) ) ;
#520 = EDGE_LOOP ( 'NONE', ( #993, #896, #843, #467 ) ) ;
#521 = CARTESIAN_POINT ( 'NONE',  ( 4.122021903402160348, 3.380005767011427409, 2.000000000000000000 ) ) ;
#522 = EDGE_LOOP ( 'NONE', ( #55, #412 ) ) ;
#523 = LINE ( 'NONE', #345, #286 ) ;
#524 = CIRCLE ( 'NONE', #99, 1.099999999999996758 ) ;
#525 = CYLINDRICAL_SURFACE ( 'NONE', #485, 7.000000000000000000 ) ;
#526 = VECTOR ( 'NONE', #1021, 1000.000000000000000 ) ;
#527 = DIRECTION ( 'NONE',  ( -2.461698088679381068E-16, 1.000000000000000000, 0.000000000000000000 ) ) ;
#528 = ORIENTED_EDGE ( 'NONE', *, *, #1148, .T. ) ;
#529 = FACE_OUTER_BOUND ( 'NONE', #1305, .T. ) ;
#530 = ADVANCED_FACE ( 'NONE', ( #428 ), #1242, .T. ) ;
#531 = VERTEX_POINT ( 'NONE', #227 ) ;
#532 = EDGE_CURVE ( 'NONE', #35, #77, #957, .T. ) ;
#533 = DIRECTION ( 'NONE',  ( 0.000000000000000000, 0.000000000000000000, 1.000000000000000000 ) ) ;
#534 = LINE ( 'NONE', #16, #655 ) ;
#535 = CARTESIAN_POINT ( 'NONE',  ( 3.022021903402160259, 3.380005767011427409, -36.02814615619893601 ) ) ;
#536 = ORIENTED_EDGE ( 'NONE', *, *, #1148, .F. ) ;
#537 = LINE ( 'NONE', #413, #346 ) ;
#538 = ORIENTED_EDGE ( 'NONE', *, *, #244, .F. ) ;
#539 = VECTOR ( 'NONE', #926, 1000.000000000000000 ) ;
#540 = LINE ( 'NONE', #139, #857 ) ;
#541 = VECTOR ( 'NONE', #588, 1000.000000000000000 ) ;
#542 = ADVANCED_FACE ( 'NONE', ( #338 ), #437, .T. ) ;
#543 = VECTOR ( 'NONE', #510, 1000.000000000000000 ) ;
#544 = CARTESIAN_POINT ( 'NONE',  ( 23.59274383753431792, 0.000000000000000000, 2.000000000000000000 ) ) ;
#545 = CARTESIAN_POINT ( 'NONE',  ( 43.40393525603455771, 15.07248610966331803, 0.000000000000000000 ) ) ;
#546 = ORIENTED_EDGE ( 'NONE', *, *, #1188, .F. ) ;
#547 = DIRECTION ( 'NONE',  ( -0.000000000000000000, -0.000000000000000000, 1.000000000000000000 ) ) ;
#548 = VERTEX_POINT ( 'NONE', #645 ) ;
#549 = LINE ( 'NONE', #15, #727 ) ;
#550 = EDGE_CURVE ( 'NONE', #657, #135, #52, .T. ) ;
#551 = CARTESIAN_POINT ( 'NONE',  ( 57.81429685668170748, 70.19379226161865404, 0.000000000000000000 ) ) ;
#552 = LINE ( 'NONE', #134, #454 ) ;
#553 = EDGE_LOOP ( 'NONE', ( #788, #972 ) ) ;
#554 = PLANE ( 'NONE',  #1240 ) ;
#555 = VERTEX_POINT ( 'NONE', #685 ) ;
#556 = UNCERTAINTY_MEASURE_WITH_UNIT (LENGTH_MEASURE( 1.000000000000000082E-05 ), #329, 'distance_accuracy_value', 'NONE');
#557 = CARTESIAN_POINT ( 'NONE',  ( 59.42862135719800420, 67.04897555866456571, -0.000000000000000000 ) ) ;
#558 = CARTESIAN_POINT ( 'NONE',  ( 59.65800094604500003, 73.70199890136701981, 0.000000000000000000 ) ) ;
#559 = ORIENTED_EDGE ( 'NONE', *, *, #1080, .T. ) ;
#560 = VERTEX_POINT ( 'NONE', #152 ) ;
#561 = CARTESIAN_POINT ( 'NONE',  ( 59.65800094604502135, 65.89847021869330490, -0.000000000000000000 ) ) ;
#562 = VECTOR ( 'NONE', #833, 1000.000000000000000 ) ;
#563 = VERTEX_POINT ( 'NONE', #1272 ) ;
#564 = VECTOR ( 'NONE', #32, 1000.000000000000000 ) ;
#565 = DIRECTION ( 'NONE',  ( 0.000000000000000000, -0.000000000000000000, -1.000000000000000000 ) ) ;
#566 = ORIENTED_EDGE ( 'NONE', *, *, #680, .T. ) ;
#567 = DIRECTION ( 'NONE',  ( 1.000000000000000000, 0.000000000000000000, 0.000000000000000000 ) ) ;
#568 = FACE_OUTER_BOUND ( 'NONE', #678, .T. ) ;
#569 = VECTOR ( 'NONE', #111, 1000.000000000000000 ) ;
#570 = ORIENTED_EDGE ( 'NONE', *, *, #1289, .F. ) ;
#571 = EDGE_CURVE ( 'NONE', #868, #142, #762, .T. ) ;
#572 = PLANE ( 'NONE',  #434 ) ;
#573 = DIRECTION ( 'NONE',  ( 1.000000000000000000, 2.250695395364005083E-16, 0.000000000000000000 ) ) ;
#574 = DIRECTION ( 'NONE',  ( 0.000000000000000000, -0.000000000000000000, -1.000000000000000000 ) ) ;
#575 = CARTESIAN_POINT ( 'NONE',  ( 0.000000000000000000, 4.981564326187250202, 2.000000000000000000 ) ) ;
#576 = ORIENTED_EDGE ( 'NONE', *, *, #629, .T. ) ;
#577 = DIRECTION ( 'NONE',  ( -0.000000000000000000, -0.000000000000000000, 1.000000000000000000 ) ) ;
#578 = ADVANCED_FACE ( 'NONE', ( #1171 ), #572, .T. ) ;
#579 = AXIS2_PLACEMENT_3D ( 'NONE', #492, #107, #920 ) ;
#580 = VERTEX_POINT ( 'NONE', #784 ) ;
#581 = DIRECTION ( 'NONE',  ( 1.000000000000000000, 0.000000000000000000, 0.000000000000000000 ) ) ;
#582 = AXIS2_PLACEMENT_3D ( 'NONE', #455, #1151, #1270 ) ;
#583 = VECTOR ( 'NONE', #1251, 1000.000000000000000 ) ;
#584 = ORIENTED_EDGE ( 'NONE', *, *, #992, .F. ) ;
#585 = DIRECTION ( 'NONE',  ( 0.000000000000000000, -1.000000000000000000, 0.000000000000000000 ) ) ;
#586 = CARTESIAN_POINT ( 'NONE',  ( 59.65800094604500003, 73.70199890136700560, 2.100000000000000089 ) ) ;
#587 = DIRECTION ( 'NONE',  ( -0.000000000000000000, 0.000000000000000000, 1.000000000000000000 ) ) ;
#588 = DIRECTION ( 'NONE',  ( 1.000000000000000000, -1.760989301504374138E-16, 0.000000000000000000 ) ) ;
#589 = ORIENTED_EDGE ( 'NONE', *, *, #1210, .T. ) ;
#590 = VECTOR ( 'NONE', #805, 1000.000000000000000 ) ;
#591 = CARTESIAN_POINT ( 'NONE',  ( 53.25478145081196146, 15.07248610966331626, 2.000000000000000000 ) ) ;
#592 =( NAMED_UNIT ( * ) PLANE_ANGLE_UNIT ( ) SI_UNIT ( $, .RADIAN. ) );
#593 = ORIENTED_EDGE ( 'NONE', *, *, #49, .T. ) ;
#594 = LINE ( 'NONE', #290, #1003 ) ;
#595 = ORIENTED_EDGE ( 'NONE', *, *, #961, .F. ) ;
#596 = FILL_AREA_STYLE ('',( #1297 ) ) ;
#597 = CARTESIAN_POINT ( 'NONE',  ( 4.125584991616801034, 15.07248610966331626, 0.000000000000000000 ) ) ;
#598 = DIRECTION ( 'NONE',  ( -1.000000000000000000, 0.000000000000000000, 0.000000000000000000 ) ) ;
#599 = EDGE_LOOP ( 'NONE', ( #696, #1185, #419, #900 ) ) ;
#600 =( BOUNDED_SURFACE ( )  B_SPLINE_SURFACE ( 2, 3, ( 
 ( #693, #178, #1095, #66 ),
 ( #586, #667, #785, #1189 ),
 ( #183, #965, #472, #53 ) ),
 .UNSPECIFIED., .F., .F., .F. ) 
 B_SPLINE_SURFACE_WITH_KNOTS ( ( 3, 3 ),
 ( 4, 4 ),
 ( 0.000000000000000000, 1.000000000000000000 ),
 ( -0.0001000000000000000048, 0.002099999999999999870 ),
 .UNSPECIFIED. ) 
 GEOMETRIC_REPRESENTATION_ITEM ( )  RATIONAL_B_SPLINE_SURFACE ( (
 ( 1.000000000000000000, 1.000000000000000000, 1.000000000000000000, 1.000000000000000000),
 ( 0.7071067811865474617, 0.7071067811865474617, 0.7071067811865474617, 0.7071067811865474617),
 ( 1.000000000000000000, 1.000000000000000000, 1.000000000000000000, 1.000000000000000000) ) ) 
 REPRESENTATION_ITEM ( '' )  SURFACE ( )  );
#601 = ADVANCED_FACE ( 'NONE', ( #876 ), #161, .T. ) ;
#602 = VECTOR ( 'NONE', #827, 1000.000000000000000 ) ;
#603 = AXIS2_PLACEMENT_3D ( 'NONE', #995, #493, #313 ) ;
#604 = CARTESIAN_POINT ( 'NONE',  ( 13.71247529139376198, 55.06052811971416361, 0.000000000000000000 ) ) ;
#605 = CARTESIAN_POINT ( 'NONE',  ( 4.125584991616801034, 65.11340853431774178, 2.000000000000000000 ) ) ;
#606 = LINE ( 'NONE', #1209, #964 ) ;
#607 = ORIENTED_EDGE ( 'NONE', *, *, #909, .T. ) ;
#608 = ORIENTED_EDGE ( 'NONE', *, *, #992, .T. ) ;
#609 = VECTOR ( 'NONE', #410, 1000.000000000000000 ) ;
#610 = CIRCLE ( 'NONE', #1140, 1.100000000000000089 ) ;
#611 = SURFACE_SIDE_STYLE ('',( #1222 ) ) ;
#612 =( GEOMETRIC_REPRESENTATION_CONTEXT ( 3 ) GLOBAL_UNCERTAINTY_ASSIGNED_CONTEXT ( ( #777 ) ) GLOBAL_UNIT_ASSIGNED_CONTEXT ( ( #5, #592, #201 ) ) REPRESENTATION_CONTEXT ( 'NONE', 'WORKASPACE' ) );
#613 = CARTESIAN_POINT ( 'NONE',  ( 52.65800094604500714, 4.501998901367001871, 0.000000000000000000 ) ) ;
#614 = ORIENTED_EDGE ( 'NONE', *, *, #1166, .F. ) ;
#615 = CARTESIAN_POINT ( 'NONE',  ( 33.46530128803042459, 0.000000000000000000, 2.000000000000000000 ) ) ;
#616 = ORIENTED_EDGE ( 'NONE', *, *, #449, .T. ) ;
#617 = DIRECTION ( 'NONE',  ( 0.000000000000000000, 0.000000000000000000, -1.000000000000000000 ) ) ;
#618 = EDGE_CURVE ( 'NONE', #1278, #531, #114, .T. ) ;
#619 = LINE ( 'NONE', #1022, #569 ) ;
#620 = LINE ( 'NONE', #221, #1218 ) ;
#621 = ORIENTED_EDGE ( 'NONE', *, *, #999, .T. ) ;
#622 = DIRECTION ( 'NONE',  ( 2.105799495116202281E-16, -1.000000000000000000, -0.000000000000000000 ) ) ;
#623 = AXIS2_PLACEMENT_3D ( 'NONE', #746, #260, #642 ) ;
#624 = DIRECTION ( 'NONE',  ( 0.000000000000000000, 0.000000000000000000, 1.000000000000000000 ) ) ;
#625 = CIRCLE ( 'NONE', #216, 7.000000000000000000 ) ;
#626 = FACE_BOUND ( 'NONE', #553, .T. ) ;
#627 = DIRECTION ( 'NONE',  ( 0.000000000000000000, 0.000000000000000000, -1.000000000000000000 ) ) ;
#628 = LINE ( 'NONE', #215, #646 ) ;
#629 = EDGE_CURVE ( 'NONE', #668, #1137, #963, .T. ) ;
#630 = ORIENTED_EDGE ( 'NONE', *, *, #379, .T. ) ;
#631 = LINE ( 'NONE', #84, #46 ) ;
#632 = LINE ( 'NONE', #1055, #1298 ) ;
#633 = VECTOR ( 'NONE', #812, 1000.000000000000000 ) ;
#634 = LINE ( 'NONE', #758, #1098 ) ;
#635 = CARTESIAN_POINT ( 'NONE',  ( 43.57797558682614891, 54.89351411270024528, 0.000000000000000000 ) ) ;
#636 = EDGE_LOOP ( 'NONE', ( #369, #1254 ) ) ;
#637 = LINE ( 'NONE', #25, #1214 ) ;
#638 = ORIENTED_EDGE ( 'NONE', *, *, #775, .T. ) ;
#639 = EDGE_CURVE ( 'NONE', #1071, #747, #78, .T. ) ;
#640 = CARTESIAN_POINT ( 'NONE',  ( 23.59274383753431792, 4.981564326187250202, 2.000000000000000000 ) ) ;
#641 = ORIENTED_EDGE ( 'NONE', *, *, #483, .T. ) ;
#642 = DIRECTION ( 'NONE',  ( 1.000000000000000000, 0.000000000000000000, 0.000000000000000000 ) ) ;
#643 = ORIENTED_EDGE ( 'NONE', *, *, #571, .F. ) ;
#644 = ADVANCED_FACE ( 'NONE', ( #1081 ), #458, .T. ) ;
#645 = CARTESIAN_POINT ( 'NONE',  ( 4.998000946045022985, -2.498001098633010120, 0.000000000000000000 ) ) ;
#646 = VECTOR ( 'NONE', #1030, 1000.000000000000000 ) ;
#647 = CARTESIAN_POINT ( 'NONE',  ( 52.65800094604500714, -2.498001098632998573, 2.000000000000000000 ) ) ;
#648 = CARTESIAN_POINT ( 'NONE',  ( 33.46530128803042459, 65.12986164836351577, 0.000000000000000000 ) ) ;
#649 = VECTOR ( 'NONE', #981, 1000.000000000000000 ) ;
#650 = ORIENTED_EDGE ( 'NONE', *, *, #224, .F. ) ;
#651 = DIRECTION ( 'NONE',  ( 1.000000000000000000, -1.760989301504373891E-16, 0.000000000000000000 ) ) ;
#652 = ORIENTED_EDGE ( 'NONE', *, *, #1182, .T. ) ;
#653 = ADVANCED_FACE ( 'NONE', ( #170 ), #464, .T. ) ;
#654 = CARTESIAN_POINT ( 'NONE',  ( 13.87724180426212861, 2.385627166299138532E-15, 2.000000000000000000 ) ) ;
#655 = VECTOR ( 'NONE', #228, 1000.000000000000000 ) ;
#656 = ORIENTED_EDGE ( 'NONE', *, *, #471, .F. ) ;
#657 = VERTEX_POINT ( 'NONE', #64 ) ;
#658 = DIRECTION ( 'NONE',  ( 1.760989301504374138E-16, 1.000000000000000000, 0.000000000000000000 ) ) ;
#659 = DIRECTION ( 'NONE',  ( -0.000000000000000000, 1.000000000000000000, -0.000000000000000000 ) ) ;
#660 = CARTESIAN_POINT ( 'NONE',  ( -2.001999053954992114, 4.501998901366988548, 0.000000000000000000 ) ) ;
#661 = EDGE_CURVE ( 'NONE', #365, #142, #176, .T. ) ;
#662 = ORIENTED_EDGE ( 'NONE', *, *, #823, .F. ) ;
#663 = DIRECTION ( 'NONE',  ( -1.778901277296108290E-16, 1.000000000000000000, 0.000000000000000000 ) ) ;
#664 = ORIENTED_EDGE ( 'NONE', *, *, #1166, .T. ) ;
#665 = CARTESIAN_POINT ( 'NONE',  ( 53.25478145081195436, 65.08547442474340983, 5.000000000000000000 ) ) ;
#666 = VECTOR ( 'NONE', #1233, 1000.000000000000000 ) ;
#667 = CARTESIAN_POINT ( 'NONE',  ( 59.65800094604500003, 73.70199890136700560, 1.366666666666667140 ) ) ;
#668 = VERTEX_POINT ( 'NONE', #769 ) ;
#669 = CARTESIAN_POINT ( 'NONE',  ( 54.40600094604466364, 66.57499890136696763, 0.000000000000000000 ) ) ;
#670 = EDGE_CURVE ( 'NONE', #1259, #1286, #1176, .T. ) ;
#671 = EDGE_LOOP ( 'NONE', ( #1281, #457, #1116, #918 ) ) ;
#672 = EDGE_CURVE ( 'NONE', #657, #310, #673, .T. ) ;
#673 = LINE ( 'NONE', #1073, #1027 ) ;
#674 = CARTESIAN_POINT ( 'NONE',  ( 59.65800094604500003, 64.70199890136701981, 1.333333333333333481 ) ) ;
#675 = PLANE ( 'NONE',  #780 ) ;
#676 = LINE ( 'NONE', #787, #89 ) ;
#677 = VECTOR ( 'NONE', #704, 1000.000000000000000 ) ;
#678 = EDGE_LOOP ( 'NONE', ( #450, #1129, #397, #44 ) ) ;
#679 = VECTOR ( 'NONE', #480, 1000.000000000000000 ) ;
#680 = EDGE_CURVE ( 'NONE', #563, #580, #374, .T. ) ;
#681 = CARTESIAN_POINT ( 'NONE',  ( 23.98644712270021273, 65.12986164836351577, 5.000000000000000000 ) ) ;
#682 = CARTESIAN_POINT ( 'NONE',  ( 23.98644712270021273, 65.12986164836351577, 5.000000000000000000 ) ) ;
#683 = ORIENTED_EDGE ( 'NONE', *, *, #165, .T. ) ;
#684 = ORIENTED_EDGE ( 'NONE', *, *, #262, .T. ) ;
#685 = CARTESIAN_POINT ( 'NONE',  ( 4.376000946044668716, 66.72799890136695922, 0.000000000000000000 ) ) ;
#686 = ADVANCED_FACE ( 'NONE', ( #1284 ), #380, .T. ) ;
#687 = CARTESIAN_POINT ( 'NONE',  ( 23.59274383753431792, 15.07248610966331803, 0.000000000000000000 ) ) ;
#688 = VECTOR ( 'NONE', #651, 1000.000000000000000 ) ;
#689 = DIRECTION ( 'NONE',  ( -1.387418376241074944E-16, 1.000000000000000000, 0.000000000000000000 ) ) ;
#690 = AXIS2_PLACEMENT_3D ( 'NONE', #76, #377, #281 ) ;
#691 = ORIENTED_EDGE ( 'NONE', *, *, #1041, .T. ) ;
#692 = CARTESIAN_POINT ( 'NONE',  ( 43.40393525603455771, 15.07248610966331803, 0.000000000000000000 ) ) ;
#693 = CARTESIAN_POINT ( 'NONE',  ( 50.65800094604500003, 73.70199890136701981, 2.100000000000000089 ) ) ;
#694 = ORIENTED_EDGE ( 'NONE', *, *, #1260, .F. ) ;
#695 = FACE_OUTER_BOUND ( 'NONE', #18, .T. ) ;
#696 = ORIENTED_EDGE ( 'NONE', *, *, #131, .T. ) ;
#697 = PLANE ( 'NONE',  #1108 ) ;
#698 = CARTESIAN_POINT ( 'NONE',  ( 53.00497760331795405, 73.47261931251999556, 2.000000000000000000 ) ) ;
#699 = LINE ( 'NONE', #214, #757 ) ;
#700 = CARTESIAN_POINT ( 'NONE',  ( 3.276000946044667295, 66.72799890136695922, 0.000000000000000000 ) ) ;
#701 = EDGE_CURVE ( 'NONE', #513, #350, #725, .T. ) ;
#702 = ORIENTED_EDGE ( 'NONE', *, *, #789, .T. ) ;
#703 = CARTESIAN_POINT ( 'NONE',  ( 13.87724180426212683, 15.07248610966331803, 0.000000000000000000 ) ) ;
#704 = DIRECTION ( 'NONE',  ( 1.719093174240459738E-16, -1.000000000000000000, 0.000000000000000000 ) ) ;
#705 = DIRECTION ( 'NONE',  ( -1.000000000000000000, 0.000000000000000000, 0.000000000000000000 ) ) ;
#706 = VERTEX_POINT ( 'NONE', #211 ) ;
#707 = EDGE_CURVE ( 'NONE', #548, #1306, #625, .T. ) ;
#708 = ORIENTED_EDGE ( 'NONE', *, *, #407, .T. ) ;
#709 = LINE ( 'NONE', #1303, #633 ) ;
#710 = CARTESIAN_POINT ( 'NONE',  ( 33.65029304469298665, 15.07248610966331803, 0.000000000000000000 ) ) ;
#711 = ORIENTED_EDGE ( 'NONE', *, *, #945, .F. ) ;
#712 = PRODUCT_DEFINITION ( 'UNKNOWN', '', #50, #71 ) ;
#713 = EDGE_LOOP ( 'NONE', ( #382, #593, #1093, #106 ) ) ;
#714 = EDGE_CURVE ( 'NONE', #447, #144, #261, .T. ) ;
#715 = LINE ( 'NONE', #206, #177 ) ;
#716 = DIRECTION ( 'NONE',  ( -1.000000000000000000, 0.000000000000000000, 0.000000000000000000 ) ) ;
#717 = LINE ( 'NONE', #112, #880 ) ;
#718 = EDGE_LOOP ( 'NONE', ( #1187, #745 ) ) ;
#719 = DIRECTION ( 'NONE',  ( -0.000000000000000000, -1.000000000000000000, -0.000000000000000000 ) ) ;
#720 = LINE ( 'NONE', #307, #751 ) ;
#721 = EDGE_CURVE ( 'NONE', #513, #87, #19, .T. ) ;
#722 = FACE_OUTER_BOUND ( 'NONE', #269, .T. ) ;
#723 = DIRECTION ( 'NONE',  ( 0.9999999939505700430, 0.0001099948173134369586, 0.000000000000000000 ) ) ;
#724 = ORIENTED_EDGE ( 'NONE', *, *, #917, .F. ) ;
#725 = LINE ( 'NONE', #1201, #941 ) ;
#726 = VECTOR ( 'NONE', #245, 1000.000000000000000 ) ;
#727 = VECTOR ( 'NONE', #1261, 1000.000000000000000 ) ;
#728 = DIRECTION ( 'NONE',  ( 0.000000000000000000, 0.000000000000000000, -1.000000000000000000 ) ) ;
#729 = LINE ( 'NONE', #858, #1141 ) ;
#730 = CARTESIAN_POINT ( 'NONE',  ( 54.40600094604466364, 66.57499890136696763, 0.000000000000000000 ) ) ;
#731 = EDGE_CURVE ( 'NONE', #350, #930, #189, .T. ) ;
#732 = ORIENTED_EDGE ( 'NONE', *, *, #701, .F. ) ;
#733 = DIRECTION ( 'NONE',  ( -0.000000000000000000, -0.000000000000000000, 1.000000000000000000 ) ) ;
#734 = EDGE_LOOP ( 'NONE', ( #683, #708, #358, #242 ) ) ;
#735 = CARTESIAN_POINT ( 'NONE',  ( 4.125584991616801034, 15.07248610966331626, 5.000000000000000000 ) ) ;
#736 = CARTESIAN_POINT ( 'NONE',  ( 56.17689210301876557, 71.91030007358797604, 0.000000000000000000 ) ) ;
#737 = CARTESIAN_POINT ( 'NONE',  ( -2.001999053954992114, 4.501998901366988548, 2.000000000000000000 ) ) ;
#738 = EDGE_LOOP ( 'NONE', ( #1105, #173, #662, #962 ) ) ;
#739 = DIRECTION ( 'NONE',  ( 0.000000000000000000, 0.000000000000000000, -1.000000000000000000 ) ) ;
#740 = EDGE_CURVE ( 'NONE', #1252, #124, #1194, .T. ) ;
#741 = ORIENTED_EDGE ( 'NONE', *, *, #194, .T. ) ;
#742 = DIRECTION ( 'NONE',  ( 0.000000000000000000, 0.000000000000000000, -1.000000000000000000 ) ) ;
#743 = LINE ( 'NONE', #647, #1117 ) ;
#744 = DIRECTION ( 'NONE',  ( 0.000000000000000000, 0.000000000000000000, 1.000000000000000000 ) ) ;
#745 = ORIENTED_EDGE ( 'NONE', *, *, #97, .T. ) ;
#746 = CARTESIAN_POINT ( 'NONE',  ( 54.40600094604466364, 66.57499890136696763, -36.02814615619893601 ) ) ;
#747 = VERTEX_POINT ( 'NONE', #1241 ) ;
#748 = EDGE_CURVE ( 'NONE', #372, #1306, #798, .T. ) ;
#749 = CARTESIAN_POINT ( 'NONE',  ( 4.125584991616801034, 65.11340853431774178, 5.000000000000000000 ) ) ;
#750 = CIRCLE ( 'NONE', #582, 1.099999999999996758 ) ;
#751 = VECTOR ( 'NONE', #1125, 1000.000000000000000 ) ;
#752 = CARTESIAN_POINT ( 'NONE',  ( 50.65800094604500003, 73.70199890136701981, 0.000000000000000000 ) ) ;
#753 = CARTESIAN_POINT ( 'NONE',  ( 3.022021903402160259, 3.380005767011427409, 0.000000000000000000 ) ) ;
#754 = ORIENTED_EDGE ( 'NONE', *, *, #849, .F. ) ;
#755 = ORIENTED_EDGE ( 'NONE', *, *, #13, .F. ) ;
#756 = DIRECTION ( 'NONE',  ( 0.000000000000000000, 0.000000000000000000, -1.000000000000000000 ) ) ;
#757 = VECTOR ( 'NONE', #800, 1000.000000000000000 ) ;
#758 = CARTESIAN_POINT ( 'NONE',  ( 33.46530128803042459, 65.12986164836351577, 0.000000000000000000 ) ) ;
#759 = CARTESIAN_POINT ( 'NONE',  ( 3.022021903402160259, 3.380005767011427409, 2.000000000000000000 ) ) ;
#760 = ORIENTED_EDGE ( 'NONE', *, *, #1173, .T. ) ;
#761 = VERTEX_POINT ( 'NONE', #521 ) ;
#762 = LINE ( 'NONE', #987, #1067 ) ;
#763 = ADVANCED_FACE ( 'NONE', ( #321 ), #697, .T. ) ;
#764 = DIRECTION ( 'NONE',  ( 1.000000000000000000, 1.719093174240459492E-16, 0.000000000000000000 ) ) ;
#765 = EDGE_CURVE ( 'NONE', #142, #226, #1313, .T. ) ;
#766 = VERTEX_POINT ( 'NONE', #591 ) ;
#767 = CARTESIAN_POINT ( 'NONE',  ( 23.59274383753431792, 15.07248610966331803, 5.000000000000000000 ) ) ;
#768 = ORIENTED_EDGE ( 'NONE', *, *, #961, .T. ) ;
#769 = CARTESIAN_POINT ( 'NONE',  ( 43.57797558682614891, 65.08547442474340983, 2.000000000000000000 ) ) ;
#770 = CARTESIAN_POINT ( 'NONE',  ( 43.40393525603455771, 4.928960542525273603, 0.000000000000000000 ) ) ;
#771 = ORIENTED_EDGE ( 'NONE', *, *, #385, .T. ) ;
#772 = AXIS2_PLACEMENT_3D ( 'NONE', #535, #859, #340 ) ;
#773 = DIRECTION ( 'NONE',  ( -0.000000000000000000, -0.000000000000000000, 1.000000000000000000 ) ) ;
#774 = AXIS2_PLACEMENT_3D ( 'NONE', #1094, #392, #218 ) ;
#775 = EDGE_CURVE ( 'NONE', #77, #63, #631, .T. ) ;
#776 = VERTEX_POINT ( 'NONE', #898 ) ;
#777 = UNCERTAINTY_MEASURE_WITH_UNIT (LENGTH_MEASURE( 1.000000000000000082E-05 ), #5, 'distance_accuracy_value', 'NONE');
#778 = DIRECTION ( 'NONE',  ( -1.000000000000000000, -9.106159978880877395E-17, 0.000000000000000000 ) ) ;
#779 = VERTEX_POINT ( 'NONE', #3 ) ;
#780 = AXIS2_PLACEMENT_3D ( 'NONE', #1077, #168, #587 ) ;
#781 = EDGE_LOOP ( 'NONE', ( #959, #702, #238, #494 ) ) ;
#782 = EDGE_CURVE ( 'NONE', #135, #1264, #537, .T. ) ;
#783 = AXIS2_PLACEMENT_3D ( 'NONE', #451, #951, #832 ) ;
#784 = CARTESIAN_POINT ( 'NONE',  ( 13.71247529139376198, 55.06052811971416361, 2.000000000000000000 ) ) ;
#785 = CARTESIAN_POINT ( 'NONE',  ( 59.65800094604500003, 73.70199890136700560, 0.6333333333333334147 ) ) ;
#786 = LINE ( 'NONE', #1069, #8 ) ;
#787 = CARTESIAN_POINT ( 'NONE',  ( 1.922021903402159948, 3.380005767011427409, -36.02814615619893601 ) ) ;
#788 = ORIENTED_EDGE ( 'NONE', *, *, #999, .F. ) ;
#789 = EDGE_CURVE ( 'NONE', #365, #1183, #304, .T. ) ;
#790 = CARTESIAN_POINT ( 'NONE',  ( 1.922021903402159948, 3.380005767011427409, 2.000000000000000000 ) ) ;
#791 = CARTESIAN_POINT ( 'NONE',  ( 59.65800094604500003, 64.70199890136701981, 0.000000000000000000 ) ) ;
#792 = AXIS2_PLACEMENT_3D ( 'NONE', #150, #1046, #565 ) ;
#793 = VERTEX_POINT ( 'NONE', #1123 ) ;
#794 = CARTESIAN_POINT ( 'NONE',  ( 33.65029304469298665, 4.927887692425605870, 5.000000000000000000 ) ) ;
#795 = CIRCLE ( 'NONE', #393, 1.100000000000000311 ) ;
#796 = VECTOR ( 'NONE', #756, 1000.000000000000000 ) ;
#797 = ORIENTED_EDGE ( 'NONE', *, *, #881, .T. ) ;
#798 = LINE ( 'NONE', #822, #877 ) ;
#799 = DIRECTION ( 'NONE',  ( 0.000000000000000000, 0.000000000000000000, -1.000000000000000000 ) ) ;
#800 = DIRECTION ( 'NONE',  ( 0.000000000000000000, 0.000000000000000000, -1.000000000000000000 ) ) ;
#801 = DIRECTION ( 'NONE',  ( -0.0001099948173134369722, 0.9999999939505701541, 0.000000000000000000 ) ) ;
#802 = VERTEX_POINT ( 'NONE', #1026 ) ;
#803 = AXIS2_PLACEMENT_3D ( 'NONE', #1223, #627, #208 ) ;
#804 = AXIS2_PLACEMENT_3D ( 'NONE', #317, #517, #799 ) ;
#805 = DIRECTION ( 'NONE',  ( 0.000000000000000000, -1.000000000000000000, 0.000000000000000000 ) ) ;
#806 = EDGE_CURVE ( 'NONE', #766, #408, #117, .T. ) ;
#807 = FACE_OUTER_BOUND ( 'NONE', #501, .T. ) ;
#808 = LINE ( 'NONE', #197, #265 ) ;
#809 = ADVANCED_FACE ( 'NONE', ( #529 ), #1138, .F. ) ;
#810 = ORIENTED_EDGE ( 'NONE', *, *, #748, .T. ) ;
#811 = ORIENTED_EDGE ( 'NONE', *, *, #1289, .T. ) ;
#812 = DIRECTION ( 'NONE',  ( -1.387418376241074944E-16, 1.000000000000000000, -0.000000000000000000 ) ) ;
#813 = LINE ( 'NONE', #1217, #136 ) ;
#814 = ORIENTED_EDGE ( 'NONE', *, *, #429, .T. ) ;
#815 = EDGE_CURVE ( 'NONE', #87, #882, #637, .T. ) ;
#816 =( GEOMETRIC_REPRESENTATION_CONTEXT ( 3 ) GLOBAL_UNCERTAINTY_ASSIGNED_CONTEXT ( ( #556 ) ) GLOBAL_UNIT_ASSIGNED_CONTEXT ( ( #329, #913, #200 ) ) REPRESENTATION_CONTEXT ( 'NONE', 'WORKASPACE' ) );
#817 = VERTEX_POINT ( 'NONE', #790 ) ;
#818 = PLANE ( 'NONE',  #603 ) ;
#819 = PLANE ( 'NONE',  #803 ) ;
#820 = DIRECTION ( 'NONE',  ( 0.000000000000000000, 0.000000000000000000, -1.000000000000000000 ) ) ;
#821 = ORIENTED_EDGE ( 'NONE', *, *, #661, .T. ) ;
#822 = CARTESIAN_POINT ( 'NONE',  ( -2.001999053954990782, -2.498001098633011896, 0.000000000000000000 ) ) ;
#823 = EDGE_CURVE ( 'NONE', #1264, #408, #284, .T. ) ;
#824 = VERTEX_POINT ( 'NONE', #1246 ) ;
#825 = CARTESIAN_POINT ( 'NONE',  ( 59.42897591266895319, 67.04487366668762149, 1.999999999999999556 ) ) ;
#826 = FACE_BOUND ( 'NONE', #522, .T. ) ;
#827 = DIRECTION ( 'NONE',  ( -1.000000000000000000, -0.000000000000000000, -0.000000000000000000 ) ) ;
#828 = EDGE_LOOP ( 'NONE', ( #1234, #291, #1064, #841, #421, #276, #48, #732, #1299, #937, #755, #998, #24, #441, #425, #966, #93, #1271, #570, #341 ) ) ;
#829 = CARTESIAN_POINT ( 'NONE',  ( 4.998000946045008774, 4.501998901366989436, 0.000000000000000000 ) ) ;
#830 = ORIENTED_EDGE ( 'NONE', *, *, #1236, .T. ) ;
#831 = LINE ( 'NONE', #844, #308 ) ;
#832 = DIRECTION ( 'NONE',  ( 1.000000000000000000, 0.000000000000000000, 0.000000000000000000 ) ) ;
#833 = DIRECTION ( 'NONE',  ( 0.000000000000000000, 0.000000000000000000, -1.000000000000000000 ) ) ;
#834 = ORIENTED_EDGE ( 'NONE', *, *, #187, .F. ) ;
#835 = DIRECTION ( 'NONE',  ( 1.000000000000000000, 0.000000000000000000, 0.000000000000000000 ) ) ;
#836 = APPLICATION_PROTOCOL_DEFINITION ( 'draft international standard', 'automotive_design', 1998, #840 ) ;
#837 = CARTESIAN_POINT ( 'NONE',  ( 0.000000000000000000, 0.000000000000000000, 2.000000000000000000 ) ) ;
#838 = CARTESIAN_POINT ( 'NONE',  ( 59.65800094604500714, 4.501998901367029404, 2.000000000000000000 ) ) ;
#839 = CARTESIAN_POINT ( 'NONE',  ( 2.176000946044666318, 66.72799890136695922, 0.000000000000000000 ) ) ;
#840 = APPLICATION_CONTEXT ( 'automotive_design' ) ;
#841 = ORIENTED_EDGE ( 'NONE', *, *, #680, .F. ) ;
#842 = FACE_OUTER_BOUND ( 'NONE', #1097, .T. ) ;
#843 = ORIENTED_EDGE ( 'NONE', *, *, #344, .F. ) ;
#844 = CARTESIAN_POINT ( 'NONE',  ( 53.30600094604466221, 66.57499890136696763, -36.02814615619893601 ) ) ;
#845 = CARTESIAN_POINT ( 'NONE',  ( -2.001999053955005436, 66.70199890136699139, 2.000000000000000000 ) ) ;
#846 = AXIS2_PLACEMENT_3D ( 'NONE', #988, #577, #567 ) ;
#847 = CARTESIAN_POINT ( 'NONE',  ( -2.001999053954992114, 4.501998901366988548, 2.000000000000000000 ) ) ;
#848 = ORIENTED_EDGE ( 'NONE', *, *, #491, .F. ) ;
#849 = EDGE_CURVE ( 'NONE', #954, #63, #1070, .T. ) ;
#850 = ORIENTED_EDGE ( 'NONE', *, *, #74, .T. ) ;
#851 = DIRECTION ( 'NONE',  ( 1.000000000000000000, 0.000000000000000000, 0.000000000000000000 ) ) ;
#852 = LINE ( 'NONE', #544, #1162 ) ;
#853 = CARTESIAN_POINT ( 'NONE',  ( 23.59274383753431792, 15.07248610966331803, 0.000000000000000000 ) ) ;
#854 = ORIENTED_EDGE ( 'NONE', *, *, #707, .T. ) ;
#855 = ORIENTED_EDGE ( 'NONE', *, *, #1253, .F. ) ;
#856 = ADVANCED_FACE ( 'NONE', ( #351 ), #334, .T. ) ;
#857 = VECTOR ( 'NONE', #1028, 1000.000000000000000 ) ;
#858 = CARTESIAN_POINT ( 'NONE',  ( 43.57797558682614891, 0.000000000000000000, 2.000000000000000000 ) ) ;
#859 = DIRECTION ( 'NONE',  ( -0.000000000000000000, -0.000000000000000000, 1.000000000000000000 ) ) ;
#860 = ORIENTED_EDGE ( 'NONE', *, *, #13, .T. ) ;
#861 = DIRECTION ( 'NONE',  ( -0.000000000000000000, -0.000000000000000000, 1.000000000000000000 ) ) ;
#862 = EDGE_LOOP ( 'NONE', ( #869, #1247, #797, #158 ) ) ;
#863 = EDGE_CURVE ( 'NONE', #154, #1020, #359, .T. ) ;
#864 = CARTESIAN_POINT ( 'NONE',  ( 33.46530128803042459, 54.89351411270024528, 5.000000000000000000 ) ) ;
#865 = ADVANCED_FACE ( 'NONE', ( #462 ), #1146, .F. ) ;
#866 = LINE ( 'NONE', #1068, #274 ) ;
#867 = AXIS2_PLACEMENT_3D ( 'NONE', #167, #982, #573 ) ;
#868 = VERTEX_POINT ( 'NONE', #973 ) ;
#869 = ORIENTED_EDGE ( 'NONE', *, *, #1113, .F. ) ;
#870 = PRODUCT_RELATED_PRODUCT_CATEGORY ( 'part', '', ( #65 ) ) ;
#871 = CARTESIAN_POINT ( 'NONE',  ( 23.98644712270021273, 55.06052811971416361, 0.000000000000000000 ) ) ;
#872 = ADVANCED_FACE ( 'NONE', ( #842 ), #960, .T. ) ;
#873 = EDGE_LOOP ( 'NONE', ( #652, #1276, #711, #848 ) ) ;
#874 = DIRECTION ( 'NONE',  ( -0.000000000000000000, -0.000000000000000000, 1.000000000000000000 ) ) ;
#875 = ORIENTED_EDGE ( 'NONE', *, *, #49, .F. ) ;
#876 = FACE_OUTER_BOUND ( 'NONE', #1193, .T. ) ;
#877 = VECTOR ( 'NONE', #622, 1000.000000000000000 ) ;
#878 = AXIS2_PLACEMENT_3D ( 'NONE', #482, #874, #1084 ) ;
#879 = PLANE ( 'NONE',  #361 ) ;
#880 = VECTOR ( 'NONE', #23, 1000.000000000000000 ) ;
#881 = EDGE_CURVE ( 'NONE', #802, #198, #750, .T. ) ;
#882 = VERTEX_POINT ( 'NONE', #137 ) ;
#883 = DIRECTION ( 'NONE',  ( -1.000000000000000000, -0.000000000000000000, -0.000000000000000000 ) ) ;
#884 = ORIENTED_EDGE ( 'NONE', *, *, #1096, .T. ) ;
#885 = CARTESIAN_POINT ( 'NONE',  ( 43.57797558682614891, 65.08547442474340983, 5.000000000000000000 ) ) ;
#886 = PLANE ( 'NONE',  #867 ) ;
#887 = ORIENTED_EDGE ( 'NONE', *, *, #1227, .F. ) ;
#888 = CIRCLE ( 'NONE', #1139, 1.100000000000001199 ) ;
#889 = CARTESIAN_POINT ( 'NONE',  ( 23.98644712270021273, 65.12986164836351577, 0.000000000000000000 ) ) ;
#890 = EDGE_LOOP ( 'NONE', ( #811, #1101, #255, #70 ) ) ;
#891 = EDGE_CURVE ( 'NONE', #477, #333, #1296, .T. ) ;
#892 = DIRECTION ( 'NONE',  ( -1.000000000000000000, 0.000000000000000000, 0.000000000000000000 ) ) ;
#893 = CARTESIAN_POINT ( 'NONE',  ( 53.25478145081195436, 65.08547442474340983, 0.000000000000000000 ) ) ;
#894 = PLANE ( 'NONE',  #1203 ) ;
#895 = CARTESIAN_POINT ( 'NONE',  ( 13.87724180426212861, 4.981564326187250202, 0.000000000000000000 ) ) ;
#896 = ORIENTED_EDGE ( 'NONE', *, *, #740, .T. ) ;
#897 = ADVANCED_FACE ( 'NONE', ( #239 ), #231, .F. ) ;
#898 = CARTESIAN_POINT ( 'NONE',  ( 55.25264674755988636, 3.205038549915393276, 2.000000000000000000 ) ) ;
#899 = CARTESIAN_POINT ( 'NONE',  ( 51.85447226334667903, 73.70199890136700560, 1.999999999999999556 ) ) ;
#900 = ORIENTED_EDGE ( 'NONE', *, *, #532, .F. ) ;
#901 = PLANE ( 'NONE',  #195 ) ;
#902 = ORIENTED_EDGE ( 'NONE', *, *, #909, .F. ) ;
#903 = ADVANCED_FACE ( 'NONE', ( #948 ), #554, .T. ) ;
#904 = CARTESIAN_POINT ( 'NONE',  ( 55.25264674755988636, 3.205038549915393276, 0.000000000000000000 ) ) ;
#905 = ADVANCED_FACE ( 'NONE', ( #955 ), #155, .T. ) ;
#906 = CARTESIAN_POINT ( 'NONE',  ( 13.87724180426212683, 15.07248610966331803, 0.000000000000000000 ) ) ;
#907 = VERTEX_POINT ( 'NONE', #1287 ) ;
#908 = DIRECTION ( 'NONE',  ( 0.000000000000000000, 0.000000000000000000, -1.000000000000000000 ) ) ;
#909 = EDGE_CURVE ( 'NONE', #793, #122, #192, .T. ) ;
#910 = DIRECTION ( 'NONE',  ( -1.000000000000000000, 0.000000000000000000, 0.000000000000000000 ) ) ;
#911 = CARTESIAN_POINT ( 'NONE',  ( 4.122021903402160348, 3.380005767011427409, -36.02814615619893601 ) ) ;
#912 = ORIENTED_EDGE ( 'NONE', *, *, #765, .T. ) ;
#913 =( NAMED_UNIT ( * ) PLANE_ANGLE_UNIT ( ) SI_UNIT ( $, .RADIAN. ) );
#914 = CARTESIAN_POINT ( 'NONE',  ( 23.98644712270021273, 0.000000000000000000, 2.000000000000000000 ) ) ;
#915 = DIRECTION ( 'NONE',  ( -0.000000000000000000, -0.000000000000000000, 1.000000000000000000 ) ) ;
#916 = DIRECTION ( 'NONE',  ( 1.000000000000000000, 0.000000000000000000, 0.000000000000000000 ) ) ;
#917 = EDGE_CURVE ( 'NONE', #390, #779, #1153, .T. ) ;
#918 = ORIENTED_EDGE ( 'NONE', *, *, #721, .F. ) ;
#919 = AXIS2_PLACEMENT_3D ( 'NONE', #700, #495, #598 ) ;
#920 = DIRECTION ( 'NONE',  ( -1.000000000000000000, 0.000000000000000000, 0.000000000000000000 ) ) ;
#921 = AXIS2_PLACEMENT_3D ( 'NONE', #730, #121, #1238 ) ;
#922 = AXIS2_PLACEMENT_3D ( 'NONE', #665, #486, #1086 ) ;
#923 = DIRECTION ( 'NONE',  ( -1.000000000000000000, 0.000000000000000000, 0.000000000000000000 ) ) ;
#924 = CARTESIAN_POINT ( 'NONE',  ( 33.65029304469298665, 4.927887692425605870, 0.000000000000000000 ) ) ;
#925 = ORIENTED_EDGE ( 'NONE', *, *, #465, .F. ) ;
#926 = DIRECTION ( 'NONE',  ( 0.000000000000000000, 0.000000000000000000, -1.000000000000000000 ) ) ;
#927 = VERTEX_POINT ( 'NONE', #1300 ) ;
#928 = DIRECTION ( 'NONE',  ( -0.000000000000000000, -1.000000000000000000, -0.000000000000000000 ) ) ;
#929 = LINE ( 'NONE', #906, #1066 ) ;
#930 = VERTEX_POINT ( 'NONE', #979 ) ;
#931 = CARTESIAN_POINT ( 'NONE',  ( 13.71247529139376198, 55.06052811971416361, 5.000000000000000000 ) ) ;
#932 = EDGE_LOOP ( 'NONE', ( #327, #855, #664, #246 ) ) ;
#933 = EDGE_CURVE ( 'NONE', #1225, #817, #676, .T. ) ;
#934 = LINE ( 'NONE', #322, #796 ) ;
#935 = CARTESIAN_POINT ( 'NONE',  ( 53.00087571128209873, 73.47297386804987696, -0.000000000000000000 ) ) ;
#936 = DIRECTION ( 'NONE',  ( -1.000000000000000000, 0.000000000000000000, 0.000000000000000000 ) ) ;
#937 = ORIENTED_EDGE ( 'NONE', *, *, #1236, .F. ) ;
#938 = DIRECTION ( 'NONE',  ( 0.000000000000000000, 0.000000000000000000, -1.000000000000000000 ) ) ;
#939 = ORIENTED_EDGE ( 'NONE', *, *, #125, .F. ) ;
#940 = AXIS2_PLACEMENT_3D ( 'NONE', #427, #624, #102 ) ;
#941 = VECTOR ( 'NONE', #182, 1000.000000000000000 ) ;
#942 = FACE_BOUND ( 'NONE', #180, .T. ) ;
#943 = EDGE_CURVE ( 'NONE', #1269, #747, #1078, .T. ) ;
#944 = CARTESIAN_POINT ( 'NONE',  ( 55.20333840945173165, 72.56089261405624313, -0.000000000000000000 ) ) ;
#945 = EDGE_CURVE ( 'NONE', #1060, #310, #174, .T. ) ;
#946 = DIRECTION ( 'NONE',  ( -9.106159978880878627E-17, 1.000000000000000000, -0.000000000000000000 ) ) ;
#947 = ORIENTED_EDGE ( 'NONE', *, *, #714, .T. ) ;
#948 = FACE_OUTER_BOUND ( 'NONE', #1054, .T. ) ;
#949 = ORIENTED_EDGE ( 'NONE', *, *, #94, .T. ) ;
#950 = DIRECTION ( 'NONE',  ( -0.000000000000000000, -0.000000000000000000, 1.000000000000000000 ) ) ;
#951 = DIRECTION ( 'NONE',  ( 0.000000000000000000, 0.000000000000000000, 1.000000000000000000 ) ) ;
#952 = LINE ( 'NONE', #654, #285 ) ;
#953 = EDGE_CURVE ( 'NONE', #154, #1252, #169, .T. ) ;
#954 = VERTEX_POINT ( 'NONE', #1181 ) ;
#955 = FACE_OUTER_BOUND ( 'NONE', #734, .T. ) ;
#956 = VERTEX_POINT ( 'NONE', #186 ) ;
#957 = LINE ( 'NONE', #749, #266 ) ;
#958 = CARTESIAN_POINT ( 'NONE',  ( 54.40600094604466364, 66.57499890136696763, 2.000000000000000000 ) ) ;
#959 = ORIENTED_EDGE ( 'NONE', *, *, #661, .F. ) ;
#960 = PLANE ( 'NONE',  #263 ) ;
#961 = EDGE_CURVE ( 'NONE', #779, #706, #594, .T. ) ;
#962 = ORIENTED_EDGE ( 'NONE', *, *, #782, .F. ) ;
#963 = LINE ( 'NONE', #885, #1005 ) ;
#964 = VECTOR ( 'NONE', #319, 1000.000000000000000 ) ;
#965 = CARTESIAN_POINT ( 'NONE',  ( 59.65800094604500003, 64.70199890136701981, 1.366666666666667140 ) ) ;
#966 = ORIENTED_EDGE ( 'NONE', *, *, #1136, .F. ) ;
#967 = DIRECTION ( 'NONE',  ( 1.000000000000000000, 0.000000000000000000, 0.000000000000000000 ) ) ;
#968 = ORIENTED_EDGE ( 'NONE', *, *, #748, .F. ) ;
#969 = CARTESIAN_POINT ( 'NONE',  ( 4.998000946045008774, 4.501998901366989436, 2.000000000000000000 ) ) ;
#970 = DIRECTION ( 'NONE',  ( 9.106159978880877395E-17, -1.000000000000000000, 0.000000000000000000 ) ) ;
#971 = AXIS2_PLACEMENT_3D ( 'NONE', #1285, #375, #1172 ) ;
#972 = ORIENTED_EDGE ( 'NONE', *, *, #1210, .F. ) ;
#973 = CARTESIAN_POINT ( 'NONE',  ( 4.998000946044992787, 73.70199890136700560, 0.000000000000000000 ) ) ;
#974 = ORIENTED_EDGE ( 'NONE', *, *, #1100, .T. ) ;
#975 = CARTESIAN_POINT ( 'NONE',  ( -2.001999053955006769, 73.70199890136700560, 2.000000000000000000 ) ) ;
#976 = EDGE_CURVE ( 'NONE', #135, #766, #1186, .T. ) ;
#977 = PLANE ( 'NONE',  #225 ) ;
#978 = LINE ( 'NONE', #68, #609 ) ;
#979 = CARTESIAN_POINT ( 'NONE',  ( 33.46530128803042459, 65.12986164836351577, 2.000000000000000000 ) ) ;
#980 = ORIENTED_EDGE ( 'NONE', *, *, #1113, .T. ) ;
#981 = DIRECTION ( 'NONE',  ( 0.000000000000000000, 1.000000000000000000, 0.000000000000000000 ) ) ;
#982 = DIRECTION ( 'NONE',  ( 2.250695395364005083E-16, -1.000000000000000000, 0.000000000000000000 ) ) ;
#983 = CIRCLE ( 'NONE', #326, 1.099999999999996758 ) ;
#984 = ORIENTED_EDGE ( 'NONE', *, *, #891, .F. ) ;
#985 = DIRECTION ( 'NONE',  ( 0.000000000000000000, 0.000000000000000000, 1.000000000000000000 ) ) ;
#986 = ORIENTED_EDGE ( 'NONE', *, *, #765, .F. ) ;
#987 = CARTESIAN_POINT ( 'NONE',  ( 4.998000946044992787, 73.70199890136700560, 2.000000000000000000 ) ) ;
#988 = CARTESIAN_POINT ( 'NONE',  ( 54.15264674755988494, 3.205038549915393276, -36.02814615619893601 ) ) ;
#989 = FACE_OUTER_BOUND ( 'NONE', #86, .T. ) ;
#990 = VECTOR ( 'NONE', #127, 1000.000000000000000 ) ;
#991 = LINE ( 'NONE', #81, #1088 ) ;
#992 = EDGE_CURVE ( 'NONE', #1239, #555, #1047, .T. ) ;
#993 = ORIENTED_EDGE ( 'NONE', *, *, #953, .T. ) ;
#994 = DIRECTION ( 'NONE',  ( -1.000000000000000000, 0.000000000000000000, 0.000000000000000000 ) ) ;
#995 = CARTESIAN_POINT ( 'NONE',  ( 33.46530128803042459, 65.12986164836351577, 5.000000000000000000 ) ) ;
#996 = ORIENTED_EDGE ( 'NONE', *, *, #97, .F. ) ;
#997 = CARTESIAN_POINT ( 'NONE',  ( 3.022021903402160259, 3.380005767011427409, -36.02814615619893601 ) ) ;
#998 = ORIENTED_EDGE ( 'NONE', *, *, #976, .F. ) ;
#999 = EDGE_CURVE ( 'NONE', #378, #1024, #349, .T. ) ;
#1000 = LINE ( 'NONE', #1202, #526 ) ;
#1001 = LINE ( 'NONE', #91, #677 ) ;
#1002 = CARTESIAN_POINT ( 'NONE',  ( 0.000000000000000000, 15.07248610966331803, 2.000000000000000000 ) ) ;
#1003 = VECTOR ( 'NONE', #773, 1000.000000000000000 ) ;
#1004 = VECTOR ( 'NONE', #357, 1000.000000000000000 ) ;
#1005 = VECTOR ( 'NONE', #58, 1000.000000000000000 ) ;
#1006 = ORIENTED_EDGE ( 'NONE', *, *, #789, .F. ) ;
#1007 = ADVANCED_FACE ( 'NONE', ( #695 ), #1282, .F. ) ;
#1008 = CARTESIAN_POINT ( 'NONE',  ( 50.65800094604500003, 73.70199890136701981, 2.000000000000000000 ) ) ;
#1009 = FACE_BOUND ( 'NONE', #718, .T. ) ;
#1010 = LINE ( 'NONE', #911, #306 ) ;
#1011 = ORIENTED_EDGE ( 'NONE', *, *, #207, .T. ) ;
#1012 = ORIENTED_EDGE ( 'NONE', *, *, #639, .F. ) ;
#1013 = MECHANICAL_DESIGN_GEOMETRIC_PRESENTATION_REPRESENTATION (  '', ( #294 ), #612 ) ;
#1014 = CARTESIAN_POINT ( 'NONE',  ( 56.60320397392883507, 71.48508158090106690, 2.000000000000000000 ) ) ;
#1015 = EDGE_CURVE ( 'NONE', #226, #1278, #991, .T. ) ;
#1016 = FACE_BOUND ( 'NONE', #217, .T. ) ;
#1017 = DIRECTION ( 'NONE',  ( 1.000000000000000000, 0.000000000000000000, 0.000000000000000000 ) ) ;
#1018 = EDGE_LOOP ( 'NONE', ( #1211, #1114, #1212, #902 ) ) ;
#1019 = DIRECTION ( 'NONE',  ( 0.000000000000000000, -1.000000000000000000, 0.000000000000000000 ) ) ;
#1020 = VERTEX_POINT ( 'NONE', #895 ) ;
#1021 = DIRECTION ( 'NONE',  ( -1.000000000000000000, -0.000000000000000000, -0.000000000000000000 ) ) ;
#1022 = CARTESIAN_POINT ( 'NONE',  ( 13.71247529139376198, 0.000000000000000000, 2.000000000000000000 ) ) ;
#1023 = LINE ( 'NONE', #1002, #543 ) ;
#1024 = VERTEX_POINT ( 'NONE', #1292 ) ;
#1025 = AXIS2_PLACEMENT_3D ( 'NONE', #448, #1205, #270 ) ;
#1026 = CARTESIAN_POINT ( 'NONE',  ( 53.30600094604466221, 66.57499890136696763, 2.000000000000000000 ) ) ;
#1027 = VECTOR ( 'NONE', #166, 1000.000000000000000 ) ;
#1028 = DIRECTION ( 'NONE',  ( 1.000000000000000000, 2.461698088679381068E-16, -0.000000000000000000 ) ) ;
#1029 = PLANE ( 'NONE',  #56 ) ;
#1030 = DIRECTION ( 'NONE',  ( 0.000000000000000000, 0.000000000000000000, -1.000000000000000000 ) ) ;
#1031 = EDGE_LOOP ( 'NONE', ( #205, #484, #1245, #528 ) ) ;
#1032 = CARTESIAN_POINT ( 'NONE',  ( 50.65800094604500003, 73.70199890136701981, 0.000000000000000000 ) ) ;
#1033 = ADVANCED_FACE ( 'NONE', ( #389 ), #901, .T. ) ;
#1034 = VECTOR ( 'NONE', #689, 1000.000000000000000 ) ;
#1035 = ORIENTED_EDGE ( 'NONE', *, *, #1188, .T. ) ;
#1036 = CARTESIAN_POINT ( 'NONE',  ( 13.87724180426212861, 4.981564326187250202, 2.000000000000000000 ) ) ;
#1037 = ORIENTED_EDGE ( 'NONE', *, *, #407, .F. ) ;
#1038 = DIRECTION ( 'NONE',  ( -1.000000000000000000, -0.000000000000000000, -0.000000000000000000 ) ) ;
#1039 = ADVANCED_FACE ( 'NONE', ( #1099 ), #62, .F. ) ;
#1040 = ORIENTED_EDGE ( 'NONE', *, *, #74, .F. ) ;
#1041 = EDGE_CURVE ( 'NONE', #927, #384, #606, .T. ) ;
#1042 = DIRECTION ( 'NONE',  ( 1.000000000000000000, 0.000000000000000000, 0.000000000000000000 ) ) ;
#1043 = CARTESIAN_POINT ( 'NONE',  ( 13.71247529139376198, 55.06052811971416361, 0.000000000000000000 ) ) ;
#1044 = CARTESIAN_POINT ( 'NONE',  ( 33.65029304469298665, 15.07248610966331803, 2.000000000000000000 ) ) ;
#1045 = ORIENTED_EDGE ( 'NONE', *, *, #1283, .T. ) ;
#1046 = DIRECTION ( 'NONE',  ( 0.000000000000000000, -1.000000000000000000, 0.000000000000000000 ) ) ;
#1047 = CIRCLE ( 'NONE', #919, 1.100000000000001199 ) ;
#1048 = ORIENTED_EDGE ( 'NONE', *, *, #1119, .T. ) ;
#1049 = AXIS2_PLACEMENT_3D ( 'NONE', #837, #728, #444 ) ;
#1050 = ADVANCED_FACE ( 'NONE', ( #100 ), #1121, .T. ) ;
#1051 = CARTESIAN_POINT ( 'NONE',  ( 59.65800094604500714, -2.498001098632996797, 0.000000000000000000 ) ) ;
#1052 = ORIENTED_EDGE ( 'NONE', *, *, #1156, .T. ) ;
#1053 = CARTESIAN_POINT ( 'NONE',  ( 3.276000946044667295, 66.72799890136695922, -36.02814615619893601 ) ) ;
#1054 = EDGE_LOOP ( 'NONE', ( #641, #691, #193, #754 ) ) ;
#1055 = CARTESIAN_POINT ( 'NONE',  ( 0.000000000000000000, 65.11340853431774178, 2.000000000000000000 ) ) ;
#1056 = ADVANCED_FACE ( 'NONE', ( #1231 ), #92, .F. ) ;
#1057 = CARTESIAN_POINT ( 'NONE',  ( 4.998000946044992787, 73.70199890136700560, 2.000000000000000000 ) ) ;
#1058 = DIRECTION ( 'NONE',  ( 1.719093174240459492E-16, -1.000000000000000000, 0.000000000000000000 ) ) ;
#1059 = ORIENTED_EDGE ( 'NONE', *, *, #504, .T. ) ;
#1060 = VERTEX_POINT ( 'NONE', #924 ) ;
#1061 = DIRECTION ( 'NONE',  ( -1.000000000000000000, 1.760989301504374138E-16, 0.000000000000000000 ) ) ;
#1062 = DIRECTION ( 'NONE',  ( 0.000000000000000000, 0.000000000000000000, 1.000000000000000000 ) ) ;
#1063 = LINE ( 'NONE', #545, #1197 ) ;
#1064 = ORIENTED_EDGE ( 'NONE', *, *, #115, .F. ) ;
#1065 = EDGE_LOOP ( 'NONE', ( #595, #724, #559, #28 ) ) ;
#1066 = VECTOR ( 'NONE', #17, 1000.000000000000000 ) ;
#1067 = VECTOR ( 'NONE', #273, 1000.000000000000000 ) ;
#1068 = CARTESIAN_POINT ( 'NONE',  ( 13.87724180426212861, 4.981564326187250202, 0.000000000000000000 ) ) ;
#1069 = CARTESIAN_POINT ( 'NONE',  ( 13.71247529139376198, 65.11340853431774178, 0.000000000000000000 ) ) ;
#1070 = LINE ( 'NONE', #143, #283 ) ;
#1071 = VERTEX_POINT ( 'NONE', #203 ) ;
#1072 = ADVANCED_FACE ( 'NONE', ( #1128 ), #325, .F. ) ;
#1073 = CARTESIAN_POINT ( 'NONE',  ( 43.40393525603455771, 4.928960542525273603, 5.000000000000000000 ) ) ;
#1074 = CARTESIAN_POINT ( 'NONE',  ( 59.65800094604500003, 64.70199890136701981, 2.000000000000000000 ) ) ;
#1075 = VECTOR ( 'NONE', #1309, 1000.000000000000000 ) ;
#1076 = AXIS2_PLACEMENT_3D ( 'NONE', #339, #1134, #1237 ) ;
#1077 = CARTESIAN_POINT ( 'NONE',  ( 43.40393525603455771, 15.07248610966331803, 5.000000000000000000 ) ) ;
#1078 = LINE ( 'NONE', #889, #175 ) ;
#1079 = EDGE_LOOP ( 'NONE', ( #1170, #2, #10, #650 ) ) ;
#1080 = EDGE_CURVE ( 'NONE', #390, #776, #209, .T. ) ;
#1081 = FACE_OUTER_BOUND ( 'NONE', #671, .T. ) ;
#1082 = DIRECTION ( 'NONE',  ( -0.000000000000000000, -1.000000000000000000, -0.000000000000000000 ) ) ;
#1083 = ORIENTED_EDGE ( 'NONE', *, *, #1106, .T. ) ;
#1084 = DIRECTION ( 'NONE',  ( -1.000000000000000000, 0.000000000000000000, 0.000000000000000000 ) ) ;
#1085 = ORIENTED_EDGE ( 'NONE', *, *, #1126, .T. ) ;
#1086 = DIRECTION ( 'NONE',  ( 1.387418376241074944E-16, -1.000000000000000000, 0.000000000000000000 ) ) ;
#1087 = AXIS2_PLACEMENT_3D ( 'NONE', #420, #11, #835 ) ;
#1088 = VECTOR ( 'NONE', #489, 1000.000000000000000 ) ;
#1089 = FACE_OUTER_BOUND ( 'NONE', #508, .T. ) ;
#1090 = AXIS2_PLACEMENT_3D ( 'NONE', #366, #658, #1061 ) ;
#1091 = ORIENTED_EDGE ( 'NONE', *, *, #4, .F. ) ;
#1092 = DIRECTION ( 'NONE',  ( 0.000000000000000000, 0.000000000000000000, -1.000000000000000000 ) ) ;
#1093 = ORIENTED_EDGE ( 'NONE', *, *, #1275, .T. ) ;
#1094 = CARTESIAN_POINT ( 'NONE',  ( 23.98644712270021273, 55.06052811971416361, 5.000000000000000000 ) ) ;
#1095 = CARTESIAN_POINT ( 'NONE',  ( 50.65800094604500003, 73.70199890136701981, 0.6333333333333334147 ) ) ;
#1096 = EDGE_CURVE ( 'NONE', #63, #384, #929, .T. ) ;
#1097 = EDGE_LOOP ( 'NONE', ( #271, #39, #360, #1037 ) ) ;
#1098 = VECTOR ( 'NONE', #659, 1000.000000000000000 ) ;
#1099 = FACE_OUTER_BOUND ( 'NONE', #1232, .T. ) ;
#1100 = EDGE_CURVE ( 'NONE', #563, #343, #628, .T. ) ;
#1101 = ORIENTED_EDGE ( 'NONE', *, *, #863, .T. ) ;
#1102 = DIRECTION ( 'NONE',  ( 0.000000000000000000, 1.000000000000000000, 0.000000000000000000 ) ) ;
#1103 = FACE_OUTER_BOUND ( 'NONE', #312, .T. ) ;
#1104 = DIRECTION ( 'NONE',  ( 0.000000000000000000, 0.000000000000000000, -1.000000000000000000 ) ) ;
#1105 = ORIENTED_EDGE ( 'NONE', *, *, #976, .T. ) ;
#1106 = EDGE_CURVE ( 'NONE', #226, #372, #424, .T. ) ;
#1107 = LINE ( 'NONE', #914, #590 ) ;
#1108 = AXIS2_PLACEMENT_3D ( 'NONE', #931, #1019, #1295 ) ;
#1109 = VECTOR ( 'NONE', #1192, 1000.000000000000227 ) ;
#1110 = LINE ( 'NONE', #318, #9 ) ;
#1111 = DIRECTION ( 'NONE',  ( -1.000000000000000000, 0.000000000000000000, 0.000000000000000000 ) ) ;
#1112 = VERTEX_POINT ( 'NONE', #710 ) ;
#1113 = EDGE_CURVE ( 'NONE', #333, #477, #157, .T. ) ;
#1114 = ORIENTED_EDGE ( 'NONE', *, *, #532, .T. ) ;
#1115 = CARTESIAN_POINT ( 'NONE',  ( 3.276000946044667295, 66.72799890136695922, -36.02814615619893601 ) ) ;
#1116 = ORIENTED_EDGE ( 'NONE', *, *, #815, .F. ) ;
#1117 = VECTOR ( 'NONE', #356, 1000.000000000000000 ) ;
#1118 = CARTESIAN_POINT ( 'NONE',  ( 58.51689465879314866, 69.24733636469031239, 2.000000000000000000 ) ) ;
#1119 = EDGE_CURVE ( 'NONE', #560, #264, #90, .T. ) ;
#1120 = FACE_BOUND ( 'NONE', #116, .T. ) ;
#1121 = CYLINDRICAL_SURFACE ( 'NONE', #323, 6.999999999999999112 ) ;
#1122 = EDGE_LOOP ( 'NONE', ( #108, #834 ) ) ;
#1123 = CARTESIAN_POINT ( 'NONE',  ( 13.71247529139376198, 65.11340853431774178, 2.000000000000000000 ) ) ;
#1124 = EDGE_LOOP ( 'NONE', ( #481, #771, #821, #912, #353, #1207, #814, #947 ) ) ;
#1125 = DIRECTION ( 'NONE',  ( 0.000000000000000000, 0.000000000000000000, -1.000000000000000000 ) ) ;
#1126 = EDGE_CURVE ( 'NONE', #1311, #1112, #620, .T. ) ;
#1127 = LINE ( 'NONE', #1043, #145 ) ;
#1128 = FACE_OUTER_BOUND ( 'NONE', #713, .T. ) ;
#1129 = ORIENTED_EDGE ( 'NONE', *, *, #782, .T. ) ;
#1130 = AXIS2_PLACEMENT_3D ( 'NONE', #1115, #507, #916 ) ;
#1131 = DIRECTION ( 'NONE',  ( 0.000000000000000000, 0.000000000000000000, -1.000000000000000000 ) ) ;
#1132 = ORIENTED_EDGE ( 'NONE', *, *, #1302, .T. ) ;
#1133 = CARTESIAN_POINT ( 'NONE',  ( 54.15264674755988494, 3.205038549915393276, 2.000000000000000000 ) ) ;
#1134 = DIRECTION ( 'NONE',  ( 0.000000000000000000, 0.000000000000000000, -1.000000000000000000 ) ) ;
#1135 = CARTESIAN_POINT ( 'NONE',  ( 55.25264674755988636, 3.205038549915393276, -36.02814615619893601 ) ) ;
#1136 = EDGE_CURVE ( 'NONE', #907, #1259, #1023, .T. ) ;
#1137 = VERTEX_POINT ( 'NONE', #500 ) ;
#1138 = CYLINDRICAL_SURFACE ( 'NONE', #1087, 1.099999999999996758 ) ;
#1139 = AXIS2_PLACEMENT_3D ( 'NONE', #395, #191, #910 ) ;
#1140 = AXIS2_PLACEMENT_3D ( 'NONE', #1208, #416, #923 ) ;
#1141 = VECTOR ( 'NONE', #1256, 1000.000000000000000 ) ;
#1142 = DIRECTION ( 'NONE',  ( 1.000000000000000000, -0.000000000000000000, 0.000000000000000000 ) ) ;
#1143 = CARTESIAN_POINT ( 'NONE',  ( 33.65029304469298665, 15.07248610966331803, 5.000000000000000000 ) ) ;
#1144 = DIRECTION ( 'NONE',  ( -0.000000000000000000, -0.000000000000000000, 1.000000000000000000 ) ) ;
#1145 = ORIENTED_EDGE ( 'NONE', *, *, #943, .F. ) ;
#1146 = CYLINDRICAL_SURFACE ( 'NONE', #623, 1.099999999999996758 ) ;
#1147 = ORIENTED_EDGE ( 'NONE', *, *, #1100, .F. ) ;
#1148 = EDGE_CURVE ( 'NONE', #144, #560, #1304, .T. ) ;
#1149 = CARTESIAN_POINT ( 'NONE',  ( 54.15264674755988494, 3.205038549915393276, 0.000000000000000000 ) ) ;
#1150 = ORIENTED_EDGE ( 'NONE', *, *, #806, .F. ) ;
#1151 = DIRECTION ( 'NONE',  ( 0.000000000000000000, 0.000000000000000000, 1.000000000000000000 ) ) ;
#1152 = VECTOR ( 'NONE', #292, 1000.000000000000000 ) ;
#1153 = CIRCLE ( 'NONE', #878, 1.099999999999996758 ) ;
#1154 = ORIENTED_EDGE ( 'NONE', *, *, #1195, .F. ) ;
#1155 = AXIS2_PLACEMENT_3D ( 'NONE', #243, #1235, #1042 ) ;
#1156 = EDGE_CURVE ( 'NONE', #555, #378, #808, .T. ) ;
#1157 = DIRECTION ( 'NONE',  ( -0.000000000000000000, 1.000000000000000000, 0.000000000000000000 ) ) ;
#1158 = CARTESIAN_POINT ( 'NONE',  ( 57.44108362557901870, 70.64720192923863351, -0.000000000000000000 ) ) ;
#1159 = DIRECTION ( 'NONE',  ( -0.000000000000000000, -0.000000000000000000, 1.000000000000000000 ) ) ;
#1160 = ORIENTED_EDGE ( 'NONE', *, *, #714, .F. ) ;
#1161 = ORIENTED_EDGE ( 'NONE', *, *, #1275, .F. ) ;
#1162 = VECTOR ( 'NONE', #31, 1000.000000000000000 ) ;
#1163 = DIRECTION ( 'NONE',  ( 0.000000000000000000, 0.000000000000000000, -1.000000000000000000 ) ) ;
#1164 = AXIS2_PLACEMENT_3D ( 'NONE', #487, #778, #970 ) ;
#1165 = CARTESIAN_POINT ( 'NONE',  ( 51.85122289774537307, 73.70199890136704823, 0.000000000000000000 ) ) ;
#1166 = EDGE_CURVE ( 'NONE', #210, #761, #1010, .T. ) ;
#1167 = CARTESIAN_POINT ( 'NONE',  ( 1.922021903402159948, 3.380005767011427409, 0.000000000000000000 ) ) ;
#1168 = ORIENTED_EDGE ( 'NONE', *, *, #1156, .F. ) ;
#1169 = DIRECTION ( 'NONE',  ( -0.000000000000000000, 1.000000000000000000, 0.000000000000000000 ) ) ;
#1170 = ORIENTED_EDGE ( 'NONE', *, *, #670, .T. ) ;
#1171 = FACE_OUTER_BOUND ( 'NONE', #129, .T. ) ;
#1172 = DIRECTION ( 'NONE',  ( -2.105799495116202281E-16, 1.000000000000000000, 0.000000000000000000 ) ) ;
#1173 = EDGE_CURVE ( 'NONE', #122, #77, #406, .T. ) ;
#1174 = ORIENTED_EDGE ( 'NONE', *, *, #59, .T. ) ;
#1175 = ORIENTED_EDGE ( 'NONE', *, *, #88, .F. ) ;
#1176 = LINE ( 'NONE', #267, #516 ) ;
#1177 = AXIS2_PLACEMENT_3D ( 'NONE', #669, #861, #1265 ) ;
#1178 = VECTOR ( 'NONE', #1163, 1000.000000000000000 ) ;
#1179 = FACE_OUTER_BOUND ( 'NONE', #781, .T. ) ;
#1180 = ORIENTED_EDGE ( 'NONE', *, *, #629, .F. ) ;
#1181 = CARTESIAN_POINT ( 'NONE',  ( 4.125584991616801034, 15.07248610966331626, 2.000000000000000000 ) ) ;
#1182 = EDGE_CURVE ( 'NONE', #1286, #657, #813, .T. ) ;
#1183 = VERTEX_POINT ( 'NONE', #1224 ) ;
#1184 = LINE ( 'NONE', #268, #184 ) ;
#1185 = ORIENTED_EDGE ( 'NONE', *, *, #849, .T. ) ;
#1186 = LINE ( 'NONE', #396, #541 ) ;
#1187 = ORIENTED_EDGE ( 'NONE', *, *, #1253, .T. ) ;
#1188 = EDGE_CURVE ( 'NONE', #315, #277, #717, .T. ) ;
#1189 = CARTESIAN_POINT ( 'NONE',  ( 59.65800094604500003, 73.70199890136700560, -0.1000000000000002692 ) ) ;
#1190 = ORIENTED_EDGE ( 'NONE', *, *, #1119, .F. ) ;
#1191 = B_SPLINE_CURVE_WITH_KNOTS ( 'NONE', 3,
 ( #752, #1165, #935, #944, #736, #1158, #551, #324, #22, #557, #561, #1243 ),
 .UNSPECIFIED., .F., .F.,
 ( 4, 2, 2, 2, 2, 4 ),
 ( 0.000000000000000000, 0.2499999999999994449, 0.4999999999999988898, 0.6249999999999986677, 0.7499999999999983347, 1.000000000000000000 ),
 .UNSPECIFIED. ) ;
#1192 = DIRECTION ( 'NONE',  ( 0.9999999939505700430, 0.0001099948173134369586, 0.000000000000000000 ) ) ;
#1193 = EDGE_LOOP ( 'NONE', ( #860, #1035, #473, #1150 ) ) ;
#1194 = LINE ( 'NONE', #512, #1152 ) ;
#1195 = EDGE_CURVE ( 'NONE', #779, #390, #983, .T. ) ;
#1196 = CARTESIAN_POINT ( 'NONE',  ( 53.25478145081195436, 65.08547442474340983, 2.000000000000000000 ) ) ;
#1197 = VECTOR ( 'NONE', #38, 1000.000000000000000 ) ;
#1198 = EDGE_LOOP ( 'NONE', ( #436, #1083, #810, #1045 ) ) ;
#1199 = DIRECTION ( 'NONE',  ( -0.9999999939505700430, -0.0001099948173134369586, 0.000000000000000000 ) ) ;
#1200 = ORIENTED_EDGE ( 'NONE', *, *, #422, .F. ) ;
#1201 = CARTESIAN_POINT ( 'NONE',  ( 0.000000000000000000, 54.89351411270024528, 2.000000000000000000 ) ) ;
#1202 = CARTESIAN_POINT ( 'NONE',  ( 43.57797558682614891, 65.08547442474340983, 0.000000000000000000 ) ) ;
#1203 = AXIS2_PLACEMENT_3D ( 'NONE', #80, #488, #574 ) ;
#1204 = FACE_OUTER_BOUND ( 'NONE', #1291, .T. ) ;
#1205 = DIRECTION ( 'NONE',  ( -1.000000000000000000, 0.000000000000000000, -0.000000000000000000 ) ) ;
#1206 = COLOUR_RGB ( '',0.7921568627450980005, 0.8196078431372548767, 0.9333333333333333481 ) ;
#1207 = ORIENTED_EDGE ( 'NONE', *, *, #618, .T. ) ;
#1208 = CARTESIAN_POINT ( 'NONE',  ( 3.022021903402160259, 3.380005767011427409, 0.000000000000000000 ) ) ;
#1209 = CARTESIAN_POINT ( 'NONE',  ( 13.87724180426212683, 15.07248610966331803, 5.000000000000000000 ) ) ;
#1210 = EDGE_CURVE ( 'NONE', #1024, #378, #26, .T. ) ;
#1211 = ORIENTED_EDGE ( 'NONE', *, *, #440, .T. ) ;
#1212 = ORIENTED_EDGE ( 'NONE', *, *, #1173, .F. ) ;
#1213 = CYLINDRICAL_SURFACE ( 'NONE', #442, 7.000000000000000000 ) ;
#1214 = VECTOR ( 'NONE', #1038, 1000.000000000000000 ) ;
#1215 = VECTOR ( 'NONE', #1, 1000.000000000000000 ) ;
#1216 = FACE_BOUND ( 'NONE', #138, .T. ) ;
#1217 = CARTESIAN_POINT ( 'NONE',  ( -0.0005416349730114613722, 4.924186274990180578, 2.000000000000000000 ) ) ;
#1218 = VECTOR ( 'NONE', #1017, 1000.000000000000000 ) ;
#1219 = AXIS2_PLACEMENT_3D ( 'NONE', #735, #1142, #1255 ) ;
#1220 = ORIENTED_EDGE ( 'NONE', *, *, #1080, .F. ) ;
#1221 = ORIENTED_EDGE ( 'NONE', *, *, #311, .T. ) ;
#1222 = SURFACE_STYLE_FILL_AREA ( #596 ) ;
#1223 = CARTESIAN_POINT ( 'NONE',  ( 0.000000000000000000, 0.000000000000000000, 0.000000000000000000 ) ) ;
#1224 = CARTESIAN_POINT ( 'NONE',  ( 50.65800094604500003, 73.70199890136701981, 0.000000000000000000 ) ) ;
#1225 = VERTEX_POINT ( 'NONE', #1167 ) ;
#1226 = CARTESIAN_POINT ( 'NONE',  ( 50.65800094604499293, 73.70199890136701981, 1.333333333333333481 ) ) ;
#1227 = EDGE_CURVE ( 'NONE', #560, #956, #348, .T. ) ;
#1228 = PRODUCT_CONTEXT ( 'NONE', #840, 'mechanical' ) ;
#1229 = PLANE ( 'NONE',  #804 ) ;
#1230 = CARTESIAN_POINT ( 'NONE',  ( 23.59274383753431792, 4.981564326187250202, 0.000000000000000000 ) ) ;
#1231 = FACE_OUTER_BOUND ( 'NONE', #212, .T. ) ;
#1232 = EDGE_LOOP ( 'NONE', ( #996, #289, #151, #614 ) ) ;
#1233 = DIRECTION ( 'NONE',  ( 0.000000000000000000, 0.000000000000000000, -1.000000000000000000 ) ) ;
#1234 = ORIENTED_EDGE ( 'NONE', *, *, #131, .F. ) ;
#1235 = DIRECTION ( 'NONE',  ( 0.000000000000000000, 0.000000000000000000, 1.000000000000000000 ) ) ;
#1236 = EDGE_CURVE ( 'NONE', #315, #668, #552, .T. ) ;
#1237 = DIRECTION ( 'NONE',  ( -1.000000000000000000, 0.000000000000000000, 0.000000000000000000 ) ) ;
#1238 = DIRECTION ( 'NONE',  ( -1.000000000000000000, 0.000000000000000000, 0.000000000000000000 ) ) ;
#1239 = VERTEX_POINT ( 'NONE', #839 ) ;
#1240 = AXIS2_PLACEMENT_3D ( 'NONE', #254, #663, #34 ) ;
#1241 = CARTESIAN_POINT ( 'NONE',  ( 23.98644712270021273, 65.12986164836351577, 0.000000000000000000 ) ) ;
#1242 = PLANE ( 'NONE',  #1219 ) ;
#1243 = CARTESIAN_POINT ( 'NONE',  ( 59.65800094604500003, 64.70199890136701981, 0.000000000000000000 ) ) ;
#1244 = LINE ( 'NONE', #1051, #726 ) ;
#1245 = ORIENTED_EDGE ( 'NONE', *, *, #1308, .F. ) ;
#1246 = CARTESIAN_POINT ( 'NONE',  ( 59.65800094604500003, 64.70199890136701981, 2.000000000000000000 ) ) ;
#1247 = ORIENTED_EDGE ( 'NONE', *, *, #465, .T. ) ;
#1248 = VECTOR ( 'NONE', #1250, 1000.000000000000000 ) ;
#1249 = CARTESIAN_POINT ( 'NONE',  ( 13.87724180426212861, 4.981564326187250202, 5.000000000000000000 ) ) ;
#1250 = DIRECTION ( 'NONE',  ( 0.000000000000000000, 0.000000000000000000, -1.000000000000000000 ) ) ;
#1251 = DIRECTION ( 'NONE',  ( -0.000000000000000000, -0.000000000000000000, 1.000000000000000000 ) ) ;
#1252 = VERTEX_POINT ( 'NONE', #640 ) ;
#1253 = EDGE_CURVE ( 'NONE', #210, #1225, #371, .T. ) ;
#1254 = ORIENTED_EDGE ( 'NONE', *, *, #881, .F. ) ;
#1255 = DIRECTION ( 'NONE',  ( 0.000000000000000000, 0.000000000000000000, -1.000000000000000000 ) ) ;
#1256 = DIRECTION ( 'NONE',  ( 0.000000000000000000, -1.000000000000000000, 0.000000000000000000 ) ) ;
#1257 = CARTESIAN_POINT ( 'NONE',  ( 3.276000946044667295, 66.72799890136695922, 2.000000000000000000 ) ) ;
#1258 = ORIENTED_EDGE ( 'NONE', *, *, #498, .T. ) ;
#1259 = VERTEX_POINT ( 'NONE', #1044 ) ;
#1260 = EDGE_CURVE ( 'NONE', #1137, #87, #331, .T. ) ;
#1261 = DIRECTION ( 'NONE',  ( -1.000000000000000000, 0.000000000000000000, 0.000000000000000000 ) ) ;
#1262 = CARTESIAN_POINT ( 'NONE',  ( 33.46530128803042459, 54.89351411270024528, 5.000000000000000000 ) ) ;
#1263 = DIRECTION ( 'NONE',  ( 1.000000000000000000, 0.000000000000000000, 0.000000000000000000 ) ) ;
#1264 = VERTEX_POINT ( 'NONE', #128 ) ;
#1265 = DIRECTION ( 'NONE',  ( -1.000000000000000000, 0.000000000000000000, 0.000000000000000000 ) ) ;
#1266 = ORIENTED_EDGE ( 'NONE', *, *, #1283, .F. ) ;
#1267 = DIRECTION ( 'NONE',  ( 0.000000000000000000, -1.000000000000000000, 0.000000000000000000 ) ) ;
#1268 = LINE ( 'NONE', #687, #679 ) ;
#1269 = VERTEX_POINT ( 'NONE', #648 ) ;
#1270 = DIRECTION ( 'NONE',  ( 1.000000000000000000, 0.000000000000000000, 0.000000000000000000 ) ) ;
#1271 = ORIENTED_EDGE ( 'NONE', *, *, #953, .F. ) ;
#1272 = CARTESIAN_POINT ( 'NONE',  ( 23.98644712270021273, 55.06052811971416361, 2.000000000000000000 ) ) ;
#1273 = ADVANCED_FACE ( 'NONE', ( #251 ), #439, .F. ) ;
#1274 = CARTESIAN_POINT ( 'NONE',  ( 33.46530128803042459, 54.89351411270024528, 2.000000000000000000 ) ) ;
#1275 = EDGE_CURVE ( 'NONE', #548, #264, #1244, .T. ) ;
#1276 = ORIENTED_EDGE ( 'NONE', *, *, #672, .T. ) ;
#1277 = DIRECTION ( 'NONE',  ( -0.000000000000000000, -0.000000000000000000, 1.000000000000000000 ) ) ;
#1278 = VERTEX_POINT ( 'NONE', #847 ) ;
#1279 = CARTESIAN_POINT ( 'NONE',  ( 0.000000000000000000, 55.06052811971416361, 2.000000000000000000 ) ) ;
#1280 = DIRECTION ( 'NONE',  ( -1.719093174240459492E-16, 1.000000000000000000, 0.000000000000000000 ) ) ;
#1281 = ORIENTED_EDGE ( 'NONE', *, *, #701, .T. ) ;
#1282 = CYLINDRICAL_SURFACE ( 'NONE', #690, 1.099999999999996758 ) ;
#1283 = EDGE_CURVE ( 'NONE', #1306, #1278, #141, .T. ) ;
#1284 = FACE_OUTER_BOUND ( 'NONE', #303, .T. ) ;
#1285 = CARTESIAN_POINT ( 'NONE',  ( -2.001999053954990782, -2.498001098633011896, 2.000000000000000000 ) ) ;
#1286 = VERTEX_POINT ( 'NONE', #452 ) ;
#1287 = CARTESIAN_POINT ( 'NONE',  ( 23.59274383753431792, 15.07248610966331803, 2.000000000000000000 ) ) ;
#1288 = EDGE_LOOP ( 'NONE', ( #1160, #538, #1190, #536 ) ) ;
#1289 = EDGE_CURVE ( 'NONE', #927, #154, #952, .T. ) ;
#1290 = FACE_OUTER_BOUND ( 'NONE', #230, .T. ) ;
#1291 = EDGE_LOOP ( 'NONE', ( #986, #643, #302, #403 ) ) ;
#1292 = CARTESIAN_POINT ( 'NONE',  ( 2.176000946044666318, 66.72799890136695922, 2.000000000000000000 ) ) ;
#1293 = ORIENTED_EDGE ( 'NONE', *, *, #4, .T. ) ;
#1294 = EDGE_CURVE ( 'NONE', #761, #817, #795, .T. ) ;
#1295 = DIRECTION ( 'NONE',  ( 0.000000000000000000, -0.000000000000000000, -1.000000000000000000 ) ) ;
#1296 = CIRCLE ( 'NONE', #1177, 1.099999999999996758 ) ;
#1297 = FILL_AREA_STYLE_COLOUR ( '', #1206 ) ;
#1298 = VECTOR ( 'NONE', #213, 1000.000000000000000 ) ;
#1299 = ORIENTED_EDGE ( 'NONE', *, *, #207, .F. ) ;
#1300 = CARTESIAN_POINT ( 'NONE',  ( 13.87724180426212683, 15.07248610966331803, 2.000000000000000000 ) ) ;
#1301 = ORIENTED_EDGE ( 'NONE', *, *, #385, .F. ) ;
#1302 = EDGE_CURVE ( 'NONE', #310, #1264, #1063, .T. ) ;
#1303 = CARTESIAN_POINT ( 'NONE',  ( 53.25478145081195436, 65.08547442474340983, 0.000000000000000000 ) ) ;
#1304 = LINE ( 'NONE', #400, #476 ) ;
#1305 = EDGE_LOOP ( 'NONE', ( #925, #984, #443, #337 ) ) ;
#1306 = VERTEX_POINT ( 'NONE', #660 ) ;
#1307 = DIRECTION ( 'NONE',  ( -1.000000000000000000, 0.000000000000000000, 0.000000000000000000 ) ) ;
#1308 = EDGE_CURVE ( 'NONE', #144, #824, #446, .T. ) ;
#1309 = DIRECTION ( 'NONE',  ( 0.000000000000000000, 0.000000000000000000, -1.000000000000000000 ) ) ;
#1310 = DIRECTION ( 'NONE',  ( -0.000000000000000000, -0.000000000000000000, 1.000000000000000000 ) ) ;
#1311 = VERTEX_POINT ( 'NONE', #853 ) ;
#1312 = PRESENTATION_STYLE_ASSIGNMENT (( #404 ) ) ;
#1313 = CIRCLE ( 'NONE', #579, 7.000000000000000000 ) ;
ENDSEC;
END-ISO-10303-21;
