ISO-10303-21;
HEADER;
FILE_DESCRIPTION (( 'STEP AP214' ),
    '1' );
FILE_NAME ('cubit3_wheel.STEP',
    '2025-07-20T04:31:05',
    ( '' ),
    ( '' ),
    'SwSTEP 2.0',
    'SolidWorks 2023',
    '' );
FILE_SCHEMA (( 'AUTOMOTIVE_DESIGN' ));
ENDSEC;

DATA;
#1 = DIRECTION ( 'NONE',  ( 1.000000000000000000, 0.000000000000000000, 0.000000000000000000 ) ) ;
#2 = EDGE_CURVE ( 'NONE', #527, #601, #446, .T. ) ;
#3 = EDGE_LOOP ( 'NONE', ( #228, #536, #423, #297 ) ) ;
#4 = PLANE ( 'NONE',  #513 ) ;
#5 = ORIENTED_EDGE ( 'NONE', *, *, #492, .F. ) ;
#6 = PLANE ( 'NONE',  #161 ) ;
#7 = ORIENTED_EDGE ( 'NONE', *, *, #135, .F. ) ;
#8 = PRODUCT ( 'cubit3_wheel', 'cubit3_wheel', '', ( #38 ) ) ;
#9 = CIRCLE ( 'NONE', #295, 3.000000000000000444 ) ;
#10 = DIRECTION ( 'NONE',  ( 1.000000000000000000, 0.000000000000000000, -0.000000000000000000 ) ) ;
#11 = ORIENTED_EDGE ( 'NONE', *, *, #468, .T. ) ;
#12 = VECTOR ( 'NONE', #579, 1000.000000000000000 ) ;
#13 = DIRECTION ( 'NONE',  ( -1.000000000000000000, 0.000000000000000000, -0.000000000000000000 ) ) ;
#14 = ORIENTED_EDGE ( 'NONE', *, *, #282, .T. ) ;
#15 = CARTESIAN_POINT ( 'NONE',  ( 0.000000000000000000, 0.000000000000000000, 4.291079919564339207 ) ) ;
#16 = ORIENTED_EDGE ( 'NONE', *, *, #492, .T. ) ;
#17 = CIRCLE ( 'NONE', #394, 3.000000000000000444 ) ;
#18 = ADVANCED_FACE ( 'NONE', ( #26 ), #210, .T. ) ;
#19 = CARTESIAN_POINT ( 'NONE',  ( -2.500000000000000000, 0.000000000000000000, 12.69999999999999929 ) ) ;
#20 = VERTEX_POINT ( 'NONE', #585 ) ;
#21 = AXIS2_PLACEMENT_3D ( 'NONE', #153, #244, #54 ) ;
#22 = CARTESIAN_POINT ( 'NONE',  ( -1.000000000000000000, 0.000000000000000000, 15.51999999999999957 ) ) ;
#23 = AXIS2_PLACEMENT_3D ( 'NONE', #117, #35, #352 ) ;
#24 = CYLINDRICAL_SURFACE ( 'NONE', #399, 2.020000000000000018 ) ;
#25 = CARTESIAN_POINT ( 'NONE',  ( 0.000000000000000000, 0.000000000000000000, 4.291079919564339207 ) ) ;
#26 = FACE_OUTER_BOUND ( 'NONE', #232, .T. ) ;
#27 = UNCERTAINTY_MEASURE_WITH_UNIT (LENGTH_MEASURE( 1.000000000000000082E-05 ), #420, 'distance_accuracy_value', 'NONE');
#28 = PRODUCT_DEFINITION ( 'UNKNOWN', '', #482, #99 ) ;
#29 = CARTESIAN_POINT ( 'NONE',  ( 0.000000000000000000, 0.000000000000000000, 12.69999999999999929 ) ) ;
#30 = DIRECTION ( 'NONE',  ( 1.000000000000000000, 0.000000000000000000, 0.000000000000000000 ) ) ;
#31 = AXIS2_PLACEMENT_3D ( 'NONE', #568, #103, #198 ) ;
#32 = DIRECTION ( 'NONE',  ( 0.000000000000000000, -1.000000000000000000, 0.000000000000000000 ) ) ;
#33 = DIRECTION ( 'NONE',  ( -1.000000000000000000, 0.000000000000000000, 0.000000000000000000 ) ) ;
#34 = DIRECTION ( 'NONE',  ( -1.000000000000000000, 0.000000000000000000, 0.000000000000000000 ) ) ;
#35 = DIRECTION ( 'NONE',  ( 1.224646799147353207E-16, 1.000000000000000000, -0.000000000000000000 ) ) ;
#36 = DIRECTION ( 'NONE',  ( 1.000000000000000000, 0.000000000000000000, -0.000000000000000000 ) ) ;
#37 = ORIENTED_EDGE ( 'NONE', *, *, #42, .T. ) ;
#38 = PRODUCT_CONTEXT ( 'NONE', #180, 'mechanical' ) ;
#39 = CARTESIAN_POINT ( 'NONE',  ( 0.000000000000000000, 0.000000000000000000, 12.69999999999999929 ) ) ;
#40 = CIRCLE ( 'NONE', #545, 9.751486082629755359 ) ;
#41 = ORIENTED_EDGE ( 'NONE', *, *, #529, .F. ) ;
#42 = EDGE_CURVE ( 'NONE', #114, #390, #453, .T. ) ;
#43 = FACE_OUTER_BOUND ( 'NONE', #318, .T. ) ;
#44 = ORIENTED_EDGE ( 'NONE', *, *, #548, .F. ) ;
#45 = ADVANCED_FACE ( 'NONE', ( #127, #124 ), #493, .T. ) ;
#46 = FILL_AREA_STYLE_COLOUR ( '', #600 ) ;
#47 = DIRECTION ( 'NONE',  ( 1.000000000000000000, 0.000000000000000000, 0.000000000000000000 ) ) ;
#48 = ORIENTED_EDGE ( 'NONE', *, *, #503, .T. ) ;
#49 = DIRECTION ( 'NONE',  ( 1.000000000000000000, 0.000000000000000000, -0.000000000000000000 ) ) ;
#50 = ORIENTED_EDGE ( 'NONE', *, *, #70, .F. ) ;
#51 = AXIS2_PLACEMENT_3D ( 'NONE', #537, #65, #253 ) ;
#52 = CYLINDRICAL_SURFACE ( 'NONE', #343, 1.000000000000000000 ) ;
#53 = VERTEX_POINT ( 'NONE', #501 ) ;
#54 = DIRECTION ( 'NONE',  ( -1.000000000000000000, 0.000000000000000000, 0.000000000000000000 ) ) ;
#55 = VERTEX_POINT ( 'NONE', #268 ) ;
#56 = EDGE_CURVE ( 'NONE', #55, #383, #184, .T. ) ;
#57 = AXIS2_PLACEMENT_3D ( 'NONE', #430, #194, #94 ) ;
#58 = DIRECTION ( 'NONE',  ( -0.000000000000000000, -0.000000000000000000, 1.000000000000000000 ) ) ;
#59 = EDGE_LOOP ( 'NONE', ( #376, #538, #245, #574 ) ) ;
#60 = AXIS2_PLACEMENT_3D ( 'NONE', #118, #504, #396 ) ;
#61 = CARTESIAN_POINT ( 'NONE',  ( 0.000000000000000000, 0.000000000000000000, 12.69999999999999929 ) ) ;
#62 = VERTEX_POINT ( 'NONE', #265 ) ;
#63 = CARTESIAN_POINT ( 'NONE',  ( 9.471207056481341979, 0.000000000000000000, 7.887262954957523498 ) ) ;
#64 = ORIENTED_EDGE ( 'NONE', *, *, #454, .F. ) ;
#65 = DIRECTION ( 'NONE',  ( -0.000000000000000000, -0.000000000000000000, -1.000000000000000000 ) ) ;
#66 = DIRECTION ( 'NONE',  ( -1.000000000000000000, 0.000000000000000000, 0.000000000000000000 ) ) ;
#67 = CIRCLE ( 'NONE', #428, 9.471207056481341979 ) ;
#68 = LINE ( 'NONE', #256, #415 ) ;
#69 = CARTESIAN_POINT ( 'NONE',  ( 0.000000000000000000, 0.000000000000000000, 6.199999999999999289 ) ) ;
#70 = EDGE_CURVE ( 'NONE', #107, #330, #288, .T. ) ;
#71 = DIRECTION ( 'NONE',  ( -1.000000000000000000, 1.224646799147353207E-16, 0.000000000000000000 ) ) ;
#72 = DIRECTION ( 'NONE',  ( -0.000000000000000000, -0.000000000000000000, 1.000000000000000000 ) ) ;
#73 = DIRECTION ( 'NONE',  ( 1.000000000000000000, 0.000000000000000000, 0.000000000000000000 ) ) ;
#74 = DIRECTION ( 'NONE',  ( 0.000000000000000000, 0.000000000000000000, 1.000000000000000000 ) ) ;
#75 = AXIS2_PLACEMENT_3D ( 'NONE', #325, #422, #189 ) ;
#76 = CARTESIAN_POINT ( 'NONE',  ( 0.000000000000000000, 0.000000000000000000, 7.887262954957523498 ) ) ;
#77 = AXIS2_PLACEMENT_3D ( 'NONE', #29, #494, #361 ) ;
#78 = DIRECTION ( 'NONE',  ( 0.000000000000000000, 0.000000000000000000, 1.000000000000000000 ) ) ;
#79 = AXIS2_PLACEMENT_3D ( 'NONE', #505, #179, #412 ) ;
#80 = PRODUCT_DEFINITION_SHAPE ( 'NONE', 'NONE',  #28 ) ;
#81 = CARTESIAN_POINT ( 'NONE',  ( 0.000000000000000000, 0.000000000000000000, -4.000000000000000000 ) ) ;
#82 = DIRECTION ( 'NONE',  ( -0.000000000000000000, -0.000000000000000000, 1.000000000000000000 ) ) ;
#83 = DIRECTION ( 'NONE',  ( -1.000000000000000000, 0.000000000000000000, 0.000000000000000000 ) ) ;
#84 = AXIS2_PLACEMENT_3D ( 'NONE', #93, #82, #275 ) ;
#85 = ORIENTED_EDGE ( 'NONE', *, *, #70, .T. ) ;
#86 = AXIS2_PLACEMENT_3D ( 'NONE', #15, #249, #345 ) ;
#87 = CYLINDRICAL_SURFACE ( 'NONE', #502, 3.000000000000000444 ) ;
#88 = CIRCLE ( 'NONE', #525, 9.751486082629755359 ) ;
#89 = ORIENTED_EDGE ( 'NONE', *, *, #291, .F. ) ;
#90 = EDGE_CURVE ( 'NONE', #62, #567, #102, .T. ) ;
#91 = CARTESIAN_POINT ( 'NONE',  ( 0.000000000000000000, 0.000000000000000000, 12.19999999999999929 ) ) ;
#92 = ORIENTED_EDGE ( 'NONE', *, *, #338, .F. ) ;
#93 = CARTESIAN_POINT ( 'NONE',  ( 0.000000000000000000, 0.000000000000000000, 6.089171437260931796 ) ) ;
#94 = DIRECTION ( 'NONE',  ( 1.000000000000000000, 0.000000000000000000, 0.000000000000000000 ) ) ;
#95 = ORIENTED_EDGE ( 'NONE', *, *, #239, .T. ) ;
#96 = AXIS2_PLACEMENT_3D ( 'NONE', #283, #139, #321 ) ;
#97 = ADVANCED_FACE ( 'NONE', ( #450 ), #24, .F. ) ;
#98 = DIRECTION ( 'NONE',  ( 1.000000000000000000, 0.000000000000000000, 0.000000000000000000 ) ) ;
#99 = PRODUCT_DEFINITION_CONTEXT ( 'detailed design', #150, 'design' ) ;
#100 = ORIENTED_EDGE ( 'NONE', *, *, #454, .T. ) ;
#101 = AXIS2_PLACEMENT_3D ( 'NONE', #491, #267, #461 ) ;
#102 = CIRCLE ( 'NONE', #507, 1.000000000000000000 ) ;
#103 = DIRECTION ( 'NONE',  ( 0.000000000000000000, 0.000000000000000000, 1.000000000000000000 ) ) ;
#104 = ADVANCED_FACE ( 'NONE', ( #404 ), #235, .T. ) ;
#105 = EDGE_LOOP ( 'NONE', ( #16, #473, #197, #581 ) ) ;
#106 = CARTESIAN_POINT ( 'NONE',  ( 0.000000000000000000, 0.000000000000000000, 6.089171437260931796 ) ) ;
#107 = VERTEX_POINT ( 'NONE', #541 ) ;
#108 = ADVANCED_FACE ( 'NONE', ( #172 ), #119, .T. ) ;
#109 = AXIS2_PLACEMENT_3D ( 'NONE', #480, #290, #445 ) ;
#110 = CARTESIAN_POINT ( 'NONE',  ( -3.974888734254872436, 4.867834765372104099E-16, 6.089171437260931796 ) ) ;
#111 = ORIENTED_EDGE ( 'NONE', *, *, #213, .T. ) ;
#112 = ADVANCED_FACE ( 'NONE', ( #309, #550 ), #218, .T. ) ;
#113 = CARTESIAN_POINT ( 'NONE',  ( 0.000000000000000000, 0.000000000000000000, -4.000000000000000000 ) ) ;
#114 = VERTEX_POINT ( 'NONE', #460 ) ;
#115 = EDGE_LOOP ( 'NONE', ( #259, #92 ) ) ;
#116 = CARTESIAN_POINT ( 'NONE',  ( 0.000000000000000000, 0.000000000000000000, 6.000000000000000000 ) ) ;
#117 = CARTESIAN_POINT ( 'NONE',  ( -4.000000000000000000, 4.898587196589412829E-16, 6.000000000000000000 ) ) ;
#118 = CARTESIAN_POINT ( 'NONE',  ( 0.000000000000000000, 0.000000000000000000, 15.51999999999999957 ) ) ;
#119 = CYLINDRICAL_SURFACE ( 'NONE', #360, 2.500000000000000000 ) ;
#120 = UNCERTAINTY_MEASURE_WITH_UNIT (LENGTH_MEASURE( 1.000000000000000082E-05 ), #138, 'distance_accuracy_value', 'NONE');
#121 = ORIENTED_EDGE ( 'NONE', *, *, #90, .T. ) ;
#122 = CIRCLE ( 'NONE', #182, 2.020000000000000018 ) ;
#123 = DIRECTION ( 'NONE',  ( -0.000000000000000000, -0.000000000000000000, -1.000000000000000000 ) ) ;
#124 = FACE_BOUND ( 'NONE', #115, .T. ) ;
#125 = ADVANCED_BREP_SHAPE_REPRESENTATION ( 'cubit3_wheel', ( #603, #341 ), #141 ) ;
#126 = DIRECTION ( 'NONE',  ( 0.000000000000000000, 0.000000000000000000, -1.000000000000000000 ) ) ;
#127 = FACE_OUTER_BOUND ( 'NONE', #448, .T. ) ;
#128 = CARTESIAN_POINT ( 'NONE',  ( 0.000000000000000000, 0.000000000000000000, -4.000000000000000000 ) ) ;
#129 = DIRECTION ( 'NONE',  ( 1.000000000000000000, 0.000000000000000000, 0.000000000000000000 ) ) ;
#130 = CIRCLE ( 'NONE', #474, 2.020000000000000018 ) ;
#131 = EDGE_CURVE ( 'NONE', #332, #379, #421, .T. ) ;
#132 = CIRCLE ( 'NONE', #451, 4.000000000000000000 ) ;
#133 = PLANE ( 'NONE',  #143 ) ;
#134 =( NAMED_UNIT ( * ) SI_UNIT ( $, .STERADIAN. ) SOLID_ANGLE_UNIT ( ) );
#135 = EDGE_CURVE ( 'NONE', #330, #107, #17, .T. ) ;
#136 = DIRECTION ( 'NONE',  ( 0.000000000000000000, 0.000000000000000000, 1.000000000000000000 ) ) ;
#137 = ORIENTED_EDGE ( 'NONE', *, *, #582, .F. ) ;
#138 =( LENGTH_UNIT ( ) NAMED_UNIT ( * ) SI_UNIT ( .MILLI., .METRE. ) );
#139 = DIRECTION ( 'NONE',  ( 0.000000000000000000, 0.000000000000000000, 1.000000000000000000 ) ) ;
#140 = EDGE_CURVE ( 'NONE', #381, #20, #425, .T. ) ;
#141 =( GEOMETRIC_REPRESENTATION_CONTEXT ( 3 ) GLOBAL_UNCERTAINTY_ASSIGNED_CONTEXT ( ( #120 ) ) GLOBAL_UNIT_ASSIGNED_CONTEXT ( ( #138, #367, #134 ) ) REPRESENTATION_CONTEXT ( 'NONE', 'WORKASPACE' ) );
#142 = ORIENTED_EDGE ( 'NONE', *, *, #529, .T. ) ;
#143 = AXIS2_PLACEMENT_3D ( 'NONE', #277, #315, #36 ) ;
#144 = CARTESIAN_POINT ( 'NONE',  ( 3.000000000000000444, 0.000000000000000000, -4.000000000000000000 ) ) ;
#145 = AXIS2_PLACEMENT_3D ( 'NONE', #543, #123, #584 ) ;
#146 = VERTEX_POINT ( 'NONE', #221 ) ;
#147 = CARTESIAN_POINT ( 'NONE',  ( 0.000000000000000000, 0.000000000000000000, -1.500000000000000000 ) ) ;
#148 = ORIENTED_EDGE ( 'NONE', *, *, #503, .F. ) ;
#149 = DIRECTION ( 'NONE',  ( -0.000000000000000000, -0.000000000000000000, -1.000000000000000000 ) ) ;
#150 = APPLICATION_CONTEXT ( 'automotive_design' ) ;
#151 = ORIENTED_EDGE ( 'NONE', *, *, #597, .T. ) ;
#152 = EDGE_CURVE ( 'NONE', #193, #173, #171, .T. ) ;
#153 = CARTESIAN_POINT ( 'NONE',  ( 0.000000000000000000, 0.000000000000000000, -1.500000000000000000 ) ) ;
#154 = VERTEX_POINT ( 'NONE', #312 ) ;
#155 = MECHANICAL_DESIGN_GEOMETRIC_PRESENTATION_REPRESENTATION (  '', ( #226 ), #174 ) ;
#156 = DIRECTION ( 'NONE',  ( 1.000000000000000000, 0.000000000000000000, 0.000000000000000000 ) ) ;
#157 = ORIENTED_EDGE ( 'NONE', *, *, #495, .T. ) ;
#158 = FACE_OUTER_BOUND ( 'NONE', #274, .T. ) ;
#159 = EDGE_CURVE ( 'NONE', #527, #146, #484, .T. ) ;
#160 = ORIENTED_EDGE ( 'NONE', *, *, #375, .T. ) ;
#161 = AXIS2_PLACEMENT_3D ( 'NONE', #113, #296, #196 ) ;
#162 = CARTESIAN_POINT ( 'NONE',  ( 0.000000000000000000, 0.000000000000000000, 0.000000000000000000 ) ) ;
#163 = EDGE_LOOP ( 'NONE', ( #121, #444 ) ) ;
#164 = AXIS2_PLACEMENT_3D ( 'NONE', #540, #32, #403 ) ;
#165 = VECTOR ( 'NONE', #304, 1000.000000000000000 ) ;
#166 = DIRECTION ( 'NONE',  ( -0.000000000000000000, -0.000000000000000000, -1.000000000000000000 ) ) ;
#167 = EDGE_LOOP ( 'NONE', ( #559, #564 ) ) ;
#168 = CARTESIAN_POINT ( 'NONE',  ( 1.000000000000000000, 1.224646799147352961E-16, 15.51999999999999957 ) ) ;
#169 = ADVANCED_FACE ( 'NONE', ( #561, #227 ), #4, .T. ) ;
#170 = DIRECTION ( 'NONE',  ( 0.000000000000000000, 0.000000000000000000, 1.000000000000000000 ) ) ;
#171 = CIRCLE ( 'NONE', #589, 4.000000000000000000 ) ;
#172 = FACE_OUTER_BOUND ( 'NONE', #481, .T. ) ;
#173 = VERTEX_POINT ( 'NONE', #555 ) ;
#174 =( GEOMETRIC_REPRESENTATION_CONTEXT ( 3 ) GLOBAL_UNCERTAINTY_ASSIGNED_CONTEXT ( ( #27 ) ) GLOBAL_UNIT_ASSIGNED_CONTEXT ( ( #420, #611, #363 ) ) REPRESENTATION_CONTEXT ( 'NONE', 'WORKASPACE' ) );
#175 = CARTESIAN_POINT ( 'NONE',  ( 0.000000000000000000, 0.000000000000000000, 12.19999999999999929 ) ) ;
#176 = DIRECTION ( 'NONE',  ( -0.000000000000000000, -0.000000000000000000, 1.000000000000000000 ) ) ;
#177 = DIRECTION ( 'NONE',  ( -0.000000000000000000, -0.000000000000000000, 1.000000000000000000 ) ) ;
#178 = EDGE_CURVE ( 'NONE', #336, #332, #405, .T. ) ;
#179 = DIRECTION ( 'NONE',  ( 0.000000000000000000, -0.000000000000000000, 1.000000000000000000 ) ) ;
#180 = APPLICATION_CONTEXT ( 'automotive_design' ) ;
#181 = SURFACE_STYLE_FILL_AREA ( #606 ) ;
#182 = AXIS2_PLACEMENT_3D ( 'NONE', #128, #377, #34 ) ;
#183 = FACE_OUTER_BOUND ( 'NONE', #163, .T. ) ;
#184 = CIRCLE ( 'NONE', #23, 6.000000000000000000 ) ;
#185 = VERTEX_POINT ( 'NONE', #472 ) ;
#186 = SURFACE_STYLE_USAGE ( .BOTH. , #314 ) ;
#187 = CARTESIAN_POINT ( 'NONE',  ( 9.751486082629755359, 0.000000000000000000, 4.291079919564339207 ) ) ;
#188 = ORIENTED_EDGE ( 'NONE', *, *, #499, .F. ) ;
#189 = DIRECTION ( 'NONE',  ( 1.000000000000000000, 0.000000000000000000, 0.000000000000000000 ) ) ;
#190 = EDGE_LOOP ( 'NONE', ( #5, #414 ) ) ;
#191 = AXIS2_PLACEMENT_3D ( 'NONE', #106, #58, #531 ) ;
#192 = CARTESIAN_POINT ( 'NONE',  ( 0.000000000000000000, 0.000000000000000000, 0.000000000000000000 ) ) ;
#193 = VERTEX_POINT ( 'NONE', #329 ) ;
#194 = DIRECTION ( 'NONE',  ( 0.000000000000000000, 0.000000000000000000, 1.000000000000000000 ) ) ;
#195 = ORIENTED_EDGE ( 'NONE', *, *, #178, .T. ) ;
#196 = DIRECTION ( 'NONE',  ( -1.000000000000000000, 0.000000000000000000, -0.000000000000000000 ) ) ;
#197 = ORIENTED_EDGE ( 'NONE', *, *, #570, .F. ) ;
#198 = DIRECTION ( 'NONE',  ( 1.000000000000000000, 0.000000000000000000, 0.000000000000000000 ) ) ;
#199 = VERTEX_POINT ( 'NONE', #604 ) ;
#200 = ADVANCED_FACE ( 'NONE', ( #272 ), #317, .T. ) ;
#201 = FACE_OUTER_BOUND ( 'NONE', #488, .T. ) ;
#202 = ORIENTED_EDGE ( 'NONE', *, *, #282, .F. ) ;
#203 = CARTESIAN_POINT ( 'NONE',  ( 2.020000000000000018, 2.473786534277653917E-16, -4.000000000000000000 ) ) ;
#204 = EDGE_LOOP ( 'NONE', ( #346, #236, #569, #465 ) ) ;
#205 = EDGE_LOOP ( 'NONE', ( #556, #562, #393, #467 ) ) ;
#206 = AXIS2_PLACEMENT_3D ( 'NONE', #147, #464, #368 ) ;
#207 = CARTESIAN_POINT ( 'NONE',  ( -2.020000000000000018, 0.000000000000000000, -1.500000000000000000 ) ) ;
#208 = DIRECTION ( 'NONE',  ( -0.000000000000000000, -0.000000000000000000, -1.000000000000000000 ) ) ;
#209 = CIRCLE ( 'NONE', #553, 1.000000000000000000 ) ;
#210 = TOROIDAL_SURFACE ( 'NONE', #554, 4.000000000000000000, 6.000000000000000000 ) ;
#211 = DIRECTION ( 'NONE',  ( -0.000000000000000000, -0.000000000000000000, -1.000000000000000000 ) ) ;
#212 = DIRECTION ( 'NONE',  ( -0.000000000000000000, -0.000000000000000000, -1.000000000000000000 ) ) ;
#213 = EDGE_CURVE ( 'NONE', #146, #527, #320, .T. ) ;
#214 = DIRECTION ( 'NONE',  ( 1.000000000000000000, 0.000000000000000000, 0.000000000000000000 ) ) ;
#215 = CARTESIAN_POINT ( 'NONE',  ( 0.000000000000000000, 0.000000000000000000, -4.000000000000000000 ) ) ;
#216 = CARTESIAN_POINT ( 'NONE',  ( 2.500000000000000000, 3.061616997868383141E-16, 12.69999999999999929 ) ) ;
#217 = AXIS2_PLACEMENT_3D ( 'NONE', #466, #371, #426 ) ;
#218 = PLANE ( 'NONE',  #573 ) ;
#219 = DIRECTION ( 'NONE',  ( -0.000000000000000000, -0.000000000000000000, -1.000000000000000000 ) ) ;
#220 = EDGE_CURVE ( 'NONE', #583, #390, #285, .T. ) ;
#221 = CARTESIAN_POINT ( 'NONE',  ( 2.500000000000000000, 3.061616997868383141E-16, 12.69999999999999929 ) ) ;
#222 = DIRECTION ( 'NONE',  ( 1.000000000000000000, 0.000000000000000000, 0.000000000000000000 ) ) ;
#223 = DIRECTION ( 'NONE',  ( 0.000000000000000000, -1.000000000000000000, 0.000000000000000000 ) ) ;
#224 = ORIENTED_EDGE ( 'NONE', *, *, #327, .F. ) ;
#225 = CARTESIAN_POINT ( 'NONE',  ( 0.000000000000000000, 0.000000000000000000, 0.000000000000000000 ) ) ;
#226 = STYLED_ITEM ( 'NONE', ( #323 ), #603 ) ;
#227 = FACE_OUTER_BOUND ( 'NONE', #490, .T. ) ;
#228 = ORIENTED_EDGE ( 'NONE', *, *, #42, .F. ) ;
#229 = APPLICATION_PROTOCOL_DEFINITION ( 'draft international standard', 'automotive_design', 1998, #150 ) ;
#230 = ORIENTED_EDGE ( 'NONE', *, *, #220, .F. ) ;
#231 = DIRECTION ( 'NONE',  ( 0.000000000000000000, 0.000000000000000000, 1.000000000000000000 ) ) ;
#232 = EDGE_LOOP ( 'NONE', ( #248, #397, #157, #455 ) ) ;
#233 = CIRCLE ( 'NONE', #86, 9.471207056481341979 ) ;
#234 = CARTESIAN_POINT ( 'NONE',  ( 0.000000000000000000, 0.000000000000000000, 12.69999999999999929 ) ) ;
#235 = TOROIDAL_SURFACE ( 'NONE', #580, 4.000000000000000000, 6.000000000000000000 ) ;
#236 = ORIENTED_EDGE ( 'NONE', *, *, #565, .T. ) ;
#237 = CARTESIAN_POINT ( 'NONE',  ( -3.000000000000000444, 3.673940397442060361E-16, -4.000000000000000000 ) ) ;
#238 = EDGE_LOOP ( 'NONE', ( #485, #372 ) ) ;
#239 = EDGE_CURVE ( 'NONE', #114, #185, #130, .T. ) ;
#240 = CARTESIAN_POINT ( 'NONE',  ( 9.471207056481341979, 0.000000000000000000, 4.291079919564339207 ) ) ;
#241 = VERTEX_POINT ( 'NONE', #187 ) ;
#242 = AXIS2_PLACEMENT_3D ( 'NONE', #599, #223, #280 ) ;
#243 = EDGE_CURVE ( 'NONE', #185, #114, #264, .T. ) ;
#244 = DIRECTION ( 'NONE',  ( -0.000000000000000000, -0.000000000000000000, -1.000000000000000000 ) ) ;
#245 = ORIENTED_EDGE ( 'NONE', *, *, #131, .F. ) ;
#246 = TOROIDAL_SURFACE ( 'NONE', #84, 3.974888734254872436, 5.782961888622025981 ) ;
#247 = PLANE ( 'NONE',  #610 ) ;
#248 = ORIENTED_EDGE ( 'NONE', *, *, #539, .F. ) ;
#249 = DIRECTION ( 'NONE',  ( -0.000000000000000000, -0.000000000000000000, 1.000000000000000000 ) ) ;
#250 = ORIENTED_EDGE ( 'NONE', *, *, #239, .F. ) ;
#251 = ORIENTED_EDGE ( 'NONE', *, *, #300, .F. ) ;
#252 = AXIS2_PLACEMENT_3D ( 'NONE', #592, #176, #359 ) ;
#253 = DIRECTION ( 'NONE',  ( -1.000000000000000000, 0.000000000000000000, 0.000000000000000000 ) ) ;
#254 = CARTESIAN_POINT ( 'NONE',  ( 0.000000000000000000, 0.000000000000000000, 15.51999999999999957 ) ) ;
#255 = AXIS2_PLACEMENT_3D ( 'NONE', #411, #508, #424 ) ;
#256 = CARTESIAN_POINT ( 'NONE',  ( -3.000000000000000444, 3.673940397442060361E-16, -4.000000000000000000 ) ) ;
#257 = DIRECTION ( 'NONE',  ( -0.000000000000000000, -0.000000000000000000, -1.000000000000000000 ) ) ;
#258 = ADVANCED_FACE ( 'NONE', ( #183 ), #133, .T. ) ;
#259 = ORIENTED_EDGE ( 'NONE', *, *, #431, .F. ) ;
#260 = CARTESIAN_POINT ( 'NONE',  ( 0.000000000000000000, 0.000000000000000000, 0.000000000000000000 ) ) ;
#261 = DIRECTION ( 'NONE',  ( -1.000000000000000000, 0.000000000000000000, -0.000000000000000000 ) ) ;
#262 = ADVANCED_FACE ( 'NONE', ( #558, #413 ), #520, .T. ) ;
#263 = CARTESIAN_POINT ( 'NONE',  ( 0.000000000000000000, 0.000000000000000000, 12.69999999999999929 ) ) ;
#264 = CIRCLE ( 'NONE', #206, 2.020000000000000018 ) ;
#265 = CARTESIAN_POINT ( 'NONE',  ( -1.000000000000000000, 0.000000000000000000, 15.51999999999999957 ) ) ;
#266 = VECTOR ( 'NONE', #208, 1000.000000000000000 ) ;
#267 = DIRECTION ( 'NONE',  ( 0.000000000000000000, -1.000000000000000000, 0.000000000000000000 ) ) ;
#268 = CARTESIAN_POINT ( 'NONE',  ( -4.000000000000000000, 8.420356707305952073E-16, 0.000000000000000000 ) ) ;
#269 = DIRECTION ( 'NONE',  ( 0.000000000000000000, 0.000000000000000000, -1.000000000000000000 ) ) ;
#270 = APPLICATION_PROTOCOL_DEFINITION ( 'draft international standard', 'automotive_design', 1998, #180 ) ;
#271 = AXIS2_PLACEMENT_3D ( 'NONE', #61, #436, #340 ) ;
#272 = FACE_OUTER_BOUND ( 'NONE', #521, .T. ) ;
#273 = ADVANCED_FACE ( 'NONE', ( #514 ), #87, .T. ) ;
#274 = EDGE_LOOP ( 'NONE', ( #535, #322 ) ) ;
#275 = DIRECTION ( 'NONE',  ( 1.000000000000000000, 0.000000000000000000, 0.000000000000000000 ) ) ;
#276 = AXIS2_PLACEMENT_3D ( 'NONE', #260, #456, #406 ) ;
#277 = CARTESIAN_POINT ( 'NONE',  ( 0.000000000000000000, 0.000000000000000000, 15.51999999999999957 ) ) ;
#278 = ORIENTED_EDGE ( 'NONE', *, *, #565, .F. ) ;
#279 = ADVANCED_FACE ( 'NONE', ( #43 ), #598, .T. ) ;
#280 = DIRECTION ( 'NONE',  ( 0.000000000000000000, 0.000000000000000000, -1.000000000000000000 ) ) ;
#281 = VERTEX_POINT ( 'NONE', #608 ) ;
#282 = EDGE_CURVE ( 'NONE', #107, #154, #374, .T. ) ;
#283 = CARTESIAN_POINT ( 'NONE',  ( 0.000000000000000000, 0.000000000000000000, 12.19999999999999929 ) ) ;
#284 = ORIENTED_EDGE ( 'NONE', *, *, #300, .T. ) ;
#285 = CIRCLE ( 'NONE', #576, 2.020000000000000018 ) ;
#286 = CARTESIAN_POINT ( 'NONE',  ( 0.000000000000000000, 0.000000000000000000, 15.51999999999999957 ) ) ;
#287 = AXIS2_PLACEMENT_3D ( 'NONE', #303, #500, #71 ) ;
#288 = CIRCLE ( 'NONE', #429, 3.000000000000000444 ) ;
#289 = ORIENTED_EDGE ( 'NONE', *, *, #159, .F. ) ;
#290 = DIRECTION ( 'NONE',  ( -0.000000000000000000, -0.000000000000000000, 1.000000000000000000 ) ) ;
#291 = EDGE_CURVE ( 'NONE', #601, #199, #560, .T. ) ;
#292 = ORIENTED_EDGE ( 'NONE', *, *, #591, .F. ) ;
#293 = CARTESIAN_POINT ( 'NONE',  ( 0.000000000000000000, 0.000000000000000000, -1.500000000000000000 ) ) ;
#294 = ORIENTED_EDGE ( 'NONE', *, *, #375, .F. ) ;
#295 = AXIS2_PLACEMENT_3D ( 'NONE', #192, #378, #98 ) ;
#296 = DIRECTION ( 'NONE',  ( 0.000000000000000000, 0.000000000000000000, -1.000000000000000000 ) ) ;
#297 = ORIENTED_EDGE ( 'NONE', *, *, #220, .T. ) ;
#298 = DIRECTION ( 'NONE',  ( -1.000000000000000000, 1.224646799147353207E-16, 0.000000000000000000 ) ) ;
#299 = ORIENTED_EDGE ( 'NONE', *, *, #522, .T. ) ;
#300 = EDGE_CURVE ( 'NONE', #432, #154, #9, .T. ) ;
#301 = DIRECTION ( 'NONE',  ( 0.000000000000000000, 0.000000000000000000, 1.000000000000000000 ) ) ;
#302 = CARTESIAN_POINT ( 'NONE',  ( 2.020000000000000018, 2.473786534277653917E-16, -1.500000000000000000 ) ) ;
#303 = CARTESIAN_POINT ( 'NONE',  ( -4.000000000000000000, 4.898587196589412829E-16, 6.199999999999999289 ) ) ;
#304 = DIRECTION ( 'NONE',  ( -0.000000000000000000, -0.000000000000000000, -1.000000000000000000 ) ) ;
#305 = VECTOR ( 'NONE', #211, 1000.000000000000000 ) ;
#306 = LINE ( 'NONE', #216, #386 ) ;
#307 = CARTESIAN_POINT ( 'NONE',  ( 0.000000000000000000, 10.59910082667283326, 7.887262954957523498 ) ) ;
#308 = DIRECTION ( 'NONE',  ( 1.000000000000000000, 0.000000000000000000, 0.000000000000000000 ) ) ;
#309 = FACE_OUTER_BOUND ( 'NONE', #190, .T. ) ;
#310 = LINE ( 'NONE', #22, #305 ) ;
#311 = AXIS2_PLACEMENT_3D ( 'NONE', #91, #231, #1 ) ;
#312 = CARTESIAN_POINT ( 'NONE',  ( 3.000000000000000444, 0.000000000000000000, 0.000000000000000000 ) ) ;
#313 = VECTOR ( 'NONE', #166, 1000.000000000000000 ) ;
#314 = SURFACE_SIDE_STYLE ('',( #181 ) ) ;
#315 = DIRECTION ( 'NONE',  ( 0.000000000000000000, 0.000000000000000000, 1.000000000000000000 ) ) ;
#316 = ADVANCED_FACE ( 'NONE', ( #523 ), #391, .T. ) ;
#317 = CYLINDRICAL_SURFACE ( 'NONE', #217, 3.000000000000000444 ) ;
#318 = EDGE_LOOP ( 'NONE', ( #441, #137, #299, #11 ) ) ;
#319 = SHAPE_DEFINITION_REPRESENTATION ( #80, #125 ) ;
#320 = CIRCLE ( 'NONE', #57, 2.500000000000000000 ) ;
#321 = DIRECTION ( 'NONE',  ( 1.000000000000000000, 0.000000000000000000, -0.000000000000000000 ) ) ;
#322 = ORIENTED_EDGE ( 'NONE', *, *, #602, .T. ) ;
#323 = PRESENTATION_STYLE_ASSIGNMENT (( #186 ) ) ;
#324 = CIRCLE ( 'NONE', #77, 1.000000000000000000 ) ;
#325 = CARTESIAN_POINT ( 'NONE',  ( 0.000000000000000000, 0.000000000000000000, 6.000000000000000000 ) ) ;
#326 = EDGE_LOOP ( 'NONE', ( #89, #224 ) ) ;
#327 = EDGE_CURVE ( 'NONE', #199, #601, #353, .T. ) ;
#328 = CARTESIAN_POINT ( 'NONE',  ( -2.500000000000000000, 0.000000000000000000, 12.19999999999999929 ) ) ;
#329 = CARTESIAN_POINT ( 'NONE',  ( -4.000000000000000000, 8.424269812101844304E-16, 12.19999999999999929 ) ) ;
#330 = VERTEX_POINT ( 'NONE', #237 ) ;
#331 = CYLINDRICAL_SURFACE ( 'NONE', #21, 2.020000000000000018 ) ;
#332 = VERTEX_POINT ( 'NONE', #63 ) ;
#333 = VECTOR ( 'NONE', #518, 1000.000000000000000 ) ;
#334 = CARTESIAN_POINT ( 'NONE',  ( -9.471207056481341979, 1.159888340578170064E-15, 7.887262954957523498 ) ) ;
#335 = CIRCLE ( 'NONE', #164, 6.000000000000000000 ) ;
#336 = VERTEX_POINT ( 'NONE', #240 ) ;
#337 = CARTESIAN_POINT ( 'NONE',  ( -3.000000000000000444, 3.673940397442060361E-16, 0.000000000000000000 ) ) ;
#338 = EDGE_CURVE ( 'NONE', #53, #336, #233, .T. ) ;
#339 = ORIENTED_EDGE ( 'NONE', *, *, #586, .F. ) ;
#340 = DIRECTION ( 'NONE',  ( -1.000000000000000000, 0.000000000000000000, 0.000000000000000000 ) ) ;
#341 = AXIS2_PLACEMENT_3D ( 'NONE', #225, #416, #517 ) ;
#342 = ORIENTED_EDGE ( 'NONE', *, *, #135, .T. ) ;
#343 = AXIS2_PLACEMENT_3D ( 'NONE', #286, #149, #478 ) ;
#344 = ORIENTED_EDGE ( 'NONE', *, *, #355, .F. ) ;
#345 = DIRECTION ( 'NONE',  ( 1.000000000000000000, 0.000000000000000000, 0.000000000000000000 ) ) ;
#346 = ORIENTED_EDGE ( 'NONE', *, *, #213, .F. ) ;
#347 = CIRCLE ( 'NONE', #101, 6.000000000000000000 ) ;
#348 = CYLINDRICAL_SURFACE ( 'NONE', #51, 1.000000000000000000 ) ;
#349 = EDGE_LOOP ( 'NONE', ( #41, #251 ) ) ;
#350 = ORIENTED_EDGE ( 'NONE', *, *, #2, .T. ) ;
#351 = LINE ( 'NONE', #207, #12 ) ;
#352 = DIRECTION ( 'NONE',  ( -1.000000000000000000, 1.224646799147353207E-16, 0.000000000000000000 ) ) ;
#353 = CIRCLE ( 'NONE', #31, 2.500000000000000000 ) ;
#354 = CARTESIAN_POINT ( 'NONE',  ( -1.000000000000000000, 0.000000000000000000, 12.69999999999999929 ) ) ;
#355 = EDGE_CURVE ( 'NONE', #53, #379, #437, .T. ) ;
#356 = DIRECTION ( 'NONE',  ( -1.000000000000000000, 0.000000000000000000, 0.000000000000000000 ) ) ;
#357 = CIRCLE ( 'NONE', #516, 9.757876667733341947 ) ;
#358 = CARTESIAN_POINT ( 'NONE',  ( -2.020000000000000018, 0.000000000000000000, -4.000000000000000000 ) ) ;
#359 = DIRECTION ( 'NONE',  ( -1.000000000000000000, 0.000000000000000000, 0.000000000000000000 ) ) ;
#360 = AXIS2_PLACEMENT_3D ( 'NONE', #547, #257, #356 ) ;
#361 = DIRECTION ( 'NONE',  ( 1.000000000000000000, 0.000000000000000000, 0.000000000000000000 ) ) ;
#362 = DIRECTION ( 'NONE',  ( 0.000000000000000000, 0.000000000000000000, 1.000000000000000000 ) ) ;
#363 =( NAMED_UNIT ( * ) SI_UNIT ( $, .STERADIAN. ) SOLID_ANGLE_UNIT ( ) );
#364 = DIRECTION ( 'NONE',  ( 0.000000000000000000, 0.000000000000000000, -1.000000000000000000 ) ) ;
#365 = CIRCLE ( 'NONE', #60, 1.000000000000000000 ) ;
#366 = CLOSED_SHELL ( 'NONE', ( #442, #200, #419, #607, #389, #316, #104, #18, #262, #108, #169, #511, #258, #112, #45, #384, #435, #97, #402, #273, #392, #279 ) ) ;
#367 =( NAMED_UNIT ( * ) PLANE_ANGLE_UNIT ( ) SI_UNIT ( $, .RADIAN. ) );
#368 = DIRECTION ( 'NONE',  ( -1.000000000000000000, 0.000000000000000000, 0.000000000000000000 ) ) ;
#369 = ORIENTED_EDGE ( 'NONE', *, *, #243, .T. ) ;
#370 = FACE_OUTER_BOUND ( 'NONE', #59, .T. ) ;
#371 = DIRECTION ( 'NONE',  ( -0.000000000000000000, -0.000000000000000000, 1.000000000000000000 ) ) ;
#372 = ORIENTED_EDGE ( 'NONE', *, *, #152, .T. ) ;
#373 = AXIS2_PLACEMENT_3D ( 'NONE', #110, #380, #298 ) ;
#374 = LINE ( 'NONE', #144, #333 ) ;
#375 = EDGE_CURVE ( 'NONE', #379, #332, #551, .T. ) ;
#376 = ORIENTED_EDGE ( 'NONE', *, *, #431, .T. ) ;
#377 = DIRECTION ( 'NONE',  ( 0.000000000000000000, 0.000000000000000000, -1.000000000000000000 ) ) ;
#378 = DIRECTION ( 'NONE',  ( -0.000000000000000000, -0.000000000000000000, -1.000000000000000000 ) ) ;
#379 = VERTEX_POINT ( 'NONE', #334 ) ;
#380 = DIRECTION ( 'NONE',  ( 1.224646799147353207E-16, 1.000000000000000000, 0.000000000000000000 ) ) ;
#381 = VERTEX_POINT ( 'NONE', #489 ) ;
#382 = FACE_OUTER_BOUND ( 'NONE', #533, .T. ) ;
#383 = VERTEX_POINT ( 'NONE', #575 ) ;
#384 = ADVANCED_FACE ( 'NONE', ( #526 ), #458, .T. ) ;
#385 = CARTESIAN_POINT ( 'NONE',  ( 0.000000000000000000, 0.000000000000000000, 4.291079919564339207 ) ) ;
#386 = VECTOR ( 'NONE', #587, 1000.000000000000000 ) ;
#387 = ORIENTED_EDGE ( 'NONE', *, *, #131, .T. ) ;
#388 = FACE_OUTER_BOUND ( 'NONE', #205, .T. ) ;
#389 = ADVANCED_FACE ( 'NONE', ( #566 ), #52, .T. ) ;
#390 = VERTEX_POINT ( 'NONE', #203 ) ;
#391 = CYLINDRICAL_SURFACE ( 'NONE', #271, 2.500000000000000000 ) ;
#392 = ADVANCED_FACE ( 'NONE', ( #433, #158 ), #247, .F. ) ;
#393 = ORIENTED_EDGE ( 'NONE', *, *, #586, .T. ) ;
#394 = AXIS2_PLACEMENT_3D ( 'NONE', #410, #407, #33 ) ;
#395 = ORIENTED_EDGE ( 'NONE', *, *, #159, .T. ) ;
#396 = DIRECTION ( 'NONE',  ( 1.000000000000000000, 0.000000000000000000, 0.000000000000000000 ) ) ;
#397 = ORIENTED_EDGE ( 'NONE', *, *, #140, .T. ) ;
#398 = CIRCLE ( 'NONE', #287, 6.000000000000000000 ) ;
#399 = AXIS2_PLACEMENT_3D ( 'NONE', #457, #212, #401 ) ;
#400 = FACE_OUTER_BOUND ( 'NONE', #605, .T. ) ;
#401 = DIRECTION ( 'NONE',  ( -1.000000000000000000, 0.000000000000000000, 0.000000000000000000 ) ) ;
#402 = ADVANCED_FACE ( 'NONE', ( #534, #487 ), #6, .T. ) ;
#403 = DIRECTION ( 'NONE',  ( 0.000000000000000000, 0.000000000000000000, -1.000000000000000000 ) ) ;
#404 = FACE_OUTER_BOUND ( 'NONE', #105, .T. ) ;
#405 = CIRCLE ( 'NONE', #242, 5.782961888622025981 ) ;
#406 = DIRECTION ( 'NONE',  ( 1.000000000000000000, 0.000000000000000000, 0.000000000000000000 ) ) ;
#407 = DIRECTION ( 'NONE',  ( 0.000000000000000000, 0.000000000000000000, -1.000000000000000000 ) ) ;
#408 = CIRCLE ( 'NONE', #145, 3.000000000000000444 ) ;
#409 = DIRECTION ( 'NONE',  ( 1.000000000000000000, 0.000000000000000000, 0.000000000000000000 ) ) ;
#410 = CARTESIAN_POINT ( 'NONE',  ( 0.000000000000000000, 0.000000000000000000, -4.000000000000000000 ) ) ;
#411 = CARTESIAN_POINT ( 'NONE',  ( 0.000000000000000000, 0.000000000000000000, 0.000000000000000000 ) ) ;
#412 = DIRECTION ( 'NONE',  ( 1.000000000000000000, 0.000000000000000000, 0.000000000000000000 ) ) ;
#413 = FACE_BOUND ( 'NONE', #326, .T. ) ;
#414 = ORIENTED_EDGE ( 'NONE', *, *, #140, .F. ) ;
#415 = VECTOR ( 'NONE', #452, 1000.000000000000000 ) ;
#416 = DIRECTION ( 'NONE',  ( 0.000000000000000000, 0.000000000000000000, 1.000000000000000000 ) ) ;
#417 = DIRECTION ( 'NONE',  ( 1.000000000000000000, 0.000000000000000000, 0.000000000000000000 ) ) ;
#418 = EDGE_LOOP ( 'NONE', ( #344, #572, #195, #294 ) ) ;
#419 = ADVANCED_FACE ( 'NONE', ( #382 ), #331, .F. ) ;
#420 =( LENGTH_UNIT ( ) NAMED_UNIT ( * ) SI_UNIT ( .MILLI., .METRE. ) );
#421 = CIRCLE ( 'NONE', #447, 9.471207056481341979 ) ;
#422 = DIRECTION ( 'NONE',  ( 0.000000000000000000, 0.000000000000000000, 1.000000000000000000 ) ) ;
#423 = ORIENTED_EDGE ( 'NONE', *, *, #499, .T. ) ;
#424 = DIRECTION ( 'NONE',  ( 1.000000000000000000, 0.000000000000000000, 0.000000000000000000 ) ) ;
#425 = CIRCLE ( 'NONE', #252, 9.757876667733341947 ) ;
#426 = DIRECTION ( 'NONE',  ( 1.000000000000000000, 0.000000000000000000, 0.000000000000000000 ) ) ;
#427 = EDGE_LOOP ( 'NONE', ( #519, #48, #292, #64 ) ) ;
#428 = AXIS2_PLACEMENT_3D ( 'NONE', #385, #571, #156 ) ;
#429 = AXIS2_PLACEMENT_3D ( 'NONE', #215, #364, #66 ) ;
#430 = CARTESIAN_POINT ( 'NONE',  ( 0.000000000000000000, 0.000000000000000000, 12.69999999999999929 ) ) ;
#431 = EDGE_CURVE ( 'NONE', #336, #53, #67, .T. ) ;
#432 = VERTEX_POINT ( 'NONE', #337 ) ;
#433 = FACE_BOUND ( 'NONE', #349, .T. ) ;
#434 = VERTEX_POINT ( 'NONE', #528 ) ;
#435 = ADVANCED_FACE ( 'NONE', ( #201 ), #439, .T. ) ;
#436 = DIRECTION ( 'NONE',  ( -0.000000000000000000, -0.000000000000000000, -1.000000000000000000 ) ) ;
#437 = CIRCLE ( 'NONE', #373, 5.782961888622025093 ) ;
#438 = ORIENTED_EDGE ( 'NONE', *, *, #557, .T. ) ;
#439 = PLANE ( 'NONE',  #506 ) ;
#440 = PRESENTATION_LAYER_ASSIGNMENT (  '', '', ( #226 ) ) ;
#441 = ORIENTED_EDGE ( 'NONE', *, *, #56, .F. ) ;
#442 = ADVANCED_FACE ( 'NONE', ( #388 ), #593, .T. ) ;
#443 = DIRECTION ( 'NONE',  ( 0.000000000000000000, 0.000000000000000000, 1.000000000000000000 ) ) ;
#444 = ORIENTED_EDGE ( 'NONE', *, *, #486, .T. ) ;
#445 = DIRECTION ( 'NONE',  ( 1.000000000000000000, 0.000000000000000000, 0.000000000000000000 ) ) ;
#446 = LINE ( 'NONE', #19, #266 ) ;
#447 = AXIS2_PLACEMENT_3D ( 'NONE', #498, #72, #30 ) ;
#448 = EDGE_LOOP ( 'NONE', ( #524, #339 ) ) ;
#449 = CARTESIAN_POINT ( 'NONE',  ( -2.500000000000000000, 0.000000000000000000, 12.69999999999999929 ) ) ;
#450 = FACE_OUTER_BOUND ( 'NONE', #3, .T. ) ;
#451 = AXIS2_PLACEMENT_3D ( 'NONE', #175, #170, #549 ) ;
#452 = DIRECTION ( 'NONE',  ( -0.000000000000000000, -0.000000000000000000, 1.000000000000000000 ) ) ;
#453 = LINE ( 'NONE', #302, #165 ) ;
#454 = EDGE_CURVE ( 'NONE', #62, #515, #310, .T. ) ;
#455 = ORIENTED_EDGE ( 'NONE', *, *, #152, .F. ) ;
#456 = DIRECTION ( 'NONE',  ( -0.000000000000000000, -0.000000000000000000, -1.000000000000000000 ) ) ;
#457 = CARTESIAN_POINT ( 'NONE',  ( 0.000000000000000000, 0.000000000000000000, -1.500000000000000000 ) ) ;
#458 = TOROIDAL_SURFACE ( 'NONE', #191, 3.974888734254872436, 5.782961888622025981 ) ;
#459 = DIRECTION ( 'NONE',  ( -1.000000000000000000, 0.000000000000000000, 0.000000000000000000 ) ) ;
#460 = CARTESIAN_POINT ( 'NONE',  ( 2.020000000000000018, 2.473786534277653917E-16, -1.500000000000000000 ) ) ;
#461 = DIRECTION ( 'NONE',  ( 0.000000000000000000, 0.000000000000000000, -1.000000000000000000 ) ) ;
#462 = PRODUCT_RELATED_PRODUCT_CATEGORY ( 'part', '', ( #8 ) ) ;
#463 = DIRECTION ( 'NONE',  ( 0.000000000000000000, 0.000000000000000000, 1.000000000000000000 ) ) ;
#464 = DIRECTION ( 'NONE',  ( 0.000000000000000000, 0.000000000000000000, -1.000000000000000000 ) ) ;
#465 = ORIENTED_EDGE ( 'NONE', *, *, #2, .F. ) ;
#466 = CARTESIAN_POINT ( 'NONE',  ( 0.000000000000000000, 0.000000000000000000, -4.000000000000000000 ) ) ;
#467 = ORIENTED_EDGE ( 'NONE', *, *, #522, .F. ) ;
#468 = EDGE_CURVE ( 'NONE', #241, #383, #40, .T. ) ;
#469 = CIRCLE ( 'NONE', #255, 4.000000000000000000 ) ;
#470 = CARTESIAN_POINT ( 'NONE',  ( 0.000000000000000000, 0.000000000000000000, -4.000000000000000000 ) ) ;
#471 = ORIENTED_EDGE ( 'NONE', *, *, #291, .T. ) ;
#472 = CARTESIAN_POINT ( 'NONE',  ( -2.020000000000000018, 0.000000000000000000, -1.500000000000000000 ) ) ;
#473 = ORIENTED_EDGE ( 'NONE', *, *, #539, .T. ) ;
#474 = AXIS2_PLACEMENT_3D ( 'NONE', #510, #563, #83 ) ;
#475 = DIRECTION ( 'NONE',  ( -0.000000000000000000, -0.000000000000000000, 1.000000000000000000 ) ) ;
#476 = EDGE_LOOP ( 'NONE', ( #387, #160 ) ) ;
#477 = CIRCLE ( 'NONE', #276, 4.000000000000000000 ) ;
#478 = DIRECTION ( 'NONE',  ( -1.000000000000000000, 0.000000000000000000, 0.000000000000000000 ) ) ;
#479 = EDGE_LOOP ( 'NONE', ( #530, #50, #14, #142 ) ) ;
#480 = CARTESIAN_POINT ( 'NONE',  ( 0.000000000000000000, 0.000000000000000000, 7.887262954957523498 ) ) ;
#481 = EDGE_LOOP ( 'NONE', ( #278, #289, #350, #471 ) ) ;
#482 = PRODUCT_DEFINITION_FORMATION_WITH_SPECIFIED_SOURCE ( 'ANY', '', #8, .NOT_KNOWN. ) ;
#483 = DIRECTION ( 'NONE',  ( 0.000000000000000000, 0.000000000000000000, -1.000000000000000000 ) ) ;
#484 = CIRCLE ( 'NONE', #542, 2.500000000000000000 ) ;
#485 = ORIENTED_EDGE ( 'NONE', *, *, #570, .T. ) ;
#486 = EDGE_CURVE ( 'NONE', #567, #62, #365, .T. ) ;
#487 = FACE_OUTER_BOUND ( 'NONE', #609, .T. ) ;
#488 = EDGE_LOOP ( 'NONE', ( #369, #95 ) ) ;
#489 = CARTESIAN_POINT ( 'NONE',  ( -9.757876667733341947, 1.194995242761427676E-15, 7.887262954957523498 ) ) ;
#490 = EDGE_LOOP ( 'NONE', ( #395, #111 ) ) ;
#491 = CARTESIAN_POINT ( 'NONE',  ( 4.000000000000000000, 0.000000000000000000, 6.199999999999999289 ) ) ;
#492 = EDGE_CURVE ( 'NONE', #20, #381, #357, .T. ) ;
#493 = PLANE ( 'NONE',  #79 ) ;
#494 = DIRECTION ( 'NONE',  ( -0.000000000000000000, -0.000000000000000000, -1.000000000000000000 ) ) ;
#495 = EDGE_CURVE ( 'NONE', #20, #173, #347, .T. ) ;
#496 = DIRECTION ( 'NONE',  ( 1.000000000000000000, 0.000000000000000000, 0.000000000000000000 ) ) ;
#497 = CARTESIAN_POINT ( 'NONE',  ( 1.000000000000000000, 1.224646799147352961E-16, 15.51999999999999957 ) ) ;
#498 = CARTESIAN_POINT ( 'NONE',  ( 0.000000000000000000, 0.000000000000000000, 7.887262954957523498 ) ) ;
#499 = EDGE_CURVE ( 'NONE', #185, #583, #351, .T. ) ;
#500 = DIRECTION ( 'NONE',  ( 1.224646799147353207E-16, 1.000000000000000000, -0.000000000000000000 ) ) ;
#501 = CARTESIAN_POINT ( 'NONE',  ( -9.471207056481341979, 1.159888340578170064E-15, 4.291079919564339207 ) ) ;
#502 = AXIS2_PLACEMENT_3D ( 'NONE', #470, #475, #47 ) ;
#503 = EDGE_CURVE ( 'NONE', #567, #281, #594, .T. ) ;
#504 = DIRECTION ( 'NONE',  ( 0.000000000000000000, 0.000000000000000000, 1.000000000000000000 ) ) ;
#505 = CARTESIAN_POINT ( 'NONE',  ( 0.000000000000000000, 10.59910082667283326, 4.291079919564339207 ) ) ;
#506 = AXIS2_PLACEMENT_3D ( 'NONE', #293, #483, #13 ) ;
#507 = AXIS2_PLACEMENT_3D ( 'NONE', #254, #463, #588 ) ;
#508 = DIRECTION ( 'NONE',  ( -0.000000000000000000, -0.000000000000000000, -1.000000000000000000 ) ) ;
#509 = DIRECTION ( 'NONE',  ( 0.000000000000000000, 0.000000000000000000, 1.000000000000000000 ) ) ;
#510 = CARTESIAN_POINT ( 'NONE',  ( 0.000000000000000000, 0.000000000000000000, -1.500000000000000000 ) ) ;
#511 = ADVANCED_FACE ( 'NONE', ( #400 ), #348, .T. ) ;
#512 = ORIENTED_EDGE ( 'NONE', *, *, #597, .F. ) ;
#513 = AXIS2_PLACEMENT_3D ( 'NONE', #234, #509, #49 ) ;
#514 = FACE_OUTER_BOUND ( 'NONE', #479, .T. ) ;
#515 = VERTEX_POINT ( 'NONE', #354 ) ;
#516 = AXIS2_PLACEMENT_3D ( 'NONE', #76, #177, #459 ) ;
#517 = DIRECTION ( 'NONE',  ( 1.000000000000000000, 0.000000000000000000, 0.000000000000000000 ) ) ;
#518 = DIRECTION ( 'NONE',  ( -0.000000000000000000, -0.000000000000000000, 1.000000000000000000 ) ) ;
#519 = ORIENTED_EDGE ( 'NONE', *, *, #486, .F. ) ;
#520 = PLANE ( 'NONE',  #96 ) ;
#521 = EDGE_LOOP ( 'NONE', ( #7, #438, #284, #202 ) ) ;
#522 = EDGE_CURVE ( 'NONE', #434, #241, #335, .T. ) ;
#523 = FACE_OUTER_BOUND ( 'NONE', #204, .T. ) ;
#524 = ORIENTED_EDGE ( 'NONE', *, *, #468, .F. ) ;
#525 = AXIS2_PLACEMENT_3D ( 'NONE', #546, #126, #73 ) ;
#526 = FACE_OUTER_BOUND ( 'NONE', #418, .T. ) ;
#527 = VERTEX_POINT ( 'NONE', #449 ) ;
#528 = CARTESIAN_POINT ( 'NONE',  ( 4.000000000000000000, 0.000000000000000000, 0.000000000000000000 ) ) ;
#529 = EDGE_CURVE ( 'NONE', #154, #432, #408, .T. ) ;
#530 = ORIENTED_EDGE ( 'NONE', *, *, #557, .F. ) ;
#531 = DIRECTION ( 'NONE',  ( 1.000000000000000000, 0.000000000000000000, 0.000000000000000000 ) ) ;
#532 = ORIENTED_EDGE ( 'NONE', *, *, #90, .F. ) ;
#533 = EDGE_LOOP ( 'NONE', ( #250, #37, #151, #188 ) ) ;
#534 = FACE_BOUND ( 'NONE', #577, .T. ) ;
#535 = ORIENTED_EDGE ( 'NONE', *, *, #582, .T. ) ;
#536 = ORIENTED_EDGE ( 'NONE', *, *, #243, .F. ) ;
#537 = CARTESIAN_POINT ( 'NONE',  ( 0.000000000000000000, 0.000000000000000000, 15.51999999999999957 ) ) ;
#538 = ORIENTED_EDGE ( 'NONE', *, *, #355, .T. ) ;
#539 = EDGE_CURVE ( 'NONE', #381, #193, #398, .T. ) ;
#540 = CARTESIAN_POINT ( 'NONE',  ( 4.000000000000000000, 0.000000000000000000, 6.000000000000000000 ) ) ;
#541 = CARTESIAN_POINT ( 'NONE',  ( 3.000000000000000444, 0.000000000000000000, -4.000000000000000000 ) ) ;
#542 = AXIS2_PLACEMENT_3D ( 'NONE', #39, #136, #417 ) ;
#543 = CARTESIAN_POINT ( 'NONE',  ( 0.000000000000000000, 0.000000000000000000, 0.000000000000000000 ) ) ;
#544 = DIRECTION ( 'NONE',  ( 0.000000000000000000, 0.000000000000000000, -1.000000000000000000 ) ) ;
#545 = AXIS2_PLACEMENT_3D ( 'NONE', #25, #590, #308 ) ;
#546 = CARTESIAN_POINT ( 'NONE',  ( 0.000000000000000000, 0.000000000000000000, 4.291079919564339207 ) ) ;
#547 = CARTESIAN_POINT ( 'NONE',  ( 0.000000000000000000, 0.000000000000000000, 12.69999999999999929 ) ) ;
#548 = EDGE_CURVE ( 'NONE', #281, #515, #324, .T. ) ;
#549 = DIRECTION ( 'NONE',  ( 1.000000000000000000, 0.000000000000000000, 0.000000000000000000 ) ) ;
#550 = FACE_BOUND ( 'NONE', #476, .T. ) ;
#551 = CIRCLE ( 'NONE', #109, 9.471207056481341979 ) ;
#552 = DIRECTION ( 'NONE',  ( -1.000000000000000000, 0.000000000000000000, 0.000000000000000000 ) ) ;
#553 = AXIS2_PLACEMENT_3D ( 'NONE', #263, #219, #409 ) ;
#554 = AXIS2_PLACEMENT_3D ( 'NONE', #596, #74, #496 ) ;
#555 = CARTESIAN_POINT ( 'NONE',  ( 4.000000000000000000, 0.000000000000000000, 12.19999999999999929 ) ) ;
#556 = ORIENTED_EDGE ( 'NONE', *, *, #602, .F. ) ;
#557 = EDGE_CURVE ( 'NONE', #330, #432, #68, .T. ) ;
#558 = FACE_OUTER_BOUND ( 'NONE', #238, .T. ) ;
#559 = ORIENTED_EDGE ( 'NONE', *, *, #591, .T. ) ;
#560 = CIRCLE ( 'NONE', #311, 2.500000000000000000 ) ;
#561 = FACE_BOUND ( 'NONE', #167, .T. ) ;
#562 = ORIENTED_EDGE ( 'NONE', *, *, #56, .T. ) ;
#563 = DIRECTION ( 'NONE',  ( 0.000000000000000000, 0.000000000000000000, -1.000000000000000000 ) ) ;
#564 = ORIENTED_EDGE ( 'NONE', *, *, #548, .T. ) ;
#565 = EDGE_CURVE ( 'NONE', #146, #199, #306, .T. ) ;
#566 = FACE_OUTER_BOUND ( 'NONE', #427, .T. ) ;
#567 = VERTEX_POINT ( 'NONE', #497 ) ;
#568 = CARTESIAN_POINT ( 'NONE',  ( 0.000000000000000000, 0.000000000000000000, 12.19999999999999929 ) ) ;
#569 = ORIENTED_EDGE ( 'NONE', *, *, #327, .T. ) ;
#570 = EDGE_CURVE ( 'NONE', #173, #193, #132, .T. ) ;
#571 = DIRECTION ( 'NONE',  ( -0.000000000000000000, -0.000000000000000000, 1.000000000000000000 ) ) ;
#572 = ORIENTED_EDGE ( 'NONE', *, *, #338, .T. ) ;
#573 = AXIS2_PLACEMENT_3D ( 'NONE', #307, #544, #261 ) ;
#574 = ORIENTED_EDGE ( 'NONE', *, *, #178, .F. ) ;
#575 = CARTESIAN_POINT ( 'NONE',  ( -9.751486082629755359, 1.194212621802249230E-15, 4.291079919564339207 ) ) ;
#576 = AXIS2_PLACEMENT_3D ( 'NONE', #81, #269, #552 ) ;
#577 = EDGE_LOOP ( 'NONE', ( #230, #512 ) ) ;
#578 = AXIS2_PLACEMENT_3D ( 'NONE', #116, #301, #214 ) ;
#579 = DIRECTION ( 'NONE',  ( -0.000000000000000000, -0.000000000000000000, -1.000000000000000000 ) ) ;
#580 = AXIS2_PLACEMENT_3D ( 'NONE', #69, #78, #222 ) ;
#581 = ORIENTED_EDGE ( 'NONE', *, *, #495, .F. ) ;
#582 = EDGE_CURVE ( 'NONE', #434, #55, #477, .T. ) ;
#583 = VERTEX_POINT ( 'NONE', #358 ) ;
#584 = DIRECTION ( 'NONE',  ( 1.000000000000000000, 0.000000000000000000, 0.000000000000000000 ) ) ;
#585 = CARTESIAN_POINT ( 'NONE',  ( 9.757876667733341947, 0.000000000000000000, 7.887262954957523498 ) ) ;
#586 = EDGE_CURVE ( 'NONE', #383, #241, #88, .T. ) ;
#587 = DIRECTION ( 'NONE',  ( -0.000000000000000000, -0.000000000000000000, -1.000000000000000000 ) ) ;
#588 = DIRECTION ( 'NONE',  ( 1.000000000000000000, 0.000000000000000000, 0.000000000000000000 ) ) ;
#589 = AXIS2_PLACEMENT_3D ( 'NONE', #595, #362, #129 ) ;
#590 = DIRECTION ( 'NONE',  ( 0.000000000000000000, 0.000000000000000000, -1.000000000000000000 ) ) ;
#591 = EDGE_CURVE ( 'NONE', #515, #281, #209, .T. ) ;
#592 = CARTESIAN_POINT ( 'NONE',  ( 0.000000000000000000, 0.000000000000000000, 7.887262954957523498 ) ) ;
#593 = TOROIDAL_SURFACE ( 'NONE', #578, 4.000000000000000000, 6.000000000000000000 ) ;
#594 = LINE ( 'NONE', #168, #313 ) ;
#595 = CARTESIAN_POINT ( 'NONE',  ( 0.000000000000000000, 0.000000000000000000, 12.19999999999999929 ) ) ;
#596 = CARTESIAN_POINT ( 'NONE',  ( 0.000000000000000000, 0.000000000000000000, 6.199999999999999289 ) ) ;
#597 = EDGE_CURVE ( 'NONE', #390, #583, #122, .T. ) ;
#598 = TOROIDAL_SURFACE ( 'NONE', #75, 4.000000000000000000, 6.000000000000000000 ) ;
#599 = CARTESIAN_POINT ( 'NONE',  ( 3.974888734254872436, 0.000000000000000000, 6.089171437260931796 ) ) ;
#600 = COLOUR_RGB ( '',0.7921568627450980005, 0.8196078431372548767, 0.9333333333333333481 ) ;
#601 = VERTEX_POINT ( 'NONE', #328 ) ;
#602 = EDGE_CURVE ( 'NONE', #55, #434, #469, .T. ) ;
#603 = MANIFOLD_SOLID_BREP ( 'Cut-Revolve1', #366 ) ;
#604 = CARTESIAN_POINT ( 'NONE',  ( 2.500000000000000000, 3.061616997868383141E-16, 12.19999999999999929 ) ) ;
#605 = EDGE_LOOP ( 'NONE', ( #148, #532, #100, #44 ) ) ;
#606 = FILL_AREA_STYLE ('',( #46 ) ) ;
#607 = ADVANCED_FACE ( 'NONE', ( #370 ), #246, .T. ) ;
#608 = CARTESIAN_POINT ( 'NONE',  ( 1.000000000000000000, 1.224646799147352961E-16, 12.69999999999999929 ) ) ;
#609 = EDGE_LOOP ( 'NONE', ( #85, #342 ) ) ;
#610 = AXIS2_PLACEMENT_3D ( 'NONE', #162, #443, #10 ) ;
#611 =( NAMED_UNIT ( * ) PLANE_ANGLE_UNIT ( ) SI_UNIT ( $, .RADIAN. ) );
ENDSEC;
END-ISO-10303-21;
