ISO-10303-21;
HEADER;
FILE_DESCRIPTION (( 'STEP AP214' ),
    '1' );
FILE_NAME ('cubit3_mag_support_P.STEP',
    '2025-07-20T04:29:12',
    ( '' ),
    ( '' ),
    'SwSTEP 2.0',
    'SolidWorks 2023',
    '' );
FILE_SCHEMA (( 'AUTOMOTIVE_DESIGN' ));
ENDSEC;

DATA;
#1 = CARTESIAN_POINT ( 'NONE',  ( -3.828430242851232901, 2.760334413162493394, 12.24487999942863681 ) ) ;
#2 = VERTEX_POINT ( 'NONE', #826 ) ;
#3 = DIRECTION ( 'NONE',  ( 1.000000000000000000, 0.000000000000000000, 0.000000000000000000 ) ) ;
#4 = VERTEX_POINT ( 'NONE', #616 ) ;
#5 = DIRECTION ( 'NONE',  ( -0.000000000000000000, -0.000000000000000000, -1.000000000000000000 ) ) ;
#6 = ORIENTED_EDGE ( 'NONE', *, *, #570, .T. ) ;
#7 = EDGE_LOOP ( 'NONE', ( #419, #724, #30, #495 ) ) ;
#8 = CARTESIAN_POINT ( 'NONE',  ( -21.35557321424399291, -13.26657293854942665, 11.24487999942863681 ) ) ;
#9 = CARTESIAN_POINT ( 'NONE',  ( -3.828430242851232901, 2.760334413162493394, 17.24487999942863681 ) ) ;
#10 = ORIENTED_EDGE ( 'NONE', *, *, #678, .F. ) ;
#11 = AXIS2_PLACEMENT_3D ( 'NONE', #165, #825, #841 ) ;
#12 = VECTOR ( 'NONE', #313, 1000.000000000000000 ) ;
#13 = ORIENTED_EDGE ( 'NONE', *, *, #612, .T. ) ;
#14 = LINE ( 'NONE', #391, #234 ) ;
#15 = DIRECTION ( 'NONE',  ( 0.000000000000000000, 0.000000000000000000, 1.000000000000000000 ) ) ;
#16 = ORIENTED_EDGE ( 'NONE', *, *, #811, .F. ) ;
#17 = DIRECTION ( 'NONE',  ( -1.000000000000000000, 0.000000000000000000, 0.000000000000000000 ) ) ;
#18 = DIRECTION ( 'NONE',  ( -0.000000000000000000, -0.000000000000000000, -1.000000000000000000 ) ) ;
#19 = ADVANCED_FACE ( 'NONE', ( #896 ), #545, .F. ) ;
#20 = DIRECTION ( 'NONE',  ( 1.000000000000000000, 0.000000000000000000, -0.000000000000000000 ) ) ;
#21 = CARTESIAN_POINT ( 'NONE',  ( -3.828430242851232901, 2.760334413162493394, 12.24487999942863681 ) ) ;
#22 = DIRECTION ( 'NONE',  ( -0.000000000000000000, -0.000000000000000000, 1.000000000000000000 ) ) ;
#23 = EDGE_CURVE ( 'NONE', #389, #814, #697, .T. ) ;
#24 = ADVANCED_FACE ( 'NONE', ( #766 ), #833, .T. ) ;
#25 = VERTEX_POINT ( 'NONE', #111 ) ;
#26 = AXIS2_PLACEMENT_3D ( 'NONE', #322, #911, #552 ) ;
#27 = AXIS2_PLACEMENT_3D ( 'NONE', #846, #186, #858 ) ;
#28 = FACE_OUTER_BOUND ( 'NONE', #566, .T. ) ;
#29 = VERTEX_POINT ( 'NONE', #549 ) ;
#30 = ORIENTED_EDGE ( 'NONE', *, *, #823, .T. ) ;
#31 = CARTESIAN_POINT ( 'NONE',  ( 8.171569757148768431, 2.760334413162493394, 12.74487999942863681 ) ) ;
#32 = CARTESIAN_POINT ( 'NONE',  ( 13.69871272854152089, -13.26657293854943376, 11.24487999942863681 ) ) ;
#33 = DIRECTION ( 'NONE',  ( 0.7306113773142052237, 0.6827935378568253943, 0.000000000000000000 ) ) ;
#34 = ORIENTED_EDGE ( 'NONE', *, *, #446, .T. ) ;
#35 = DIRECTION ( 'NONE',  ( -0.000000000000000000, -0.000000000000000000, 1.000000000000000000 ) ) ;
#36 = EDGE_CURVE ( 'NONE', #913, #541, #729, .T. ) ;
#37 = SURFACE_SIDE_STYLE ('',( #280 ) ) ;
#38 = CARTESIAN_POINT ( 'NONE',  ( -22.92843024285123477, 2.760334413162493394, 11.24487999942863681 ) ) ;
#39 = CARTESIAN_POINT ( 'NONE',  ( -21.35557321424399291, -13.26657293854942665, 9.044879999428637518 ) ) ;
#40 = MECHANICAL_DESIGN_GEOMETRIC_PRESENTATION_REPRESENTATION (  '', ( #605 ), #465 ) ;
#41 = ORIENTED_EDGE ( 'NONE', *, *, #233, .F. ) ;
#42 = CIRCLE ( 'NONE', #171, 23.75000000000000355 ) ;
#43 =( NAMED_UNIT ( * ) SI_UNIT ( $, .STERADIAN. ) SOLID_ANGLE_UNIT ( ) );
#44 = FACE_OUTER_BOUND ( 'NONE', #157, .T. ) ;
#45 = DIRECTION ( 'NONE',  ( 0.000000000000000000, 0.000000000000000000, 1.000000000000000000 ) ) ;
#46 = CARTESIAN_POINT ( 'NONE',  ( -16.82843024285123334, 2.760334413162493394, 12.74487999942863681 ) ) ;
#47 = CARTESIAN_POINT ( 'NONE',  ( -3.828430242851232901, 2.760334413162493394, 12.24487999942863681 ) ) ;
#48 = ORIENTED_EDGE ( 'NONE', *, *, #678, .T. ) ;
#49 = EDGE_CURVE ( 'NONE', #793, #195, #558, .T. ) ;
#50 = FACE_OUTER_BOUND ( 'NONE', #254, .T. ) ;
#51 = EDGE_CURVE ( 'NONE', #817, #523, #763, .T. ) ;
#52 = ORIENTED_EDGE ( 'NONE', *, *, #952, .F. ) ;
#53 = CARTESIAN_POINT ( 'NONE',  ( -3.828430242851232901, 2.760334413162493394, 11.24487999942863681 ) ) ;
#54 = VECTOR ( 'NONE', #18, 1000.000000000000000 ) ;
#55 = VECTOR ( 'NONE', #794, 1000.000000000000000 ) ;
#56 =( NAMED_UNIT ( * ) SI_UNIT ( $, .STERADIAN. ) SOLID_ANGLE_UNIT ( ) );
#57 = VECTOR ( 'NONE', #745, 1000.000000000000000 ) ;
#58 = AXIS2_PLACEMENT_3D ( 'NONE', #191, #569, #914 ) ;
#59 = ORIENTED_EDGE ( 'NONE', *, *, #100, .F. ) ;
#60 = ORIENTED_EDGE ( 'NONE', *, *, #341, .F. ) ;
#61 = DIRECTION ( 'NONE',  ( -0.000000000000000000, -0.000000000000000000, 1.000000000000000000 ) ) ;
#62 = DIRECTION ( 'NONE',  ( 0.000000000000000000, 1.000000000000000000, 0.000000000000000000 ) ) ;
#63 = EDGE_LOOP ( 'NONE', ( #312, #742, #950, #330 ) ) ;
#64 = DIRECTION ( 'NONE',  ( -1.000000000000000000, 0.000000000000000000, -0.000000000000000000 ) ) ;
#65 = ORIENTED_EDGE ( 'NONE', *, *, #144, .T. ) ;
#66 = CARTESIAN_POINT ( 'NONE',  ( -3.828430242851232901, 2.760334413162493394, 47.22444312810840472 ) ) ;
#67 = EDGE_LOOP ( 'NONE', ( #65, #407, #377, #281 ) ) ;
#68 = ORIENTED_EDGE ( 'NONE', *, *, #464, .T. ) ;
#69 = CARTESIAN_POINT ( 'NONE',  ( -3.828430242851232901, 2.760334413162493394, 12.24487999942863681 ) ) ;
#70 = DIRECTION ( 'NONE',  ( 0.7306113773142041135, -0.6827935378568266156, 0.000000000000000000 ) ) ;
#71 = EDGE_LOOP ( 'NONE', ( #59, #839, #13, #561 ) ) ;
#72 = VECTOR ( 'NONE', #930, 1000.000000000000000 ) ;
#73 = CIRCLE ( 'NONE', #937, 23.75000000000000000 ) ;
#74 = PLANE ( 'NONE',  #575 ) ;
#75 = EDGE_LOOP ( 'NONE', ( #770, #106 ) ) ;
#76 = CARTESIAN_POINT ( 'NONE',  ( -27.57843024285123690, 2.760334413162493394, 9.044879999428637518 ) ) ;
#77 = LINE ( 'NONE', #355, #888 ) ;
#78 = EDGE_CURVE ( 'NONE', #2, #719, #104, .T. ) ;
#79 = VERTEX_POINT ( 'NONE', #257 ) ;
#80 = PLANE ( 'NONE',  #488 ) ;
#81 = DIRECTION ( 'NONE',  ( 0.000000000000000000, -0.000000000000000000, 1.000000000000000000 ) ) ;
#82 = ORIENTED_EDGE ( 'NONE', *, *, #231, .F. ) ;
#83 = SHAPE_DEFINITION_REPRESENTATION ( #422, #900 ) ;
#84 = ORIENTED_EDGE ( 'NONE', *, *, #768, .T. ) ;
#85 = ADVANCED_FACE ( 'NONE', ( #485 ), #468, .F. ) ;
#86 = DIRECTION ( 'NONE',  ( 0.000000000000000000, 0.000000000000000000, 1.000000000000000000 ) ) ;
#87 = DIRECTION ( 'NONE',  ( -0.000000000000000000, -0.000000000000000000, -1.000000000000000000 ) ) ;
#88 = AXIS2_PLACEMENT_3D ( 'NONE', #415, #5, #819 ) ;
#89 = PRESENTATION_LAYER_ASSIGNMENT (  '', '', ( #155 ) ) ;
#90 = AXIS2_PLACEMENT_3D ( 'NONE', #868, #945, #429 ) ;
#91 = VERTEX_POINT ( 'NONE', #166 ) ;
#92 = CARTESIAN_POINT ( 'NONE',  ( -22.92843024285123477, 2.760334413162493394, 47.22444312810840472 ) ) ;
#93 = PLANE ( 'NONE',  #861 ) ;
#94 = DIRECTION ( 'NONE',  ( -0.000000000000000000, -0.000000000000000000, -1.000000000000000000 ) ) ;
#95 = CARTESIAN_POINT ( 'NONE',  ( 0.000000000000000000, 0.000000000000000000, 0.000000000000000000 ) ) ;
#96 = ORIENTED_EDGE ( 'NONE', *, *, #473, .T. ) ;
#97 = CARTESIAN_POINT ( 'NONE',  ( -3.828430242851232901, 2.760334413162493394, 11.24487999942863681 ) ) ;
#98 = CARTESIAN_POINT ( 'NONE',  ( -21.35557321424398580, -13.26657293854943376, 47.22444312810840472 ) ) ;
#99 = CARTESIAN_POINT ( 'NONE',  ( -3.828430242851232901, 2.760334413162493394, 14.74487999942863858 ) ) ;
#100 = EDGE_CURVE ( 'NONE', #867, #240, #169, .T. ) ;
#101 = ORIENTED_EDGE ( 'NONE', *, *, #162, .F. ) ;
#102 = CARTESIAN_POINT ( 'NONE',  ( 12.19847710886069336, 20.28747738455524541, 12.24487999942863681 ) ) ;
#103 = CARTESIAN_POINT ( 'NONE',  ( -16.82843024285123334, 2.760334413162493394, 12.24487999942863681 ) ) ;
#104 = LINE ( 'NONE', #916, #410 ) ;
#105 = MECHANICAL_DESIGN_GEOMETRIC_PRESENTATION_REPRESENTATION (  '', ( #662 ), #529 ) ;
#106 = ORIENTED_EDGE ( 'NONE', *, *, #126, .T. ) ;
#107 = FACE_OUTER_BOUND ( 'NONE', #7, .T. ) ;
#108 = COLOUR_RGB ( '',0.7921568627450980005, 0.8196078431372548767, 0.9333333333333333481 ) ;
#109 = CIRCLE ( 'NONE', #172, 23.75000000000000000 ) ;
#110 = CARTESIAN_POINT ( 'NONE',  ( -21.35557321424398580, -13.26657293854943376, 11.24487999942863681 ) ) ;
#111 = CARTESIAN_POINT ( 'NONE',  ( 12.19847710886069336, 20.28747738455524541, 9.044879999428637518 ) ) ;
#112 = EDGE_CURVE ( 'NONE', #29, #432, #753, .T. ) ;
#113 = ORIENTED_EDGE ( 'NONE', *, *, #823, .F. ) ;
#114 = DIRECTION ( 'NONE',  ( -1.000000000000000000, 0.000000000000000000, 0.000000000000000000 ) ) ;
#115 = DIRECTION ( 'NONE',  ( -0.6827935378568253943, 0.7306113773142052237, 0.000000000000000000 ) ) ;
#116 = DIRECTION ( 'NONE',  ( 1.000000000000000000, 0.000000000000000000, 0.000000000000000000 ) ) ;
#117 = CYLINDRICAL_SURFACE ( 'NONE', #235, 3.000000000000000888 ) ;
#118 = VERTEX_POINT ( 'NONE', #395 ) ;
#119 = CYLINDRICAL_SURFACE ( 'NONE', #325, 13.00000000000000178 ) ;
#120 =( LENGTH_UNIT ( ) NAMED_UNIT ( * ) SI_UNIT ( .MILLI., .METRE. ) );
#121 = DIRECTION ( 'NONE',  ( -0.000000000000000000, -0.000000000000000000, -1.000000000000000000 ) ) ;
#122 = MANIFOLD_SOLID_BREP ( 'Boss-Extrude1[2]', #847 ) ;
#123 = AXIS2_PLACEMENT_3D ( 'NONE', #746, #86, #895 ) ;
#124 = PRESENTATION_STYLE_ASSIGNMENT (( #781 ) ) ;
#125 = AXIS2_PLACEMENT_3D ( 'NONE', #470, #816, #526 ) ;
#126 = EDGE_CURVE ( 'NONE', #657, #310, #138, .T. ) ;
#127 = CYLINDRICAL_SURFACE ( 'NONE', #88, 19.09999999999999432 ) ;
#128 = DIRECTION ( 'NONE',  ( 1.000000000000000000, 0.000000000000000000, 0.000000000000000000 ) ) ;
#129 = DIRECTION ( 'NONE',  ( -0.000000000000000000, -0.000000000000000000, 1.000000000000000000 ) ) ;
#130 = MANIFOLD_SOLID_BREP ( 'Boss-Extrude1[1]', #380 ) ;
#131 = ADVANCED_FACE ( 'NONE', ( #44 ), #418, .F. ) ;
#132 = ORIENTED_EDGE ( 'NONE', *, *, #602, .F. ) ;
#133 = EDGE_CURVE ( 'NONE', #523, #713, #790, .T. ) ;
#134 = CARTESIAN_POINT ( 'NONE',  ( -3.828430242851232901, 2.760334413162493394, 9.044879999428637518 ) ) ;
#135 = SURFACE_STYLE_FILL_AREA ( #857 ) ;
#136 = EDGE_LOOP ( 'NONE', ( #863, #672, #736, #229, #148, #360 ) ) ;
#137 = DIRECTION ( 'NONE',  ( 1.000000000000000000, 0.000000000000000000, 0.000000000000000000 ) ) ;
#138 = CIRCLE ( 'NONE', #499, 3.000000000000000444 ) ;
#139 = VECTOR ( 'NONE', #764, 1000.000000000000000 ) ;
#140 = DIRECTION ( 'NONE',  ( -0.000000000000000000, -0.000000000000000000, 1.000000000000000000 ) ) ;
#141 = AXIS2_PLACEMENT_3D ( 'NONE', #631, #266, #647 ) ;
#142 = ORIENTED_EDGE ( 'NONE', *, *, #341, .T. ) ;
#143 = LINE ( 'NONE', #594, #890 ) ;
#144 = EDGE_CURVE ( 'NONE', #814, #954, #193, .T. ) ;
#145 = VERTEX_POINT ( 'NONE', #405 ) ;
#146 = DIRECTION ( 'NONE',  ( -0.000000000000000000, -0.000000000000000000, -1.000000000000000000 ) ) ;
#147 = CARTESIAN_POINT ( 'NONE',  ( -3.828430242851232901, 2.760334413162493394, 14.74487999942863858 ) ) ;
#148 = ORIENTED_EDGE ( 'NONE', *, *, #737, .F. ) ;
#149 = CARTESIAN_POINT ( 'NONE',  ( -3.828430242851232901, 2.760334413162493394, 9.044879999428637518 ) ) ;
#150 = VERTEX_POINT ( 'NONE', #38 ) ;
#151 = DIRECTION ( 'NONE',  ( -1.000000000000000000, 0.000000000000000000, 0.000000000000000000 ) ) ;
#152 = DIRECTION ( 'NONE',  ( 0.6827935378568266156, 0.7306113773142041135, 0.000000000000000000 ) ) ;
#153 = AXIS2_PLACEMENT_3D ( 'NONE', #99, #22, #261 ) ;
#154 = ADVANCED_FACE ( 'NONE', ( #924 ), #564, .T. ) ;
#155 = STYLED_ITEM ( 'NONE', ( #124 ), #445 ) ;
#156 = CIRCLE ( 'NONE', #733, 13.00000000000000178 ) ;
#157 = EDGE_LOOP ( 'NONE', ( #533, #366, #728, #634 ) ) ;
#158 = DIRECTION ( 'NONE',  ( 1.000000000000000000, 0.000000000000000000, 0.000000000000000000 ) ) ;
#159 = CARTESIAN_POINT ( 'NONE',  ( -3.828430242851232901, 2.760334413162493394, 12.74487999942863681 ) ) ;
#160 = VERTEX_POINT ( 'NONE', #270 ) ;
#161 = ADVANCED_FACE ( 'NONE', ( #782 ), #127, .F. ) ;
#162 = EDGE_CURVE ( 'NONE', #719, #788, #198, .T. ) ;
#163 = ORIENTED_EDGE ( 'NONE', *, *, #933, .F. ) ;
#164 = DIRECTION ( 'NONE',  ( -0.000000000000000000, -0.000000000000000000, 1.000000000000000000 ) ) ;
#165 = CARTESIAN_POINT ( 'NONE',  ( -3.828430242851232901, 2.760334413162493394, 47.22444312810840472 ) ) ;
#166 = CARTESIAN_POINT ( 'NONE',  ( -5.848430242851232919, 2.760334413162493838, 17.24487999942863681 ) ) ;
#167 = ORIENTED_EDGE ( 'NONE', *, *, #295, .T. ) ;
#168 = CARTESIAN_POINT ( 'NONE',  ( -3.828430242851232901, 2.760334413162493394, 12.74487999942863681 ) ) ;
#169 = LINE ( 'NONE', #553, #345 ) ;
#170 = AXIS2_PLACEMENT_3D ( 'NONE', #531, #140, #299 ) ;
#171 = AXIS2_PLACEMENT_3D ( 'NONE', #582, #286, #528 ) ;
#172 = AXIS2_PLACEMENT_3D ( 'NONE', #47, #774, #784 ) ;
#173 = ORIENTED_EDGE ( 'NONE', *, *, #760, .T. ) ;
#174 = DIRECTION ( 'NONE',  ( -0.000000000000000000, -0.000000000000000000, -1.000000000000000000 ) ) ;
#175 = EDGE_CURVE ( 'NONE', #713, #91, #263, .T. ) ;
#176 = PLANE ( 'NONE',  #530 ) ;
#177 = SURFACE_STYLE_USAGE ( .BOTH. , #249 ) ;
#178 = DIRECTION ( 'NONE',  ( -0.6827935378568266156, -0.7306113773142041135, -0.000000000000000000 ) ) ;
#179 = CARTESIAN_POINT ( 'NONE',  ( -21.35557321424398225, -13.26657293854943021, 12.24487999942863681 ) ) ;
#180 = ORIENTED_EDGE ( 'NONE', *, *, #933, .T. ) ;
#181 = LINE ( 'NONE', #403, #705 ) ;
#182 = DIRECTION ( 'NONE',  ( 0.000000000000000000, 0.000000000000000000, 1.000000000000000000 ) ) ;
#183 = ADVANCED_FACE ( 'NONE', ( #359 ), #210, .F. ) ;
#184 = AXIS2_PLACEMENT_3D ( 'NONE', #206, #283, #935 ) ;
#185 = AXIS2_PLACEMENT_3D ( 'NONE', #53, #807, #450 ) ;
#186 = DIRECTION ( 'NONE',  ( -0.000000000000000000, -0.000000000000000000, -1.000000000000000000 ) ) ;
#187 = AXIS2_PLACEMENT_3D ( 'NONE', #331, #35, #114 ) ;
#188 = VERTEX_POINT ( 'NONE', #447 ) ;
#189 =( LENGTH_UNIT ( ) NAMED_UNIT ( * ) SI_UNIT ( .MILLI., .METRE. ) );
#190 = ADVANCED_FACE ( 'NONE', ( #726 ), #660, .T. ) ;
#191 = CARTESIAN_POINT ( 'NONE',  ( -3.828430242851232901, 2.760334413162493394, 17.24487999942863681 ) ) ;
#192 = DIRECTION ( 'NONE',  ( 1.000000000000000000, 0.000000000000000000, -0.000000000000000000 ) ) ;
#193 = LINE ( 'NONE', #773, #588 ) ;
#194 = DIRECTION ( 'NONE',  ( -1.000000000000000000, 0.000000000000000000, 0.000000000000000000 ) ) ;
#195 = VERTEX_POINT ( 'NONE', #886 ) ;
#196 = DIRECTION ( 'NONE',  ( -0.7306113773142052237, -0.6827935378568253943, 0.000000000000000000 ) ) ;
#197 = DIRECTION ( 'NONE',  ( -1.000000000000000000, 0.000000000000000000, 0.000000000000000000 ) ) ;
#198 = CIRCLE ( 'NONE', #679, 12.00000000000000178 ) ;
#199 = EDGE_CURVE ( 'NONE', #118, #150, #748, .T. ) ;
#200 = FILL_AREA_STYLE_COLOUR ( '', #108 ) ;
#201 = AXIS2_PLACEMENT_3D ( 'NONE', #247, #542, #20 ) ;
#202 = SURFACE_SIDE_STYLE ('',( #135 ) ) ;
#203 = DIRECTION ( 'NONE',  ( -1.000000000000000000, 0.000000000000000000, 0.000000000000000000 ) ) ;
#204 = ORIENTED_EDGE ( 'NONE', *, *, #304, .T. ) ;
#205 =( NAMED_UNIT ( * ) PLANE_ANGLE_UNIT ( ) SI_UNIT ( $, .RADIAN. ) );
#206 = CARTESIAN_POINT ( 'NONE',  ( -3.828430242851232901, 2.760334413162493394, 11.74487999942863681 ) ) ;
#207 = UNCERTAINTY_MEASURE_WITH_UNIT (LENGTH_MEASURE( 1.000000000000000082E-05 ), #189, 'distance_accuracy_value', 'NONE');
#208 = CARTESIAN_POINT ( 'NONE',  ( -3.828430242851232901, 2.760334413162493394, 12.24487999942863681 ) ) ;
#209 = FACE_OUTER_BOUND ( 'NONE', #136, .T. ) ;
#210 = CYLINDRICAL_SURFACE ( 'NONE', #637, 2.020000000000000018 ) ;
#211 = ORIENTED_EDGE ( 'NONE', *, *, #446, .F. ) ;
#212 = EDGE_CURVE ( 'NONE', #160, #786, #949, .T. ) ;
#213 = FACE_OUTER_BOUND ( 'NONE', #550, .T. ) ;
#214 = ORIENTED_EDGE ( 'NONE', *, *, #199, .T. ) ;
#215 = DIRECTION ( 'NONE',  ( -1.000000000000000000, 0.000000000000000000, 0.000000000000000000 ) ) ;
#216 = AXIS2_PLACEMENT_3D ( 'NONE', #21, #239, #535 ) ;
#217 = DIRECTION ( 'NONE',  ( -1.000000000000000000, -0.000000000000000000, -0.000000000000000000 ) ) ;
#218 = CIRCLE ( 'NONE', #433, 12.00000000000000178 ) ;
#219 = ORIENTED_EDGE ( 'NONE', *, *, #112, .T. ) ;
#220 = DIRECTION ( 'NONE',  ( -0.000000000000000000, -0.000000000000000000, -1.000000000000000000 ) ) ;
#221 = FACE_OUTER_BOUND ( 'NONE', #344, .T. ) ;
#222 = CARTESIAN_POINT ( 'NONE',  ( 12.19847710886069336, 20.28747738455524541, 11.24487999942863681 ) ) ;
#223 = ORIENTED_EDGE ( 'NONE', *, *, #620, .F. ) ;
#224 = CARTESIAN_POINT ( 'NONE',  ( -22.92843024285123477, 2.760334413162493394, 9.044879999428637518 ) ) ;
#225 = ORIENTED_EDGE ( 'NONE', *, *, #23, .F. ) ;
#226 = LINE ( 'NONE', #720, #55 ) ;
#227 = ADVANCED_FACE ( 'NONE', ( #948 ), #741, .F. ) ;
#228 = ORIENTED_EDGE ( 'NONE', *, *, #144, .F. ) ;
#229 = ORIENTED_EDGE ( 'NONE', *, *, #304, .F. ) ;
#230 = DIRECTION ( 'NONE',  ( 0.000000000000000000, -0.000000000000000000, -1.000000000000000000 ) ) ;
#231 = EDGE_CURVE ( 'NONE', #436, #336, #667, .T. ) ;
#232 = DIRECTION ( 'NONE',  ( -0.000000000000000000, -0.000000000000000000, 1.000000000000000000 ) ) ;
#233 = EDGE_CURVE ( 'NONE', #668, #4, #77, .T. ) ;
#234 = VECTOR ( 'NONE', #308, 1000.000000000000000 ) ;
#235 = AXIS2_PLACEMENT_3D ( 'NONE', #343, #401, #197 ) ;
#236 = DIRECTION ( 'NONE',  ( 1.000000000000000000, 0.000000000000000000, 0.000000000000000000 ) ) ;
#237 = ORIENTED_EDGE ( 'NONE', *, *, #332, .F. ) ;
#238 = DIRECTION ( 'NONE',  ( 1.000000000000000000, 0.000000000000000000, -0.000000000000000000 ) ) ;
#239 = DIRECTION ( 'NONE',  ( 0.000000000000000000, 0.000000000000000000, 1.000000000000000000 ) ) ;
#240 = VERTEX_POINT ( 'NONE', #795 ) ;
#241 = DIRECTION ( 'NONE',  ( -1.000000000000000000, 0.000000000000000000, 0.000000000000000000 ) ) ;
#242 = DIRECTION ( 'NONE',  ( 0.000000000000000000, 0.000000000000000000, -1.000000000000000000 ) ) ;
#243 = DIRECTION ( 'NONE',  ( -0.000000000000000000, -0.000000000000000000, -1.000000000000000000 ) ) ;
#244 = APPLICATION_CONTEXT ( 'automotive_design' ) ;
#245 = ADVANCED_FACE ( 'NONE', ( #716 ), #656, .F. ) ;
#246 = EDGE_LOOP ( 'NONE', ( #822, #315 ) ) ;
#247 = CARTESIAN_POINT ( 'NONE',  ( -3.828430242851232901, 2.760334413162493394, 12.24487999942863681 ) ) ;
#248 = DIRECTION ( 'NONE',  ( 0.000000000000000000, 0.000000000000000000, -1.000000000000000000 ) ) ;
#249 = SURFACE_SIDE_STYLE ('',( #843 ) ) ;
#250 = PRESENTATION_LAYER_ASSIGNMENT (  '', '', ( #605 ) ) ;
#251 = VECTOR ( 'NONE', #417, 1000.000000000000114 ) ;
#252 = AXIS2_PLACEMENT_3D ( 'NONE', #762, #698, #128 ) ;
#253 = CARTESIAN_POINT ( 'NONE',  ( 9.023254223771152382, 16.88988523300021072, 9.044879999428637518 ) ) ;
#254 = EDGE_LOOP ( 'NONE', ( #489, #887, #661, #113 ) ) ;
#255 = FACE_OUTER_BOUND ( 'NONE', #897, .T. ) ;
#256 = FACE_OUTER_BOUND ( 'NONE', #652, .T. ) ;
#257 = CARTESIAN_POINT ( 'NONE',  ( 9.023254223771152382, 16.88988523300021072, 9.044879999428637518 ) ) ;
#258 = EDGE_LOOP ( 'NONE', ( #285, #828, #167, #352 ) ) ;
#259 = DIRECTION ( 'NONE',  ( 1.000000000000000000, 0.000000000000000000, 0.000000000000000000 ) ) ;
#260 = CARTESIAN_POINT ( 'NONE',  ( -3.828430242851232901, 2.760334413162493394, 14.74487999942863858 ) ) ;
#261 = DIRECTION ( 'NONE',  ( 1.000000000000000000, 0.000000000000000000, 0.000000000000000000 ) ) ;
#262 = EDGE_CURVE ( 'NONE', #471, #2, #516, .T. ) ;
#263 = CIRCLE ( 'NONE', #796, 2.020000000000000018 ) ;
#264 = CIRCLE ( 'NONE', #750, 23.75000000000000355 ) ;
#265 = ORIENTED_EDGE ( 'NONE', *, *, #837, .T. ) ;
#266 = DIRECTION ( 'NONE',  ( 0.000000000000000000, 0.000000000000000000, 1.000000000000000000 ) ) ;
#267 = VECTOR ( 'NONE', #337, 1000.000000000000000 ) ;
#268 = DIRECTION ( 'NONE',  ( 0.000000000000000000, 0.000000000000000000, 1.000000000000000000 ) ) ;
#269 = ORIENTED_EDGE ( 'NONE', *, *, #570, .F. ) ;
#270 = CARTESIAN_POINT ( 'NONE',  ( -0.8284302428512324568, 2.760334413162493838, 12.24487999942863681 ) ) ;
#271 = DIRECTION ( 'NONE',  ( -0.000000000000000000, -0.000000000000000000, -1.000000000000000000 ) ) ;
#272 = EDGE_CURVE ( 'NONE', #426, #668, #309, .T. ) ;
#273 = VERTEX_POINT ( 'NONE', #222 ) ;
#274 = CARTESIAN_POINT ( 'NONE',  ( 13.69871272854152444, -13.26657293854943021, 9.044879999428637518 ) ) ;
#275 =( NAMED_UNIT ( * ) PLANE_ANGLE_UNIT ( ) SI_UNIT ( $, .RADIAN. ) );
#276 = DIRECTION ( 'NONE',  ( -0.000000000000000000, -0.000000000000000000, -1.000000000000000000 ) ) ;
#277 = VECTOR ( 'NONE', #851, 1000.000000000000000 ) ;
#278 = EDGE_LOOP ( 'NONE', ( #835, #142, #874, #581 ) ) ;
#279 = AXIS2_PLACEMENT_3D ( 'NONE', #654, #944, #158 ) ;
#280 = SURFACE_STYLE_FILL_AREA ( #556 ) ;
#281 = ORIENTED_EDGE ( 'NONE', *, *, #23, .T. ) ;
#282 = ORIENTED_EDGE ( 'NONE', *, *, #813, .F. ) ;
#283 = DIRECTION ( 'NONE',  ( -0.000000000000000000, -0.000000000000000000, 1.000000000000000000 ) ) ;
#284 = ORIENTED_EDGE ( 'NONE', *, *, #392, .T. ) ;
#285 = ORIENTED_EDGE ( 'NONE', *, *, #51, .F. ) ;
#286 = DIRECTION ( 'NONE',  ( 0.000000000000000000, 0.000000000000000000, 1.000000000000000000 ) ) ;
#287 = DIRECTION ( 'NONE',  ( -0.000000000000000000, -0.000000000000000000, -1.000000000000000000 ) ) ;
#288 = ADVANCED_FACE ( 'NONE', ( #521 ), #809, .F. ) ;
#289 = FACE_OUTER_BOUND ( 'NONE', #946, .T. ) ;
#290 = ORIENTED_EDGE ( 'NONE', *, *, #162, .T. ) ;
#291 = CARTESIAN_POINT ( 'NONE',  ( -19.85533759456316005, 20.28747738455524541, 11.24487999942863681 ) ) ;
#292 = VECTOR ( 'NONE', #586, 1000.000000000000000 ) ;
#293 = CARTESIAN_POINT ( 'NONE',  ( -3.828430242851232901, 2.760334413162493394, 9.044879999428637518 ) ) ;
#294 = ORIENTED_EDGE ( 'NONE', *, *, #715, .F. ) ;
#295 = EDGE_CURVE ( 'NONE', #91, #713, #625, .T. ) ;
#296 = DIRECTION ( 'NONE',  ( 0.000000000000000000, 0.000000000000000000, 1.000000000000000000 ) ) ;
#297 = ORIENTED_EDGE ( 'NONE', *, *, #700, .F. ) ;
#298 = LINE ( 'NONE', #434, #608 ) ;
#299 = DIRECTION ( 'NONE',  ( -1.000000000000000000, 0.000000000000000000, 0.000000000000000000 ) ) ;
#300 = ORIENTED_EDGE ( 'NONE', *, *, #912, .T. ) ;
#301 = FACE_OUTER_BOUND ( 'NONE', #75, .T. ) ;
#302 = EDGE_CURVE ( 'NONE', #389, #426, #14, .T. ) ;
#303 = ORIENTED_EDGE ( 'NONE', *, *, #800, .T. ) ;
#304 = EDGE_CURVE ( 'NONE', #188, #670, #624, .T. ) ;
#305 = ORIENTED_EDGE ( 'NONE', *, *, #686, .F. ) ;
#306 = EDGE_LOOP ( 'NONE', ( #761, #132, #393, #598 ) ) ;
#307 = AXIS2_PLACEMENT_3D ( 'NONE', #319, #243, #687 ) ;
#308 = DIRECTION ( 'NONE',  ( 1.000000000000000000, 0.000000000000000000, 0.000000000000000000 ) ) ;
#309 = CIRCLE ( 'NONE', #638, 23.75000000000000355 ) ;
#310 = VERTEX_POINT ( 'NONE', #381 ) ;
#311 = VECTOR ( 'NONE', #317, 1000.000000000000000 ) ;
#312 = ORIENTED_EDGE ( 'NONE', *, *, #780, .F. ) ;
#313 = DIRECTION ( 'NONE',  ( -0.000000000000000000, -0.000000000000000000, -1.000000000000000000 ) ) ;
#314 = ADVANCED_FACE ( 'NONE', ( #28 ), #466, .T. ) ;
#315 = ORIENTED_EDGE ( 'NONE', *, *, #212, .F. ) ;
#316 = ORIENTED_EDGE ( 'NONE', *, *, #348, .T. ) ;
#317 = DIRECTION ( 'NONE',  ( -0.000000000000000000, -0.000000000000000000, -1.000000000000000000 ) ) ;
#318 = DIRECTION ( 'NONE',  ( 0.000000000000000000, 0.000000000000000000, 1.000000000000000000 ) ) ;
#319 = CARTESIAN_POINT ( 'NONE',  ( -3.828430242851232901, 2.760334413162493394, 47.22444312810840472 ) ) ;
#320 = ORIENTED_EDGE ( 'NONE', *, *, #78, .T. ) ;
#321 = PLANE ( 'NONE',  #592 ) ;
#322 = CARTESIAN_POINT ( 'NONE',  ( -3.828430242851232901, 2.760334413162493394, 17.24487999942863681 ) ) ;
#323 = DIRECTION ( 'NONE',  ( -0.000000000000000000, -0.000000000000000000, 1.000000000000000000 ) ) ;
#324 = AXIS2_PLACEMENT_3D ( 'NONE', #870, #513, #371 ) ;
#325 = AXIS2_PLACEMENT_3D ( 'NONE', #409, #644, #785 ) ;
#326 = ADVANCED_FACE ( 'NONE', ( #682 ), #907, .F. ) ;
#327 = EDGE_LOOP ( 'NONE', ( #584, #889, #775, #884 ) ) ;
#328 = CARTESIAN_POINT ( 'NONE',  ( 9.023254223771152382, 16.88988523300021072, 11.24487999942863681 ) ) ;
#329 = DIRECTION ( 'NONE',  ( 1.000000000000000000, 0.000000000000000000, 0.000000000000000000 ) ) ;
#330 = ORIENTED_EDGE ( 'NONE', *, *, #36, .T. ) ;
#331 = CARTESIAN_POINT ( 'NONE',  ( -3.828430242851232901, 2.760334413162493394, 11.24487999942863681 ) ) ;
#332 = EDGE_CURVE ( 'NONE', #25, #79, #752, .T. ) ;
#333 = CARTESIAN_POINT ( 'NONE',  ( -19.85533759456316005, 20.28747738455524541, 12.24487999942863681 ) ) ;
#334 = ADVANCED_FACE ( 'NONE', ( #256 ), #93, .F. ) ;
#335 = DIRECTION ( 'NONE',  ( 1.000000000000000000, 0.000000000000000000, 0.000000000000000000 ) ) ;
#336 = VERTEX_POINT ( 'NONE', #103 ) ;
#337 = DIRECTION ( 'NONE',  ( -0.000000000000000000, -0.000000000000000000, -1.000000000000000000 ) ) ;
#338 = ORIENTED_EDGE ( 'NONE', *, *, #700, .T. ) ;
#339 = CARTESIAN_POINT ( 'NONE',  ( -3.828430242851232901, 2.760334413162493394, 9.044879999428637518 ) ) ;
#340 = AXIS2_PLACEMENT_3D ( 'NONE', #442, #876, #151 ) ;
#341 = EDGE_CURVE ( 'NONE', #356, #273, #692, .T. ) ;
#342 = CARTESIAN_POINT ( 'NONE',  ( -21.35557321424398225, -13.26657293854943021, 11.24487999942863681 ) ) ;
#343 = CARTESIAN_POINT ( 'NONE',  ( -3.828430242851232901, 2.760334413162493394, 17.24487999942863681 ) ) ;
#344 = EDGE_LOOP ( 'NONE', ( #305, #757, #908, #265 ) ) ;
#345 = VECTOR ( 'NONE', #94, 1000.000000000000000 ) ;
#346 = CARTESIAN_POINT ( 'NONE',  ( 10.30112057698648265, -10.09135005345989100, 11.24487999942863681 ) ) ;
#347 = VECTOR ( 'NONE', #856, 1000.000000000000000 ) ;
#348 = EDGE_CURVE ( 'NONE', #670, #754, #936, .T. ) ;
#349 = FACE_OUTER_BOUND ( 'NONE', #920, .T. ) ;
#350 = AXIS2_PLACEMENT_3D ( 'NONE', #755, #174, #824 ) ;
#351 = CARTESIAN_POINT ( 'NONE',  ( -1.808430242851232883, 2.760334413162493394, 14.74487999942863858 ) ) ;
#352 = ORIENTED_EDGE ( 'NONE', *, *, #133, .F. ) ;
#353 = CARTESIAN_POINT ( 'NONE',  ( -3.828430242851232901, 2.760334413162493394, 47.22444312810840472 ) ) ;
#354 = ADVANCED_FACE ( 'NONE', ( #615, #611 ), #689, .T. ) ;
#355 = CARTESIAN_POINT ( 'NONE',  ( -19.85533759456316005, 20.28747738455524541, 12.24487999942863681 ) ) ;
#356 = VERTEX_POINT ( 'NONE', #461 ) ;
#357 = EDGE_LOOP ( 'NONE', ( #459, #237, #269, #455 ) ) ;
#358 = CARTESIAN_POINT ( 'NONE',  ( -27.57843024285123334, 2.760334413162493394, 11.24487999942863681 ) ) ;
#359 = FACE_OUTER_BOUND ( 'NONE', #306, .T. ) ;
#360 = ORIENTED_EDGE ( 'NONE', *, *, #199, .F. ) ;
#361 = DIRECTION ( 'NONE',  ( -0.7306113773142041135, 0.6827935378568266156, 0.000000000000000000 ) ) ;
#362 = AXIS2_PLACEMENT_3D ( 'NONE', #293, #803, #456 ) ;
#363 = VECTOR ( 'NONE', #577, 1000.000000000000114 ) ;
#364 = DIRECTION ( 'NONE',  ( 0.000000000000000000, 0.000000000000000000, 1.000000000000000000 ) ) ;
#365 = CIRCLE ( 'NONE', #517, 23.75000000000000355 ) ;
#366 = ORIENTED_EDGE ( 'NONE', *, *, #262, .F. ) ;
#367 = EDGE_CURVE ( 'NONE', #788, #719, #573, .T. ) ;
#368 = PRODUCT_RELATED_PRODUCT_CATEGORY ( 'part', '', ( #645 ) ) ;
#369 = ORIENTED_EDGE ( 'NONE', *, *, #602, .T. ) ;
#370 = PLANE ( 'NONE',  #905 ) ;
#371 = DIRECTION ( 'NONE',  ( 1.000000000000000000, 0.000000000000000000, 0.000000000000000000 ) ) ;
#372 = ORIENTED_EDGE ( 'NONE', *, *, #367, .F. ) ;
#373 = DIRECTION ( 'NONE',  ( -0.7306113773142052237, -0.6827935378568253943, 0.000000000000000000 ) ) ;
#374 = DIRECTION ( 'NONE',  ( 1.000000000000000000, 0.000000000000000000, 0.000000000000000000 ) ) ;
#375 = ORIENTED_EDGE ( 'NONE', *, *, #715, .T. ) ;
#376 =( NAMED_UNIT ( * ) PLANE_ANGLE_UNIT ( ) SI_UNIT ( $, .RADIAN. ) );
#377 = ORIENTED_EDGE ( 'NONE', *, *, #302, .F. ) ;
#378 = LINE ( 'NONE', #92, #12 ) ;
#379 = EDGE_CURVE ( 'NONE', #754, #744, #849, .T. ) ;
#380 = CLOSED_SHELL ( 'NONE', ( #19, #154, #326, #398, #314, #632, #537, #511 ) ) ;
#381 = CARTESIAN_POINT ( 'NONE',  ( -6.828430242851234233, 2.760334413162493394, 17.24487999942863681 ) ) ;
#382 = AXIS2_PLACEMENT_3D ( 'NONE', #685, #242, #17 ) ;
#383 = DIRECTION ( 'NONE',  ( -0.000000000000000000, -0.000000000000000000, -1.000000000000000000 ) ) ;
#384 = VECTOR ( 'NONE', #121, 1000.000000000000000 ) ;
#385 = EDGE_LOOP ( 'NONE', ( #476, #717 ) ) ;
#386 = DIRECTION ( 'NONE',  ( 0.000000000000000000, 0.000000000000000000, 1.000000000000000000 ) ) ;
#387 = DIRECTION ( 'NONE',  ( -1.000000000000000000, 0.000000000000000000, 0.000000000000000000 ) ) ;
#388 = CARTESIAN_POINT ( 'NONE',  ( 13.69871272854152444, -13.26657293854943021, 47.22444312810840472 ) ) ;
#389 = VERTEX_POINT ( 'NONE', #618 ) ;
#390 = FACE_OUTER_BOUND ( 'NONE', #939, .T. ) ;
#391 = CARTESIAN_POINT ( 'NONE',  ( -21.35557321424398225, -13.26657293854943021, 12.24487999942863681 ) ) ;
#392 = EDGE_CURVE ( 'NONE', #273, #29, #264, .T. ) ;
#393 = ORIENTED_EDGE ( 'NONE', *, *, #133, .T. ) ;
#394 = LINE ( 'NONE', #460, #57 ) ;
#395 = CARTESIAN_POINT ( 'NONE',  ( -16.68011470947362795, 16.88988523300021072, 11.24487999942863681 ) ) ;
#396 = CLOSED_SHELL ( 'NONE', ( #85, #844, #245, #457, #707, #646, #24, #227, #866, #560, #334, #808, #639, #131, #854, #769, #354, #183, #431 ) ) ;
#397 = AXIS2_PLACEMENT_3D ( 'NONE', #548, #318, #483 ) ;
#398 = ADVANCED_FACE ( 'NONE', ( #832 ), #176, .F. ) ;
#399 =( GEOMETRIC_REPRESENTATION_CONTEXT ( 3 ) GLOBAL_UNCERTAINTY_ASSIGNED_CONTEXT ( ( #929 ) ) GLOBAL_UNIT_ASSIGNED_CONTEXT ( ( #834, #376, #532 ) ) REPRESENTATION_CONTEXT ( 'NONE', 'WORKASPACE' ) );
#400 = EDGE_CURVE ( 'NONE', #817, #91, #567, .T. ) ;
#401 = DIRECTION ( 'NONE',  ( -0.000000000000000000, -0.000000000000000000, -1.000000000000000000 ) ) ;
#402 = CARTESIAN_POINT ( 'NONE',  ( -3.828430242851232901, 2.760334413162493394, 11.24487999942863681 ) ) ;
#403 = CARTESIAN_POINT ( 'NONE',  ( 13.69871272854152799, -13.26657293854942665, 12.24487999942863681 ) ) ;
#404 = FACE_OUTER_BOUND ( 'NONE', #917, .T. ) ;
#405 = CARTESIAN_POINT ( 'NONE',  ( 9.171569757148768431, 2.760334413162495171, 12.74487999942863681 ) ) ;
#406 = CARTESIAN_POINT ( 'NONE',  ( -3.828430242851232901, 2.760334413162493394, 12.74487999942863681 ) ) ;
#407 = ORIENTED_EDGE ( 'NONE', *, *, #768, .F. ) ;
#408 = EDGE_CURVE ( 'NONE', #29, #867, #424, .T. ) ;
#409 = CARTESIAN_POINT ( 'NONE',  ( -3.828430242851232901, 2.760334413162493394, 12.74487999942863681 ) ) ;
#410 = VECTOR ( 'NONE', #323, 1000.000000000000000 ) ;
#411 = AXIS2_PLACEMENT_3D ( 'NONE', #659, #947, #520 ) ;
#412 = CARTESIAN_POINT ( 'NONE',  ( -5.848430242851232919, 2.760334413162493838, 14.74487999942863858 ) ) ;
#413 = VECTOR ( 'NONE', #271, 1000.000000000000000 ) ;
#414 = ORIENTED_EDGE ( 'NONE', *, *, #480, .F. ) ;
#415 = CARTESIAN_POINT ( 'NONE',  ( -3.828430242851232901, 2.760334413162493394, 47.22444312810840472 ) ) ;
#416 = CARTESIAN_POINT ( 'NONE',  ( -19.85533759456316005, 20.28747738455524541, 11.24487999942863681 ) ) ;
#417 = DIRECTION ( 'NONE',  ( 0.6827935378568253943, -0.7306113773142052237, 0.000000000000000000 ) ) ;
#418 = CYLINDRICAL_SURFACE ( 'NONE', #184, 12.00000000000000178 ) ;
#419 = ORIENTED_EDGE ( 'NONE', *, *, #587, .F. ) ;
#420 = EDGE_CURVE ( 'NONE', #4, #913, #563, .T. ) ;
#421 = DIRECTION ( 'NONE',  ( 0.000000000000000000, 0.000000000000000000, 1.000000000000000000 ) ) ;
#422 = PRODUCT_DEFINITION_SHAPE ( 'NONE', 'NONE',  #940 ) ;
#423 = ORIENTED_EDGE ( 'NONE', *, *, #272, .F. ) ;
#424 = LINE ( 'NONE', #32, #347 ) ;
#425 =( NAMED_UNIT ( * ) PLANE_ANGLE_UNIT ( ) SI_UNIT ( $, .RADIAN. ) );
#426 = VERTEX_POINT ( 'NONE', #922 ) ;
#427 = EDGE_CURVE ( 'NONE', #240, #432, #710, .T. ) ;
#428 = PRESENTATION_LAYER_ASSIGNMENT (  '', '', ( #662 ) ) ;
#429 = DIRECTION ( 'NONE',  ( 1.000000000000000000, 0.000000000000000000, -0.000000000000000000 ) ) ;
#430 = VECTOR ( 'NONE', #129, 1000.000000000000000 ) ;
#431 = ADVANCED_FACE ( 'NONE', ( #915 ), #498, .T. ) ;
#432 = VERTEX_POINT ( 'NONE', #274 ) ;
#433 = AXIS2_PLACEMENT_3D ( 'NONE', #635, #565, #918 ) ;
#434 = CARTESIAN_POINT ( 'NONE',  ( 8.171569757148768431, 2.760334413162493394, 11.74487999942863681 ) ) ;
#435 = CARTESIAN_POINT ( 'NONE',  ( -16.82843024285123334, 2.760334413162493394, 12.74487999942863681 ) ) ;
#436 = VERTEX_POINT ( 'NONE', #46 ) ;
#437 = PLANE ( 'NONE',  #502 ) ;
#438 = ORIENTED_EDGE ( 'NONE', *, *, #302, .T. ) ;
#439 = CARTESIAN_POINT ( 'NONE',  ( -1.808430242851232883, 2.760334413162493394, 14.74487999942863858 ) ) ;
#440 = CARTESIAN_POINT ( 'NONE',  ( -3.828430242851232901, 2.760334413162493394, 11.74487999942863681 ) ) ;
#441 = ORIENTED_EDGE ( 'NONE', *, *, #942, .F. ) ;
#442 = CARTESIAN_POINT ( 'NONE',  ( -3.828430242851232901, 2.760334413162493394, 17.24487999942863681 ) ) ;
#443 = ORIENTED_EDGE ( 'NONE', *, *, #272, .T. ) ;
#444 = DIRECTION ( 'NONE',  ( -0.000000000000000000, -0.000000000000000000, -1.000000000000000000 ) ) ;
#445 = MANIFOLD_SOLID_BREP ( 'Cut-Extrude3', #396 ) ;
#446 = EDGE_CURVE ( 'NONE', #595, #613, #703, .T. ) ;
#447 = CARTESIAN_POINT ( 'NONE',  ( -17.95798106268894756, -10.09135005345989988, 11.24487999942863681 ) ) ;
#448 = FACE_BOUND ( 'NONE', #462, .T. ) ;
#449 = ORIENTED_EDGE ( 'NONE', *, *, #892, .F. ) ;
#450 = DIRECTION ( 'NONE',  ( -1.000000000000000000, 0.000000000000000000, -0.000000000000000000 ) ) ;
#451 = VECTOR ( 'NONE', #287, 1000.000000000000000 ) ;
#452 = VECTOR ( 'NONE', #734, 1000.000000000000000 ) ;
#453 = DIRECTION ( 'NONE',  ( 1.000000000000000000, 0.000000000000000000, 0.000000000000000000 ) ) ;
#454 = VECTOR ( 'NONE', #534, 1000.000000000000000 ) ;
#455 = ORIENTED_EDGE ( 'NONE', *, *, #427, .F. ) ;
#456 = DIRECTION ( 'NONE',  ( -1.000000000000000000, 0.000000000000000000, 0.000000000000000000 ) ) ;
#457 = ADVANCED_FACE ( 'NONE', ( #404 ), #119, .T. ) ;
#458 = DIRECTION ( 'NONE',  ( -0.000000000000000000, -0.000000000000000000, -1.000000000000000000 ) ) ;
#459 = ORIENTED_EDGE ( 'NONE', *, *, #610, .F. ) ;
#460 = CARTESIAN_POINT ( 'NONE',  ( 9.171569757148768431, 2.760334413162495171, 12.74487999942863681 ) ) ;
#461 = CARTESIAN_POINT ( 'NONE',  ( 9.023254223771150606, 16.88988523300021072, 11.24487999942863681 ) ) ;
#462 = EDGE_LOOP ( 'NONE', ( #845, #871 ) ) ;
#463 = ORIENTED_EDGE ( 'NONE', *, *, #842, .F. ) ;
#464 = EDGE_CURVE ( 'NONE', #744, #118, #699, .T. ) ;
#465 =( GEOMETRIC_REPRESENTATION_CONTEXT ( 3 ) GLOBAL_UNCERTAINTY_ASSIGNED_CONTEXT ( ( #207 ) ) GLOBAL_UNIT_ASSIGNED_CONTEXT ( ( #189, #275, #56 ) ) REPRESENTATION_CONTEXT ( 'NONE', 'WORKASPACE' ) );
#466 = CYLINDRICAL_SURFACE ( 'NONE', #11, 23.75000000000000355 ) ;
#467 = AXIS2_PLACEMENT_3D ( 'NONE', #69, #725, #137 ) ;
#468 = CYLINDRICAL_SURFACE ( 'NONE', #153, 2.020000000000000018 ) ;
#469 = AXIS2_PLACEMENT_3D ( 'NONE', #208, #730, #203 ) ;
#470 = CARTESIAN_POINT ( 'NONE',  ( -3.828430242851232901, 2.760334413162493394, 12.24487999942863681 ) ) ;
#471 = VERTEX_POINT ( 'NONE', #642 ) ;
#472 = CARTESIAN_POINT ( 'NONE',  ( -19.85533759456316005, 20.28747738455524541, 9.044879999428637518 ) ) ;
#473 = EDGE_CURVE ( 'NONE', #670, #793, #789, .T. ) ;
#474 = PRESENTATION_STYLE_ASSIGNMENT (( #177 ) ) ;
#475 = APPLICATION_PROTOCOL_DEFINITION ( 'draft international standard', 'automotive_design', 1998, #799 ) ;
#476 = ORIENTED_EDGE ( 'NONE', *, *, #262, .T. ) ;
#477 = DIRECTION ( 'NONE',  ( 0.000000000000000000, 0.000000000000000000, 1.000000000000000000 ) ) ;
#478 = CARTESIAN_POINT ( 'NONE',  ( -3.828430242851232901, 2.760334413162493394, 11.24487999942863681 ) ) ;
#479 = DIRECTION ( 'NONE',  ( 0.000000000000000000, 0.000000000000000000, 1.000000000000000000 ) ) ;
#480 = EDGE_CURVE ( 'NONE', #810, #913, #869, .T. ) ;
#481 = ORIENTED_EDGE ( 'NONE', *, *, #36, .F. ) ;
#482 = CARTESIAN_POINT ( 'NONE',  ( -1.808430242851232883, 2.760334413162493394, 17.24487999942863681 ) ) ;
#483 = DIRECTION ( 'NONE',  ( 1.000000000000000000, 0.000000000000000000, -0.000000000000000000 ) ) ;
#484 = AXIS2_PLACEMENT_3D ( 'NONE', #633, #383, #540 ) ;
#485 = FACE_OUTER_BOUND ( 'NONE', #258, .T. ) ;
#486 = AXIS2_PLACEMENT_3D ( 'NONE', #260, #268, #192 ) ;
#487 = VECTOR ( 'NONE', #276, 1000.000000000000000 ) ;
#488 = AXIS2_PLACEMENT_3D ( 'NONE', #168, #477, #238 ) ;
#489 = ORIENTED_EDGE ( 'NONE', *, *, #126, .F. ) ;
#490 = CARTESIAN_POINT ( 'NONE',  ( -27.57843024285123690, 2.760334413162493394, 11.24487999942863681 ) ) ;
#491 = EDGE_LOOP ( 'NONE', ( #643, #204, #96, #859 ) ) ;
#492 =( NAMED_UNIT ( * ) SI_UNIT ( $, .STERADIAN. ) SOLID_ANGLE_UNIT ( ) );
#493 = EDGE_CURVE ( 'NONE', #754, #522, #226, .T. ) ;
#494 = CARTESIAN_POINT ( 'NONE',  ( -16.68011470947362795, 16.88988523300021072, 47.22444312810840472 ) ) ;
#495 = ORIENTED_EDGE ( 'NONE', *, *, #578, .T. ) ;
#496 = DIRECTION ( 'NONE',  ( -0.000000000000000000, -0.000000000000000000, -1.000000000000000000 ) ) ;
#497 = CARTESIAN_POINT ( 'NONE',  ( 12.19847710886069336, 20.28747738455524541, 11.24487999942863681 ) ) ;
#498 = PLANE ( 'NONE',  #486 ) ;
#499 = AXIS2_PLACEMENT_3D ( 'NONE', #619, #568, #579 ) ;
#500 = AXIS2_PLACEMENT_3D ( 'NONE', #1, #735, #593 ) ;
#501 = CARTESIAN_POINT ( 'NONE',  ( -3.828430242851232901, 2.760334413162493394, 11.24487999942863681 ) ) ;
#502 = AXIS2_PLACEMENT_3D ( 'NONE', #589, #718, #64 ) ;
#503 = ORIENTED_EDGE ( 'NONE', *, *, #792, .F. ) ;
#504 = CARTESIAN_POINT ( 'NONE',  ( -16.68011470947362795, 16.88988523300021072, 9.044879999428637518 ) ) ;
#505 = EDGE_CURVE ( 'NONE', #591, #336, #875, .T. ) ;
#506 = CYLINDRICAL_SURFACE ( 'NONE', #340, 3.000000000000000888 ) ;
#507 = CARTESIAN_POINT ( 'NONE',  ( -16.68011470947362795, 16.88988523300021072, 11.24487999942863681 ) ) ;
#508 = FILL_AREA_STYLE_COLOUR ( '', #557 ) ;
#509 = EDGE_CURVE ( 'NONE', #471, #788, #298, .T. ) ;
#510 = ORIENTED_EDGE ( 'NONE', *, *, #505, .F. ) ;
#511 = ADVANCED_FACE ( 'NONE', ( #209 ), #524, .F. ) ;
#512 = EDGE_LOOP ( 'NONE', ( #282, #68, #173, #34 ) ) ;
#513 = DIRECTION ( 'NONE',  ( 0.000000000000000000, 0.000000000000000000, 1.000000000000000000 ) ) ;
#514 = ORIENTED_EDGE ( 'NONE', *, *, #952, .T. ) ;
#515 = DIRECTION ( 'NONE',  ( 0.6827935378568266156, 0.7306113773142041135, -0.000000000000000000 ) ) ;
#516 = CIRCLE ( 'NONE', #500, 12.00000000000000178 ) ;
#517 = AXIS2_PLACEMENT_3D ( 'NONE', #501, #580, #519 ) ;
#518 = ORIENTED_EDGE ( 'NONE', *, *, #392, .F. ) ;
#519 = DIRECTION ( 'NONE',  ( -1.000000000000000000, 0.000000000000000000, 0.000000000000000000 ) ) ;
#520 = DIRECTION ( 'NONE',  ( 1.000000000000000000, 0.000000000000000000, 0.000000000000000000 ) ) ;
#521 = FACE_OUTER_BOUND ( 'NONE', #278, .T. ) ;
#522 = VERTEX_POINT ( 'NONE', #76 ) ;
#523 = VERTEX_POINT ( 'NONE', #439 ) ;
#524 = PLANE ( 'NONE',  #185 ) ;
#525 = CARTESIAN_POINT ( 'NONE',  ( -21.35557321424398225, -13.26657293854943021, 12.24487999942863681 ) ) ;
#526 = DIRECTION ( 'NONE',  ( 1.000000000000000000, 0.000000000000000000, 0.000000000000000000 ) ) ;
#527 = ORIENTED_EDGE ( 'NONE', *, *, #509, .F. ) ;
#528 = DIRECTION ( 'NONE',  ( 1.000000000000000000, 0.000000000000000000, 0.000000000000000000 ) ) ;
#529 =( GEOMETRIC_REPRESENTATION_CONTEXT ( 3 ) GLOBAL_UNCERTAINTY_ASSIGNED_CONTEXT ( ( #599 ) ) GLOBAL_UNIT_ASSIGNED_CONTEXT ( ( #120, #425, #492 ) ) REPRESENTATION_CONTEXT ( 'NONE', 'WORKASPACE' ) );
#530 = AXIS2_PLACEMENT_3D ( 'NONE', #98, #115, #196 ) ;
#531 = CARTESIAN_POINT ( 'NONE',  ( -3.828430242851232901, 2.760334413162493394, 11.24487999942863681 ) ) ;
#532 =( NAMED_UNIT ( * ) SI_UNIT ( $, .STERADIAN. ) SOLID_ANGLE_UNIT ( ) );
#533 = ORIENTED_EDGE ( 'NONE', *, *, #78, .F. ) ;
#534 = DIRECTION ( 'NONE',  ( -0.000000000000000000, -0.000000000000000000, -1.000000000000000000 ) ) ;
#535 = DIRECTION ( 'NONE',  ( 1.000000000000000000, 0.000000000000000000, -0.000000000000000000 ) ) ;
#536 = ORIENTED_EDGE ( 'NONE', *, *, #727, .F. ) ;
#537 = ADVANCED_FACE ( 'NONE', ( #221 ), #818, .F. ) ;
#538 = ORIENTED_EDGE ( 'NONE', *, *, #686, .T. ) ;
#539 = CYLINDRICAL_SURFACE ( 'NONE', #350, 23.75000000000000000 ) ;
#540 = DIRECTION ( 'NONE',  ( -1.000000000000000000, 0.000000000000000000, 0.000000000000000000 ) ) ;
#541 = VERTEX_POINT ( 'NONE', #358 ) ;
#542 = DIRECTION ( 'NONE',  ( 0.000000000000000000, 0.000000000000000000, 1.000000000000000000 ) ) ;
#543 = DIRECTION ( 'NONE',  ( -1.000000000000000000, 0.000000000000000000, 0.000000000000000000 ) ) ;
#544 = VECTOR ( 'NONE', #756, 1000.000000000000114 ) ;
#545 = CYLINDRICAL_SURFACE ( 'NONE', #307, 19.10000000000000142 ) ;
#546 = AXIS2_PLACEMENT_3D ( 'NONE', #353, #220, #653 ) ;
#547 = DIRECTION ( 'NONE',  ( 0.6827935378568253943, -0.7306113773142052237, 0.000000000000000000 ) ) ;
#548 = CARTESIAN_POINT ( 'NONE',  ( -3.828430242851232901, 2.760334413162493394, 9.044879999428637518 ) ) ;
#549 = CARTESIAN_POINT ( 'NONE',  ( 13.69871272854152444, -13.26657293854943021, 11.24487999942863681 ) ) ;
#550 = EDGE_LOOP ( 'NONE', ( #223, #284, #219, #6 ) ) ;
#551 = FACE_OUTER_BOUND ( 'NONE', #883, .T. ) ;
#552 = DIRECTION ( 'NONE',  ( 1.000000000000000000, 0.000000000000000000, 0.000000000000000000 ) ) ;
#553 = CARTESIAN_POINT ( 'NONE',  ( 10.30112057698648265, -10.09135005345989100, 47.22444312810840472 ) ) ;
#554 = ORIENTED_EDGE ( 'NONE', *, *, #379, .T. ) ;
#555 = CARTESIAN_POINT ( 'NONE',  ( -6.828430242851234233, 2.760334413162493394, 17.24487999942863681 ) ) ;
#556 = FILL_AREA_STYLE ('',( #200 ) ) ;
#557 = COLOUR_RGB ( '',0.7921568627450980005, 0.8196078431372548767, 0.9333333333333333481 ) ;
#558 = LINE ( 'NONE', #683, #815 ) ;
#559 = VECTOR ( 'NONE', #178, 1000.000000000000000 ) ;
#560 = ADVANCED_FACE ( 'NONE', ( #349 ), #370, .F. ) ;
#561 = ORIENTED_EDGE ( 'NONE', *, *, #610, .T. ) ;
#562 = CYLINDRICAL_SURFACE ( 'NONE', #714, 13.00000000000000178 ) ;
#563 = LINE ( 'NONE', #333, #72 ) ;
#564 = CYLINDRICAL_SURFACE ( 'NONE', #919, 23.75000000000000355 ) ;
#565 = DIRECTION ( 'NONE',  ( 0.000000000000000000, 0.000000000000000000, 1.000000000000000000 ) ) ;
#566 = EDGE_LOOP ( 'NONE', ( #702, #554, #747, #622 ) ) ;
#567 = LINE ( 'NONE', #927, #430 ) ;
#568 = DIRECTION ( 'NONE',  ( 0.000000000000000000, 0.000000000000000000, 1.000000000000000000 ) ) ;
#569 = DIRECTION ( 'NONE',  ( 0.000000000000000000, 0.000000000000000000, 1.000000000000000000 ) ) ;
#570 = EDGE_CURVE ( 'NONE', #432, #25, #42, .T. ) ;
#571 = ORIENTED_EDGE ( 'NONE', *, *, #837, .F. ) ;
#572 = COLOUR_RGB ( '',0.7921568627450980005, 0.8196078431372548767, 0.9333333333333333481 ) ;
#573 = CIRCLE ( 'NONE', #123, 12.00000000000000178 ) ;
#574 = FACE_OUTER_BOUND ( 'NONE', #806, .T. ) ;
#575 = AXIS2_PLACEMENT_3D ( 'NONE', #723, #515, #361 ) ;
#576 = EDGE_LOOP ( 'NONE', ( #503, #320, #290, #527 ) ) ;
#577 = DIRECTION ( 'NONE',  ( -0.6827935378568253943, 0.7306113773142052237, 0.000000000000000000 ) ) ;
#578 = EDGE_CURVE ( 'NONE', #786, #160, #704, .T. ) ;
#579 = DIRECTION ( 'NONE',  ( 1.000000000000000000, 0.000000000000000000, 0.000000000000000000 ) ) ;
#580 = DIRECTION ( 'NONE',  ( 0.000000000000000000, 0.000000000000000000, 1.000000000000000000 ) ) ;
#581 = ORIENTED_EDGE ( 'NONE', *, *, #332, .T. ) ;
#582 = CARTESIAN_POINT ( 'NONE',  ( -3.828430242851232901, 2.760334413162493394, 9.044879999428637518 ) ) ;
#583 = DIRECTION ( 'NONE',  ( 0.000000000000000000, 0.000000000000000000, 1.000000000000000000 ) ) ;
#584 = ORIENTED_EDGE ( 'NONE', *, *, #112, .F. ) ;
#585 = DIRECTION ( 'NONE',  ( -0.000000000000000000, -0.000000000000000000, -1.000000000000000000 ) ) ;
#586 = DIRECTION ( 'NONE',  ( -0.000000000000000000, -0.000000000000000000, -1.000000000000000000 ) ) ;
#587 = EDGE_CURVE ( 'NONE', #657, #160, #651, .T. ) ;
#588 = VECTOR ( 'NONE', #116, 1000.000000000000000 ) ;
#589 = CARTESIAN_POINT ( 'NONE',  ( -3.828430242851232901, 2.760334413162493394, 11.24487999942863681 ) ) ;
#590 = AXIS2_PLACEMENT_3D ( 'NONE', #66, #146, #215 ) ;
#591 = VERTEX_POINT ( 'NONE', #802 ) ;
#592 = AXIS2_PLACEMENT_3D ( 'NONE', #677, #373, #547 ) ;
#593 = DIRECTION ( 'NONE',  ( 1.000000000000000000, 0.000000000000000000, 0.000000000000000000 ) ) ;
#594 = CARTESIAN_POINT ( 'NONE',  ( 12.19847710886069336, 20.28747738455524541, 12.24487999942863681 ) ) ;
#595 = VERTEX_POINT ( 'NONE', #666 ) ;
#596 = DIRECTION ( 'NONE',  ( -1.000000000000000000, -0.000000000000000000, -0.000000000000000000 ) ) ;
#597 = DIRECTION ( 'NONE',  ( 0.000000000000000000, 0.000000000000000000, 1.000000000000000000 ) ) ;
#598 = ORIENTED_EDGE ( 'NONE', *, *, #175, .T. ) ;
#599 = UNCERTAINTY_MEASURE_WITH_UNIT (LENGTH_MEASURE( 1.000000000000000082E-05 ), #120, 'distance_accuracy_value', 'NONE');
#600 = ORIENTED_EDGE ( 'NONE', *, *, #760, .F. ) ;
#601 = CARTESIAN_POINT ( 'NONE',  ( -21.35557321424399291, -13.26657293854942665, 47.22444312810840472 ) ) ;
#602 = EDGE_CURVE ( 'NONE', #523, #817, #830, .T. ) ;
#603 = DIRECTION ( 'NONE',  ( 1.000000000000000000, 0.000000000000000000, 0.000000000000000000 ) ) ;
#604 = CARTESIAN_POINT ( 'NONE',  ( 13.69871272854152799, -13.26657293854942665, 11.24487999942863681 ) ) ;
#605 = STYLED_ITEM ( 'NONE', ( #931 ), #130 ) ;
#606 = ORIENTED_EDGE ( 'NONE', *, *, #420, .F. ) ;
#607 = CARTESIAN_POINT ( 'NONE',  ( -27.57843024285123334, 2.760334413162493394, 12.24487999942863681 ) ) ;
#608 = VECTOR ( 'NONE', #61, 1000.000000000000000 ) ;
#609 = CIRCLE ( 'NONE', #58, 3.000000000000000444 ) ;
#610 = EDGE_CURVE ( 'NONE', #79, #240, #731, .T. ) ;
#611 = FACE_OUTER_BOUND ( 'NONE', #385, .T. ) ;
#612 = EDGE_CURVE ( 'NONE', #356, #79, #691, .T. ) ;
#613 = VERTEX_POINT ( 'NONE', #472 ) ;
#614 = DIRECTION ( 'NONE',  ( 1.000000000000000000, 0.000000000000000000, 0.000000000000000000 ) ) ;
#615 = FACE_BOUND ( 'NONE', #246, .T. ) ;
#616 = CARTESIAN_POINT ( 'NONE',  ( -19.85533759456316005, 20.28747738455524541, 12.24487999942863681 ) ) ;
#617 = LINE ( 'NONE', #904, #850 ) ;
#618 = CARTESIAN_POINT ( 'NONE',  ( -21.35557321424398225, -13.26657293854943021, 12.24487999942863681 ) ) ;
#619 = CARTESIAN_POINT ( 'NONE',  ( -3.828430242851232901, 2.760334413162493394, 17.24487999942863681 ) ) ;
#620 = EDGE_CURVE ( 'NONE', #273, #25, #617, .T. ) ;
#621 = DIRECTION ( 'NONE',  ( 1.000000000000000000, 0.000000000000000000, 0.000000000000000000 ) ) ;
#622 = ORIENTED_EDGE ( 'NONE', *, *, #811, .T. ) ;
#623 = FACE_BOUND ( 'NONE', #676, .T. ) ;
#624 = LINE ( 'NONE', #110, #544 ) ;
#625 = CIRCLE ( 'NONE', #26, 2.020000000000000018 ) ;
#626 = AXIS2_PLACEMENT_3D ( 'NONE', #738, #458, #236 ) ;
#627 = ORIENTED_EDGE ( 'NONE', *, *, #49, .F. ) ;
#628 = DIRECTION ( 'NONE',  ( 0.000000000000000000, 0.000000000000000000, 1.000000000000000000 ) ) ;
#629 = EDGE_LOOP ( 'NONE', ( #214, #538, #514, #600 ) ) ;
#630 = EDGE_LOOP ( 'NONE', ( #372, #101 ) ) ;
#631 = CARTESIAN_POINT ( 'NONE',  ( -3.828430242851232901, 2.760334413162493394, 12.24487999942863681 ) ) ;
#632 = ADVANCED_FACE ( 'NONE', ( #910 ), #321, .F. ) ;
#633 = CARTESIAN_POINT ( 'NONE',  ( -3.828430242851232901, 2.760334413162493394, 12.24487999942863681 ) ) ;
#634 = ORIENTED_EDGE ( 'NONE', *, *, #367, .T. ) ;
#635 = CARTESIAN_POINT ( 'NONE',  ( -3.828430242851232901, 2.760334413162493394, 12.24487999942863681 ) ) ;
#636 = ORIENTED_EDGE ( 'NONE', *, *, #480, .T. ) ;
#637 = AXIS2_PLACEMENT_3D ( 'NONE', #147, #232, #374 ) ;
#638 = AXIS2_PLACEMENT_3D ( 'NONE', #878, #597, #882 ) ;
#639 = ADVANCED_FACE ( 'NONE', ( #836, #551 ), #80, .T. ) ;
#640 = AXIS2_PLACEMENT_3D ( 'NONE', #97, #164, #749 ) ;
#641 = LINE ( 'NONE', #778, #384 ) ;
#642 = CARTESIAN_POINT ( 'NONE',  ( 8.171569757148768431, 2.760334413162493394, 12.24487999942863681 ) ) ;
#643 = ORIENTED_EDGE ( 'NONE', *, *, #655, .F. ) ;
#644 = DIRECTION ( 'NONE',  ( -0.000000000000000000, -0.000000000000000000, -1.000000000000000000 ) ) ;
#645 = PRODUCT ( 'cubit3_mag_support_P', 'cubit3_mag_support_P', '', ( #684 ) ) ;
#646 = ADVANCED_FACE ( 'NONE', ( #255, #623 ), #758, .T. ) ;
#647 = DIRECTION ( 'NONE',  ( 1.000000000000000000, 0.000000000000000000, 0.000000000000000000 ) ) ;
#648 =( LENGTH_UNIT ( ) NAMED_UNIT ( * ) SI_UNIT ( .MILLI., .METRE. ) );
#649 = MECHANICAL_DESIGN_GEOMETRIC_PRESENTATION_REPRESENTATION (  '', ( #155 ), #663 ) ;
#650 = AXIS2_PLACEMENT_3D ( 'NONE', #134, #421, #621 ) ;
#651 = LINE ( 'NONE', #941, #292 ) ;
#652 = EDGE_LOOP ( 'NONE', ( #481, #414, #463, #228, #297 ) ) ;
#653 = DIRECTION ( 'NONE',  ( -1.000000000000000000, 0.000000000000000000, 0.000000000000000000 ) ) ;
#654 = CARTESIAN_POINT ( 'NONE',  ( -3.828430242851232901, 2.760334413162493394, 12.24487999942863681 ) ) ;
#655 = EDGE_CURVE ( 'NONE', #188, #195, #840, .T. ) ;
#656 = CYLINDRICAL_SURFACE ( 'NONE', #765, 12.00000000000000178 ) ;
#657 = VERTEX_POINT ( 'NONE', #829 ) ;
#658 = ORIENTED_EDGE ( 'NONE', *, *, #473, .F. ) ;
#659 = CARTESIAN_POINT ( 'NONE',  ( -3.828430242851232901, 2.760334413162493394, 14.74487999942863858 ) ) ;
#660 = PLANE ( 'NONE',  #362 ) ;
#661 = ORIENTED_EDGE ( 'NONE', *, *, #212, .T. ) ;
#662 = STYLED_ITEM ( 'NONE', ( #474 ), #122 ) ;
#663 =( GEOMETRIC_REPRESENTATION_CONTEXT ( 3 ) GLOBAL_UNCERTAINTY_ASSIGNED_CONTEXT ( ( #673 ) ) GLOBAL_UNIT_ASSIGNED_CONTEXT ( ( #648, #205, #43 ) ) REPRESENTATION_CONTEXT ( 'NONE', 'WORKASPACE' ) );
#664 = ORIENTED_EDGE ( 'NONE', *, *, #231, .T. ) ;
#665 = CIRCLE ( 'NONE', #626, 19.10000000000000142 ) ;
#666 = CARTESIAN_POINT ( 'NONE',  ( -16.68011470947362795, 16.88988523300021072, 9.044879999428637518 ) ) ;
#667 = LINE ( 'NONE', #435, #451 ) ;
#668 = VERTEX_POINT ( 'NONE', #102 ) ;
#669 = CYLINDRICAL_SURFACE ( 'NONE', #546, 23.75000000000000355 ) ;
#670 = VERTEX_POINT ( 'NONE', #8 ) ;
#671 = DIRECTION ( 'NONE',  ( 0.000000000000000000, -1.000000000000000000, 0.000000000000000000 ) ) ;
#672 = ORIENTED_EDGE ( 'NONE', *, *, #379, .F. ) ;
#673 = UNCERTAINTY_MEASURE_WITH_UNIT (LENGTH_MEASURE( 1.000000000000000082E-05 ), #648, 'distance_accuracy_value', 'NONE');
#674 = DIRECTION ( 'NONE',  ( 1.000000000000000000, 0.000000000000000000, 0.000000000000000000 ) ) ;
#675 = EDGE_CURVE ( 'NONE', #867, #356, #681, .T. ) ;
#676 = EDGE_LOOP ( 'NONE', ( #441, #510 ) ) ;
#677 = CARTESIAN_POINT ( 'NONE',  ( -16.68011470947362795, 16.88988523300021072, 47.22444312810840472 ) ) ;
#678 = EDGE_CURVE ( 'NONE', #145, #591, #394, .T. ) ;
#679 = AXIS2_PLACEMENT_3D ( 'NONE', #159, #364, #603 ) ;
#680 = AXIS2_PLACEMENT_3D ( 'NONE', #402, #696, #387 ) ;
#681 = CIRCLE ( 'NONE', #640, 19.09999999999999432 ) ;
#682 = FACE_OUTER_BOUND ( 'NONE', #848, .T. ) ;
#683 = CARTESIAN_POINT ( 'NONE',  ( -21.35557321424398580, -13.26657293854943376, 9.044879999428637518 ) ) ;
#684 = PRODUCT_CONTEXT ( 'NONE', #799, 'mechanical' ) ;
#685 = CARTESIAN_POINT ( 'NONE',  ( -3.828430242851232901, 2.760334413162493394, 11.24487999942863681 ) ) ;
#686 = EDGE_CURVE ( 'NONE', #150, #877, #378, .T. ) ;
#687 = DIRECTION ( 'NONE',  ( -1.000000000000000000, 0.000000000000000000, 0.000000000000000000 ) ) ;
#688 = CARTESIAN_POINT ( 'NONE',  ( -3.828430242851232901, 2.760334413162493394, 11.24487999942863681 ) ) ;
#689 = PLANE ( 'NONE',  #216 ) ;
#690 = FILL_AREA_STYLE ('',( #901 ) ) ;
#691 = LINE ( 'NONE', #898, #311 ) ;
#692 = LINE ( 'NONE', #328, #139 ) ;
#693 = CIRCLE ( 'NONE', #650, 23.75000000000000355 ) ;
#694 = VERTEX_POINT ( 'NONE', #607 ) ;
#695 = LINE ( 'NONE', #701, #267 ) ;
#696 = DIRECTION ( 'NONE',  ( 0.000000000000000000, 0.000000000000000000, -1.000000000000000000 ) ) ;
#697 = LINE ( 'NONE', #179, #827 ) ;
#698 = DIRECTION ( 'NONE',  ( 0.000000000000000000, 0.000000000000000000, 1.000000000000000000 ) ) ;
#699 = LINE ( 'NONE', #507, #251 ) ;
#700 = EDGE_CURVE ( 'NONE', #541, #814, #73, .T. ) ;
#701 = CARTESIAN_POINT ( 'NONE',  ( -27.57843024285123334, 2.760334413162493394, 12.24487999942863681 ) ) ;
#702 = ORIENTED_EDGE ( 'NONE', *, *, #493, .F. ) ;
#703 = LINE ( 'NONE', #504, #363 ) ;
#704 = CIRCLE ( 'NONE', #279, 3.000000000000000444 ) ;
#705 = VECTOR ( 'NONE', #925, 1000.000000000000000 ) ;
#706 = LINE ( 'NONE', #555, #413 ) ;
#707 = ADVANCED_FACE ( 'NONE', ( #390 ), #539, .T. ) ;
#708 = EDGE_CURVE ( 'NONE', #310, #657, #609, .T. ) ;
#709 = LINE ( 'NONE', #494, #487 ) ;
#710 = LINE ( 'NONE', #772, #921 ) ;
#711 = ORIENTED_EDGE ( 'NONE', *, *, #493, .T. ) ;
#712 = ORIENTED_EDGE ( 'NONE', *, *, #51, .T. ) ;
#713 = VERTEX_POINT ( 'NONE', #482 ) ;
#714 = AXIS2_PLACEMENT_3D ( 'NONE', #406, #855, #194 ) ;
#715 = EDGE_CURVE ( 'NONE', #694, #389, #109, .T. ) ;
#716 = FACE_OUTER_BOUND ( 'NONE', #576, .T. ) ;
#717 = ORIENTED_EDGE ( 'NONE', *, *, #792, .T. ) ;
#718 = DIRECTION ( 'NONE',  ( 0.000000000000000000, 0.000000000000000000, -1.000000000000000000 ) ) ;
#719 = VERTEX_POINT ( 'NONE', #771 ) ;
#720 = CARTESIAN_POINT ( 'NONE',  ( -27.57843024285123690, 2.760334413162493394, 47.22444312810840472 ) ) ;
#721 = DIRECTION ( 'NONE',  ( -0.000000000000000000, -0.000000000000000000, 1.000000000000000000 ) ) ;
#722 = ORIENTED_EDGE ( 'NONE', *, *, #780, .T. ) ;
#723 = CARTESIAN_POINT ( 'NONE',  ( 13.69871272854152089, -13.26657293854943376, 47.22444312810840472 ) ) ;
#724 = ORIENTED_EDGE ( 'NONE', *, *, #708, .F. ) ;
#725 = DIRECTION ( 'NONE',  ( 0.000000000000000000, 0.000000000000000000, 1.000000000000000000 ) ) ;
#726 = FACE_OUTER_BOUND ( 'NONE', #357, .T. ) ;
#727 = EDGE_CURVE ( 'NONE', #145, #436, #862, .T. ) ;
#728 = ORIENTED_EDGE ( 'NONE', *, *, #509, .T. ) ;
#729 = CIRCLE ( 'NONE', #902, 23.75000000000000000 ) ;
#730 = DIRECTION ( 'NONE',  ( -0.000000000000000000, -0.000000000000000000, -1.000000000000000000 ) ) ;
#731 = CIRCLE ( 'NONE', #951, 19.09999999999999432 ) ;
#732 = ORIENTED_EDGE ( 'NONE', *, *, #408, .F. ) ;
#733 = AXIS2_PLACEMENT_3D ( 'NONE', #953, #296, #3 ) ;
#734 = DIRECTION ( 'NONE',  ( -0.000000000000000000, -0.000000000000000000, -1.000000000000000000 ) ) ;
#735 = DIRECTION ( 'NONE',  ( 0.000000000000000000, 0.000000000000000000, 1.000000000000000000 ) ) ;
#736 = ORIENTED_EDGE ( 'NONE', *, *, #348, .F. ) ;
#737 = EDGE_CURVE ( 'NONE', #150, #188, #831, .T. ) ;
#738 = CARTESIAN_POINT ( 'NONE',  ( -3.828430242851232901, 2.760334413162493394, 9.044879999428637518 ) ) ;
#739 = ORIENTED_EDGE ( 'NONE', *, *, #727, .T. ) ;
#740 = DIRECTION ( 'NONE',  ( -0.000000000000000000, -0.000000000000000000, -1.000000000000000000 ) ) ;
#741 = PLANE ( 'NONE',  #860 ) ;
#742 = ORIENTED_EDGE ( 'NONE', *, *, #800, .F. ) ;
#743 = APPLICATION_PROTOCOL_DEFINITION ( 'draft international standard', 'automotive_design', 1998, #244 ) ;
#744 = VERTEX_POINT ( 'NONE', #416 ) ;
#745 = DIRECTION ( 'NONE',  ( -0.000000000000000000, -0.000000000000000000, -1.000000000000000000 ) ) ;
#746 = CARTESIAN_POINT ( 'NONE',  ( -3.828430242851232901, 2.760334413162493394, 12.74487999942863681 ) ) ;
#747 = ORIENTED_EDGE ( 'NONE', *, *, #813, .T. ) ;
#748 = CIRCLE ( 'NONE', #170, 19.10000000000000142 ) ;
#749 = DIRECTION ( 'NONE',  ( -1.000000000000000000, 0.000000000000000000, 0.000000000000000000 ) ) ;
#750 = AXIS2_PLACEMENT_3D ( 'NONE', #899, #248, #543 ) ;
#751 = CIRCLE ( 'NONE', #141, 23.75000000000000000 ) ;
#752 = LINE ( 'NONE', #253, #559 ) ;
#753 = LINE ( 'NONE', #388, #54 ) ;
#754 = VERTEX_POINT ( 'NONE', #490 ) ;
#755 = CARTESIAN_POINT ( 'NONE',  ( -3.828430242851232901, 2.760334413162493394, 12.24487999942863681 ) ) ;
#756 = DIRECTION ( 'NONE',  ( -0.7306113773142052237, -0.6827935378568253943, 0.000000000000000000 ) ) ;
#757 = ORIENTED_EDGE ( 'NONE', *, *, #737, .T. ) ;
#758 = PLANE ( 'NONE',  #201 ) ;
#759 = CARTESIAN_POINT ( 'NONE',  ( -3.828430242851232901, 2.760334413162493394, 14.74487999942863858 ) ) ;
#760 = EDGE_CURVE ( 'NONE', #118, #595, #709, .T. ) ;
#761 = ORIENTED_EDGE ( 'NONE', *, *, #400, .F. ) ;
#762 = CARTESIAN_POINT ( 'NONE',  ( -3.828430242851232901, 2.760334413162493394, 12.74487999942863681 ) ) ;
#763 = CIRCLE ( 'NONE', #934, 2.020000000000000018 ) ;
#764 = DIRECTION ( 'NONE',  ( 0.6827935378568266156, 0.7306113773142041135, 0.000000000000000000 ) ) ;
#765 = AXIS2_PLACEMENT_3D ( 'NONE', #440, #721, #453 ) ;
#766 = FACE_OUTER_BOUND ( 'NONE', #63, .T. ) ;
#767 = CIRCLE ( 'NONE', #798, 23.75000000000000355 ) ;
#768 = EDGE_CURVE ( 'NONE', #426, #954, #181, .T. ) ;
#769 = ADVANCED_FACE ( 'NONE', ( #107 ), #117, .T. ) ;
#770 = ORIENTED_EDGE ( 'NONE', *, *, #708, .T. ) ;
#771 = CARTESIAN_POINT ( 'NONE',  ( -15.82843024285123690, 2.760334413162494727, 12.74487999942863681 ) ) ;
#772 = CARTESIAN_POINT ( 'NONE',  ( 13.69871272854152089, -13.26657293854943376, 9.044879999428637518 ) ) ;
#773 = CARTESIAN_POINT ( 'NONE',  ( -21.35557321424398225, -13.26657293854943021, 11.24487999942863681 ) ) ;
#774 = DIRECTION ( 'NONE',  ( 0.000000000000000000, 0.000000000000000000, 1.000000000000000000 ) ) ;
#775 = ORIENTED_EDGE ( 'NONE', *, *, #100, .T. ) ;
#776 = DIRECTION ( 'NONE',  ( 0.7306113773142041135, -0.6827935378568266156, -0.000000000000000000 ) ) ;
#777 = SURFACE_STYLE_USAGE ( .BOTH. , #202 ) ;
#778 = CARTESIAN_POINT ( 'NONE',  ( -19.85533759456316005, 20.28747738455524541, 47.22444312810840472 ) ) ;
#779 = ORIENTED_EDGE ( 'NONE', *, *, #892, .T. ) ;
#780 = EDGE_CURVE ( 'NONE', #694, #541, #695, .T. ) ;
#781 = SURFACE_STYLE_USAGE ( .BOTH. , #37 ) ;
#782 = FACE_OUTER_BOUND ( 'NONE', #71, .T. ) ;
#783 = VECTOR ( 'NONE', #596, 1000.000000000000000 ) ;
#784 = DIRECTION ( 'NONE',  ( 1.000000000000000000, 0.000000000000000000, 0.000000000000000000 ) ) ;
#785 = DIRECTION ( 'NONE',  ( -1.000000000000000000, 0.000000000000000000, 0.000000000000000000 ) ) ;
#786 = VERTEX_POINT ( 'NONE', #932 ) ;
#787 = CARTESIAN_POINT ( 'NONE',  ( -19.85533759456316005, 20.28747738455524541, 11.24487999942863681 ) ) ;
#788 = VERTEX_POINT ( 'NONE', #31 ) ;
#789 = LINE ( 'NONE', #601, #452 ) ;
#790 = LINE ( 'NONE', #351, #277 ) ;
#791 = ORIENTED_EDGE ( 'NONE', *, *, #675, .F. ) ;
#792 = EDGE_CURVE ( 'NONE', #2, #471, #218, .T. ) ;
#793 = VERTEX_POINT ( 'NONE', #39 ) ;
#794 = DIRECTION ( 'NONE',  ( -0.000000000000000000, -0.000000000000000000, -1.000000000000000000 ) ) ;
#795 = CARTESIAN_POINT ( 'NONE',  ( 10.30112057698648265, -10.09135005345989100, 9.044879999428637518 ) ) ;
#796 = AXIS2_PLACEMENT_3D ( 'NONE', #9, #583, #873 ) ;
#797 = AXIS2_PLACEMENT_3D ( 'NONE', #812, #70, #152 ) ;
#798 = AXIS2_PLACEMENT_3D ( 'NONE', #339, #45, #259 ) ;
#799 = APPLICATION_CONTEXT ( 'automotive_design' ) ;
#800 = EDGE_CURVE ( 'NONE', #4, #694, #751, .T. ) ;
#801 = ORIENTED_EDGE ( 'NONE', *, *, #912, .F. ) ;
#802 = CARTESIAN_POINT ( 'NONE',  ( 9.171569757148768431, 2.760334413162495171, 12.24487999942863681 ) ) ;
#803 = DIRECTION ( 'NONE',  ( -0.000000000000000000, 0.000000000000000000, -1.000000000000000000 ) ) ;
#804 = PRODUCT_DEFINITION_CONTEXT ( 'detailed design', #244, 'design' ) ;
#805 = FACE_OUTER_BOUND ( 'NONE', #327, .T. ) ;
#806 = EDGE_LOOP ( 'NONE', ( #10, #801, #664, #872 ) ) ;
#807 = DIRECTION ( 'NONE',  ( 0.000000000000000000, 0.000000000000000000, -1.000000000000000000 ) ) ;
#808 = ADVANCED_FACE ( 'NONE', ( #574 ), #562, .T. ) ;
#809 = PLANE ( 'NONE',  #797 ) ;
#810 = VERTEX_POINT ( 'NONE', #497 ) ;
#811 = EDGE_CURVE ( 'NONE', #613, #522, #767, .T. ) ;
#812 = CARTESIAN_POINT ( 'NONE',  ( 9.023254223771152382, 16.88988523300021072, 47.22444312810840472 ) ) ;
#813 = EDGE_CURVE ( 'NONE', #744, #613, #641, .T. ) ;
#814 = VERTEX_POINT ( 'NONE', #342 ) ;
#815 = VECTOR ( 'NONE', #33, 1000.000000000000114 ) ;
#816 = DIRECTION ( 'NONE',  ( 0.000000000000000000, 0.000000000000000000, 1.000000000000000000 ) ) ;
#817 = VERTEX_POINT ( 'NONE', #412 ) ;
#818 = CYLINDRICAL_SURFACE ( 'NONE', #590, 19.10000000000000142 ) ;
#819 = DIRECTION ( 'NONE',  ( -1.000000000000000000, 0.000000000000000000, 0.000000000000000000 ) ) ;
#820 = EDGE_LOOP ( 'NONE', ( #369, #712 ) ) ;
#821 = DIRECTION ( 'NONE',  ( 1.000000000000000000, 0.000000000000000000, -0.000000000000000000 ) ) ;
#822 = ORIENTED_EDGE ( 'NONE', *, *, #578, .F. ) ;
#823 = EDGE_CURVE ( 'NONE', #310, #786, #706, .T. ) ;
#824 = DIRECTION ( 'NONE',  ( -1.000000000000000000, 0.000000000000000000, 0.000000000000000000 ) ) ;
#825 = DIRECTION ( 'NONE',  ( -0.000000000000000000, -0.000000000000000000, -1.000000000000000000 ) ) ;
#826 = CARTESIAN_POINT ( 'NONE',  ( -15.82843024285123690, 2.760334413162494727, 12.24487999942863681 ) ) ;
#827 = VECTOR ( 'NONE', #87, 1000.000000000000000 ) ;
#828 = ORIENTED_EDGE ( 'NONE', *, *, #400, .T. ) ;
#829 = CARTESIAN_POINT ( 'NONE',  ( -0.8284302428512324568, 2.760334413162493838, 17.24487999942863681 ) ) ;
#830 = CIRCLE ( 'NONE', #411, 2.020000000000000018 ) ;
#831 = CIRCLE ( 'NONE', #187, 19.10000000000000142 ) ;
#832 = FACE_OUTER_BOUND ( 'NONE', #491, .T. ) ;
#833 = CYLINDRICAL_SURFACE ( 'NONE', #484, 23.75000000000000000 ) ;
#834 =( LENGTH_UNIT ( ) NAMED_UNIT ( * ) SI_UNIT ( .MILLI., .METRE. ) );
#835 = ORIENTED_EDGE ( 'NONE', *, *, #612, .F. ) ;
#836 = FACE_BOUND ( 'NONE', #630, .T. ) ;
#837 = EDGE_CURVE ( 'NONE', #195, #877, #923, .T. ) ;
#838 = CARTESIAN_POINT ( 'NONE',  ( -3.828430242851232901, 2.760334413162493394, 11.24487999942863681 ) ) ;
#839 = ORIENTED_EDGE ( 'NONE', *, *, #675, .T. ) ;
#840 = LINE ( 'NONE', #891, #454 ) ;
#841 = DIRECTION ( 'NONE',  ( -1.000000000000000000, 0.000000000000000000, 0.000000000000000000 ) ) ;
#842 = EDGE_CURVE ( 'NONE', #954, #810, #365, .T. ) ;
#843 = SURFACE_STYLE_FILL_AREA ( #690 ) ;
#844 = ADVANCED_FACE ( 'NONE', ( #50 ), #506, .T. ) ;
#845 = ORIENTED_EDGE ( 'NONE', *, *, #175, .F. ) ;
#846 = CARTESIAN_POINT ( 'NONE',  ( -3.828430242851232901, 2.760334413162493394, 9.044879999428637518 ) ) ;
#847 = CLOSED_SHELL ( 'NONE', ( #190, #288, #880, #903, #161, #881 ) ) ;
#848 = EDGE_LOOP ( 'NONE', ( #571, #627, #163, #16, #211, #52 ) ) ;
#849 = CIRCLE ( 'NONE', #382, 23.75000000000000355 ) ;
#850 = VECTOR ( 'NONE', #740, 1000.000000000000000 ) ;
#851 = DIRECTION ( 'NONE',  ( -0.000000000000000000, -0.000000000000000000, 1.000000000000000000 ) ) ;
#852 = PRODUCT_DEFINITION_FORMATION_WITH_SPECIFIED_SOURCE ( 'ANY', '', #645, .NOT_KNOWN. ) ;
#853 = CARTESIAN_POINT ( 'NONE',  ( -3.828430242851232901, 2.760334413162493394, 47.22444312810840472 ) ) ;
#854 = ADVANCED_FACE ( 'NONE', ( #448, #301 ), #865, .T. ) ;
#855 = DIRECTION ( 'NONE',  ( -0.000000000000000000, -0.000000000000000000, -1.000000000000000000 ) ) ;
#856 = DIRECTION ( 'NONE',  ( -0.7306113773142041135, 0.6827935378568266156, 0.000000000000000000 ) ) ;
#857 = FILL_AREA_STYLE ('',( #508 ) ) ;
#858 = DIRECTION ( 'NONE',  ( 1.000000000000000000, 0.000000000000000000, 0.000000000000000000 ) ) ;
#859 = ORIENTED_EDGE ( 'NONE', *, *, #49, .T. ) ;
#860 = AXIS2_PLACEMENT_3D ( 'NONE', #525, #62, #81 ) ;
#861 = AXIS2_PLACEMENT_3D ( 'NONE', #478, #628, #821 ) ;
#862 = CIRCLE ( 'NONE', #252, 13.00000000000000178 ) ;
#863 = ORIENTED_EDGE ( 'NONE', *, *, #464, .F. ) ;
#864 = AXIS2_PLACEMENT_3D ( 'NONE', #95, #15, #674 ) ;
#865 = PLANE ( 'NONE',  #90 ) ;
#866 = ADVANCED_FACE ( 'NONE', ( #943 ), #938, .T. ) ;
#867 = VERTEX_POINT ( 'NONE', #346 ) ;
#868 = CARTESIAN_POINT ( 'NONE',  ( -3.828430242851232901, 2.760334413162493394, 17.24487999942863681 ) ) ;
#869 = LINE ( 'NONE', #291, #783 ) ;
#870 = CARTESIAN_POINT ( 'NONE',  ( -3.828430242851232901, 2.760334413162493394, 12.24487999942863681 ) ) ;
#871 = ORIENTED_EDGE ( 'NONE', *, *, #295, .F. ) ;
#872 = ORIENTED_EDGE ( 'NONE', *, *, #942, .T. ) ;
#873 = DIRECTION ( 'NONE',  ( 1.000000000000000000, 0.000000000000000000, 0.000000000000000000 ) ) ;
#874 = ORIENTED_EDGE ( 'NONE', *, *, #620, .T. ) ;
#875 = CIRCLE ( 'NONE', #467, 13.00000000000000178 ) ;
#876 = DIRECTION ( 'NONE',  ( -0.000000000000000000, -0.000000000000000000, -1.000000000000000000 ) ) ;
#877 = VERTEX_POINT ( 'NONE', #224 ) ;
#878 = CARTESIAN_POINT ( 'NONE',  ( -3.828430242851232901, 2.760334413162493394, 12.24487999942863681 ) ) ;
#879 = EDGE_LOOP ( 'NONE', ( #893, #449, #423, #84 ) ) ;
#880 = ADVANCED_FACE ( 'NONE', ( #213 ), #669, .T. ) ;
#881 = ADVANCED_FACE ( 'NONE', ( #289 ), #437, .F. ) ;
#882 = DIRECTION ( 'NONE',  ( -1.000000000000000000, 0.000000000000000000, 0.000000000000000000 ) ) ;
#883 = EDGE_LOOP ( 'NONE', ( #300, #739 ) ) ;
#884 = ORIENTED_EDGE ( 'NONE', *, *, #427, .T. ) ;
#885 = CARTESIAN_POINT ( 'NONE',  ( -19.85533759456316005, 20.28747738455524541, 12.24487999942863681 ) ) ;
#886 = CARTESIAN_POINT ( 'NONE',  ( -17.95798106268894756, -10.09135005345990166, 9.044879999428637518 ) ) ;
#887 = ORIENTED_EDGE ( 'NONE', *, *, #587, .T. ) ;
#888 = VECTOR ( 'NONE', #217, 1000.000000000000000 ) ;
#889 = ORIENTED_EDGE ( 'NONE', *, *, #408, .T. ) ;
#890 = VECTOR ( 'NONE', #585, 1000.000000000000000 ) ;
#891 = CARTESIAN_POINT ( 'NONE',  ( -17.95798106268894756, -10.09135005345990166, 47.22444312810840472 ) ) ;
#892 = EDGE_CURVE ( 'NONE', #668, #810, #143, .T. ) ;
#893 = ORIENTED_EDGE ( 'NONE', *, *, #842, .T. ) ;
#894 = EDGE_LOOP ( 'NONE', ( #316, #711, #180, #658 ) ) ;
#895 = DIRECTION ( 'NONE',  ( 1.000000000000000000, 0.000000000000000000, 0.000000000000000000 ) ) ;
#896 = FACE_OUTER_BOUND ( 'NONE', #629, .T. ) ;
#897 = EDGE_LOOP ( 'NONE', ( #303, #375, #438, #443, #909 ) ) ;
#898 = CARTESIAN_POINT ( 'NONE',  ( 9.023254223771152382, 16.88988523300021072, 47.22444312810840472 ) ) ;
#899 = CARTESIAN_POINT ( 'NONE',  ( -3.828430242851232901, 2.760334413162493394, 11.24487999942863681 ) ) ;
#900 = ADVANCED_BREP_SHAPE_REPRESENTATION ( 'cubit3_mag_support_P', ( #130, #122, #445, #864 ), #399 ) ;
#901 = FILL_AREA_STYLE_COLOUR ( '', #572 ) ;
#902 = AXIS2_PLACEMENT_3D ( 'NONE', #838, #479, #329 ) ;
#903 = ADVANCED_FACE ( 'NONE', ( #805 ), #74, .F. ) ;
#904 = CARTESIAN_POINT ( 'NONE',  ( 12.19847710886069336, 20.28747738455524541, 47.22444312810840472 ) ) ;
#905 = AXIS2_PLACEMENT_3D ( 'NONE', #885, #671, #230 ) ;
#906 = CIRCLE ( 'NONE', #125, 13.00000000000000178 ) ;
#907 = PLANE ( 'NONE',  #397 ) ;
#908 = ORIENTED_EDGE ( 'NONE', *, *, #655, .T. ) ;
#909 = ORIENTED_EDGE ( 'NONE', *, *, #233, .T. ) ;
#910 = FACE_OUTER_BOUND ( 'NONE', #512, .T. ) ;
#911 = DIRECTION ( 'NONE',  ( 0.000000000000000000, 0.000000000000000000, 1.000000000000000000 ) ) ;
#912 = EDGE_CURVE ( 'NONE', #436, #145, #156, .T. ) ;
#913 = VERTEX_POINT ( 'NONE', #787 ) ;
#914 = DIRECTION ( 'NONE',  ( 1.000000000000000000, 0.000000000000000000, 0.000000000000000000 ) ) ;
#915 = FACE_OUTER_BOUND ( 'NONE', #820, .T. ) ;
#916 = CARTESIAN_POINT ( 'NONE',  ( -15.82843024285123690, 2.760334413162494727, 11.74487999942863681 ) ) ;
#917 = EDGE_LOOP ( 'NONE', ( #536, #48, #926, #82 ) ) ;
#918 = DIRECTION ( 'NONE',  ( 1.000000000000000000, 0.000000000000000000, 0.000000000000000000 ) ) ;
#919 = AXIS2_PLACEMENT_3D ( 'NONE', #853, #496, #928 ) ;
#920 = EDGE_LOOP ( 'NONE', ( #636, #606, #41, #779 ) ) ;
#921 = VECTOR ( 'NONE', #776, 1000.000000000000000 ) ;
#922 = CARTESIAN_POINT ( 'NONE',  ( 13.69871272854152799, -13.26657293854942665, 12.24487999942863681 ) ) ;
#923 = CIRCLE ( 'NONE', #27, 19.10000000000000142 ) ;
#924 = FACE_OUTER_BOUND ( 'NONE', #894, .T. ) ;
#925 = DIRECTION ( 'NONE',  ( -0.000000000000000000, -0.000000000000000000, -1.000000000000000000 ) ) ;
#926 = ORIENTED_EDGE ( 'NONE', *, *, #505, .T. ) ;
#927 = CARTESIAN_POINT ( 'NONE',  ( -5.848430242851232919, 2.760334413162493838, 14.74487999942863858 ) ) ;
#928 = DIRECTION ( 'NONE',  ( -1.000000000000000000, 0.000000000000000000, 0.000000000000000000 ) ) ;
#929 = UNCERTAINTY_MEASURE_WITH_UNIT (LENGTH_MEASURE( 1.000000000000000082E-05 ), #834, 'distance_accuracy_value', 'NONE');
#930 = DIRECTION ( 'NONE',  ( -0.000000000000000000, -0.000000000000000000, -1.000000000000000000 ) ) ;
#931 = PRESENTATION_STYLE_ASSIGNMENT (( #777 ) ) ;
#932 = CARTESIAN_POINT ( 'NONE',  ( -6.828430242851234233, 2.760334413162493394, 12.24487999942863681 ) ) ;
#933 = EDGE_CURVE ( 'NONE', #522, #793, #693, .T. ) ;
#934 = AXIS2_PLACEMENT_3D ( 'NONE', #759, #182, #335 ) ;
#935 = DIRECTION ( 'NONE',  ( 1.000000000000000000, 0.000000000000000000, 0.000000000000000000 ) ) ;
#936 = CIRCLE ( 'NONE', #680, 23.75000000000000355 ) ;
#937 = AXIS2_PLACEMENT_3D ( 'NONE', #688, #386, #614 ) ;
#938 = CYLINDRICAL_SURFACE ( 'NONE', #469, 23.75000000000000355 ) ;
#939 = EDGE_LOOP ( 'NONE', ( #294, #722, #338, #225 ) ) ;
#940 = PRODUCT_DEFINITION ( 'UNKNOWN', '', #852, #804 ) ;
#941 = CARTESIAN_POINT ( 'NONE',  ( -0.8284302428512324568, 2.760334413162493838, 17.24487999942863681 ) ) ;
#942 = EDGE_CURVE ( 'NONE', #336, #591, #906, .T. ) ;
#943 = FACE_OUTER_BOUND ( 'NONE', #879, .T. ) ;
#944 = DIRECTION ( 'NONE',  ( 0.000000000000000000, 0.000000000000000000, 1.000000000000000000 ) ) ;
#945 = DIRECTION ( 'NONE',  ( 0.000000000000000000, 0.000000000000000000, 1.000000000000000000 ) ) ;
#946 = EDGE_LOOP ( 'NONE', ( #732, #518, #60, #791 ) ) ;
#947 = DIRECTION ( 'NONE',  ( 0.000000000000000000, 0.000000000000000000, 1.000000000000000000 ) ) ;
#948 = FACE_OUTER_BOUND ( 'NONE', #67, .T. ) ;
#949 = CIRCLE ( 'NONE', #324, 3.000000000000000444 ) ;
#950 = ORIENTED_EDGE ( 'NONE', *, *, #420, .T. ) ;
#951 = AXIS2_PLACEMENT_3D ( 'NONE', #149, #444, #241 ) ;
#952 = EDGE_CURVE ( 'NONE', #877, #595, #665, .T. ) ;
#953 = CARTESIAN_POINT ( 'NONE',  ( -3.828430242851232901, 2.760334413162493394, 12.74487999942863681 ) ) ;
#954 = VERTEX_POINT ( 'NONE', #604 ) ;
ENDSEC;
END-ISO-10303-21;
