G04*
G04 #@! TF.GenerationSoftware,Altium Limited,Altium Designer,22.10.1 (41)*
G04*
G04 Layer_Physical_Order=3*
G04 Layer_Color=16440176*
%FSLAX25Y25*%
%MOIN*%
G70*
G04*
G04 #@! TF.SameCoordinates,9C36EEA6-3C32-4AFD-A68D-23D06756630B*
G04*
G04*
G04 #@! TF.FilePolarity,Positive*
G04*
G01*
G75*
%ADD169C,0.06496*%
%ADD172O,0.03200X0.05118*%
%ADD173O,0.06102X0.03200*%
G04:AMPARAMS|DCode=175|XSize=60mil|YSize=60mil|CornerRadius=15mil|HoleSize=0mil|Usage=FLASHONLY|Rotation=0.000|XOffset=0mil|YOffset=0mil|HoleType=Round|Shape=RoundedRectangle|*
%AMROUNDEDRECTD175*
21,1,0.06000,0.03000,0,0,0.0*
21,1,0.03000,0.06000,0,0,0.0*
1,1,0.03000,0.01500,-0.01500*
1,1,0.03000,-0.01500,-0.01500*
1,1,0.03000,-0.01500,0.01500*
1,1,0.03000,0.01500,0.01500*
%
%ADD175ROUNDEDRECTD175*%
%ADD176C,0.06000*%
%ADD177C,0.02200*%
%ADD178C,0.02400*%
G36*
X224961Y247053D02*
Y223284D01*
X224545Y223006D01*
X224318Y223100D01*
X223482D01*
X222710Y222780D01*
X222120Y222190D01*
X221800Y221418D01*
Y220582D01*
X222120Y219810D01*
X222710Y219220D01*
X223482Y218900D01*
X224318D01*
X224545Y218994D01*
X224961Y218716D01*
Y148842D01*
X224545Y148564D01*
X224218Y148700D01*
X223382D01*
X222610Y148380D01*
X222020Y147790D01*
X221700Y147018D01*
Y146182D01*
X222020Y145410D01*
X222610Y144820D01*
X223382Y144500D01*
X224218D01*
X224545Y144636D01*
X224961Y144358D01*
Y94955D01*
X224461Y94803D01*
X224011Y95477D01*
X223077Y96411D01*
X221978Y97145D01*
X220757Y97651D01*
X219461Y97909D01*
X218139D01*
X216843Y97651D01*
X215622Y97145D01*
X214524Y96411D01*
X213589Y95477D01*
X212855Y94378D01*
X212349Y93157D01*
X212091Y91861D01*
Y90539D01*
X212349Y89243D01*
X212855Y88022D01*
X213589Y86923D01*
X214524Y85989D01*
X215622Y85255D01*
X216843Y84749D01*
X218139Y84491D01*
X219461D01*
X220757Y84749D01*
X221978Y85255D01*
X223077Y85989D01*
X224011Y86923D01*
X224461Y87597D01*
X224961Y87445D01*
Y38300D01*
X185860D01*
X185760Y38800D01*
X185923Y38868D01*
X186232Y39177D01*
X186284Y39300D01*
X184317D01*
X184368Y39177D01*
X184677Y38868D01*
X184840Y38800D01*
X184740Y38300D01*
X175963D01*
X175733Y38777D01*
X175784Y38900D01*
X173817D01*
X173867Y38777D01*
X173637Y38300D01*
X171049D01*
X170842Y38800D01*
X170927Y38885D01*
X170978Y39008D01*
X169011D01*
X169062Y38885D01*
X169147Y38800D01*
X168940Y38300D01*
X167863D01*
X167656Y38800D01*
X167733Y38877D01*
X167783Y39000D01*
X165816D01*
X165867Y38877D01*
X165944Y38800D01*
X165737Y38300D01*
X163363D01*
X163156Y38800D01*
X163233Y38877D01*
X163284Y39000D01*
X161317D01*
X161367Y38877D01*
X161444Y38800D01*
X161237Y38300D01*
X158663D01*
X158456Y38800D01*
X158533Y38877D01*
X158583Y39000D01*
X156616D01*
X156667Y38877D01*
X156744Y38800D01*
X156537Y38300D01*
X148763D01*
X148556Y38800D01*
X148633Y38877D01*
X148684Y39000D01*
X146716D01*
X146767Y38877D01*
X146844Y38800D01*
X146637Y38300D01*
X143763D01*
X143556Y38800D01*
X143632Y38877D01*
X143684Y39000D01*
X141717D01*
X141768Y38877D01*
X141844Y38800D01*
X141637Y38300D01*
X138763D01*
X138556Y38800D01*
X138633Y38877D01*
X138683Y39000D01*
X136716D01*
X136767Y38877D01*
X136844Y38800D01*
X136637Y38300D01*
X133763D01*
X133556Y38800D01*
X133633Y38877D01*
X133684Y39000D01*
X131717D01*
X131767Y38877D01*
X131844Y38800D01*
X131637Y38300D01*
X128763D01*
X128556Y38800D01*
X128632Y38877D01*
X128683Y39000D01*
X126716D01*
X126768Y38877D01*
X126844Y38800D01*
X126637Y38300D01*
X123763D01*
X123556Y38800D01*
X123633Y38877D01*
X123684Y39000D01*
X121716D01*
X121767Y38877D01*
X121844Y38800D01*
X121637Y38300D01*
X118763D01*
X118556Y38800D01*
X118632Y38877D01*
X118684Y39000D01*
X116717D01*
X116768Y38877D01*
X116844Y38800D01*
X116637Y38300D01*
X113763D01*
X113556Y38800D01*
X113633Y38877D01*
X113683Y39000D01*
X111716D01*
X111767Y38877D01*
X111844Y38800D01*
X111637Y38300D01*
X108763D01*
X108556Y38800D01*
X108633Y38877D01*
X108684Y39000D01*
X106717D01*
X106767Y38877D01*
X106844Y38800D01*
X106637Y38300D01*
X103763D01*
X103556Y38800D01*
X103632Y38877D01*
X103683Y39000D01*
X101716D01*
X101768Y38877D01*
X101844Y38800D01*
X101637Y38300D01*
X98763D01*
X98556Y38800D01*
X98633Y38877D01*
X98684Y39000D01*
X96716D01*
X96767Y38877D01*
X96844Y38800D01*
X96637Y38300D01*
X93763D01*
X93556Y38800D01*
X93633Y38877D01*
X93683Y39000D01*
X91716D01*
X91768Y38877D01*
X91844Y38800D01*
X91637Y38300D01*
X88763D01*
X88556Y38800D01*
X88633Y38877D01*
X88683Y39000D01*
X86717D01*
X86768Y38877D01*
X86844Y38800D01*
X86637Y38300D01*
X83763D01*
X83556Y38800D01*
X83632Y38877D01*
X83684Y39000D01*
X81717D01*
X81767Y38877D01*
X81844Y38800D01*
X81637Y38300D01*
X78763D01*
X78556Y38800D01*
X78632Y38877D01*
X78684Y39000D01*
X76717D01*
X76767Y38877D01*
X76844Y38800D01*
X76637Y38300D01*
X73763D01*
X73556Y38800D01*
X73633Y38877D01*
X73684Y39000D01*
X71716D01*
X71767Y38877D01*
X71844Y38800D01*
X71637Y38300D01*
X68763D01*
X68556Y38800D01*
X68633Y38877D01*
X68683Y39000D01*
X66716D01*
X66768Y38877D01*
X66844Y38800D01*
X66637Y38300D01*
X63763D01*
X63556Y38800D01*
X63633Y38877D01*
X63683Y39000D01*
X61717D01*
X61768Y38877D01*
X61844Y38800D01*
X61637Y38300D01*
X58763D01*
X58556Y38800D01*
X58632Y38877D01*
X58684Y39000D01*
X56717D01*
X56767Y38877D01*
X56844Y38800D01*
X56637Y38300D01*
X53763D01*
X53556Y38800D01*
X53632Y38877D01*
X53684Y39000D01*
X51717D01*
X51767Y38877D01*
X51844Y38800D01*
X51637Y38300D01*
X48763D01*
X48556Y38800D01*
X48632Y38877D01*
X48684Y39000D01*
X46716D01*
X46768Y38877D01*
X46844Y38800D01*
X46637Y38300D01*
X43763D01*
X43556Y38800D01*
X43633Y38877D01*
X43683Y39000D01*
X41717D01*
X41767Y38877D01*
X41844Y38800D01*
X41637Y38300D01*
X38763D01*
X38556Y38800D01*
X38633Y38877D01*
X38684Y39000D01*
X36716D01*
X36768Y38877D01*
X36844Y38800D01*
X36637Y38300D01*
X33763D01*
X33556Y38800D01*
X33632Y38877D01*
X33683Y39000D01*
X31716D01*
X31767Y38877D01*
X31844Y38800D01*
X31637Y38300D01*
X28763D01*
X28556Y38800D01*
X28633Y38877D01*
X28684Y39000D01*
X26717D01*
X26768Y38877D01*
X26844Y38800D01*
X26637Y38300D01*
X23763D01*
X23556Y38800D01*
X23632Y38877D01*
X23684Y39000D01*
X21716D01*
X21768Y38877D01*
X21844Y38800D01*
X21637Y38300D01*
X18563D01*
X18356Y38800D01*
X18432Y38877D01*
X18484Y39000D01*
X16517D01*
X16567Y38877D01*
X16644Y38800D01*
X16437Y38300D01*
X13363D01*
X13156Y38800D01*
X13232Y38877D01*
X13284Y39000D01*
X12300D01*
Y40000D01*
X13284D01*
X13232Y40123D01*
X12923Y40433D01*
X12519Y40600D01*
X12345D01*
X12189Y41053D01*
X12188Y41100D01*
X13111Y42024D01*
X13845Y43122D01*
X14351Y44343D01*
X14609Y45639D01*
Y46961D01*
X14351Y48257D01*
X13845Y49478D01*
X13111Y50577D01*
X12177Y51511D01*
X11078Y52245D01*
X9857Y52751D01*
X8561Y53009D01*
X7239D01*
X5943Y52751D01*
X4722Y52245D01*
X3624Y51511D01*
X2689Y50577D01*
X2516Y50317D01*
X2037Y50462D01*
X2035Y80000D01*
X1959Y80384D01*
X1880Y80780D01*
X1880Y80780D01*
X1880Y80780D01*
X1880Y80780D01*
X1880Y80781D01*
X1686Y81071D01*
X1685Y81492D01*
X2000Y81806D01*
Y83477D01*
Y85108D01*
X1684D01*
X1673Y109051D01*
X2000Y109377D01*
Y111036D01*
Y112667D01*
X1672D01*
X1671Y113382D01*
X1883Y113699D01*
X1884Y113699D01*
X1884Y113700D01*
X1961Y114089D01*
X1964Y114102D01*
X9400D01*
X10180Y114258D01*
X10842Y114700D01*
X11284Y115361D01*
X11439Y116142D01*
Y159449D01*
X11284Y160229D01*
X10842Y160891D01*
X10180Y161333D01*
X9400Y161488D01*
X2039D01*
Y246651D01*
X29140Y273561D01*
X134095D01*
X134247Y273061D01*
X133423Y272511D01*
X132489Y271576D01*
X131755Y270478D01*
X131249Y269257D01*
X130991Y267961D01*
Y266639D01*
X131249Y265343D01*
X131755Y264122D01*
X132489Y263023D01*
X133423Y262089D01*
X134522Y261355D01*
X135743Y260849D01*
X137039Y260591D01*
X138361D01*
X139657Y260849D01*
X140878Y261355D01*
X141976Y262089D01*
X142911Y263023D01*
X143645Y264122D01*
X144151Y265343D01*
X144409Y266639D01*
Y267961D01*
X144151Y269257D01*
X143645Y270478D01*
X142911Y271576D01*
X141976Y272511D01*
X141153Y273061D01*
X141305Y273561D01*
X145698D01*
X145838Y273333D01*
X145942Y273061D01*
X145916Y273000D01*
X147883D01*
X147858Y273061D01*
X147961Y273333D01*
X148102Y273561D01*
X198357D01*
X224961Y247053D01*
D02*
G37*
%LPC*%
G36*
X147883Y272000D02*
X147400D01*
Y271517D01*
X147523Y271568D01*
X147833Y271877D01*
X147883Y272000D01*
D02*
G37*
G36*
X146400D02*
X145916D01*
X145967Y271877D01*
X146277Y271568D01*
X146400Y271517D01*
Y272000D01*
D02*
G37*
G36*
X38100Y270483D02*
Y270000D01*
X38583D01*
X38533Y270123D01*
X38223Y270432D01*
X38100Y270483D01*
D02*
G37*
G36*
X37100D02*
X36977Y270432D01*
X36667Y270123D01*
X36617Y270000D01*
X37100D01*
Y270483D01*
D02*
G37*
G36*
X84236Y271672D02*
Y269200D01*
X86708D01*
X86532Y269858D01*
X86137Y270542D01*
X85578Y271101D01*
X84894Y271496D01*
X84236Y271672D01*
D02*
G37*
G36*
X83236D02*
X82578Y271496D01*
X81894Y271101D01*
X81336Y270542D01*
X80941Y269858D01*
X80764Y269200D01*
X83236D01*
Y271672D01*
D02*
G37*
G36*
X38583Y269000D02*
X38100D01*
Y268516D01*
X38223Y268567D01*
X38533Y268877D01*
X38583Y269000D01*
D02*
G37*
G36*
X37100D02*
X36617D01*
X36667Y268877D01*
X36977Y268567D01*
X37100Y268516D01*
Y269000D01*
D02*
G37*
G36*
X86708Y268200D02*
X84236D01*
Y265728D01*
X84894Y265904D01*
X85578Y266299D01*
X86137Y266858D01*
X86532Y267542D01*
X86708Y268200D01*
D02*
G37*
G36*
X83236D02*
X80764D01*
X80941Y267542D01*
X81336Y266858D01*
X81894Y266299D01*
X82578Y265904D01*
X83236Y265728D01*
Y268200D01*
D02*
G37*
G36*
X104263Y272700D02*
X103210D01*
X102192Y272427D01*
X101280Y271901D01*
X100535Y271156D01*
X100009Y270244D01*
X99736Y269227D01*
Y268173D01*
X100009Y267156D01*
X100535Y266244D01*
X101280Y265499D01*
X102192Y264973D01*
X103210Y264700D01*
X104263D01*
X105280Y264973D01*
X106192Y265499D01*
X106937Y266244D01*
X107464Y267156D01*
X107736Y268173D01*
Y269227D01*
X107464Y270244D01*
X106937Y271156D01*
X106192Y271901D01*
X105280Y272427D01*
X104263Y272700D01*
D02*
G37*
G36*
X94263D02*
X93210D01*
X92192Y272427D01*
X91280Y271901D01*
X90535Y271156D01*
X90009Y270244D01*
X89736Y269227D01*
Y268173D01*
X90009Y267156D01*
X90535Y266244D01*
X91280Y265499D01*
X92192Y264973D01*
X93210Y264700D01*
X94263D01*
X95280Y264973D01*
X96192Y265499D01*
X96937Y266244D01*
X97464Y267156D01*
X97736Y268173D01*
Y269227D01*
X97464Y270244D01*
X96937Y271156D01*
X96192Y271901D01*
X95280Y272427D01*
X94263Y272700D01*
D02*
G37*
G36*
X115236Y272749D02*
X112236D01*
X111261Y272555D01*
X110434Y272002D01*
X109881Y271176D01*
X109687Y270200D01*
Y267200D01*
X109881Y266225D01*
X110434Y265398D01*
X111261Y264845D01*
X112236Y264651D01*
X115236D01*
X116212Y264845D01*
X117039Y265398D01*
X117591Y266225D01*
X117785Y267200D01*
Y270200D01*
X117591Y271176D01*
X117039Y272002D01*
X116212Y272555D01*
X115236Y272749D01*
D02*
G37*
G36*
X148765Y262217D02*
Y261734D01*
X149248D01*
X149197Y261857D01*
X148888Y262166D01*
X148765Y262217D01*
D02*
G37*
G36*
X147765D02*
X147642Y262166D01*
X147332Y261857D01*
X147281Y261734D01*
X147765D01*
Y262217D01*
D02*
G37*
G36*
X149248Y260734D02*
X148765D01*
Y260250D01*
X148888Y260301D01*
X149197Y260611D01*
X149248Y260734D01*
D02*
G37*
G36*
X147765D02*
X147281D01*
X147332Y260611D01*
X147642Y260301D01*
X147765Y260250D01*
Y260734D01*
D02*
G37*
G36*
X175400Y258784D02*
Y258300D01*
X175883D01*
X175832Y258423D01*
X175523Y258733D01*
X175400Y258784D01*
D02*
G37*
G36*
X174400D02*
X174277Y258733D01*
X173968Y258423D01*
X173916Y258300D01*
X174400D01*
Y258784D01*
D02*
G37*
G36*
X71318Y262200D02*
X70482D01*
X69710Y261880D01*
X69120Y261290D01*
X68800Y260518D01*
Y259682D01*
X69120Y258910D01*
X69710Y258320D01*
X70482Y258000D01*
X71318D01*
X72089Y258320D01*
X72680Y258910D01*
X73000Y259682D01*
Y260518D01*
X72680Y261290D01*
X72089Y261880D01*
X71318Y262200D01*
D02*
G37*
G36*
X175883Y257300D02*
X175400D01*
Y256817D01*
X175523Y256868D01*
X175832Y257177D01*
X175883Y257300D01*
D02*
G37*
G36*
X174400D02*
X173916D01*
X173968Y257177D01*
X174277Y256868D01*
X174400Y256817D01*
Y257300D01*
D02*
G37*
G36*
X191500Y252284D02*
Y251800D01*
X191983D01*
X191932Y251923D01*
X191623Y252233D01*
X191500Y252284D01*
D02*
G37*
G36*
X190500D02*
X190377Y252233D01*
X190068Y251923D01*
X190016Y251800D01*
X190500D01*
Y252284D01*
D02*
G37*
G36*
X191983Y250800D02*
X191500D01*
Y250317D01*
X191623Y250367D01*
X191932Y250677D01*
X191983Y250800D01*
D02*
G37*
G36*
X190500D02*
X190016D01*
X190068Y250677D01*
X190377Y250367D01*
X190500Y250317D01*
Y250800D01*
D02*
G37*
G36*
X153918Y254300D02*
X153082D01*
X152310Y253980D01*
X151720Y253390D01*
X151400Y252618D01*
Y251782D01*
X151720Y251010D01*
X152310Y250420D01*
X153082Y250100D01*
X153918D01*
X154690Y250420D01*
X155280Y251010D01*
X155600Y251782D01*
Y252618D01*
X155280Y253390D01*
X154690Y253980D01*
X153918Y254300D01*
D02*
G37*
G36*
X123014D02*
X122179D01*
X121407Y253980D01*
X120816Y253390D01*
X120497Y252618D01*
Y251782D01*
X120816Y251010D01*
X121407Y250420D01*
X122179Y250100D01*
X123014D01*
X123786Y250420D01*
X124377Y251010D01*
X124697Y251782D01*
Y252618D01*
X124377Y253390D01*
X123786Y253980D01*
X123014Y254300D01*
D02*
G37*
G36*
X171173Y250457D02*
Y249973D01*
X171657D01*
X171606Y250096D01*
X171296Y250406D01*
X171173Y250457D01*
D02*
G37*
G36*
X170173D02*
X170050Y250406D01*
X169740Y250096D01*
X169690Y249973D01*
X170173D01*
Y250457D01*
D02*
G37*
G36*
X71418Y253700D02*
X70582D01*
X69810Y253380D01*
X69220Y252790D01*
X68900Y252018D01*
Y251182D01*
X69220Y250410D01*
X69810Y249820D01*
X70582Y249500D01*
X71418D01*
X72189Y249820D01*
X72780Y250410D01*
X73100Y251182D01*
Y252018D01*
X72780Y252790D01*
X72189Y253380D01*
X71418Y253700D01*
D02*
G37*
G36*
X186600Y249383D02*
Y248900D01*
X187083D01*
X187032Y249023D01*
X186723Y249332D01*
X186600Y249383D01*
D02*
G37*
G36*
X185600D02*
X185477Y249332D01*
X185168Y249023D01*
X185117Y248900D01*
X185600D01*
Y249383D01*
D02*
G37*
G36*
X193400Y248984D02*
Y248500D01*
X193884D01*
X193833Y248623D01*
X193523Y248933D01*
X193400Y248984D01*
D02*
G37*
G36*
X192400D02*
X192277Y248933D01*
X191967Y248623D01*
X191917Y248500D01*
X192400D01*
Y248984D01*
D02*
G37*
G36*
X171657Y248973D02*
X171173D01*
Y248489D01*
X171296Y248540D01*
X171606Y248850D01*
X171657Y248973D01*
D02*
G37*
G36*
X170173D02*
X169690D01*
X169740Y248850D01*
X170050Y248540D01*
X170173Y248489D01*
Y248973D01*
D02*
G37*
G36*
X187083Y247900D02*
X186600D01*
Y247416D01*
X186723Y247467D01*
X187032Y247777D01*
X187083Y247900D01*
D02*
G37*
G36*
X185600D02*
X185117D01*
X185168Y247777D01*
X185477Y247467D01*
X185600Y247416D01*
Y247900D01*
D02*
G37*
G36*
X193884Y247500D02*
X193400D01*
Y247017D01*
X193523Y247067D01*
X193833Y247377D01*
X193884Y247500D01*
D02*
G37*
G36*
X192400D02*
X191917D01*
X191967Y247377D01*
X192277Y247067D01*
X192400Y247017D01*
Y247500D01*
D02*
G37*
G36*
X138018Y251250D02*
X137182D01*
X136410Y250930D01*
X135820Y250340D01*
X135500Y249568D01*
Y248732D01*
X135820Y247960D01*
X136410Y247370D01*
X137182Y247050D01*
X138018D01*
X138790Y247370D01*
X138857Y247437D01*
X139280Y247154D01*
X139100Y246718D01*
Y245882D01*
X139420Y245110D01*
X140010Y244520D01*
X140782Y244200D01*
X141618D01*
X142390Y244520D01*
X142980Y245110D01*
X143300Y245882D01*
Y246718D01*
X142980Y247490D01*
X142390Y248080D01*
X141618Y248400D01*
X140782D01*
X140010Y248080D01*
X139943Y248013D01*
X139520Y248296D01*
X139700Y248732D01*
Y249568D01*
X139380Y250340D01*
X138790Y250930D01*
X138018Y251250D01*
D02*
G37*
G36*
X169600Y244183D02*
Y243700D01*
X170083D01*
X170033Y243823D01*
X169723Y244132D01*
X169600Y244183D01*
D02*
G37*
G36*
X168600D02*
X168477Y244132D01*
X168167Y243823D01*
X168116Y243700D01*
X168600D01*
Y244183D01*
D02*
G37*
G36*
X7700Y245429D02*
Y242700D01*
X10429D01*
X10227Y243454D01*
X9799Y244194D01*
X9194Y244799D01*
X8454Y245227D01*
X7700Y245429D01*
D02*
G37*
G36*
X6700D02*
X5946Y245227D01*
X5206Y244799D01*
X4601Y244194D01*
X4173Y243454D01*
X3971Y242700D01*
X6700D01*
Y245429D01*
D02*
G37*
G36*
X170083Y242700D02*
X169600D01*
Y242216D01*
X169723Y242267D01*
X170033Y242577D01*
X170083Y242700D01*
D02*
G37*
G36*
X168600D02*
X168116D01*
X168167Y242577D01*
X168477Y242267D01*
X168600Y242216D01*
Y242700D01*
D02*
G37*
G36*
X23897Y240483D02*
Y240000D01*
X24381D01*
X24329Y240123D01*
X24020Y240433D01*
X23897Y240483D01*
D02*
G37*
G36*
X22897D02*
X22774Y240433D01*
X22464Y240123D01*
X22413Y240000D01*
X22897D01*
Y240483D01*
D02*
G37*
G36*
X10429Y241700D02*
X7700D01*
Y238971D01*
X8454Y239173D01*
X9194Y239601D01*
X9799Y240206D01*
X10227Y240946D01*
X10429Y241700D01*
D02*
G37*
G36*
X6700D02*
X3971D01*
X4173Y240946D01*
X4601Y240206D01*
X5206Y239601D01*
X5946Y239173D01*
X6700Y238971D01*
Y241700D01*
D02*
G37*
G36*
X182200Y239084D02*
Y238600D01*
X182684D01*
X182633Y238723D01*
X182323Y239033D01*
X182200Y239084D01*
D02*
G37*
G36*
X181200D02*
X181077Y239033D01*
X180768Y238723D01*
X180717Y238600D01*
X181200D01*
Y239084D01*
D02*
G37*
G36*
X24381Y239000D02*
X23897D01*
Y238516D01*
X24020Y238567D01*
X24329Y238877D01*
X24381Y239000D01*
D02*
G37*
G36*
X22897D02*
X22413D01*
X22464Y238877D01*
X22774Y238567D01*
X22897Y238516D01*
Y239000D01*
D02*
G37*
G36*
X182684Y237600D02*
X182200D01*
Y237117D01*
X182323Y237168D01*
X182633Y237477D01*
X182684Y237600D01*
D02*
G37*
G36*
X181200D02*
X180717D01*
X180768Y237477D01*
X181077Y237168D01*
X181200Y237117D01*
Y237600D01*
D02*
G37*
G36*
X200418Y237146D02*
X199582D01*
X198810Y236827D01*
X198220Y236236D01*
X197900Y235464D01*
Y234629D01*
X198220Y233857D01*
X198810Y233266D01*
X199582Y232946D01*
X200418D01*
X201190Y233266D01*
X201780Y233857D01*
X202100Y234629D01*
Y235464D01*
X201780Y236236D01*
X201190Y236827D01*
X200418Y237146D01*
D02*
G37*
G36*
X209918Y235600D02*
X209082D01*
X208310Y235280D01*
X207720Y234690D01*
X207400Y233918D01*
Y233082D01*
X207720Y232310D01*
X208310Y231720D01*
X209082Y231400D01*
X209918D01*
X210690Y231720D01*
X211280Y232310D01*
X211600Y233082D01*
Y233918D01*
X211280Y234690D01*
X210690Y235280D01*
X209918Y235600D01*
D02*
G37*
G36*
X24100Y231234D02*
Y230750D01*
X24584D01*
X24532Y230873D01*
X24223Y231183D01*
X24100Y231234D01*
D02*
G37*
G36*
X23100D02*
X22977Y231183D01*
X22668Y230873D01*
X22616Y230750D01*
X23100D01*
Y231234D01*
D02*
G37*
G36*
X126318Y234700D02*
X125482D01*
X124710Y234380D01*
X124120Y233790D01*
X123800Y233018D01*
Y232182D01*
X124120Y231410D01*
X124710Y230820D01*
X125482Y230500D01*
X126318D01*
X127090Y230820D01*
X127680Y231410D01*
X128000Y232182D01*
Y233018D01*
X127680Y233790D01*
X127090Y234380D01*
X126318Y234700D01*
D02*
G37*
G36*
X24584Y229750D02*
X24100D01*
Y229267D01*
X24223Y229317D01*
X24532Y229627D01*
X24584Y229750D01*
D02*
G37*
G36*
X23100D02*
X22616D01*
X22668Y229627D01*
X22977Y229317D01*
X23100Y229267D01*
Y229750D01*
D02*
G37*
G36*
X135518Y232300D02*
X134682D01*
X133910Y231980D01*
X133320Y231390D01*
X133000Y230618D01*
Y229782D01*
X133320Y229010D01*
X133910Y228420D01*
X134682Y228100D01*
X135518D01*
X136290Y228420D01*
X136880Y229010D01*
X137200Y229782D01*
Y230618D01*
X136880Y231390D01*
X136290Y231980D01*
X135518Y232300D01*
D02*
G37*
G36*
X147600Y228484D02*
Y228000D01*
X148083D01*
X148032Y228123D01*
X147723Y228432D01*
X147600Y228484D01*
D02*
G37*
G36*
X146600D02*
X146477Y228432D01*
X146168Y228123D01*
X146116Y228000D01*
X146600D01*
Y228484D01*
D02*
G37*
G36*
X8824Y236471D02*
X5576D01*
X4891Y236381D01*
X4253Y236116D01*
X3704Y235696D01*
X3284Y235147D01*
X3019Y234509D01*
X2929Y233824D01*
Y230576D01*
X3019Y229891D01*
X3284Y229253D01*
X3704Y228705D01*
X4253Y228284D01*
X4891Y228019D01*
X5576Y227929D01*
X8824D01*
X9509Y228019D01*
X10147Y228284D01*
X10695Y228705D01*
X11116Y229253D01*
X11381Y229891D01*
X11471Y230576D01*
Y233824D01*
X11381Y234509D01*
X11116Y235147D01*
X10695Y235696D01*
X10147Y236116D01*
X9509Y236381D01*
X8824Y236471D01*
D02*
G37*
G36*
X192243Y228391D02*
Y227907D01*
X192726D01*
X192675Y228030D01*
X192366Y228340D01*
X192243Y228391D01*
D02*
G37*
G36*
X191243D02*
X191120Y228340D01*
X190810Y228030D01*
X190759Y227907D01*
X191243D01*
Y228391D01*
D02*
G37*
G36*
X213900Y227983D02*
Y227500D01*
X214384D01*
X214333Y227623D01*
X214023Y227933D01*
X213900Y227983D01*
D02*
G37*
G36*
X212900D02*
X212777Y227933D01*
X212468Y227623D01*
X212417Y227500D01*
X212900D01*
Y227983D01*
D02*
G37*
G36*
X148083Y227000D02*
X147600D01*
Y226517D01*
X147723Y226568D01*
X148032Y226877D01*
X148083Y227000D01*
D02*
G37*
G36*
X146600D02*
X146116D01*
X146168Y226877D01*
X146477Y226568D01*
X146600Y226517D01*
Y227000D01*
D02*
G37*
G36*
X192726Y226907D02*
X192243D01*
Y226424D01*
X192366Y226475D01*
X192675Y226784D01*
X192726Y226907D01*
D02*
G37*
G36*
X191243D02*
X190759D01*
X190810Y226784D01*
X191120Y226475D01*
X191243Y226424D01*
Y226907D01*
D02*
G37*
G36*
X214384Y226500D02*
X213900D01*
Y226016D01*
X214023Y226067D01*
X214333Y226377D01*
X214384Y226500D01*
D02*
G37*
G36*
X212900D02*
X212417D01*
X212468Y226377D01*
X212777Y226067D01*
X212900Y226016D01*
Y226500D01*
D02*
G37*
G36*
X210100Y225083D02*
Y224600D01*
X210583D01*
X210532Y224723D01*
X210223Y225032D01*
X210100Y225083D01*
D02*
G37*
G36*
X209100D02*
X208977Y225032D01*
X208667Y224723D01*
X208616Y224600D01*
X209100D01*
Y225083D01*
D02*
G37*
G36*
X77300Y224483D02*
Y224000D01*
X77784D01*
X77732Y224123D01*
X77423Y224432D01*
X77300Y224483D01*
D02*
G37*
G36*
X76300D02*
X76177Y224432D01*
X75867Y224123D01*
X75817Y224000D01*
X76300D01*
Y224483D01*
D02*
G37*
G36*
X210583Y223600D02*
X210100D01*
Y223116D01*
X210223Y223167D01*
X210532Y223477D01*
X210583Y223600D01*
D02*
G37*
G36*
X209100D02*
X208616D01*
X208667Y223477D01*
X208977Y223167D01*
X209100Y223116D01*
Y223600D01*
D02*
G37*
G36*
X58410Y223284D02*
Y222800D01*
X58894D01*
X58843Y222923D01*
X58533Y223233D01*
X58410Y223284D01*
D02*
G37*
G36*
X57410D02*
X57287Y223233D01*
X56978Y222923D01*
X56927Y222800D01*
X57410D01*
Y223284D01*
D02*
G37*
G36*
X103800Y223083D02*
Y222600D01*
X104283D01*
X104233Y222723D01*
X103923Y223032D01*
X103800Y223083D01*
D02*
G37*
G36*
X102800D02*
X102677Y223032D01*
X102367Y222723D01*
X102316Y222600D01*
X102800D01*
Y223083D01*
D02*
G37*
G36*
X77784Y223000D02*
X77300D01*
Y222516D01*
X77423Y222568D01*
X77732Y222877D01*
X77784Y223000D01*
D02*
G37*
G36*
X76300D02*
X75817D01*
X75867Y222877D01*
X76177Y222568D01*
X76300Y222516D01*
Y223000D01*
D02*
G37*
G36*
X58894Y221800D02*
X58410D01*
Y221317D01*
X58533Y221368D01*
X58843Y221677D01*
X58894Y221800D01*
D02*
G37*
G36*
X57410D02*
X56927D01*
X56978Y221677D01*
X57287Y221368D01*
X57410Y221317D01*
Y221800D01*
D02*
G37*
G36*
X104283Y221600D02*
X103800D01*
Y221116D01*
X103923Y221167D01*
X104233Y221477D01*
X104283Y221600D01*
D02*
G37*
G36*
X102800D02*
X102316D01*
X102367Y221477D01*
X102677Y221167D01*
X102800Y221116D01*
Y221600D01*
D02*
G37*
G36*
X24000Y221584D02*
Y221100D01*
X24484D01*
X24432Y221223D01*
X24123Y221533D01*
X24000Y221584D01*
D02*
G37*
G36*
X23000D02*
X22877Y221533D01*
X22568Y221223D01*
X22516Y221100D01*
X23000D01*
Y221584D01*
D02*
G37*
G36*
X183818Y224600D02*
X182982D01*
X182210Y224280D01*
X181620Y223690D01*
X181300Y222918D01*
Y222082D01*
X181620Y221310D01*
X182210Y220720D01*
X182982Y220400D01*
X183818D01*
X184590Y220720D01*
X185180Y221310D01*
X185500Y222082D01*
Y222918D01*
X185180Y223690D01*
X184590Y224280D01*
X183818Y224600D01*
D02*
G37*
G36*
X24484Y220100D02*
X24000D01*
Y219617D01*
X24123Y219668D01*
X24432Y219977D01*
X24484Y220100D01*
D02*
G37*
G36*
X23000D02*
X22516D01*
X22568Y219977D01*
X22877Y219668D01*
X23000Y219617D01*
Y220100D01*
D02*
G37*
G36*
X191983Y219987D02*
Y219503D01*
X192467D01*
X192416Y219626D01*
X192106Y219936D01*
X191983Y219987D01*
D02*
G37*
G36*
X190983D02*
X190860Y219936D01*
X190551Y219626D01*
X190500Y219503D01*
X190983D01*
Y219987D01*
D02*
G37*
G36*
X167843Y219691D02*
Y219207D01*
X168326D01*
X168275Y219330D01*
X167966Y219640D01*
X167843Y219691D01*
D02*
G37*
G36*
X166843D02*
X166720Y219640D01*
X166410Y219330D01*
X166359Y219207D01*
X166843D01*
Y219691D01*
D02*
G37*
G36*
X127956Y227551D02*
X126837D01*
X125757Y227262D01*
X124788Y226703D01*
X123997Y225912D01*
X123438Y224943D01*
X123149Y223863D01*
Y222744D01*
X123438Y221664D01*
X123997Y220695D01*
X124788Y219904D01*
X125757Y219345D01*
X126837Y219055D01*
X127956D01*
X129036Y219345D01*
X130005Y219904D01*
X130796Y220695D01*
X131355Y221664D01*
X131645Y222744D01*
Y223863D01*
X131355Y224943D01*
X130796Y225912D01*
X130005Y226703D01*
X129036Y227262D01*
X127956Y227551D01*
D02*
G37*
G36*
X192467Y218503D02*
X191983D01*
Y218020D01*
X192106Y218071D01*
X192416Y218380D01*
X192467Y218503D01*
D02*
G37*
G36*
X190983D02*
X190500D01*
X190551Y218380D01*
X190860Y218071D01*
X190983Y218020D01*
Y218503D01*
D02*
G37*
G36*
X168326Y218207D02*
X167843D01*
Y217724D01*
X167966Y217775D01*
X168275Y218084D01*
X168326Y218207D01*
D02*
G37*
G36*
X166843D02*
X166359D01*
X166410Y218084D01*
X166720Y217775D01*
X166843Y217724D01*
Y218207D01*
D02*
G37*
G36*
X144793Y217890D02*
Y217406D01*
X145276D01*
X145225Y217529D01*
X144916Y217839D01*
X144793Y217890D01*
D02*
G37*
G36*
X143793D02*
X143670Y217839D01*
X143360Y217529D01*
X143309Y217406D01*
X143793D01*
Y217890D01*
D02*
G37*
G36*
X212900Y217583D02*
Y217100D01*
X213384D01*
X213333Y217223D01*
X213023Y217532D01*
X212900Y217583D01*
D02*
G37*
G36*
X211900D02*
X211777Y217532D01*
X211468Y217223D01*
X211417Y217100D01*
X211900D01*
Y217583D01*
D02*
G37*
G36*
X11700Y217483D02*
Y217000D01*
X12184D01*
X12133Y217123D01*
X11823Y217432D01*
X11700Y217483D01*
D02*
G37*
G36*
X10700D02*
X10577Y217432D01*
X10267Y217123D01*
X10216Y217000D01*
X10700D01*
Y217483D01*
D02*
G37*
G36*
X145276Y216406D02*
X144793D01*
Y215923D01*
X144916Y215974D01*
X145225Y216283D01*
X145276Y216406D01*
D02*
G37*
G36*
X143793D02*
X143309D01*
X143360Y216283D01*
X143670Y215974D01*
X143793Y215923D01*
Y216406D01*
D02*
G37*
G36*
X213384Y216100D02*
X212900D01*
Y215616D01*
X213023Y215668D01*
X213333Y215977D01*
X213384Y216100D01*
D02*
G37*
G36*
X211900D02*
X211417D01*
X211468Y215977D01*
X211777Y215668D01*
X211900Y215616D01*
Y216100D01*
D02*
G37*
G36*
X12184Y216000D02*
X11700D01*
Y215516D01*
X11823Y215567D01*
X12133Y215877D01*
X12184Y216000D01*
D02*
G37*
G36*
X10700D02*
X10216D01*
X10267Y215877D01*
X10577Y215567D01*
X10700Y215516D01*
Y216000D01*
D02*
G37*
G36*
X86331Y215883D02*
Y215400D01*
X86815D01*
X86764Y215523D01*
X86455Y215832D01*
X86331Y215883D01*
D02*
G37*
G36*
X85331D02*
X85208Y215832D01*
X84899Y215523D01*
X84848Y215400D01*
X85331D01*
Y215883D01*
D02*
G37*
G36*
X86815Y214400D02*
X86331D01*
Y213916D01*
X86455Y213967D01*
X86764Y214277D01*
X86815Y214400D01*
D02*
G37*
G36*
X85331D02*
X84848D01*
X84899Y214277D01*
X85208Y213967D01*
X85331Y213916D01*
Y214400D01*
D02*
G37*
G36*
X127956Y217551D02*
X126837D01*
X125757Y217262D01*
X124788Y216703D01*
X123997Y215912D01*
X123438Y214943D01*
X123149Y213863D01*
Y212744D01*
X123438Y211664D01*
X123997Y210695D01*
X124788Y209904D01*
X125757Y209345D01*
X126837Y209055D01*
X127956D01*
X129036Y209345D01*
X130005Y209904D01*
X130796Y210695D01*
X131355Y211664D01*
X131645Y212744D01*
Y213863D01*
X131355Y214943D01*
X130796Y215912D01*
X130005Y216703D01*
X129036Y217262D01*
X127956Y217551D01*
D02*
G37*
G36*
X187318Y212400D02*
X186482D01*
X185710Y212080D01*
X185120Y211490D01*
X184800Y210718D01*
Y209882D01*
X185120Y209110D01*
X185710Y208520D01*
X186482Y208200D01*
X187318D01*
X188090Y208520D01*
X188680Y209110D01*
X189000Y209882D01*
Y210718D01*
X188680Y211490D01*
X188090Y212080D01*
X187318Y212400D01*
D02*
G37*
G36*
X23918Y209300D02*
X23082D01*
X22310Y208980D01*
X21720Y208390D01*
X21400Y207618D01*
Y206782D01*
X21720Y206010D01*
X22310Y205420D01*
X23082Y205100D01*
X23918D01*
X24690Y205420D01*
X25280Y206010D01*
X25600Y206782D01*
Y207618D01*
X25280Y208390D01*
X24690Y208980D01*
X23918Y209300D01*
D02*
G37*
G36*
X153300Y203729D02*
X152300D01*
Y201200D01*
X154829D01*
Y202200D01*
X154713Y202785D01*
X154381Y203281D01*
X153885Y203613D01*
X153300Y203729D01*
D02*
G37*
G36*
X151300D02*
X150300D01*
X149715Y203613D01*
X149219Y203281D01*
X148887Y202785D01*
X148771Y202200D01*
Y201200D01*
X151300D01*
Y203729D01*
D02*
G37*
G36*
X129021Y207574D02*
X125773D01*
X125088Y207484D01*
X124449Y207219D01*
X123901Y206799D01*
X123481Y206251D01*
X123216Y205612D01*
X123126Y204927D01*
Y201679D01*
X123216Y200994D01*
X123481Y200356D01*
X123901Y199808D01*
X124449Y199387D01*
X125088Y199123D01*
X125773Y199033D01*
X129021D01*
X129706Y199123D01*
X130344Y199387D01*
X130892Y199808D01*
X131313Y200356D01*
X131577Y200994D01*
X131667Y201679D01*
Y204927D01*
X131577Y205612D01*
X131313Y206251D01*
X130892Y206799D01*
X130344Y207219D01*
X129706Y207484D01*
X129021Y207574D01*
D02*
G37*
G36*
X154829Y200200D02*
X152300D01*
Y197671D01*
X153300D01*
X153885Y197787D01*
X154381Y198119D01*
X154713Y198615D01*
X154829Y199200D01*
Y200200D01*
D02*
G37*
G36*
X151300D02*
X148771D01*
Y199200D01*
X148887Y198615D01*
X149219Y198119D01*
X149715Y197787D01*
X150300Y197671D01*
X151300D01*
Y200200D01*
D02*
G37*
G36*
X83297Y197687D02*
Y197203D01*
X83780D01*
X83729Y197326D01*
X83420Y197636D01*
X83297Y197687D01*
D02*
G37*
G36*
X82297D02*
X82174Y197636D01*
X81864Y197326D01*
X81813Y197203D01*
X82297D01*
Y197687D01*
D02*
G37*
G36*
X77497D02*
Y197203D01*
X77980D01*
X77929Y197326D01*
X77620Y197636D01*
X77497Y197687D01*
D02*
G37*
G36*
X76497D02*
X76374Y197636D01*
X76064Y197326D01*
X76013Y197203D01*
X76497D01*
Y197687D01*
D02*
G37*
G36*
X202327Y204700D02*
X201273D01*
X200256Y204427D01*
X199344Y203901D01*
X198599Y203156D01*
X198073Y202244D01*
X197800Y201227D01*
Y200173D01*
X198073Y199156D01*
X198599Y198244D01*
X199344Y197499D01*
X200256Y196973D01*
X201273Y196700D01*
X202327D01*
X203344Y196973D01*
X204256Y197499D01*
X205001Y198244D01*
X205527Y199156D01*
X205800Y200173D01*
Y201227D01*
X205527Y202244D01*
X205001Y203156D01*
X204256Y203901D01*
X203344Y204427D01*
X202327Y204700D01*
D02*
G37*
G36*
X192327D02*
X191273D01*
X190256Y204427D01*
X189344Y203901D01*
X188599Y203156D01*
X188073Y202244D01*
X187800Y201227D01*
Y200173D01*
X188073Y199156D01*
X188599Y198244D01*
X189344Y197499D01*
X190256Y196973D01*
X191273Y196700D01*
X192327D01*
X193344Y196973D01*
X194256Y197499D01*
X195001Y198244D01*
X195527Y199156D01*
X195800Y200173D01*
Y201227D01*
X195527Y202244D01*
X195001Y203156D01*
X194256Y203901D01*
X193344Y204427D01*
X192327Y204700D01*
D02*
G37*
G36*
X182327D02*
X181273D01*
X180256Y204427D01*
X179344Y203901D01*
X178599Y203156D01*
X178073Y202244D01*
X177800Y201227D01*
Y200173D01*
X178073Y199156D01*
X178599Y198244D01*
X179344Y197499D01*
X180256Y196973D01*
X181273Y196700D01*
X182327D01*
X183344Y196973D01*
X184256Y197499D01*
X185001Y198244D01*
X185527Y199156D01*
X185800Y200173D01*
Y201227D01*
X185527Y202244D01*
X185001Y203156D01*
X184256Y203901D01*
X183344Y204427D01*
X182327Y204700D01*
D02*
G37*
G36*
X172327D02*
X171273D01*
X170256Y204427D01*
X169344Y203901D01*
X168599Y203156D01*
X168073Y202244D01*
X167800Y201227D01*
Y200173D01*
X168073Y199156D01*
X168599Y198244D01*
X169344Y197499D01*
X170256Y196973D01*
X171273Y196700D01*
X172327D01*
X173344Y196973D01*
X174256Y197499D01*
X175001Y198244D01*
X175527Y199156D01*
X175800Y200173D01*
Y201227D01*
X175527Y202244D01*
X175001Y203156D01*
X174256Y203901D01*
X173344Y204427D01*
X172327Y204700D01*
D02*
G37*
G36*
X162327D02*
X161273D01*
X160256Y204427D01*
X159344Y203901D01*
X158599Y203156D01*
X158073Y202244D01*
X157800Y201227D01*
Y200173D01*
X158073Y199156D01*
X158599Y198244D01*
X159344Y197499D01*
X160256Y196973D01*
X161273Y196700D01*
X162327D01*
X163344Y196973D01*
X164256Y197499D01*
X165001Y198244D01*
X165527Y199156D01*
X165800Y200173D01*
Y201227D01*
X165527Y202244D01*
X165001Y203156D01*
X164256Y203901D01*
X163344Y204427D01*
X162327Y204700D01*
D02*
G37*
G36*
X83780Y196203D02*
X83297D01*
Y195720D01*
X83420Y195771D01*
X83729Y196080D01*
X83780Y196203D01*
D02*
G37*
G36*
X82297D02*
X81813D01*
X81864Y196080D01*
X82174Y195771D01*
X82297Y195720D01*
Y196203D01*
D02*
G37*
G36*
X77980D02*
X77497D01*
Y195720D01*
X77620Y195771D01*
X77929Y196080D01*
X77980Y196203D01*
D02*
G37*
G36*
X76497D02*
X76013D01*
X76064Y196080D01*
X76374Y195771D01*
X76497Y195720D01*
Y196203D01*
D02*
G37*
G36*
X122097Y195087D02*
Y194603D01*
X122580D01*
X122529Y194726D01*
X122220Y195036D01*
X122097Y195087D01*
D02*
G37*
G36*
X121097D02*
X120974Y195036D01*
X120664Y194726D01*
X120613Y194603D01*
X121097D01*
Y195087D01*
D02*
G37*
G36*
X11949Y201544D02*
X11012D01*
X10107Y201302D01*
X9295Y200833D01*
X8632Y200170D01*
X8164Y199359D01*
X7921Y198454D01*
Y197517D01*
X8164Y196611D01*
X8632Y195800D01*
X9295Y195137D01*
X10107Y194668D01*
X11012Y194426D01*
X11949D01*
X12854Y194668D01*
X13666Y195137D01*
X14328Y195800D01*
X14797Y196611D01*
X15039Y197517D01*
Y198454D01*
X14797Y199359D01*
X14328Y200170D01*
X13666Y200833D01*
X12854Y201302D01*
X11949Y201544D01*
D02*
G37*
G36*
X80397Y194787D02*
Y194303D01*
X80880D01*
X80829Y194426D01*
X80520Y194736D01*
X80397Y194787D01*
D02*
G37*
G36*
X79397D02*
X79274Y194736D01*
X78964Y194426D01*
X78913Y194303D01*
X79397D01*
Y194787D01*
D02*
G37*
G36*
X122580Y193603D02*
X122097D01*
Y193120D01*
X122220Y193171D01*
X122529Y193480D01*
X122580Y193603D01*
D02*
G37*
G36*
X121097D02*
X120613D01*
X120664Y193480D01*
X120974Y193171D01*
X121097Y193120D01*
Y193603D01*
D02*
G37*
G36*
X80880Y193303D02*
X80397D01*
Y192820D01*
X80520Y192871D01*
X80829Y193180D01*
X80880Y193303D01*
D02*
G37*
G36*
X79397D02*
X78913D01*
X78964Y193180D01*
X79274Y192871D01*
X79397Y192820D01*
Y193303D01*
D02*
G37*
G36*
X83297Y191887D02*
Y191403D01*
X83780D01*
X83729Y191526D01*
X83420Y191836D01*
X83297Y191887D01*
D02*
G37*
G36*
X82297D02*
X82174Y191836D01*
X81864Y191526D01*
X81813Y191403D01*
X82297D01*
Y191887D01*
D02*
G37*
G36*
X77497D02*
Y191403D01*
X77980D01*
X77929Y191526D01*
X77620Y191836D01*
X77497Y191887D01*
D02*
G37*
G36*
X76497D02*
X76374Y191836D01*
X76064Y191526D01*
X76013Y191403D01*
X76497D01*
Y191887D01*
D02*
G37*
G36*
X83780Y190403D02*
X83297D01*
Y189920D01*
X83420Y189971D01*
X83729Y190280D01*
X83780Y190403D01*
D02*
G37*
G36*
X82297D02*
X81813D01*
X81864Y190280D01*
X82174Y189971D01*
X82297Y189920D01*
Y190403D01*
D02*
G37*
G36*
X77980D02*
X77497D01*
Y189920D01*
X77620Y189971D01*
X77929Y190280D01*
X77980Y190403D01*
D02*
G37*
G36*
X76497D02*
X76013D01*
X76064Y190280D01*
X76374Y189971D01*
X76497Y189920D01*
Y190403D01*
D02*
G37*
G36*
X105797Y189987D02*
Y189503D01*
X106280D01*
X106229Y189626D01*
X105920Y189936D01*
X105797Y189987D01*
D02*
G37*
G36*
X104797D02*
X104674Y189936D01*
X104364Y189626D01*
X104313Y189503D01*
X104797D01*
Y189987D01*
D02*
G37*
G36*
X204400Y189883D02*
Y189400D01*
X204884D01*
X204833Y189523D01*
X204523Y189832D01*
X204400Y189883D01*
D02*
G37*
G36*
X203400D02*
X203277Y189832D01*
X202968Y189523D01*
X202917Y189400D01*
X203400D01*
Y189883D01*
D02*
G37*
G36*
X51770Y188640D02*
Y188157D01*
X52253D01*
X52202Y188280D01*
X51893Y188589D01*
X51770Y188640D01*
D02*
G37*
G36*
X50770D02*
X50647Y188589D01*
X50337Y188280D01*
X50286Y188157D01*
X50770D01*
Y188640D01*
D02*
G37*
G36*
X106280Y188503D02*
X105797D01*
Y188020D01*
X105920Y188071D01*
X106229Y188380D01*
X106280Y188503D01*
D02*
G37*
G36*
X104797D02*
X104313D01*
X104364Y188380D01*
X104674Y188071D01*
X104797Y188020D01*
Y188503D01*
D02*
G37*
G36*
X18918Y192200D02*
X18082D01*
X17311Y191880D01*
X16720Y191290D01*
X16400Y190518D01*
Y189682D01*
X16720Y188910D01*
X17311Y188320D01*
X18082Y188000D01*
X18918D01*
X19690Y188320D01*
X20280Y188910D01*
X20600Y189682D01*
Y190518D01*
X20280Y191290D01*
X19690Y191880D01*
X18918Y192200D01*
D02*
G37*
G36*
X204884Y188400D02*
X204400D01*
Y187917D01*
X204523Y187968D01*
X204833Y188277D01*
X204884Y188400D01*
D02*
G37*
G36*
X203400D02*
X202917D01*
X202968Y188277D01*
X203277Y187968D01*
X203400Y187917D01*
Y188400D01*
D02*
G37*
G36*
X52253Y187157D02*
X51770D01*
Y186673D01*
X51893Y186724D01*
X52202Y187034D01*
X52253Y187157D01*
D02*
G37*
G36*
X50770D02*
X50286D01*
X50337Y187034D01*
X50647Y186724D01*
X50770Y186673D01*
Y187157D01*
D02*
G37*
G36*
X143618Y190400D02*
X142782D01*
X142010Y190080D01*
X141420Y189490D01*
X141100Y188718D01*
Y187882D01*
X141420Y187110D01*
X142010Y186520D01*
X142782Y186200D01*
X143618D01*
X144390Y186520D01*
X144980Y187110D01*
X145300Y187882D01*
Y188718D01*
X144980Y189490D01*
X144390Y190080D01*
X143618Y190400D01*
D02*
G37*
G36*
X124100Y186484D02*
Y186000D01*
X124583D01*
X124532Y186123D01*
X124223Y186433D01*
X124100Y186484D01*
D02*
G37*
G36*
X123100D02*
X122977Y186433D01*
X122668Y186123D01*
X122617Y186000D01*
X123100D01*
Y186484D01*
D02*
G37*
G36*
X124583Y185000D02*
X124100D01*
Y184517D01*
X124223Y184567D01*
X124532Y184877D01*
X124583Y185000D01*
D02*
G37*
G36*
X123100D02*
X122617D01*
X122668Y184877D01*
X122977Y184567D01*
X123100Y184517D01*
Y185000D01*
D02*
G37*
G36*
X172600Y179884D02*
Y179400D01*
X173083D01*
X173032Y179523D01*
X172723Y179832D01*
X172600Y179884D01*
D02*
G37*
G36*
X171600D02*
X171477Y179832D01*
X171168Y179523D01*
X171116Y179400D01*
X171600D01*
Y179884D01*
D02*
G37*
G36*
X173083Y178400D02*
X172600D01*
Y177917D01*
X172723Y177968D01*
X173032Y178277D01*
X173083Y178400D01*
D02*
G37*
G36*
X171600D02*
X171116D01*
X171168Y178277D01*
X171477Y177968D01*
X171600Y177917D01*
Y178400D01*
D02*
G37*
G36*
X100784Y178284D02*
Y177800D01*
X101267D01*
X101216Y177923D01*
X100907Y178233D01*
X100784Y178284D01*
D02*
G37*
G36*
X99783D02*
X99660Y178233D01*
X99351Y177923D01*
X99300Y177800D01*
X99783D01*
Y178284D01*
D02*
G37*
G36*
X158018Y181712D02*
X157182D01*
X156410Y181393D01*
X155820Y180802D01*
X155500Y180030D01*
Y179195D01*
X155820Y178423D01*
X156410Y177832D01*
X157182Y177512D01*
X158018D01*
X158790Y177832D01*
X159380Y178423D01*
X159700Y179195D01*
Y180030D01*
X159380Y180802D01*
X158790Y181393D01*
X158018Y181712D01*
D02*
G37*
G36*
X197400Y177093D02*
Y176610D01*
X197883D01*
X197833Y176733D01*
X197523Y177042D01*
X197400Y177093D01*
D02*
G37*
G36*
X196400D02*
X196277Y177042D01*
X195967Y176733D01*
X195916Y176610D01*
X196400D01*
Y177093D01*
D02*
G37*
G36*
X101267Y176800D02*
X100784D01*
Y176316D01*
X100907Y176367D01*
X101216Y176677D01*
X101267Y176800D01*
D02*
G37*
G36*
X99783D02*
X99300D01*
X99351Y176677D01*
X99660Y176367D01*
X99783Y176316D01*
Y176800D01*
D02*
G37*
G36*
X19118Y179700D02*
X18282D01*
X17511Y179380D01*
X16920Y178790D01*
X16600Y178018D01*
Y177182D01*
X16920Y176410D01*
X17511Y175820D01*
X18282Y175500D01*
X19118D01*
X19890Y175820D01*
X20480Y176410D01*
X20800Y177182D01*
Y178018D01*
X20480Y178790D01*
X19890Y179380D01*
X19118Y179700D01*
D02*
G37*
G36*
X197883Y175610D02*
X197400D01*
Y175126D01*
X197523Y175177D01*
X197833Y175487D01*
X197883Y175610D01*
D02*
G37*
G36*
X196400D02*
X195916D01*
X195967Y175487D01*
X196277Y175177D01*
X196400Y175126D01*
Y175610D01*
D02*
G37*
G36*
X11949Y181859D02*
X11012D01*
X10107Y181616D01*
X9295Y181148D01*
X8632Y180485D01*
X8164Y179674D01*
X7921Y178769D01*
Y177831D01*
X8164Y176926D01*
X8632Y176115D01*
X9295Y175452D01*
X10107Y174984D01*
X11012Y174741D01*
X11949D01*
X12854Y174984D01*
X13666Y175452D01*
X14328Y176115D01*
X14797Y176926D01*
X15039Y177831D01*
Y178769D01*
X14797Y179674D01*
X14328Y180485D01*
X13666Y181148D01*
X12854Y181616D01*
X11949Y181859D01*
D02*
G37*
G36*
X169400Y174784D02*
Y174300D01*
X169884D01*
X169833Y174423D01*
X169523Y174732D01*
X169400Y174784D01*
D02*
G37*
G36*
X168400D02*
X168277Y174732D01*
X167967Y174423D01*
X167917Y174300D01*
X168400D01*
Y174784D01*
D02*
G37*
G36*
X169884Y173300D02*
X169400D01*
Y172817D01*
X169523Y172868D01*
X169833Y173177D01*
X169884Y173300D01*
D02*
G37*
G36*
X168400D02*
X167917D01*
X167967Y173177D01*
X168277Y172868D01*
X168400Y172817D01*
Y173300D01*
D02*
G37*
G36*
X192518Y176400D02*
X191682D01*
X190910Y176080D01*
X190320Y175490D01*
X190000Y174718D01*
Y173882D01*
X190320Y173110D01*
X190910Y172520D01*
X191682Y172200D01*
X192518D01*
X193290Y172520D01*
X193880Y173110D01*
X194200Y173882D01*
Y174718D01*
X193880Y175490D01*
X193290Y176080D01*
X192518Y176400D01*
D02*
G37*
G36*
X71668Y172484D02*
Y172000D01*
X72152D01*
X72101Y172123D01*
X71792Y172432D01*
X71668Y172484D01*
D02*
G37*
G36*
X70669D02*
X70545Y172432D01*
X70236Y172123D01*
X70185Y172000D01*
X70669D01*
Y172484D01*
D02*
G37*
G36*
X72152Y171000D02*
X71668D01*
Y170517D01*
X71792Y170568D01*
X72101Y170877D01*
X72152Y171000D01*
D02*
G37*
G36*
X70669D02*
X70185D01*
X70236Y170877D01*
X70545Y170568D01*
X70669Y170517D01*
Y171000D01*
D02*
G37*
G36*
X156973Y174512D02*
X156138D01*
X155366Y174193D01*
X154775Y173602D01*
X154456Y172830D01*
Y171995D01*
X154775Y171223D01*
X155366Y170632D01*
X156138Y170312D01*
X156973D01*
X157745Y170632D01*
X158336Y171223D01*
X158656Y171995D01*
Y172830D01*
X158336Y173602D01*
X157745Y174193D01*
X156973Y174512D01*
D02*
G37*
G36*
X120484Y169434D02*
Y168950D01*
X120968D01*
X120917Y169073D01*
X120607Y169383D01*
X120484Y169434D01*
D02*
G37*
G36*
X119484D02*
X119361Y169383D01*
X119052Y169073D01*
X119001Y168950D01*
X119484D01*
Y169434D01*
D02*
G37*
G36*
X223800Y168283D02*
Y167800D01*
X224284D01*
X224233Y167923D01*
X223923Y168233D01*
X223800Y168283D01*
D02*
G37*
G36*
X222800D02*
X222677Y168233D01*
X222368Y167923D01*
X222317Y167800D01*
X222800D01*
Y168283D01*
D02*
G37*
G36*
X120968Y167950D02*
X120484D01*
Y167467D01*
X120607Y167518D01*
X120917Y167827D01*
X120968Y167950D01*
D02*
G37*
G36*
X119484D02*
X119001D01*
X119052Y167827D01*
X119361Y167518D01*
X119484Y167467D01*
Y167950D01*
D02*
G37*
G36*
X58194Y167333D02*
Y166850D01*
X58678D01*
X58627Y166973D01*
X58317Y167282D01*
X58194Y167333D01*
D02*
G37*
G36*
X57194D02*
X57071Y167282D01*
X56761Y166973D01*
X56710Y166850D01*
X57194D01*
Y167333D01*
D02*
G37*
G36*
X224284Y166800D02*
X223800D01*
Y166316D01*
X223923Y166367D01*
X224233Y166677D01*
X224284Y166800D01*
D02*
G37*
G36*
X222800D02*
X222317D01*
X222368Y166677D01*
X222677Y166367D01*
X222800Y166316D01*
Y166800D01*
D02*
G37*
G36*
X58678Y165850D02*
X58194D01*
Y165366D01*
X58317Y165418D01*
X58627Y165727D01*
X58678Y165850D01*
D02*
G37*
G36*
X57194D02*
X56710D01*
X56761Y165727D01*
X57071Y165418D01*
X57194Y165366D01*
Y165850D01*
D02*
G37*
G36*
X77434Y165213D02*
Y164730D01*
X77917D01*
X77866Y164853D01*
X77557Y165163D01*
X77434Y165213D01*
D02*
G37*
G36*
X76434D02*
X76311Y165163D01*
X76001Y164853D01*
X75950Y164730D01*
X76434D01*
Y165213D01*
D02*
G37*
G36*
X77917Y163730D02*
X77434D01*
Y163246D01*
X77557Y163297D01*
X77866Y163607D01*
X77917Y163730D01*
D02*
G37*
G36*
X76434D02*
X75950D01*
X76001Y163607D01*
X76311Y163297D01*
X76434Y163246D01*
Y163730D01*
D02*
G37*
G36*
X198100Y162784D02*
Y162300D01*
X198583D01*
X198532Y162423D01*
X198223Y162733D01*
X198100Y162784D01*
D02*
G37*
G36*
X197100D02*
X196977Y162733D01*
X196668Y162423D01*
X196616Y162300D01*
X197100D01*
Y162784D01*
D02*
G37*
G36*
X198583Y161300D02*
X198100D01*
Y160817D01*
X198223Y160868D01*
X198532Y161177D01*
X198583Y161300D01*
D02*
G37*
G36*
X197100D02*
X196616D01*
X196668Y161177D01*
X196977Y160868D01*
X197100Y160817D01*
Y161300D01*
D02*
G37*
G36*
X21222Y159999D02*
Y159515D01*
X21706D01*
X21655Y159638D01*
X21345Y159948D01*
X21222Y159999D01*
D02*
G37*
G36*
X20222D02*
X20099Y159948D01*
X19790Y159638D01*
X19738Y159515D01*
X20222D01*
Y159999D01*
D02*
G37*
G36*
X123272Y163461D02*
X122436D01*
X121665Y163142D01*
X121074Y162551D01*
X120754Y161779D01*
Y160943D01*
X121074Y160172D01*
X121665Y159581D01*
X122436Y159261D01*
X123272D01*
X124044Y159581D01*
X124634Y160172D01*
X124954Y160943D01*
Y161779D01*
X124634Y162551D01*
X124044Y163142D01*
X123272Y163461D01*
D02*
G37*
G36*
X62204Y158883D02*
Y158399D01*
X62687D01*
X62637Y158522D01*
X62327Y158832D01*
X62204Y158883D01*
D02*
G37*
G36*
X61204D02*
X61081Y158832D01*
X60771Y158522D01*
X60720Y158399D01*
X61204D01*
Y158883D01*
D02*
G37*
G36*
X153500Y158684D02*
Y158200D01*
X153983D01*
X153932Y158323D01*
X153623Y158633D01*
X153500Y158684D01*
D02*
G37*
G36*
X152500D02*
X152377Y158633D01*
X152067Y158323D01*
X152016Y158200D01*
X152500D01*
Y158684D01*
D02*
G37*
G36*
X184090Y162349D02*
X183254D01*
X182482Y162029D01*
X181892Y161438D01*
X181572Y160667D01*
Y159831D01*
X181892Y159059D01*
X182482Y158468D01*
X183254Y158149D01*
X184090D01*
X184861Y158468D01*
X185452Y159059D01*
X185772Y159831D01*
Y160667D01*
X185452Y161438D01*
X184861Y162029D01*
X184090Y162349D01*
D02*
G37*
G36*
X21706Y158515D02*
X21222D01*
Y158032D01*
X21345Y158083D01*
X21655Y158392D01*
X21706Y158515D01*
D02*
G37*
G36*
X20222D02*
X19738D01*
X19790Y158392D01*
X20099Y158083D01*
X20222Y158032D01*
Y158515D01*
D02*
G37*
G36*
X62687Y157399D02*
X62204D01*
Y156916D01*
X62327Y156967D01*
X62637Y157276D01*
X62687Y157399D01*
D02*
G37*
G36*
X61204D02*
X60720D01*
X60771Y157276D01*
X61081Y156967D01*
X61204Y156916D01*
Y157399D01*
D02*
G37*
G36*
X153983Y157200D02*
X153500D01*
Y156717D01*
X153623Y156767D01*
X153932Y157077D01*
X153983Y157200D01*
D02*
G37*
G36*
X152500D02*
X152016D01*
X152067Y157077D01*
X152377Y156767D01*
X152500Y156717D01*
Y157200D01*
D02*
G37*
G36*
X165931Y157083D02*
Y156600D01*
X166415D01*
X166364Y156723D01*
X166055Y157033D01*
X165931Y157083D01*
D02*
G37*
G36*
X164931D02*
X164808Y157033D01*
X164499Y156723D01*
X164448Y156600D01*
X164931D01*
Y157083D01*
D02*
G37*
G36*
X32000Y156084D02*
Y155600D01*
X32484D01*
X32432Y155723D01*
X32123Y156033D01*
X32000Y156084D01*
D02*
G37*
G36*
X31000D02*
X30877Y156033D01*
X30567Y155723D01*
X30516Y155600D01*
X31000D01*
Y156084D01*
D02*
G37*
G36*
X166415Y155600D02*
X165931D01*
Y155116D01*
X166055Y155167D01*
X166364Y155477D01*
X166415Y155600D01*
D02*
G37*
G36*
X164931D02*
X164448D01*
X164499Y155477D01*
X164808Y155167D01*
X164931Y155116D01*
Y155600D01*
D02*
G37*
G36*
X209995Y156200D02*
X209159D01*
X208387Y155880D01*
X207797Y155290D01*
X207487Y154543D01*
X207186Y154668D01*
X206350D01*
X205578Y154348D01*
X204988Y153757D01*
X204668Y152986D01*
Y152150D01*
X204988Y151378D01*
X205578Y150787D01*
X206350Y150468D01*
X207186D01*
X207957Y150787D01*
X208548Y151378D01*
X208857Y152125D01*
X209159Y152000D01*
X209995D01*
X210400Y151729D01*
Y151704D01*
X210720Y150932D01*
X211310Y150341D01*
X212082Y150022D01*
X212918D01*
X213100Y149900D01*
Y149382D01*
X213420Y148610D01*
X214010Y148020D01*
X214782Y147700D01*
X215618D01*
X216390Y148020D01*
X216980Y148610D01*
X217300Y149382D01*
Y150218D01*
X216980Y150990D01*
X216390Y151580D01*
X215618Y151900D01*
X214782D01*
X214600Y152022D01*
Y152539D01*
X214280Y153311D01*
X213690Y153902D01*
X212918Y154221D01*
X212082D01*
X211677Y154492D01*
Y154518D01*
X211357Y155290D01*
X210767Y155880D01*
X209995Y156200D01*
D02*
G37*
G36*
X32484Y154600D02*
X32000D01*
Y154116D01*
X32123Y154167D01*
X32432Y154477D01*
X32484Y154600D01*
D02*
G37*
G36*
X31000D02*
X30516D01*
X30567Y154477D01*
X30877Y154167D01*
X31000Y154116D01*
Y154600D01*
D02*
G37*
G36*
X153400Y154584D02*
Y154100D01*
X153884D01*
X153832Y154223D01*
X153523Y154533D01*
X153400Y154584D01*
D02*
G37*
G36*
X152400D02*
X152277Y154533D01*
X151968Y154223D01*
X151917Y154100D01*
X152400D01*
Y154584D01*
D02*
G37*
G36*
X157300Y154483D02*
Y154000D01*
X157783D01*
X157732Y154123D01*
X157423Y154432D01*
X157300Y154483D01*
D02*
G37*
G36*
X156300D02*
X156177Y154432D01*
X155868Y154123D01*
X155816Y154000D01*
X156300D01*
Y154483D01*
D02*
G37*
G36*
X165900Y153884D02*
Y153400D01*
X166384D01*
X166332Y153523D01*
X166023Y153832D01*
X165900Y153884D01*
D02*
G37*
G36*
X164900D02*
X164777Y153832D01*
X164468Y153523D01*
X164417Y153400D01*
X164900D01*
Y153884D01*
D02*
G37*
G36*
X173700Y153784D02*
Y153300D01*
X174183D01*
X174133Y153423D01*
X173823Y153733D01*
X173700Y153784D01*
D02*
G37*
G36*
X172700D02*
X172577Y153733D01*
X172267Y153423D01*
X172216Y153300D01*
X172700D01*
Y153784D01*
D02*
G37*
G36*
X153884Y153100D02*
X153400D01*
Y152617D01*
X153523Y152667D01*
X153832Y152977D01*
X153884Y153100D01*
D02*
G37*
G36*
X152400D02*
X151917D01*
X151968Y152977D01*
X152277Y152667D01*
X152400Y152617D01*
Y153100D01*
D02*
G37*
G36*
X157783Y153000D02*
X157300D01*
Y152516D01*
X157423Y152568D01*
X157732Y152877D01*
X157783Y153000D01*
D02*
G37*
G36*
X156300D02*
X155816D01*
X155868Y152877D01*
X156177Y152568D01*
X156300Y152516D01*
Y153000D01*
D02*
G37*
G36*
X166384Y152400D02*
X165900D01*
Y151917D01*
X166023Y151968D01*
X166332Y152277D01*
X166384Y152400D01*
D02*
G37*
G36*
X164900D02*
X164417D01*
X164468Y152277D01*
X164777Y151968D01*
X164900Y151917D01*
Y152400D01*
D02*
G37*
G36*
X174183Y152300D02*
X173700D01*
Y151816D01*
X173823Y151867D01*
X174133Y152177D01*
X174183Y152300D01*
D02*
G37*
G36*
X172700D02*
X172216D01*
X172267Y152177D01*
X172577Y151867D01*
X172700Y151816D01*
Y152300D01*
D02*
G37*
G36*
X125804Y153299D02*
X124969D01*
X124197Y152979D01*
X123607Y152388D01*
X123287Y151616D01*
Y150781D01*
X123607Y150009D01*
X124197Y149418D01*
X124969Y149099D01*
X125804D01*
X126576Y149418D01*
X127167Y150009D01*
X127487Y150781D01*
Y151616D01*
X127167Y152388D01*
X126576Y152979D01*
X125804Y153299D01*
D02*
G37*
G36*
X88718Y150324D02*
X87882D01*
X87111Y150004D01*
X86520Y149413D01*
X86200Y148641D01*
Y147806D01*
X86520Y147034D01*
X87111Y146443D01*
X87882Y146124D01*
X88718D01*
X89490Y146443D01*
X90080Y147034D01*
X90400Y147806D01*
Y148641D01*
X90080Y149413D01*
X89490Y150004D01*
X88718Y150324D01*
D02*
G37*
G36*
X93418Y147200D02*
X92582D01*
X91811Y146880D01*
X91220Y146290D01*
X90900Y145518D01*
Y144682D01*
X91220Y143910D01*
X91811Y143320D01*
X92582Y143000D01*
X93418D01*
X94190Y143320D01*
X94780Y143910D01*
X95100Y144682D01*
Y145518D01*
X94780Y146290D01*
X94190Y146880D01*
X93418Y147200D01*
D02*
G37*
G36*
X174918Y146900D02*
X174082D01*
X173310Y146580D01*
X172720Y145990D01*
X172400Y145218D01*
Y144382D01*
X172720Y143610D01*
X173310Y143020D01*
X174082Y142700D01*
X174918D01*
X175690Y143020D01*
X176280Y143610D01*
X176600Y144382D01*
Y145218D01*
X176280Y145990D01*
X175690Y146580D01*
X174918Y146900D01*
D02*
G37*
G36*
X165702D02*
X164867D01*
X164095Y146580D01*
X163504Y145990D01*
X163185Y145218D01*
Y144382D01*
X163504Y143610D01*
X164095Y143020D01*
X164867Y142700D01*
X165702D01*
X166474Y143020D01*
X167065Y143610D01*
X167385Y144382D01*
Y145218D01*
X167065Y145990D01*
X166474Y146580D01*
X165702Y146900D01*
D02*
G37*
G36*
X150574Y146800D02*
X149738D01*
X148966Y146480D01*
X148375Y145890D01*
X148056Y145118D01*
Y144282D01*
X148375Y143510D01*
X148966Y142920D01*
X149738Y142600D01*
X150574D01*
X151345Y142920D01*
X151936Y143510D01*
X152256Y144282D01*
Y145118D01*
X151936Y145890D01*
X151345Y146480D01*
X150574Y146800D01*
D02*
G37*
G36*
X81618Y147900D02*
X80782D01*
X80010Y147580D01*
X79420Y146990D01*
X79100Y146218D01*
Y145382D01*
X79420Y144610D01*
X80010Y144020D01*
X80782Y143700D01*
X81618D01*
X82212Y143946D01*
X82656Y143701D01*
X82700Y143648D01*
Y143082D01*
X83020Y142310D01*
X83610Y141720D01*
X84382Y141400D01*
X85218D01*
X85989Y141720D01*
X86580Y142310D01*
X86900Y143082D01*
Y143918D01*
X86580Y144690D01*
X85989Y145280D01*
X85218Y145600D01*
X84382D01*
X83788Y145354D01*
X83344Y145599D01*
X83300Y145652D01*
Y146218D01*
X82980Y146990D01*
X82389Y147580D01*
X81618Y147900D01*
D02*
G37*
G36*
X121600Y138883D02*
Y138400D01*
X122083D01*
X122032Y138523D01*
X121723Y138832D01*
X121600Y138883D01*
D02*
G37*
G36*
X120600D02*
X120477Y138832D01*
X120168Y138523D01*
X120116Y138400D01*
X120600D01*
Y138883D01*
D02*
G37*
G36*
X85800Y138484D02*
Y138000D01*
X86283D01*
X86233Y138123D01*
X85923Y138433D01*
X85800Y138484D01*
D02*
G37*
G36*
X84800D02*
X84677Y138433D01*
X84368Y138123D01*
X84316Y138000D01*
X84800D01*
Y138484D01*
D02*
G37*
G36*
X137918Y141921D02*
X137082D01*
X136310Y141602D01*
X135720Y141011D01*
X135400Y140239D01*
Y139403D01*
X135720Y138632D01*
X136310Y138041D01*
X137082Y137721D01*
X137918D01*
X138690Y138041D01*
X139280Y138632D01*
X139600Y139403D01*
Y140239D01*
X139280Y141011D01*
X138690Y141602D01*
X137918Y141921D01*
D02*
G37*
G36*
X143691Y141516D02*
X142856D01*
X142084Y141196D01*
X141493Y140605D01*
X141173Y139833D01*
Y138998D01*
X141493Y138226D01*
X142084Y137635D01*
X142856Y137315D01*
X143691D01*
X144463Y137635D01*
X145054Y138226D01*
X145373Y138998D01*
Y139833D01*
X145054Y140605D01*
X144463Y141196D01*
X143691Y141516D01*
D02*
G37*
G36*
X122083Y137400D02*
X121600D01*
Y136916D01*
X121723Y136968D01*
X122032Y137277D01*
X122083Y137400D01*
D02*
G37*
G36*
X120600D02*
X120116D01*
X120168Y137277D01*
X120477Y136968D01*
X120600Y136916D01*
Y137400D01*
D02*
G37*
G36*
X86283Y137000D02*
X85800D01*
Y136516D01*
X85923Y136567D01*
X86233Y136877D01*
X86283Y137000D01*
D02*
G37*
G36*
X84800D02*
X84316D01*
X84368Y136877D01*
X84677Y136567D01*
X84800Y136516D01*
Y137000D01*
D02*
G37*
G36*
X203965Y138447D02*
X203130D01*
X202358Y138128D01*
X201767Y137537D01*
X201447Y136765D01*
Y135930D01*
X201767Y135158D01*
X202358Y134567D01*
X203130Y134247D01*
X203965D01*
X204737Y134567D01*
X205328Y135158D01*
X205647Y135930D01*
Y136765D01*
X205328Y137537D01*
X204737Y138128D01*
X203965Y138447D01*
D02*
G37*
G36*
X68218Y141900D02*
X67382D01*
X66610Y141580D01*
X66020Y140990D01*
X65700Y140218D01*
Y139382D01*
X65900Y138900D01*
X65689Y138415D01*
X65618Y138373D01*
X64911Y138080D01*
X64320Y137490D01*
X64000Y136718D01*
Y135882D01*
X64320Y135110D01*
X64911Y134520D01*
X65682Y134200D01*
X66518D01*
X67290Y134520D01*
X67880Y135110D01*
X68200Y135882D01*
Y136718D01*
X68000Y137200D01*
X68211Y137685D01*
X68282Y137727D01*
X68989Y138020D01*
X69580Y138610D01*
X69900Y139382D01*
Y140218D01*
X69580Y140990D01*
X68989Y141580D01*
X68218Y141900D01*
D02*
G37*
G36*
X69700Y133184D02*
Y132700D01*
X70183D01*
X70132Y132823D01*
X69823Y133133D01*
X69700Y133184D01*
D02*
G37*
G36*
X68700D02*
X68577Y133133D01*
X68268Y132823D01*
X68217Y132700D01*
X68700D01*
Y133184D01*
D02*
G37*
G36*
X200500Y132783D02*
Y132300D01*
X200984D01*
X200933Y132423D01*
X200623Y132732D01*
X200500Y132783D01*
D02*
G37*
G36*
X199500D02*
X199377Y132732D01*
X199067Y132423D01*
X199016Y132300D01*
X199500D01*
Y132783D01*
D02*
G37*
G36*
X70183Y131700D02*
X69700D01*
Y131217D01*
X69823Y131267D01*
X70132Y131577D01*
X70183Y131700D01*
D02*
G37*
G36*
X68700D02*
X68217D01*
X68268Y131577D01*
X68577Y131267D01*
X68700Y131217D01*
Y131700D01*
D02*
G37*
G36*
X200984Y131300D02*
X200500D01*
Y130816D01*
X200623Y130868D01*
X200933Y131177D01*
X200984Y131300D01*
D02*
G37*
G36*
X199500D02*
X199016D01*
X199067Y131177D01*
X199377Y130868D01*
X199500Y130816D01*
Y131300D01*
D02*
G37*
G36*
X138018Y132065D02*
X137182D01*
X136410Y131746D01*
X135820Y131155D01*
X135500Y130383D01*
Y130235D01*
X135000Y129965D01*
X134427Y130203D01*
X133591D01*
X132819Y129883D01*
X132229Y129292D01*
X131909Y128521D01*
Y127685D01*
X132229Y126913D01*
X132819Y126322D01*
X133591Y126003D01*
X134427D01*
X135198Y126322D01*
X135789Y126913D01*
X136109Y127685D01*
Y127833D01*
X136609Y128103D01*
X137182Y127865D01*
X138018D01*
X138790Y128185D01*
X139380Y128776D01*
X139700Y129548D01*
Y130383D01*
X139380Y131155D01*
X138790Y131746D01*
X138018Y132065D01*
D02*
G37*
G36*
X200500Y129384D02*
Y128900D01*
X200984D01*
X200933Y129023D01*
X200623Y129332D01*
X200500Y129384D01*
D02*
G37*
G36*
X199500D02*
X199377Y129332D01*
X199067Y129023D01*
X199016Y128900D01*
X199500D01*
Y129384D01*
D02*
G37*
G36*
X200984Y127900D02*
X200500D01*
Y127417D01*
X200623Y127468D01*
X200933Y127777D01*
X200984Y127900D01*
D02*
G37*
G36*
X199500D02*
X199016D01*
X199067Y127777D01*
X199377Y127468D01*
X199500Y127417D01*
Y127900D01*
D02*
G37*
G36*
X94418Y139575D02*
X93582D01*
X92810Y139256D01*
X92220Y138665D01*
X91900Y137893D01*
Y137058D01*
X92220Y136286D01*
X92591Y135914D01*
X92807Y135688D01*
X92591Y135261D01*
X92320Y134990D01*
X92000Y134218D01*
Y133382D01*
X92320Y132610D01*
X92910Y132020D01*
X93120Y131933D01*
Y131392D01*
X92611Y131180D01*
X92020Y130590D01*
X91700Y129818D01*
Y128982D01*
X92020Y128210D01*
X92611Y127620D01*
X93382Y127300D01*
X94218D01*
X94990Y127620D01*
X95580Y128210D01*
X95900Y128982D01*
Y129818D01*
X95580Y130590D01*
X94990Y131180D01*
X94780Y131267D01*
Y131808D01*
X95289Y132020D01*
X95880Y132610D01*
X96200Y133382D01*
Y134218D01*
X95880Y134990D01*
X95509Y135361D01*
X95293Y135587D01*
X95509Y136014D01*
X95780Y136286D01*
X96100Y137058D01*
Y137893D01*
X95780Y138665D01*
X95189Y139256D01*
X94418Y139575D01*
D02*
G37*
G36*
X85800Y127483D02*
Y127000D01*
X86283D01*
X86233Y127123D01*
X85923Y127433D01*
X85800Y127483D01*
D02*
G37*
G36*
X84800D02*
X84677Y127433D01*
X84368Y127123D01*
X84316Y127000D01*
X84800D01*
Y127483D01*
D02*
G37*
G36*
X86283Y126000D02*
X85800D01*
Y125516D01*
X85923Y125567D01*
X86233Y125877D01*
X86283Y126000D01*
D02*
G37*
G36*
X84800D02*
X84316D01*
X84368Y125877D01*
X84677Y125567D01*
X84800Y125516D01*
Y126000D01*
D02*
G37*
G36*
X116618Y129500D02*
X115782D01*
X115010Y129180D01*
X114420Y128590D01*
X114100Y127818D01*
Y126982D01*
X114420Y126210D01*
X115010Y125620D01*
X115782Y125300D01*
X116618D01*
X117390Y125620D01*
X117980Y126210D01*
X118300Y126982D01*
Y127818D01*
X117980Y128590D01*
X117390Y129180D01*
X116618Y129500D01*
D02*
G37*
G36*
X82790Y125293D02*
Y124809D01*
X83274D01*
X83223Y124933D01*
X82914Y125242D01*
X82790Y125293D01*
D02*
G37*
G36*
X81791D02*
X81667Y125242D01*
X81358Y124933D01*
X81307Y124809D01*
X81791D01*
Y125293D01*
D02*
G37*
G36*
X129118Y128924D02*
X128282D01*
X127510Y128605D01*
X126920Y128014D01*
X126600Y127242D01*
Y126407D01*
X126920Y125635D01*
X127510Y125044D01*
X128282Y124724D01*
X129118D01*
X129890Y125044D01*
X130480Y125635D01*
X130800Y126407D01*
Y127242D01*
X130480Y128014D01*
X129890Y128605D01*
X129118Y128924D01*
D02*
G37*
G36*
X55900Y124391D02*
Y123907D01*
X56384D01*
X56332Y124031D01*
X56023Y124340D01*
X55900Y124391D01*
D02*
G37*
G36*
X54900D02*
X54777Y124340D01*
X54467Y124031D01*
X54417Y123907D01*
X54900D01*
Y124391D01*
D02*
G37*
G36*
X83274Y123809D02*
X82790D01*
Y123326D01*
X82914Y123377D01*
X83223Y123686D01*
X83274Y123809D01*
D02*
G37*
G36*
X81791D02*
X81307D01*
X81358Y123686D01*
X81667Y123377D01*
X81791Y123326D01*
Y123809D01*
D02*
G37*
G36*
X56384Y122907D02*
X55900D01*
Y122424D01*
X56023Y122475D01*
X56332Y122784D01*
X56384Y122907D01*
D02*
G37*
G36*
X54900D02*
X54417D01*
X54467Y122784D01*
X54777Y122475D01*
X54900Y122424D01*
Y122907D01*
D02*
G37*
G36*
X32800Y122083D02*
Y121600D01*
X33283D01*
X33233Y121723D01*
X32923Y122032D01*
X32800Y122083D01*
D02*
G37*
G36*
X31800D02*
X31677Y122032D01*
X31367Y121723D01*
X31317Y121600D01*
X31800D01*
Y122083D01*
D02*
G37*
G36*
X136018Y125265D02*
X135182D01*
X134410Y124946D01*
X133820Y124355D01*
X133500Y123583D01*
Y122748D01*
X133820Y121976D01*
X134410Y121385D01*
X135182Y121065D01*
X136018D01*
X136790Y121385D01*
X137380Y121976D01*
X137700Y122748D01*
Y123583D01*
X137380Y124355D01*
X136790Y124946D01*
X136018Y125265D01*
D02*
G37*
G36*
X165200Y120984D02*
Y120500D01*
X165683D01*
X165632Y120623D01*
X165323Y120932D01*
X165200Y120984D01*
D02*
G37*
G36*
X164200D02*
X164077Y120932D01*
X163768Y120623D01*
X163716Y120500D01*
X164200D01*
Y120984D01*
D02*
G37*
G36*
X160200D02*
Y120500D01*
X160684D01*
X160633Y120623D01*
X160323Y120932D01*
X160200Y120984D01*
D02*
G37*
G36*
X159200D02*
X159077Y120932D01*
X158767Y120623D01*
X158716Y120500D01*
X159200D01*
Y120984D01*
D02*
G37*
G36*
X154700D02*
Y120500D01*
X155183D01*
X155132Y120623D01*
X154823Y120932D01*
X154700Y120984D01*
D02*
G37*
G36*
X153700D02*
X153577Y120932D01*
X153268Y120623D01*
X153217Y120500D01*
X153700D01*
Y120984D01*
D02*
G37*
G36*
X149200Y121092D02*
Y120500D01*
X149792D01*
X149717Y120680D01*
X149380Y121017D01*
X149200Y121092D01*
D02*
G37*
G36*
X148200D02*
X148020Y121017D01*
X147683Y120680D01*
X147608Y120500D01*
X148200D01*
Y121092D01*
D02*
G37*
G36*
X33283Y120600D02*
X32800D01*
Y120116D01*
X32923Y120168D01*
X33233Y120477D01*
X33283Y120600D01*
D02*
G37*
G36*
X31800D02*
X31317D01*
X31367Y120477D01*
X31677Y120168D01*
X31800Y120116D01*
Y120600D01*
D02*
G37*
G36*
X115126Y124000D02*
X114290D01*
X113518Y123680D01*
X112928Y123090D01*
X112608Y122318D01*
Y121482D01*
X112928Y120710D01*
X113518Y120120D01*
X114290Y119800D01*
X115126D01*
X115897Y120120D01*
X116488Y120710D01*
X116808Y121482D01*
Y122318D01*
X116488Y123090D01*
X115897Y123680D01*
X115126Y124000D01*
D02*
G37*
G36*
X101147Y126871D02*
X100312D01*
X99540Y126551D01*
X98949Y125960D01*
X98629Y125188D01*
Y124353D01*
X98949Y123581D01*
X99540Y122990D01*
X99840Y122866D01*
X99531Y122118D01*
Y121282D01*
X99850Y120510D01*
X100441Y119920D01*
X101213Y119600D01*
X102048D01*
X102820Y119920D01*
X103411Y120510D01*
X103731Y121282D01*
Y122118D01*
X103411Y122890D01*
X102820Y123480D01*
X102520Y123605D01*
X102830Y124353D01*
Y125188D01*
X102510Y125960D01*
X101919Y126551D01*
X101147Y126871D01*
D02*
G37*
G36*
X165683Y119500D02*
X165200D01*
Y119017D01*
X165323Y119068D01*
X165632Y119377D01*
X165683Y119500D01*
D02*
G37*
G36*
X164200D02*
X163716D01*
X163768Y119377D01*
X164077Y119068D01*
X164200Y119017D01*
Y119500D01*
D02*
G37*
G36*
X160684D02*
X160200D01*
Y119017D01*
X160323Y119068D01*
X160633Y119377D01*
X160684Y119500D01*
D02*
G37*
G36*
X159200D02*
X158716D01*
X158767Y119377D01*
X159077Y119068D01*
X159200Y119017D01*
Y119500D01*
D02*
G37*
G36*
X155183D02*
X154700D01*
Y119017D01*
X154823Y119068D01*
X155132Y119377D01*
X155183Y119500D01*
D02*
G37*
G36*
X153700D02*
X153217D01*
X153268Y119377D01*
X153577Y119068D01*
X153700Y119017D01*
Y119500D01*
D02*
G37*
G36*
X149792D02*
X149200D01*
Y118908D01*
X149380Y118983D01*
X149717Y119320D01*
X149792Y119500D01*
D02*
G37*
G36*
X148200D02*
X147608D01*
X147683Y119320D01*
X148020Y118983D01*
X148200Y118908D01*
Y119500D01*
D02*
G37*
G36*
X75000Y116943D02*
Y116459D01*
X75484D01*
X75432Y116583D01*
X75123Y116892D01*
X75000Y116943D01*
D02*
G37*
G36*
X74000D02*
X73877Y116892D01*
X73567Y116583D01*
X73516Y116459D01*
X74000D01*
Y116943D01*
D02*
G37*
G36*
X165200Y115483D02*
Y115000D01*
X165683D01*
X165632Y115123D01*
X165323Y115433D01*
X165200Y115483D01*
D02*
G37*
G36*
X164200D02*
X164077Y115433D01*
X163768Y115123D01*
X163716Y115000D01*
X164200D01*
Y115483D01*
D02*
G37*
G36*
X160200D02*
Y115000D01*
X160684D01*
X160633Y115123D01*
X160323Y115433D01*
X160200Y115483D01*
D02*
G37*
G36*
X159200D02*
X159077Y115433D01*
X158767Y115123D01*
X158716Y115000D01*
X159200D01*
Y115483D01*
D02*
G37*
G36*
X154700D02*
Y115000D01*
X155183D01*
X155132Y115123D01*
X154823Y115433D01*
X154700Y115483D01*
D02*
G37*
G36*
X153700D02*
X153577Y115433D01*
X153268Y115123D01*
X153217Y115000D01*
X153700D01*
Y115483D01*
D02*
G37*
G36*
X149200Y115592D02*
Y115000D01*
X149792D01*
X149717Y115180D01*
X149380Y115517D01*
X149200Y115592D01*
D02*
G37*
G36*
X148200D02*
X148020Y115517D01*
X147683Y115180D01*
X147608Y115000D01*
X148200D01*
Y115592D01*
D02*
G37*
G36*
X75484Y115459D02*
X75000D01*
Y114976D01*
X75123Y115027D01*
X75432Y115336D01*
X75484Y115459D01*
D02*
G37*
G36*
X74000D02*
X73516D01*
X73567Y115336D01*
X73877Y115027D01*
X74000Y114976D01*
Y115459D01*
D02*
G37*
G36*
X128898Y118524D02*
X128062D01*
X127290Y118205D01*
X126699Y117614D01*
X126380Y116842D01*
Y116007D01*
X126699Y115235D01*
X127290Y114644D01*
X128062Y114324D01*
X128898D01*
X129669Y114644D01*
X130260Y115235D01*
X130580Y116007D01*
Y116842D01*
X130260Y117614D01*
X129669Y118205D01*
X128898Y118524D01*
D02*
G37*
G36*
X177563Y118490D02*
X176727D01*
X175956Y118170D01*
X175365Y117579D01*
X175045Y116807D01*
Y115972D01*
X175365Y115200D01*
X175956Y114610D01*
X176727Y114290D01*
X177563D01*
X178335Y114610D01*
X178925Y115200D01*
X179245Y115972D01*
Y116807D01*
X178925Y117579D01*
X178335Y118170D01*
X177563Y118490D01*
D02*
G37*
G36*
X137244Y118465D02*
X136409D01*
X135637Y118146D01*
X135046Y117555D01*
X134727Y116783D01*
Y115948D01*
X135046Y115176D01*
X135637Y114585D01*
X136409Y114265D01*
X137244D01*
X138016Y114585D01*
X138607Y115176D01*
X138927Y115948D01*
Y116783D01*
X138607Y117555D01*
X138016Y118146D01*
X137244Y118465D01*
D02*
G37*
G36*
X165683Y114000D02*
X165200D01*
Y113516D01*
X165323Y113567D01*
X165632Y113877D01*
X165683Y114000D01*
D02*
G37*
G36*
X164200D02*
X163716D01*
X163768Y113877D01*
X164077Y113567D01*
X164200Y113516D01*
Y114000D01*
D02*
G37*
G36*
X160684D02*
X160200D01*
Y113516D01*
X160323Y113567D01*
X160633Y113877D01*
X160684Y114000D01*
D02*
G37*
G36*
X159200D02*
X158716D01*
X158767Y113877D01*
X159077Y113567D01*
X159200Y113516D01*
Y114000D01*
D02*
G37*
G36*
X155183D02*
X154700D01*
Y113516D01*
X154823Y113567D01*
X155132Y113877D01*
X155183Y114000D01*
D02*
G37*
G36*
X153700D02*
X153217D01*
X153268Y113877D01*
X153577Y113567D01*
X153700Y113516D01*
Y114000D01*
D02*
G37*
G36*
X149792D02*
X149200D01*
Y113408D01*
X149380Y113483D01*
X149717Y113820D01*
X149792Y114000D01*
D02*
G37*
G36*
X148200D02*
X147608D01*
X147683Y113820D01*
X148020Y113483D01*
X148200Y113408D01*
Y114000D01*
D02*
G37*
G36*
X180655Y114815D02*
X179820D01*
X179048Y114495D01*
X178457Y113905D01*
X178293Y113507D01*
X177676Y113244D01*
X177565Y113290D01*
X176729D01*
X175958Y112970D01*
X175367Y112379D01*
X175047Y111608D01*
Y110772D01*
X175367Y110000D01*
X175958Y109409D01*
X176729Y109090D01*
X177565D01*
X178337Y109409D01*
X178927Y110000D01*
X179092Y110398D01*
X179709Y110661D01*
X179820Y110615D01*
X180655D01*
X181427Y110935D01*
X182018Y111525D01*
X182337Y112297D01*
Y113133D01*
X182018Y113905D01*
X181427Y114495D01*
X180655Y114815D01*
D02*
G37*
G36*
X44100Y113683D02*
Y113200D01*
X44583D01*
X44532Y113323D01*
X44223Y113633D01*
X44100Y113683D01*
D02*
G37*
G36*
X43100D02*
X42977Y113633D01*
X42667Y113323D01*
X42617Y113200D01*
X43100D01*
Y113683D01*
D02*
G37*
G36*
X186600Y113332D02*
Y112849D01*
X187083D01*
X187032Y112972D01*
X186723Y113281D01*
X186600Y113332D01*
D02*
G37*
G36*
X185600D02*
X185477Y113281D01*
X185168Y112972D01*
X185117Y112849D01*
X185600D01*
Y113332D01*
D02*
G37*
G36*
X194300Y113284D02*
Y112800D01*
X194783D01*
X194732Y112923D01*
X194423Y113233D01*
X194300Y113284D01*
D02*
G37*
G36*
X193300D02*
X193177Y113233D01*
X192868Y112923D01*
X192816Y112800D01*
X193300D01*
Y113284D01*
D02*
G37*
G36*
X21243Y113075D02*
Y112591D01*
X21726D01*
X21675Y112714D01*
X21366Y113024D01*
X21243Y113075D01*
D02*
G37*
G36*
X20243D02*
X20120Y113024D01*
X19810Y112714D01*
X19759Y112591D01*
X20243D01*
Y113075D01*
D02*
G37*
G36*
X44583Y112200D02*
X44100D01*
Y111716D01*
X44223Y111767D01*
X44532Y112077D01*
X44583Y112200D01*
D02*
G37*
G36*
X43100D02*
X42617D01*
X42667Y112077D01*
X42977Y111767D01*
X43100Y111716D01*
Y112200D01*
D02*
G37*
G36*
X3951Y112667D02*
X3000D01*
Y111536D01*
X5483D01*
X5458Y111660D01*
X5105Y112189D01*
X4575Y112543D01*
X3951Y112667D01*
D02*
G37*
G36*
X187083Y111849D02*
X186600D01*
Y111365D01*
X186723Y111416D01*
X187032Y111726D01*
X187083Y111849D01*
D02*
G37*
G36*
X185600D02*
X185117D01*
X185168Y111726D01*
X185477Y111416D01*
X185600Y111365D01*
Y111849D01*
D02*
G37*
G36*
X194783Y111800D02*
X194300D01*
Y111317D01*
X194423Y111367D01*
X194732Y111677D01*
X194783Y111800D01*
D02*
G37*
G36*
X193300D02*
X192816D01*
X192868Y111677D01*
X193177Y111367D01*
X193300Y111317D01*
Y111800D01*
D02*
G37*
G36*
X21726Y111591D02*
X21243D01*
Y111108D01*
X21366Y111159D01*
X21675Y111468D01*
X21726Y111591D01*
D02*
G37*
G36*
X20243D02*
X19759D01*
X19810Y111468D01*
X20120Y111159D01*
X20243Y111108D01*
Y111591D01*
D02*
G37*
G36*
X165200Y109984D02*
Y109500D01*
X165683D01*
X165632Y109623D01*
X165323Y109932D01*
X165200Y109984D01*
D02*
G37*
G36*
X164200D02*
X164077Y109932D01*
X163768Y109623D01*
X163716Y109500D01*
X164200D01*
Y109984D01*
D02*
G37*
G36*
X160200D02*
Y109500D01*
X160684D01*
X160633Y109623D01*
X160323Y109932D01*
X160200Y109984D01*
D02*
G37*
G36*
X159200D02*
X159077Y109932D01*
X158767Y109623D01*
X158716Y109500D01*
X159200D01*
Y109984D01*
D02*
G37*
G36*
X154700D02*
Y109500D01*
X155183D01*
X155132Y109623D01*
X154823Y109932D01*
X154700Y109984D01*
D02*
G37*
G36*
X153700D02*
X153577Y109932D01*
X153268Y109623D01*
X153217Y109500D01*
X153700D01*
Y109984D01*
D02*
G37*
G36*
X149200D02*
Y109500D01*
X149683D01*
X149633Y109623D01*
X149323Y109932D01*
X149200Y109984D01*
D02*
G37*
G36*
X148200D02*
X148077Y109932D01*
X147767Y109623D01*
X147716Y109500D01*
X148200D01*
Y109984D01*
D02*
G37*
G36*
X5483Y110536D02*
X3000D01*
Y109404D01*
X3951D01*
X4575Y109528D01*
X5105Y109882D01*
X5458Y110411D01*
X5483Y110536D01*
D02*
G37*
G36*
X86500Y109684D02*
Y109200D01*
X86984D01*
X86932Y109323D01*
X86623Y109633D01*
X86500Y109684D01*
D02*
G37*
G36*
X85500D02*
X85377Y109633D01*
X85067Y109323D01*
X85017Y109200D01*
X85500D01*
Y109684D01*
D02*
G37*
G36*
X165683Y108500D02*
X165200D01*
Y108017D01*
X165323Y108068D01*
X165632Y108377D01*
X165683Y108500D01*
D02*
G37*
G36*
X164200D02*
X163716D01*
X163768Y108377D01*
X164077Y108068D01*
X164200Y108017D01*
Y108500D01*
D02*
G37*
G36*
X160684D02*
X160200D01*
Y108017D01*
X160323Y108068D01*
X160633Y108377D01*
X160684Y108500D01*
D02*
G37*
G36*
X159200D02*
X158716D01*
X158767Y108377D01*
X159077Y108068D01*
X159200Y108017D01*
Y108500D01*
D02*
G37*
G36*
X155183D02*
X154700D01*
Y108017D01*
X154823Y108068D01*
X155132Y108377D01*
X155183Y108500D01*
D02*
G37*
G36*
X153700D02*
X153217D01*
X153268Y108377D01*
X153577Y108068D01*
X153700Y108017D01*
Y108500D01*
D02*
G37*
G36*
X149683D02*
X149200D01*
Y108017D01*
X149323Y108068D01*
X149633Y108377D01*
X149683Y108500D01*
D02*
G37*
G36*
X148200D02*
X147716D01*
X147767Y108377D01*
X148077Y108068D01*
X148200Y108017D01*
Y108500D01*
D02*
G37*
G36*
X102272Y108455D02*
Y107972D01*
X102755D01*
X102704Y108095D01*
X102395Y108404D01*
X102272Y108455D01*
D02*
G37*
G36*
X101272D02*
X101149Y108404D01*
X100839Y108095D01*
X100788Y107972D01*
X101272D01*
Y108455D01*
D02*
G37*
G36*
X86984Y108200D02*
X86500D01*
Y107717D01*
X86623Y107767D01*
X86932Y108077D01*
X86984Y108200D01*
D02*
G37*
G36*
X85500D02*
X85017D01*
X85067Y108077D01*
X85377Y107767D01*
X85500Y107717D01*
Y108200D01*
D02*
G37*
G36*
X13630Y109590D02*
Y107598D01*
X14761D01*
Y108058D01*
X14637Y108682D01*
X14284Y109211D01*
X13754Y109565D01*
X13630Y109590D01*
D02*
G37*
G36*
X12630D02*
X12506Y109565D01*
X11976Y109211D01*
X11623Y108682D01*
X11499Y108058D01*
Y107598D01*
X12630D01*
Y109590D01*
D02*
G37*
G36*
X135048Y113341D02*
X134213D01*
X133441Y113021D01*
X132850Y112431D01*
X132531Y111659D01*
Y110823D01*
X132850Y110051D01*
X133441Y109461D01*
X134213Y109141D01*
X135048D01*
X135626Y109380D01*
X136086Y109096D01*
X136100Y109076D01*
Y108482D01*
X136420Y107710D01*
X137010Y107120D01*
X137782Y106800D01*
X138618D01*
X139390Y107120D01*
X139980Y107710D01*
X140300Y108482D01*
Y109318D01*
X139980Y110090D01*
X139390Y110680D01*
X138618Y111000D01*
X137782D01*
X137205Y110761D01*
X136745Y111045D01*
X136731Y111064D01*
Y111659D01*
X136411Y112431D01*
X135820Y113021D01*
X135048Y113341D01*
D02*
G37*
G36*
X102755Y106972D02*
X102272D01*
Y106488D01*
X102395Y106539D01*
X102704Y106849D01*
X102755Y106972D01*
D02*
G37*
G36*
X101272D02*
X100788D01*
X100839Y106849D01*
X101149Y106539D01*
X101272Y106488D01*
Y106972D01*
D02*
G37*
G36*
X14761Y106598D02*
X13630D01*
Y104608D01*
X13754Y104632D01*
X14284Y104986D01*
X14637Y105515D01*
X14761Y106140D01*
Y106598D01*
D02*
G37*
G36*
X12630D02*
X11499D01*
Y106140D01*
X11623Y105515D01*
X11976Y104986D01*
X12506Y104632D01*
X12630Y104608D01*
Y106598D01*
D02*
G37*
G36*
X165200Y104983D02*
Y104500D01*
X165683D01*
X165632Y104623D01*
X165323Y104932D01*
X165200Y104983D01*
D02*
G37*
G36*
X164200D02*
X164077Y104932D01*
X163768Y104623D01*
X163716Y104500D01*
X164200D01*
Y104983D01*
D02*
G37*
G36*
X160200D02*
Y104500D01*
X160684D01*
X160633Y104623D01*
X160323Y104932D01*
X160200Y104983D01*
D02*
G37*
G36*
X159200D02*
X159077Y104932D01*
X158767Y104623D01*
X158716Y104500D01*
X159200D01*
Y104983D01*
D02*
G37*
G36*
X154700D02*
Y104500D01*
X155183D01*
X155132Y104623D01*
X154823Y104932D01*
X154700Y104983D01*
D02*
G37*
G36*
X153700D02*
X153577Y104932D01*
X153268Y104623D01*
X153217Y104500D01*
X153700D01*
Y104983D01*
D02*
G37*
G36*
X149200D02*
Y104500D01*
X149683D01*
X149633Y104623D01*
X149323Y104932D01*
X149200Y104983D01*
D02*
G37*
G36*
X148200D02*
X148077Y104932D01*
X147767Y104623D01*
X147716Y104500D01*
X148200D01*
Y104983D01*
D02*
G37*
G36*
X186418Y105900D02*
X185582D01*
X184810Y105580D01*
X184220Y104990D01*
X184064Y104613D01*
X183700Y104289D01*
X183465Y104374D01*
X182918Y104600D01*
X182082D01*
X181310Y104280D01*
X180720Y103690D01*
X180400Y102918D01*
Y102082D01*
X180720Y101311D01*
X181310Y100720D01*
X182082Y100400D01*
X182918D01*
X183690Y100720D01*
X184280Y101311D01*
X184436Y101687D01*
X184800Y102011D01*
X185036Y101927D01*
X185582Y101700D01*
X186418D01*
X187190Y102020D01*
X187780Y102610D01*
X188100Y103382D01*
Y104218D01*
X187780Y104990D01*
X187190Y105580D01*
X186418Y105900D01*
D02*
G37*
G36*
X165683Y103500D02*
X165200D01*
Y103016D01*
X165323Y103068D01*
X165632Y103377D01*
X165683Y103500D01*
D02*
G37*
G36*
X164200D02*
X163716D01*
X163768Y103377D01*
X164077Y103068D01*
X164200Y103016D01*
Y103500D01*
D02*
G37*
G36*
X160684D02*
X160200D01*
Y103016D01*
X160323Y103068D01*
X160633Y103377D01*
X160684Y103500D01*
D02*
G37*
G36*
X159200D02*
X158716D01*
X158767Y103377D01*
X159077Y103068D01*
X159200Y103016D01*
Y103500D01*
D02*
G37*
G36*
X155183D02*
X154700D01*
Y103016D01*
X154823Y103068D01*
X155132Y103377D01*
X155183Y103500D01*
D02*
G37*
G36*
X153700D02*
X153217D01*
X153268Y103377D01*
X153577Y103068D01*
X153700Y103016D01*
Y103500D01*
D02*
G37*
G36*
X149683D02*
X149200D01*
Y103016D01*
X149323Y103068D01*
X149633Y103377D01*
X149683Y103500D01*
D02*
G37*
G36*
X148200D02*
X147716D01*
X147767Y103377D01*
X148077Y103068D01*
X148200Y103016D01*
Y103500D01*
D02*
G37*
G36*
X109949Y102132D02*
Y101649D01*
X110432D01*
X110381Y101772D01*
X110072Y102081D01*
X109949Y102132D01*
D02*
G37*
G36*
X108949D02*
X108826Y102081D01*
X108516Y101772D01*
X108465Y101649D01*
X108949D01*
Y102132D01*
D02*
G37*
G36*
X51900Y101084D02*
Y100600D01*
X52384D01*
X52333Y100723D01*
X52023Y101032D01*
X51900Y101084D01*
D02*
G37*
G36*
X50900D02*
X50777Y101032D01*
X50467Y100723D01*
X50416Y100600D01*
X50900D01*
Y101084D01*
D02*
G37*
G36*
X110432Y100649D02*
X109949D01*
Y100165D01*
X110072Y100216D01*
X110381Y100526D01*
X110432Y100649D01*
D02*
G37*
G36*
X108949D02*
X108465D01*
X108516Y100526D01*
X108826Y100216D01*
X108949Y100165D01*
Y100649D01*
D02*
G37*
G36*
X52384Y99600D02*
X51900D01*
Y99116D01*
X52023Y99168D01*
X52333Y99477D01*
X52384Y99600D01*
D02*
G37*
G36*
X50900D02*
X50416D01*
X50467Y99477D01*
X50777Y99168D01*
X50900Y99116D01*
Y99600D01*
D02*
G37*
G36*
X199245Y103300D02*
X198410D01*
X197638Y102980D01*
X197047Y102390D01*
X196727Y101618D01*
Y100782D01*
X197047Y100011D01*
X197638Y99420D01*
X198410Y99100D01*
X199245D01*
X200017Y99420D01*
X200608Y100011D01*
X200927Y100782D01*
Y101618D01*
X200608Y102390D01*
X200017Y102980D01*
X199245Y103300D01*
D02*
G37*
G36*
X35937Y99230D02*
Y98747D01*
X36421D01*
X36369Y98870D01*
X36060Y99179D01*
X35937Y99230D01*
D02*
G37*
G36*
X34937D02*
X34814Y99179D01*
X34505Y98870D01*
X34453Y98747D01*
X34937D01*
Y99230D01*
D02*
G37*
G36*
X36421Y97746D02*
X35937D01*
Y97263D01*
X36060Y97314D01*
X36369Y97623D01*
X36421Y97746D01*
D02*
G37*
G36*
X34937D02*
X34453D01*
X34505Y97623D01*
X34814Y97314D01*
X34937Y97263D01*
Y97746D01*
D02*
G37*
G36*
X129500Y95083D02*
Y94600D01*
X129983D01*
X129932Y94723D01*
X129623Y95033D01*
X129500Y95083D01*
D02*
G37*
G36*
X128500D02*
X128377Y95033D01*
X128068Y94723D01*
X128016Y94600D01*
X128500D01*
Y95083D01*
D02*
G37*
G36*
X150600Y94984D02*
Y94500D01*
X151084D01*
X151032Y94623D01*
X150723Y94933D01*
X150600Y94984D01*
D02*
G37*
G36*
X149600D02*
X149477Y94933D01*
X149168Y94623D01*
X149117Y94500D01*
X149600D01*
Y94984D01*
D02*
G37*
G36*
X129983Y93600D02*
X129500D01*
Y93116D01*
X129623Y93168D01*
X129932Y93477D01*
X129983Y93600D01*
D02*
G37*
G36*
X128500D02*
X128016D01*
X128068Y93477D01*
X128377Y93168D01*
X128500Y93116D01*
Y93600D01*
D02*
G37*
G36*
X151084Y93500D02*
X150600D01*
Y93016D01*
X150723Y93068D01*
X151032Y93377D01*
X151084Y93500D01*
D02*
G37*
G36*
X149600D02*
X149117D01*
X149168Y93377D01*
X149477Y93068D01*
X149600Y93016D01*
Y93500D01*
D02*
G37*
G36*
X145800Y93484D02*
Y93000D01*
X146283D01*
X146232Y93123D01*
X145923Y93432D01*
X145800Y93484D01*
D02*
G37*
G36*
X144800D02*
X144677Y93432D01*
X144368Y93123D01*
X144316Y93000D01*
X144800D01*
Y93484D01*
D02*
G37*
G36*
X85100Y93183D02*
Y92700D01*
X85584D01*
X85532Y92823D01*
X85223Y93133D01*
X85100Y93183D01*
D02*
G37*
G36*
X84100D02*
X83977Y93133D01*
X83667Y92823D01*
X83617Y92700D01*
X84100D01*
Y93183D01*
D02*
G37*
G36*
X146283Y92000D02*
X145800D01*
Y91517D01*
X145923Y91567D01*
X146232Y91877D01*
X146283Y92000D01*
D02*
G37*
G36*
X144800D02*
X144316D01*
X144368Y91877D01*
X144677Y91567D01*
X144800Y91517D01*
Y92000D01*
D02*
G37*
G36*
X51000Y91983D02*
Y91500D01*
X51484D01*
X51433Y91623D01*
X51123Y91932D01*
X51000Y91983D01*
D02*
G37*
G36*
X50000D02*
X49877Y91932D01*
X49567Y91623D01*
X49516Y91500D01*
X50000D01*
Y91983D01*
D02*
G37*
G36*
X85584Y91700D02*
X85100D01*
Y91216D01*
X85223Y91268D01*
X85532Y91577D01*
X85584Y91700D01*
D02*
G37*
G36*
X84100D02*
X83617D01*
X83667Y91577D01*
X83977Y91268D01*
X84100Y91216D01*
Y91700D01*
D02*
G37*
G36*
X51484Y90500D02*
X51000D01*
Y90017D01*
X51123Y90067D01*
X51433Y90377D01*
X51484Y90500D01*
D02*
G37*
G36*
X50000D02*
X49516D01*
X49567Y90377D01*
X49877Y90067D01*
X50000Y90017D01*
Y90500D01*
D02*
G37*
G36*
X150600Y89983D02*
Y89500D01*
X151084D01*
X151032Y89623D01*
X150723Y89933D01*
X150600Y89983D01*
D02*
G37*
G36*
X149600D02*
X149477Y89933D01*
X149168Y89623D01*
X149117Y89500D01*
X149600D01*
Y89983D01*
D02*
G37*
G36*
X151084Y88500D02*
X150600D01*
Y88016D01*
X150723Y88068D01*
X151032Y88377D01*
X151084Y88500D01*
D02*
G37*
G36*
X149600D02*
X149117D01*
X149168Y88377D01*
X149477Y88068D01*
X149600Y88016D01*
Y88500D01*
D02*
G37*
G36*
X13630Y89904D02*
Y87914D01*
X14761D01*
Y88372D01*
X14637Y88997D01*
X14284Y89526D01*
X13754Y89880D01*
X13630Y89904D01*
D02*
G37*
G36*
X12630D02*
X12506Y89880D01*
X11976Y89526D01*
X11623Y88997D01*
X11499Y88372D01*
Y87914D01*
X12630D01*
Y89904D01*
D02*
G37*
G36*
X145800Y88083D02*
Y87600D01*
X146283D01*
X146232Y87723D01*
X145923Y88033D01*
X145800Y88083D01*
D02*
G37*
G36*
X144800D02*
X144677Y88033D01*
X144368Y87723D01*
X144316Y87600D01*
X144800D01*
Y88083D01*
D02*
G37*
G36*
X76618Y91600D02*
X75782D01*
X75011Y91280D01*
X74420Y90689D01*
X74100Y89918D01*
Y89082D01*
X74420Y88310D01*
X75011Y87720D01*
X75782Y87400D01*
X76618D01*
X77390Y87720D01*
X77980Y88310D01*
X78300Y89082D01*
Y89918D01*
X77980Y90689D01*
X77390Y91280D01*
X76618Y91600D01*
D02*
G37*
G36*
X34800Y87179D02*
Y86696D01*
X35283D01*
X35232Y86819D01*
X34923Y87128D01*
X34800Y87179D01*
D02*
G37*
G36*
X33800D02*
X33677Y87128D01*
X33367Y86819D01*
X33316Y86696D01*
X33800D01*
Y87179D01*
D02*
G37*
G36*
X146283Y86600D02*
X145800D01*
Y86116D01*
X145923Y86168D01*
X146232Y86477D01*
X146283Y86600D01*
D02*
G37*
G36*
X144800D02*
X144316D01*
X144368Y86477D01*
X144677Y86168D01*
X144800Y86116D01*
Y86600D01*
D02*
G37*
G36*
X166684Y91721D02*
X165848D01*
X165077Y91401D01*
X164486Y90811D01*
X164166Y90039D01*
Y89204D01*
X164486Y88432D01*
X165077Y87841D01*
X165848Y87521D01*
X166684D01*
X166961Y87636D01*
X167461Y87527D01*
X167526Y87370D01*
X167781Y86755D01*
X168372Y86164D01*
X169143Y85845D01*
X169979D01*
X170751Y86164D01*
X171342Y86755D01*
X171661Y87527D01*
Y88362D01*
X171342Y89134D01*
X170751Y89725D01*
X169979Y90045D01*
X169143D01*
X168866Y89930D01*
X168366Y90039D01*
X168301Y90196D01*
X168046Y90811D01*
X167456Y91401D01*
X166684Y91721D01*
D02*
G37*
G36*
X181618Y89500D02*
X180782D01*
X180010Y89180D01*
X179420Y88590D01*
X179100Y87818D01*
Y86982D01*
X179420Y86211D01*
X180010Y85620D01*
X180782Y85300D01*
X181618D01*
X182390Y85620D01*
X182980Y86211D01*
X183300Y86982D01*
Y87818D01*
X182980Y88590D01*
X182390Y89180D01*
X181618Y89500D01*
D02*
G37*
G36*
X35283Y85696D02*
X34800D01*
Y85212D01*
X34923Y85263D01*
X35232Y85573D01*
X35283Y85696D01*
D02*
G37*
G36*
X33800D02*
X33316D01*
X33367Y85573D01*
X33677Y85263D01*
X33800Y85212D01*
Y85696D01*
D02*
G37*
G36*
X157800Y85584D02*
Y85100D01*
X158283D01*
X158232Y85223D01*
X157923Y85532D01*
X157800Y85584D01*
D02*
G37*
G36*
X156800D02*
X156677Y85532D01*
X156368Y85223D01*
X156316Y85100D01*
X156800D01*
Y85584D01*
D02*
G37*
G36*
X150700Y85483D02*
Y85000D01*
X151183D01*
X151133Y85123D01*
X150823Y85432D01*
X150700Y85483D01*
D02*
G37*
G36*
X149700D02*
X149577Y85432D01*
X149267Y85123D01*
X149216Y85000D01*
X149700D01*
Y85483D01*
D02*
G37*
G36*
X14761Y86914D02*
X13630D01*
Y84922D01*
X13754Y84947D01*
X14284Y85301D01*
X14637Y85830D01*
X14761Y86454D01*
Y86914D01*
D02*
G37*
G36*
X12630D02*
X11499D01*
Y86454D01*
X11623Y85830D01*
X11976Y85301D01*
X12506Y84947D01*
X12630Y84922D01*
Y86914D01*
D02*
G37*
G36*
X3951Y85108D02*
X3000D01*
Y83977D01*
X5483D01*
X5458Y84101D01*
X5105Y84630D01*
X4575Y84984D01*
X3951Y85108D01*
D02*
G37*
G36*
X158283Y84100D02*
X157800D01*
Y83617D01*
X157923Y83667D01*
X158232Y83977D01*
X158283Y84100D01*
D02*
G37*
G36*
X156800D02*
X156316D01*
X156368Y83977D01*
X156677Y83667D01*
X156800Y83617D01*
Y84100D01*
D02*
G37*
G36*
X151183Y84000D02*
X150700D01*
Y83517D01*
X150823Y83568D01*
X151133Y83877D01*
X151183Y84000D01*
D02*
G37*
G36*
X149700D02*
X149216D01*
X149267Y83877D01*
X149577Y83568D01*
X149700Y83517D01*
Y84000D01*
D02*
G37*
G36*
X183700Y83684D02*
Y83200D01*
X184184D01*
X184133Y83323D01*
X183823Y83632D01*
X183700Y83684D01*
D02*
G37*
G36*
X182700D02*
X182577Y83632D01*
X182267Y83323D01*
X182217Y83200D01*
X182700D01*
Y83684D01*
D02*
G37*
G36*
X162600Y83183D02*
Y82700D01*
X163084D01*
X163032Y82823D01*
X162723Y83132D01*
X162600Y83183D01*
D02*
G37*
G36*
X161600D02*
X161477Y83132D01*
X161168Y82823D01*
X161117Y82700D01*
X161600D01*
Y83183D01*
D02*
G37*
G36*
X145800Y82884D02*
Y82400D01*
X146283D01*
X146232Y82523D01*
X145923Y82832D01*
X145800Y82884D01*
D02*
G37*
G36*
X144800D02*
X144677Y82832D01*
X144368Y82523D01*
X144316Y82400D01*
X144800D01*
Y82884D01*
D02*
G37*
G36*
X9000Y82484D02*
Y82000D01*
X9483D01*
X9432Y82123D01*
X9123Y82433D01*
X9000Y82484D01*
D02*
G37*
G36*
X8000D02*
X7877Y82433D01*
X7568Y82123D01*
X7517Y82000D01*
X8000D01*
Y82484D01*
D02*
G37*
G36*
X5483Y82977D02*
X3000D01*
Y81845D01*
X3951D01*
X4575Y81969D01*
X5105Y82323D01*
X5458Y82852D01*
X5483Y82977D01*
D02*
G37*
G36*
X184184Y82200D02*
X183700D01*
Y81717D01*
X183823Y81767D01*
X184133Y82077D01*
X184184Y82200D01*
D02*
G37*
G36*
X182700D02*
X182217D01*
X182267Y82077D01*
X182577Y81767D01*
X182700Y81717D01*
Y82200D01*
D02*
G37*
G36*
X163084Y81700D02*
X162600D01*
Y81217D01*
X162723Y81267D01*
X163032Y81577D01*
X163084Y81700D01*
D02*
G37*
G36*
X161600D02*
X161117D01*
X161168Y81577D01*
X161477Y81267D01*
X161600Y81217D01*
Y81700D01*
D02*
G37*
G36*
X146283Y81400D02*
X145800D01*
Y80917D01*
X145923Y80967D01*
X146232Y81277D01*
X146283Y81400D01*
D02*
G37*
G36*
X144800D02*
X144316D01*
X144368Y81277D01*
X144677Y80967D01*
X144800Y80917D01*
Y81400D01*
D02*
G37*
G36*
X9483Y81000D02*
X9000D01*
Y80516D01*
X9123Y80568D01*
X9432Y80877D01*
X9483Y81000D01*
D02*
G37*
G36*
X8000D02*
X7517D01*
X7568Y80877D01*
X7877Y80568D01*
X8000Y80516D01*
Y81000D01*
D02*
G37*
G36*
X157700Y80484D02*
Y80000D01*
X158184D01*
X158133Y80123D01*
X157823Y80432D01*
X157700Y80484D01*
D02*
G37*
G36*
X156700D02*
X156577Y80432D01*
X156267Y80123D01*
X156217Y80000D01*
X156700D01*
Y80484D01*
D02*
G37*
G36*
X150700D02*
Y80000D01*
X151183D01*
X151133Y80123D01*
X150823Y80432D01*
X150700Y80484D01*
D02*
G37*
G36*
X149700D02*
X149577Y80432D01*
X149267Y80123D01*
X149216Y80000D01*
X149700D01*
Y80484D01*
D02*
G37*
G36*
X111900D02*
Y80000D01*
X112383D01*
X112332Y80123D01*
X112023Y80432D01*
X111900Y80484D01*
D02*
G37*
G36*
X110900D02*
X110777Y80432D01*
X110468Y80123D01*
X110416Y80000D01*
X110900D01*
Y80484D01*
D02*
G37*
G36*
X129100Y79283D02*
Y78800D01*
X129584D01*
X129533Y78923D01*
X129223Y79233D01*
X129100Y79283D01*
D02*
G37*
G36*
X128100D02*
X127977Y79233D01*
X127667Y78923D01*
X127617Y78800D01*
X128100D01*
Y79283D01*
D02*
G37*
G36*
X158184Y79000D02*
X157700D01*
Y78517D01*
X157823Y78567D01*
X158133Y78877D01*
X158184Y79000D01*
D02*
G37*
G36*
X156700D02*
X156217D01*
X156267Y78877D01*
X156577Y78567D01*
X156700Y78517D01*
Y79000D01*
D02*
G37*
G36*
X151183D02*
X150700D01*
Y78517D01*
X150823Y78567D01*
X151133Y78877D01*
X151183Y79000D01*
D02*
G37*
G36*
X149700D02*
X149216D01*
X149267Y78877D01*
X149577Y78567D01*
X149700Y78517D01*
Y79000D01*
D02*
G37*
G36*
X112383D02*
X111900D01*
Y78517D01*
X112023Y78567D01*
X112332Y78877D01*
X112383Y79000D01*
D02*
G37*
G36*
X110900D02*
X110416D01*
X110468Y78877D01*
X110777Y78567D01*
X110900Y78517D01*
Y79000D01*
D02*
G37*
G36*
X34800Y78281D02*
Y77797D01*
X35283D01*
X35232Y77920D01*
X34923Y78229D01*
X34800Y78281D01*
D02*
G37*
G36*
X33800D02*
X33677Y78229D01*
X33367Y77920D01*
X33316Y77797D01*
X33800D01*
Y78281D01*
D02*
G37*
G36*
X162600Y78083D02*
Y77600D01*
X163084D01*
X163032Y77723D01*
X162723Y78032D01*
X162600Y78083D01*
D02*
G37*
G36*
X161600D02*
X161477Y78032D01*
X161168Y77723D01*
X161117Y77600D01*
X161600D01*
Y78083D01*
D02*
G37*
G36*
X145800Y77784D02*
Y77300D01*
X146283D01*
X146232Y77423D01*
X145923Y77732D01*
X145800Y77784D01*
D02*
G37*
G36*
X144800D02*
X144677Y77732D01*
X144368Y77423D01*
X144316Y77300D01*
X144800D01*
Y77784D01*
D02*
G37*
G36*
X68024Y85471D02*
X64776D01*
X64091Y85381D01*
X63453Y85116D01*
X62905Y84696D01*
X62484Y84147D01*
X62220Y83509D01*
X62129Y82824D01*
Y79576D01*
X62220Y78891D01*
X62484Y78253D01*
X62905Y77705D01*
X63453Y77284D01*
X64091Y77020D01*
X64776Y76929D01*
X68024D01*
X68709Y77020D01*
X69347Y77284D01*
X69895Y77705D01*
X70316Y78253D01*
X70581Y78891D01*
X70671Y79576D01*
Y82824D01*
X70581Y83509D01*
X70316Y84147D01*
X69895Y84696D01*
X69347Y85116D01*
X68709Y85381D01*
X68024Y85471D01*
D02*
G37*
G36*
X35283Y76797D02*
X34800D01*
Y76314D01*
X34923Y76364D01*
X35232Y76674D01*
X35283Y76797D01*
D02*
G37*
G36*
X33800D02*
X33316D01*
X33367Y76674D01*
X33677Y76364D01*
X33800Y76314D01*
Y76797D01*
D02*
G37*
G36*
X163084Y76600D02*
X162600D01*
Y76117D01*
X162723Y76168D01*
X163032Y76477D01*
X163084Y76600D01*
D02*
G37*
G36*
X161600D02*
X161117D01*
X161168Y76477D01*
X161477Y76168D01*
X161600Y76117D01*
Y76600D01*
D02*
G37*
G36*
X146283Y76300D02*
X145800D01*
Y75817D01*
X145923Y75867D01*
X146232Y76177D01*
X146283Y76300D01*
D02*
G37*
G36*
X144800D02*
X144316D01*
X144368Y76177D01*
X144677Y75867D01*
X144800Y75817D01*
Y76300D01*
D02*
G37*
G36*
X157700Y75583D02*
Y75100D01*
X158184D01*
X158133Y75223D01*
X157823Y75533D01*
X157700Y75583D01*
D02*
G37*
G36*
X156700D02*
X156577Y75533D01*
X156267Y75223D01*
X156217Y75100D01*
X156700D01*
Y75583D01*
D02*
G37*
G36*
X150700Y75484D02*
Y75000D01*
X151183D01*
X151133Y75123D01*
X150823Y75432D01*
X150700Y75484D01*
D02*
G37*
G36*
X149700D02*
X149577Y75432D01*
X149267Y75123D01*
X149216Y75000D01*
X149700D01*
Y75484D01*
D02*
G37*
G36*
X183700Y74984D02*
Y74500D01*
X184184D01*
X184133Y74623D01*
X183823Y74932D01*
X183700Y74984D01*
D02*
G37*
G36*
X182700D02*
X182577Y74932D01*
X182267Y74623D01*
X182217Y74500D01*
X182700D01*
Y74984D01*
D02*
G37*
G36*
X158184Y74100D02*
X157700D01*
Y73616D01*
X157823Y73668D01*
X158133Y73977D01*
X158184Y74100D01*
D02*
G37*
G36*
X156700D02*
X156217D01*
X156267Y73977D01*
X156577Y73668D01*
X156700Y73616D01*
Y74100D01*
D02*
G37*
G36*
X151183Y74000D02*
X150700D01*
Y73516D01*
X150823Y73567D01*
X151133Y73877D01*
X151183Y74000D01*
D02*
G37*
G36*
X149700D02*
X149216D01*
X149267Y73877D01*
X149577Y73567D01*
X149700Y73516D01*
Y74000D01*
D02*
G37*
G36*
X129584Y77800D02*
X127617D01*
X127667Y77677D01*
X127977Y77368D01*
X128058Y77334D01*
X128174Y76744D01*
X127820Y76389D01*
X127500Y75618D01*
Y74782D01*
X127820Y74010D01*
X128410Y73420D01*
X129182Y73100D01*
X130018D01*
X130790Y73420D01*
X131380Y74010D01*
X131700Y74782D01*
Y75618D01*
X131380Y76389D01*
X130790Y76980D01*
X130018Y77300D01*
X129863D01*
X129752Y77426D01*
X129584Y77800D01*
D02*
G37*
G36*
X184184Y73500D02*
X183700D01*
Y73017D01*
X183823Y73067D01*
X184133Y73377D01*
X184184Y73500D01*
D02*
G37*
G36*
X182700D02*
X182217D01*
X182267Y73377D01*
X182577Y73067D01*
X182700Y73017D01*
Y73500D01*
D02*
G37*
G36*
X162600Y73084D02*
Y72600D01*
X163084D01*
X163032Y72723D01*
X162723Y73032D01*
X162600Y73084D01*
D02*
G37*
G36*
X161600D02*
X161477Y73032D01*
X161168Y72723D01*
X161117Y72600D01*
X161600D01*
Y73084D01*
D02*
G37*
G36*
X135186Y75932D02*
X134350D01*
X133578Y75612D01*
X132987Y75022D01*
X132668Y74250D01*
Y73414D01*
X132987Y72643D01*
X133578Y72052D01*
X134350Y71732D01*
X135186D01*
X135957Y72052D01*
X136548Y72643D01*
X136868Y73414D01*
Y74250D01*
X136548Y75022D01*
X135957Y75612D01*
X135186Y75932D01*
D02*
G37*
G36*
X145800Y71684D02*
Y71200D01*
X146283D01*
X146232Y71323D01*
X145923Y71632D01*
X145800Y71684D01*
D02*
G37*
G36*
X144800D02*
X144677Y71632D01*
X144368Y71323D01*
X144316Y71200D01*
X144800D01*
Y71684D01*
D02*
G37*
G36*
X163084Y71600D02*
X162600D01*
Y71117D01*
X162723Y71167D01*
X163032Y71477D01*
X163084Y71600D01*
D02*
G37*
G36*
X161600D02*
X161117D01*
X161168Y71477D01*
X161477Y71167D01*
X161600Y71117D01*
Y71600D01*
D02*
G37*
G36*
X59532Y71184D02*
Y70700D01*
X60015D01*
X59964Y70823D01*
X59655Y71132D01*
X59532Y71184D01*
D02*
G37*
G36*
X58532D02*
X58409Y71132D01*
X58099Y70823D01*
X58048Y70700D01*
X58532D01*
Y71184D01*
D02*
G37*
G36*
X35600D02*
Y70700D01*
X36083D01*
X36033Y70823D01*
X35723Y71132D01*
X35600Y71184D01*
D02*
G37*
G36*
X34600D02*
X34477Y71132D01*
X34168Y70823D01*
X34117Y70700D01*
X34600D01*
Y71184D01*
D02*
G37*
G36*
X157700Y70483D02*
Y70000D01*
X158184D01*
X158133Y70123D01*
X157823Y70433D01*
X157700Y70483D01*
D02*
G37*
G36*
X156700D02*
X156577Y70433D01*
X156267Y70123D01*
X156217Y70000D01*
X156700D01*
Y70483D01*
D02*
G37*
G36*
X146283Y70200D02*
X145800D01*
Y69717D01*
X145923Y69767D01*
X146232Y70077D01*
X146283Y70200D01*
D02*
G37*
G36*
X144800D02*
X144316D01*
X144368Y70077D01*
X144677Y69767D01*
X144800Y69717D01*
Y70200D01*
D02*
G37*
G36*
X60015Y69700D02*
X59532D01*
Y69217D01*
X59655Y69267D01*
X59964Y69577D01*
X60015Y69700D01*
D02*
G37*
G36*
X58532D02*
X58048D01*
X58099Y69577D01*
X58409Y69267D01*
X58532Y69217D01*
Y69700D01*
D02*
G37*
G36*
X36083D02*
X35600D01*
Y69217D01*
X35723Y69267D01*
X36033Y69577D01*
X36083Y69700D01*
D02*
G37*
G36*
X34600D02*
X34117D01*
X34168Y69577D01*
X34477Y69267D01*
X34600Y69217D01*
Y69700D01*
D02*
G37*
G36*
X125089Y73356D02*
X124253D01*
X123482Y73036D01*
X122891Y72445D01*
X122571Y71674D01*
Y70838D01*
X122891Y70066D01*
X123482Y69476D01*
X124253Y69156D01*
X125089D01*
X125861Y69476D01*
X126451Y70066D01*
X126771Y70838D01*
Y71674D01*
X126451Y72445D01*
X125861Y73036D01*
X125089Y73356D01*
D02*
G37*
G36*
X158184Y69000D02*
X157700D01*
Y68516D01*
X157823Y68568D01*
X158133Y68877D01*
X158184Y69000D01*
D02*
G37*
G36*
X156700D02*
X156217D01*
X156267Y68877D01*
X156577Y68568D01*
X156700Y68516D01*
Y69000D01*
D02*
G37*
G36*
X162600Y68084D02*
Y67600D01*
X163084D01*
X163032Y67723D01*
X162723Y68032D01*
X162600Y68084D01*
D02*
G37*
G36*
X161600D02*
X161477Y68032D01*
X161168Y67723D01*
X161117Y67600D01*
X161600D01*
Y68084D01*
D02*
G37*
G36*
X66959Y75448D02*
X65841D01*
X64760Y75159D01*
X63792Y74599D01*
X63001Y73808D01*
X62441Y72840D01*
X62152Y71759D01*
Y70641D01*
X62441Y69560D01*
X63001Y68592D01*
X63792Y67801D01*
X64760Y67242D01*
X65841Y66952D01*
X66959D01*
X68040Y67242D01*
X69008Y67801D01*
X69799Y68592D01*
X70359Y69560D01*
X70648Y70641D01*
Y71759D01*
X70359Y72840D01*
X69799Y73808D01*
X69008Y74599D01*
X68040Y75159D01*
X66959Y75448D01*
D02*
G37*
G36*
X55918Y71100D02*
X55082D01*
X54311Y70780D01*
X53720Y70189D01*
X53400Y69418D01*
Y68582D01*
X53720Y67810D01*
X54311Y67220D01*
X55082Y66900D01*
X55918D01*
X56690Y67220D01*
X57280Y67810D01*
X57600Y68582D01*
Y69418D01*
X57280Y70189D01*
X56690Y70780D01*
X55918Y71100D01*
D02*
G37*
G36*
X76918Y70700D02*
X76082D01*
X75310Y70380D01*
X74720Y69789D01*
X74400Y69018D01*
Y68182D01*
X74720Y67410D01*
X75310Y66820D01*
X76082Y66500D01*
X76918D01*
X77689Y66820D01*
X78280Y67410D01*
X78600Y68182D01*
Y69018D01*
X78280Y69789D01*
X77689Y70380D01*
X76918Y70700D01*
D02*
G37*
G36*
X163084Y66600D02*
X162600D01*
Y66116D01*
X162723Y66167D01*
X163032Y66477D01*
X163084Y66600D01*
D02*
G37*
G36*
X161600D02*
X161117D01*
X161168Y66477D01*
X161477Y66167D01*
X161600Y66116D01*
Y66600D01*
D02*
G37*
G36*
X91518Y69555D02*
X90682D01*
X89911Y69235D01*
X89320Y68644D01*
X89000Y67872D01*
Y67037D01*
X89320Y66265D01*
X89911Y65674D01*
X90682Y65355D01*
X91518D01*
X92290Y65674D01*
X92880Y66265D01*
X93200Y67037D01*
Y67872D01*
X92880Y68644D01*
X92290Y69235D01*
X91518Y69555D01*
D02*
G37*
G36*
X157600Y65583D02*
Y65100D01*
X158083D01*
X158033Y65223D01*
X157723Y65532D01*
X157600Y65583D01*
D02*
G37*
G36*
X156600D02*
X156477Y65532D01*
X156167Y65223D01*
X156116Y65100D01*
X156600D01*
Y65583D01*
D02*
G37*
G36*
X145700Y65483D02*
Y65000D01*
X146184D01*
X146133Y65123D01*
X145823Y65433D01*
X145700Y65483D01*
D02*
G37*
G36*
X144700D02*
X144577Y65433D01*
X144267Y65123D01*
X144217Y65000D01*
X144700D01*
Y65483D01*
D02*
G37*
G36*
X158083Y64100D02*
X157600D01*
Y63617D01*
X157723Y63668D01*
X158033Y63977D01*
X158083Y64100D01*
D02*
G37*
G36*
X156600D02*
X156116D01*
X156167Y63977D01*
X156477Y63668D01*
X156600Y63617D01*
Y64100D01*
D02*
G37*
G36*
X146184Y64000D02*
X145700D01*
Y63516D01*
X145823Y63568D01*
X146133Y63877D01*
X146184Y64000D01*
D02*
G37*
G36*
X144700D02*
X144217D01*
X144267Y63877D01*
X144577Y63568D01*
X144700Y63516D01*
Y64000D01*
D02*
G37*
G36*
X44200Y62546D02*
Y62063D01*
X44684D01*
X44633Y62186D01*
X44323Y62495D01*
X44200Y62546D01*
D02*
G37*
G36*
X43200D02*
X43077Y62495D01*
X42768Y62186D01*
X42717Y62063D01*
X43200D01*
Y62546D01*
D02*
G37*
G36*
X66900Y64429D02*
Y61700D01*
X69629D01*
X69427Y62454D01*
X68999Y63194D01*
X68394Y63799D01*
X67654Y64227D01*
X66900Y64429D01*
D02*
G37*
G36*
X65900D02*
X65146Y64227D01*
X64406Y63799D01*
X63801Y63194D01*
X63373Y62454D01*
X63171Y61700D01*
X65900D01*
Y64429D01*
D02*
G37*
G36*
X78718Y65663D02*
X77882D01*
X77110Y65343D01*
X76520Y64752D01*
X76200Y63980D01*
Y63145D01*
X76520Y62373D01*
X77110Y61782D01*
X77882Y61463D01*
X78718D01*
X79489Y61782D01*
X80080Y62373D01*
X80400Y63145D01*
Y63980D01*
X80080Y64752D01*
X79489Y65343D01*
X78718Y65663D01*
D02*
G37*
G36*
X44684Y61063D02*
X44200D01*
Y60580D01*
X44323Y60631D01*
X44633Y60940D01*
X44684Y61063D01*
D02*
G37*
G36*
X43200D02*
X42717D01*
X42768Y60940D01*
X43077Y60631D01*
X43200Y60580D01*
Y61063D01*
D02*
G37*
G36*
X177700Y60483D02*
Y60000D01*
X178183D01*
X178132Y60123D01*
X177823Y60432D01*
X177700Y60483D01*
D02*
G37*
G36*
X176700D02*
X176577Y60432D01*
X176268Y60123D01*
X176216Y60000D01*
X176700D01*
Y60483D01*
D02*
G37*
G36*
X172700D02*
Y60000D01*
X173184D01*
X173133Y60123D01*
X172823Y60432D01*
X172700Y60483D01*
D02*
G37*
G36*
X171700D02*
X171577Y60432D01*
X171267Y60123D01*
X171216Y60000D01*
X171700D01*
Y60483D01*
D02*
G37*
G36*
X167700D02*
Y60000D01*
X168184D01*
X168132Y60123D01*
X167823Y60432D01*
X167700Y60483D01*
D02*
G37*
G36*
X166700D02*
X166577Y60432D01*
X166268Y60123D01*
X166217Y60000D01*
X166700D01*
Y60483D01*
D02*
G37*
G36*
X162700D02*
Y60000D01*
X163183D01*
X163133Y60123D01*
X162823Y60432D01*
X162700Y60483D01*
D02*
G37*
G36*
X161700D02*
X161577Y60432D01*
X161267Y60123D01*
X161216Y60000D01*
X161700D01*
Y60483D01*
D02*
G37*
G36*
X157700D02*
Y60000D01*
X158184D01*
X158133Y60123D01*
X157823Y60432D01*
X157700Y60483D01*
D02*
G37*
G36*
X156700D02*
X156577Y60432D01*
X156267Y60123D01*
X156217Y60000D01*
X156700D01*
Y60483D01*
D02*
G37*
G36*
X150800D02*
Y60000D01*
X151284D01*
X151233Y60123D01*
X150923Y60432D01*
X150800Y60483D01*
D02*
G37*
G36*
X149800D02*
X149677Y60432D01*
X149367Y60123D01*
X149317Y60000D01*
X149800D01*
Y60483D01*
D02*
G37*
G36*
X145800D02*
Y60000D01*
X146283D01*
X146232Y60123D01*
X145923Y60432D01*
X145800Y60483D01*
D02*
G37*
G36*
X144800D02*
X144677Y60432D01*
X144368Y60123D01*
X144316Y60000D01*
X144800D01*
Y60483D01*
D02*
G37*
G36*
X182900Y60383D02*
Y59900D01*
X183384D01*
X183333Y60023D01*
X183023Y60333D01*
X182900Y60383D01*
D02*
G37*
G36*
X181900D02*
X181777Y60333D01*
X181467Y60023D01*
X181416Y59900D01*
X181900D01*
Y60383D01*
D02*
G37*
G36*
X94018Y63700D02*
X93182D01*
X92410Y63380D01*
X91820Y62789D01*
X91500Y62018D01*
Y61182D01*
X91820Y60410D01*
X92410Y59820D01*
X93182Y59500D01*
X94018D01*
X94789Y59820D01*
X95380Y60410D01*
X95700Y61182D01*
Y62018D01*
X95380Y62789D01*
X94789Y63380D01*
X94018Y63700D01*
D02*
G37*
G36*
X178183Y59000D02*
X177700D01*
Y58517D01*
X177823Y58568D01*
X178132Y58877D01*
X178183Y59000D01*
D02*
G37*
G36*
X176700D02*
X176216D01*
X176268Y58877D01*
X176577Y58568D01*
X176700Y58517D01*
Y59000D01*
D02*
G37*
G36*
X173184D02*
X172700D01*
Y58517D01*
X172823Y58568D01*
X173133Y58877D01*
X173184Y59000D01*
D02*
G37*
G36*
X171700D02*
X171216D01*
X171267Y58877D01*
X171577Y58568D01*
X171700Y58517D01*
Y59000D01*
D02*
G37*
G36*
X168184D02*
X167700D01*
Y58517D01*
X167823Y58568D01*
X168132Y58877D01*
X168184Y59000D01*
D02*
G37*
G36*
X166700D02*
X166217D01*
X166268Y58877D01*
X166577Y58568D01*
X166700Y58517D01*
Y59000D01*
D02*
G37*
G36*
X163183D02*
X162700D01*
Y58517D01*
X162823Y58568D01*
X163133Y58877D01*
X163183Y59000D01*
D02*
G37*
G36*
X161700D02*
X161216D01*
X161267Y58877D01*
X161577Y58568D01*
X161700Y58517D01*
Y59000D01*
D02*
G37*
G36*
X158184D02*
X157700D01*
Y58517D01*
X157823Y58568D01*
X158133Y58877D01*
X158184Y59000D01*
D02*
G37*
G36*
X156700D02*
X156217D01*
X156267Y58877D01*
X156577Y58568D01*
X156700Y58517D01*
Y59000D01*
D02*
G37*
G36*
X151284D02*
X150800D01*
Y58517D01*
X150923Y58568D01*
X151233Y58877D01*
X151284Y59000D01*
D02*
G37*
G36*
X149800D02*
X149317D01*
X149367Y58877D01*
X149677Y58568D01*
X149800Y58517D01*
Y59000D01*
D02*
G37*
G36*
X146283D02*
X145800D01*
Y58517D01*
X145923Y58568D01*
X146232Y58877D01*
X146283Y59000D01*
D02*
G37*
G36*
X144800D02*
X144316D01*
X144368Y58877D01*
X144677Y58568D01*
X144800Y58517D01*
Y59000D01*
D02*
G37*
G36*
X183384Y58900D02*
X182900D01*
Y58416D01*
X183023Y58468D01*
X183333Y58777D01*
X183384Y58900D01*
D02*
G37*
G36*
X181900D02*
X181416D01*
X181467Y58777D01*
X181777Y58468D01*
X181900Y58416D01*
Y58900D01*
D02*
G37*
G36*
X69629Y60700D02*
X66900D01*
Y57971D01*
X67654Y58173D01*
X68394Y58601D01*
X68999Y59206D01*
X69427Y59946D01*
X69629Y60700D01*
D02*
G37*
G36*
X65900D02*
X63171D01*
X63373Y59946D01*
X63801Y59206D01*
X64406Y58601D01*
X65146Y58173D01*
X65900Y57971D01*
Y60700D01*
D02*
G37*
G36*
X6500Y56484D02*
Y56000D01*
X6983D01*
X6933Y56123D01*
X6623Y56432D01*
X6500Y56484D01*
D02*
G37*
G36*
X5500D02*
X5377Y56432D01*
X5068Y56123D01*
X5017Y56000D01*
X5500D01*
Y56484D01*
D02*
G37*
G36*
X15000Y56384D02*
Y55900D01*
X15484D01*
X15432Y56023D01*
X15123Y56332D01*
X15000Y56384D01*
D02*
G37*
G36*
X14000D02*
X13877Y56332D01*
X13567Y56023D01*
X13517Y55900D01*
X14000D01*
Y56384D01*
D02*
G37*
G36*
X186000Y55484D02*
Y55000D01*
X186484D01*
X186433Y55123D01*
X186123Y55432D01*
X186000Y55484D01*
D02*
G37*
G36*
X185000D02*
X184877Y55432D01*
X184567Y55123D01*
X184517Y55000D01*
X185000D01*
Y55484D01*
D02*
G37*
G36*
X180200D02*
Y55000D01*
X180684D01*
X180632Y55123D01*
X180323Y55432D01*
X180200Y55484D01*
D02*
G37*
G36*
X179200D02*
X179077Y55432D01*
X178768Y55123D01*
X178717Y55000D01*
X179200D01*
Y55484D01*
D02*
G37*
G36*
X175200D02*
Y55000D01*
X175683D01*
X175633Y55123D01*
X175323Y55432D01*
X175200Y55484D01*
D02*
G37*
G36*
X174200D02*
X174077Y55432D01*
X173767Y55123D01*
X173716Y55000D01*
X174200D01*
Y55484D01*
D02*
G37*
G36*
X170200D02*
Y55000D01*
X170684D01*
X170633Y55123D01*
X170323Y55432D01*
X170200Y55484D01*
D02*
G37*
G36*
X169200D02*
X169077Y55432D01*
X168767Y55123D01*
X168717Y55000D01*
X169200D01*
Y55484D01*
D02*
G37*
G36*
X165200D02*
Y55000D01*
X165683D01*
X165632Y55123D01*
X165323Y55432D01*
X165200Y55484D01*
D02*
G37*
G36*
X164200D02*
X164077Y55432D01*
X163768Y55123D01*
X163716Y55000D01*
X164200D01*
Y55484D01*
D02*
G37*
G36*
X160200D02*
Y55000D01*
X160684D01*
X160633Y55123D01*
X160323Y55432D01*
X160200Y55484D01*
D02*
G37*
G36*
X159200D02*
X159077Y55432D01*
X158767Y55123D01*
X158716Y55000D01*
X159200D01*
Y55484D01*
D02*
G37*
G36*
X150700D02*
Y55000D01*
X151183D01*
X151133Y55123D01*
X150823Y55432D01*
X150700Y55484D01*
D02*
G37*
G36*
X149700D02*
X149577Y55432D01*
X149267Y55123D01*
X149216Y55000D01*
X149700D01*
Y55484D01*
D02*
G37*
G36*
X145700D02*
Y55000D01*
X146184D01*
X146133Y55123D01*
X145823Y55432D01*
X145700Y55484D01*
D02*
G37*
G36*
X144700D02*
X144577Y55432D01*
X144267Y55123D01*
X144217Y55000D01*
X144700D01*
Y55484D01*
D02*
G37*
G36*
X140700D02*
Y55000D01*
X141183D01*
X141132Y55123D01*
X140823Y55432D01*
X140700Y55484D01*
D02*
G37*
G36*
X139700D02*
X139577Y55432D01*
X139268Y55123D01*
X139216Y55000D01*
X139700D01*
Y55484D01*
D02*
G37*
G36*
X6983Y55000D02*
X6500D01*
Y54517D01*
X6623Y54567D01*
X6933Y54877D01*
X6983Y55000D01*
D02*
G37*
G36*
X5500D02*
X5017D01*
X5068Y54877D01*
X5377Y54567D01*
X5500Y54517D01*
Y55000D01*
D02*
G37*
G36*
X15484Y54900D02*
X15000D01*
Y54417D01*
X15123Y54467D01*
X15432Y54777D01*
X15484Y54900D01*
D02*
G37*
G36*
X14000D02*
X13517D01*
X13567Y54777D01*
X13877Y54467D01*
X14000Y54417D01*
Y54900D01*
D02*
G37*
G36*
X44500Y54546D02*
Y54063D01*
X44984D01*
X44932Y54186D01*
X44623Y54496D01*
X44500Y54546D01*
D02*
G37*
G36*
X43500D02*
X43377Y54496D01*
X43067Y54186D01*
X43016Y54063D01*
X43500D01*
Y54546D01*
D02*
G37*
G36*
X186484Y54000D02*
X186000D01*
Y53517D01*
X186123Y53567D01*
X186433Y53877D01*
X186484Y54000D01*
D02*
G37*
G36*
X185000D02*
X184517D01*
X184567Y53877D01*
X184877Y53567D01*
X185000Y53517D01*
Y54000D01*
D02*
G37*
G36*
X180684D02*
X180200D01*
Y53517D01*
X180323Y53567D01*
X180632Y53877D01*
X180684Y54000D01*
D02*
G37*
G36*
X179200D02*
X178717D01*
X178768Y53877D01*
X179077Y53567D01*
X179200Y53517D01*
Y54000D01*
D02*
G37*
G36*
X175683D02*
X175200D01*
Y53517D01*
X175323Y53567D01*
X175633Y53877D01*
X175683Y54000D01*
D02*
G37*
G36*
X174200D02*
X173716D01*
X173767Y53877D01*
X174077Y53567D01*
X174200Y53517D01*
Y54000D01*
D02*
G37*
G36*
X170684D02*
X170200D01*
Y53517D01*
X170323Y53567D01*
X170633Y53877D01*
X170684Y54000D01*
D02*
G37*
G36*
X169200D02*
X168717D01*
X168767Y53877D01*
X169077Y53567D01*
X169200Y53517D01*
Y54000D01*
D02*
G37*
G36*
X165683D02*
X165200D01*
Y53517D01*
X165323Y53567D01*
X165632Y53877D01*
X165683Y54000D01*
D02*
G37*
G36*
X164200D02*
X163716D01*
X163768Y53877D01*
X164077Y53567D01*
X164200Y53517D01*
Y54000D01*
D02*
G37*
G36*
X160684D02*
X160200D01*
Y53517D01*
X160323Y53567D01*
X160633Y53877D01*
X160684Y54000D01*
D02*
G37*
G36*
X159200D02*
X158716D01*
X158767Y53877D01*
X159077Y53567D01*
X159200Y53517D01*
Y54000D01*
D02*
G37*
G36*
X151183D02*
X150700D01*
Y53517D01*
X150823Y53567D01*
X151133Y53877D01*
X151183Y54000D01*
D02*
G37*
G36*
X149700D02*
X149216D01*
X149267Y53877D01*
X149577Y53567D01*
X149700Y53517D01*
Y54000D01*
D02*
G37*
G36*
X146184D02*
X145700D01*
Y53517D01*
X145823Y53567D01*
X146133Y53877D01*
X146184Y54000D01*
D02*
G37*
G36*
X144700D02*
X144217D01*
X144267Y53877D01*
X144577Y53567D01*
X144700Y53517D01*
Y54000D01*
D02*
G37*
G36*
X141183D02*
X140700D01*
Y53517D01*
X140823Y53567D01*
X141132Y53877D01*
X141183Y54000D01*
D02*
G37*
G36*
X139700D02*
X139216D01*
X139268Y53877D01*
X139577Y53567D01*
X139700Y53517D01*
Y54000D01*
D02*
G37*
G36*
X44984Y53063D02*
X44500D01*
Y52579D01*
X44623Y52631D01*
X44932Y52940D01*
X44984Y53063D01*
D02*
G37*
G36*
X43500D02*
X43016D01*
X43067Y52940D01*
X43377Y52631D01*
X43500Y52579D01*
Y53063D01*
D02*
G37*
G36*
X183000Y50484D02*
Y50000D01*
X183484D01*
X183432Y50123D01*
X183123Y50432D01*
X183000Y50484D01*
D02*
G37*
G36*
X182000D02*
X181877Y50432D01*
X181568Y50123D01*
X181517Y50000D01*
X182000D01*
Y50484D01*
D02*
G37*
G36*
X177700D02*
Y50000D01*
X178183D01*
X178132Y50123D01*
X177823Y50432D01*
X177700Y50484D01*
D02*
G37*
G36*
X176700D02*
X176577Y50432D01*
X176268Y50123D01*
X176216Y50000D01*
X176700D01*
Y50484D01*
D02*
G37*
G36*
X172700D02*
Y50000D01*
X173184D01*
X173133Y50123D01*
X172823Y50432D01*
X172700Y50484D01*
D02*
G37*
G36*
X171700D02*
X171577Y50432D01*
X171267Y50123D01*
X171216Y50000D01*
X171700D01*
Y50484D01*
D02*
G37*
G36*
X167700D02*
Y50000D01*
X168184D01*
X168132Y50123D01*
X167823Y50432D01*
X167700Y50484D01*
D02*
G37*
G36*
X166700D02*
X166577Y50432D01*
X166268Y50123D01*
X166217Y50000D01*
X166700D01*
Y50484D01*
D02*
G37*
G36*
X162700D02*
Y50000D01*
X163183D01*
X163133Y50123D01*
X162823Y50432D01*
X162700Y50484D01*
D02*
G37*
G36*
X161700D02*
X161577Y50432D01*
X161267Y50123D01*
X161216Y50000D01*
X161700D01*
Y50484D01*
D02*
G37*
G36*
X157700D02*
Y50000D01*
X158184D01*
X158133Y50123D01*
X157823Y50432D01*
X157700Y50484D01*
D02*
G37*
G36*
X156700D02*
X156577Y50432D01*
X156267Y50123D01*
X156217Y50000D01*
X156700D01*
Y50484D01*
D02*
G37*
G36*
X143200D02*
Y50000D01*
X143684D01*
X143632Y50123D01*
X143323Y50432D01*
X143200Y50484D01*
D02*
G37*
G36*
X142200D02*
X142077Y50432D01*
X141768Y50123D01*
X141717Y50000D01*
X142200D01*
Y50484D01*
D02*
G37*
G36*
X138200D02*
Y50000D01*
X138683D01*
X138633Y50123D01*
X138323Y50432D01*
X138200Y50484D01*
D02*
G37*
G36*
X137200D02*
X137077Y50432D01*
X136767Y50123D01*
X136716Y50000D01*
X137200D01*
Y50484D01*
D02*
G37*
G36*
X150700Y50384D02*
Y49900D01*
X151183D01*
X151133Y50023D01*
X150823Y50332D01*
X150700Y50384D01*
D02*
G37*
G36*
X149700D02*
X149577Y50332D01*
X149267Y50023D01*
X149216Y49900D01*
X149700D01*
Y50384D01*
D02*
G37*
G36*
X183484Y49000D02*
X183000D01*
Y48516D01*
X183123Y48568D01*
X183432Y48877D01*
X183484Y49000D01*
D02*
G37*
G36*
X182000D02*
X181517D01*
X181568Y48877D01*
X181877Y48568D01*
X182000Y48516D01*
Y49000D01*
D02*
G37*
G36*
X178183D02*
X177700D01*
Y48516D01*
X177823Y48568D01*
X178132Y48877D01*
X178183Y49000D01*
D02*
G37*
G36*
X176700D02*
X176216D01*
X176268Y48877D01*
X176577Y48568D01*
X176700Y48516D01*
Y49000D01*
D02*
G37*
G36*
X173184D02*
X172700D01*
Y48516D01*
X172823Y48568D01*
X173133Y48877D01*
X173184Y49000D01*
D02*
G37*
G36*
X171700D02*
X171216D01*
X171267Y48877D01*
X171577Y48568D01*
X171700Y48516D01*
Y49000D01*
D02*
G37*
G36*
X168184D02*
X167700D01*
Y48516D01*
X167823Y48568D01*
X168132Y48877D01*
X168184Y49000D01*
D02*
G37*
G36*
X166700D02*
X166217D01*
X166268Y48877D01*
X166577Y48568D01*
X166700Y48516D01*
Y49000D01*
D02*
G37*
G36*
X163183D02*
X162700D01*
Y48516D01*
X162823Y48568D01*
X163133Y48877D01*
X163183Y49000D01*
D02*
G37*
G36*
X161700D02*
X161216D01*
X161267Y48877D01*
X161577Y48568D01*
X161700Y48516D01*
Y49000D01*
D02*
G37*
G36*
X158184D02*
X157700D01*
Y48516D01*
X157823Y48568D01*
X158133Y48877D01*
X158184Y49000D01*
D02*
G37*
G36*
X156700D02*
X156217D01*
X156267Y48877D01*
X156577Y48568D01*
X156700Y48516D01*
Y49000D01*
D02*
G37*
G36*
X143684D02*
X143200D01*
Y48516D01*
X143323Y48568D01*
X143632Y48877D01*
X143684Y49000D01*
D02*
G37*
G36*
X142200D02*
X141717D01*
X141768Y48877D01*
X142077Y48568D01*
X142200Y48516D01*
Y49000D01*
D02*
G37*
G36*
X138683D02*
X138200D01*
Y48516D01*
X138323Y48568D01*
X138633Y48877D01*
X138683Y49000D01*
D02*
G37*
G36*
X137200D02*
X136716D01*
X136767Y48877D01*
X137077Y48568D01*
X137200Y48516D01*
Y49000D01*
D02*
G37*
G36*
X151183Y48900D02*
X150700D01*
Y48417D01*
X150823Y48467D01*
X151133Y48777D01*
X151183Y48900D01*
D02*
G37*
G36*
X149700D02*
X149216D01*
X149267Y48777D01*
X149577Y48467D01*
X149700Y48417D01*
Y48900D01*
D02*
G37*
G36*
X186100Y45483D02*
Y45000D01*
X186583D01*
X186532Y45123D01*
X186223Y45432D01*
X186100Y45483D01*
D02*
G37*
G36*
X185100D02*
X184977Y45432D01*
X184668Y45123D01*
X184616Y45000D01*
X185100D01*
Y45483D01*
D02*
G37*
G36*
X162000D02*
Y45000D01*
X162484D01*
X162433Y45123D01*
X162123Y45432D01*
X162000Y45483D01*
D02*
G37*
G36*
X161000D02*
X160877Y45432D01*
X160567Y45123D01*
X160517Y45000D01*
X161000D01*
Y45483D01*
D02*
G37*
G36*
X157600D02*
Y45000D01*
X158083D01*
X158033Y45123D01*
X157723Y45432D01*
X157600Y45483D01*
D02*
G37*
G36*
X156600D02*
X156477Y45432D01*
X156167Y45123D01*
X156116Y45000D01*
X156600D01*
Y45483D01*
D02*
G37*
G36*
X150700D02*
Y45000D01*
X151183D01*
X151133Y45123D01*
X150823Y45432D01*
X150700Y45483D01*
D02*
G37*
G36*
X149700D02*
X149577Y45432D01*
X149267Y45123D01*
X149216Y45000D01*
X149700D01*
Y45483D01*
D02*
G37*
G36*
X145700D02*
Y45000D01*
X146184D01*
X146133Y45123D01*
X145823Y45432D01*
X145700Y45483D01*
D02*
G37*
G36*
X144700D02*
X144577Y45432D01*
X144267Y45123D01*
X144217Y45000D01*
X144700D01*
Y45483D01*
D02*
G37*
G36*
X140700D02*
Y45000D01*
X141183D01*
X141132Y45123D01*
X140823Y45432D01*
X140700Y45483D01*
D02*
G37*
G36*
X139700D02*
X139577Y45432D01*
X139268Y45123D01*
X139216Y45000D01*
X139700D01*
Y45483D01*
D02*
G37*
G36*
X135700D02*
Y45000D01*
X136184D01*
X136133Y45123D01*
X135823Y45432D01*
X135700Y45483D01*
D02*
G37*
G36*
X134700D02*
X134577Y45432D01*
X134267Y45123D01*
X134216Y45000D01*
X134700D01*
Y45483D01*
D02*
G37*
G36*
X130700D02*
Y45000D01*
X131184D01*
X131132Y45123D01*
X130823Y45432D01*
X130700Y45483D01*
D02*
G37*
G36*
X129700D02*
X129577Y45432D01*
X129268Y45123D01*
X129217Y45000D01*
X129700D01*
Y45483D01*
D02*
G37*
G36*
X125700D02*
Y45000D01*
X126183D01*
X126133Y45123D01*
X125823Y45432D01*
X125700Y45483D01*
D02*
G37*
G36*
X124700D02*
X124577Y45432D01*
X124267Y45123D01*
X124216Y45000D01*
X124700D01*
Y45483D01*
D02*
G37*
G36*
X120700D02*
Y45000D01*
X121184D01*
X121133Y45123D01*
X120823Y45432D01*
X120700Y45483D01*
D02*
G37*
G36*
X119700D02*
X119577Y45432D01*
X119267Y45123D01*
X119217Y45000D01*
X119700D01*
Y45483D01*
D02*
G37*
G36*
X115700D02*
Y45000D01*
X116183D01*
X116132Y45123D01*
X115823Y45432D01*
X115700Y45483D01*
D02*
G37*
G36*
X114700D02*
X114577Y45432D01*
X114268Y45123D01*
X114216Y45000D01*
X114700D01*
Y45483D01*
D02*
G37*
G36*
X110700D02*
Y45000D01*
X111184D01*
X111133Y45123D01*
X110823Y45432D01*
X110700Y45483D01*
D02*
G37*
G36*
X109700D02*
X109577Y45432D01*
X109267Y45123D01*
X109216Y45000D01*
X109700D01*
Y45483D01*
D02*
G37*
G36*
X105700D02*
Y45000D01*
X106184D01*
X106132Y45123D01*
X105823Y45432D01*
X105700Y45483D01*
D02*
G37*
G36*
X104700D02*
X104577Y45432D01*
X104268Y45123D01*
X104217Y45000D01*
X104700D01*
Y45483D01*
D02*
G37*
G36*
X100700D02*
Y45000D01*
X101183D01*
X101133Y45123D01*
X100823Y45432D01*
X100700Y45483D01*
D02*
G37*
G36*
X99700D02*
X99577Y45432D01*
X99268Y45123D01*
X99217Y45000D01*
X99700D01*
Y45483D01*
D02*
G37*
G36*
X95700D02*
Y45000D01*
X96184D01*
X96132Y45123D01*
X95823Y45432D01*
X95700Y45483D01*
D02*
G37*
G36*
X94700D02*
X94577Y45432D01*
X94267Y45123D01*
X94217Y45000D01*
X94700D01*
Y45483D01*
D02*
G37*
G36*
X90700D02*
Y45000D01*
X91184D01*
X91132Y45123D01*
X90823Y45432D01*
X90700Y45483D01*
D02*
G37*
G36*
X89700D02*
X89577Y45432D01*
X89267Y45123D01*
X89217Y45000D01*
X89700D01*
Y45483D01*
D02*
G37*
G36*
X85700D02*
Y45000D01*
X86184D01*
X86133Y45123D01*
X85823Y45432D01*
X85700Y45483D01*
D02*
G37*
G36*
X84700D02*
X84577Y45432D01*
X84267Y45123D01*
X84216Y45000D01*
X84700D01*
Y45483D01*
D02*
G37*
G36*
X80700D02*
Y45000D01*
X81183D01*
X81133Y45123D01*
X80823Y45432D01*
X80700Y45483D01*
D02*
G37*
G36*
X79700D02*
X79577Y45432D01*
X79268Y45123D01*
X79216Y45000D01*
X79700D01*
Y45483D01*
D02*
G37*
G36*
X75700D02*
Y45000D01*
X76183D01*
X76133Y45123D01*
X75823Y45432D01*
X75700Y45483D01*
D02*
G37*
G36*
X74700D02*
X74577Y45432D01*
X74268Y45123D01*
X74217Y45000D01*
X74700D01*
Y45483D01*
D02*
G37*
G36*
X70700D02*
Y45000D01*
X71184D01*
X71132Y45123D01*
X70823Y45432D01*
X70700Y45483D01*
D02*
G37*
G36*
X69700D02*
X69577Y45432D01*
X69267Y45123D01*
X69217Y45000D01*
X69700D01*
Y45483D01*
D02*
G37*
G36*
X65700D02*
Y45000D01*
X66184D01*
X66132Y45123D01*
X65823Y45432D01*
X65700Y45483D01*
D02*
G37*
G36*
X64700D02*
X64577Y45432D01*
X64267Y45123D01*
X64217Y45000D01*
X64700D01*
Y45483D01*
D02*
G37*
G36*
X60700D02*
Y45000D01*
X61184D01*
X61133Y45123D01*
X60823Y45432D01*
X60700Y45483D01*
D02*
G37*
G36*
X59700D02*
X59577Y45432D01*
X59267Y45123D01*
X59216Y45000D01*
X59700D01*
Y45483D01*
D02*
G37*
G36*
X55700D02*
Y45000D01*
X56183D01*
X56133Y45123D01*
X55823Y45432D01*
X55700Y45483D01*
D02*
G37*
G36*
X54700D02*
X54577Y45432D01*
X54268Y45123D01*
X54216Y45000D01*
X54700D01*
Y45483D01*
D02*
G37*
G36*
X50700D02*
Y45000D01*
X51183D01*
X51133Y45123D01*
X50823Y45432D01*
X50700Y45483D01*
D02*
G37*
G36*
X49700D02*
X49577Y45432D01*
X49268Y45123D01*
X49216Y45000D01*
X49700D01*
Y45483D01*
D02*
G37*
G36*
X45700D02*
Y45000D01*
X46183D01*
X46132Y45123D01*
X45823Y45432D01*
X45700Y45483D01*
D02*
G37*
G36*
X44700D02*
X44577Y45432D01*
X44267Y45123D01*
X44216Y45000D01*
X44700D01*
Y45483D01*
D02*
G37*
G36*
X40700D02*
Y45000D01*
X41184D01*
X41133Y45123D01*
X40823Y45432D01*
X40700Y45483D01*
D02*
G37*
G36*
X39700D02*
X39577Y45432D01*
X39268Y45123D01*
X39217Y45000D01*
X39700D01*
Y45483D01*
D02*
G37*
G36*
X35700D02*
Y45000D01*
X36184D01*
X36132Y45123D01*
X35823Y45432D01*
X35700Y45483D01*
D02*
G37*
G36*
X34700D02*
X34577Y45432D01*
X34268Y45123D01*
X34216Y45000D01*
X34700D01*
Y45483D01*
D02*
G37*
G36*
X30700D02*
Y45000D01*
X31183D01*
X31133Y45123D01*
X30823Y45432D01*
X30700Y45483D01*
D02*
G37*
G36*
X29700D02*
X29577Y45432D01*
X29267Y45123D01*
X29217Y45000D01*
X29700D01*
Y45483D01*
D02*
G37*
G36*
X25700D02*
Y45000D01*
X26184D01*
X26133Y45123D01*
X25823Y45432D01*
X25700Y45483D01*
D02*
G37*
G36*
X24700D02*
X24577Y45432D01*
X24268Y45123D01*
X24216Y45000D01*
X24700D01*
Y45483D01*
D02*
G37*
G36*
X20700D02*
Y45000D01*
X21183D01*
X21133Y45123D01*
X20823Y45432D01*
X20700Y45483D01*
D02*
G37*
G36*
X19700D02*
X19577Y45432D01*
X19267Y45123D01*
X19217Y45000D01*
X19700D01*
Y45483D01*
D02*
G37*
G36*
X178600Y44984D02*
Y44500D01*
X179084D01*
X179033Y44623D01*
X178723Y44932D01*
X178600Y44984D01*
D02*
G37*
G36*
X177600D02*
X177477Y44932D01*
X177167Y44623D01*
X177117Y44500D01*
X177600D01*
Y44984D01*
D02*
G37*
G36*
X172000Y44883D02*
Y44400D01*
X172484D01*
X172432Y44523D01*
X172123Y44833D01*
X172000Y44883D01*
D02*
G37*
G36*
X171000D02*
X170877Y44833D01*
X170568Y44523D01*
X170517Y44400D01*
X171000D01*
Y44883D01*
D02*
G37*
G36*
X165900D02*
Y44400D01*
X166384D01*
X166332Y44523D01*
X166023Y44833D01*
X165900Y44883D01*
D02*
G37*
G36*
X164900D02*
X164777Y44833D01*
X164468Y44523D01*
X164417Y44400D01*
X164900D01*
Y44883D01*
D02*
G37*
G36*
X186583Y44000D02*
X186100D01*
Y43516D01*
X186223Y43567D01*
X186532Y43877D01*
X186583Y44000D01*
D02*
G37*
G36*
X185100D02*
X184616D01*
X184668Y43877D01*
X184977Y43567D01*
X185100Y43516D01*
Y44000D01*
D02*
G37*
G36*
X162484D02*
X162000D01*
Y43516D01*
X162123Y43567D01*
X162433Y43877D01*
X162484Y44000D01*
D02*
G37*
G36*
X161000D02*
X160517D01*
X160567Y43877D01*
X160877Y43567D01*
X161000Y43516D01*
Y44000D01*
D02*
G37*
G36*
X158083D02*
X157600D01*
Y43516D01*
X157723Y43567D01*
X158033Y43877D01*
X158083Y44000D01*
D02*
G37*
G36*
X156600D02*
X156116D01*
X156167Y43877D01*
X156477Y43567D01*
X156600Y43516D01*
Y44000D01*
D02*
G37*
G36*
X151183D02*
X150700D01*
Y43516D01*
X150823Y43567D01*
X151133Y43877D01*
X151183Y44000D01*
D02*
G37*
G36*
X149700D02*
X149216D01*
X149267Y43877D01*
X149577Y43567D01*
X149700Y43516D01*
Y44000D01*
D02*
G37*
G36*
X146184D02*
X145700D01*
Y43516D01*
X145823Y43567D01*
X146133Y43877D01*
X146184Y44000D01*
D02*
G37*
G36*
X144700D02*
X144217D01*
X144267Y43877D01*
X144577Y43567D01*
X144700Y43516D01*
Y44000D01*
D02*
G37*
G36*
X141183D02*
X140700D01*
Y43516D01*
X140823Y43567D01*
X141132Y43877D01*
X141183Y44000D01*
D02*
G37*
G36*
X139700D02*
X139216D01*
X139268Y43877D01*
X139577Y43567D01*
X139700Y43516D01*
Y44000D01*
D02*
G37*
G36*
X136184D02*
X135700D01*
Y43516D01*
X135823Y43567D01*
X136133Y43877D01*
X136184Y44000D01*
D02*
G37*
G36*
X134700D02*
X134216D01*
X134267Y43877D01*
X134577Y43567D01*
X134700Y43516D01*
Y44000D01*
D02*
G37*
G36*
X131184D02*
X130700D01*
Y43516D01*
X130823Y43567D01*
X131132Y43877D01*
X131184Y44000D01*
D02*
G37*
G36*
X129700D02*
X129217D01*
X129268Y43877D01*
X129577Y43567D01*
X129700Y43516D01*
Y44000D01*
D02*
G37*
G36*
X126183D02*
X125700D01*
Y43516D01*
X125823Y43567D01*
X126133Y43877D01*
X126183Y44000D01*
D02*
G37*
G36*
X124700D02*
X124216D01*
X124267Y43877D01*
X124577Y43567D01*
X124700Y43516D01*
Y44000D01*
D02*
G37*
G36*
X121184D02*
X120700D01*
Y43516D01*
X120823Y43567D01*
X121133Y43877D01*
X121184Y44000D01*
D02*
G37*
G36*
X119700D02*
X119217D01*
X119267Y43877D01*
X119577Y43567D01*
X119700Y43516D01*
Y44000D01*
D02*
G37*
G36*
X116183D02*
X115700D01*
Y43516D01*
X115823Y43567D01*
X116132Y43877D01*
X116183Y44000D01*
D02*
G37*
G36*
X114700D02*
X114216D01*
X114268Y43877D01*
X114577Y43567D01*
X114700Y43516D01*
Y44000D01*
D02*
G37*
G36*
X111184D02*
X110700D01*
Y43516D01*
X110823Y43567D01*
X111133Y43877D01*
X111184Y44000D01*
D02*
G37*
G36*
X109700D02*
X109216D01*
X109267Y43877D01*
X109577Y43567D01*
X109700Y43516D01*
Y44000D01*
D02*
G37*
G36*
X106184D02*
X105700D01*
Y43516D01*
X105823Y43567D01*
X106132Y43877D01*
X106184Y44000D01*
D02*
G37*
G36*
X104700D02*
X104217D01*
X104268Y43877D01*
X104577Y43567D01*
X104700Y43516D01*
Y44000D01*
D02*
G37*
G36*
X101183D02*
X100700D01*
Y43516D01*
X100823Y43567D01*
X101133Y43877D01*
X101183Y44000D01*
D02*
G37*
G36*
X99700D02*
X99217D01*
X99268Y43877D01*
X99577Y43567D01*
X99700Y43516D01*
Y44000D01*
D02*
G37*
G36*
X96184D02*
X95700D01*
Y43516D01*
X95823Y43567D01*
X96132Y43877D01*
X96184Y44000D01*
D02*
G37*
G36*
X94700D02*
X94217D01*
X94267Y43877D01*
X94577Y43567D01*
X94700Y43516D01*
Y44000D01*
D02*
G37*
G36*
X91184D02*
X90700D01*
Y43516D01*
X90823Y43567D01*
X91132Y43877D01*
X91184Y44000D01*
D02*
G37*
G36*
X89700D02*
X89217D01*
X89267Y43877D01*
X89577Y43567D01*
X89700Y43516D01*
Y44000D01*
D02*
G37*
G36*
X86184D02*
X85700D01*
Y43516D01*
X85823Y43567D01*
X86133Y43877D01*
X86184Y44000D01*
D02*
G37*
G36*
X84700D02*
X84216D01*
X84267Y43877D01*
X84577Y43567D01*
X84700Y43516D01*
Y44000D01*
D02*
G37*
G36*
X81183D02*
X80700D01*
Y43516D01*
X80823Y43567D01*
X81133Y43877D01*
X81183Y44000D01*
D02*
G37*
G36*
X79700D02*
X79216D01*
X79268Y43877D01*
X79577Y43567D01*
X79700Y43516D01*
Y44000D01*
D02*
G37*
G36*
X76183D02*
X75700D01*
Y43516D01*
X75823Y43567D01*
X76133Y43877D01*
X76183Y44000D01*
D02*
G37*
G36*
X74700D02*
X74217D01*
X74268Y43877D01*
X74577Y43567D01*
X74700Y43516D01*
Y44000D01*
D02*
G37*
G36*
X71184D02*
X70700D01*
Y43516D01*
X70823Y43567D01*
X71132Y43877D01*
X71184Y44000D01*
D02*
G37*
G36*
X69700D02*
X69217D01*
X69267Y43877D01*
X69577Y43567D01*
X69700Y43516D01*
Y44000D01*
D02*
G37*
G36*
X66184D02*
X65700D01*
Y43516D01*
X65823Y43567D01*
X66132Y43877D01*
X66184Y44000D01*
D02*
G37*
G36*
X64700D02*
X64217D01*
X64267Y43877D01*
X64577Y43567D01*
X64700Y43516D01*
Y44000D01*
D02*
G37*
G36*
X61184D02*
X60700D01*
Y43516D01*
X60823Y43567D01*
X61133Y43877D01*
X61184Y44000D01*
D02*
G37*
G36*
X59700D02*
X59216D01*
X59267Y43877D01*
X59577Y43567D01*
X59700Y43516D01*
Y44000D01*
D02*
G37*
G36*
X56183D02*
X55700D01*
Y43516D01*
X55823Y43567D01*
X56133Y43877D01*
X56183Y44000D01*
D02*
G37*
G36*
X54700D02*
X54216D01*
X54268Y43877D01*
X54577Y43567D01*
X54700Y43516D01*
Y44000D01*
D02*
G37*
G36*
X51183D02*
X50700D01*
Y43516D01*
X50823Y43567D01*
X51133Y43877D01*
X51183Y44000D01*
D02*
G37*
G36*
X49700D02*
X49216D01*
X49268Y43877D01*
X49577Y43567D01*
X49700Y43516D01*
Y44000D01*
D02*
G37*
G36*
X46183D02*
X45700D01*
Y43516D01*
X45823Y43567D01*
X46132Y43877D01*
X46183Y44000D01*
D02*
G37*
G36*
X44700D02*
X44216D01*
X44267Y43877D01*
X44577Y43567D01*
X44700Y43516D01*
Y44000D01*
D02*
G37*
G36*
X41184D02*
X40700D01*
Y43516D01*
X40823Y43567D01*
X41133Y43877D01*
X41184Y44000D01*
D02*
G37*
G36*
X39700D02*
X39217D01*
X39268Y43877D01*
X39577Y43567D01*
X39700Y43516D01*
Y44000D01*
D02*
G37*
G36*
X36184D02*
X35700D01*
Y43516D01*
X35823Y43567D01*
X36132Y43877D01*
X36184Y44000D01*
D02*
G37*
G36*
X34700D02*
X34216D01*
X34268Y43877D01*
X34577Y43567D01*
X34700Y43516D01*
Y44000D01*
D02*
G37*
G36*
X31183D02*
X30700D01*
Y43516D01*
X30823Y43567D01*
X31133Y43877D01*
X31183Y44000D01*
D02*
G37*
G36*
X29700D02*
X29217D01*
X29267Y43877D01*
X29577Y43567D01*
X29700Y43516D01*
Y44000D01*
D02*
G37*
G36*
X26184D02*
X25700D01*
Y43516D01*
X25823Y43567D01*
X26133Y43877D01*
X26184Y44000D01*
D02*
G37*
G36*
X24700D02*
X24216D01*
X24268Y43877D01*
X24577Y43567D01*
X24700Y43516D01*
Y44000D01*
D02*
G37*
G36*
X21183D02*
X20700D01*
Y43516D01*
X20823Y43567D01*
X21133Y43877D01*
X21183Y44000D01*
D02*
G37*
G36*
X19700D02*
X19217D01*
X19267Y43877D01*
X19577Y43567D01*
X19700Y43516D01*
Y44000D01*
D02*
G37*
G36*
X179084Y43500D02*
X178600D01*
Y43016D01*
X178723Y43067D01*
X179033Y43377D01*
X179084Y43500D01*
D02*
G37*
G36*
X177600D02*
X177117D01*
X177167Y43377D01*
X177477Y43067D01*
X177600Y43016D01*
Y43500D01*
D02*
G37*
G36*
X172484Y43400D02*
X172000D01*
Y42917D01*
X172123Y42968D01*
X172432Y43277D01*
X172484Y43400D01*
D02*
G37*
G36*
X171000D02*
X170517D01*
X170568Y43277D01*
X170877Y42968D01*
X171000Y42917D01*
Y43400D01*
D02*
G37*
G36*
X166384D02*
X165900D01*
Y42917D01*
X166023Y42968D01*
X166332Y43277D01*
X166384Y43400D01*
D02*
G37*
G36*
X164900D02*
X164417D01*
X164468Y43277D01*
X164777Y42968D01*
X164900Y42917D01*
Y43400D01*
D02*
G37*
G36*
X185800Y40784D02*
Y40300D01*
X186284D01*
X186232Y40423D01*
X185923Y40732D01*
X185800Y40784D01*
D02*
G37*
G36*
X184800D02*
X184677Y40732D01*
X184368Y40423D01*
X184317Y40300D01*
X184800D01*
Y40784D01*
D02*
G37*
G36*
X170495Y40492D02*
Y40008D01*
X170978D01*
X170927Y40131D01*
X170618Y40441D01*
X170495Y40492D01*
D02*
G37*
G36*
X169495D02*
X169371Y40441D01*
X169062Y40131D01*
X169011Y40008D01*
X169495D01*
Y40492D01*
D02*
G37*
G36*
X167300Y40483D02*
Y40000D01*
X167783D01*
X167733Y40123D01*
X167423Y40433D01*
X167300Y40483D01*
D02*
G37*
G36*
X166300D02*
X166177Y40433D01*
X165867Y40123D01*
X165816Y40000D01*
X166300D01*
Y40483D01*
D02*
G37*
G36*
X162800D02*
Y40000D01*
X163284D01*
X163233Y40123D01*
X162923Y40433D01*
X162800Y40483D01*
D02*
G37*
G36*
X161800D02*
X161677Y40433D01*
X161367Y40123D01*
X161317Y40000D01*
X161800D01*
Y40483D01*
D02*
G37*
G36*
X158100D02*
Y40000D01*
X158583D01*
X158533Y40123D01*
X158223Y40433D01*
X158100Y40483D01*
D02*
G37*
G36*
X157100D02*
X156977Y40433D01*
X156667Y40123D01*
X156616Y40000D01*
X157100D01*
Y40483D01*
D02*
G37*
G36*
X148200D02*
Y40000D01*
X148684D01*
X148633Y40123D01*
X148323Y40433D01*
X148200Y40483D01*
D02*
G37*
G36*
X147200D02*
X147077Y40433D01*
X146767Y40123D01*
X146716Y40000D01*
X147200D01*
Y40483D01*
D02*
G37*
G36*
X143200D02*
Y40000D01*
X143684D01*
X143632Y40123D01*
X143323Y40433D01*
X143200Y40483D01*
D02*
G37*
G36*
X142200D02*
X142077Y40433D01*
X141768Y40123D01*
X141717Y40000D01*
X142200D01*
Y40483D01*
D02*
G37*
G36*
X138200D02*
Y40000D01*
X138683D01*
X138633Y40123D01*
X138323Y40433D01*
X138200Y40483D01*
D02*
G37*
G36*
X137200D02*
X137077Y40433D01*
X136767Y40123D01*
X136716Y40000D01*
X137200D01*
Y40483D01*
D02*
G37*
G36*
X133200D02*
Y40000D01*
X133684D01*
X133633Y40123D01*
X133323Y40433D01*
X133200Y40483D01*
D02*
G37*
G36*
X132200D02*
X132077Y40433D01*
X131767Y40123D01*
X131717Y40000D01*
X132200D01*
Y40483D01*
D02*
G37*
G36*
X128200D02*
Y40000D01*
X128683D01*
X128632Y40123D01*
X128323Y40433D01*
X128200Y40483D01*
D02*
G37*
G36*
X127200D02*
X127077Y40433D01*
X126768Y40123D01*
X126716Y40000D01*
X127200D01*
Y40483D01*
D02*
G37*
G36*
X123200D02*
Y40000D01*
X123684D01*
X123633Y40123D01*
X123323Y40433D01*
X123200Y40483D01*
D02*
G37*
G36*
X122200D02*
X122077Y40433D01*
X121767Y40123D01*
X121716Y40000D01*
X122200D01*
Y40483D01*
D02*
G37*
G36*
X118200D02*
Y40000D01*
X118684D01*
X118632Y40123D01*
X118323Y40433D01*
X118200Y40483D01*
D02*
G37*
G36*
X117200D02*
X117077Y40433D01*
X116768Y40123D01*
X116717Y40000D01*
X117200D01*
Y40483D01*
D02*
G37*
G36*
X113200D02*
Y40000D01*
X113683D01*
X113633Y40123D01*
X113323Y40433D01*
X113200Y40483D01*
D02*
G37*
G36*
X112200D02*
X112077Y40433D01*
X111767Y40123D01*
X111716Y40000D01*
X112200D01*
Y40483D01*
D02*
G37*
G36*
X108200D02*
Y40000D01*
X108684D01*
X108633Y40123D01*
X108323Y40433D01*
X108200Y40483D01*
D02*
G37*
G36*
X107200D02*
X107077Y40433D01*
X106767Y40123D01*
X106717Y40000D01*
X107200D01*
Y40483D01*
D02*
G37*
G36*
X103200D02*
Y40000D01*
X103683D01*
X103632Y40123D01*
X103323Y40433D01*
X103200Y40483D01*
D02*
G37*
G36*
X102200D02*
X102077Y40433D01*
X101768Y40123D01*
X101716Y40000D01*
X102200D01*
Y40483D01*
D02*
G37*
G36*
X98200D02*
Y40000D01*
X98684D01*
X98633Y40123D01*
X98323Y40433D01*
X98200Y40483D01*
D02*
G37*
G36*
X97200D02*
X97077Y40433D01*
X96767Y40123D01*
X96716Y40000D01*
X97200D01*
Y40483D01*
D02*
G37*
G36*
X93200D02*
Y40000D01*
X93683D01*
X93633Y40123D01*
X93323Y40433D01*
X93200Y40483D01*
D02*
G37*
G36*
X92200D02*
X92077Y40433D01*
X91768Y40123D01*
X91716Y40000D01*
X92200D01*
Y40483D01*
D02*
G37*
G36*
X88200D02*
Y40000D01*
X88683D01*
X88633Y40123D01*
X88323Y40433D01*
X88200Y40483D01*
D02*
G37*
G36*
X87200D02*
X87077Y40433D01*
X86768Y40123D01*
X86717Y40000D01*
X87200D01*
Y40483D01*
D02*
G37*
G36*
X83200D02*
Y40000D01*
X83684D01*
X83632Y40123D01*
X83323Y40433D01*
X83200Y40483D01*
D02*
G37*
G36*
X82200D02*
X82077Y40433D01*
X81767Y40123D01*
X81717Y40000D01*
X82200D01*
Y40483D01*
D02*
G37*
G36*
X78200D02*
Y40000D01*
X78684D01*
X78632Y40123D01*
X78323Y40433D01*
X78200Y40483D01*
D02*
G37*
G36*
X77200D02*
X77077Y40433D01*
X76767Y40123D01*
X76717Y40000D01*
X77200D01*
Y40483D01*
D02*
G37*
G36*
X73200D02*
Y40000D01*
X73684D01*
X73633Y40123D01*
X73323Y40433D01*
X73200Y40483D01*
D02*
G37*
G36*
X72200D02*
X72077Y40433D01*
X71767Y40123D01*
X71716Y40000D01*
X72200D01*
Y40483D01*
D02*
G37*
G36*
X68200D02*
Y40000D01*
X68683D01*
X68633Y40123D01*
X68323Y40433D01*
X68200Y40483D01*
D02*
G37*
G36*
X67200D02*
X67077Y40433D01*
X66768Y40123D01*
X66716Y40000D01*
X67200D01*
Y40483D01*
D02*
G37*
G36*
X63200D02*
Y40000D01*
X63683D01*
X63633Y40123D01*
X63323Y40433D01*
X63200Y40483D01*
D02*
G37*
G36*
X62200D02*
X62077Y40433D01*
X61768Y40123D01*
X61717Y40000D01*
X62200D01*
Y40483D01*
D02*
G37*
G36*
X58200D02*
Y40000D01*
X58684D01*
X58632Y40123D01*
X58323Y40433D01*
X58200Y40483D01*
D02*
G37*
G36*
X57200D02*
X57077Y40433D01*
X56767Y40123D01*
X56717Y40000D01*
X57200D01*
Y40483D01*
D02*
G37*
G36*
X53200D02*
Y40000D01*
X53684D01*
X53632Y40123D01*
X53323Y40433D01*
X53200Y40483D01*
D02*
G37*
G36*
X52200D02*
X52077Y40433D01*
X51767Y40123D01*
X51717Y40000D01*
X52200D01*
Y40483D01*
D02*
G37*
G36*
X48200D02*
Y40000D01*
X48684D01*
X48632Y40123D01*
X48323Y40433D01*
X48200Y40483D01*
D02*
G37*
G36*
X47200D02*
X47077Y40433D01*
X46768Y40123D01*
X46716Y40000D01*
X47200D01*
Y40483D01*
D02*
G37*
G36*
X43200D02*
Y40000D01*
X43683D01*
X43633Y40123D01*
X43323Y40433D01*
X43200Y40483D01*
D02*
G37*
G36*
X42200D02*
X42077Y40433D01*
X41767Y40123D01*
X41717Y40000D01*
X42200D01*
Y40483D01*
D02*
G37*
G36*
X38200D02*
Y40000D01*
X38684D01*
X38633Y40123D01*
X38323Y40433D01*
X38200Y40483D01*
D02*
G37*
G36*
X37200D02*
X37077Y40433D01*
X36768Y40123D01*
X36716Y40000D01*
X37200D01*
Y40483D01*
D02*
G37*
G36*
X33200D02*
Y40000D01*
X33683D01*
X33632Y40123D01*
X33323Y40433D01*
X33200Y40483D01*
D02*
G37*
G36*
X32200D02*
X32077Y40433D01*
X31767Y40123D01*
X31716Y40000D01*
X32200D01*
Y40483D01*
D02*
G37*
G36*
X28200D02*
Y40000D01*
X28684D01*
X28633Y40123D01*
X28323Y40433D01*
X28200Y40483D01*
D02*
G37*
G36*
X27200D02*
X27077Y40433D01*
X26768Y40123D01*
X26717Y40000D01*
X27200D01*
Y40483D01*
D02*
G37*
G36*
X23200D02*
Y40000D01*
X23684D01*
X23632Y40123D01*
X23323Y40433D01*
X23200Y40483D01*
D02*
G37*
G36*
X22200D02*
X22077Y40433D01*
X21768Y40123D01*
X21716Y40000D01*
X22200D01*
Y40483D01*
D02*
G37*
G36*
X18000D02*
Y40000D01*
X18484D01*
X18432Y40123D01*
X18123Y40433D01*
X18000Y40483D01*
D02*
G37*
G36*
X17000D02*
X16877Y40433D01*
X16567Y40123D01*
X16517Y40000D01*
X17000D01*
Y40483D01*
D02*
G37*
G36*
X175300Y40383D02*
Y39900D01*
X175784D01*
X175733Y40023D01*
X175423Y40332D01*
X175300Y40383D01*
D02*
G37*
G36*
X174300D02*
X174177Y40332D01*
X173867Y40023D01*
X173817Y39900D01*
X174300D01*
Y40383D01*
D02*
G37*
%LPD*%
D169*
X7200Y242200D02*
D03*
X66400Y61200D02*
D03*
D172*
X13130Y107098D02*
D03*
Y87414D02*
D03*
D173*
X2500Y111036D02*
D03*
Y83477D02*
D03*
D175*
X151800Y200700D02*
D03*
D176*
X83736Y268700D02*
D03*
D177*
X209600Y224100D02*
D03*
X203900Y188900D02*
D03*
X212400Y216600D02*
D03*
X170673Y249473D02*
D03*
X196900Y176110D02*
D03*
X223300Y167300D02*
D03*
X11200Y216500D02*
D03*
X181700Y238100D02*
D03*
X169100Y243200D02*
D03*
X148265Y261234D02*
D03*
X186100Y248400D02*
D03*
X192900Y248000D02*
D03*
X213400Y227000D02*
D03*
X167343Y218707D02*
D03*
X147100Y227500D02*
D03*
X37600Y269500D02*
D03*
X144293Y216906D02*
D03*
X146900Y272500D02*
D03*
X191483Y219003D02*
D03*
X191743Y227407D02*
D03*
X197600Y161800D02*
D03*
X55400Y123407D02*
D03*
X32300Y121100D02*
D03*
X31500Y155100D02*
D03*
X20722Y159015D02*
D03*
X20743Y112091D02*
D03*
X8500Y81500D02*
D03*
X57694Y166350D02*
D03*
X51400Y100100D02*
D03*
X43600Y112700D02*
D03*
X76800Y223500D02*
D03*
X23397Y239500D02*
D03*
X85831Y214900D02*
D03*
X61704Y157899D02*
D03*
X76934Y164230D02*
D03*
X71169Y171500D02*
D03*
X162100Y82200D02*
D03*
X23500Y220600D02*
D03*
X23600Y230250D02*
D03*
X51270Y187657D02*
D03*
X6000Y55500D02*
D03*
X59032Y70200D02*
D03*
X50500Y91000D02*
D03*
X34300Y86196D02*
D03*
X35437Y98247D02*
D03*
X34300Y77297D02*
D03*
X35100Y70200D02*
D03*
X44000Y53563D02*
D03*
X43700Y61563D02*
D03*
X74500Y115959D02*
D03*
X150200Y49400D02*
D03*
X100284Y177300D02*
D03*
X119984Y168450D02*
D03*
X123600Y185500D02*
D03*
X168900Y173800D02*
D03*
X121597Y194103D02*
D03*
X79897Y193803D02*
D03*
X82797Y190903D02*
D03*
X76997D02*
D03*
X82797Y196703D02*
D03*
X76997D02*
D03*
X105297Y189003D02*
D03*
X103300Y222100D02*
D03*
X57910Y222300D02*
D03*
X85300Y137500D02*
D03*
X121100Y137900D02*
D03*
X128600Y78300D02*
D03*
X191000Y251300D02*
D03*
X172100Y178900D02*
D03*
X12300Y39500D02*
D03*
X17500D02*
D03*
X169995Y39508D02*
D03*
X166800Y39500D02*
D03*
X145300Y59500D02*
D03*
X167200Y49500D02*
D03*
X145300Y87100D02*
D03*
Y92500D02*
D03*
X85300Y126500D02*
D03*
X84600Y92200D02*
D03*
X150100Y94000D02*
D03*
X145300Y81900D02*
D03*
X150200Y84500D02*
D03*
X150100Y89000D02*
D03*
X69200Y132200D02*
D03*
X82291Y124309D02*
D03*
X178100Y44000D02*
D03*
X185300Y39800D02*
D03*
X185600Y44500D02*
D03*
X185500Y54500D02*
D03*
X182500Y49500D02*
D03*
X182400Y59400D02*
D03*
X174800Y39400D02*
D03*
X161500Y44500D02*
D03*
X171500Y43900D02*
D03*
X165400D02*
D03*
X157600Y39500D02*
D03*
X157100Y44500D02*
D03*
X162300Y39500D02*
D03*
X162100Y77100D02*
D03*
Y72100D02*
D03*
Y67100D02*
D03*
X157300Y84600D02*
D03*
X157200Y74600D02*
D03*
X157100Y64600D02*
D03*
X150300Y59500D02*
D03*
X177200D02*
D03*
X179700Y54500D02*
D03*
X177200Y49500D02*
D03*
X172200Y59500D02*
D03*
X174700Y54500D02*
D03*
X172200Y49500D02*
D03*
X167200Y59500D02*
D03*
X169700Y54500D02*
D03*
X162200Y59500D02*
D03*
X164700Y54500D02*
D03*
X162200Y49500D02*
D03*
X157200Y79500D02*
D03*
Y69500D02*
D03*
Y59500D02*
D03*
X159700Y54500D02*
D03*
X157200Y49500D02*
D03*
X145300Y76800D02*
D03*
Y70700D02*
D03*
X150200Y79500D02*
D03*
Y74500D02*
D03*
Y54500D02*
D03*
Y44500D02*
D03*
X147700Y39500D02*
D03*
X145200Y64500D02*
D03*
Y54500D02*
D03*
X142700Y49500D02*
D03*
X145200Y44500D02*
D03*
X142700Y39500D02*
D03*
X140200Y54500D02*
D03*
X137700Y49500D02*
D03*
X140200Y44500D02*
D03*
X137700Y39500D02*
D03*
X135200Y44500D02*
D03*
X132700Y39500D02*
D03*
X130200Y44500D02*
D03*
X127700Y39500D02*
D03*
X125200Y44500D02*
D03*
X122700Y39500D02*
D03*
X120200Y44500D02*
D03*
X117700Y39500D02*
D03*
X115200Y44500D02*
D03*
X112700Y39500D02*
D03*
X110200Y44500D02*
D03*
X107700Y39500D02*
D03*
X105200Y44500D02*
D03*
X102700Y39500D02*
D03*
X100200Y44500D02*
D03*
X97700Y39500D02*
D03*
X95200Y44500D02*
D03*
X92700Y39500D02*
D03*
X90200Y44500D02*
D03*
X87700Y39500D02*
D03*
X85200Y44500D02*
D03*
X82700Y39500D02*
D03*
X80200Y44500D02*
D03*
X77700Y39500D02*
D03*
X75200Y44500D02*
D03*
X72700Y39500D02*
D03*
X70200Y44500D02*
D03*
X67700Y39500D02*
D03*
X65200Y44500D02*
D03*
X62700Y39500D02*
D03*
X60200Y44500D02*
D03*
X57700Y39500D02*
D03*
X55200Y44500D02*
D03*
X52700Y39500D02*
D03*
X50200Y44500D02*
D03*
X47700Y39500D02*
D03*
X45200Y44500D02*
D03*
X42700Y39500D02*
D03*
X40200Y44500D02*
D03*
X37700Y39500D02*
D03*
X35200Y44500D02*
D03*
X32700Y39500D02*
D03*
X30200Y44500D02*
D03*
X27700Y39500D02*
D03*
X25200Y44500D02*
D03*
X22700Y39500D02*
D03*
X20200Y44500D02*
D03*
X173200Y152800D02*
D03*
X165431Y156100D02*
D03*
X165400Y152900D02*
D03*
X153000Y157700D02*
D03*
X156800Y153500D02*
D03*
X152900Y153600D02*
D03*
X174900Y257800D02*
D03*
X200000Y131800D02*
D03*
Y128400D02*
D03*
X193800Y112300D02*
D03*
X186100Y112349D02*
D03*
X183200Y74000D02*
D03*
Y82700D02*
D03*
X129000Y94100D02*
D03*
X109449Y101149D02*
D03*
X111400Y79500D02*
D03*
X101772Y107472D02*
D03*
X86000Y108700D02*
D03*
X14500Y55400D02*
D03*
X148700Y104000D02*
D03*
X164700D02*
D03*
X159700D02*
D03*
X154200D02*
D03*
X164700Y109000D02*
D03*
X159700D02*
D03*
X154200D02*
D03*
X148700D02*
D03*
X164700Y114500D02*
D03*
X159700D02*
D03*
X154200D02*
D03*
X164700Y120000D02*
D03*
X159700D02*
D03*
X154200D02*
D03*
D178*
X148700D02*
D03*
Y114500D02*
D03*
M02*
