G04*
G04 #@! TF.GenerationSoftware,Altium Limited,Altium Designer,22.10.1 (41)*
G04*
G04 Layer_Color=16711935*
%FSLAX25Y25*%
%MOIN*%
G70*
G04*
G04 #@! TF.SameCoordinates,9C36EEA6-3C32-4AFD-A68D-23D06756630B*
G04*
G04*
G04 #@! TF.FilePolarity,Negative*
G04*
G01*
G75*
%ADD152C,0.07296*%
G04:AMPARAMS|DCode=153|XSize=72.96mil|YSize=72.96mil|CornerRadius=20.24mil|HoleSize=0mil|Usage=FLASHONLY|Rotation=90.000|XOffset=0mil|YOffset=0mil|HoleType=Round|Shape=RoundedRectangle|*
%AMROUNDEDRECTD153*
21,1,0.07296,0.03248,0,0,90.0*
21,1,0.03248,0.07296,0,0,90.0*
1,1,0.04048,0.01624,0.01624*
1,1,0.04048,0.01624,-0.01624*
1,1,0.04048,-0.01624,-0.01624*
1,1,0.04048,-0.01624,0.01624*
%
%ADD153ROUNDEDRECTD153*%
%ADD154C,0.12217*%
%ADD155O,0.04000X0.05918*%
%ADD156O,0.06902X0.04000*%
%ADD157C,0.05918*%
G04:AMPARAMS|DCode=158|XSize=68mil|YSize=68mil|CornerRadius=19mil|HoleSize=0mil|Usage=FLASHONLY|Rotation=0.000|XOffset=0mil|YOffset=0mil|HoleType=Round|Shape=RoundedRectangle|*
%AMROUNDEDRECTD158*
21,1,0.06800,0.03000,0,0,0.0*
21,1,0.03000,0.06800,0,0,0.0*
1,1,0.03800,0.01500,-0.01500*
1,1,0.03800,-0.01500,-0.01500*
1,1,0.03800,-0.01500,0.01500*
1,1,0.03800,0.01500,0.01500*
%
%ADD158ROUNDEDRECTD158*%
%ADD159C,0.06800*%
D152*
X7200Y242200D02*
D03*
X127397Y213303D02*
D03*
Y223303D02*
D03*
X66400Y71200D02*
D03*
Y61200D02*
D03*
D153*
X7200Y232200D02*
D03*
X127397Y203303D02*
D03*
X66400Y81200D02*
D03*
D154*
X137700Y267300D02*
D03*
X218800Y91200D02*
D03*
X7900Y46300D02*
D03*
D155*
X13130Y107098D02*
D03*
Y87414D02*
D03*
D156*
X2500Y111036D02*
D03*
Y83477D02*
D03*
D157*
X11480Y178300D02*
D03*
Y197985D02*
D03*
D158*
X113736Y268700D02*
D03*
X151800Y200700D02*
D03*
D159*
X103736Y268700D02*
D03*
X93736D02*
D03*
X83736D02*
D03*
X201800Y200700D02*
D03*
X191800D02*
D03*
X181800D02*
D03*
X171800D02*
D03*
X161800D02*
D03*
M02*
