G04*
G04 #@! TF.GenerationSoftware,Altium Limited,Altium Designer,22.10.1 (41)*
G04*
G04 Layer_Color=8421504*
%FSLAX25Y25*%
%MOIN*%
G70*
G04*
G04 #@! TF.SameCoordinates,9C36EEA6-3C32-4AFD-A68D-23D06756630B*
G04*
G04*
G04 #@! TF.FilePolarity,Positive*
G04*
G01*
G75*
%ADD19C,0.00000*%
G04:AMPARAMS|DCode=20|XSize=40mil|YSize=170mil|CornerRadius=10mil|HoleSize=0mil|Usage=FLASHONLY|Rotation=270.000|XOffset=0mil|YOffset=0mil|HoleType=Round|Shape=RoundedRectangle|*
%AMROUNDEDRECTD20*
21,1,0.04000,0.15000,0,0,270.0*
21,1,0.02000,0.17000,0,0,270.0*
1,1,0.02000,-0.07500,-0.01000*
1,1,0.02000,-0.07500,0.01000*
1,1,0.02000,0.07500,0.01000*
1,1,0.02000,0.07500,-0.01000*
%
%ADD20ROUNDEDRECTD20*%
%ADD21R,0.17000X0.04000*%
G04:AMPARAMS|DCode=22|XSize=35.43mil|YSize=35.43mil|CornerRadius=8.86mil|HoleSize=0mil|Usage=FLASHONLY|Rotation=0.000|XOffset=0mil|YOffset=0mil|HoleType=Round|Shape=RoundedRectangle|*
%AMROUNDEDRECTD22*
21,1,0.03543,0.01772,0,0,0.0*
21,1,0.01772,0.03543,0,0,0.0*
1,1,0.01772,0.00886,-0.00886*
1,1,0.01772,-0.00886,-0.00886*
1,1,0.01772,-0.00886,0.00886*
1,1,0.01772,0.00886,0.00886*
%
%ADD22ROUNDEDRECTD22*%
G04:AMPARAMS|DCode=23|XSize=35.43mil|YSize=35.43mil|CornerRadius=8.86mil|HoleSize=0mil|Usage=FLASHONLY|Rotation=90.000|XOffset=0mil|YOffset=0mil|HoleType=Round|Shape=RoundedRectangle|*
%AMROUNDEDRECTD23*
21,1,0.03543,0.01772,0,0,90.0*
21,1,0.01772,0.03543,0,0,90.0*
1,1,0.01772,0.00886,0.00886*
1,1,0.01772,0.00886,-0.00886*
1,1,0.01772,-0.00886,-0.00886*
1,1,0.01772,-0.00886,0.00886*
%
%ADD23ROUNDEDRECTD23*%
G04:AMPARAMS|DCode=24|XSize=35.43mil|YSize=35.43mil|CornerRadius=8.86mil|HoleSize=0mil|Usage=FLASHONLY|Rotation=45.000|XOffset=0mil|YOffset=0mil|HoleType=Round|Shape=RoundedRectangle|*
%AMROUNDEDRECTD24*
21,1,0.03543,0.01772,0,0,45.0*
21,1,0.01772,0.03543,0,0,45.0*
1,1,0.01772,0.01253,0.00000*
1,1,0.01772,0.00000,-0.01253*
1,1,0.01772,-0.01253,0.00000*
1,1,0.01772,0.00000,0.01253*
%
%ADD24ROUNDEDRECTD24*%
%ADD25R,0.04000X0.17000*%
G04:AMPARAMS|DCode=26|XSize=40mil|YSize=170mil|CornerRadius=10mil|HoleSize=0mil|Usage=FLASHONLY|Rotation=180.000|XOffset=0mil|YOffset=0mil|HoleType=Round|Shape=RoundedRectangle|*
%AMROUNDEDRECTD26*
21,1,0.04000,0.15000,0,0,180.0*
21,1,0.02000,0.17000,0,0,180.0*
1,1,0.02000,-0.01000,0.07500*
1,1,0.02000,0.01000,0.07500*
1,1,0.02000,0.01000,-0.07500*
1,1,0.02000,-0.01000,-0.07500*
%
%ADD26ROUNDEDRECTD26*%
G04:AMPARAMS|DCode=27|XSize=47.24mil|YSize=39.37mil|CornerRadius=9.84mil|HoleSize=0mil|Usage=FLASHONLY|Rotation=0.000|XOffset=0mil|YOffset=0mil|HoleType=Round|Shape=RoundedRectangle|*
%AMROUNDEDRECTD27*
21,1,0.04724,0.01968,0,0,0.0*
21,1,0.02756,0.03937,0,0,0.0*
1,1,0.01968,0.01378,-0.00984*
1,1,0.01968,-0.01378,-0.00984*
1,1,0.01968,-0.01378,0.00984*
1,1,0.01968,0.01378,0.00984*
%
%ADD27ROUNDEDRECTD27*%
G04:AMPARAMS|DCode=28|XSize=55.12mil|YSize=42mil|CornerRadius=10.5mil|HoleSize=0mil|Usage=FLASHONLY|Rotation=180.000|XOffset=0mil|YOffset=0mil|HoleType=Round|Shape=RoundedRectangle|*
%AMROUNDEDRECTD28*
21,1,0.05512,0.02100,0,0,180.0*
21,1,0.03412,0.04200,0,0,180.0*
1,1,0.02100,-0.01706,0.01050*
1,1,0.02100,0.01706,0.01050*
1,1,0.02100,0.01706,-0.01050*
1,1,0.02100,-0.01706,-0.01050*
%
%ADD28ROUNDEDRECTD28*%
%ADD29R,0.03150X0.03150*%
G04:AMPARAMS|DCode=30|XSize=31.5mil|YSize=31.5mil|CornerRadius=7.87mil|HoleSize=0mil|Usage=FLASHONLY|Rotation=90.000|XOffset=0mil|YOffset=0mil|HoleType=Round|Shape=RoundedRectangle|*
%AMROUNDEDRECTD30*
21,1,0.03150,0.01575,0,0,90.0*
21,1,0.01575,0.03150,0,0,90.0*
1,1,0.01575,0.00787,0.00787*
1,1,0.01575,0.00787,-0.00787*
1,1,0.01575,-0.00787,-0.00787*
1,1,0.01575,-0.00787,0.00787*
%
%ADD30ROUNDEDRECTD30*%
%ADD31R,0.05315X0.07874*%
G04:AMPARAMS|DCode=32|XSize=41.34mil|YSize=12.6mil|CornerRadius=3.15mil|HoleSize=0mil|Usage=FLASHONLY|Rotation=180.000|XOffset=0mil|YOffset=0mil|HoleType=Round|Shape=RoundedRectangle|*
%AMROUNDEDRECTD32*
21,1,0.04134,0.00630,0,0,180.0*
21,1,0.03504,0.01260,0,0,180.0*
1,1,0.00630,-0.01752,0.00315*
1,1,0.00630,0.01752,0.00315*
1,1,0.00630,0.01752,-0.00315*
1,1,0.00630,-0.01752,-0.00315*
%
%ADD32ROUNDEDRECTD32*%
%ADD33R,0.04134X0.01260*%
G04:AMPARAMS|DCode=34|XSize=15.75mil|YSize=53.15mil|CornerRadius=3.94mil|HoleSize=0mil|Usage=FLASHONLY|Rotation=270.000|XOffset=0mil|YOffset=0mil|HoleType=Round|Shape=RoundedRectangle|*
%AMROUNDEDRECTD34*
21,1,0.01575,0.04528,0,0,270.0*
21,1,0.00787,0.05315,0,0,270.0*
1,1,0.00787,-0.02264,-0.00394*
1,1,0.00787,-0.02264,0.00394*
1,1,0.00787,0.02264,0.00394*
1,1,0.00787,0.02264,-0.00394*
%
%ADD34ROUNDEDRECTD34*%
G04:AMPARAMS|DCode=35|XSize=59.06mil|YSize=61.02mil|CornerRadius=14.76mil|HoleSize=0mil|Usage=FLASHONLY|Rotation=270.000|XOffset=0mil|YOffset=0mil|HoleType=Round|Shape=RoundedRectangle|*
%AMROUNDEDRECTD35*
21,1,0.05906,0.03150,0,0,270.0*
21,1,0.02953,0.06102,0,0,270.0*
1,1,0.02953,-0.01575,-0.01476*
1,1,0.02953,-0.01575,0.01476*
1,1,0.02953,0.01575,0.01476*
1,1,0.02953,0.01575,-0.01476*
%
%ADD35ROUNDEDRECTD35*%
G04:AMPARAMS|DCode=36|XSize=47.24mil|YSize=39.37mil|CornerRadius=9.84mil|HoleSize=0mil|Usage=FLASHONLY|Rotation=90.000|XOffset=0mil|YOffset=0mil|HoleType=Round|Shape=RoundedRectangle|*
%AMROUNDEDRECTD36*
21,1,0.04724,0.01968,0,0,90.0*
21,1,0.02756,0.03937,0,0,90.0*
1,1,0.01968,0.00984,0.01378*
1,1,0.01968,0.00984,-0.01378*
1,1,0.01968,-0.00984,-0.01378*
1,1,0.01968,-0.00984,0.01378*
%
%ADD36ROUNDEDRECTD36*%
G04:AMPARAMS|DCode=37|XSize=10.24mil|YSize=33.86mil|CornerRadius=2.56mil|HoleSize=0mil|Usage=FLASHONLY|Rotation=0.000|XOffset=0mil|YOffset=0mil|HoleType=Round|Shape=RoundedRectangle|*
%AMROUNDEDRECTD37*
21,1,0.01024,0.02874,0,0,0.0*
21,1,0.00512,0.03386,0,0,0.0*
1,1,0.00512,0.00256,-0.01437*
1,1,0.00512,-0.00256,-0.01437*
1,1,0.00512,-0.00256,0.01437*
1,1,0.00512,0.00256,0.01437*
%
%ADD37ROUNDEDRECTD37*%
%ADD38R,0.01575X0.02559*%
G04:AMPARAMS|DCode=39|XSize=25.59mil|YSize=15.75mil|CornerRadius=3.94mil|HoleSize=0mil|Usage=FLASHONLY|Rotation=270.000|XOffset=0mil|YOffset=0mil|HoleType=Round|Shape=RoundedRectangle|*
%AMROUNDEDRECTD39*
21,1,0.02559,0.00787,0,0,270.0*
21,1,0.01772,0.01575,0,0,270.0*
1,1,0.00787,-0.00394,-0.00886*
1,1,0.00787,-0.00394,0.00886*
1,1,0.00787,0.00394,0.00886*
1,1,0.00787,0.00394,-0.00886*
%
%ADD39ROUNDEDRECTD39*%
G04:AMPARAMS|DCode=40|XSize=55.12mil|YSize=42mil|CornerRadius=10.5mil|HoleSize=0mil|Usage=FLASHONLY|Rotation=90.000|XOffset=0mil|YOffset=0mil|HoleType=Round|Shape=RoundedRectangle|*
%AMROUNDEDRECTD40*
21,1,0.05512,0.02100,0,0,90.0*
21,1,0.03412,0.04200,0,0,90.0*
1,1,0.02100,0.01050,0.01706*
1,1,0.02100,0.01050,-0.01706*
1,1,0.02100,-0.01050,-0.01706*
1,1,0.02100,-0.01050,0.01706*
%
%ADD40ROUNDEDRECTD40*%
%ADD41R,0.06693X0.06299*%
G04:AMPARAMS|DCode=42|XSize=62.99mil|YSize=66.93mil|CornerRadius=3.15mil|HoleSize=0mil|Usage=FLASHONLY|Rotation=90.000|XOffset=0mil|YOffset=0mil|HoleType=Round|Shape=RoundedRectangle|*
%AMROUNDEDRECTD42*
21,1,0.06299,0.06063,0,0,90.0*
21,1,0.05669,0.06693,0,0,90.0*
1,1,0.00630,0.03032,0.02835*
1,1,0.00630,0.03032,-0.02835*
1,1,0.00630,-0.03032,-0.02835*
1,1,0.00630,-0.03032,0.02835*
%
%ADD42ROUNDEDRECTD42*%
G04:AMPARAMS|DCode=43|XSize=74.8mil|YSize=70.87mil|CornerRadius=3.54mil|HoleSize=0mil|Usage=FLASHONLY|Rotation=90.000|XOffset=0mil|YOffset=0mil|HoleType=Round|Shape=RoundedRectangle|*
%AMROUNDEDRECTD43*
21,1,0.07480,0.06378,0,0,90.0*
21,1,0.06772,0.07087,0,0,90.0*
1,1,0.00709,0.03189,0.03386*
1,1,0.00709,0.03189,-0.03386*
1,1,0.00709,-0.03189,-0.03386*
1,1,0.00709,-0.03189,0.03386*
%
%ADD43ROUNDEDRECTD43*%
G04:AMPARAMS|DCode=44|XSize=78.74mil|YSize=59.06mil|CornerRadius=14.76mil|HoleSize=0mil|Usage=FLASHONLY|Rotation=90.000|XOffset=0mil|YOffset=0mil|HoleType=Round|Shape=RoundedRectangle|*
%AMROUNDEDRECTD44*
21,1,0.07874,0.02953,0,0,90.0*
21,1,0.04921,0.05906,0,0,90.0*
1,1,0.02953,0.01476,0.02461*
1,1,0.02953,0.01476,-0.02461*
1,1,0.02953,-0.01476,-0.02461*
1,1,0.02953,-0.01476,0.02461*
%
%ADD44ROUNDEDRECTD44*%
%ADD45R,0.05906X0.07874*%
G04:AMPARAMS|DCode=46|XSize=35.04mil|YSize=10.24mil|CornerRadius=1.28mil|HoleSize=0mil|Usage=FLASHONLY|Rotation=0.000|XOffset=0mil|YOffset=0mil|HoleType=Round|Shape=RoundedRectangle|*
%AMROUNDEDRECTD46*
21,1,0.03504,0.00768,0,0,0.0*
21,1,0.03248,0.01024,0,0,0.0*
1,1,0.00256,0.01624,-0.00384*
1,1,0.00256,-0.01624,-0.00384*
1,1,0.00256,-0.01624,0.00384*
1,1,0.00256,0.01624,0.00384*
%
%ADD46ROUNDEDRECTD46*%
G04:AMPARAMS|DCode=47|XSize=35.04mil|YSize=10.24mil|CornerRadius=1.28mil|HoleSize=0mil|Usage=FLASHONLY|Rotation=90.000|XOffset=0mil|YOffset=0mil|HoleType=Round|Shape=RoundedRectangle|*
%AMROUNDEDRECTD47*
21,1,0.03504,0.00768,0,0,90.0*
21,1,0.03248,0.01024,0,0,90.0*
1,1,0.00256,0.00384,0.01624*
1,1,0.00256,0.00384,-0.01624*
1,1,0.00256,-0.00384,-0.01624*
1,1,0.00256,-0.00384,0.01624*
%
%ADD47ROUNDEDRECTD47*%
%ADD48R,0.03504X0.01024*%
G04:AMPARAMS|DCode=49|XSize=110.24mil|YSize=68.9mil|CornerRadius=17.22mil|HoleSize=0mil|Usage=FLASHONLY|Rotation=90.000|XOffset=0mil|YOffset=0mil|HoleType=Round|Shape=RoundedRectangle|*
%AMROUNDEDRECTD49*
21,1,0.11024,0.03445,0,0,90.0*
21,1,0.07579,0.06890,0,0,90.0*
1,1,0.03445,0.01722,0.03789*
1,1,0.03445,0.01722,-0.03789*
1,1,0.03445,-0.01722,-0.03789*
1,1,0.03445,-0.01722,0.03789*
%
%ADD49ROUNDEDRECTD49*%
%ADD50R,0.04685X0.01575*%
G04:AMPARAMS|DCode=51|XSize=46.85mil|YSize=15.75mil|CornerRadius=1.97mil|HoleSize=0mil|Usage=FLASHONLY|Rotation=180.000|XOffset=0mil|YOffset=0mil|HoleType=Round|Shape=RoundedRectangle|*
%AMROUNDEDRECTD51*
21,1,0.04685,0.01181,0,0,180.0*
21,1,0.04291,0.01575,0,0,180.0*
1,1,0.00394,-0.02146,0.00591*
1,1,0.00394,0.02146,0.00591*
1,1,0.00394,0.02146,-0.00591*
1,1,0.00394,-0.02146,-0.00591*
%
%ADD51ROUNDEDRECTD51*%
G04:AMPARAMS|DCode=52|XSize=84.65mil|YSize=96.46mil|CornerRadius=21.16mil|HoleSize=0mil|Usage=FLASHONLY|Rotation=270.000|XOffset=0mil|YOffset=0mil|HoleType=Round|Shape=RoundedRectangle|*
%AMROUNDEDRECTD52*
21,1,0.08465,0.05413,0,0,270.0*
21,1,0.04232,0.09646,0,0,270.0*
1,1,0.04232,-0.02707,-0.02116*
1,1,0.04232,-0.02707,0.02116*
1,1,0.04232,0.02707,0.02116*
1,1,0.04232,0.02707,-0.02116*
%
%ADD52ROUNDEDRECTD52*%
%ADD53R,0.09646X0.08465*%
G04:AMPARAMS|DCode=54|XSize=130mil|YSize=50mil|CornerRadius=12.5mil|HoleSize=0mil|Usage=FLASHONLY|Rotation=90.000|XOffset=0mil|YOffset=0mil|HoleType=Round|Shape=RoundedRectangle|*
%AMROUNDEDRECTD54*
21,1,0.13000,0.02500,0,0,90.0*
21,1,0.10500,0.05000,0,0,90.0*
1,1,0.02500,0.01250,0.05250*
1,1,0.02500,0.01250,-0.05250*
1,1,0.02500,-0.01250,-0.05250*
1,1,0.02500,-0.01250,0.05250*
%
%ADD54ROUNDEDRECTD54*%
%ADD55R,0.05000X0.13000*%
G04:AMPARAMS|DCode=56|XSize=31.5mil|YSize=31.5mil|CornerRadius=7.87mil|HoleSize=0mil|Usage=FLASHONLY|Rotation=0.000|XOffset=0mil|YOffset=0mil|HoleType=Round|Shape=RoundedRectangle|*
%AMROUNDEDRECTD56*
21,1,0.03150,0.01575,0,0,0.0*
21,1,0.01575,0.03150,0,0,0.0*
1,1,0.01575,0.00787,-0.00787*
1,1,0.01575,-0.00787,-0.00787*
1,1,0.01575,-0.00787,0.00787*
1,1,0.01575,0.00787,0.00787*
%
%ADD56ROUNDEDRECTD56*%
%ADD57R,0.03150X0.03150*%
G04:AMPARAMS|DCode=58|XSize=90.55mil|YSize=62.99mil|CornerRadius=15.75mil|HoleSize=0mil|Usage=FLASHONLY|Rotation=90.000|XOffset=0mil|YOffset=0mil|HoleType=Round|Shape=RoundedRectangle|*
%AMROUNDEDRECTD58*
21,1,0.09055,0.03150,0,0,90.0*
21,1,0.05906,0.06299,0,0,90.0*
1,1,0.03150,0.01575,0.02953*
1,1,0.03150,0.01575,-0.02953*
1,1,0.03150,-0.01575,-0.02953*
1,1,0.03150,-0.01575,0.02953*
%
%ADD58ROUNDEDRECTD58*%
G04:AMPARAMS|DCode=59|XSize=24.41mil|YSize=25.98mil|CornerRadius=6.1mil|HoleSize=0mil|Usage=FLASHONLY|Rotation=90.000|XOffset=0mil|YOffset=0mil|HoleType=Round|Shape=RoundedRectangle|*
%AMROUNDEDRECTD59*
21,1,0.02441,0.01378,0,0,90.0*
21,1,0.01221,0.02598,0,0,90.0*
1,1,0.01221,0.00689,0.00610*
1,1,0.01221,0.00689,-0.00610*
1,1,0.01221,-0.00689,-0.00610*
1,1,0.01221,-0.00689,0.00610*
%
%ADD59ROUNDEDRECTD59*%
%ADD60R,0.04331X0.07480*%
G04:AMPARAMS|DCode=61|XSize=17.72mil|YSize=55.12mil|CornerRadius=0mil|HoleSize=0mil|Usage=FLASHONLY|Rotation=225.000|XOffset=0mil|YOffset=0mil|HoleType=Round|Shape=Rectangle|*
%AMROTATEDRECTD61*
4,1,4,-0.01322,0.02575,0.02575,-0.01322,0.01322,-0.02575,-0.02575,0.01322,-0.01322,0.02575,0.0*
%
%ADD61ROTATEDRECTD61*%

G04:AMPARAMS|DCode=62|XSize=17.72mil|YSize=55.12mil|CornerRadius=4.43mil|HoleSize=0mil|Usage=FLASHONLY|Rotation=225.000|XOffset=0mil|YOffset=0mil|HoleType=Round|Shape=RoundedRectangle|*
%AMROUNDEDRECTD62*
21,1,0.01772,0.04626,0,0,225.0*
21,1,0.00886,0.05512,0,0,225.0*
1,1,0.00886,-0.01949,0.01322*
1,1,0.00886,-0.01322,0.01949*
1,1,0.00886,0.01949,-0.01322*
1,1,0.00886,0.01322,-0.01949*
%
%ADD62ROUNDEDRECTD62*%
%ADD63R,0.07874X0.03150*%
%ADD64R,0.02800X0.01000*%
G04:AMPARAMS|DCode=65|XSize=28mil|YSize=10mil|CornerRadius=2.5mil|HoleSize=0mil|Usage=FLASHONLY|Rotation=0.000|XOffset=0mil|YOffset=0mil|HoleType=Round|Shape=RoundedRectangle|*
%AMROUNDEDRECTD65*
21,1,0.02800,0.00500,0,0,0.0*
21,1,0.02300,0.01000,0,0,0.0*
1,1,0.00500,0.01150,-0.00250*
1,1,0.00500,-0.01150,-0.00250*
1,1,0.00500,-0.01150,0.00250*
1,1,0.00500,0.01150,0.00250*
%
%ADD65ROUNDEDRECTD65*%
%ADD66R,0.03500X0.05100*%
G04:AMPARAMS|DCode=67|XSize=46.85mil|YSize=15.75mil|CornerRadius=1.97mil|HoleSize=0mil|Usage=FLASHONLY|Rotation=90.000|XOffset=0mil|YOffset=0mil|HoleType=Round|Shape=RoundedRectangle|*
%AMROUNDEDRECTD67*
21,1,0.04685,0.01181,0,0,90.0*
21,1,0.04291,0.01575,0,0,90.0*
1,1,0.00394,0.00591,0.02146*
1,1,0.00394,0.00591,-0.02146*
1,1,0.00394,-0.00591,-0.02146*
1,1,0.00394,-0.00591,0.02146*
%
%ADD67ROUNDEDRECTD67*%
%ADD68R,0.01575X0.04685*%
G04:AMPARAMS|DCode=69|XSize=29.92mil|YSize=94.49mil|CornerRadius=7.48mil|HoleSize=0mil|Usage=FLASHONLY|Rotation=270.000|XOffset=0mil|YOffset=0mil|HoleType=Round|Shape=RoundedRectangle|*
%AMROUNDEDRECTD69*
21,1,0.02992,0.07953,0,0,270.0*
21,1,0.01496,0.09449,0,0,270.0*
1,1,0.01496,-0.03976,-0.00748*
1,1,0.01496,-0.03976,0.00748*
1,1,0.01496,0.03976,0.00748*
1,1,0.01496,0.03976,-0.00748*
%
%ADD69ROUNDEDRECTD69*%
%ADD70R,0.09449X0.02992*%
%ADD71R,0.00984X0.02067*%
%ADD72R,0.01673X0.00984*%
G04:AMPARAMS|DCode=73|XSize=38.58mil|YSize=40.55mil|CornerRadius=9.65mil|HoleSize=0mil|Usage=FLASHONLY|Rotation=270.000|XOffset=0mil|YOffset=0mil|HoleType=Round|Shape=RoundedRectangle|*
%AMROUNDEDRECTD73*
21,1,0.03858,0.02126,0,0,270.0*
21,1,0.01929,0.04055,0,0,270.0*
1,1,0.01929,-0.01063,-0.00965*
1,1,0.01929,-0.01063,0.00965*
1,1,0.01929,0.01063,0.00965*
1,1,0.01929,0.01063,-0.00965*
%
%ADD73ROUNDEDRECTD73*%
%ADD74O,0.05315X0.01181*%
%ADD75R,0.05315X0.01181*%
G04:AMPARAMS|DCode=76|XSize=55.12mil|YSize=42mil|CornerRadius=10.5mil|HoleSize=0mil|Usage=FLASHONLY|Rotation=315.000|XOffset=0mil|YOffset=0mil|HoleType=Round|Shape=RoundedRectangle|*
%AMROUNDEDRECTD76*
21,1,0.05512,0.02100,0,0,315.0*
21,1,0.03412,0.04200,0,0,315.0*
1,1,0.02100,0.00464,-0.01949*
1,1,0.02100,-0.01949,0.00464*
1,1,0.02100,-0.00464,0.01949*
1,1,0.02100,0.01949,-0.00464*
%
%ADD76ROUNDEDRECTD76*%
G04:AMPARAMS|DCode=77|XSize=17.72mil|YSize=55.12mil|CornerRadius=4.43mil|HoleSize=0mil|Usage=FLASHONLY|Rotation=0.000|XOffset=0mil|YOffset=0mil|HoleType=Round|Shape=RoundedRectangle|*
%AMROUNDEDRECTD77*
21,1,0.01772,0.04626,0,0,0.0*
21,1,0.00886,0.05512,0,0,0.0*
1,1,0.00886,0.00443,-0.02313*
1,1,0.00886,-0.00443,-0.02313*
1,1,0.00886,-0.00443,0.02313*
1,1,0.00886,0.00443,0.02313*
%
%ADD77ROUNDEDRECTD77*%
%ADD78R,0.01772X0.05512*%
G04:AMPARAMS|DCode=79|XSize=24.41mil|YSize=25.98mil|CornerRadius=6.1mil|HoleSize=0mil|Usage=FLASHONLY|Rotation=0.000|XOffset=0mil|YOffset=0mil|HoleType=Round|Shape=RoundedRectangle|*
%AMROUNDEDRECTD79*
21,1,0.02441,0.01378,0,0,0.0*
21,1,0.01221,0.02598,0,0,0.0*
1,1,0.01220,0.00610,-0.00689*
1,1,0.01220,-0.00610,-0.00689*
1,1,0.01220,-0.00610,0.00689*
1,1,0.01220,0.00610,0.00689*
%
%ADD79ROUNDEDRECTD79*%
G04:AMPARAMS|DCode=80|XSize=24.41mil|YSize=25.98mil|CornerRadius=6.1mil|HoleSize=0mil|Usage=FLASHONLY|Rotation=0.000|XOffset=0mil|YOffset=0mil|HoleType=Round|Shape=RoundedRectangle|*
%AMROUNDEDRECTD80*
21,1,0.02441,0.01378,0,0,0.0*
21,1,0.01221,0.02598,0,0,0.0*
1,1,0.01221,0.00610,-0.00689*
1,1,0.01221,-0.00610,-0.00689*
1,1,0.01221,-0.00610,0.00689*
1,1,0.01221,0.00610,0.00689*
%
%ADD80ROUNDEDRECTD80*%
G04:AMPARAMS|DCode=81|XSize=55.12mil|YSize=43.31mil|CornerRadius=10.83mil|HoleSize=0mil|Usage=FLASHONLY|Rotation=0.000|XOffset=0mil|YOffset=0mil|HoleType=Round|Shape=RoundedRectangle|*
%AMROUNDEDRECTD81*
21,1,0.05512,0.02165,0,0,0.0*
21,1,0.03347,0.04331,0,0,0.0*
1,1,0.02165,0.01673,-0.01083*
1,1,0.02165,-0.01673,-0.01083*
1,1,0.02165,-0.01673,0.01083*
1,1,0.02165,0.01673,0.01083*
%
%ADD81ROUNDEDRECTD81*%
%ADD82R,0.05512X0.04331*%
%ADD83R,0.03386X0.01024*%
G04:AMPARAMS|DCode=84|XSize=10.24mil|YSize=33.86mil|CornerRadius=2.56mil|HoleSize=0mil|Usage=FLASHONLY|Rotation=90.000|XOffset=0mil|YOffset=0mil|HoleType=Round|Shape=RoundedRectangle|*
%AMROUNDEDRECTD84*
21,1,0.01024,0.02874,0,0,90.0*
21,1,0.00512,0.03386,0,0,90.0*
1,1,0.00512,0.01437,0.00256*
1,1,0.00512,0.01437,-0.00256*
1,1,0.00512,-0.01437,-0.00256*
1,1,0.00512,-0.01437,0.00256*
%
%ADD84ROUNDEDRECTD84*%
G36*
X163897Y109577D02*
X163852Y109531D01*
X160319D01*
Y113936D01*
X163897D01*
Y109577D01*
D02*
G37*
G36*
X158736D02*
X158690Y109531D01*
X155157D01*
Y113936D01*
X158736D01*
Y109577D01*
D02*
G37*
G36*
X153253Y109531D02*
X153207Y109485D01*
X149674D01*
Y113890D01*
X153253D01*
Y109531D01*
D02*
G37*
G36*
X163943Y104255D02*
X163897Y104209D01*
X160365D01*
Y108614D01*
X163943D01*
Y104255D01*
D02*
G37*
G36*
X153207D02*
X153161Y104209D01*
X149629D01*
Y108614D01*
X153207D01*
Y104255D01*
D02*
G37*
G36*
X158713Y104186D02*
X158667Y104140D01*
X155134D01*
Y108545D01*
X158713D01*
Y104186D01*
D02*
G37*
G36*
X81691Y195703D02*
X78094D01*
Y197782D01*
X78132Y197820D01*
X81691D01*
Y195703D01*
D02*
G37*
G36*
X83911Y192016D02*
X81054D01*
X81015Y192054D01*
Y195613D01*
X83911D01*
Y192016D01*
D02*
G37*
G36*
X78770Y191977D02*
X75913D01*
X75874Y192016D01*
Y195574D01*
X78770D01*
Y191977D01*
D02*
G37*
G36*
X81717Y189771D02*
X78081D01*
Y191903D01*
X81717D01*
Y189771D01*
D02*
G37*
G36*
X149743Y119487D02*
Y115083D01*
X153276D01*
X153322Y115129D01*
Y119487D01*
X149743D01*
D02*
G37*
G36*
X155157D02*
Y115083D01*
X158690D01*
X158736Y115129D01*
Y119487D01*
X155157D01*
D02*
G37*
G36*
X160388D02*
Y115083D01*
X163920D01*
X163966Y115129D01*
Y119487D01*
X160388D01*
D02*
G37*
D19*
X4862Y111036D02*
X5531D01*
X-532Y83477D02*
X138D01*
D20*
X213100Y167200D02*
D03*
D21*
Y175200D02*
D03*
D22*
X143700Y258250D02*
D03*
Y251950D02*
D03*
X153600Y211001D02*
D03*
Y217300D02*
D03*
X160400Y211000D02*
D03*
Y217299D02*
D03*
X176700Y243650D02*
D03*
Y249950D02*
D03*
X99900Y129650D02*
D03*
Y135950D02*
D03*
X216200Y233350D02*
D03*
Y239650D02*
D03*
X199200Y184500D02*
D03*
Y178201D02*
D03*
X34200Y240250D02*
D03*
Y233950D02*
D03*
X37300Y208250D02*
D03*
Y201950D02*
D03*
X34300Y226750D02*
D03*
Y220450D02*
D03*
X54000Y174550D02*
D03*
Y168250D02*
D03*
X60500Y174550D02*
D03*
Y168250D02*
D03*
X76934Y168450D02*
D03*
Y174750D02*
D03*
X96367Y174450D02*
D03*
Y168150D02*
D03*
X83412Y168450D02*
D03*
Y174750D02*
D03*
X115800Y168450D02*
D03*
Y174750D02*
D03*
X127597Y182353D02*
D03*
Y176054D02*
D03*
X109322Y174550D02*
D03*
Y168250D02*
D03*
X47500Y174550D02*
D03*
Y168250D02*
D03*
X89889Y174450D02*
D03*
Y168150D02*
D03*
X102845Y174550D02*
D03*
Y168250D02*
D03*
X28000Y102350D02*
D03*
Y108650D02*
D03*
X14500Y61350D02*
D03*
Y67650D02*
D03*
D23*
X153550Y238100D02*
D03*
X159850D02*
D03*
X154514Y270021D02*
D03*
X148215D02*
D03*
X127996Y189803D02*
D03*
X121697D02*
D03*
X38950Y102100D02*
D03*
X45250D02*
D03*
X183150Y181000D02*
D03*
X176850D02*
D03*
X82028Y156486D02*
D03*
X88328D02*
D03*
X142750Y155500D02*
D03*
X149050D02*
D03*
X5150Y222800D02*
D03*
X11450D02*
D03*
X49750Y110700D02*
D03*
X56050D02*
D03*
D24*
X189973Y243727D02*
D03*
X194427Y239273D02*
D03*
D25*
X34500Y255800D02*
D03*
D26*
X26500D02*
D03*
D27*
X144359Y213363D02*
D03*
Y221237D02*
D03*
X118500Y220137D02*
D03*
Y212263D02*
D03*
X73400Y210463D02*
D03*
Y218337D02*
D03*
X80400Y210563D02*
D03*
Y218437D02*
D03*
X6000Y69500D02*
D03*
Y61626D02*
D03*
X74100Y129463D02*
D03*
Y137337D02*
D03*
X194743Y222944D02*
D03*
Y215070D02*
D03*
X180243Y226321D02*
D03*
Y234195D02*
D03*
X195300Y139437D02*
D03*
Y131563D02*
D03*
X56100Y93963D02*
D03*
Y101837D02*
D03*
X204300Y116937D02*
D03*
Y109063D02*
D03*
X56600Y56063D02*
D03*
Y63937D02*
D03*
X66000Y98453D02*
D03*
Y90579D02*
D03*
X197300Y109063D02*
D03*
Y116937D02*
D03*
D28*
X171143Y238507D02*
D03*
Y230107D02*
D03*
X87800Y210700D02*
D03*
Y219100D02*
D03*
X69200Y167300D02*
D03*
Y175700D02*
D03*
X174500Y149000D02*
D03*
Y140600D02*
D03*
X171843Y222695D02*
D03*
Y214295D02*
D03*
X124800Y98000D02*
D03*
Y106400D02*
D03*
X133100Y98000D02*
D03*
Y106400D02*
D03*
X166400Y149000D02*
D03*
Y140600D02*
D03*
X156800Y148900D02*
D03*
Y140500D02*
D03*
X148900Y148900D02*
D03*
Y140500D02*
D03*
X190000Y108500D02*
D03*
Y116900D02*
D03*
X182251Y108500D02*
D03*
Y116900D02*
D03*
X66500Y118200D02*
D03*
Y126600D02*
D03*
X191300Y159100D02*
D03*
Y167500D02*
D03*
D29*
X206850Y182400D02*
D03*
X161515Y268921D02*
D03*
X4850Y76000D02*
D03*
D30*
X213150Y182400D02*
D03*
X167814Y268921D02*
D03*
X11150Y76000D02*
D03*
D31*
X39059Y155693D02*
D03*
Y119866D02*
D03*
D32*
X49886Y128922D02*
D03*
Y130890D02*
D03*
Y132859D02*
D03*
Y134827D02*
D03*
Y136795D02*
D03*
Y138764D02*
D03*
Y140732D02*
D03*
Y142701D02*
D03*
Y144669D02*
D03*
D33*
Y146637D02*
D03*
D34*
X13130Y102374D02*
D03*
Y99815D02*
D03*
Y97256D02*
D03*
Y94697D02*
D03*
Y92138D02*
D03*
D35*
X2500Y101193D02*
D03*
Y93319D02*
D03*
D36*
X158663Y251700D02*
D03*
X166537D02*
D03*
X55434Y191003D02*
D03*
X47560D02*
D03*
X81063Y96300D02*
D03*
X88937D02*
D03*
X80326Y120600D02*
D03*
X88200D02*
D03*
X161363Y156100D02*
D03*
X169237D02*
D03*
X39763Y57200D02*
D03*
X47637D02*
D03*
X46374Y94900D02*
D03*
X38500D02*
D03*
X39563Y65300D02*
D03*
X47437D02*
D03*
X74265Y156686D02*
D03*
X66391D02*
D03*
D37*
X167527Y98476D02*
D03*
X165558D02*
D03*
X163590D02*
D03*
X145873Y125524D02*
D03*
X147842D02*
D03*
X149810D02*
D03*
X151779D02*
D03*
X153747D02*
D03*
X155716D02*
D03*
X157684D02*
D03*
X159653D02*
D03*
X161621D02*
D03*
X163590D02*
D03*
X165558D02*
D03*
X167527D02*
D03*
X161621Y98476D02*
D03*
X159653D02*
D03*
X157684D02*
D03*
X155716D02*
D03*
X153747D02*
D03*
X151779D02*
D03*
X149810D02*
D03*
X147842D02*
D03*
X145873D02*
D03*
D38*
X198600Y171359D02*
D03*
X21000Y102441D02*
D03*
D39*
X198600Y166241D02*
D03*
X21000Y107559D02*
D03*
D40*
X19097Y239500D02*
D03*
X27497D02*
D03*
X89200Y88200D02*
D03*
X80800D02*
D03*
X72200Y109400D02*
D03*
X63800D02*
D03*
X27700Y220600D02*
D03*
X19300D02*
D03*
X27700Y230100D02*
D03*
X19300D02*
D03*
X177600Y74000D02*
D03*
X169200D02*
D03*
X177400Y82700D02*
D03*
X169000D02*
D03*
X195800Y124200D02*
D03*
X204200D02*
D03*
D41*
X8055Y209402D02*
D03*
D42*
Y166883D02*
D03*
D43*
X26441Y178300D02*
D03*
Y188143D02*
D03*
Y197985D02*
D03*
D44*
X26100Y89942D02*
D03*
D45*
Y57658D02*
D03*
D46*
X86550Y193803D02*
D03*
X73243Y195772D02*
D03*
Y193803D02*
D03*
Y191835D02*
D03*
Y189866D02*
D03*
X86550D02*
D03*
Y191835D02*
D03*
Y195772D02*
D03*
Y197740D02*
D03*
D47*
X75960Y187150D02*
D03*
X77928D02*
D03*
X79897D02*
D03*
X81865D02*
D03*
X83834D02*
D03*
Y200457D02*
D03*
X81865D02*
D03*
X79897D02*
D03*
X77928D02*
D03*
X75960D02*
D03*
D48*
X73243Y197740D02*
D03*
D49*
X110290Y215600D02*
D03*
X96510D02*
D03*
X51121Y216700D02*
D03*
X64900D02*
D03*
X98707Y189103D02*
D03*
X112487D02*
D03*
D50*
X166965Y258421D02*
D03*
X152100Y230000D02*
D03*
X187043Y214595D02*
D03*
D51*
X166965Y261021D02*
D03*
Y263521D02*
D03*
X158865D02*
D03*
Y258421D02*
D03*
X160200Y230000D02*
D03*
Y224900D02*
D03*
X152100D02*
D03*
Y227400D02*
D03*
X187043Y217195D02*
D03*
Y219695D02*
D03*
X178943D02*
D03*
Y214595D02*
D03*
D52*
X44899Y236300D02*
D03*
X44879Y254600D02*
D03*
D53*
X57301Y236300D02*
D03*
X57281Y254600D02*
D03*
D54*
X63845Y202343D02*
D03*
D55*
X54845D02*
D03*
D56*
X134797Y188354D02*
D03*
X121500Y181599D02*
D03*
X90000Y104801D02*
D03*
X141300Y143150D02*
D03*
X187343Y232344D02*
D03*
D57*
X134797Y194653D02*
D03*
X121500Y175300D02*
D03*
X90000Y111100D02*
D03*
X141300Y149450D02*
D03*
X187343Y226045D02*
D03*
D58*
X100385Y203303D02*
D03*
X111408D02*
D03*
D59*
X61068Y184400D02*
D03*
X64532D02*
D03*
X153632Y65600D02*
D03*
X150168D02*
D03*
D60*
X188021Y126300D02*
D03*
X178179D02*
D03*
D61*
X205445Y241659D02*
D03*
D62*
X207255Y243468D02*
D03*
X209064Y245278D02*
D03*
X210874Y247088D02*
D03*
X212683Y248897D02*
D03*
X214493Y250707D02*
D03*
X216302Y252516D02*
D03*
X189020Y258084D02*
D03*
X190830Y259893D02*
D03*
X192639Y261703D02*
D03*
X194449Y263512D02*
D03*
X196258Y265322D02*
D03*
X198068Y267131D02*
D03*
X199878Y268941D02*
D03*
D63*
X184700Y143737D02*
D03*
Y135863D02*
D03*
D64*
X81350Y136253D02*
D03*
D65*
Y134284D02*
D03*
Y132316D02*
D03*
Y130347D02*
D03*
X89250Y136253D02*
D03*
Y134284D02*
D03*
Y132316D02*
D03*
Y130347D02*
D03*
D66*
X85300Y133300D02*
D03*
D67*
X78800Y112900D02*
D03*
X83900D02*
D03*
Y104800D02*
D03*
X81400D02*
D03*
D68*
X78800D02*
D03*
D69*
X100677Y59500D02*
D03*
X85323D02*
D03*
X100677Y64500D02*
D03*
X85323D02*
D03*
X100677Y69500D02*
D03*
X85323D02*
D03*
X100677Y74500D02*
D03*
X85323D02*
D03*
X100677Y79500D02*
D03*
D70*
X85323D02*
D03*
D71*
X38642Y86352D02*
D03*
Y74048D02*
D03*
X40610D02*
D03*
X42579D02*
D03*
X44547D02*
D03*
X46516D02*
D03*
X48484D02*
D03*
X50453D02*
D03*
X52421D02*
D03*
X54390D02*
D03*
X56358D02*
D03*
Y86352D02*
D03*
X54390D02*
D03*
X52421D02*
D03*
X50453D02*
D03*
X48484D02*
D03*
X46516D02*
D03*
X44547D02*
D03*
X42579D02*
D03*
X40610D02*
D03*
D72*
X38396Y83153D02*
D03*
Y81184D02*
D03*
Y79216D02*
D03*
Y77247D02*
D03*
X56604D02*
D03*
Y79216D02*
D03*
Y81184D02*
D03*
Y83153D02*
D03*
D73*
X130892Y113700D02*
D03*
X124908D02*
D03*
X174912Y64800D02*
D03*
X168928D02*
D03*
D74*
X163529Y173837D02*
D03*
Y171869D02*
D03*
Y169900D02*
D03*
Y167931D02*
D03*
Y165963D02*
D03*
X181049Y173837D02*
D03*
Y171869D02*
D03*
Y169900D02*
D03*
Y167931D02*
D03*
D75*
Y165963D02*
D03*
D76*
X179560Y262660D02*
D03*
X185500Y268600D02*
D03*
D77*
X96653Y92716D02*
D03*
X99213D02*
D03*
X101772D02*
D03*
X104331D02*
D03*
X106890D02*
D03*
X109449D02*
D03*
X112008D02*
D03*
X96653Y115945D02*
D03*
X99213D02*
D03*
X101772D02*
D03*
X104331D02*
D03*
X106890D02*
D03*
X109449D02*
D03*
D78*
X112008D02*
D03*
D79*
X153711Y81532D02*
D03*
D80*
Y78068D02*
D03*
X153600Y52232D02*
D03*
Y48768D02*
D03*
X75300Y84332D02*
D03*
Y80868D02*
D03*
Y72568D02*
D03*
Y76032D02*
D03*
D81*
X136200Y83101D02*
D03*
X127539D02*
D03*
Y89400D02*
D03*
D82*
X136200D02*
D03*
D83*
X143176Y122827D02*
D03*
D84*
X170224D02*
D03*
Y120858D02*
D03*
Y118890D02*
D03*
Y116921D02*
D03*
Y114953D02*
D03*
Y112984D02*
D03*
Y111016D02*
D03*
Y109047D02*
D03*
Y107079D02*
D03*
Y105110D02*
D03*
Y103142D02*
D03*
Y101173D02*
D03*
X143176D02*
D03*
Y103142D02*
D03*
Y105110D02*
D03*
Y107079D02*
D03*
Y109047D02*
D03*
Y111016D02*
D03*
Y112984D02*
D03*
Y114953D02*
D03*
Y116921D02*
D03*
Y118890D02*
D03*
Y120858D02*
D03*
M02*
