M48
;Layer_Color=9474304
;FILE_FORMAT=2:5
INCH,LZ
;TYPE=PLATED
T1F00S00C0.01200
T4F00S00C0.04331
T5F00S00C0.09843
%
T01
X00123Y00395
X00175
X00227
X00277
X00327
X00377
X00427
X00477
X00527
X00552Y00445
X00502
X00452
X00402
X00352
X00302
X00252
X00202
X00145Y00554
X0006Y00555
X0044Y0053563
X00602Y00445
X00652
X00702
X00752
X00802
X00852
X00902
X00952
X01002
X01052
X01102
X01152
X01202
X01252
X01302
X01352
X01402
X01452
X01502
Y00494
Y00545
X01452
X01402
X01427Y00495
X01377
Y00395
X01427
X01477
X01576
X01623
X01668
X0169995Y0039508
X01748Y00394
Y00344
Y00296
Y00247
Y00197
Y00146
Y00098
X01747Y00048
X01798Y00071
Y00123
Y00171
X01799Y00222
Y00271
Y00319
Y00371
X01852Y00345
X01851Y00294
Y00246
X0185Y00192
X01849Y00144
X01851Y00097
Y00049
X01853Y00398
X01856Y00445
X01781Y0044
X01772Y00495
X01722
X01672
X01622
X01572
X01571Y00445
X01615
X01654Y00439
X01715
X01697Y00545
X01747
X01797
X01855
X01825Y00495
X01647Y00545
X01597
X01327Y00395
X01277
X01227
X01177
X01127
X01077
X01027
X00977
X00927
X00877
X00827
X00777
X00727
X00677
X00627
X00577
X02125Y0152121
X02152Y01498
X02238Y01466
X02233Y01673
X0209577Y01541
X0206768Y0152568
X01976Y01618
X01969Y017611
X01921Y01743
X0183672Y0160249
X01732Y01528
X01654Y01529
X0165431Y01561
X01568Y01535
X01529Y01536
X0153Y01577
X0150156Y01447
X0143273Y0139416
X01375Y0139821
X01376Y0129965
X0134009Y0128103
X01356Y0123165
X0136827Y0116365
X0134631Y0111241
X01382Y01089
X01487Y0109
Y0104
X01542
Y0109
X01597
Y0104
X01647
Y0109
Y01145
X01597
X01542
Y012
X01597
X01647
X01487
Y01145
X01501Y0094
Y0089
X01502Y00845
Y00795
Y00745
X01572Y00746
Y00795
X01573Y00846
X01621Y00822
Y00771
Y00721
Y00671
X01572Y00695
X01571Y00646
X01572Y00595
X01622
X01672
X01722
X01772
X01824Y00594
X01832Y0074
Y00827
X01812Y00874
X0169561Y0087945
X0166266Y0089621
X01453Y00871
Y00819
Y00768
Y00707
X01452Y00645
X01453Y00595
X01503
X0134768Y0073832
X01296Y00752
X01286Y00783
X0124671Y0071256
X01114Y00795
X0109449Y0101149
X0101772Y0107472
X0101631Y01217
X010073Y012477
X00938Y01294
X00941Y01338
X0094Y0137475
X0093Y01451
X00883Y0148224
X00848Y01435
X00812Y01458
X00853Y01375
Y01265
X0082291Y0124309
X00745Y0115959
X0086Y01087
X00846Y00922
X00762Y00895
X00765Y00686
X00783Y0063563
X00911Y0067454
X00936Y00616
X0059032Y00702
X00692Y01322
X00661Y01363
X00678Y01398
X0061704Y0157899
X0057694Y016635
X0071169Y01715
X0076934Y016423
X0076997Y0190903
X0079897Y0193803
X0082797Y0190903
Y0196703
X0076997
X0105297Y0189003
X0100284Y01773
X0119984Y016845
X0122854Y0161361
X0125387Y0151199
X01211Y01379
X01162Y01274
X0114708Y01219
X01287Y0126824
X012848Y0116424
X0129Y00941
X01453Y00925
X01825Y01025
X0186Y01038
X01861Y0112349
X0180237Y0112715
X0177147Y011119
X0177145Y011639
X01938Y01123
X0198827Y01012
X02Y01284
Y01318
X0203547Y0136347
X01745Y01448
X0165285
X01689Y01738
X01721Y01789
X01576Y0179612
X0156556Y0172412
X01432Y01883
X01236Y01855
X0121597Y0194103
X01869Y02103
X02039Y01889
X005127Y0187657
X00185Y01901
X00187Y01776
X0020722Y0159015
X00315Y01551
X00323Y01211
X00436Y01127
X00514Y01001
X00505Y0091
X00343Y0086196
Y0077297
X00351Y00702
X00437Y0061563
X00555Y0069
X0035437Y0098247
X0020743Y0112091
X00085Y00815
X00554Y0123407
X00235Y02072
Y02206
X00236Y023025
X0023397Y02395
X00112Y02165
X00376Y02695
X00709Y02601
X0071Y02516
X00768Y02235
X0085831Y02149
X01033Y02221
X01259Y02326
X01351Y02302
X01471Y02275
X0144293Y0216906
X0167343Y0218707
X01834Y02225
X0191483Y0219003
X0191743Y0227407
X02Y0235046
X02095Y02335
X02096Y02241
X02124Y02166
X01929Y0248
X0191Y02513
X01861Y02484
X01817Y02381
X01691Y02432
X0170673Y0249473
X01749Y02578
X01535Y02522
X0148265Y0261234
X01469Y02725
X01412Y02463
X01376Y024915
X0122597Y02522
X005791Y02223
X02134Y0227
X02239Y0221
T04
X00664Y00612
Y00712
Y00812
X0127397Y0203303
X01518Y02007
X01618
X01718
X01818
X01918
X02018
X001148Y0197985
Y01783
X00072Y02322
Y02422
X0083736Y02687
X0093736
X0103736
X0113736
X0127397Y0223303
Y0213303
T05
X00079Y00463
X02188Y00912
X01377Y02673
M30
