G04*
G04 #@! TF.GenerationSoftware,Altium Limited,Altium Designer,22.10.1 (41)*
G04*
G04 Layer_Physical_Order=1*
G04 Layer_Color=255*
%FSLAX25Y25*%
%MOIN*%
G70*
G04*
G04 #@! TF.SameCoordinates,B3D105EC-CFC3-471A-8A15-C24A07D35649*
G04*
G04*
G04 #@! TF.FilePolarity,Positive*
G04*
G01*
G75*
%ADD12R,0.29134X0.07874*%
%ADD15C,0.02500*%
%ADD16C,0.09449*%
%ADD17C,0.02200*%
D12*
X34900Y248845D02*
D03*
Y166955D02*
D03*
X112695Y248845D02*
D03*
Y166955D02*
D03*
X190490Y248845D02*
D03*
Y166955D02*
D03*
X73798Y27055D02*
D03*
Y108945D02*
D03*
X151593Y27055D02*
D03*
Y108945D02*
D03*
X34900Y67055D02*
D03*
Y148945D02*
D03*
X73798Y209000D02*
D03*
Y127110D02*
D03*
X112695Y67055D02*
D03*
Y148945D02*
D03*
X190490Y67055D02*
D03*
Y148945D02*
D03*
X151593Y209000D02*
D03*
Y127110D02*
D03*
D15*
X4845Y248845D02*
X45530D01*
X2700Y246700D02*
X4845Y248845D01*
X2700Y243500D02*
Y246700D01*
X3100Y112000D02*
X33200Y81900D01*
X3100Y112000D02*
Y231500D01*
X45530Y248845D02*
X112695D01*
X33200Y68755D02*
Y81900D01*
Y68755D02*
X34900Y67055D01*
X123325D02*
X190490D01*
X123325D02*
X138276Y52105D01*
X140963Y27055D02*
X151593D01*
X138276Y29742D02*
X140963Y27055D01*
X138276Y29742D02*
Y52105D01*
X112695Y67055D02*
X123325D01*
X34900D02*
X102065D01*
X87115Y29742D02*
Y52105D01*
X102065Y67055D02*
X112695D01*
X73798Y27055D02*
X84427D01*
X87115Y29742D01*
Y52105D02*
X102065Y67055D01*
X151593Y108945D02*
Y127110D01*
X73798Y108945D02*
Y127110D01*
X190490Y148945D02*
Y166955D01*
X112695Y148945D02*
Y166955D01*
X34900Y148945D02*
Y166955D01*
X112695Y248845D02*
X179860D01*
X162223Y209000D02*
X177173Y223951D01*
X179860Y248845D02*
X190490D01*
X177173Y246158D02*
X179860Y248845D01*
X177173Y223951D02*
Y246158D01*
X151593Y209000D02*
X162223D01*
X48217Y223951D02*
Y246158D01*
X63168Y209000D02*
X73798D01*
X45530Y248845D02*
X48217Y246158D01*
Y223951D02*
X63168Y209000D01*
D16*
X214600Y262100D02*
D03*
X213600Y12600D02*
D03*
X12300Y13300D02*
D03*
X13300Y262700D02*
D03*
D17*
X2700Y243500D02*
D03*
X3100Y231500D02*
D03*
M02*
