G04*
G04 #@! TF.GenerationSoftware,Altium Limited,Altium Designer,22.10.1 (41)*
G04*
G04 Layer_Color=65535*
%FSLAX25Y25*%
%MOIN*%
G70*
G04*
G04 #@! TF.SameCoordinates,9C36EEA6-3C32-4AFD-A68D-23D06756630B*
G04*
G04*
G04 #@! TF.FilePolarity,Positive*
G04*
G01*
G75*
%ADD10C,0.00600*%
%ADD11C,0.00394*%
%ADD12C,0.00984*%
%ADD13C,0.00787*%
%ADD14C,0.00807*%
%ADD15C,0.00500*%
%ADD16C,0.01000*%
%ADD17C,0.00300*%
%ADD18C,0.02000*%
D10*
X204500Y180600D02*
G03*
X204500Y180600I-300J0D01*
G01*
X40200Y264700D02*
G03*
X40200Y264700I-300J0D01*
G01*
X3600Y228300D02*
G03*
X3600Y228300I-300J0D01*
G01*
X16100Y104556D02*
G03*
X16100Y104556I-300J0D01*
G01*
X200450Y170200D02*
G03*
X200450Y170200I-50J0D01*
G01*
X880Y210343D02*
G03*
X880Y210343I-300J0D01*
G01*
X74497Y199503D02*
G03*
X74497Y199503I-300J0D01*
G01*
X123897Y199403D02*
G03*
X123897Y199403I-300J0D01*
G01*
X165565Y256621D02*
G03*
X165565Y256621I-300J0D01*
G01*
X62100Y230400D02*
G03*
X62100Y230400I-300J0D01*
G01*
X62080Y248700D02*
G03*
X62080Y248700I-300J0D01*
G01*
X19250Y103600D02*
G03*
X19250Y103600I-50J0D01*
G01*
X201052Y245047D02*
G03*
X201052Y245047I-300J0D01*
G01*
X78200Y138100D02*
G03*
X78200Y138100I-400J0D01*
G01*
X154100Y231800D02*
G03*
X154100Y231800I-300J0D01*
G01*
X77300Y106500D02*
G03*
X77300Y106500I-300J0D01*
G01*
X90800Y82100D02*
G03*
X90800Y82100I-300J0D01*
G01*
X38900Y89400D02*
G03*
X38900Y89400I-300J0D01*
G01*
X185643Y212795D02*
G03*
X185643Y212795I-300J0D01*
G01*
X113231Y110231D02*
G03*
X113231Y110231I-300J0D01*
G01*
X70500Y85100D02*
G03*
X70500Y85100I-300J0D01*
G01*
X139669Y92850D02*
G03*
X139669Y92850I-300J0D01*
G01*
X143700Y125400D02*
G03*
X143700Y125400I-300J0D01*
G01*
X222700Y164000D02*
Y171500D01*
X213200Y164000D02*
X222700D01*
X203200Y169300D02*
Y178800D01*
X210700D01*
X141966Y254706D02*
Y255494D01*
X145400Y254713D02*
Y255500D01*
X156306Y236366D02*
X157094D01*
X156300Y239800D02*
X157087D01*
X155334Y213757D02*
Y214544D01*
X151900Y213750D02*
Y214538D01*
X162134Y213756D02*
Y214543D01*
X158700Y213750D02*
Y214537D01*
X178434Y246406D02*
Y247194D01*
X175000Y246400D02*
Y247187D01*
X101634Y132406D02*
Y133194D01*
X98200Y132400D02*
Y133187D01*
X217934Y236106D02*
Y236894D01*
X214500Y236100D02*
Y236887D01*
X190696Y240552D02*
X191252Y239996D01*
X193119Y242985D02*
X193676Y242428D01*
X38100Y258200D02*
Y265700D01*
X28600D02*
X38100D01*
X23300Y246200D02*
Y255700D01*
Y246200D02*
X30800D01*
X12700Y227200D02*
Y247500D01*
X2200Y227200D02*
X12700D01*
X2200Y247500D02*
X12700D01*
X2200Y227200D02*
Y247500D01*
X142292Y216906D02*
Y217694D01*
X146426Y216906D02*
Y217694D01*
X173677Y233913D02*
Y234701D01*
X168643Y233920D02*
Y234707D01*
X6811Y111823D02*
X13721D01*
X6811Y82689D02*
X13721D01*
Y111114D02*
Y111823D01*
Y82689D02*
Y83398D01*
X162206Y253767D02*
X162994D01*
X162206Y249633D02*
X162994D01*
X200358Y168400D02*
Y169187D01*
X196843Y168356D02*
Y169144D01*
X197466Y180957D02*
Y181744D01*
X200900Y180963D02*
Y181750D01*
X32500Y236700D02*
Y237487D01*
X35934Y236706D02*
Y237494D01*
X35600Y204700D02*
Y205487D01*
X39034Y204706D02*
Y205494D01*
X32600Y223200D02*
Y223987D01*
X36034Y223206D02*
Y223994D01*
X22909Y242000D02*
X23697D01*
X22903Y236966D02*
X23691D01*
X52266Y171006D02*
Y171794D01*
X55700Y171013D02*
Y171800D01*
X58766Y171006D02*
Y171794D01*
X62200Y171013D02*
Y171800D01*
X78668Y171206D02*
Y171994D01*
X75234Y171200D02*
Y171987D01*
X85605Y186914D02*
X86787D01*
X85605Y200693D02*
X86787D01*
X73007Y186914D02*
X74188D01*
X73007Y200693D02*
X74188D01*
X86787Y186914D02*
Y188095D01*
Y199512D02*
Y200693D01*
X73007Y186914D02*
Y188095D01*
Y199512D02*
Y200693D01*
X122397Y198303D02*
Y229303D01*
X132897D01*
X122397Y198303D02*
X132897D01*
Y229303D01*
X120567Y215806D02*
Y216594D01*
X116433Y215806D02*
Y216594D01*
X71333Y214006D02*
Y214794D01*
X75467Y214006D02*
Y214794D01*
X85266Y214506D02*
Y215294D01*
X90300Y214500D02*
Y215287D01*
X103056Y210482D02*
X103844D01*
X103056Y220718D02*
X103844D01*
X78333Y214106D02*
Y214894D01*
X82467Y214106D02*
Y214894D01*
X57566Y221818D02*
X58354D01*
X57566Y211582D02*
X58354D01*
X150971Y271755D02*
X151758D01*
X150977Y268321D02*
X151765D01*
X42045Y242107D02*
Y244174D01*
X60155Y242107D02*
Y244174D01*
X42045Y228426D02*
Y230493D01*
X60155Y228426D02*
Y230493D01*
X42045Y244174D02*
X60155D01*
X42045Y228426D02*
X60155D01*
X94633Y170906D02*
Y171694D01*
X98067Y170913D02*
Y171700D01*
X85145Y171206D02*
Y171994D01*
X81712Y171200D02*
Y171987D01*
X58946Y208443D02*
X59733D01*
X59052Y196209D02*
X59839D01*
X42025Y246726D02*
X60135D01*
X42025Y262474D02*
X60135D01*
Y246726D02*
Y248793D01*
X42025Y246726D02*
Y248793D01*
X60135Y260407D02*
Y262474D01*
X42025Y260407D02*
Y262474D01*
X105503Y207437D02*
X106290D01*
X105503Y199169D02*
X106290D01*
X105153Y194221D02*
X105940D01*
X105153Y183985D02*
X105940D01*
X124453Y191537D02*
X125240D01*
X124459Y188103D02*
X125246D01*
X117534Y171206D02*
Y171994D01*
X114100Y171200D02*
Y171987D01*
X125863Y178810D02*
Y179597D01*
X129297Y178816D02*
Y179603D01*
X107588Y171006D02*
Y171794D01*
X111022Y171013D02*
Y171800D01*
X45766Y171006D02*
Y171794D01*
X49200Y171013D02*
Y171800D01*
X88155Y170906D02*
Y171694D01*
X91589Y170913D02*
Y171700D01*
X101111Y171006D02*
Y171794D01*
X104545Y171013D02*
Y171800D01*
X66666Y171106D02*
Y171894D01*
X71700Y171100D02*
Y171887D01*
X51103Y188936D02*
X51890D01*
X51103Y193070D02*
X51890D01*
X29734Y105106D02*
Y105894D01*
X26300Y105100D02*
Y105887D01*
X8067Y65169D02*
Y65957D01*
X3933Y65169D02*
Y65957D01*
X19242Y104613D02*
Y105400D01*
X22758Y104656D02*
Y105444D01*
X41706Y100366D02*
X42494D01*
X41700Y103800D02*
X42487D01*
X200713Y243051D02*
X214911Y257249D01*
X190412Y253351D02*
X204610Y267549D01*
X190412Y253351D02*
X200713Y243051D01*
X204610Y267549D02*
X214911Y257249D01*
X179600Y182700D02*
X180387D01*
X179606Y179266D02*
X180394D01*
X84784Y154752D02*
X85572D01*
X84778Y158186D02*
X85565D01*
X72033Y133006D02*
Y133794D01*
X76167Y133006D02*
Y133794D01*
X78736Y263700D02*
Y273700D01*
X108736Y263700D02*
Y273700D01*
X78736Y263700D02*
X118736D01*
Y273700D01*
X78736D02*
X118736D01*
X84606Y98367D02*
X85394D01*
X84606Y94233D02*
X85394D01*
X196810Y218614D02*
Y219401D01*
X192676Y218614D02*
Y219401D01*
X177034Y144406D02*
Y145194D01*
X172000Y144413D02*
Y145200D01*
X145506Y153766D02*
X146294D01*
X145500Y157200D02*
X146287D01*
X206800Y195700D02*
Y205700D01*
X146800Y195700D02*
X206800D01*
X146800D02*
Y205700D01*
X206800D01*
X156800Y195700D02*
Y205700D01*
X84600Y85700D02*
X85387D01*
X84606Y90734D02*
X85394D01*
X67600Y106900D02*
X68387D01*
X67606Y111934D02*
X68394D01*
X83869Y122667D02*
X84657D01*
X83869Y118533D02*
X84657D01*
X91720Y82000D02*
X94279D01*
X91720Y57000D02*
Y82000D01*
Y57000D02*
X94279D01*
Y82000D01*
X37000Y88000D02*
X39500D01*
X37000Y86000D02*
Y88000D01*
Y72400D02*
Y74400D01*
Y72400D02*
X39000D01*
X55500Y88000D02*
X58000D01*
Y86000D02*
Y88000D01*
Y72400D02*
Y74400D01*
X56000Y72400D02*
X58000D01*
X39000D02*
X39500D01*
X55500D02*
X56000D01*
X127513Y111900D02*
X128300D01*
X127513Y115500D02*
X128300D01*
X171532Y63000D02*
X172320D01*
X171532Y66600D02*
X172320D01*
X7906Y221066D02*
X8694D01*
X7900Y224500D02*
X8687D01*
X16234Y64106D02*
Y64894D01*
X12800Y64100D02*
Y64887D01*
X52506Y108966D02*
X53294D01*
X52500Y112400D02*
X53287D01*
X180460Y267144D02*
X181017Y267700D01*
X184015Y263580D02*
X184572Y264136D01*
X174377Y218101D02*
Y218888D01*
X169343Y218107D02*
Y218895D01*
X23106Y218066D02*
X23894D01*
X23113Y223100D02*
X23900D01*
X23106Y227566D02*
X23894D01*
X23113Y232600D02*
X23900D01*
X122266Y101806D02*
Y102594D01*
X127300Y101800D02*
Y102587D01*
X130566Y101806D02*
Y102594D01*
X135600Y101800D02*
Y102587D01*
X173006Y71466D02*
X173794D01*
X173013Y76500D02*
X173800D01*
X172806Y80166D02*
X173594D01*
X172813Y85200D02*
X173600D01*
X168934Y144406D02*
Y145194D01*
X163900Y144413D02*
Y145200D01*
X159334Y144306D02*
Y145094D01*
X154300Y144313D02*
Y145100D01*
X151434Y144306D02*
Y145094D01*
X146400Y144313D02*
Y145100D01*
X187466Y112306D02*
Y113094D01*
X192500Y112300D02*
Y113087D01*
X179717Y112306D02*
Y113094D01*
X184751Y112300D02*
Y113087D01*
X199606Y126734D02*
X200394D01*
X199600Y121700D02*
X200387D01*
X63966Y122006D02*
Y122794D01*
X69000Y122000D02*
Y122787D01*
X188766Y162906D02*
Y163694D01*
X193800Y162900D02*
Y163687D01*
X94291Y97047D02*
Y111614D01*
X114370Y97047D02*
Y111614D01*
X94291Y97047D02*
X114370D01*
X94291Y111614D02*
X114370D01*
X178176Y229864D02*
Y230651D01*
X182310Y229864D02*
Y230651D01*
X197367Y135106D02*
Y135894D01*
X193233Y135106D02*
Y135894D01*
X164906Y158167D02*
X165694D01*
X164906Y154033D02*
X165694D01*
X43306Y59267D02*
X44094D01*
X43306Y55133D02*
X44094D01*
X54033Y97506D02*
Y98294D01*
X58167Y97506D02*
Y98294D01*
X42043Y92833D02*
X42831D01*
X42043Y96967D02*
X42831D01*
X43106Y67367D02*
X43894D01*
X43106Y63233D02*
X43894D01*
X206367Y112606D02*
Y113394D01*
X202233Y112606D02*
Y113394D01*
X54533Y59606D02*
Y60394D01*
X58667Y59606D02*
Y60394D01*
X68067Y94122D02*
Y94910D01*
X63933Y94122D02*
Y94910D01*
X195233Y112606D02*
Y113394D01*
X199367Y112606D02*
Y113394D01*
X69935Y154619D02*
X70722D01*
X69935Y158753D02*
X70722D01*
X71400Y55200D02*
Y86200D01*
X60900Y55200D02*
X71400D01*
X60900Y86200D02*
X71400D01*
X60900Y55200D02*
Y86200D01*
X123708Y83628D02*
Y88628D01*
X139891Y83750D02*
Y88750D01*
X142133Y97433D02*
X143787D01*
X142133D02*
Y99087D01*
X169613Y97433D02*
X171267D01*
Y99087D01*
Y124913D02*
Y126567D01*
X169613D02*
X171267D01*
X142133D02*
X143787D01*
X142133Y124913D02*
Y126567D01*
X25800Y268200D02*
X27466D01*
X34300Y268133D02*
X35966D01*
X35133Y268966D02*
Y267300D01*
X134701Y198550D02*
X136367D01*
X137200Y199383D01*
X136367Y200216D01*
X134701D01*
Y202299D02*
Y201466D01*
X135117Y201049D01*
X136784D01*
X137200Y201466D01*
Y202299D01*
X136784Y202715D01*
X135117D01*
X134701Y202299D01*
Y203548D02*
X136784D01*
X137200Y203965D01*
Y204798D01*
X136784Y205215D01*
X134701D01*
Y206048D02*
Y207714D01*
Y206881D01*
X137200D01*
X200400Y175433D02*
X202066D01*
X201233Y176266D02*
Y174600D01*
X200600Y166300D02*
X202266D01*
X136784Y222332D02*
X134284D01*
Y223582D01*
X134701Y223998D01*
X135534D01*
X135950Y223582D01*
Y222332D01*
Y223165D02*
X136784Y223998D01*
X137200Y224832D02*
Y226498D01*
X134701Y228997D02*
X134284Y228580D01*
Y227747D01*
X134701Y227331D01*
X135117D01*
X135534Y227747D01*
Y228580D01*
X135950Y228997D01*
X136367D01*
X136784Y228580D01*
Y227747D01*
X136367Y227331D01*
X134284Y231496D02*
Y229830D01*
X136784D01*
Y231496D01*
X135534Y229830D02*
Y230663D01*
X136784Y232329D02*
X134284D01*
X136784Y233995D01*
X134284D01*
X134701Y236494D02*
X134284Y236078D01*
Y235245D01*
X134701Y234828D01*
X135117D01*
X135534Y235245D01*
Y236078D01*
X135950Y236494D01*
X136367D01*
X136784Y236078D01*
Y235245D01*
X136367Y234828D01*
X134284Y238994D02*
Y237328D01*
X136784D01*
Y238994D01*
X135534Y237328D02*
Y238161D01*
X134701Y210489D02*
X136367D01*
X137200Y211322D01*
X136367Y212155D01*
X134701D01*
X137200Y212988D02*
X134701D01*
X135534Y213821D01*
X134701Y214654D01*
X137200D01*
X135117Y217154D02*
X134701Y216737D01*
Y215904D01*
X135117Y215488D01*
X136784D01*
X137200Y215904D01*
Y216737D01*
X136784Y217154D01*
X134701Y217987D02*
X136784D01*
X137200Y218403D01*
Y219236D01*
X136784Y219653D01*
X134701D01*
X14000Y245600D02*
X15666D01*
X13800Y234833D02*
X15466D01*
X14633Y235666D02*
Y234000D01*
X100200Y259300D02*
Y261799D01*
X101450D01*
X101866Y261383D01*
Y260550D01*
X101450Y260133D01*
X100200D01*
X101033D02*
X101866Y259300D01*
X102699Y261799D02*
X104365Y259300D01*
Y261799D02*
X102699Y259300D01*
X106865D02*
X105198D01*
X106865Y260966D01*
Y261383D01*
X106448Y261799D01*
X105615D01*
X105198Y261383D01*
X110000Y261699D02*
X111666D01*
X110833D01*
Y259200D01*
X112499Y261699D02*
X114165Y259200D01*
Y261699D02*
X112499Y259200D01*
X116665D02*
X114998D01*
X116665Y260866D01*
Y261283D01*
X116248Y261699D01*
X115415D01*
X114998Y261283D01*
X175284Y184800D02*
X177783D01*
X176950Y185633D01*
X177783Y186466D01*
X175284D01*
X178200Y187299D02*
Y188965D01*
X175701Y191464D02*
X175284Y191048D01*
Y190215D01*
X175701Y189798D01*
X177367D01*
X177783Y190215D01*
Y191048D01*
X177367Y191464D01*
X175701Y193964D02*
X175284Y193547D01*
Y192714D01*
X175701Y192298D01*
X176117D01*
X176534Y192714D01*
Y193547D01*
X176950Y193964D01*
X177367D01*
X177783Y193547D01*
Y192714D01*
X177367Y192298D01*
X155617Y188766D02*
X155201Y188350D01*
Y187516D01*
X155617Y187100D01*
X157283D01*
X157700Y187516D01*
Y188350D01*
X157283Y188766D01*
X156450D01*
Y187933D01*
X157700Y189599D02*
X155201D01*
X157700Y191265D01*
X155201D01*
Y192098D02*
X157700D01*
Y193348D01*
X157283Y193764D01*
X155617D01*
X155201Y193348D01*
Y192098D01*
X167883Y185300D02*
X165384D01*
Y186550D01*
X165801Y186966D01*
X166634D01*
X167050Y186550D01*
Y185300D01*
X168300Y187799D02*
Y189465D01*
X165801Y191964D02*
X165384Y191548D01*
Y190715D01*
X165801Y190298D01*
X167467D01*
X167883Y190715D01*
Y191548D01*
X167467Y191964D01*
X165801Y194464D02*
X165384Y194047D01*
Y193214D01*
X165801Y192798D01*
X166217D01*
X166634Y193214D01*
Y194047D01*
X167050Y194464D01*
X167467D01*
X167883Y194047D01*
Y193214D01*
X167467Y192798D01*
X198000Y185800D02*
X195501D01*
X196334Y186633D01*
X195501Y187466D01*
X198000D01*
X195501Y188299D02*
Y189132D01*
Y188716D01*
X198000D01*
Y188299D01*
Y189132D01*
X195917Y192048D02*
X195501Y191631D01*
Y190798D01*
X195917Y190382D01*
X196334D01*
X196750Y190798D01*
Y191631D01*
X197167Y192048D01*
X197583D01*
X198000Y191631D01*
Y190798D01*
X197583Y190382D01*
X195501Y194131D02*
Y193298D01*
X195917Y192881D01*
X197583D01*
X198000Y193298D01*
Y194131D01*
X197583Y194547D01*
X195917D01*
X195501Y194131D01*
X206517Y188266D02*
X206101Y187850D01*
Y187016D01*
X206517Y186600D01*
X208184D01*
X208600Y187016D01*
Y187850D01*
X208184Y188266D01*
X206101Y189099D02*
X208600D01*
Y190765D01*
X206101Y191598D02*
X208600D01*
X207767D01*
X206101Y193264D01*
X207350Y192015D01*
X208600Y193264D01*
X187700Y186400D02*
X185201D01*
X186034Y187233D01*
X185201Y188066D01*
X187700D01*
X185201Y190149D02*
Y189316D01*
X185617Y188899D01*
X187284D01*
X187700Y189316D01*
Y190149D01*
X187284Y190565D01*
X185617D01*
X185201Y190149D01*
X185617Y193064D02*
X185201Y192648D01*
Y191815D01*
X185617Y191398D01*
X186034D01*
X186450Y191815D01*
Y192648D01*
X186867Y193064D01*
X187284D01*
X187700Y192648D01*
Y191815D01*
X187284Y191398D01*
X185201Y193898D02*
Y194731D01*
Y194314D01*
X187700D01*
Y193898D01*
Y194731D01*
D11*
X205866Y185156D02*
G03*
X205866Y185156I-197J0D01*
G01*
X160531Y271677D02*
G03*
X160531Y271677I-197J0D01*
G01*
X137750Y195834D02*
G03*
X137750Y195834I-197J0D01*
G01*
X118941Y174119D02*
G03*
X118941Y174119I-197J0D01*
G01*
X3866Y78756D02*
G03*
X3866Y78756I-197J0D01*
G01*
X92953Y112281D02*
G03*
X92953Y112281I-197J0D01*
G01*
X144253Y150631D02*
G03*
X144253Y150631I-197J0D01*
G01*
X184784Y224864D02*
G03*
X184784Y224864I-197J0D01*
G01*
D12*
X180281Y162000D02*
G03*
X180281Y162000I-492J0D01*
G01*
D13*
X209409Y182400D02*
X210197D01*
X164074Y268921D02*
X164862D01*
X134797Y191306D02*
Y192094D01*
X121500Y177859D02*
Y178647D01*
X7410Y76000D02*
X8197D01*
X90000Y107754D02*
Y108541D01*
X141300Y146103D02*
Y146890D01*
X187343Y228604D02*
Y229392D01*
X167762Y176002D02*
X176817D01*
X167762Y163798D02*
X176817D01*
X167762D02*
Y176002D01*
X176817Y163798D02*
Y176002D01*
D14*
X210591Y180825D02*
Y183975D01*
X209409Y182400D02*
X210591Y180825D01*
X209409Y182400D02*
X210591Y183975D01*
X164074Y268921D02*
X165255Y270496D01*
X164074Y268921D02*
X165255Y267346D01*
Y270496D01*
X134797Y192094D02*
X136372Y190913D01*
X133222D02*
X134797Y192094D01*
X133222Y190913D02*
X136372D01*
X119925Y179040D02*
X121500Y177859D01*
X123075Y179040D01*
X119925D02*
X123075D01*
X7410Y76000D02*
X8591Y77575D01*
X7410Y76000D02*
X8591Y74425D01*
Y77575D01*
X88425Y107360D02*
X91575D01*
X88425D02*
X90000Y108541D01*
X91575Y107360D01*
X139725Y145709D02*
X142875D01*
X139725D02*
X141300Y146890D01*
X142875Y145709D01*
X185768Y229785D02*
X187343Y228604D01*
X188918Y229785D01*
X185768D02*
X188918D01*
D15*
X53412Y136063D02*
Y139528D01*
X35112Y136063D02*
Y139528D01*
X40279Y114895D02*
X43744D01*
X40279Y160895D02*
X43744D01*
X162577Y257021D02*
X163365D01*
X162565Y265021D02*
X163352D01*
X181400Y123100D02*
X184865D01*
X181400Y129500D02*
X184865D01*
X179626Y135861D02*
Y143539D01*
X189800Y136023D02*
Y143700D01*
X155713Y223400D02*
X156500D01*
X155700Y231400D02*
X156487D01*
X85400Y108413D02*
Y109200D01*
X77400Y108400D02*
Y109187D01*
X182656Y213195D02*
X183443D01*
X182643Y221195D02*
X183430D01*
X59634Y89533D02*
X59301Y89200D01*
Y88533D01*
X59634Y88200D01*
X59967D01*
X60300Y88533D01*
Y89200D01*
X60634Y89533D01*
X60967D01*
X61300Y89200D01*
Y88533D01*
X60967Y88200D01*
X59301Y90199D02*
X61300D01*
Y91199D01*
X60967Y91532D01*
X59634D01*
X59301Y91199D01*
Y90199D01*
X61300Y92199D02*
X59967D01*
X59301Y92865D01*
X59967Y93532D01*
X61300D01*
X60300D01*
Y92199D01*
D16*
X4780Y162742D02*
X16280D01*
X4780Y213339D02*
X16280D01*
X30180Y162380D02*
Y172043D01*
Y204380D02*
Y214042D01*
X28958Y51500D02*
X34300D01*
X17600D02*
X28958D01*
X17600D02*
Y96300D01*
X34300D01*
Y51500D02*
Y96300D01*
D17*
X83282Y128650D02*
X87318D01*
X83282Y137950D02*
X87318D01*
D18*
X199665Y79016D02*
X198499Y80182D01*
X196166D01*
X195000Y79016D01*
Y74351D01*
X196166Y73184D01*
X198499D01*
X199665Y74351D01*
X195000Y23098D02*
X199665D01*
X197333D01*
Y16100D01*
X196000Y37369D02*
X198332D01*
X197166D01*
Y30371D01*
X196000D01*
X198332D01*
X195000Y51640D02*
Y44642D01*
X198499D01*
X199665Y45809D01*
Y46975D01*
X198499Y48141D01*
X195000D01*
X198499D01*
X199665Y49307D01*
Y50474D01*
X198499Y51640D01*
X195000D01*
Y65911D02*
Y60080D01*
X196166Y58913D01*
X198499D01*
X199665Y60080D01*
Y65911D01*
M02*
