G04*
G04 #@! TF.GenerationSoftware,Altium Limited,Altium Designer,22.10.1 (41)*
G04*
G04 Layer_Physical_Order=4*
G04 Layer_Color=16711680*
%FSLAX25Y25*%
%MOIN*%
G70*
G04*
G04 #@! TF.SameCoordinates,9C36EEA6-3C32-4AFD-A68D-23D06756630B*
G04*
G04*
G04 #@! TF.FilePolarity,Positive*
G04*
G01*
G75*
%ADD10C,0.00600*%
%ADD16C,0.01000*%
%ADD18C,0.02000*%
%ADD164C,0.00800*%
%ADD165C,0.01200*%
%ADD166C,0.01500*%
%ADD169C,0.06496*%
G04:AMPARAMS|DCode=170|XSize=64.96mil|YSize=64.96mil|CornerRadius=16.24mil|HoleSize=0mil|Usage=FLASHONLY|Rotation=90.000|XOffset=0mil|YOffset=0mil|HoleType=Round|Shape=RoundedRectangle|*
%AMROUNDEDRECTD170*
21,1,0.06496,0.03248,0,0,90.0*
21,1,0.03248,0.06496,0,0,90.0*
1,1,0.03248,0.01624,0.01624*
1,1,0.03248,0.01624,-0.01624*
1,1,0.03248,-0.01624,-0.01624*
1,1,0.03248,-0.01624,0.01624*
%
%ADD170ROUNDEDRECTD170*%
%ADD171C,0.11417*%
%ADD172O,0.03200X0.05118*%
%ADD173O,0.06102X0.03200*%
%ADD174C,0.05118*%
G04:AMPARAMS|DCode=175|XSize=60mil|YSize=60mil|CornerRadius=15mil|HoleSize=0mil|Usage=FLASHONLY|Rotation=0.000|XOffset=0mil|YOffset=0mil|HoleType=Round|Shape=RoundedRectangle|*
%AMROUNDEDRECTD175*
21,1,0.06000,0.03000,0,0,0.0*
21,1,0.03000,0.06000,0,0,0.0*
1,1,0.03000,0.01500,-0.01500*
1,1,0.03000,-0.01500,-0.01500*
1,1,0.03000,-0.01500,0.01500*
1,1,0.03000,0.01500,0.01500*
%
%ADD175ROUNDEDRECTD175*%
%ADD176C,0.06000*%
%ADD177C,0.02200*%
%ADD178C,0.02400*%
G36*
X93014Y128630D02*
X92940Y128700D01*
X92862Y128763D01*
X92781Y128819D01*
X92696Y128867D01*
X92608Y128908D01*
X92517Y128941D01*
X92422Y128967D01*
X92323Y128985D01*
X92221Y128996D01*
X92115Y129000D01*
Y129800D01*
X92221Y129804D01*
X92323Y129815D01*
X92422Y129833D01*
X92517Y129859D01*
X92608Y129893D01*
X92696Y129933D01*
X92781Y129981D01*
X92862Y130037D01*
X92940Y130100D01*
X93014Y130170D01*
Y128630D01*
D02*
G37*
G36*
X116189Y126300D02*
X116087Y126297D01*
X115987Y126287D01*
X115891Y126269D01*
X115797Y126243D01*
X115706Y126209D01*
X115617Y126168D01*
X115532Y126119D01*
X115449Y126062D01*
X115369Y125998D01*
X115292Y125926D01*
X114726Y126492D01*
X114798Y126569D01*
X114862Y126649D01*
X114919Y126732D01*
X114968Y126817D01*
X115009Y126906D01*
X115043Y126997D01*
X115069Y127091D01*
X115087Y127187D01*
X115097Y127287D01*
X115100Y127389D01*
X116189Y126300D01*
D02*
G37*
G36*
X129297Y125901D02*
X129284Y125886D01*
X129273Y125859D01*
X129263Y125819D01*
X129254Y125768D01*
X129247Y125704D01*
X129233Y125438D01*
X129230Y125200D01*
X127730Y125087D01*
X127788Y126209D01*
X129297Y125901D01*
D02*
G37*
G36*
X101589Y125470D02*
X101667Y125407D01*
X101748Y125352D01*
X101833Y125304D01*
X101921Y125263D01*
X102013Y125230D01*
X102108Y125204D01*
X102207Y125185D01*
X102309Y125174D01*
X102414Y125171D01*
Y124371D01*
X102309Y124367D01*
X102207Y124356D01*
X102108Y124337D01*
X102013Y124311D01*
X101921Y124278D01*
X101833Y124237D01*
X101748Y124189D01*
X101667Y124134D01*
X101589Y124071D01*
X101515Y124001D01*
Y125540D01*
X101589Y125470D01*
D02*
G37*
G36*
X113922Y121130D02*
X113884Y121162D01*
X113837Y121191D01*
X113781Y121217D01*
X113715Y121239D01*
X113640Y121257D01*
X113556Y121273D01*
X113462Y121285D01*
X113247Y121298D01*
X113126Y121300D01*
Y122500D01*
X113247Y122502D01*
X113556Y122527D01*
X113640Y122543D01*
X113715Y122561D01*
X113781Y122583D01*
X113837Y122609D01*
X113884Y122638D01*
X113922Y122670D01*
Y121130D01*
D02*
G37*
G36*
X102300Y122581D02*
X102353Y122564D01*
X102423Y122549D01*
X102509Y122536D01*
X102731Y122516D01*
X103187Y122501D01*
X103372Y122500D01*
X103315Y121300D01*
X103195Y121298D01*
X102982Y121281D01*
X102890Y121266D01*
X102808Y121246D01*
X102736Y121223D01*
X102673Y121195D01*
X102620Y121163D01*
X102577Y121126D01*
X102543Y121086D01*
X102263Y122600D01*
X102300Y122581D01*
D02*
G37*
G36*
X129250Y117210D02*
X127710D01*
X127714Y117220D01*
X127717Y117243D01*
X127720Y117279D01*
X127728Y117551D01*
X127730Y117889D01*
X129230D01*
X129250Y117210D01*
D02*
G37*
G36*
X76990Y88719D02*
X76856Y88510D01*
X76801Y88408D01*
X76755Y88308D01*
X76717Y88210D01*
X76688Y88113D01*
X76667Y88019D01*
X76654Y87927D01*
X76650Y87836D01*
X76050Y87750D01*
X76045Y87847D01*
X76030Y87942D01*
X76004Y88034D01*
X75969Y88125D01*
X75924Y88213D01*
X75868Y88298D01*
X75802Y88381D01*
X75726Y88462D01*
X75640Y88541D01*
X75544Y88617D01*
X77070Y88827D01*
X76990Y88719D01*
D02*
G37*
G36*
X64704Y85059D02*
X64716Y84900D01*
X64736Y84764D01*
X64764Y84650D01*
X64800Y84558D01*
X64844Y84490D01*
X64896Y84443D01*
X64956Y84419D01*
X65024Y84417D01*
X65100Y84438D01*
X63510Y83802D01*
X63584Y83842D01*
X63650Y83899D01*
X63709Y83974D01*
X63759Y84066D01*
X63802Y84175D01*
X63837Y84302D01*
X63865Y84447D01*
X63884Y84608D01*
X63896Y84787D01*
X63900Y84984D01*
X64700Y85240D01*
X64704Y85059D01*
D02*
G37*
G36*
X70340Y74574D02*
X70204Y74412D01*
X70082Y74211D01*
X69976Y73972D01*
X69885Y73695D01*
X69808Y73380D01*
X69746Y73026D01*
X69699Y72635D01*
X69650Y71738D01*
X69648Y71232D01*
X66432Y74448D01*
X66938Y74450D01*
X68226Y74546D01*
X68580Y74608D01*
X68895Y74685D01*
X69172Y74776D01*
X69411Y74883D01*
X69612Y75004D01*
X69774Y75140D01*
X70340Y74574D01*
D02*
G37*
G36*
X125209Y70297D02*
X125177Y70277D01*
X125139Y70249D01*
X125045Y70173D01*
X124859Y70004D01*
X124619Y69770D01*
X123592Y69875D01*
X123668Y69957D01*
X123731Y70037D01*
X123780Y70116D01*
X123817Y70193D01*
X123841Y70270D01*
X123851Y70345D01*
X123849Y70419D01*
X123834Y70492D01*
X123806Y70563D01*
X123764Y70633D01*
X125209Y70297D01*
D02*
G37*
G36*
X76655Y70253D02*
X76670Y70158D01*
X76696Y70065D01*
X76731Y69975D01*
X76776Y69888D01*
X76832Y69802D01*
X76898Y69719D01*
X76974Y69638D01*
X77060Y69560D01*
X77156Y69483D01*
X75630Y69273D01*
X75710Y69381D01*
X75844Y69590D01*
X75899Y69692D01*
X75945Y69792D01*
X75983Y69890D01*
X76012Y69986D01*
X76033Y70081D01*
X76046Y70173D01*
X76050Y70264D01*
X76650Y70350D01*
X76655Y70253D01*
D02*
G37*
G36*
X91504Y69034D02*
X91515Y68932D01*
X91533Y68833D01*
X91559Y68738D01*
X91593Y68646D01*
X91633Y68558D01*
X91681Y68473D01*
X91737Y68392D01*
X91800Y68314D01*
X91870Y68240D01*
X90330D01*
X90400Y68314D01*
X90463Y68392D01*
X90519Y68473D01*
X90567Y68558D01*
X90608Y68646D01*
X90641Y68738D01*
X90667Y68833D01*
X90685Y68932D01*
X90696Y69034D01*
X90700Y69139D01*
X91500D01*
X91504Y69034D01*
D02*
G37*
G36*
X56602Y68861D02*
X56611Y68739D01*
X56627Y68623D01*
X56649Y68514D01*
X56678Y68412D01*
X56715Y68316D01*
X56757Y68227D01*
X56807Y68144D01*
X56864Y68067D01*
X56927Y67997D01*
X56503Y67573D01*
X56433Y67636D01*
X56356Y67693D01*
X56273Y67743D01*
X56184Y67785D01*
X56088Y67822D01*
X55986Y67851D01*
X55877Y67873D01*
X55761Y67889D01*
X55639Y67898D01*
X55511Y67900D01*
X56600Y68989D01*
X56602Y68861D01*
D02*
G37*
G36*
X79160Y64262D02*
X79238Y64200D01*
X79319Y64144D01*
X79404Y64096D01*
X79492Y64055D01*
X79583Y64022D01*
X79678Y63996D01*
X79777Y63977D01*
X79879Y63966D01*
X79985Y63963D01*
Y63163D01*
X79879Y63159D01*
X79777Y63148D01*
X79678Y63129D01*
X79583Y63103D01*
X79492Y63070D01*
X79404Y63029D01*
X79319Y62981D01*
X79238Y62926D01*
X79160Y62863D01*
X79086Y62793D01*
Y64333D01*
X79160Y64262D01*
D02*
G37*
G36*
X94004Y63179D02*
X94015Y63077D01*
X94033Y62979D01*
X94059Y62883D01*
X94093Y62792D01*
X94133Y62704D01*
X94181Y62619D01*
X94237Y62538D01*
X94300Y62460D01*
X94370Y62386D01*
X92830D01*
X92900Y62460D01*
X92963Y62538D01*
X93019Y62619D01*
X93067Y62704D01*
X93107Y62792D01*
X93141Y62883D01*
X93167Y62979D01*
X93185Y63077D01*
X93196Y63179D01*
X93200Y63285D01*
X94000D01*
X94004Y63179D01*
D02*
G37*
G36*
X131318Y74900D02*
X131224Y74895D01*
X131130Y74881D01*
X131036Y74858D01*
X130942Y74825D01*
X130849Y74783D01*
X130756Y74731D01*
X130663Y74670D01*
X130570Y74599D01*
X130478Y74519D01*
X130386Y74430D01*
Y75970D01*
X130478Y75881D01*
X130570Y75801D01*
X130663Y75730D01*
X130756Y75669D01*
X130849Y75617D01*
X130942Y75575D01*
X131036Y75542D01*
X131130Y75519D01*
X131224Y75505D01*
X131318Y75500D01*
Y74900D01*
D02*
G37*
G36*
X136195Y74835D02*
X136132Y74765D01*
X136075Y74689D01*
X136025Y74606D01*
X135982Y74516D01*
X135946Y74420D01*
X135917Y74318D01*
X135894Y74209D01*
X135879Y74094D01*
X135870Y73972D01*
X135868Y73843D01*
X134779Y74932D01*
X134907Y74934D01*
X135029Y74943D01*
X135144Y74959D01*
X135253Y74981D01*
X135356Y75011D01*
X135452Y75047D01*
X135541Y75090D01*
X135624Y75139D01*
X135701Y75196D01*
X135771Y75259D01*
X136195Y74835D01*
D02*
G37*
G36*
X136482Y109200D02*
X136576Y109205D01*
X136670Y109219D01*
X136764Y109242D01*
X136857Y109275D01*
X136951Y109318D01*
X137044Y109369D01*
X137137Y109430D01*
X137230Y109501D01*
X137322Y109581D01*
X137414Y109670D01*
Y108130D01*
X137322Y108219D01*
X137230Y108299D01*
X137137Y108370D01*
X137044Y108431D01*
X136951Y108483D01*
X136857Y108525D01*
X136764Y108558D01*
X136670Y108581D01*
X136576Y108595D01*
X136482Y108600D01*
Y109200D01*
D02*
G37*
G36*
X167493Y90574D02*
X167437Y90514D01*
X167388Y90456D01*
X167347Y90398D01*
X167314Y90342D01*
X167289Y90288D01*
X167272Y90235D01*
X167263Y90184D01*
X167262Y90133D01*
X167269Y90085D01*
X167284Y90038D01*
X166479Y90700D01*
X166529Y90695D01*
X166581Y90697D01*
X166635Y90707D01*
X166691Y90725D01*
X166748Y90751D01*
X166808Y90785D01*
X166871Y90826D01*
X166935Y90876D01*
X167001Y90933D01*
X167069Y90999D01*
X167493Y90574D01*
D02*
G37*
G36*
X133157Y110333D02*
X133229Y110410D01*
X133293Y110490D01*
X133350Y110573D01*
X133398Y110658D01*
X133440Y110747D01*
X133473Y110838D01*
X133499Y110932D01*
X133517Y111028D01*
X133528Y111128D01*
X133531Y111230D01*
X134620Y110141D01*
X134517Y110138D01*
X134418Y110128D01*
X134321Y110109D01*
X134227Y110084D01*
X134136Y110050D01*
X134048Y110009D01*
X133962Y109960D01*
X133879Y109903D01*
X133799Y109839D01*
X133722Y109767D01*
X133157Y110333D01*
D02*
G37*
G36*
X135353Y115457D02*
X135424Y115534D01*
X135489Y115614D01*
X135546Y115697D01*
X135594Y115782D01*
X135636Y115871D01*
X135669Y115962D01*
X135695Y116056D01*
X135713Y116153D01*
X135724Y116252D01*
X135727Y116354D01*
X136816Y115265D01*
X136713Y115262D01*
X136614Y115252D01*
X136517Y115234D01*
X136423Y115208D01*
X136332Y115174D01*
X136244Y115133D01*
X136158Y115084D01*
X136075Y115027D01*
X135995Y114963D01*
X135918Y114891D01*
X135353Y115457D01*
D02*
G37*
G36*
X135126Y121513D02*
X135123Y121617D01*
X135112Y121719D01*
X135095Y121819D01*
X135071Y121915D01*
X135039Y122008D01*
X135001Y122099D01*
X134956Y122187D01*
X134904Y122272D01*
X134845Y122354D01*
X134779Y122433D01*
X136316Y122330D01*
X136241Y122261D01*
X136175Y122188D01*
X136117Y122111D01*
X136066Y122030D01*
X136023Y121944D01*
X135988Y121855D01*
X135961Y121761D01*
X135942Y121663D01*
X135930Y121561D01*
X135926Y121455D01*
X135126Y121513D01*
D02*
G37*
G36*
X133100Y129577D02*
X133178Y129505D01*
X133258Y129440D01*
X133341Y129384D01*
X133426Y129335D01*
X133514Y129294D01*
X133606Y129260D01*
X133700Y129234D01*
X133796Y129216D01*
X133896Y129206D01*
X133998Y129203D01*
X132909Y128114D01*
X132906Y128216D01*
X132896Y128315D01*
X132878Y128412D01*
X132852Y128506D01*
X132818Y128597D01*
X132777Y128685D01*
X132728Y128771D01*
X132671Y128854D01*
X132607Y128934D01*
X132535Y129011D01*
X133100Y129577D01*
D02*
G37*
G36*
X176422Y117824D02*
X176586Y117691D01*
X176666Y117637D01*
X176746Y117591D01*
X176825Y117554D01*
X176904Y117525D01*
X176981Y117505D01*
X177058Y117493D01*
X177134Y117490D01*
X176045Y116401D01*
X176042Y116477D01*
X176030Y116553D01*
X176010Y116631D01*
X175981Y116709D01*
X175944Y116788D01*
X175898Y116868D01*
X175844Y116949D01*
X175782Y117031D01*
X175711Y117113D01*
X175632Y117196D01*
X176339Y117903D01*
X176422Y117824D01*
D02*
G37*
G36*
X179292Y114048D02*
X179374Y113979D01*
X179456Y113920D01*
X179536Y113871D01*
X179616Y113832D01*
X179694Y113803D01*
X179771Y113784D01*
X179848Y113776D01*
X179923Y113777D01*
X179997Y113788D01*
X179159Y112496D01*
X179142Y112564D01*
X179118Y112633D01*
X179087Y112704D01*
X179049Y112776D01*
X179004Y112850D01*
X178952Y112926D01*
X178826Y113084D01*
X178753Y113165D01*
X178673Y113248D01*
X179208Y114127D01*
X179292Y114048D01*
D02*
G37*
G36*
X178227Y110944D02*
X178229Y110868D01*
X178242Y110790D01*
X178263Y110712D01*
X178295Y110633D01*
X178335Y110553D01*
X178386Y110472D01*
X178446Y110390D01*
X178515Y110308D01*
X178594Y110224D01*
X177770Y109634D01*
X177688Y109714D01*
X177526Y109851D01*
X177447Y109909D01*
X177369Y109959D01*
X177292Y110002D01*
X177217Y110038D01*
X177143Y110066D01*
X177070Y110087D01*
X176999Y110100D01*
X178234Y111020D01*
X178227Y110944D01*
D02*
G37*
G36*
X186796Y104566D02*
X186819Y104563D01*
X186855Y104560D01*
X187127Y104552D01*
X187465Y104550D01*
Y103050D01*
X186786Y103030D01*
Y104570D01*
X186796Y104566D01*
D02*
G37*
G36*
X181669Y103902D02*
X181749Y103838D01*
X181832Y103781D01*
X181917Y103732D01*
X182006Y103691D01*
X182097Y103657D01*
X182191Y103631D01*
X182287Y103613D01*
X182387Y103603D01*
X182489Y103600D01*
X181400Y102511D01*
X181397Y102613D01*
X181387Y102713D01*
X181369Y102809D01*
X181343Y102903D01*
X181309Y102994D01*
X181268Y103083D01*
X181219Y103168D01*
X181162Y103251D01*
X181098Y103331D01*
X181026Y103408D01*
X181592Y103974D01*
X181669Y103902D01*
D02*
G37*
G36*
X199931Y101113D02*
X199943Y101036D01*
X199963Y100959D01*
X199992Y100880D01*
X200029Y100801D01*
X200074Y100721D01*
X200128Y100641D01*
X200190Y100559D01*
X200261Y100477D01*
X200340Y100394D01*
X199633Y99687D01*
X199550Y99766D01*
X199387Y99899D01*
X199306Y99953D01*
X199226Y99999D01*
X199147Y100036D01*
X199069Y100065D01*
X198991Y100085D01*
X198914Y100097D01*
X198838Y100100D01*
X199927Y101189D01*
X199931Y101113D01*
D02*
G37*
G36*
X180364Y88814D02*
X180439Y88757D01*
X180521Y88706D01*
X180610Y88660D01*
X180706Y88620D01*
X180809Y88584D01*
X180920Y88554D01*
X181037Y88530D01*
X181162Y88510D01*
X181293Y88496D01*
X180106Y87515D01*
X180115Y87639D01*
X180116Y87757D01*
X180109Y87870D01*
X180094Y87976D01*
X180070Y88077D01*
X180038Y88172D01*
X179999Y88261D01*
X179950Y88345D01*
X179894Y88422D01*
X179829Y88494D01*
X180296Y88876D01*
X180364Y88814D01*
D02*
G37*
G36*
X170324Y88748D02*
X170410Y88693D01*
X170498Y88645D01*
X170588Y88603D01*
X170681Y88567D01*
X170776Y88538D01*
X170873Y88515D01*
X170973Y88499D01*
X171074Y88490D01*
X171179Y88486D01*
X171291Y87686D01*
X171184Y87682D01*
X171082Y87670D01*
X170984Y87650D01*
X170892Y87622D01*
X170805Y87585D01*
X170722Y87541D01*
X170644Y87488D01*
X170571Y87428D01*
X170503Y87359D01*
X170439Y87282D01*
X170241Y88809D01*
X170324Y88748D01*
D02*
G37*
G36*
X152714Y251430D02*
X152704Y251434D01*
X152681Y251437D01*
X152645Y251440D01*
X152373Y251448D01*
X152035Y251450D01*
Y252950D01*
X152714Y252970D01*
Y251430D01*
D02*
G37*
G36*
X123393Y252966D02*
X123416Y252963D01*
X123452Y252960D01*
X123723Y252952D01*
X124061Y252950D01*
Y251450D01*
X123382Y251430D01*
Y252970D01*
X123393Y252966D01*
D02*
G37*
G36*
X138319Y248308D02*
X138273Y248246D01*
X138232Y248176D01*
X138197Y248101D01*
X138168Y248019D01*
X138143Y247930D01*
X138124Y247835D01*
X138111Y247733D01*
X138103Y247625D01*
X138100Y247510D01*
X137100D01*
X137097Y247625D01*
X137076Y247835D01*
X137057Y247930D01*
X137032Y248019D01*
X137003Y248101D01*
X136968Y248176D01*
X136927Y248246D01*
X136881Y248308D01*
X136830Y248364D01*
X138370D01*
X138319Y248308D01*
D02*
G37*
G36*
X200823Y235784D02*
X200871Y235755D01*
X200927Y235730D01*
X200993Y235708D01*
X201068Y235689D01*
X201152Y235674D01*
X201246Y235662D01*
X201461Y235648D01*
X201582Y235646D01*
Y234446D01*
X201461Y234445D01*
X201152Y234419D01*
X201068Y234404D01*
X200993Y234385D01*
X200927Y234363D01*
X200871Y234338D01*
X200823Y234309D01*
X200786Y234276D01*
Y235816D01*
X200823Y235784D01*
D02*
G37*
G36*
X208687Y234894D02*
X208849Y234756D01*
X208925Y234701D01*
X208997Y234657D01*
X209064Y234622D01*
X209128Y234597D01*
X209189Y234582D01*
X209245Y234577D01*
X209298Y234581D01*
X208415Y233319D01*
X208405Y233357D01*
X208386Y233401D01*
X208359Y233450D01*
X208324Y233504D01*
X208280Y233564D01*
X208167Y233701D01*
X208020Y233860D01*
X207933Y233947D01*
X208600Y234978D01*
X208687Y234894D01*
D02*
G37*
G36*
X126696Y233366D02*
X126719Y233363D01*
X126755Y233360D01*
X127027Y233352D01*
X127365Y233350D01*
Y231850D01*
X126686Y231830D01*
Y233370D01*
X126696Y233366D01*
D02*
G37*
G36*
X135089Y231300D02*
X134000Y230211D01*
X133995Y230221D01*
X133982Y230240D01*
X133958Y230267D01*
X133772Y230465D01*
X133534Y230705D01*
X134595Y231766D01*
X135089Y231300D01*
D02*
G37*
G36*
X183473Y221402D02*
X183370Y221392D01*
X183270Y221375D01*
X183173Y221351D01*
X183079Y221320D01*
X182988Y221283D01*
X182900Y221238D01*
X182815Y221187D01*
X182732Y221129D01*
X182653Y221064D01*
X182577Y220993D01*
X181965Y221512D01*
X182037Y221590D01*
X182101Y221671D01*
X182156Y221754D01*
X182203Y221839D01*
X182241Y221927D01*
X182271Y222018D01*
X182292Y222111D01*
X182305Y222207D01*
X182309Y222305D01*
X182304Y222406D01*
X183473Y221402D01*
D02*
G37*
G36*
X22567Y208564D02*
X22644Y208507D01*
X22727Y208457D01*
X22816Y208415D01*
X22912Y208379D01*
X23014Y208349D01*
X23123Y208327D01*
X23239Y208311D01*
X23361Y208302D01*
X23489Y208300D01*
X22400Y207211D01*
X22398Y207339D01*
X22389Y207461D01*
X22373Y207577D01*
X22351Y207686D01*
X22321Y207788D01*
X22285Y207884D01*
X22242Y207973D01*
X22193Y208056D01*
X22136Y208133D01*
X22073Y208203D01*
X22497Y208627D01*
X22567Y208564D01*
D02*
G37*
G36*
X17567Y191464D02*
X17644Y191407D01*
X17727Y191358D01*
X17816Y191315D01*
X17912Y191279D01*
X18014Y191249D01*
X18123Y191227D01*
X18239Y191211D01*
X18361Y191202D01*
X18489Y191200D01*
X17400Y190111D01*
X17398Y190239D01*
X17389Y190361D01*
X17373Y190477D01*
X17351Y190586D01*
X17322Y190688D01*
X17285Y190784D01*
X17243Y190873D01*
X17193Y190956D01*
X17136Y191033D01*
X17073Y191103D01*
X17497Y191527D01*
X17567Y191464D01*
D02*
G37*
G36*
X19005Y179224D02*
X19019Y179130D01*
X19042Y179036D01*
X19075Y178943D01*
X19117Y178849D01*
X19169Y178756D01*
X19230Y178663D01*
X19301Y178570D01*
X19381Y178478D01*
X19470Y178386D01*
X17930D01*
X18019Y178478D01*
X18099Y178570D01*
X18170Y178663D01*
X18231Y178756D01*
X18282Y178849D01*
X18325Y178943D01*
X18358Y179036D01*
X18381Y179130D01*
X18395Y179224D01*
X18400Y179318D01*
X19000D01*
X19005Y179224D01*
D02*
G37*
G36*
X157223Y173946D02*
X157226Y173844D01*
X157234Y173742D01*
X157248Y173643D01*
X157267Y173544D01*
X157291Y173448D01*
X157321Y173352D01*
X157356Y173259D01*
X157396Y173167D01*
X157442Y173076D01*
X157494Y172987D01*
X156000Y173362D01*
X156081Y173415D01*
X156153Y173473D01*
X156216Y173538D01*
X156271Y173609D01*
X156318Y173686D01*
X156356Y173770D01*
X156385Y173859D01*
X156407Y173955D01*
X156419Y174057D01*
X156423Y174164D01*
X157223Y173946D01*
D02*
G37*
G36*
X122843Y160261D02*
X122793Y160257D01*
X122740Y160244D01*
X122682Y160222D01*
X122619Y160192D01*
X122553Y160152D01*
X122483Y160103D01*
X122408Y160045D01*
X122247Y159903D01*
X122160Y159818D01*
X121311Y160667D01*
X121396Y160754D01*
X121596Y160990D01*
X121645Y161060D01*
X121684Y161127D01*
X121715Y161189D01*
X121737Y161247D01*
X121750Y161301D01*
X121754Y161350D01*
X122843Y160261D01*
D02*
G37*
G36*
X183661Y159149D02*
X183651Y159144D01*
X183632Y159130D01*
X183605Y159107D01*
X183407Y158921D01*
X183167Y158683D01*
X182106Y159743D01*
X182572Y160238D01*
X183661Y159149D01*
D02*
G37*
G36*
X214127Y152903D02*
X214064Y152833D01*
X214007Y152756D01*
X213958Y152673D01*
X213915Y152584D01*
X213878Y152488D01*
X213849Y152386D01*
X213827Y152277D01*
X213811Y152161D01*
X213802Y152039D01*
X213800Y151911D01*
X212711Y153000D01*
X212839Y153002D01*
X212961Y153011D01*
X213077Y153027D01*
X213186Y153049D01*
X213288Y153078D01*
X213384Y153115D01*
X213473Y153157D01*
X213556Y153207D01*
X213633Y153264D01*
X213703Y153327D01*
X214127Y152903D01*
D02*
G37*
G36*
X207872Y152547D02*
X207886Y152528D01*
X207909Y152500D01*
X208096Y152303D01*
X208334Y152062D01*
X207273Y151002D01*
X206779Y151468D01*
X207868Y152557D01*
X207872Y152547D01*
D02*
G37*
G36*
X180215Y151715D02*
X180260Y151460D01*
X180335Y151235D01*
X180440Y151040D01*
X180575Y150875D01*
X180740Y150740D01*
X180935Y150635D01*
X181160Y150560D01*
X181415Y150515D01*
X181700Y150500D01*
X181261Y149000D01*
X180965Y148989D01*
X180678Y148958D01*
X180400Y148905D01*
X180131Y148830D01*
X179870Y148735D01*
X179619Y148618D01*
X179376Y148480D01*
X179142Y148321D01*
X178917Y148141D01*
X178700Y147939D01*
X177639Y149000D01*
X177841Y149216D01*
X178021Y149442D01*
X178180Y149676D01*
X178318Y149919D01*
X178435Y150171D01*
X178530Y150431D01*
X178604Y150700D01*
X178658Y150978D01*
X178689Y151265D01*
X178700Y151561D01*
X180200Y152000D01*
X180215Y151715D01*
D02*
G37*
G36*
X89124Y148960D02*
X89145Y148958D01*
X89658Y148953D01*
X89783Y148953D01*
X89848Y147953D01*
X89757Y147952D01*
X89483Y147936D01*
X89437Y147928D01*
X89401Y147919D01*
X89373Y147909D01*
X89355Y147897D01*
X89346Y147884D01*
X89116Y148961D01*
X89124Y148960D01*
D02*
G37*
G36*
X223014Y145830D02*
X223004Y145834D01*
X222981Y145837D01*
X222945Y145840D01*
X222673Y145848D01*
X222335Y145850D01*
Y147350D01*
X223014Y147370D01*
Y145830D01*
D02*
G37*
G36*
X81867Y146681D02*
X81933Y146650D01*
X82005Y146621D01*
X82083Y146597D01*
X82168Y146576D01*
X82259Y146560D01*
X82459Y146537D01*
X82568Y146531D01*
X82683Y146530D01*
X82926Y145530D01*
X82811Y145526D01*
X82704Y145517D01*
X82604Y145501D01*
X82513Y145479D01*
X82429Y145450D01*
X82354Y145415D01*
X82286Y145373D01*
X82226Y145326D01*
X82173Y145272D01*
X82129Y145211D01*
X81808Y146717D01*
X81867Y146681D01*
D02*
G37*
G36*
X176066Y145305D02*
X175600Y144811D01*
X174511Y145900D01*
X174521Y145905D01*
X174540Y145919D01*
X174567Y145942D01*
X174765Y146128D01*
X175005Y146366D01*
X176066Y145305D01*
D02*
G37*
G36*
X93842Y145819D02*
X93904Y145773D01*
X93974Y145732D01*
X94049Y145697D01*
X94131Y145668D01*
X94220Y145643D01*
X94315Y145624D01*
X94417Y145611D01*
X94525Y145603D01*
X94640Y145600D01*
Y144600D01*
X94525Y144597D01*
X94315Y144576D01*
X94220Y144557D01*
X94131Y144533D01*
X94049Y144503D01*
X93974Y144468D01*
X93904Y144427D01*
X93842Y144381D01*
X93786Y144330D01*
Y145870D01*
X93842Y145819D01*
D02*
G37*
G36*
X164535Y143995D02*
X164477Y144044D01*
X164413Y144087D01*
X164342Y144125D01*
X164266Y144158D01*
X164182Y144186D01*
X164093Y144209D01*
X163997Y144227D01*
X163895Y144240D01*
X163787Y144247D01*
X163672Y144250D01*
X163621Y145250D01*
X163736Y145253D01*
X163844Y145261D01*
X163945Y145275D01*
X164039Y145295D01*
X164127Y145321D01*
X164208Y145352D01*
X164282Y145389D01*
X164350Y145431D01*
X164411Y145480D01*
X164465Y145534D01*
X164535Y143995D01*
D02*
G37*
G36*
X150963Y145457D02*
X151028Y145413D01*
X151098Y145375D01*
X151175Y145342D01*
X151258Y145314D01*
X151347Y145291D01*
X151443Y145273D01*
X151545Y145260D01*
X151654Y145253D01*
X151768Y145250D01*
X151820Y144250D01*
X151705Y144247D01*
X151597Y144239D01*
X151496Y144225D01*
X151401Y144205D01*
X151313Y144179D01*
X151232Y144148D01*
X151158Y144111D01*
X151090Y144069D01*
X151030Y144020D01*
X150976Y143966D01*
X150906Y145505D01*
X150963Y145457D01*
D02*
G37*
G36*
X85642Y144219D02*
X85704Y144173D01*
X85774Y144132D01*
X85849Y144097D01*
X85931Y144068D01*
X86020Y144043D01*
X86115Y144024D01*
X86217Y144011D01*
X86325Y144003D01*
X86440Y144000D01*
Y143000D01*
X86325Y142997D01*
X86115Y142976D01*
X86020Y142957D01*
X85931Y142932D01*
X85849Y142903D01*
X85774Y142868D01*
X85704Y142827D01*
X85642Y142781D01*
X85586Y142730D01*
Y144270D01*
X85642Y144219D01*
D02*
G37*
G36*
X136761Y141250D02*
X136925Y141117D01*
X137006Y141063D01*
X137086Y141018D01*
X137165Y140982D01*
X137243Y140954D01*
X137321Y140934D01*
X137398Y140923D01*
X137474Y140921D01*
X136400Y139817D01*
X136396Y139893D01*
X136383Y139970D01*
X136362Y140047D01*
X136332Y140125D01*
X136295Y140204D01*
X136249Y140284D01*
X136195Y140365D01*
X136132Y140446D01*
X136061Y140528D01*
X135982Y140611D01*
X136678Y141329D01*
X136761Y141250D01*
D02*
G37*
G36*
X203536Y137447D02*
X202447Y136358D01*
X202443Y136368D01*
X202429Y136387D01*
X202406Y136415D01*
X202219Y136612D01*
X201981Y136853D01*
X203042Y137913D01*
X203536Y137447D01*
D02*
G37*
G36*
X95107Y137424D02*
X95122Y137330D01*
X95144Y137238D01*
X95174Y137148D01*
X95211Y137059D01*
X95255Y136974D01*
X95378Y136904D01*
X95512Y136841D01*
X95651Y136791D01*
X95795Y136751D01*
X95943Y136723D01*
X96096Y136706D01*
X96254Y136700D01*
X95288Y135900D01*
X94214Y136387D01*
X94209Y136387D01*
X94115Y136381D01*
X94146Y136417D01*
X93523Y136700D01*
X93670Y136705D01*
X93791Y136720D01*
X93886Y136744D01*
X93956Y136779D01*
X93999Y136823D01*
X94017Y136877D01*
X94009Y136941D01*
X93975Y137015D01*
X93916Y137099D01*
X93830Y137192D01*
X94879Y137265D01*
X95099Y137520D01*
X95107Y137424D01*
D02*
G37*
G36*
X66960Y137000D02*
X67038Y136937D01*
X67119Y136881D01*
X67203Y136833D01*
X67292Y136793D01*
X67383Y136759D01*
X67479Y136733D01*
X67577Y136715D01*
X67679Y136704D01*
X67785Y136700D01*
Y135900D01*
X67679Y135896D01*
X67577Y135885D01*
X67479Y135867D01*
X67383Y135841D01*
X67292Y135808D01*
X67203Y135767D01*
X67119Y135719D01*
X67038Y135663D01*
X66960Y135600D01*
X66886Y135530D01*
Y137070D01*
X66960Y137000D01*
D02*
G37*
G36*
X94960Y134500D02*
X95038Y134437D01*
X95119Y134381D01*
X95204Y134333D01*
X95292Y134292D01*
X95383Y134259D01*
X95478Y134233D01*
X95577Y134215D01*
X95679Y134204D01*
X95785Y134200D01*
Y133400D01*
X95679Y133396D01*
X95577Y133385D01*
X95478Y133367D01*
X95383Y133341D01*
X95292Y133308D01*
X95204Y133267D01*
X95119Y133219D01*
X95038Y133163D01*
X94960Y133100D01*
X94886Y133030D01*
Y134570D01*
X94960Y134500D01*
D02*
G37*
G36*
X93314Y133030D02*
X93240Y133100D01*
X93162Y133163D01*
X93081Y133219D01*
X92997Y133267D01*
X92908Y133308D01*
X92817Y133341D01*
X92721Y133367D01*
X92623Y133385D01*
X92521Y133396D01*
X92415Y133400D01*
Y134200D01*
X92521Y134204D01*
X92623Y134215D01*
X92721Y134233D01*
X92817Y134259D01*
X92908Y134292D01*
X92997Y134333D01*
X93081Y134381D01*
X93162Y134437D01*
X93240Y134500D01*
X93314Y134570D01*
Y133030D01*
D02*
G37*
G36*
X136770Y131128D02*
X136949Y130975D01*
X136983Y130953D01*
X137012Y130938D01*
X137037Y130929D01*
X137058Y130927D01*
X137074Y130931D01*
X136521Y130180D01*
X136519Y130194D01*
X136510Y130215D01*
X136492Y130242D01*
X136467Y130276D01*
X136392Y130363D01*
X136149Y130617D01*
X136714Y131183D01*
X136770Y131128D01*
D02*
G37*
D10*
X210200Y180771D02*
Y217300D01*
X210154Y158897D02*
X215427Y153624D01*
X207354Y156323D02*
X209577Y154100D01*
X210154Y180725D02*
X210200Y180771D01*
X208754Y158317D02*
X211977Y155094D01*
X207354Y156323D02*
Y216186D01*
X210154Y158897D02*
Y180725D01*
X208754Y158317D02*
Y216766D01*
X170100Y257400D02*
X210200Y217300D01*
X169520Y256000D02*
X208754Y216766D01*
X168940Y254600D02*
X207354Y216186D01*
X98825Y254600D02*
X168940D01*
X97665Y257400D02*
X170100D01*
X98245Y256000D02*
X169520D01*
X211939Y152850D02*
Y153068D01*
Y152850D02*
X212500Y152289D01*
Y152121D02*
Y152289D01*
X215102Y149898D02*
Y151501D01*
X215427Y151826D02*
Y153624D01*
X211977Y153106D02*
Y155094D01*
X211939Y153068D02*
X211977Y153106D01*
X215102Y149898D02*
X215200Y149800D01*
X215102Y151501D02*
X215427Y151826D01*
X98036Y255791D02*
X98245Y256000D01*
X28841Y254391D02*
X98616D01*
X27115Y257191D02*
X97456D01*
X16939Y244753D02*
X27978Y255791D01*
X97456Y257191D02*
X97665Y257400D01*
X18539Y244090D02*
X28841Y254391D01*
X15339Y245416D02*
X27115Y257191D01*
X98616Y254391D02*
X98825Y254600D01*
X27978Y255791D02*
X98036D01*
X16939Y195724D02*
Y244753D01*
X15339Y196387D02*
Y245416D01*
X18539Y212161D02*
Y244090D01*
X135160Y108900D02*
X138200D01*
X121800Y95540D02*
X135160Y108900D01*
X18539Y212161D02*
X23500Y207200D01*
X18700Y177600D02*
Y185374D01*
X14200Y189874D02*
Y195247D01*
Y189874D02*
X18700Y185374D01*
X15800Y194585D02*
X16939Y195724D01*
X14200Y195247D02*
X15339Y196387D01*
X15800Y192800D02*
Y194585D01*
Y192800D02*
X18500Y190100D01*
X179647Y89100D02*
X181200Y87547D01*
X178900Y89100D02*
X179647D01*
X181200Y87400D02*
Y87547D01*
X166368Y87221D02*
X168045Y85545D01*
X175345D01*
X165272Y87221D02*
X166368D01*
X175345Y85545D02*
X178900Y89100D01*
X163866Y88627D02*
X165272Y87221D01*
X166266Y89771D02*
X167281Y90786D01*
X161849Y91740D02*
X163866Y89723D01*
X166266Y89621D02*
Y89771D01*
X163866Y88627D02*
Y89723D01*
X167281Y90786D02*
Y91259D01*
X167300Y91277D01*
Y92323D01*
X55500Y69000D02*
X60900Y63600D01*
Y56038D02*
Y63600D01*
Y56038D02*
X63938Y53000D01*
X111500D01*
X76350Y68750D02*
Y89350D01*
Y68750D02*
X76500Y68600D01*
X76200Y89500D02*
X76350Y89350D01*
X121800Y77600D02*
Y95540D01*
X127851Y69352D02*
Y71548D01*
X111500Y53000D02*
X127851Y69352D01*
X121800Y77600D02*
X127851Y71548D01*
X129600Y75200D02*
X132600D01*
X139400Y82000D01*
X141100Y97304D02*
X143596Y99800D01*
X141100Y80164D02*
Y97304D01*
X139400Y82000D02*
Y97867D01*
X143033Y101500D01*
X158123D01*
X143596Y99800D02*
X157393D01*
X161849Y95343D01*
X158123Y101500D02*
X167300Y92323D01*
X161849Y91740D02*
Y95343D01*
X134768Y73832D02*
X141100Y80164D01*
D16*
X143200Y173600D02*
Y188300D01*
Y173600D02*
X148600Y168200D01*
X137600Y229023D02*
X137700Y229123D01*
X137600Y172406D02*
Y229023D01*
X137700Y229123D02*
Y231277D01*
X137600Y231377D02*
X137700Y231277D01*
X137600Y231377D02*
Y249150D01*
Y172406D02*
X145906Y164100D01*
X183498D02*
X210199Y137399D01*
Y111788D02*
Y137399D01*
X145906Y164100D02*
X183498D01*
X214699Y109924D02*
Y138697D01*
X185196Y168200D02*
X214699Y138697D01*
X148600Y168200D02*
X185196D01*
X89848Y148453D02*
X91095Y149700D01*
X86788Y145624D02*
X89847D01*
X86312Y146100D02*
X86788Y145624D01*
X88530Y148453D02*
X89848D01*
X88300Y148224D02*
X88530Y148453D01*
X130701Y146599D02*
X137479Y139821D01*
X83723Y146100D02*
X86312D01*
X89847Y145624D02*
X91923Y147700D01*
X90098Y143500D02*
X91098Y142500D01*
X84800Y143500D02*
X90098D01*
X91923Y147700D02*
X119223D01*
X93000Y145100D02*
X118995D01*
X91098Y142500D02*
X128272D01*
X81200Y145800D02*
X81430Y146030D01*
X83653D02*
X83723Y146100D01*
X81430Y146030D02*
X83653D01*
X91095Y149700D02*
X120052D01*
X119496Y144599D02*
X129001D01*
X120325Y146599D02*
X130701D01*
X119223Y147700D02*
X120325Y146599D01*
X118995Y145100D02*
X119496Y144599D01*
X121153Y148599D02*
X132801D01*
X141870Y139530D01*
X129001Y144599D02*
X136379Y137221D01*
X120052Y149700D02*
X121153Y148599D01*
X140600Y135200D02*
X150600Y125200D01*
X135572Y135200D02*
X140600D01*
X128272Y142500D02*
X135572Y135200D01*
X137479Y139821D02*
X137500D01*
X136379Y137221D02*
X141879D01*
X169100Y121540D02*
X173800Y116840D01*
X165440Y125200D02*
X166240Y124400D01*
X169100Y121540D02*
Y121823D01*
X166240Y124400D02*
X166523D01*
X169100Y121823D01*
X150600Y125200D02*
X165440D01*
X151900Y127200D02*
X166700D01*
X141879Y137221D02*
X151900Y127200D01*
X141870Y139530D02*
X143159D01*
X143273Y139416D01*
X177147Y110965D02*
X181712Y106400D01*
X177147Y110965D02*
Y111190D01*
X179913Y112715D02*
X180237D01*
X176068Y113790D02*
X178838D01*
X179913Y112715D01*
X175136Y118399D02*
Y118764D01*
Y118399D02*
X177145Y116390D01*
X166700Y127200D02*
X175136Y118764D01*
X173800Y116058D02*
Y116840D01*
Y116058D02*
X176068Y113790D01*
X181712Y106400D02*
X204812D01*
X210199Y111788D01*
X198827Y101200D02*
X200927Y99100D01*
X203875D01*
X214699Y109924D01*
X150206Y144750D02*
X165235D01*
X165285Y144800D01*
X150156Y144700D02*
X150206Y144750D01*
D18*
X223900Y221000D02*
Y246800D01*
X198100Y272600D02*
X223900Y246800D01*
X155247Y272600D02*
X198100D01*
X38672Y251600D02*
X71000D01*
X36300Y249228D02*
X38672Y251600D01*
X70900Y260100D02*
X110092D01*
X110600Y259591D01*
X142238D01*
X155247Y272600D01*
X36300Y148600D02*
X45100Y139800D01*
X36300Y148600D02*
Y249228D01*
X45100Y139800D02*
X67800D01*
D164*
X146900Y175195D02*
Y204100D01*
X158000Y215200D01*
X146900Y175195D02*
X152195Y169900D01*
X176218Y215200D02*
X183400Y222382D01*
Y222500D01*
X91736Y129400D02*
X93800D01*
X79000Y116665D02*
X91736Y129400D01*
X158000Y215200D02*
X176218D01*
X216928Y109406D02*
Y138872D01*
X152195Y169900D02*
X185900D01*
X216928Y138872D01*
X157600Y179234D02*
Y179612D01*
X156824Y172680D02*
Y178457D01*
X157600Y179234D01*
X91100Y67454D02*
Y69973D01*
X93600Y67692D02*
X110300Y84392D01*
X112514Y91387D02*
Y92660D01*
X110300Y84392D02*
Y86910D01*
X134631Y111241D01*
X91100Y69973D02*
X112514Y91387D01*
Y92660D02*
X134041Y114187D01*
X93600Y61600D02*
Y67692D01*
X80811Y63563D02*
X85999Y68751D01*
X110309Y93441D02*
Y94718D01*
X85999Y69132D02*
X110309Y93441D01*
X78300Y63563D02*
X80811D01*
X85999Y68751D02*
Y69132D01*
X134041Y114187D02*
X134648D01*
X136827Y116365D01*
X76100Y136300D02*
X79760Y139960D01*
X80200Y140400D02*
X127500D01*
X79760Y139960D02*
X79760D01*
X80200Y140400D01*
X66100Y136300D02*
X76100D01*
X127500Y140400D02*
X134665Y133235D01*
X169561Y87945D02*
X169703Y88086D01*
X171897D01*
X173103Y89292D01*
X64300Y81179D02*
Y112400D01*
X66400Y71200D02*
X72000Y76800D01*
Y117554D02*
X88246Y133800D01*
X72000Y76800D02*
Y117554D01*
X77517Y66081D02*
X79000Y67564D01*
X77283Y66081D02*
X77517D01*
X75800Y64598D02*
X77283Y66081D01*
X79000Y67564D02*
Y116665D01*
X75800Y58800D02*
Y64598D01*
X130479Y134875D02*
X134454Y130900D01*
X136431D02*
X137366Y129965D01*
X134454Y130900D02*
X136431D01*
X137366Y129965D02*
X137600D01*
X134665Y133235D02*
X137335D01*
X137400Y133300D01*
X139651D02*
X150351Y122600D01*
X137400Y133300D02*
X139651D01*
X150351Y122600D02*
X165353D01*
X165453Y122500D02*
X165735D01*
X167200Y121036D01*
Y117743D02*
X176153Y108790D01*
X167200Y117743D02*
Y121036D01*
X165353Y122600D02*
X165453Y122500D01*
X156556Y172412D02*
X156824Y172680D01*
X112242Y136300D02*
X113667Y134875D01*
X129036Y133075D02*
X134009Y128103D01*
X111395Y133800D02*
X112120Y133075D01*
X129036D01*
X113667Y134875D02*
X130479D01*
X94000Y137475D02*
X94113D01*
X88200Y136300D02*
X95288D01*
X94113Y137475D02*
X95288Y136300D01*
X94100Y133800D02*
X111395D01*
X176153Y108790D02*
X176210D01*
X182500Y102500D01*
X95288Y136300D02*
X112242D01*
X173103Y89292D02*
X173218D01*
X173609Y89684D01*
X177079D01*
X204722Y97200D02*
X216928Y109406D01*
X177079Y89684D02*
X184596Y97200D01*
X204722D01*
X79300Y55300D02*
X109696D01*
X75800Y58800D02*
X79300Y55300D01*
X109696D02*
X117294Y62898D01*
Y63011D01*
X124671Y71256D02*
X124892Y71035D01*
X117294Y63011D02*
X124892Y70609D01*
Y71035D01*
X135526Y119935D02*
Y123091D01*
X135600Y123165D01*
X110309Y94718D02*
X135526Y119935D01*
X88246Y133800D02*
X93500D01*
X64300Y112400D02*
X88200Y136300D01*
X93500Y133800D02*
X94100Y134400D01*
X100730Y124770D02*
X113570D01*
X116200Y127400D01*
D165*
X186900Y179500D02*
X192100Y174300D01*
X186900Y179500D02*
Y210300D01*
X209229Y233500D02*
X209500D01*
X207683Y235046D02*
X209229Y233500D01*
X200000Y235046D02*
X207683D01*
X119747Y155023D02*
Y158255D01*
X122854Y161361D01*
X119747Y155023D02*
X122503Y152267D01*
X124184D02*
X125252Y151199D01*
X125387D01*
X122503Y152267D02*
X124184D01*
X101822Y121891D02*
X102529D01*
X102538Y121900D01*
X101631Y121700D02*
X101822Y121891D01*
X102538Y121900D02*
X114708D01*
D166*
X140300Y172888D02*
Y245211D01*
X141200Y246111D01*
Y246300D01*
X140300Y172888D02*
X147038Y166150D01*
X125900Y232600D02*
X132700D01*
X135100Y230200D01*
X122597Y252200D02*
X153500D01*
X206768Y152568D02*
X212736Y146600D01*
X223800D01*
X179450Y156027D02*
X183672Y160249D01*
X212449Y134304D02*
Y138048D01*
X184347Y166150D02*
X212449Y138048D01*
X147038Y166150D02*
X184347D01*
X179450Y149750D02*
Y156027D01*
X212449Y110856D02*
Y134304D01*
X195791Y103800D02*
X196042Y104050D01*
X205644D01*
X212449Y110856D01*
X186000Y103800D02*
X195791D01*
X179450Y149750D02*
X190145D01*
X203547Y136347D01*
X174500Y144800D02*
X179450Y149750D01*
X128566Y126266D02*
Y126690D01*
X128700Y126824D01*
X128480Y126180D02*
X128566Y126266D01*
X128480Y116424D02*
Y126180D01*
D169*
X7200Y242200D02*
D03*
X127397Y213303D02*
D03*
Y223303D02*
D03*
X66400Y71200D02*
D03*
Y61200D02*
D03*
D170*
X7200Y232200D02*
D03*
X127397Y203303D02*
D03*
X66400Y81200D02*
D03*
D171*
X137700Y267300D02*
D03*
X218800Y91200D02*
D03*
X7900Y46300D02*
D03*
D172*
X13130Y107098D02*
D03*
Y87414D02*
D03*
D173*
X2500Y111036D02*
D03*
Y83477D02*
D03*
D174*
X11480Y178300D02*
D03*
Y197985D02*
D03*
D175*
X113736Y268700D02*
D03*
X151800Y200700D02*
D03*
D176*
X103736Y268700D02*
D03*
X93736D02*
D03*
X83736D02*
D03*
X201800Y200700D02*
D03*
X191800D02*
D03*
X181800D02*
D03*
X171800D02*
D03*
X161800D02*
D03*
D177*
X209600Y224100D02*
D03*
X203900Y188900D02*
D03*
X192100Y174300D02*
D03*
X212400Y216600D02*
D03*
X170673Y249473D02*
D03*
X223900Y221000D02*
D03*
X196900Y176110D02*
D03*
X212500Y152121D02*
D03*
X209577Y154100D02*
D03*
X186900Y210300D02*
D03*
X209500Y233500D02*
D03*
X200000Y235046D02*
D03*
X143200Y188300D02*
D03*
X223300Y167300D02*
D03*
X11200Y216500D02*
D03*
X183400Y222500D02*
D03*
X181700Y238100D02*
D03*
X169100Y243200D02*
D03*
X93800Y129400D02*
D03*
X148265Y261234D02*
D03*
X186100Y248400D02*
D03*
X192900Y248000D02*
D03*
X213400Y227000D02*
D03*
X167343Y218707D02*
D03*
X147100Y227500D02*
D03*
X37600Y269500D02*
D03*
X144293Y216906D02*
D03*
X135100Y230200D02*
D03*
X141200Y246300D02*
D03*
X125900Y232600D02*
D03*
X71000Y251600D02*
D03*
X70900Y260100D02*
D03*
X146900Y272500D02*
D03*
X122597Y252200D02*
D03*
X191483Y219003D02*
D03*
X191743Y227407D02*
D03*
X197600Y161800D02*
D03*
X215200Y149800D02*
D03*
X223800Y146600D02*
D03*
X206768Y152568D02*
D03*
X183672Y160249D02*
D03*
X55400Y123407D02*
D03*
X32300Y121100D02*
D03*
X31500Y155100D02*
D03*
X20722Y159015D02*
D03*
X20743Y112091D02*
D03*
X91100Y67454D02*
D03*
X93600Y61600D02*
D03*
X134631Y111241D02*
D03*
X138200Y108900D02*
D03*
X8500Y81500D02*
D03*
X57694Y166350D02*
D03*
X51400Y100100D02*
D03*
X43600Y112700D02*
D03*
X153500Y252200D02*
D03*
X137600Y249150D02*
D03*
X76800Y223500D02*
D03*
X23397Y239500D02*
D03*
X85831Y214900D02*
D03*
X88300Y148224D02*
D03*
X93000Y145100D02*
D03*
X81200Y145800D02*
D03*
X61704Y157899D02*
D03*
X67800Y139800D02*
D03*
X66100Y136300D02*
D03*
X76934Y164230D02*
D03*
X122854Y161361D02*
D03*
X125387Y151199D02*
D03*
X71169Y171500D02*
D03*
X23500Y207200D02*
D03*
X18500Y190100D02*
D03*
X18700Y177600D02*
D03*
X181200Y87400D02*
D03*
X169561Y87945D02*
D03*
X166266Y89621D02*
D03*
X162100Y82200D02*
D03*
X23500Y220600D02*
D03*
X23600Y230250D02*
D03*
X51270Y187657D02*
D03*
X6000Y55500D02*
D03*
X55500Y69000D02*
D03*
X59032Y70200D02*
D03*
X50500Y91000D02*
D03*
X34300Y86196D02*
D03*
X35437Y98247D02*
D03*
X34300Y77297D02*
D03*
X35100Y70200D02*
D03*
X44000Y53563D02*
D03*
X43700Y61563D02*
D03*
X74500Y115959D02*
D03*
X76200Y89500D02*
D03*
X76500Y68600D02*
D03*
X150200Y49400D02*
D03*
X134009Y128103D02*
D03*
X137500Y139821D02*
D03*
X137600Y129965D02*
D03*
X143273Y139416D02*
D03*
X100284Y177300D02*
D03*
X119984Y168450D02*
D03*
X123600Y185500D02*
D03*
X156556Y172412D02*
D03*
X168900Y173800D02*
D03*
X121597Y194103D02*
D03*
X79897Y193803D02*
D03*
X82797Y190903D02*
D03*
X76997D02*
D03*
X82797Y196703D02*
D03*
X76997D02*
D03*
X105297Y189003D02*
D03*
X103300Y222100D02*
D03*
X57910Y222300D02*
D03*
X85300Y137500D02*
D03*
X121100Y137900D02*
D03*
X94000Y137475D02*
D03*
X177147Y111190D02*
D03*
X180237Y112715D02*
D03*
X198827Y101200D02*
D03*
X182500Y102500D02*
D03*
X177145Y116390D02*
D03*
X84800Y143500D02*
D03*
X186000Y103800D02*
D03*
X124671Y71256D02*
D03*
X129600Y75200D02*
D03*
X128600Y78300D02*
D03*
X191000Y251300D02*
D03*
X172100Y178900D02*
D03*
X12300Y39500D02*
D03*
X17500D02*
D03*
X169995Y39508D02*
D03*
X185100Y4900D02*
D03*
X174700Y4800D02*
D03*
X166800Y39500D02*
D03*
X145300Y59500D02*
D03*
X167200Y49500D02*
D03*
X78300Y63563D02*
D03*
X135600Y123165D02*
D03*
X145300Y87100D02*
D03*
Y92500D02*
D03*
X134768Y73832D02*
D03*
X85300Y126500D02*
D03*
X84600Y92200D02*
D03*
X150100Y94000D02*
D03*
X145300Y81900D02*
D03*
X150200Y84500D02*
D03*
X150100Y89000D02*
D03*
X69200Y132200D02*
D03*
X82291Y124309D02*
D03*
X94100Y133800D02*
D03*
X178100Y44000D02*
D03*
X185300Y39800D02*
D03*
X185600Y44500D02*
D03*
X185500Y54500D02*
D03*
X185100Y9700D02*
D03*
X184900Y14400D02*
D03*
X185000Y19200D02*
D03*
X185100Y24600D02*
D03*
Y29400D02*
D03*
X185200Y34500D02*
D03*
X182500Y49500D02*
D03*
X182400Y59400D02*
D03*
X179900Y37100D02*
D03*
Y31900D02*
D03*
Y27100D02*
D03*
Y22200D02*
D03*
X179800Y17100D02*
D03*
Y7100D02*
D03*
Y12300D02*
D03*
X174800Y9800D02*
D03*
Y14600D02*
D03*
Y19700D02*
D03*
Y24700D02*
D03*
Y29600D02*
D03*
Y34400D02*
D03*
Y39400D02*
D03*
X161500Y44500D02*
D03*
X171500Y43900D02*
D03*
X165400D02*
D03*
X157600Y39500D02*
D03*
X157100Y44500D02*
D03*
X162300Y39500D02*
D03*
X162100Y77100D02*
D03*
Y72100D02*
D03*
Y67100D02*
D03*
X157300Y84600D02*
D03*
X157200Y74600D02*
D03*
X157100Y64600D02*
D03*
X150300Y59500D02*
D03*
X177200D02*
D03*
X179700Y54500D02*
D03*
X177200Y49500D02*
D03*
X172200Y59500D02*
D03*
X174700Y54500D02*
D03*
X172200Y49500D02*
D03*
X167200Y59500D02*
D03*
X169700Y54500D02*
D03*
X162200Y59500D02*
D03*
X164700Y54500D02*
D03*
X162200Y49500D02*
D03*
X157200Y79500D02*
D03*
Y69500D02*
D03*
Y59500D02*
D03*
X159700Y54500D02*
D03*
X157200Y49500D02*
D03*
X145300Y76800D02*
D03*
Y70700D02*
D03*
X150200Y79500D02*
D03*
Y74500D02*
D03*
Y54500D02*
D03*
Y44500D02*
D03*
X147700Y39500D02*
D03*
X145200Y64500D02*
D03*
Y54500D02*
D03*
X142700Y49500D02*
D03*
X145200Y44500D02*
D03*
X142700Y39500D02*
D03*
X140200Y54500D02*
D03*
X137700Y49500D02*
D03*
X140200Y44500D02*
D03*
X137700Y39500D02*
D03*
X135200Y44500D02*
D03*
X132700Y39500D02*
D03*
X130200Y44500D02*
D03*
X127700Y39500D02*
D03*
X125200Y44500D02*
D03*
X122700Y39500D02*
D03*
X120200Y44500D02*
D03*
X117700Y39500D02*
D03*
X115200Y44500D02*
D03*
X112700Y39500D02*
D03*
X110200Y44500D02*
D03*
X107700Y39500D02*
D03*
X105200Y44500D02*
D03*
X102700Y39500D02*
D03*
X100200Y44500D02*
D03*
X97700Y39500D02*
D03*
X95200Y44500D02*
D03*
X92700Y39500D02*
D03*
X90200Y44500D02*
D03*
X87700Y39500D02*
D03*
X85200Y44500D02*
D03*
X82700Y39500D02*
D03*
X80200Y44500D02*
D03*
X77700Y39500D02*
D03*
X75200Y44500D02*
D03*
X72700Y39500D02*
D03*
X70200Y44500D02*
D03*
X67700Y39500D02*
D03*
X65200Y44500D02*
D03*
X62700Y39500D02*
D03*
X60200Y44500D02*
D03*
X57700Y39500D02*
D03*
X55200Y44500D02*
D03*
X52700Y39500D02*
D03*
X50200Y44500D02*
D03*
X47700Y39500D02*
D03*
X45200Y44500D02*
D03*
X42700Y39500D02*
D03*
X40200Y44500D02*
D03*
X37700Y39500D02*
D03*
X35200Y44500D02*
D03*
X32700Y39500D02*
D03*
X30200Y44500D02*
D03*
X27700Y39500D02*
D03*
X25200Y44500D02*
D03*
X22700Y39500D02*
D03*
X20200Y44500D02*
D03*
X157600Y179612D02*
D03*
X203547Y136347D02*
D03*
X173200Y152800D02*
D03*
X165431Y156100D02*
D03*
X165400Y152900D02*
D03*
X153000Y157700D02*
D03*
X156800Y153500D02*
D03*
X152900Y153600D02*
D03*
X174900Y257800D02*
D03*
X200000Y131800D02*
D03*
Y128400D02*
D03*
X193800Y112300D02*
D03*
X186100Y112349D02*
D03*
X183200Y74000D02*
D03*
Y82700D02*
D03*
X129000Y94100D02*
D03*
X109449Y101149D02*
D03*
X111400Y79500D02*
D03*
X101772Y107472D02*
D03*
X86000Y108700D02*
D03*
X14500Y55400D02*
D03*
X136827Y116365D02*
D03*
X174500Y144800D02*
D03*
X165285D02*
D03*
X116200Y127400D02*
D03*
X101631Y121700D02*
D03*
X100730Y124770D02*
D03*
X114708Y121900D02*
D03*
X128700Y126824D02*
D03*
X128480Y116424D02*
D03*
X150156Y144700D02*
D03*
X148700Y104000D02*
D03*
X164700D02*
D03*
X159700D02*
D03*
X154200D02*
D03*
X164700Y109000D02*
D03*
X159700D02*
D03*
X154200D02*
D03*
X148700D02*
D03*
X164700Y114500D02*
D03*
X159700D02*
D03*
X154200D02*
D03*
X164700Y120000D02*
D03*
X159700D02*
D03*
X154200D02*
D03*
D178*
X148700D02*
D03*
Y114500D02*
D03*
M02*
