G04*
G04 #@! TF.GenerationSoftware,Altium Limited,Altium Designer,22.10.1 (41)*
G04*
G04 Layer_Color=65535*
%FSLAX25Y25*%
%MOIN*%
G70*
G04*
G04 #@! TF.SameCoordinates,B3D105EC-CFC3-471A-8A15-C24A07D35649*
G04*
G04*
G04 #@! TF.FilePolarity,Positive*
G04*
G01*
G75*
%ADD10C,0.00500*%
%ADD11C,0.01000*%
D10*
X19152Y161640D02*
X50648D01*
Y254160D01*
X19152D02*
X50648D01*
X19152Y161640D02*
Y254160D01*
X96947Y161640D02*
X128443D01*
Y254160D01*
X96947D02*
X128443D01*
X96947Y161640D02*
Y254160D01*
X174742Y161640D02*
X206238D01*
Y254160D01*
X174742D02*
X206238D01*
X174742Y161640D02*
Y254160D01*
X58049Y21740D02*
Y114260D01*
X89546D01*
Y21740D02*
Y114260D01*
X58049Y21740D02*
X89546D01*
X135845D02*
Y114260D01*
X167341D01*
Y21740D02*
Y114260D01*
X135845Y21740D02*
X167341D01*
X19152Y61740D02*
Y154260D01*
X50648D01*
Y61740D02*
Y154260D01*
X19152Y61740D02*
X50648D01*
X58049Y121795D02*
X89546D01*
Y214315D01*
X58049D02*
X89546D01*
X58049Y121795D02*
Y214315D01*
X96947Y61740D02*
Y154260D01*
X128443D01*
Y61740D02*
Y154260D01*
X96947Y61740D02*
X128443D01*
X174742D02*
Y154260D01*
X206238D01*
Y61740D02*
Y154260D01*
X174742Y61740D02*
X206238D01*
X135845Y121795D02*
X167341D01*
Y214315D01*
X135845D02*
X167341D01*
X135845Y121795D02*
Y214315D01*
D11*
X34503Y231700D02*
Y241697D01*
X34003Y174200D02*
Y184197D01*
X29004Y179198D02*
X39001D01*
X112297Y231700D02*
Y241697D01*
X111797Y174200D02*
Y184197D01*
X106799Y179198D02*
X116796D01*
X190093Y231700D02*
Y241697D01*
X189593Y174200D02*
Y184197D01*
X184594Y179198D02*
X194591D01*
X72900Y34300D02*
Y44297D01*
X67902Y39298D02*
X77898D01*
X73400Y91800D02*
Y101797D01*
X150695Y34300D02*
Y44297D01*
X145697Y39298D02*
X155693D01*
X151195Y91800D02*
Y101797D01*
X34003Y74300D02*
Y84297D01*
X29004Y79298D02*
X39001D01*
X34503Y131800D02*
Y141797D01*
X73400Y191855D02*
Y201852D01*
X72900Y134355D02*
Y144352D01*
X67902Y139354D02*
X77898D01*
X111797Y74300D02*
Y84297D01*
X106799Y79298D02*
X116796D01*
X112297Y131800D02*
Y141797D01*
X189593Y74300D02*
Y84297D01*
X184594Y79298D02*
X194591D01*
X190093Y131800D02*
Y141797D01*
X151195Y191855D02*
Y201852D01*
X150695Y134355D02*
Y144352D01*
X145697Y139354D02*
X155693D01*
M02*
