ISO-10303-21;
HEADER;
FILE_DESCRIPTION (( 'STEP AP214' ),
    '1' );
FILE_NAME ('cubit2_bottom_enclosure.STEP',
    '2024-05-18T07:42:50',
    ( '' ),
    ( '' ),
    'SwSTEP 2.0',
    'SolidWorks 2023',
    '' );
FILE_SCHEMA (( 'AUTOMOTIVE_DESIGN' ));
ENDSEC;

DATA;
#1 = CIRCLE ( 'NONE', #932, 1.250000000000007994 ) ;
#2 = CARTESIAN_POINT ( 'NONE',  ( 4.295687810014245933, 64.51002608338107791, 2.000000000000000000 ) ) ;
#3 = LINE ( 'NONE', #484, #144 ) ;
#4 = CARTESIAN_POINT ( 'NONE',  ( 51.82134653198699681, 72.97032663101762751, 1.999999999999999556 ) ) ;
#5 = ORIENTED_EDGE ( 'NONE', *, *, #602, .T. ) ;
#6 = EDGE_CURVE ( 'NONE', #854, #708, #905, .T. ) ;
#7 = DIRECTION ( 'NONE',  ( 0.000000000000000000, -0.000000000000000000, -1.000000000000000000 ) ) ;
#8 = EDGE_CURVE ( 'NONE', #482, #285, #488, .T. ) ;
#9 = CARTESIAN_POINT ( 'NONE',  ( 33.63530561777929506, 64.55323614440233371, 0.000000000000000000 ) ) ;
#10 = ORIENTED_EDGE ( 'NONE', *, *, #800, .F. ) ;
#11 = ORIENTED_EDGE ( 'NONE', *, *, #487, .F. ) ;
#12 = DIRECTION ( 'NONE',  ( -0.9999896895406394925, 0.004541014469855547166, -0.000000000000000000 ) ) ;
#13 = CARTESIAN_POINT ( 'NONE',  ( 0.000000000000000000, 14.60512789323294136, 2.000000000000000000 ) ) ;
#14 = VECTOR ( 'NONE', #342, 1000.000000000000000 ) ;
#15 = VERTEX_POINT ( 'NONE', #597 ) ;
#16 = VECTOR ( 'NONE', #288, 1000.000000000000000 ) ;
#17 = VERTEX_POINT ( 'NONE', #518 ) ;
#18 = CARTESIAN_POINT ( 'NONE',  ( 43.90927744908574226, 54.27958569903599795, 0.000000000000000000 ) ) ;
#19 = EDGE_CURVE ( 'NONE', #201, #1032, #141, .T. ) ;
#20 = DIRECTION ( 'NONE',  ( 0.000000000000000000, -1.000000000000000000, 0.000000000000000000 ) ) ;
#21 = ORIENTED_EDGE ( 'NONE', *, *, #207, .T. ) ;
#22 = AXIS2_PLACEMENT_3D ( 'NONE', #1093, #603, #463 ) ;
#23 = ORIENTED_EDGE ( 'NONE', *, *, #1127, .F. ) ;
#24 = FILL_AREA_STYLE ('',( #976 ) ) ;
#25 = CARTESIAN_POINT ( 'NONE',  ( 50.62487521466800899, 72.97032663101764172, -0.1000000000000002554 ) ) ;
#26 = B_SPLINE_CURVE_WITH_KNOTS ( 'NONE', 3,
 ( #490, #1163, #871, #1167 ),
 .UNSPECIFIED., .F., .F.,
 ( 4, 4 ),
 ( 0.000000000000000000, 1.000000000000000000 ),
 .UNSPECIFIED. ) ;
#27 = ORIENTED_EDGE ( 'NONE', *, *, #602, .F. ) ;
#28 = VECTOR ( 'NONE', #862, 1000.000000000000000 ) ;
#29 = ADVANCED_FACE ( 'NONE', ( #898 ), #507, .T. ) ;
#30 = SURFACE_SIDE_STYLE ('',( #1183 ) ) ;
#31 = PLANE ( 'NONE',  #1128 ) ;
#32 = FACE_OUTER_BOUND ( 'NONE', #641, .T. ) ;
#33 = ORIENTED_EDGE ( 'NONE', *, *, #197, .T. ) ;
#34 = EDGE_CURVE ( 'NONE', #346, #477, #701, .T. ) ;
#35 = ORIENTED_EDGE ( 'NONE', *, *, #1140, .F. ) ;
#36 = PLANE ( 'NONE',  #395 ) ;
#37 = DIRECTION ( 'NONE',  ( -1.000000000000000000, 0.000000000000000000, -0.000000000000000000 ) ) ;
#38 = CARTESIAN_POINT ( 'NONE',  ( 50.62487521466801610, 72.97032663101764172, 0.000000000000000000 ) ) ;
#39 = CARTESIAN_POINT ( 'NONE',  ( -2.040125685172561099, 65.97032663101764172, 0.000000000000000000 ) ) ;
#40 = LINE ( 'NONE', #1201, #177 ) ;
#41 = EDGE_CURVE ( 'NONE', #205, #771, #250, .T. ) ;
#42 = CARTESIAN_POINT ( 'NONE',  ( 0.000000000000000000, 54.23637563801475636, 2.000000000000000000 ) ) ;
#43 = CARTESIAN_POINT ( 'NONE',  ( 34.97599999999999909, 67.89399999999999125, 0.000000000000000000 ) ) ;
#44 = LINE ( 'NONE', #261, #623 ) ;
#45 = DIRECTION ( 'NONE',  ( 0.000000000000000000, -0.000000000000000000, 1.000000000000000000 ) ) ;
#46 = EDGE_LOOP ( 'NONE', ( #906, #333, #832, #401 ) ) ;
#47 = EDGE_CURVE ( 'NONE', #840, #715, #533, .T. ) ;
#48 = FACE_BOUND ( 'NONE', #150, .T. ) ;
#49 = DIRECTION ( 'NONE',  ( 0.0001042891155878002536, 0.9999999945618901487, -0.000000000000000000 ) ) ;
#50 = DIRECTION ( 'NONE',  ( 1.000000000000000000, 1.239088204094989693E-16, -0.000000000000000000 ) ) ;
#51 = ORIENTED_EDGE ( 'NONE', *, *, #1026, .F. ) ;
#52 = CARTESIAN_POINT ( 'NONE',  ( 13.88257810979120777, 54.23637563801475636, 0.000000000000000000 ) ) ;
#53 = AXIS2_PLACEMENT_3D ( 'NONE', #1023, #539, #1036 ) ;
#54 = DIRECTION ( 'NONE',  ( -0.000000000000000000, -0.000000000000000000, 1.000000000000000000 ) ) ;
#55 = AXIS2_PLACEMENT_3D ( 'NONE', #1055, #865, #391 ) ;
#56 = CARTESIAN_POINT ( 'NONE',  ( 59.62487521466800899, 72.97032663101764172, 0.6333333333333334147 ) ) ;
#57 = DIRECTION ( 'NONE',  ( -0.000000000000000000, -1.000000000000000000, -0.000000000000000000 ) ) ;
#58 = CARTESIAN_POINT ( 'NONE',  ( 4.959874314827438013, 3.968327729650614977, 2.000000000000000000 ) ) ;
#59 = ORIENTED_EDGE ( 'NONE', *, *, #908, .T. ) ;
#60 = DIRECTION ( 'NONE',  ( 1.000000000000000000, -0.000000000000000000, 0.000000000000000000 ) ) ;
#61 = EDGE_LOOP ( 'NONE', ( #80, #222, #485, #368 ) ) ;
#62 = DIRECTION ( 'NONE',  ( 0.000000000000000000, 0.000000000000000000, -1.000000000000000000 ) ) ;
#63 = DIRECTION ( 'NONE',  ( -1.000000000000000000, -0.000000000000000000, -0.000000000000000000 ) ) ;
#64 = CYLINDRICAL_SURFACE ( 'NONE', #116, 7.000000000000000000 ) ;
#65 = ORIENTED_EDGE ( 'NONE', *, *, #585, .T. ) ;
#66 = ORIENTED_EDGE ( 'NONE', *, *, #1161, .T. ) ;
#67 = PLANE ( 'NONE',  #628 ) ;
#68 = DIRECTION ( 'NONE',  ( 1.000000000000000000, 1.190150494030309773E-16, -0.000000000000000000 ) ) ;
#69 = ADVANCED_FACE ( 'NONE', ( #601 ), #345, .T. ) ;
#70 = PRODUCT_CONTEXT ( 'NONE', #204, 'mechanical' ) ;
#71 = FACE_OUTER_BOUND ( 'NONE', #823, .T. ) ;
#72 = FACE_OUTER_BOUND ( 'NONE', #674, .T. ) ;
#73 = VERTEX_POINT ( 'NONE', #991 ) ;
#74 = CARTESIAN_POINT ( 'NONE',  ( 14.31641524791677433, 14.60512789323294136, 2.000000000000000000 ) ) ;
#75 = ORIENTED_EDGE ( 'NONE', *, *, #611, .F. ) ;
#76 = CIRCLE ( 'NONE', #390, 1.250000000000000222 ) ;
#77 = DIRECTION ( 'NONE',  ( -1.000000000000000000, 0.000000000000000000, 0.000000000000000000 ) ) ;
#78 = DIRECTION ( 'NONE',  ( -0.000000000000000000, 1.000000000000000000, -0.000000000000000000 ) ) ;
#79 = DIRECTION ( 'NONE',  ( -0.000000000000000000, -0.000000000000000000, 1.000000000000000000 ) ) ;
#80 = ORIENTED_EDGE ( 'NONE', *, *, #963, .T. ) ;
#81 = VECTOR ( 'NONE', #1155, 1000.000000000000000 ) ;
#82 = CARTESIAN_POINT ( 'NONE',  ( 52.61861762116811292, 3.968327729650625191, 2.000000000000000000 ) ) ;
#83 = EDGE_CURVE ( 'NONE', #922, #500, #44, .T. ) ;
#84 = LINE ( 'NONE', #640, #1224 ) ;
#85 = ORIENTED_EDGE ( 'NONE', *, *, #1131, .T. ) ;
#86 = VECTOR ( 'NONE', #660, 1000.000000000000000 ) ;
#87 = CARTESIAN_POINT ( 'NONE',  ( 14.31641524791677433, 4.331477447866618924, 5.000000000000000000 ) ) ;
#88 = CARTESIAN_POINT ( 'NONE',  ( 43.90927744908573516, -2.965976186804157731E-14, 2.000000000000000000 ) ) ;
#89 = CARTESIAN_POINT ( 'NONE',  ( 57.83317638689413087, 69.48921778798619187, 2.000000000000000000 ) ) ;
#90 = VERTEX_POINT ( 'NONE', #451 ) ;
#91 = EDGE_CURVE ( 'NONE', #269, #589, #828, .T. ) ;
#92 = VECTOR ( 'NONE', #789, 1000.000000000000000 ) ;
#93 = DIRECTION ( 'NONE',  ( -1.000000000000000000, 0.000000000000000000, 0.000000000000000000 ) ) ;
#94 = CARTESIAN_POINT ( 'NONE',  ( 4.295687810014245933, 0.000000000000000000, 2.000000000000000000 ) ) ;
#95 = AXIS2_PLACEMENT_3D ( 'NONE', #1228, #554, #366 ) ;
#96 = EDGE_CURVE ( 'NONE', #1121, #854, #919, .T. ) ;
#97 = DIRECTION ( 'NONE',  ( -0.9999896096461816652, -0.004558574303137204707, -0.000000000000000000 ) ) ;
#98 = ORIENTED_EDGE ( 'NONE', *, *, #890, .F. ) ;
#99 = SHAPE_DEFINITION_REPRESENTATION ( #246, #381 ) ;
#100 = ADVANCED_FACE ( 'NONE', ( #72 ), #636, .T. ) ;
#101 = CARTESIAN_POINT ( 'NONE',  ( 0.2940396020023327561, 64.75129561265622158, 2.000000000000000000 ) ) ;
#102 = DIRECTION ( 'NONE',  ( -0.000000000000000000, -0.000000000000000000, 1.000000000000000000 ) ) ;
#103 = EDGE_LOOP ( 'NONE', ( #887, #156, #75, #803 ) ) ;
#104 = ADVANCED_FACE ( 'NONE', ( #1226 ), #1130, .T. ) ;
#105 = ORIENTED_EDGE ( 'NONE', *, *, #422, .T. ) ;
#106 = ORIENTED_EDGE ( 'NONE', *, *, #727, .F. ) ;
#107 = CARTESIAN_POINT ( 'NONE',  ( 0.000000000000000000, 64.51002608338107791, 2.000000000000000000 ) ) ;
#108 = DIRECTION ( 'NONE',  ( 0.000000000000000000, 0.000000000000000000, -1.000000000000000000 ) ) ;
#109 = EDGE_LOOP ( 'NONE', ( #199, #553, #947, #764 ) ) ;
#110 = ORIENTED_EDGE ( 'NONE', *, *, #324, .F. ) ;
#111 = EDGE_CURVE ( 'NONE', #525, #1145, #313, .T. ) ;
#112 = DIRECTION ( 'NONE',  ( 1.000000000000000000, 0.000000000000000000, 0.000000000000000000 ) ) ;
#113 = CARTESIAN_POINT ( 'NONE',  ( 2.007000000000000117, 11.75999999999999979, 5.000000000000000000 ) ) ;
#114 = VECTOR ( 'NONE', #351, 1000.000000000000000 ) ;
#115 = ORIENTED_EDGE ( 'NONE', *, *, #256, .T. ) ;
#116 = AXIS2_PLACEMENT_3D ( 'NONE', #1028, #160, #181 ) ;
#117 = ORIENTED_EDGE ( 'NONE', *, *, #522, .F. ) ;
#118 = LINE ( 'NONE', #959, #684 ) ;
#119 = CARTESIAN_POINT ( 'NONE',  ( 14.31641524791677433, 4.331477447866618924, 0.000000000000000000 ) ) ;
#120 = EDGE_LOOP ( 'NONE', ( #584, #105, #110, #622 ) ) ;
#121 = EDGE_CURVE ( 'NONE', #631, #167, #359, .T. ) ;
#122 = DIRECTION ( 'NONE',  ( -0.000000000000000000, 1.000000000000000000, -0.000000000000000000 ) ) ;
#123 = CARTESIAN_POINT ( 'NONE',  ( 23.76284665593176726, 14.60512789323294136, 0.000000000000000000 ) ) ;
#124 = EDGE_LOOP ( 'NONE', ( #723, #529, #115, #1179 ) ) ;
#125 = PLANE ( 'NONE',  #1194 ) ;
#126 = CARTESIAN_POINT ( 'NONE',  ( 13.88257810979120777, 64.51002608338107791, 0.000000000000000000 ) ) ;
#127 = FACE_BOUND ( 'NONE', #558, .T. ) ;
#128 = VERTEX_POINT ( 'NONE', #737 ) ;
#129 = EDGE_CURVE ( 'NONE', #243, #299, #1123, .T. ) ;
#130 = DIRECTION ( 'NONE',  ( 0.000000000000000000, 0.000000000000000000, -1.000000000000000000 ) ) ;
#131 = VECTOR ( 'NONE', #57, 1000.000000000000000 ) ;
#132 = CARTESIAN_POINT ( 'NONE',  ( 13.88257810979120777, 64.51002608338107791, 5.000000000000000000 ) ) ;
#133 = VECTOR ( 'NONE', #460, 1000.000000000000114 ) ;
#134 = FACE_BOUND ( 'NONE', #1146, .T. ) ;
#135 = CARTESIAN_POINT ( 'NONE',  ( 59.61861758181068183, -3.031672270349377918, 0.000000000000000000 ) ) ;
#136 = LINE ( 'NONE', #527, #873 ) ;
#137 = EDGE_CURVE ( 'NONE', #744, #1049, #175, .T. ) ;
#138 = VERTEX_POINT ( 'NONE', #729 ) ;
#139 = DIRECTION ( 'NONE',  ( 0.000000000000000000, 0.000000000000000000, -1.000000000000000000 ) ) ;
#140 = FACE_OUTER_BOUND ( 'NONE', #1191, .T. ) ;
#141 = LINE ( 'NONE', #438, #229 ) ;
#142 = ORIENTED_EDGE ( 'NONE', *, *, #923, .T. ) ;
#143 = DIRECTION ( 'NONE',  ( 0.000000000000000000, -0.000000000000000000, -1.000000000000000000 ) ) ;
#144 = VECTOR ( 'NONE', #376, 1000.000000000000000 ) ;
#145 = PLANE ( 'NONE',  #151 ) ;
#146 = LINE ( 'NONE', #506, #254 ) ;
#147 = EDGE_LOOP ( 'NONE', ( #453, #298, #540, #10 ) ) ;
#148 = ORIENTED_EDGE ( 'NONE', *, *, #1196, .F. ) ;
#149 = CARTESIAN_POINT ( 'NONE',  ( 13.88257810979120777, 54.23637563801475636, 2.000000000000000000 ) ) ;
#150 = EDGE_LOOP ( 'NONE', ( #185, #1110 ) ) ;
#151 = AXIS2_PLACEMENT_3D ( 'NONE', #469, #521, #62 ) ;
#152 = CARTESIAN_POINT ( 'NONE',  ( 24.15654994109765852, 64.51002608338107791, 0.000000000000000000 ) ) ;
#153 = CIRCLE ( 'NONE', #851, 1.250000000000007994 ) ;
#154 = LINE ( 'NONE', #443, #528 ) ;
#155 = DIRECTION ( 'NONE',  ( -0.000000000000000000, -1.000000000000000000, -0.000000000000000000 ) ) ;
#156 = ORIENTED_EDGE ( 'NONE', *, *, #1127, .T. ) ;
#157 = DIRECTION ( 'NONE',  ( -1.000000000000000000, 0.000000000000000000, 0.000000000000000000 ) ) ;
#158 = EDGE_CURVE ( 'NONE', #128, #1086, #1117, .T. ) ;
#159 = CARTESIAN_POINT ( 'NONE',  ( 59.39585018129889704, 66.31320139630683741, 1.999999999999999556 ) ) ;
#160 = DIRECTION ( 'NONE',  ( 0.000000000000000000, 0.000000000000000000, -1.000000000000000000 ) ) ;
#161 = DIRECTION ( 'NONE',  ( 1.000000000000000000, 0.000000000000000000, 0.000000000000000000 ) ) ;
#162 = EDGE_LOOP ( 'NONE', ( #614, #189, #953, #1105, #1124, #85, #1024, #579 ) ) ;
#163 = DIRECTION ( 'NONE',  ( 0.9999999939505700430, 0.0001099948173134468655, 0.000000000000000000 ) ) ;
#164 = ORIENTED_EDGE ( 'NONE', *, *, #555, .F. ) ;
#165 = LINE ( 'NONE', #358, #786 ) ;
#166 = DIRECTION ( 'NONE',  ( 0.000000000000000000, 0.000000000000000000, -1.000000000000000000 ) ) ;
#167 = VERTEX_POINT ( 'NONE', #725 ) ;
#168 = CARTESIAN_POINT ( 'NONE',  ( 34.03681848723820735, 4.331477447866618924, 0.000000000000000000 ) ) ;
#169 = VERTEX_POINT ( 'NONE', #758 ) ;
#170 = EDGE_CURVE ( 'NONE', #461, #717, #626, .T. ) ;
#171 = VECTOR ( 'NONE', #78, 1000.000000000000000 ) ;
#172 = VECTOR ( 'NONE', #112, 1000.000000000000000 ) ;
#173 = EDGE_CURVE ( 'NONE', #719, #738, #848, .T. ) ;
#174 = LINE ( 'NONE', #550, #257 ) ;
#175 = LINE ( 'NONE', #1211, #114 ) ;
#176 = DIRECTION ( 'NONE',  ( 0.000000000000000000, 0.000000000000000000, -1.000000000000000000 ) ) ;
#177 = VECTOR ( 'NONE', #993, 1000.000000000000000 ) ;
#178 = ORIENTED_EDGE ( 'NONE', *, *, #317, .T. ) ;
#179 = EDGE_CURVE ( 'NONE', #666, #922, #1151, .T. ) ;
#180 = VECTOR ( 'NONE', #921, 1000.000000000000000 ) ;
#181 = DIRECTION ( 'NONE',  ( -1.000000000000000000, 0.000000000000000000, 0.000000000000000000 ) ) ;
#182 = PLANE ( 'NONE',  #1162 ) ;
#183 = PRODUCT_DEFINITION ( 'UNKNOWN', '', #259, #784 ) ;
#184 = DIRECTION ( 'NONE',  ( -0.000000000000000000, -0.000000000000000000, 1.000000000000000000 ) ) ;
#185 = ORIENTED_EDGE ( 'NONE', *, *, #611, .T. ) ;
#186 = PLANE ( 'NONE',  #1038 ) ;
#187 = LINE ( 'NONE', #94, #1062 ) ;
#188 = DIRECTION ( 'NONE',  ( 0.000000000000000000, 0.000000000000000000, -1.000000000000000000 ) ) ;
#189 = ORIENTED_EDGE ( 'NONE', *, *, #1140, .T. ) ;
#190 = VECTOR ( 'NONE', #50, 1000.000000000000000 ) ;
#191 = CARTESIAN_POINT ( 'NONE',  ( 23.76284665593176726, 14.60512789323294136, 0.000000000000000000 ) ) ;
#192 = CARTESIAN_POINT ( 'NONE',  ( 14.31641524791677433, 14.60512789323294136, 5.000000000000000000 ) ) ;
#193 = ORIENTED_EDGE ( 'NONE', *, *, #693, .F. ) ;
#194 = ORIENTED_EDGE ( 'NONE', *, *, #515, .T. ) ;
#195 = EDGE_LOOP ( 'NONE', ( #5, #1102, #858, #51 ) ) ;
#196 = LINE ( 'NONE', #18, #751 ) ;
#197 = EDGE_CURVE ( 'NONE', #1077, #413, #524, .T. ) ;
#198 = CARTESIAN_POINT ( 'NONE',  ( 3.257000000000000561, 11.75999999999999979, 2.000000000000000000 ) ) ;
#199 = ORIENTED_EDGE ( 'NONE', *, *, #1030, .T. ) ;
#200 = ORIENTED_EDGE ( 'NONE', *, *, #207, .F. ) ;
#201 = VERTEX_POINT ( 'NONE', #1046 ) ;
#202 = CARTESIAN_POINT ( 'NONE',  ( 43.90927744908574226, 64.55323614440233371, 0.000000000000000000 ) ) ;
#203 = CARTESIAN_POINT ( 'NONE',  ( 4.959874314827438901, 65.97032663101764172, 2.000000000000000000 ) ) ;
#204 = APPLICATION_CONTEXT ( 'automotive_design' ) ;
#205 = VERTEX_POINT ( 'NONE', #383 ) ;
#206 = CARTESIAN_POINT ( 'NONE',  ( 23.76284665593176726, 14.60512789323294136, 2.000000000000000000 ) ) ;
#207 = EDGE_CURVE ( 'NONE', #1008, #73, #295, .T. ) ;
#208 = CARTESIAN_POINT ( 'NONE',  ( 13.88257810979120777, 54.23637563801475636, 5.000000000000000000 ) ) ;
#209 = VECTOR ( 'NONE', #97, 1000.000000000000000 ) ;
#210 = ORIENTED_EDGE ( 'NONE', *, *, #574, .F. ) ;
#211 = COLOUR_RGB ( '',0.7921568627450980005, 0.8196078431372548767, 0.9333333333333333481 ) ;
#212 = EDGE_CURVE ( 'NONE', #285, #793, #1208, .T. ) ;
#213 = VECTOR ( 'NONE', #312, 1000.000000000000000 ) ;
#214 = DIRECTION ( 'NONE',  ( -0.000000000000000000, 1.000000000000000000, 0.000000000000000000 ) ) ;
#215 = CARTESIAN_POINT ( 'NONE',  ( 55.17021267806869389, 71.82922034371902953, -0.000000000000000000 ) ) ;
#216 = DIRECTION ( 'NONE',  ( 0.000000000000000000, 0.000000000000000000, -1.000000000000000000 ) ) ;
#217 = ORIENTED_EDGE ( 'NONE', *, *, #434, .T. ) ;
#218 = ORIENTED_EDGE ( 'NONE', *, *, #670, .T. ) ;
#219 = EDGE_CURVE ( 'NONE', #90, #138, #1114, .T. ) ;
#220 = CYLINDRICAL_SURFACE ( 'NONE', #1072, 1.250000000000007994 ) ;
#221 = FACE_OUTER_BOUND ( 'NONE', #1082, .T. ) ;
#222 = ORIENTED_EDGE ( 'NONE', *, *, #137, .T. ) ;
#223 = DIRECTION ( 'NONE',  ( -1.000000000000000000, -0.000000000000000000, -0.000000000000000000 ) ) ;
#224 = ADVANCED_FACE ( 'NONE', ( #916 ), #557, .T. ) ;
#225 = LINE ( 'NONE', #42, #1209 ) ;
#226 = LINE ( 'NONE', #984, #131 ) ;
#227 = DIRECTION ( 'NONE',  ( -1.000000000000000000, 0.000000000000000000, 0.000000000000000000 ) ) ;
#228 = CARTESIAN_POINT ( 'NONE',  ( 33.63530561777929506, 64.55323614440233371, 2.000000000000000000 ) ) ;
#229 = VECTOR ( 'NONE', #985, 1000.000000000000000 ) ;
#230 = DIRECTION ( 'NONE',  ( -1.000000000000000000, 0.000000000000000000, 0.000000000000000000 ) ) ;
#231 = CIRCLE ( 'NONE', #844, 1.250000000000007994 ) ;
#232 = DIRECTION ( 'NONE',  ( -1.000000000000000000, -0.000000000000000000, -0.000000000000000000 ) ) ;
#233 = ORIENTED_EDGE ( 'NONE', *, *, #423, .T. ) ;
#234 = ORIENTED_EDGE ( 'NONE', *, *, #857, .T. ) ;
#235 = FACE_OUTER_BOUND ( 'NONE', #647, .T. ) ;
#236 = ADVANCED_FACE ( 'NONE', ( #813 ), #145, .T. ) ;
#237 = VECTOR ( 'NONE', #1025, 1000.000000000000000 ) ;
#238 = CARTESIAN_POINT ( 'NONE',  ( 50.62487521466800899, 72.97032663101764172, 2.100000000000000089 ) ) ;
#239 = DIRECTION ( 'NONE',  ( -1.000000000000000000, 0.000000000000000000, -0.000000000000000000 ) ) ;
#240 = ORIENTED_EDGE ( 'NONE', *, *, #570, .T. ) ;
#241 = ORIENTED_EDGE ( 'NONE', *, *, #1041, .T. ) ;
#242 = DIRECTION ( 'NONE',  ( -0.000000000000000000, -0.000000000000000000, 1.000000000000000000 ) ) ;
#243 = VERTEX_POINT ( 'NONE', #1203 ) ;
#244 = AXIS2_PLACEMENT_3D ( 'NONE', #307, #588, #392 ) ;
#245 = CARTESIAN_POINT ( 'NONE',  ( 4.959874314827438013, -3.031672270349384579, 2.000000000000000000 ) ) ;
#246 = PRODUCT_DEFINITION_SHAPE ( 'NONE', 'NONE',  #183 ) ;
#247 = VECTOR ( 'NONE', #606, 1000.000000000000000 ) ;
#248 = EDGE_CURVE ( 'NONE', #738, #497, #377, .T. ) ;
#249 = CARTESIAN_POINT ( 'NONE',  ( 59.62487521466801610, 63.97032663267740560, 0.000000000000000000 ) ) ;
#250 = LINE ( 'NONE', #1092, #683 ) ;
#251 = EDGE_LOOP ( 'NONE', ( #1070, #930, #1073, #913 ) ) ;
#252 = CARTESIAN_POINT ( 'NONE',  ( 52.61861762116811292, -3.031672270349378806, 2.000000000000000000 ) ) ;
#253 = ORIENTED_EDGE ( 'NONE', *, *, #1087, .T. ) ;
#254 = VECTOR ( 'NONE', #232, 1000.000000000000000 ) ;
#255 = CARTESIAN_POINT ( 'NONE',  ( 50.62487521466800899, 72.97032663101764172, 2.000000000000000000 ) ) ;
#256 = EDGE_CURVE ( 'NONE', #431, #1015, #1144, .T. ) ;
#257 = VECTOR ( 'NONE', #1225, 1000.000000000000000 ) ;
#258 = EDGE_CURVE ( 'NONE', #294, #310, #661, .T. ) ;
#259 = PRODUCT_DEFINITION_FORMATION_WITH_SPECIFIED_SOURCE ( 'ANY', '', #364, .NOT_KNOWN. ) ;
#260 = DIRECTION ( 'NONE',  ( -1.000000000000000000, 0.000000000000000000, -0.000000000000000000 ) ) ;
#261 = CARTESIAN_POINT ( 'NONE',  ( 50.62487521466800899, 72.97032663101764172, 2.000000000000000000 ) ) ;
#262 = ORIENTED_EDGE ( 'NONE', *, *, #1188, .T. ) ;
#263 = DIRECTION ( 'NONE',  ( -0.004541014469855548033, -0.9999896895406396036, 0.000000000000000000 ) ) ;
#264 = ORIENTED_EDGE ( 'NONE', *, *, #1003, .T. ) ;
#265 = CARTESIAN_POINT ( 'NONE',  ( 59.62487521466800899, 72.97032663101764172, -0.1000000000000002692 ) ) ;
#266 = EDGE_CURVE ( 'NONE', #750, #864, #355, .T. ) ;
#267 = DIRECTION ( 'NONE',  ( -0.000000000000000000, -1.000000000000000000, -0.000000000000000000 ) ) ;
#268 = CARTESIAN_POINT ( 'NONE',  ( 0.000000000000000000, 4.331477447866618924, 2.000000000000000000 ) ) ;
#269 = VERTEX_POINT ( 'NONE', #441 ) ;
#270 = DIRECTION ( 'NONE',  ( 0.000000000000000000, 0.000000000000000000, -1.000000000000000000 ) ) ;
#271 = CARTESIAN_POINT ( 'NONE',  ( 59.62487521466801610, 63.97032663101764882, 1.366666666666667140 ) ) ;
#272 = CARTESIAN_POINT ( 'NONE',  ( 52.61861762116811292, -3.031672270349378806, 0.000000000000000000 ) ) ;
#273 = CARTESIAN_POINT ( 'NONE',  ( 23.76284665593176726, 14.60512789323294136, 0.000000000000000000 ) ) ;
#274 = ORIENTED_EDGE ( 'NONE', *, *, #561, .F. ) ;
#275 = EDGE_CURVE ( 'NONE', #854, #877, #549, .T. ) ;
#276 = PLANE ( 'NONE',  #459 ) ;
#277 = ORIENTED_EDGE ( 'NONE', *, *, #309, .F. ) ;
#278 = VECTOR ( 'NONE', #978, 1000.000000000000000 ) ;
#279 = VECTOR ( 'NONE', #267, 1000.000000000000000 ) ;
#280 = CARTESIAN_POINT ( 'NONE',  ( 53.42468767129887652, 64.51002608338107791, 5.000000000000000000 ) ) ;
#281 = CARTESIAN_POINT ( 'NONE',  ( 13.88257810979120777, 54.23637563801475636, 5.000000000000000000 ) ) ;
#282 = DIRECTION ( 'NONE',  ( -1.000000000000000000, 0.000000000000000000, 0.000000000000000000 ) ) ;
#283 = ORIENTED_EDGE ( 'NONE', *, *, #663, .F. ) ;
#284 = CARTESIAN_POINT ( 'NONE',  ( 33.63530561777929506, 54.27958569903599795, 5.000000000000000000 ) ) ;
#285 = VERTEX_POINT ( 'NONE', #245 ) ;
#286 = EDGE_CURVE ( 'NONE', #1032, #534, #819, .T. ) ;
#287 = LINE ( 'NONE', #1164, #86 ) ;
#288 = DIRECTION ( 'NONE',  ( 0.000000000000000000, 0.000000000000000000, -1.000000000000000000 ) ) ;
#289 = ORIENTED_EDGE ( 'NONE', *, *, #1087, .F. ) ;
#290 = CYLINDRICAL_SURFACE ( 'NONE', #55, 1.250000000000007994 ) ;
#291 = CYLINDRICAL_SURFACE ( 'NONE', #1052, 7.000000000000000000 ) ;
#292 = ADVANCED_FACE ( 'NONE', ( #32 ), #613, .F. ) ;
#293 = CARTESIAN_POINT ( 'NONE',  ( 55.57500000000000284, 23.16500000000000270, 2.000000000000000000 ) ) ;
#294 = VERTEX_POINT ( 'NONE', #412 ) ;
#295 = CIRCLE ( 'NONE', #1078, 1.250000000000000000 ) ;
#296 = DIRECTION ( 'NONE',  ( 0.000000000000000000, 0.000000000000000000, -1.000000000000000000 ) ) ;
#297 = DIRECTION ( 'NONE',  ( 1.000000000000000000, 0.000000000000000000, 0.000000000000000000 ) ) ;
#298 = ORIENTED_EDGE ( 'NONE', *, *, #808, .F. ) ;
#299 = VERTEX_POINT ( 'NONE', #1085 ) ;
#300 = VECTOR ( 'NONE', #702, 1000.000000000000114 ) ;
#301 = LINE ( 'NONE', #202, #414 ) ;
#302 = CYLINDRICAL_SURFACE ( 'NONE', #679, 1.250000000000001110 ) ;
#303 = EDGE_LOOP ( 'NONE', ( #353, #467, #35, #638 ) ) ;
#304 = VERTEX_POINT ( 'NONE', #38 ) ;
#305 = CARTESIAN_POINT ( 'NONE',  ( 23.76284665593176726, 14.60512789323294136, 5.000000000000000000 ) ) ;
#306 = VECTOR ( 'NONE', #872, 1000.000000000000000 ) ;
#307 = CARTESIAN_POINT ( 'NONE',  ( 52.61861762116811292, 3.968327729650625191, 2.000000000000000000 ) ) ;
#308 = ORIENTED_EDGE ( 'NONE', *, *, #248, .F. ) ;
#309 = EDGE_CURVE ( 'NONE', #299, #631, #339, .T. ) ;
#310 = VERTEX_POINT ( 'NONE', #419 ) ;
#311 = CARTESIAN_POINT ( 'NONE',  ( 34.97599999999999909, 67.89399999999999125, 2.000000000000000000 ) ) ;
#312 = DIRECTION ( 'NONE',  ( -0.000000000000000000, 1.000000000000000000, -0.000000000000000000 ) ) ;
#313 = CIRCLE ( 'NONE', #883, 1.250000000000000222 ) ;
#314 = ORIENTED_EDGE ( 'NONE', *, *, #96, .F. ) ;
#315 = VECTOR ( 'NONE', #582, 1000.000000000000000 ) ;
#316 = VERTEX_POINT ( 'NONE', #1081 ) ;
#317 = EDGE_CURVE ( 'NONE', #304, #877, #146, .T. ) ;
#318 = CIRCLE ( 'NONE', #973, 1.250000000000000000 ) ;
#319 = SURFACE_STYLE_USAGE ( .BOTH. , #30 ) ;
#320 = DIRECTION ( 'NONE',  ( 0.000000000000000000, 0.000000000000000000, -1.000000000000000000 ) ) ;
#321 = EDGE_CURVE ( 'NONE', #738, #750, #707, .T. ) ;
#322 = DIRECTION ( 'NONE',  ( 0.000000000000000000, -1.000000000000000000, 0.000000000000000000 ) ) ;
#323 = ORIENTED_EDGE ( 'NONE', *, *, #472, .F. ) ;
#324 = EDGE_CURVE ( 'NONE', #1145, #525, #76, .T. ) ;
#325 = CARTESIAN_POINT ( 'NONE',  ( -2.040125685172561099, 3.968327729650625191, 0.000000000000000000 ) ) ;
#326 = CARTESIAN_POINT ( 'NONE',  ( 34.03681848723820735, 14.60512789323294136, 5.000000000000000000 ) ) ;
#327 = DIRECTION ( 'NONE',  ( 0.000000000000000000, 0.000000000000000000, 1.000000000000000000 ) ) ;
#328 = ORIENTED_EDGE ( 'NONE', *, *, #1003, .F. ) ;
#329 = DIRECTION ( 'NONE',  ( 1.000000000000000000, 0.000000000000000000, 0.000000000000000000 ) ) ;
#330 = FACE_OUTER_BOUND ( 'NONE', #1152, .T. ) ;
#331 = DIRECTION ( 'NONE',  ( -1.000000000000000000, 0.000000000000000000, 0.000000000000000000 ) ) ;
#332 = EDGE_LOOP ( 'NONE', ( #777, #673, #1109, #1198 ) ) ;
#333 = ORIENTED_EDGE ( 'NONE', *, *, #814, .T. ) ;
#334 = AXIS2_PLACEMENT_3D ( 'NONE', #43, #1185, #1091 ) ;
#335 = DIRECTION ( 'NONE',  ( 0.000000000000000000, 0.000000000000000000, -1.000000000000000000 ) ) ;
#336 = CIRCLE ( 'NONE', #706, 1.250000000000001110 ) ;
#337 = VECTOR ( 'NONE', #223, 1000.000000000000000 ) ;
#338 = LINE ( 'NONE', #126, #213 ) ;
#339 = LINE ( 'NONE', #499, #278 ) ;
#340 = ORIENTED_EDGE ( 'NONE', *, *, #1181, .T. ) ;
#341 = CARTESIAN_POINT ( 'NONE',  ( 55.57500000000000284, 23.16500000000000270, 5.000000000000000000 ) ) ;
#342 = DIRECTION ( 'NONE',  ( 0.000000000000000000, 0.000000000000000000, -1.000000000000000000 ) ) ;
#343 = EDGE_CURVE ( 'NONE', #138, #90, #785, .T. ) ;
#344 = DIRECTION ( 'NONE',  ( 0.000000000000000000, 0.000000000000000000, -1.000000000000000000 ) ) ;
#345 = PLANE ( 'NONE',  #411 ) ;
#346 = VERTEX_POINT ( 'NONE', #886 ) ;
#347 = PLANE ( 'NONE',  #711 ) ;
#348 = AXIS2_PLACEMENT_3D ( 'NONE', #113, #108, #972 ) ;
#349 = CARTESIAN_POINT ( 'NONE',  ( 34.03681848723820735, 4.331477447866618924, 0.000000000000000000 ) ) ;
#350 = LINE ( 'NONE', #635, #1094 ) ;
#351 = DIRECTION ( 'NONE',  ( 0.000000000000000000, 0.000000000000000000, -1.000000000000000000 ) ) ;
#352 = FACE_OUTER_BOUND ( 'NONE', #103, .T. ) ;
#353 = ORIENTED_EDGE ( 'NONE', *, *, #179, .F. ) ;
#354 = VECTOR ( 'NONE', #155, 1000.000000000000000 ) ;
#355 = LINE ( 'NONE', #618, #749 ) ;
#356 = ADVANCED_FACE ( 'NONE', ( #523 ), #880, .F. ) ;
#357 = CARTESIAN_POINT ( 'NONE',  ( 59.62487521466801610, 63.97032663101764882, 2.100000000000000089 ) ) ;
#358 = CARTESIAN_POINT ( 'NONE',  ( 53.42468767129887652, 14.60512789323294136, 5.000000000000000000 ) ) ;
#359 = LINE ( 'NONE', #743, #505 ) ;
#360 = VECTOR ( 'NONE', #1229, 1000.000000000000000 ) ;
#361 = EDGE_CURVE ( 'NONE', #458, #15, #607, .T. ) ;
#362 = DIRECTION ( 'NONE',  ( 1.000000000000000000, 0.000000000000000000, 0.000000000000000000 ) ) ;
#363 = ORIENTED_EDGE ( 'NONE', *, *, #286, .T. ) ;
#364 = PRODUCT ( 'cubit2_bottom_enclosure', 'cubit2_bottom_enclosure', '', ( #70 ) ) ;
#365 = EDGE_CURVE ( 'NONE', #1014, #573, #696, .T. ) ;
#366 = DIRECTION ( 'NONE',  ( -1.000000000000000000, 0.000000000000000000, 0.000000000000000000 ) ) ;
#367 = DIRECTION ( 'NONE',  ( 0.000000000000000000, 0.000000000000000000, 1.000000000000000000 ) ) ;
#368 = ORIENTED_EDGE ( 'NONE', *, *, #783, .F. ) ;
#369 = CARTESIAN_POINT ( 'NONE',  ( 24.15654994109765852, 64.51002608338107791, 5.000000000000000000 ) ) ;
#370 = DIRECTION ( 'NONE',  ( 0.000000000000000000, 0.000000000000000000, -1.000000000000000000 ) ) ;
#371 = LINE ( 'NONE', #369, #834 ) ;
#372 = ORIENTED_EDGE ( 'NONE', *, *, #34, .T. ) ;
#373 = CIRCLE ( 'NONE', #334, 1.250000000000007994 ) ;
#374 = PRESENTATION_LAYER_ASSIGNMENT (  '', '', ( #903 ) ) ;
#375 = DIRECTION ( 'NONE',  ( -6.754782494982536027E-16, -1.000000000000000000, 0.000000000000000000 ) ) ;
#376 = DIRECTION ( 'NONE',  ( 0.000000000000000000, 0.000000000000000000, -1.000000000000000000 ) ) ;
#377 = LINE ( 'NONE', #755, #14 ) ;
#378 = ORIENTED_EDGE ( 'NONE', *, *, #389, .F. ) ;
#379 = EDGE_CURVE ( 'NONE', #589, #461, #714, .T. ) ;
#380 = CARTESIAN_POINT ( 'NONE',  ( 59.62487521466801610, 63.97032663267740560, 2.000000000000000000 ) ) ;
#381 = ADVANCED_BREP_SHAPE_REPRESENTATION ( 'cubit2_bottom_enclosure', ( #712, #690 ), #1239 ) ;
#382 = LINE ( 'NONE', #13, #306 ) ;
#383 = CARTESIAN_POINT ( 'NONE',  ( 24.15654994109765852, 54.23637563801475636, 0.000000000000000000 ) ) ;
#384 = EDGE_LOOP ( 'NONE', ( #1165, #200 ) ) ;
#385 = LINE ( 'NONE', #107, #489 ) ;
#386 = DIRECTION ( 'NONE',  ( 0.000000000000000000, 0.000000000000000000, -1.000000000000000000 ) ) ;
#387 = ORIENTED_EDGE ( 'NONE', *, *, #111, .T. ) ;
#388 = ORIENTED_EDGE ( 'NONE', *, *, #111, .F. ) ;
#389 = EDGE_CURVE ( 'NONE', #128, #719, #688, .T. ) ;
#390 = AXIS2_PLACEMENT_3D ( 'NONE', #592, #327, #700 ) ;
#391 = DIRECTION ( 'NONE',  ( -1.000000000000000000, 0.000000000000000000, 0.000000000000000000 ) ) ;
#392 = DIRECTION ( 'NONE',  ( -1.000000000000000000, 0.000000000000000000, 0.000000000000000000 ) ) ;
#393 = ORIENTED_EDGE ( 'NONE', *, *, #8, .T. ) ;
#394 = ORIENTED_EDGE ( 'NONE', *, *, #121, .F. ) ;
#395 = AXIS2_PLACEMENT_3D ( 'NONE', #416, #794, #335 ) ;
#396 = ORIENTED_EDGE ( 'NONE', *, *, #686, .F. ) ;
#397 = ADVANCED_FACE ( 'NONE', ( #221 ), #596, .T. ) ;
#398 = DIRECTION ( 'NONE',  ( 0.000000000000000000, 0.000000000000000000, 1.000000000000000000 ) ) ;
#399 = CIRCLE ( 'NONE', #22, 7.000000000000000000 ) ;
#400 = CARTESIAN_POINT ( 'NONE',  ( 52.61861762116811292, -3.031672270349378806, 2.000000000000000000 ) ) ;
#401 = ORIENTED_EDGE ( 'NONE', *, *, #969, .F. ) ;
#402 = PRODUCT_RELATED_PRODUCT_CATEGORY ( 'part', '', ( #364 ) ) ;
#403 =( NAMED_UNIT ( * ) PLANE_ANGLE_UNIT ( ) SI_UNIT ( $, .RADIAN. ) );
#404 = VECTOR ( 'NONE', #1095, 1000.000000000000000 ) ;
#405 = PLANE ( 'NONE',  #940 ) ;
#406 = ORIENTED_EDGE ( 'NONE', *, *, #158, .F. ) ;
#407 = EDGE_CURVE ( 'NONE', #621, #294, #226, .T. ) ;
#408 = EDGE_CURVE ( 'NONE', #1015, #573, #373, .T. ) ;
#409 = DIRECTION ( 'NONE',  ( -1.000000000000000000, 0.000000000000000000, 0.000000000000000000 ) ) ;
#410 = CARTESIAN_POINT ( 'NONE',  ( 56.14376637161129935, 71.17862780327514827, 0.000000000000000000 ) ) ;
#411 = AXIS2_PLACEMENT_3D ( 'NONE', #722, #912, #822 ) ;
#412 = CARTESIAN_POINT ( 'NONE',  ( 4.295687810014245933, 14.60512789323294136, 0.000000000000000000 ) ) ;
#413 = VERTEX_POINT ( 'NONE', #802 ) ;
#414 = VECTOR ( 'NONE', #12, 1000.000000000000114 ) ;
#415 = ADVANCED_FACE ( 'NONE', ( #140, #127, #600, #134, #511 ), #425, .F. ) ;
#416 = CARTESIAN_POINT ( 'NONE',  ( 43.90927744908574226, 54.27958569903599795, 5.000000000000000000 ) ) ;
#417 = FACE_OUTER_BOUND ( 'NONE', #920, .T. ) ;
#418 = ADVANCED_FACE ( 'NONE', ( #1035 ), #721, .T. ) ;
#419 = CARTESIAN_POINT ( 'NONE',  ( 14.31641524791677433, 14.60512789323294136, 0.000000000000000000 ) ) ;
#420 = ORIENTED_EDGE ( 'NONE', *, *, #422, .F. ) ;
#421 = FACE_OUTER_BOUND ( 'NONE', #501, .T. ) ;
#422 = EDGE_CURVE ( 'NONE', #1008, #525, #350, .T. ) ;
#423 = EDGE_CURVE ( 'NONE', #922, #304, #992, .T. ) ;
#424 = LINE ( 'NONE', #326, #247 ) ;
#425 = PLANE ( 'NONE',  #988 ) ;
#426 = DIRECTION ( 'NONE',  ( -1.000000000000000000, -0.000000000000000000, -0.000000000000000000 ) ) ;
#427 = DIRECTION ( 'NONE',  ( 0.000000000000000000, 1.000000000000000000, 0.000000000000000000 ) ) ;
#428 = ORIENTED_EDGE ( 'NONE', *, *, #1161, .F. ) ;
#429 = FACE_BOUND ( 'NONE', #1017, .T. ) ;
#430 = DIRECTION ( 'NONE',  ( -1.000000000000000000, 0.000000000000000000, 0.000000000000000000 ) ) ;
#431 = VERTEX_POINT ( 'NONE', #1129 ) ;
#432 = AXIS2_PLACEMENT_3D ( 'NONE', #809, #437, #430 ) ;
#433 = PLANE ( 'NONE',  #1042 ) ;
#434 = EDGE_CURVE ( 'NONE', #793, #201, #703, .T. ) ;
#435 = DIRECTION ( 'NONE',  ( -0.000000000000000000, 0.000000000000000000, 1.000000000000000000 ) ) ;
#436 = ADVANCED_FACE ( 'NONE', ( #1043 ), #64, .T. ) ;
#437 = DIRECTION ( 'NONE',  ( 0.000000000000000000, 0.000000000000000000, -1.000000000000000000 ) ) ;
#438 = CARTESIAN_POINT ( 'NONE',  ( 59.61861758310134718, 3.967597705841513722, 2.000000000000000000 ) ) ;
#439 = ORIENTED_EDGE ( 'NONE', *, *, #530, .F. ) ;
#440 = CARTESIAN_POINT ( 'NONE',  ( -2.040125685172561099, 3.968327729650611424, 2.000000000000000000 ) ) ;
#441 = CARTESIAN_POINT ( 'NONE',  ( 23.76284665593176726, 4.331477447866618924, 0.000000000000000000 ) ) ;
#442 = APPLICATION_PROTOCOL_DEFINITION ( 'draft international standard', 'automotive_design', 1998, #204 ) ;
#443 = CARTESIAN_POINT ( 'NONE',  ( 24.15654994109765852, 0.000000000000000000, 2.000000000000000000 ) ) ;
#444 = ORIENTED_EDGE ( 'NONE', *, *, #769, .T. ) ;
#445 = VERTEX_POINT ( 'NONE', #827 ) ;
#446 = CARTESIAN_POINT ( 'NONE',  ( -2.040125685172561099, 65.97032663101764172, 0.000000000000000000 ) ) ;
#447 = ORIENTED_EDGE ( 'NONE', *, *, #1071, .T. ) ;
#448 = ADVANCED_FACE ( 'NONE', ( #71 ), #835, .T. ) ;
#449 = CARTESIAN_POINT ( 'NONE',  ( 33.72599999999999199, 67.89399999999999125, 5.000000000000000000 ) ) ;
#450 = CARTESIAN_POINT ( 'NONE',  ( 50.62487521466800189, 72.97032663101764172, 1.333333333333333481 ) ) ;
#451 = CARTESIAN_POINT ( 'NONE',  ( 56.82500000000000284, 23.16500000000000270, 2.000000000000000000 ) ) ;
#452 = DIRECTION ( 'NONE',  ( 0.9999896895406394925, -0.004541014469855547166, 0.000000000000000000 ) ) ;
#453 = ORIENTED_EDGE ( 'NONE', *, *, #8, .F. ) ;
#454 = EDGE_CURVE ( 'NONE', #542, #717, #742, .T. ) ;
#455 = VECTOR ( 'NONE', #909, 1000.000000000000000 ) ;
#456 = DIRECTION ( 'NONE',  ( -0.000000000000000000, 0.000000000000000000, 1.000000000000000000 ) ) ;
#457 = CARTESIAN_POINT ( 'NONE',  ( 2.007000000000000117, 11.75999999999999979, 0.000000000000000000 ) ) ;
#458 = VERTEX_POINT ( 'NONE', #538 ) ;
#459 = AXIS2_PLACEMENT_3D ( 'NONE', #468, #1132, #176 ) ;
#460 = DIRECTION ( 'NONE',  ( 0.9999999939505700430, 0.0001099948173134468384, 0.000000000000000000 ) ) ;
#461 = VERTEX_POINT ( 'NONE', #653 ) ;
#462 = CARTESIAN_POINT ( 'NONE',  ( 33.63530561777929506, 64.55323614440233371, 5.000000000000000000 ) ) ;
#463 = DIRECTION ( 'NONE',  ( -1.000000000000000000, 0.000000000000000000, 0.000000000000000000 ) ) ;
#464 = ORIENTED_EDGE ( 'NONE', *, *, #651, .T. ) ;
#465 = CIRCLE ( 'NONE', #1001, 7.000000000000000000 ) ;
#466 = CARTESIAN_POINT ( 'NONE',  ( 34.03681848723820735, 4.331477447866618924, 5.000000000000000000 ) ) ;
#467 = ORIENTED_EDGE ( 'NONE', *, *, #663, .T. ) ;
#468 = CARTESIAN_POINT ( 'NONE',  ( 34.03681848723820735, 4.331477447866618924, 5.000000000000000000 ) ) ;
#469 = CARTESIAN_POINT ( 'NONE',  ( 4.295687810014245933, 14.60512789323294136, 5.000000000000000000 ) ) ;
#470 = ORIENTED_EDGE ( 'NONE', *, *, #41, .T. ) ;
#471 = ORIENTED_EDGE ( 'NONE', *, *, #1188, .F. ) ;
#472 = EDGE_CURVE ( 'NONE', #1121, #482, #1219, .T. ) ;
#473 = VECTOR ( 'NONE', #1013, 1000.000000000000000 ) ;
#474 = DIRECTION ( 'NONE',  ( 1.000000000000000000, 0.000000000000000000, 0.000000000000000000 ) ) ;
#475 = LINE ( 'NONE', #119, #1107 ) ;
#476 = CARTESIAN_POINT ( 'NONE',  ( 2.007000000000000117, 11.75999999999999979, 2.000000000000000000 ) ) ;
#477 = VERTEX_POINT ( 'NONE', #272 ) ;
#478 = LINE ( 'NONE', #305, #586 ) ;
#479 = CYLINDRICAL_SURFACE ( 'NONE', #348, 1.250000000000000000 ) ;
#480 = ORIENTED_EDGE ( 'NONE', *, *, #882, .T. ) ;
#481 = ORIENTED_EDGE ( 'NONE', *, *, #454, .F. ) ;
#482 = VERTEX_POINT ( 'NONE', #842 ) ;
#483 = DIRECTION ( 'NONE',  ( -0.9999896895406394925, 0.004541014469855547166, 0.000000000000000000 ) ) ;
#484 = CARTESIAN_POINT ( 'NONE',  ( 0.7570000000000001172, 11.75999999999999979, 5.000000000000000000 ) ) ;
#485 = ORIENTED_EDGE ( 'NONE', *, *, #1153, .F. ) ;
#486 = ORIENTED_EDGE ( 'NONE', *, *, #266, .F. ) ;
#487 = EDGE_CURVE ( 'NONE', #458, #17, #165, .T. ) ;
#488 = CIRCLE ( 'NONE', #1034, 7.000000000000000000 ) ;
#489 = VECTOR ( 'NONE', #93, 1000.000000000000000 ) ;
#490 = CARTESIAN_POINT ( 'NONE',  ( 59.62487521466801610, 63.97032663267740560, 2.000000000000000000 ) ) ;
#491 = CARTESIAN_POINT ( 'NONE',  ( 43.90927744908574226, 64.55323614440233371, 0.000000000000000000 ) ) ;
#492 = EDGE_LOOP ( 'NONE', ( #1158, #740, #548, #471 ) ) ;
#493 = ORIENTED_EDGE ( 'NONE', *, *, #522, .T. ) ;
#494 = DIRECTION ( 'NONE',  ( 1.000000000000000000, 0.000000000000000000, 0.000000000000000000 ) ) ;
#495 = PLANE ( 'NONE',  #650 ) ;
#496 = ORIENTED_EDGE ( 'NONE', *, *, #783, .T. ) ;
#497 = VERTEX_POINT ( 'NONE', #1122 ) ;
#498 = LINE ( 'NONE', #989, #581 ) ;
#499 = CARTESIAN_POINT ( 'NONE',  ( 23.76284665593176726, 0.000000000000000000, 2.000000000000000000 ) ) ;
#500 = VERTEX_POINT ( 'NONE', #543 ) ;
#501 = EDGE_LOOP ( 'NONE', ( #974, #678, #372, #915 ) ) ;
#502 = EDGE_CURVE ( 'NONE', #1032, #477, #807, .T. ) ;
#503 =( LENGTH_UNIT ( ) NAMED_UNIT ( * ) SI_UNIT ( .MILLI., .METRE. ) );
#504 = FACE_OUTER_BOUND ( 'NONE', #162, .T. ) ;
#505 = VECTOR ( 'NONE', #161, 1000.000000000000000 ) ;
#506 = CARTESIAN_POINT ( 'NONE',  ( -2.040125685172561099, 72.97032663101764172, 0.000000000000000000 ) ) ;
#507 = PLANE ( 'NONE',  #928 ) ;
#508 = FACE_OUTER_BOUND ( 'NONE', #46, .T. ) ;
#509 = ORIENTED_EDGE ( 'NONE', *, *, #379, .F. ) ;
#510 = FACE_OUTER_BOUND ( 'NONE', #303, .T. ) ;
#511 = FACE_BOUND ( 'NONE', #384, .T. ) ;
#512 = ORIENTED_EDGE ( 'NONE', *, *, #121, .T. ) ;
#513 = CARTESIAN_POINT ( 'NONE',  ( 24.15654994109765852, 54.23637563801475636, 5.000000000000000000 ) ) ;
#514 = ORIENTED_EDGE ( 'NONE', *, *, #472, .T. ) ;
#515 = EDGE_CURVE ( 'NONE', #15, #1047, #174, .T. ) ;
#516 = DIRECTION ( 'NONE',  ( -0.000000000000000000, 0.000000000000000000, 1.000000000000000000 ) ) ;
#517 = CARTESIAN_POINT ( 'NONE',  ( 59.62487521466801610, 63.97032663267740560, 2.000000000000000000 ) ) ;
#518 = CARTESIAN_POINT ( 'NONE',  ( 53.42468767129887652, 14.60512789323294136, 0.000000000000000000 ) ) ;
#519 = ORIENTED_EDGE ( 'NONE', *, *, #83, .T. ) ;
#520 = LINE ( 'NONE', #900, #300 ) ;
#521 = DIRECTION ( 'NONE',  ( 1.000000000000000000, -0.000000000000000000, 0.000000000000000000 ) ) ;
#522 = EDGE_CURVE ( 'NONE', #750, #1077, #934, .T. ) ;
#523 = FACE_OUTER_BOUND ( 'NONE', #874, .T. ) ;
#524 = LINE ( 'NONE', #152, #209 ) ;
#525 = VERTEX_POINT ( 'NONE', #1135 ) ;
#526 = VECTOR ( 'NONE', #536, 1000.000000000000000 ) ;
#527 = CARTESIAN_POINT ( 'NONE',  ( 43.90927744908573516, 4.332563367193131398, 5.000000000000000000 ) ) ;
#528 = VECTOR ( 'NONE', #821, 1000.000000000000000 ) ;
#529 = ORIENTED_EDGE ( 'NONE', *, *, #727, .T. ) ;
#530 = EDGE_CURVE ( 'NONE', #243, #568, #938, .T. ) ;
#531 = CARTESIAN_POINT ( 'NONE',  ( 43.90927744908574226, 64.55323614440233371, 5.000000000000000000 ) ) ;
#532 = DIRECTION ( 'NONE',  ( 0.000000000000000000, -0.000000000000000000, -1.000000000000000000 ) ) ;
#533 = LINE ( 'NONE', #816, #1232 ) ;
#534 = VERTEX_POINT ( 'NONE', #249 ) ;
#535 = LINE ( 'NONE', #1111, #1200 ) ;
#536 = DIRECTION ( 'NONE',  ( -1.000000000000000000, 0.000000000000000000, 0.000000000000000000 ) ) ;
#537 = CARTESIAN_POINT ( 'NONE',  ( 0.000000000000000000, 0.000000000000000000, 0.000000000000000000 ) ) ;
#538 = CARTESIAN_POINT ( 'NONE',  ( 53.42468767129887652, 14.60512789323294136, 2.000000000000000000 ) ) ;
#539 = DIRECTION ( 'NONE',  ( -0.000000000000000000, 1.000000000000000000, 0.000000000000000000 ) ) ;
#540 = ORIENTED_EDGE ( 'NONE', *, *, #1131, .F. ) ;
#541 = LINE ( 'NONE', #936, #133 ) ;
#542 = VERTEX_POINT ( 'NONE', #620 ) ;
#543 = CARTESIAN_POINT ( 'NONE',  ( 4.959874314827438013, 72.97032663101764172, 2.000000000000000000 ) ) ;
#544 = DIRECTION ( 'NONE',  ( 1.000000000000000000, 0.000000000000000000, 0.000000000000000000 ) ) ;
#545 = ORIENTED_EDGE ( 'NONE', *, *, #129, .T. ) ;
#546 = CARTESIAN_POINT ( 'NONE',  ( 4.295687810014245933, 14.60512789323294136, 2.000000000000000000 ) ) ;
#547 = VECTOR ( 'NONE', #49, 1000.000000000000114 ) ;
#548 = ORIENTED_EDGE ( 'NONE', *, *, #170, .F. ) ;
#549 = CIRCLE ( 'NONE', #1011, 7.000000000000000000 ) ;
#550 = CARTESIAN_POINT ( 'NONE',  ( 53.42468767129887652, 64.51002608338107791, 5.000000000000000000 ) ) ;
#551 = EDGE_CURVE ( 'NONE', #864, #316, #154, .T. ) ;
#552 = FACE_OUTER_BOUND ( 'NONE', #942, .T. ) ;
#553 = ORIENTED_EDGE ( 'NONE', *, *, #365, .T. ) ;
#554 = DIRECTION ( 'NONE',  ( 0.000000000000000000, 0.000000000000000000, -1.000000000000000000 ) ) ;
#555 = EDGE_CURVE ( 'NONE', #167, #542, #728, .T. ) ;
#556 = FACE_OUTER_BOUND ( 'NONE', #492, .T. ) ;
#557 = PLANE ( 'NONE',  #805 ) ;
#558 = EDGE_LOOP ( 'NONE', ( #328, #210, #1005, #428, #697, #486, #958, #1066, #378, #1206, #1010, #998, #692, #776, #164, #394, #277, #829, #27, #289 ) ) ;
#559 = ADVANCED_FACE ( 'NONE', ( #1048 ), #186, .T. ) ;
#560 = LINE ( 'NONE', #567, #172 ) ;
#561 = EDGE_CURVE ( 'NONE', #1049, #17, #560, .T. ) ;
#562 = EDGE_LOOP ( 'NONE', ( #1139, #233, #178, #766 ) ) ;
#563 = CARTESIAN_POINT ( 'NONE',  ( 33.72599999999999199, 67.89399999999999125, 0.000000000000000000 ) ) ;
#564 = DIRECTION ( 'NONE',  ( -0.000000000000000000, -1.000000000000000000, -0.000000000000000000 ) ) ;
#565 = ORIENTED_EDGE ( 'NONE', *, *, #949, .T. ) ;
#566 = VECTOR ( 'NONE', #643, 1000.000000000000000 ) ;
#567 = CARTESIAN_POINT ( 'NONE',  ( 43.90927744908574226, 14.60512789323294136, 0.000000000000000000 ) ) ;
#568 = VERTEX_POINT ( 'NONE', #768 ) ;
#569 = CARTESIAN_POINT ( 'NONE',  ( 43.90927744908573516, 4.332563367193131398, 2.000000000000000000 ) ) ;
#570 = EDGE_CURVE ( 'NONE', #744, #458, #118, .T. ) ;
#571 = ORIENTED_EDGE ( 'NONE', *, *, #361, .T. ) ;
#572 = ORIENTED_EDGE ( 'NONE', *, *, #266, .T. ) ;
#573 = VERTEX_POINT ( 'NONE', #664 ) ;
#574 = EDGE_CURVE ( 'NONE', #840, #657, #385, .T. ) ;
#575 = DIRECTION ( 'NONE',  ( 0.000000000000000000, -1.000000000000000000, 0.000000000000000000 ) ) ;
#576 = DIRECTION ( 'NONE',  ( 0.000000000000000000, 0.000000000000000000, -1.000000000000000000 ) ) ;
#577 = ORIENTED_EDGE ( 'NONE', *, *, #258, .F. ) ;
#578 = ADVANCED_FACE ( 'NONE', ( #752 ), #290, .F. ) ;
#579 = ORIENTED_EDGE ( 'NONE', *, *, #275, .T. ) ;
#580 = EDGE_LOOP ( 'NONE', ( #979, #1126, #1223, #759 ) ) ;
#581 = VECTOR ( 'NONE', #879, 1000.000000000000000 ) ;
#582 = DIRECTION ( 'NONE',  ( 0.000000000000000000, -1.000000000000000000, 0.000000000000000000 ) ) ;
#583 = LINE ( 'NONE', #775, #28 ) ;
#584 = ORIENTED_EDGE ( 'NONE', *, *, #820, .T. ) ;
#585 = EDGE_CURVE ( 'NONE', #1047, #1086, #301, .T. ) ;
#586 = VECTOR ( 'NONE', #296, 1000.000000000000000 ) ;
#587 = PLANE ( 'NONE',  #1012 ) ;
#588 = DIRECTION ( 'NONE',  ( 0.000000000000000000, 0.000000000000000000, -1.000000000000000000 ) ) ;
#589 = VERTEX_POINT ( 'NONE', #191 ) ;
#590 = CARTESIAN_POINT ( 'NONE',  ( 34.03681848723820735, 4.331477447866618924, 0.000000000000000000 ) ) ;
#591 = CARTESIAN_POINT ( 'NONE',  ( 50.62487521466801610, 72.97032663101764172, 0.000000000000000000 ) ) ;
#592 = CARTESIAN_POINT ( 'NONE',  ( 2.007000000000000117, 11.75999999999999979, 0.000000000000000000 ) ) ;
#593 = ORIENTED_EDGE ( 'NONE', *, *, #931, .T. ) ;
#594 = EDGE_CURVE ( 'NONE', #573, #1015, #153, .T. ) ;
#595 = FACE_BOUND ( 'NONE', #935, .T. ) ;
#596 = PLANE ( 'NONE',  #669 ) ;
#597 = CARTESIAN_POINT ( 'NONE',  ( 53.42468767129887652, 64.51002608338107791, 2.000000000000000000 ) ) ;
#598 = CARTESIAN_POINT ( 'NONE',  ( 43.90927744908574226, 14.60512789323294136, 2.000000000000000000 ) ) ;
#599 = CARTESIAN_POINT ( 'NONE',  ( 23.76284665593176726, 14.60512789323294136, 5.000000000000000000 ) ) ;
#600 = FACE_BOUND ( 'NONE', #1060, .T. ) ;
#601 = FACE_OUTER_BOUND ( 'NONE', #867, .T. ) ;
#602 = EDGE_CURVE ( 'NONE', #980, #243, #774, .T. ) ;
#603 = DIRECTION ( 'NONE',  ( -0.000000000000000000, -0.000000000000000000, 1.000000000000000000 ) ) ;
#604 = ORIENTED_EDGE ( 'NONE', *, *, #1119, .F. ) ;
#605 = CIRCLE ( 'NONE', #1100, 1.250000000000001110 ) ;
#606 = DIRECTION ( 'NONE',  ( 0.000000000000000000, 0.000000000000000000, -1.000000000000000000 ) ) ;
#607 = LINE ( 'NONE', #1197, #1134 ) ;
#608 = DIRECTION ( 'NONE',  ( -0.9999999939505700430, -0.0001099948173134468384, 0.000000000000000000 ) ) ;
#609 = ORIENTED_EDGE ( 'NONE', *, *, #407, .T. ) ;
#610 = DIRECTION ( 'NONE',  ( 0.000000000000000000, 0.000000000000000000, -1.000000000000000000 ) ) ;
#611 = EDGE_CURVE ( 'NONE', #445, #966, #336, .T. ) ;
#612 = LINE ( 'NONE', #695, #404 ) ;
#613 = PLANE ( 'NONE',  #869 ) ;
#614 = ORIENTED_EDGE ( 'NONE', *, *, #317, .F. ) ;
#615 = VECTOR ( 'NONE', #770, 1000.000000000000000 ) ;
#616 = CYLINDRICAL_SURFACE ( 'NONE', #691, 1.250000000000001110 ) ;
#617 = ORIENTED_EDGE ( 'NONE', *, *, #594, .T. ) ;
#618 = CARTESIAN_POINT ( 'NONE',  ( -0.2935687040742209208, 64.39856724271974997, 2.000000000000000000 ) ) ;
#619 = LINE ( 'NONE', #910, #627 ) ;
#620 = CARTESIAN_POINT ( 'NONE',  ( 34.03681848723820735, 4.331477447866618924, 2.000000000000000000 ) ) ;
#621 = VERTEX_POINT ( 'NONE', #964 ) ;
#622 = ORIENTED_EDGE ( 'NONE', *, *, #1071, .F. ) ;
#623 = VECTOR ( 'NONE', #926, 1000.000000000000000 ) ;
#624 = DIRECTION ( 'NONE',  ( -1.000000000000000000, 0.000000000000000000, 0.000000000000000000 ) ) ;
#625 = VECTOR ( 'NONE', #370, 1000.000000000000000 ) ;
#626 = LINE ( 'NONE', #349, #830 ) ;
#627 = VECTOR ( 'NONE', #63, 1000.000000000000000 ) ;
#628 = AXIS2_PLACEMENT_3D ( 'NONE', #799, #999, #143 ) ;
#629 = CARTESIAN_POINT ( 'NONE',  ( 50.62487521466801610, 72.97032663101764172, 0.000000000000000000 ) ) ;
#630 = DIRECTION ( 'NONE',  ( 0.000000000000000000, 0.000000000000000000, -1.000000000000000000 ) ) ;
#631 = VERTEX_POINT ( 'NONE', #206 ) ;
#632 = CARTESIAN_POINT ( 'NONE',  ( 56.82500000000000284, 23.16500000000000270, 0.000000000000000000 ) ) ;
#633 = ORIENTED_EDGE ( 'NONE', *, *, #561, .T. ) ;
#634 = CARTESIAN_POINT ( 'NONE',  ( 59.62487521466800899, 72.97032663101764172, 2.100000000000000089 ) ) ;
#635 = CARTESIAN_POINT ( 'NONE',  ( 3.257000000000000561, 11.75999999999999979, 5.000000000000000000 ) ) ;
#636 = PLANE ( 'NONE',  #53 ) ;
#637 = ORIENTED_EDGE ( 'NONE', *, *, #96, .T. ) ;
#638 = ORIENTED_EDGE ( 'NONE', *, *, #423, .F. ) ;
#639 = EDGE_CURVE ( 'NONE', #310, #568, #952, .T. ) ;
#640 = CARTESIAN_POINT ( 'NONE',  ( 4.959874314827438901, 72.97032663101764172, 2.000000000000000000 ) ) ;
#641 = EDGE_LOOP ( 'NONE', ( #811, #790, #363, #283 ) ) ;
#642 = CARTESIAN_POINT ( 'NONE',  ( 4.295687810014245933, 64.51002608338107791, 5.000000000000000000 ) ) ;
#643 = DIRECTION ( 'NONE',  ( 1.000000000000000000, 0.000000000000000000, 0.000000000000000000 ) ) ;
#644 = ORIENTED_EDGE ( 'NONE', *, *, #1175, .F. ) ;
#645 = CARTESIAN_POINT ( 'NONE',  ( 43.90927744908574226, 54.27958569903599795, 5.000000000000000000 ) ) ;
#646 = AXIS2_PLACEMENT_3D ( 'NONE', #1029, #544, #630 ) ;
#647 = EDGE_LOOP ( 'NONE', ( #323, #637, #689, #968 ) ) ;
#648 = AXIS2_PLACEMENT_3D ( 'NONE', #82, #1022, #77 ) ;
#649 = UNCERTAINTY_MEASURE_WITH_UNIT (LENGTH_MEASURE( 1.000000000000000082E-05 ), #950, 'distance_accuracy_value', 'NONE');
#650 = AXIS2_PLACEMENT_3D ( 'NONE', #713, #801, #37 ) ;
#651 = EDGE_CURVE ( 'NONE', #15, #128, #762, .T. ) ;
#652 = VECTOR ( 'NONE', #242, 1000.000000000000000 ) ;
#653 = CARTESIAN_POINT ( 'NONE',  ( 34.03681848723820735, 14.60512789323294136, 0.000000000000000000 ) ) ;
#654 = EDGE_LOOP ( 'NONE', ( #66, #1118, #1040, #875 ) ) ;
#655 = LINE ( 'NONE', #1137, #237 ) ;
#656 = CARTESIAN_POINT ( 'NONE',  ( 56.11666857491579918, 71.12662254165822162, 2.000000000000000000 ) ) ;
#657 = VERTEX_POINT ( 'NONE', #2 ) ;
#658 = CARTESIAN_POINT ( 'NONE',  ( 53.42468767129887652, 64.51002608338107791, 0.000000000000000000 ) ) ;
#659 = EDGE_LOOP ( 'NONE', ( #253, #753, #577, #899 ) ) ;
#660 = DIRECTION ( 'NONE',  ( 0.000000000000000000, 0.000000000000000000, -1.000000000000000000 ) ) ;
#661 = LINE ( 'NONE', #720, #1173 ) ;
#662 = ORIENTED_EDGE ( 'NONE', *, *, #792, .T. ) ;
#663 = EDGE_CURVE ( 'NONE', #666, #534, #26, .T. ) ;
#664 = CARTESIAN_POINT ( 'NONE',  ( 36.22600000000000620, 67.89399999999999125, 0.000000000000000000 ) ) ;
#665 = DIRECTION ( 'NONE',  ( -1.000000000000000000, 0.000000000000000000, 0.000000000000000000 ) ) ;
#666 = VERTEX_POINT ( 'NONE', #380 ) ;
#667 = ORIENTED_EDGE ( 'NONE', *, *, #585, .F. ) ;
#668 = EDGE_LOOP ( 'NONE', ( #264, #593, #868, #1160 ) ) ;
#669 = AXIS2_PLACEMENT_3D ( 'NONE', #891, #239, #904 ) ;
#670 = EDGE_CURVE ( 'NONE', #1086, #169, #196, .T. ) ;
#671 = DIRECTION ( 'NONE',  ( -0.000000000000000000, 1.000000000000000000, -0.000000000000000000 ) ) ;
#672 = CARTESIAN_POINT ( 'NONE',  ( 43.90927744908574226, 14.60512789323294136, 0.000000000000000000 ) ) ;
#673 = ORIENTED_EDGE ( 'NONE', *, *, #248, .T. ) ;
#674 = EDGE_LOOP ( 'NONE', ( #240, #863, #274, #1142 ) ) ;
#675 = B_SPLINE_CURVE_WITH_KNOTS ( 'NONE', 3,
 ( #591, #995, #704, #215, #410, #795, #788, #687, #699, #876, #1184, #896 ),
 .UNSPECIFIED., .F., .F.,
 ( 4, 2, 2, 2, 2, 4 ),
 ( 0.000000000000000000, 0.2500000000000005551, 0.5000000000000011102, 0.6250000000000007772, 0.7500000000000005551, 1.000000000000000000 ),
 .UNSPECIFIED. ) ;
#676 = CARTESIAN_POINT ( 'NONE',  ( 34.97599999999999909, 67.89399999999999125, 0.000000000000000000 ) ) ;
#677 = LINE ( 'NONE', #192, #772 ) ;
#678 = ORIENTED_EDGE ( 'NONE', *, *, #800, .T. ) ;
#679 = AXIS2_PLACEMENT_3D ( 'NONE', #965, #576, #1236 ) ;
#680 = DIRECTION ( 'NONE',  ( -0.000000000000000000, -1.000000000000000000, -0.000000000000000000 ) ) ;
#681 = FACE_OUTER_BOUND ( 'NONE', #760, .T. ) ;
#682 = ORIENTED_EDGE ( 'NONE', *, *, #275, .F. ) ;
#683 = VECTOR ( 'NONE', #426, 1000.000000000000000 ) ;
#684 = VECTOR ( 'NONE', #494, 1000.000000000000000 ) ;
#685 =( NAMED_UNIT ( * ) SI_UNIT ( $, .STERADIAN. ) SOLID_ANGLE_UNIT ( ) );
#686 = EDGE_CURVE ( 'NONE', #631, #589, #478, .T. ) ;
#687 = CARTESIAN_POINT ( 'NONE',  ( 58.43122970136481342, 68.49054675032820683, -0.000000000000000000 ) ) ;
#688 = LINE ( 'NONE', #1101, #1217 ) ;
#689 = ORIENTED_EDGE ( 'NONE', *, *, #6, .T. ) ;
#690 = AXIS2_PLACEMENT_3D ( 'NONE', #537, #917, #735 ) ;
#691 = AXIS2_PLACEMENT_3D ( 'NONE', #341, #710, #157 ) ;
#692 = ORIENTED_EDGE ( 'NONE', *, *, #963, .F. ) ;
#693 = EDGE_CURVE ( 'NONE', #17, #1047, #756, .T. ) ;
#694 = CARTESIAN_POINT ( 'NONE',  ( 33.63530561777929506, 54.27958569903599795, 2.000000000000000000 ) ) ;
#695 = CARTESIAN_POINT ( 'NONE',  ( 43.90927744908574226, 14.60512789323294136, 0.000000000000000000 ) ) ;
#696 = LINE ( 'NONE', #990, #902 ) ;
#697 = ORIENTED_EDGE ( 'NONE', *, *, #551, .F. ) ;
#698 = ADVANCED_FACE ( 'NONE', ( #1063 ), #587, .T. ) ;
#699 = CARTESIAN_POINT ( 'NONE',  ( 58.70735685928001146, 67.97411233225794547, 0.000000000000000000 ) ) ;
#700 = DIRECTION ( 'NONE',  ( 1.000000000000000000, 0.000000000000000000, 0.000000000000000000 ) ) ;
#701 = LINE ( 'NONE', #135, #190 ) ;
#702 = DIRECTION ( 'NONE',  ( 0.0001042891155878002536, 0.9999999945618901487, -0.000000000000000000 ) ) ;
#703 = CIRCLE ( 'NONE', #648, 6.999999999999999112 ) ;
#704 = CARTESIAN_POINT ( 'NONE',  ( 52.96774997991116152, 72.74130159768836279, 0.000000000000000000 ) ) ;
#705 = ADVANCED_FACE ( 'NONE', ( #1141 ), #125, .T. ) ;
#706 = AXIS2_PLACEMENT_3D ( 'NONE', #853, #861, #1075 ) ;
#707 = LINE ( 'NONE', #1096, #92 ) ;
#708 = VERTEX_POINT ( 'NONE', #325 ) ;
#709 = ORIENTED_EDGE ( 'NONE', *, *, #197, .F. ) ;
#710 = DIRECTION ( 'NONE',  ( 0.000000000000000000, 0.000000000000000000, -1.000000000000000000 ) ) ;
#711 = AXIS2_PLACEMENT_3D ( 'NONE', #804, #427, #45 ) ;
#712 = MANIFOLD_SOLID_BREP ( 'Cut-Extrude4', #767 ) ;
#713 = CARTESIAN_POINT ( 'NONE',  ( 0.000000000000000000, 0.000000000000000000, 0.000000000000000000 ) ) ;
#714 = LINE ( 'NONE', #123, #731 ) ;
#715 = VERTEX_POINT ( 'NONE', #780 ) ;
#716 = VECTOR ( 'NONE', #163, 1000.000000000000227 ) ;
#717 = VERTEX_POINT ( 'NONE', #590 ) ;
#718 = DIRECTION ( 'NONE',  ( -1.000000000000000000, -1.239088204094989693E-16, 0.000000000000000000 ) ) ;
#719 = VERTEX_POINT ( 'NONE', #878 ) ;
#720 = CARTESIAN_POINT ( 'NONE',  ( 14.31641524791677433, 14.60512789323294136, 0.000000000000000000 ) ) ;
#721 = PLANE ( 'NONE',  #1157 ) ;
#722 = CARTESIAN_POINT ( 'NONE',  ( 24.15654994109765852, 64.51002608338107791, 5.000000000000000000 ) ) ;
#723 = ORIENTED_EDGE ( 'NONE', *, *, #365, .F. ) ;
#724 = DIRECTION ( 'NONE',  ( -1.239088204094989693E-16, 1.000000000000000000, 0.000000000000000000 ) ) ;
#725 = CARTESIAN_POINT ( 'NONE',  ( 34.03681848723820735, 14.60512789323294136, 2.000000000000000000 ) ) ;
#726 =( NAMED_UNIT ( * ) SI_UNIT ( $, .STERADIAN. ) SOLID_ANGLE_UNIT ( ) );
#727 = EDGE_CURVE ( 'NONE', #1014, #431, #1, .T. ) ;
#728 = LINE ( 'NONE', #1116, #948 ) ;
#729 = CARTESIAN_POINT ( 'NONE',  ( 54.32499999999999574, 23.16500000000000270, 2.000000000000000000 ) ) ;
#730 = ORIENTED_EDGE ( 'NONE', *, *, #324, .T. ) ;
#731 = VECTOR ( 'NONE', #1178, 1000.000000000000000 ) ;
#732 = PLANE ( 'NONE',  #994 ) ;
#733 = ORIENTED_EDGE ( 'NONE', *, *, #343, .F. ) ;
#734 = DIRECTION ( 'NONE',  ( -0.9999896096461816652, -0.004558574303137204707, 0.000000000000000000 ) ) ;
#735 = DIRECTION ( 'NONE',  ( 1.000000000000000000, 0.000000000000000000, 0.000000000000000000 ) ) ;
#736 = DIRECTION ( 'NONE',  ( 0.000000000000000000, 0.000000000000000000, -1.000000000000000000 ) ) ;
#737 = CARTESIAN_POINT ( 'NONE',  ( 43.90927744908574226, 64.55323614440233371, 2.000000000000000000 ) ) ;
#738 = VERTEX_POINT ( 'NONE', #694 ) ;
#739 = LINE ( 'NONE', #168, #716 ) ;
#740 = ORIENTED_EDGE ( 'NONE', *, *, #454, .T. ) ;
#741 = ADVANCED_FACE ( 'NONE', ( #1083 ), #36, .T. ) ;
#742 = LINE ( 'NONE', #466, #625 ) ;
#743 = CARTESIAN_POINT ( 'NONE',  ( 0.000000000000000000, 14.60512789323294136, 2.000000000000000000 ) ) ;
#744 = VERTEX_POINT ( 'NONE', #598 ) ;
#745 = DIRECTION ( 'NONE',  ( 0.000000000000000000, 0.000000000000000000, 1.000000000000000000 ) ) ;
#746 = DIRECTION ( 'NONE',  ( 0.000000000000000000, -1.000000000000000000, 0.000000000000000000 ) ) ;
#747 = ADVANCED_FACE ( 'NONE', ( #508 ), #1207, .T. ) ;
#748 = DIRECTION ( 'NONE',  ( 0.000000000000000000, 0.000000000000000000, -1.000000000000000000 ) ) ;
#749 = VECTOR ( 'NONE', #734, 1000.000000000000000 ) ;
#750 = VERTEX_POINT ( 'NONE', #228 ) ;
#751 = VECTOR ( 'NONE', #680, 1000.000000000000000 ) ;
#752 = FACE_OUTER_BOUND ( 'NONE', #124, .T. ) ;
#753 = ORIENTED_EDGE ( 'NONE', *, *, #1026, .T. ) ;
#754 = CARTESIAN_POINT ( 'NONE',  ( -2.040125685172561099, 65.97032663101764172, 2.000000000000000000 ) ) ;
#755 = CARTESIAN_POINT ( 'NONE',  ( 33.63530561777929506, 54.27958569903599795, 5.000000000000000000 ) ) ;
#756 = LINE ( 'NONE', #658, #870 ) ;
#757 = CARTESIAN_POINT ( 'NONE',  ( 36.22600000000000620, 67.89399999999999125, 2.000000000000000000 ) ) ;
#758 = CARTESIAN_POINT ( 'NONE',  ( 43.90927744908574226, 54.27958569903599795, 0.000000000000000000 ) ) ;
#759 = ORIENTED_EDGE ( 'NONE', *, *, #19, .F. ) ;
#760 = EDGE_LOOP ( 'NONE', ( #23, #1234, #444, #1221 ) ) ;
#761 = ADVANCED_FACE ( 'NONE', ( #1104 ), #347, .T. ) ;
#762 = LINE ( 'NONE', #101, #1136 ) ;
#763 = DIRECTION ( 'NONE',  ( -0.000000000000000000, -0.000000000000000000, 1.000000000000000000 ) ) ;
#764 = ORIENTED_EDGE ( 'NONE', *, *, #256, .F. ) ;
#765 = VERTEX_POINT ( 'NONE', #149 ) ;
#766 = ORIENTED_EDGE ( 'NONE', *, *, #890, .T. ) ;
#767 = CLOSED_SHELL ( 'NONE', ( #1065, #778, #1159, #415, #1215, #796, #292, #838, #833, #1054, #436, #1113, #1231, #236, #761, #104, #705, #224, #1147, #895, #29, #698, #100, #418, #954, #741, #559, #397, #69, #747, #860, #1182, #448, #578, #1044, #356 ) ) ;
#768 = CARTESIAN_POINT ( 'NONE',  ( 14.31641524791677433, 4.331477447866618924, 0.000000000000000000 ) ) ;
#769 = EDGE_CURVE ( 'NONE', #138, #445, #40, .T. ) ;
#770 = DIRECTION ( 'NONE',  ( 0.000000000000000000, 0.000000000000000000, -1.000000000000000000 ) ) ;
#771 = VERTEX_POINT ( 'NONE', #52 ) ;
#772 = VECTOR ( 'NONE', #386, 1000.000000000000000 ) ;
#773 = ORIENTED_EDGE ( 'NONE', *, *, #1051, .T. ) ;
#774 = LINE ( 'NONE', #1148, #1115 ) ;
#775 = CARTESIAN_POINT ( 'NONE',  ( 13.88257810979120777, 0.000000000000000000, 2.000000000000000000 ) ) ;
#776 = ORIENTED_EDGE ( 'NONE', *, *, #908, .F. ) ;
#777 = ORIENTED_EDGE ( 'NONE', *, *, #173, .T. ) ;
#778 = ADVANCED_FACE ( 'NONE', ( #352 ), #616, .F. ) ;
#779 = VECTOR ( 'NONE', #763, 1000.000000000000000 ) ;
#780 = CARTESIAN_POINT ( 'NONE',  ( 13.88257810979120777, 64.51002608338107791, 0.000000000000000000 ) ) ;
#781 = FACE_OUTER_BOUND ( 'NONE', #109, .T. ) ;
#782 = ORIENTED_EDGE ( 'NONE', *, *, #1153, .T. ) ;
#783 = EDGE_CURVE ( 'NONE', #1097, #1180, #136, .T. ) ;
#784 = PRODUCT_DEFINITION_CONTEXT ( 'detailed design', #1174, 'design' ) ;
#785 = CIRCLE ( 'NONE', #946, 1.250000000000001110 ) ;
#786 = VECTOR ( 'NONE', #736, 1000.000000000000000 ) ;
#787 = PRESENTATION_STYLE_ASSIGNMENT (( #319 ) ) ;
#788 = CARTESIAN_POINT ( 'NONE',  ( 57.78117112532758171, 69.46211999124187741, 0.000000000000000000 ) ) ;
#789 = DIRECTION ( 'NONE',  ( 0.000000000000000000, 1.000000000000000000, 0.000000000000000000 ) ) ;
#790 = ORIENTED_EDGE ( 'NONE', *, *, #19, .T. ) ;
#791 = ORIENTED_EDGE ( 'NONE', *, *, #515, .F. ) ;
#792 = EDGE_CURVE ( 'NONE', #715, #621, #1088, .T. ) ;
#793 = VERTEX_POINT ( 'NONE', #252 ) ;
#794 = DIRECTION ( 'NONE',  ( 1.000000000000000000, -0.000000000000000000, 0.000000000000000000 ) ) ;
#795 = CARTESIAN_POINT ( 'NONE',  ( 57.40795789421725459, 69.91552965887098026, -0.000000000000000000 ) ) ;
#796 = ADVANCED_FACE ( 'NONE', ( #421 ), #433, .F. ) ;
#797 = DIRECTION ( 'NONE',  ( -0.9999999945618902597, 0.0001042891155878002672, 0.000000000000000000 ) ) ;
#798 = ORIENTED_EDGE ( 'NONE', *, *, #1041, .F. ) ;
#799 = CARTESIAN_POINT ( 'NONE',  ( -2.040125685172561099, 72.97032663101764172, 2.000000000000000000 ) ) ;
#800 = EDGE_CURVE ( 'NONE', #285, #346, #535, .T. ) ;
#801 = DIRECTION ( 'NONE',  ( 0.000000000000000000, 0.000000000000000000, -1.000000000000000000 ) ) ;
#802 = CARTESIAN_POINT ( 'NONE',  ( 24.15654994109765852, 64.51002608338107791, 0.000000000000000000 ) ) ;
#803 = ORIENTED_EDGE ( 'NONE', *, *, #769, .F. ) ;
#804 = CARTESIAN_POINT ( 'NONE',  ( 14.31641524791677433, 14.60512789323294136, 5.000000000000000000 ) ) ;
#805 = AXIS2_PLACEMENT_3D ( 'NONE', #941, #1000, #435 ) ;
#806 = FACE_BOUND ( 'NONE', #817, .T. ) ;
#807 = CIRCLE ( 'NONE', #95, 6.999999999999999112 ) ;
#808 = EDGE_CURVE ( 'NONE', #708, #482, #907, .T. ) ;
#809 = CARTESIAN_POINT ( 'NONE',  ( 2.007000000000000117, 11.75999999999999979, 5.000000000000000000 ) ) ;
#810 = ORIENTED_EDGE ( 'NONE', *, *, #1235, .T. ) ;
#811 = ORIENTED_EDGE ( 'NONE', *, *, #841, .F. ) ;
#812 = CARTESIAN_POINT ( 'NONE',  ( 4.295687810014245933, 64.51002608338107791, 0.000000000000000000 ) ) ;
#813 = FACE_OUTER_BOUND ( 'NONE', #668, .T. ) ;
#814 = EDGE_CURVE ( 'NONE', #316, #205, #1007, .T. ) ;
#815 = CARTESIAN_POINT ( 'NONE',  ( 59.62487521466801610, 63.97032663267740560, 0.000000000000000000 ) ) ;
#816 = CARTESIAN_POINT ( 'NONE',  ( 13.88257810979120777, 64.51002608338107791, 5.000000000000000000 ) ) ;
#817 = EDGE_LOOP ( 'NONE', ( #730, #387 ) ) ;
#818 = CARTESIAN_POINT ( 'NONE',  ( 2.007000000000000117, 11.75999999999999979, 2.000000000000000000 ) ) ;
#819 = LINE ( 'NONE', #815, #547 ) ;
#820 = EDGE_CURVE ( 'NONE', #73, #1008, #318, .T. ) ;
#821 = DIRECTION ( 'NONE',  ( 0.000000000000000000, -1.000000000000000000, 0.000000000000000000 ) ) ;
#822 = DIRECTION ( 'NONE',  ( 0.9999896096461816652, 0.004558574303137204707, 0.000000000000000000 ) ) ;
#823 = EDGE_LOOP ( 'NONE', ( #881, #340, #1230, #1133 ) ) ;
#824 = CARTESIAN_POINT ( 'NONE',  ( 24.15654994109765852, 54.23637563801475636, 5.000000000000000000 ) ) ;
#825 = ORIENTED_EDGE ( 'NONE', *, *, #158, .T. ) ;
#826 = DIRECTION ( 'NONE',  ( 1.000000000000000000, -0.000000000000000000, -0.000000000000000000 ) ) ;
#827 = CARTESIAN_POINT ( 'NONE',  ( 54.32499999999999574, 23.16500000000000270, 0.000000000000000000 ) ) ;
#828 = LINE ( 'NONE', #273, #171 ) ;
#829 = ORIENTED_EDGE ( 'NONE', *, *, #129, .F. ) ;
#830 = VECTOR ( 'NONE', #564, 1000.000000000000000 ) ;
#831 = CARTESIAN_POINT ( 'NONE',  ( 55.57500000000000284, 23.16500000000000270, 0.000000000000000000 ) ) ;
#832 = ORIENTED_EDGE ( 'NONE', *, *, #882, .F. ) ;
#833 = ADVANCED_FACE ( 'NONE', ( #235 ), #1016, .F. ) ;
#834 = VECTOR ( 'NONE', #748, 1000.000000000000000 ) ;
#835 = PLANE ( 'NONE',  #1237 ) ;
#836 = DIRECTION ( 'NONE',  ( 1.000000000000000000, 0.000000000000000000, 0.000000000000000000 ) ) ;
#837 = ORIENTED_EDGE ( 'NONE', *, *, #670, .F. ) ;
#838 = ADVANCED_FACE ( 'NONE', ( #914 ), #67, .F. ) ;
#839 = LINE ( 'NONE', #645, #933 ) ;
#840 = VERTEX_POINT ( 'NONE', #1187 ) ;
#841 = EDGE_CURVE ( 'NONE', #201, #666, #520, .T. ) ;
#842 = CARTESIAN_POINT ( 'NONE',  ( -2.040125685172561099, 3.968327729650614977, 2.000000000000000000 ) ) ;
#843 = CARTESIAN_POINT ( 'NONE',  ( 43.90927744908574226, 64.55323614440233371, 5.000000000000000000 ) ) ;
#844 = AXIS2_PLACEMENT_3D ( 'NONE', #1069, #102, #665 ) ;
#845 = EDGE_LOOP ( 'NONE', ( #571, #194, #193, #11 ) ) ;
#846 = CARTESIAN_POINT ( 'NONE',  ( -2.040125685172561099, 3.968327729650618529, 2.000000000000000000 ) ) ;
#847 = CARTESIAN_POINT ( 'NONE',  ( 53.42468767129887652, 64.51002608338107791, 0.000000000000000000 ) ) ;
#848 = LINE ( 'NONE', #1112, #526 ) ;
#849 = VECTOR ( 'NONE', #166, 1000.000000000000000 ) ;
#850 = ORIENTED_EDGE ( 'NONE', *, *, #179, .T. ) ;
#851 = AXIS2_PLACEMENT_3D ( 'NONE', #676, #398, #474 ) ;
#852 = VECTOR ( 'NONE', #130, 1000.000000000000000 ) ;
#853 = CARTESIAN_POINT ( 'NONE',  ( 55.57500000000000284, 23.16500000000000270, 0.000000000000000000 ) ) ;
#854 = VERTEX_POINT ( 'NONE', #446 ) ;
#855 = FACE_OUTER_BOUND ( 'NONE', #987, .T. ) ;
#856 = DIRECTION ( 'NONE',  ( -1.000000000000000000, 0.000000000000000000, 0.000000000000000000 ) ) ;
#857 = EDGE_CURVE ( 'NONE', #500, #1121, #399, .T. ) ;
#858 = ORIENTED_EDGE ( 'NONE', *, *, #639, .F. ) ;
#859 = CARTESIAN_POINT ( 'NONE',  ( 59.62487521466800899, 72.97032663101764172, 1.366666666666667140 ) ) ;
#860 = ADVANCED_FACE ( 'NONE', ( #1039 ), #182, .T. ) ;
#861 = DIRECTION ( 'NONE',  ( 0.000000000000000000, 0.000000000000000000, 1.000000000000000000 ) ) ;
#862 = DIRECTION ( 'NONE',  ( 0.000000000000000000, 1.000000000000000000, 0.000000000000000000 ) ) ;
#863 = ORIENTED_EDGE ( 'NONE', *, *, #487, .T. ) ;
#864 = VERTEX_POINT ( 'NONE', #1125 ) ;
#865 = DIRECTION ( 'NONE',  ( 0.000000000000000000, 0.000000000000000000, -1.000000000000000000 ) ) ;
#866 = CYLINDRICAL_SURFACE ( 'NONE', #244, 6.999999999999999112 ) ;
#867 = EDGE_LOOP ( 'NONE', ( #572, #1169, #709, #117 ) ) ;
#868 = ORIENTED_EDGE ( 'NONE', *, *, #407, .F. ) ;
#869 = AXIS2_PLACEMENT_3D ( 'NONE', #517, #797, #1004 ) ;
#870 = VECTOR ( 'NONE', #671, 1000.000000000000000 ) ;
#871 = CARTESIAN_POINT ( 'NONE',  ( 59.62487521466801610, 63.97032663101764882, 0.6666666666666669627 ) ) ;
#872 = DIRECTION ( 'NONE',  ( 1.000000000000000000, -0.000000000000000000, 0.000000000000000000 ) ) ;
#873 = VECTOR ( 'NONE', #1192, 1000.000000000000000 ) ;
#874 = EDGE_LOOP ( 'NONE', ( #420, #21, #447, #388 ) ) ;
#875 = ORIENTED_EDGE ( 'NONE', *, *, #814, .F. ) ;
#876 = CARTESIAN_POINT ( 'NONE',  ( 59.39549562582102027, 66.31730328827826781, -0.000000000000000000 ) ) ;
#877 = VERTEX_POINT ( 'NONE', #1120 ) ;
#878 = CARTESIAN_POINT ( 'NONE',  ( 43.90927744908574226, 54.27958569903599795, 2.000000000000000000 ) ) ;
#879 = DIRECTION ( 'NONE',  ( 0.000000000000000000, 0.000000000000000000, -1.000000000000000000 ) ) ;
#880 = CYLINDRICAL_SURFACE ( 'NONE', #432, 1.250000000000000000 ) ;
#881 = ORIENTED_EDGE ( 'NONE', *, *, #574, .T. ) ;
#882 = EDGE_CURVE ( 'NONE', #413, #205, #655, .T. ) ;
#883 = AXIS2_PLACEMENT_3D ( 'NONE', #457, #367, #836 ) ;
#884 = DIRECTION ( 'NONE',  ( -0.000000000000000000, -0.000000000000000000, 1.000000000000000000 ) ) ;
#885 = CARTESIAN_POINT ( 'NONE',  ( 0.7570000000000001172, 11.75999999999999979, 0.000000000000000000 ) ) ;
#886 = CARTESIAN_POINT ( 'NONE',  ( 4.959874314827438013, -3.031672270349385023, 0.000000000000000000 ) ) ;
#887 = ORIENTED_EDGE ( 'NONE', *, *, #343, .T. ) ;
#888 = CARTESIAN_POINT ( 'NONE',  ( -2.040125685172561099, 65.97032663101764172, 2.000000000000000000 ) ) ;
#889 = CARTESIAN_POINT ( 'NONE',  ( 50.62487521466800899, 72.97032663101764172, 1.366666666666667140 ) ) ;
#890 = EDGE_CURVE ( 'NONE', #877, #500, #84, .T. ) ;
#891 = CARTESIAN_POINT ( 'NONE',  ( 33.63530561777929506, 64.55323614440233371, 5.000000000000000000 ) ) ;
#892 = CARTESIAN_POINT ( 'NONE',  ( 34.03681848723820735, 4.331477447866618924, 5.000000000000000000 ) ) ;
#893 = DIRECTION ( 'NONE',  ( -0.000000000000000000, -0.000000000000000000, 1.000000000000000000 ) ) ;
#894 = EDGE_LOOP ( 'NONE', ( #59, #496, #1193, #481 ) ) ;
#895 = ADVANCED_FACE ( 'NONE', ( #556 ), #276, .T. ) ;
#896 = CARTESIAN_POINT ( 'NONE',  ( 59.62487521466801610, 63.97032663267740560, 0.000000000000000000 ) ) ;
#897 = DIRECTION ( 'NONE',  ( -0.000000000000000000, -0.000000000000000000, 1.000000000000000000 ) ) ;
#898 = FACE_OUTER_BOUND ( 'NONE', #894, .T. ) ;
#899 = ORIENTED_EDGE ( 'NONE', *, *, #931, .F. ) ;
#900 = CARTESIAN_POINT ( 'NONE',  ( 59.62487521466801610, 63.97032663267740560, 2.000000000000000000 ) ) ;
#901 = CARTESIAN_POINT ( 'NONE',  ( 59.62487521466801610, 63.97032663267740560, 2.000000000000000000 ) ) ;
#902 = VECTOR ( 'NONE', #216, 1000.000000000000000 ) ;
#903 = STYLED_ITEM ( 'NONE', ( #787 ), #712 ) ;
#904 = DIRECTION ( 'NONE',  ( -0.000000000000000000, 0.000000000000000000, 1.000000000000000000 ) ) ;
#905 = LINE ( 'NONE', #39, #354 ) ;
#906 = ORIENTED_EDGE ( 'NONE', *, *, #551, .T. ) ;
#907 = LINE ( 'NONE', #440, #652 ) ;
#908 = EDGE_CURVE ( 'NONE', #542, #1097, #541, .T. ) ;
#909 = DIRECTION ( 'NONE',  ( 0.000000000000000000, 0.000000000000000000, -1.000000000000000000 ) ) ;
#910 = CARTESIAN_POINT ( 'NONE',  ( 33.63530561777929506, 54.27958569903599795, 0.000000000000000000 ) ) ;
#911 = CARTESIAN_POINT ( 'NONE',  ( 50.62487521466800189, 72.97032663101764172, 0.6666666666666666297 ) ) ;
#912 = DIRECTION ( 'NONE',  ( 0.004558574303137204707, -0.9999896096461816652, 0.000000000000000000 ) ) ;
#913 = ORIENTED_EDGE ( 'NONE', *, *, #1021, .F. ) ;
#914 = FACE_OUTER_BOUND ( 'NONE', #562, .T. ) ;
#915 = ORIENTED_EDGE ( 'NONE', *, *, #1056, .T. ) ;
#916 = FACE_OUTER_BOUND ( 'NONE', #251, .T. ) ;
#917 = DIRECTION ( 'NONE',  ( 0.000000000000000000, 0.000000000000000000, 1.000000000000000000 ) ) ;
#918 = CARTESIAN_POINT ( 'NONE',  ( 50.62487521466800899, 72.97032663101764172, 2.000000000000000000 ) ) ;
#919 = LINE ( 'NONE', #1220, #849 ) ;
#920 = EDGE_LOOP ( 'NONE', ( #773, #1006, #148, #604 ) ) ;
#921 = DIRECTION ( 'NONE',  ( 0.000000000000000000, 0.000000000000000000, -1.000000000000000000 ) ) ;
#922 = VERTEX_POINT ( 'NONE', #1031 ) ;
#923 = EDGE_CURVE ( 'NONE', #717, #1180, #739, .T. ) ;
#924 = CARTESIAN_POINT ( 'NONE',  ( 59.62487521466801610, 63.97032663101764882, -0.1000000000000002554 ) ) ;
#925 = DIRECTION ( 'NONE',  ( -1.000000000000000000, 0.000000000000000000, -0.000000000000000000 ) ) ;
#926 = DIRECTION ( 'NONE',  ( -1.000000000000000000, -0.000000000000000000, -0.000000000000000000 ) ) ;
#927 = ORIENTED_EDGE ( 'NONE', *, *, #91, .T. ) ;
#928 = AXIS2_PLACEMENT_3D ( 'NONE', #892, #997, #608 ) ;
#929 = DIRECTION ( 'NONE',  ( 0.000000000000000000, -1.000000000000000000, 0.000000000000000000 ) ) ;
#930 = ORIENTED_EDGE ( 'NONE', *, *, #686, .T. ) ;
#931 = EDGE_CURVE ( 'NONE', #962, #294, #939, .T. ) ;
#932 = AXIS2_PLACEMENT_3D ( 'NONE', #311, #884, #409 ) ;
#933 = VECTOR ( 'NONE', #270, 1000.000000000000000 ) ;
#934 = LINE ( 'NONE', #462, #473 ) ;
#935 = EDGE_LOOP ( 'NONE', ( #662, #609, #1103, #1058, #241, #927, #1156, #1214, #142, #782, #633, #1067, #65, #218, #810, #1212, #33, #480, #470, #1098 ) ) ;
#936 = CARTESIAN_POINT ( 'NONE',  ( -0.0004760282609970785807, 4.327733521851894416, 2.000000000000000000 ) ) ;
#937 = ORIENTED_EDGE ( 'NONE', *, *, #219, .F. ) ;
#938 = LINE ( 'NONE', #87, #970 ) ;
#939 = LINE ( 'NONE', #1045, #180 ) ;
#940 = AXIS2_PLACEMENT_3D ( 'NONE', #599, #1080, #1090 ) ;
#941 = CARTESIAN_POINT ( 'NONE',  ( 23.76284665593176726, 14.60512789323294136, 5.000000000000000000 ) ) ;
#942 = EDGE_LOOP ( 'NONE', ( #464, #825, #667, #791 ) ) ;
#943 = DIRECTION ( 'NONE',  ( 0.000000000000000000, -1.000000000000000000, 0.000000000000000000 ) ) ;
#944 = CARTESIAN_POINT ( 'NONE',  ( 23.76284665593176726, 4.331477447866618924, 5.000000000000000000 ) ) ;
#945 = DIRECTION ( 'NONE',  ( -1.000000000000000000, 0.000000000000000000, 0.000000000000000000 ) ) ;
#946 = AXIS2_PLACEMENT_3D ( 'NONE', #996, #897, #331 ) ;
#947 = ORIENTED_EDGE ( 'NONE', *, *, #408, .F. ) ;
#948 = VECTOR ( 'NONE', #943, 1000.000000000000000 ) ;
#949 = EDGE_CURVE ( 'NONE', #719, #169, #839, .T. ) ;
#950 =( LENGTH_UNIT ( ) NAMED_UNIT ( * ) SI_UNIT ( .MILLI., .METRE. ) );
#951 = AXIS2_PLACEMENT_3D ( 'NONE', #824, #60, #1213 ) ;
#952 = LINE ( 'NONE', #1154, #315 ) ;
#953 = ORIENTED_EDGE ( 'NONE', *, *, #286, .F. ) ;
#954 = ADVANCED_FACE ( 'NONE', ( #552 ), #732, .T. ) ;
#955 = CARTESIAN_POINT ( 'NONE',  ( 4.959874314827438013, 3.968327729650614977, 0.000000000000000000 ) ) ;
#956 = ORIENTED_EDGE ( 'NONE', *, *, #321, .T. ) ;
#957 = ORIENTED_EDGE ( 'NONE', *, *, #389, .T. ) ;
#958 = ORIENTED_EDGE ( 'NONE', *, *, #321, .F. ) ;
#959 = CARTESIAN_POINT ( 'NONE',  ( 0.000000000000000000, 14.60512789323294136, 2.000000000000000000 ) ) ;
#960 = LINE ( 'NONE', #944, #81 ) ;
#961 = ORIENTED_EDGE ( 'NONE', *, *, #857, .F. ) ;
#962 = VERTEX_POINT ( 'NONE', #546 ) ;
#963 = EDGE_CURVE ( 'NONE', #1097, #744, #1227, .T. ) ;
#964 = CARTESIAN_POINT ( 'NONE',  ( 4.295687810014245933, 64.51002608338107791, 0.000000000000000000 ) ) ;
#965 = CARTESIAN_POINT ( 'NONE',  ( 55.57500000000000284, 23.16500000000000270, 5.000000000000000000 ) ) ;
#966 = VERTEX_POINT ( 'NONE', #632 ) ;
#967 = VECTOR ( 'NONE', #68, 1000.000000000000000 ) ;
#968 = ORIENTED_EDGE ( 'NONE', *, *, #808, .T. ) ;
#969 = EDGE_CURVE ( 'NONE', #864, #413, #371, .T. ) ;
#970 = VECTOR ( 'NONE', #344, 1000.000000000000000 ) ;
#971 = CARTESIAN_POINT ( 'NONE',  ( 43.90927744908574226, 14.60512789323294136, 5.000000000000000000 ) ) ;
#972 = DIRECTION ( 'NONE',  ( -1.000000000000000000, 0.000000000000000000, 0.000000000000000000 ) ) ;
#973 = AXIS2_PLACEMENT_3D ( 'NONE', #818, #893, #624 ) ;
#974 = ORIENTED_EDGE ( 'NONE', *, *, #212, .F. ) ;
#975 = ORIENTED_EDGE ( 'NONE', *, *, #408, .T. ) ;
#976 = FILL_AREA_STYLE_COLOUR ( '', #211 ) ;
#977 = CARTESIAN_POINT ( 'NONE',  ( 34.97599999999999909, 67.89399999999999125, 5.000000000000000000 ) ) ;
#978 = DIRECTION ( 'NONE',  ( 0.000000000000000000, 1.000000000000000000, 0.000000000000000000 ) ) ;
#979 = ORIENTED_EDGE ( 'NONE', *, *, #434, .F. ) ;
#980 = VERTEX_POINT ( 'NONE', #74 ) ;
#981 = VECTOR ( 'NONE', #122, 1000.000000000000000 ) ;
#982 = CARTESIAN_POINT ( 'NONE',  ( 33.63530561777929506, 64.55323614440233371, 0.000000000000000000 ) ) ;
#983 = EDGE_CURVE ( 'NONE', #966, #445, #605, .T. ) ;
#984 = CARTESIAN_POINT ( 'NONE',  ( 4.295687810014245933, 14.60512789323294136, 0.000000000000000000 ) ) ;
#985 = DIRECTION ( 'NONE',  ( 0.000000000000000000, 0.000000000000000000, -1.000000000000000000 ) ) ;
#986 = DIRECTION ( 'NONE',  ( 0.000000000000000000, 0.000000000000000000, -1.000000000000000000 ) ) ;
#987 = EDGE_LOOP ( 'NONE', ( #961, #98, #682, #314 ) ) ;
#988 = AXIS2_PLACEMENT_3D ( 'NONE', #1190, #1210, #260 ) ;
#989 = CARTESIAN_POINT ( 'NONE',  ( 4.295687810014245933, 64.51002608338107791, 5.000000000000000000 ) ) ;
#990 = CARTESIAN_POINT ( 'NONE',  ( 36.22600000000000620, 67.89399999999999125, 5.000000000000000000 ) ) ;
#991 = CARTESIAN_POINT ( 'NONE',  ( 0.7570000000000001172, 11.75999999999999979, 2.000000000000000000 ) ) ;
#992 = B_SPLINE_CURVE_WITH_KNOTS ( 'NONE', 3,
 ( #918, #450, #911, #629 ),
 .UNSPECIFIED., .F., .F.,
 ( 4, 4 ),
 ( 0.000000000000000000, 1.000000000000000000 ),
 .UNSPECIFIED. ) ;
#993 = DIRECTION ( 'NONE',  ( 0.000000000000000000, 0.000000000000000000, -1.000000000000000000 ) ) ;
#994 = AXIS2_PLACEMENT_3D ( 'NONE', #843, #263, #452 ) ;
#995 = CARTESIAN_POINT ( 'NONE',  ( 51.81809716634510465, 72.97032663101765593, -0.000000000000000000 ) ) ;
#996 = CARTESIAN_POINT ( 'NONE',  ( 55.57500000000000284, 23.16500000000000270, 2.000000000000000000 ) ) ;
#997 = DIRECTION ( 'NONE',  ( -0.0001099948173134468520, 0.9999999939505701541, 0.000000000000000000 ) ) ;
#998 = ORIENTED_EDGE ( 'NONE', *, *, #570, .F. ) ;
#999 = DIRECTION ( 'NONE',  ( 0.000000000000000000, -1.000000000000000000, 0.000000000000000000 ) ) ;
#1000 = DIRECTION ( 'NONE',  ( -1.000000000000000000, 0.000000000000000000, -0.000000000000000000 ) ) ;
#1001 = AXIS2_PLACEMENT_3D ( 'NONE', #955, #320, #1189 ) ;
#1002 = CARTESIAN_POINT ( 'NONE',  ( 50.62487521466800899, 72.97032663101764172, 0.6333333333333334147 ) ) ;
#1003 = EDGE_CURVE ( 'NONE', #657, #962, #187, .T. ) ;
#1004 = DIRECTION ( 'NONE',  ( -0.0001042891155878002536, -0.9999999945618901487, 0.000000000000000000 ) ) ;
#1005 = ORIENTED_EDGE ( 'NONE', *, *, #1051, .F. ) ;
#1006 = ORIENTED_EDGE ( 'NONE', *, *, #47, .T. ) ;
#1007 = LINE ( 'NONE', #513, #852 ) ;
#1008 = VERTEX_POINT ( 'NONE', #198 ) ;
#1009 = CARTESIAN_POINT ( 'NONE',  ( 52.97185187195825762, 72.74094704217067431, 2.000000000000000000 ) ) ;
#1010 = ORIENTED_EDGE ( 'NONE', *, *, #361, .F. ) ;
#1011 = AXIS2_PLACEMENT_3D ( 'NONE', #1053, #188, #945 ) ;
#1012 = AXIS2_PLACEMENT_3D ( 'NONE', #971, #1233, #375 ) ;
#1013 = DIRECTION ( 'NONE',  ( 0.000000000000000000, 0.000000000000000000, -1.000000000000000000 ) ) ;
#1014 = VERTEX_POINT ( 'NONE', #757 ) ;
#1015 = VERTEX_POINT ( 'NONE', #563 ) ;
#1016 = PLANE ( 'NONE',  #1018 ) ;
#1017 = EDGE_LOOP ( 'NONE', ( #975, #617 ) ) ;
#1018 = AXIS2_PLACEMENT_3D ( 'NONE', #888, #329, #610 ) ;
#1019 = CARTESIAN_POINT ( 'NONE',  ( 59.62487521466801610, 65.16354858264446648, 1.999999999999999556 ) ) ;
#1020 =( NAMED_UNIT ( * ) PLANE_ANGLE_UNIT ( ) SI_UNIT ( $, .RADIAN. ) );
#1021 = EDGE_CURVE ( 'NONE', #299, #269, #960, .T. ) ;
#1022 = DIRECTION ( 'NONE',  ( -0.000000000000000000, -0.000000000000000000, 1.000000000000000000 ) ) ;
#1023 = CARTESIAN_POINT ( 'NONE',  ( 43.90927744908574226, 14.60512789323294136, 5.000000000000000000 ) ) ;
#1024 = ORIENTED_EDGE ( 'NONE', *, *, #6, .F. ) ;
#1025 = DIRECTION ( 'NONE',  ( -0.000000000000000000, -1.000000000000000000, -0.000000000000000000 ) ) ;
#1026 = EDGE_CURVE ( 'NONE', #980, #310, #677, .T. ) ;
#1027 = CARTESIAN_POINT ( 'NONE',  ( 59.62487521466801610, 63.97032663101764882, 0.6333333333333334147 ) ) ;
#1028 = CARTESIAN_POINT ( 'NONE',  ( 4.959874314827438013, 3.968327729650614977, 2.000000000000000000 ) ) ;
#1029 = CARTESIAN_POINT ( 'NONE',  ( 14.31641524791677433, 14.60512789323294136, 5.000000000000000000 ) ) ;
#1030 = EDGE_CURVE ( 'NONE', #431, #1014, #231, .T. ) ;
#1031 = CARTESIAN_POINT ( 'NONE',  ( 50.62487521466800899, 72.97032663101764172, 2.000000000000000000 ) ) ;
#1032 = VERTEX_POINT ( 'NONE', #1149 ) ;
#1033 = UNCERTAINTY_MEASURE_WITH_UNIT (LENGTH_MEASURE( 1.000000000000000082E-05 ), #503, 'distance_accuracy_value', 'NONE');
#1034 = AXIS2_PLACEMENT_3D ( 'NONE', #58, #1186, #227 ) ;
#1035 = FACE_OUTER_BOUND ( 'NONE', #845, .T. ) ;
#1036 = DIRECTION ( 'NONE',  ( 0.000000000000000000, -0.000000000000000000, 1.000000000000000000 ) ) ;
#1037 = EDGE_LOOP ( 'NONE', ( #957, #565, #837, #406 ) ) ;
#1038 = AXIS2_PLACEMENT_3D ( 'NONE', #284, #1068, #7 ) ;
#1039 = FACE_OUTER_BOUND ( 'NONE', #654, .T. ) ;
#1040 = ORIENTED_EDGE ( 'NONE', *, *, #41, .F. ) ;
#1041 = EDGE_CURVE ( 'NONE', #568, #269, #475, .T. ) ;
#1042 = AXIS2_PLACEMENT_3D ( 'NONE', #1099, #724, #718 ) ;
#1043 = FACE_OUTER_BOUND ( 'NONE', #147, .T. ) ;
#1044 = ADVANCED_FACE ( 'NONE', ( #681 ), #302, .F. ) ;
#1045 = CARTESIAN_POINT ( 'NONE',  ( 4.295687810014245933, 14.60512789323294136, 5.000000000000000000 ) ) ;
#1046 = CARTESIAN_POINT ( 'NONE',  ( 59.61861758310134718, 3.967597705841499511, 2.000000000000000000 ) ) ;
#1047 = VERTEX_POINT ( 'NONE', #847 ) ;
#1048 = FACE_OUTER_BOUND ( 'NONE', #332, .T. ) ;
#1049 = VERTEX_POINT ( 'NONE', #672 ) ;
#1050 = DIRECTION ( 'NONE',  ( 0.000000000000000000, 0.000000000000000000, -1.000000000000000000 ) ) ;
#1051 = EDGE_CURVE ( 'NONE', #765, #840, #583, .T. ) ;
#1052 = AXIS2_PLACEMENT_3D ( 'NONE', #203, #1050, #1057 ) ;
#1053 = CARTESIAN_POINT ( 'NONE',  ( 4.959874314827438901, 65.97032663101764172, 0.000000000000000000 ) ) ;
#1054 = ADVANCED_FACE ( 'NONE', ( #855 ), #291, .T. ) ;
#1055 = CARTESIAN_POINT ( 'NONE',  ( 34.97599999999999909, 67.89399999999999125, 5.000000000000000000 ) ) ;
#1056 = EDGE_CURVE ( 'NONE', #477, #793, #1143, .T. ) ;
#1057 = DIRECTION ( 'NONE',  ( -1.000000000000000000, 0.000000000000000000, 0.000000000000000000 ) ) ;
#1058 = ORIENTED_EDGE ( 'NONE', *, *, #639, .T. ) ;
#1059 = AXIS2_PLACEMENT_3D ( 'NONE', #293, #54, #282 ) ;
#1060 = EDGE_LOOP ( 'NONE', ( #1199, #106 ) ) ;
#1061 = ORIENTED_EDGE ( 'NONE', *, *, #841, .T. ) ;
#1062 = VECTOR ( 'NONE', #20, 1000.000000000000000 ) ;
#1063 = FACE_OUTER_BOUND ( 'NONE', #61, .T. ) ;
#1064 = FACE_OUTER_BOUND ( 'NONE', #120, .T. ) ;
#1065 = ADVANCED_FACE ( 'NONE', ( #1064 ), #479, .F. ) ;
#1066 = ORIENTED_EDGE ( 'NONE', *, *, #173, .F. ) ;
#1067 = ORIENTED_EDGE ( 'NONE', *, *, #693, .T. ) ;
#1068 = DIRECTION ( 'NONE',  ( 0.000000000000000000, -1.000000000000000000, 0.000000000000000000 ) ) ;
#1069 = CARTESIAN_POINT ( 'NONE',  ( 34.97599999999999909, 67.89399999999999125, 2.000000000000000000 ) ) ;
#1070 = ORIENTED_EDGE ( 'NONE', *, *, #309, .T. ) ;
#1071 = EDGE_CURVE ( 'NONE', #73, #1145, #3, .T. ) ;
#1072 = AXIS2_PLACEMENT_3D ( 'NONE', #977, #139, #230 ) ;
#1073 = ORIENTED_EDGE ( 'NONE', *, *, #91, .F. ) ;
#1074 =( BOUNDED_SURFACE ( )  B_SPLINE_SURFACE ( 2, 3, ( 
 ( #238, #889, #1002, #25 ),
 ( #634, #859, #56, #265 ),
 ( #357, #271, #1027, #924 ) ),
 .UNSPECIFIED., .F., .F., .T. ) 
 B_SPLINE_SURFACE_WITH_KNOTS ( ( 3, 3 ),
 ( 4, 4 ),
 ( 0.000000000000000000, 1.000000000000000000 ),
 ( -0.0001000000000000000048, 0.002099999999999999870 ),
 .UNSPECIFIED. ) 
 GEOMETRIC_REPRESENTATION_ITEM ( )  RATIONAL_B_SPLINE_SURFACE ( (
 ( 1.000000000000000000, 1.000000000000000000, 1.000000000000000000, 1.000000000000000000),
 ( 0.7071067811865474617, 0.7071067811865474617, 0.7071067811865474617, 0.7071067811865474617),
 ( 1.000000000000000000, 1.000000000000000000, 1.000000000000000000, 1.000000000000000000) ) ) 
 REPRESENTATION_ITEM ( '' )  SURFACE ( )  );
#1075 = DIRECTION ( 'NONE',  ( 1.000000000000000000, 0.000000000000000000, 0.000000000000000000 ) ) ;
#1076 = LINE ( 'NONE', #208, #615 ) ;
#1077 = VERTEX_POINT ( 'NONE', #9 ) ;
#1078 = AXIS2_PLACEMENT_3D ( 'NONE', #476, #184, #856 ) ;
#1079 = MECHANICAL_DESIGN_GEOMETRIC_PRESENTATION_REPRESENTATION (  '', ( #903 ), #1177 ) ;
#1080 = DIRECTION ( 'NONE',  ( -0.000000000000000000, 1.000000000000000000, 0.000000000000000000 ) ) ;
#1081 = CARTESIAN_POINT ( 'NONE',  ( 24.15654994109765852, 54.23637563801475636, 2.000000000000000000 ) ) ;
#1082 = EDGE_LOOP ( 'NONE', ( #956, #493, #644, #308 ) ) ;
#1083 = FACE_OUTER_BOUND ( 'NONE', #1037, .T. ) ;
#1084 = DIRECTION ( 'NONE',  ( -1.000000000000000000, 0.000000000000000000, -0.000000000000000000 ) ) ;
#1085 = CARTESIAN_POINT ( 'NONE',  ( 23.76284665593176726, 4.331477447866618924, 2.000000000000000000 ) ) ;
#1086 = VERTEX_POINT ( 'NONE', #491 ) ;
#1087 = EDGE_CURVE ( 'NONE', #962, #980, #382, .T. ) ;
#1088 = LINE ( 'NONE', #812, #337 ) ;
#1089 = DIRECTION ( 'NONE',  ( 0.000000000000000000, -0.000000000000000000, 1.000000000000000000 ) ) ;
#1090 = DIRECTION ( 'NONE',  ( 0.000000000000000000, -0.000000000000000000, 1.000000000000000000 ) ) ;
#1091 = DIRECTION ( 'NONE',  ( 1.000000000000000000, 0.000000000000000000, 0.000000000000000000 ) ) ;
#1092 = CARTESIAN_POINT ( 'NONE',  ( 13.88257810979120777, 54.23637563801475636, 0.000000000000000000 ) ) ;
#1093 = CARTESIAN_POINT ( 'NONE',  ( 4.959874314827438901, 65.97032663101764172, 2.000000000000000000 ) ) ;
#1094 = VECTOR ( 'NONE', #1108, 1000.000000000000000 ) ;
#1095 = DIRECTION ( 'NONE',  ( 6.754782494982536027E-16, 1.000000000000000000, -0.000000000000000000 ) ) ;
#1096 = CARTESIAN_POINT ( 'NONE',  ( 33.63530561777929506, 0.000000000000000000, 2.000000000000000000 ) ) ;
#1097 = VERTEX_POINT ( 'NONE', #569 ) ;
#1098 = ORIENTED_EDGE ( 'NONE', *, *, #1196, .T. ) ;
#1099 = CARTESIAN_POINT ( 'NONE',  ( 59.61861758181068183, -3.031672270349377918, 2.000000000000000000 ) ) ;
#1100 = AXIS2_PLACEMENT_3D ( 'NONE', #831, #745, #362 ) ;
#1101 = CARTESIAN_POINT ( 'NONE',  ( 43.90927744908574226, 0.000000000000000000, 2.000000000000000000 ) ) ;
#1102 = ORIENTED_EDGE ( 'NONE', *, *, #530, .T. ) ;
#1103 = ORIENTED_EDGE ( 'NONE', *, *, #258, .T. ) ;
#1104 = FACE_OUTER_BOUND ( 'NONE', #659, .T. ) ;
#1105 = ORIENTED_EDGE ( 'NONE', *, *, #502, .T. ) ;
#1106 = CARTESIAN_POINT ( 'NONE',  ( 55.14509533400212149, 71.77668111769546044, 1.999999999999999556 ) ) ;
#1107 = VECTOR ( 'NONE', #297, 1000.000000000000000 ) ;
#1108 = DIRECTION ( 'NONE',  ( 0.000000000000000000, 0.000000000000000000, -1.000000000000000000 ) ) ;
#1109 = ORIENTED_EDGE ( 'NONE', *, *, #1235, .F. ) ;
#1110 = ORIENTED_EDGE ( 'NONE', *, *, #983, .T. ) ;
#1111 = CARTESIAN_POINT ( 'NONE',  ( 4.959874314827438013, -3.031672270349385023, 2.000000000000000000 ) ) ;
#1112 = CARTESIAN_POINT ( 'NONE',  ( 0.000000000000000000, 54.27958569903599795, 2.000000000000000000 ) ) ;
#1113 = ADVANCED_FACE ( 'NONE', ( #1168 ), #866, .T. ) ;
#1114 = CIRCLE ( 'NONE', #1059, 1.250000000000001110 ) ;
#1115 = VECTOR ( 'NONE', #575, 1000.000000000000000 ) ;
#1116 = CARTESIAN_POINT ( 'NONE',  ( 34.03681848723820735, 0.000000000000000000, 2.000000000000000000 ) ) ;
#1117 = LINE ( 'NONE', #531, #455 ) ;
#1118 = ORIENTED_EDGE ( 'NONE', *, *, #1119, .T. ) ;
#1119 = EDGE_CURVE ( 'NONE', #765, #771, #1076, .T. ) ;
#1120 = CARTESIAN_POINT ( 'NONE',  ( 4.959874314827438901, 72.97032663101764172, 0.000000000000000000 ) ) ;
#1121 = VERTEX_POINT ( 'NONE', #754 ) ;
#1122 = CARTESIAN_POINT ( 'NONE',  ( 33.63530561777929506, 54.27958569903599795, 0.000000000000000000 ) ) ;
#1123 = LINE ( 'NONE', #268, #566 ) ;
#1124 = ORIENTED_EDGE ( 'NONE', *, *, #34, .F. ) ;
#1125 = CARTESIAN_POINT ( 'NONE',  ( 24.15654994109765852, 64.51002608338107791, 2.000000000000000000 ) ) ;
#1126 = ORIENTED_EDGE ( 'NONE', *, *, #1056, .F. ) ;
#1127 = EDGE_CURVE ( 'NONE', #90, #966, #287, .T. ) ;
#1128 = AXIS2_PLACEMENT_3D ( 'NONE', #132, #1084, #516 ) ;
#1129 = CARTESIAN_POINT ( 'NONE',  ( 33.72599999999999199, 67.89399999999999125, 2.000000000000000000 ) ) ;
#1130 = PLANE ( 'NONE',  #646 ) ;
#1131 = EDGE_CURVE ( 'NONE', #346, #708, #465, .T. ) ;
#1132 = DIRECTION ( 'NONE',  ( 1.000000000000000000, -0.000000000000000000, 0.000000000000000000 ) ) ;
#1133 = ORIENTED_EDGE ( 'NONE', *, *, #47, .F. ) ;
#1134 = VECTOR ( 'NONE', #1204, 1000.000000000000000 ) ;
#1135 = CARTESIAN_POINT ( 'NONE',  ( 3.257000000000000561, 11.75999999999999979, 0.000000000000000000 ) ) ;
#1136 = VECTOR ( 'NONE', #483, 1000.000000000000114 ) ;
#1137 = CARTESIAN_POINT ( 'NONE',  ( 24.15654994109765852, 54.23637563801475636, 0.000000000000000000 ) ) ;
#1138 = CARTESIAN_POINT ( 'NONE',  ( 52.61861762117906238, -3.031672270349378806, 2.000000000000000000 ) ) ;
#1139 = ORIENTED_EDGE ( 'NONE', *, *, #83, .F. ) ;
#1140 = EDGE_CURVE ( 'NONE', #304, #534, #675, .T. ) ;
#1141 = FACE_OUTER_BOUND ( 'NONE', #1172, .T. ) ;
#1142 = ORIENTED_EDGE ( 'NONE', *, *, #137, .F. ) ;
#1143 = LINE ( 'NONE', #400, #779 ) ;
#1144 = LINE ( 'NONE', #449, #16 ) ;
#1145 = VERTEX_POINT ( 'NONE', #885 ) ;
#1146 = EDGE_LOOP ( 'NONE', ( #733, #937 ) ) ;
#1147 = ADVANCED_FACE ( 'NONE', ( #330 ), #405, .T. ) ;
#1148 = CARTESIAN_POINT ( 'NONE',  ( 14.31641524791677433, 0.000000000000000000, 2.000000000000000000 ) ) ;
#1149 = CARTESIAN_POINT ( 'NONE',  ( 59.61861758310134718, 3.967597705841499511, 0.000000000000000000 ) ) ;
#1150 = CARTESIAN_POINT ( 'NONE',  ( 54.62866091589351214, 72.05280827562964419, 1.999999999999999556 ) ) ;
#1151 = B_SPLINE_CURVE_WITH_KNOTS ( 'NONE', 3,
 ( #901, #1019, #159, #1216, #89, #1238, #656, #1106, #1150, #1009, #4, #255 ),
 .UNSPECIFIED., .F., .F.,
 ( 4, 2, 2, 2, 2, 4 ),
 ( 0.000000000000000000, 0.2500000000000003331, 0.5000000000000006661, 0.6250000000000008882, 0.7500000000000009992, 1.000000000000000000 ),
 .UNSPECIFIED. ) ;
#1152 = EDGE_LOOP ( 'NONE', ( #512, #262, #509, #396 ) ) ;
#1153 = EDGE_CURVE ( 'NONE', #1180, #1049, #612, .T. ) ;
#1154 = CARTESIAN_POINT ( 'NONE',  ( 14.31641524791677433, 14.60512789323294136, 0.000000000000000000 ) ) ;
#1155 = DIRECTION ( 'NONE',  ( 0.000000000000000000, 0.000000000000000000, -1.000000000000000000 ) ) ;
#1156 = ORIENTED_EDGE ( 'NONE', *, *, #379, .T. ) ;
#1157 = AXIS2_PLACEMENT_3D ( 'NONE', #280, #925, #456 ) ;
#1158 = ORIENTED_EDGE ( 'NONE', *, *, #555, .T. ) ;
#1159 = ADVANCED_FACE ( 'NONE', ( #781 ), #220, .F. ) ;
#1160 = ORIENTED_EDGE ( 'NONE', *, *, #1181, .F. ) ;
#1161 = EDGE_CURVE ( 'NONE', #316, #765, #225, .T. ) ;
#1162 = AXIS2_PLACEMENT_3D ( 'NONE', #281, #929, #1222 ) ;
#1163 = CARTESIAN_POINT ( 'NONE',  ( 59.62487521466801610, 63.97032663101764882, 1.333333333333333925 ) ) ;
#1164 = CARTESIAN_POINT ( 'NONE',  ( 56.82500000000000284, 23.16500000000000270, 5.000000000000000000 ) ) ;
#1165 = ORIENTED_EDGE ( 'NONE', *, *, #820, .F. ) ;
#1166 = ORIENTED_EDGE ( 'NONE', *, *, #212, .T. ) ;
#1167 = CARTESIAN_POINT ( 'NONE',  ( 59.62487521466801610, 63.97032663267740560, 0.000000000000000000 ) ) ;
#1168 = FACE_OUTER_BOUND ( 'NONE', #580, .T. ) ;
#1169 = ORIENTED_EDGE ( 'NONE', *, *, #969, .T. ) ;
#1170 = CARTESIAN_POINT ( 'NONE',  ( 14.31641524791677433, 4.331477447866618924, 5.000000000000000000 ) ) ;
#1171 = LINE ( 'NONE', #982, #981 ) ;
#1172 = EDGE_LOOP ( 'NONE', ( #545, #1202, #798, #439 ) ) ;
#1173 = VECTOR ( 'NONE', #826, 1000.000000000000000 ) ;
#1174 = APPLICATION_CONTEXT ( 'automotive_design' ) ;
#1175 = EDGE_CURVE ( 'NONE', #497, #1077, #1171, .T. ) ;
#1176 = CARTESIAN_POINT ( 'NONE',  ( 43.90927744908573516, 4.332563367193131398, 0.000000000000000000 ) ) ;
#1177 =( GEOMETRIC_REPRESENTATION_CONTEXT ( 3 ) GLOBAL_UNCERTAINTY_ASSIGNED_CONTEXT ( ( #1033 ) ) GLOBAL_UNIT_ASSIGNED_CONTEXT ( ( #503, #403, #685 ) ) REPRESENTATION_CONTEXT ( 'NONE', 'WORKASPACE' ) );
#1178 = DIRECTION ( 'NONE',  ( 1.000000000000000000, 0.000000000000000000, 0.000000000000000000 ) ) ;
#1179 = ORIENTED_EDGE ( 'NONE', *, *, #594, .F. ) ;
#1180 = VERTEX_POINT ( 'NONE', #1176 ) ;
#1181 = EDGE_CURVE ( 'NONE', #657, #621, #498, .T. ) ;
#1182 = ADVANCED_FACE ( 'NONE', ( #417 ), #31, .T. ) ;
#1183 = SURFACE_STYLE_FILL_AREA ( #24 ) ;
#1184 = CARTESIAN_POINT ( 'NONE',  ( 59.62487521466803031, 65.16679794830704964, -0.000000000000000000 ) ) ;
#1185 = DIRECTION ( 'NONE',  ( 0.000000000000000000, 0.000000000000000000, 1.000000000000000000 ) ) ;
#1186 = DIRECTION ( 'NONE',  ( -0.000000000000000000, -0.000000000000000000, 1.000000000000000000 ) ) ;
#1187 = CARTESIAN_POINT ( 'NONE',  ( 13.88257810979120777, 64.51002608338107791, 2.000000000000000000 ) ) ;
#1188 = EDGE_CURVE ( 'NONE', #167, #461, #424, .T. ) ;
#1189 = DIRECTION ( 'NONE',  ( -1.000000000000000000, 0.000000000000000000, 0.000000000000000000 ) ) ;
#1190 = CARTESIAN_POINT ( 'NONE',  ( 0.000000000000000000, 0.000000000000000000, 2.000000000000000000 ) ) ;
#1191 = EDGE_LOOP ( 'NONE', ( #1061, #850, #519, #234, #514, #393, #1166, #217 ) ) ;
#1192 = DIRECTION ( 'NONE',  ( 0.000000000000000000, 0.000000000000000000, -1.000000000000000000 ) ) ;
#1193 = ORIENTED_EDGE ( 'NONE', *, *, #923, .F. ) ;
#1194 = AXIS2_PLACEMENT_3D ( 'NONE', #1170, #214, #1089 ) ;
#1195 = DIRECTION ( 'NONE',  ( -1.000000000000000000, 0.000000000000000000, 0.000000000000000000 ) ) ;
#1196 = EDGE_CURVE ( 'NONE', #771, #715, #338, .T. ) ;
#1197 = CARTESIAN_POINT ( 'NONE',  ( 53.42468767129887652, 0.000000000000000000, 2.000000000000000000 ) ) ;
#1198 = ORIENTED_EDGE ( 'NONE', *, *, #949, .F. ) ;
#1199 = ORIENTED_EDGE ( 'NONE', *, *, #1030, .F. ) ;
#1200 = VECTOR ( 'NONE', #986, 1000.000000000000000 ) ;
#1201 = CARTESIAN_POINT ( 'NONE',  ( 54.32499999999999574, 23.16500000000000270, 5.000000000000000000 ) ) ;
#1202 = ORIENTED_EDGE ( 'NONE', *, *, #1021, .T. ) ;
#1203 = CARTESIAN_POINT ( 'NONE',  ( 14.31641524791677433, 4.331477447866618924, 2.000000000000000000 ) ) ;
#1204 = DIRECTION ( 'NONE',  ( 0.000000000000000000, 1.000000000000000000, 0.000000000000000000 ) ) ;
#1205 = DIRECTION ( 'NONE',  ( 0.000000000000000000, 0.000000000000000000, -1.000000000000000000 ) ) ;
#1206 = ORIENTED_EDGE ( 'NONE', *, *, #651, .F. ) ;
#1207 = PLANE ( 'NONE',  #951 ) ;
#1208 = LINE ( 'NONE', #1138, #967 ) ;
#1209 = VECTOR ( 'NONE', #1195, 1000.000000000000000 ) ;
#1210 = DIRECTION ( 'NONE',  ( 0.000000000000000000, 0.000000000000000000, -1.000000000000000000 ) ) ;
#1211 = CARTESIAN_POINT ( 'NONE',  ( 43.90927744908574226, 14.60512789323294136, 5.000000000000000000 ) ) ;
#1212 = ORIENTED_EDGE ( 'NONE', *, *, #1175, .T. ) ;
#1213 = DIRECTION ( 'NONE',  ( 0.000000000000000000, 0.000000000000000000, -1.000000000000000000 ) ) ;
#1214 = ORIENTED_EDGE ( 'NONE', *, *, #170, .T. ) ;
#1215 = ADVANCED_FACE ( 'NONE', ( #48, #595, #504, #429, #806 ), #495, .T. ) ;
#1216 = CARTESIAN_POINT ( 'NONE',  ( 58.48376892740926536, 68.51566409437234029, 2.000000000000000000 ) ) ;
#1217 = VECTOR ( 'NONE', #322, 1000.000000000000000 ) ;
#1218 = APPLICATION_PROTOCOL_DEFINITION ( 'draft international standard', 'automotive_design', 1998, #1174 ) ;
#1219 = LINE ( 'NONE', #846, #279 ) ;
#1220 = CARTESIAN_POINT ( 'NONE',  ( -2.040125685172561099, 65.97032663101764172, 2.000000000000000000 ) ) ;
#1221 = ORIENTED_EDGE ( 'NONE', *, *, #983, .F. ) ;
#1222 = DIRECTION ( 'NONE',  ( 0.000000000000000000, -0.000000000000000000, -1.000000000000000000 ) ) ;
#1223 = ORIENTED_EDGE ( 'NONE', *, *, #502, .F. ) ;
#1224 = VECTOR ( 'NONE', #79, 1000.000000000000000 ) ;
#1225 = DIRECTION ( 'NONE',  ( 0.000000000000000000, 0.000000000000000000, -1.000000000000000000 ) ) ;
#1226 = FACE_OUTER_BOUND ( 'NONE', #195, .T. ) ;
#1227 = LINE ( 'NONE', #88, #360 ) ;
#1228 = CARTESIAN_POINT ( 'NONE',  ( 52.61861762116811292, 3.968327729650625191, 0.000000000000000000 ) ) ;
#1229 = DIRECTION ( 'NONE',  ( 6.754782494982536027E-16, 1.000000000000000000, 0.000000000000000000 ) ) ;
#1230 = ORIENTED_EDGE ( 'NONE', *, *, #792, .F. ) ;
#1231 = ADVANCED_FACE ( 'NONE', ( #510 ), #1074, .T. ) ;
#1232 = VECTOR ( 'NONE', #1205, 1000.000000000000000 ) ;
#1233 = DIRECTION ( 'NONE',  ( -1.000000000000000000, 6.754782494982536027E-16, 0.000000000000000000 ) ) ;
#1234 = ORIENTED_EDGE ( 'NONE', *, *, #219, .T. ) ;
#1235 = EDGE_CURVE ( 'NONE', #169, #497, #619, .T. ) ;
#1236 = DIRECTION ( 'NONE',  ( -1.000000000000000000, 0.000000000000000000, 0.000000000000000000 ) ) ;
#1237 = AXIS2_PLACEMENT_3D ( 'NONE', #642, #746, #532 ) ;
#1238 = CARTESIAN_POINT ( 'NONE',  ( 56.57007824253705763, 70.75340931055421834, 2.000000000000000000 ) ) ;
#1239 =( GEOMETRIC_REPRESENTATION_CONTEXT ( 3 ) GLOBAL_UNCERTAINTY_ASSIGNED_CONTEXT ( ( #649 ) ) GLOBAL_UNIT_ASSIGNED_CONTEXT ( ( #950, #1020, #726 ) ) REPRESENTATION_CONTEXT ( 'NONE', 'WORKASPACE' ) );
ENDSEC;
END-ISO-10303-21;
