ISO-10303-21;
HEADER;
FILE_DESCRIPTION (( 'STEP AP214' ),
    '1' );
FILE_NAME ('mag_support_P.STEP',
    '2024-05-18T07:49:00',
    ( '' ),
    ( '' ),
    'SwSTEP 2.0',
    'SolidWorks 2023',
    '' );
FILE_SCHEMA (( 'AUTOMOTIVE_DESIGN' ));
ENDSEC;

DATA;
#1 = CARTESIAN_POINT ( 'NONE',  ( -3.828430242851232901, 2.760334413162493394, 11.24487999942863681 ) ) ;
#2 = VERTEX_POINT ( 'NONE', #330 ) ;
#3 = EDGE_CURVE ( 'NONE', #653, #720, #536, .T. ) ;
#4 = DIRECTION ( 'NONE',  ( 0.000000000000000000, 0.000000000000000000, 1.000000000000000000 ) ) ;
#5 = CARTESIAN_POINT ( 'NONE',  ( -16.68011470947362795, 16.88988523300021072, 11.24487999942863681 ) ) ;
#6 = VERTEX_POINT ( 'NONE', #298 ) ;
#7 = CARTESIAN_POINT ( 'NONE',  ( -6.178430242851232990, 2.760334413162493394, 16.24487999942863681 ) ) ;
#8 = DIRECTION ( 'NONE',  ( 0.6827935378568266156, 0.7306113773142041135, 0.000000000000000000 ) ) ;
#9 =( NAMED_UNIT ( * ) SI_UNIT ( $, .STERADIAN. ) SOLID_ANGLE_UNIT ( ) );
#10 = VECTOR ( 'NONE', #371, 1000.000000000000000 ) ;
#11 = AXIS2_PLACEMENT_3D ( 'NONE', #494, #291, #8 ) ;
#12 = VERTEX_POINT ( 'NONE', #831 ) ;
#13 = AXIS2_PLACEMENT_3D ( 'NONE', #85, #4, #277 ) ;
#14 = CYLINDRICAL_SURFACE ( 'NONE', #281, 13.00000000000000178 ) ;
#15 =( GEOMETRIC_REPRESENTATION_CONTEXT ( 3 ) GLOBAL_UNCERTAINTY_ASSIGNED_CONTEXT ( ( #625 ) ) GLOBAL_UNIT_ASSIGNED_CONTEXT ( ( #818, #402, #9 ) ) REPRESENTATION_CONTEXT ( 'NONE', 'WORKASPACE' ) );
#16 = LINE ( 'NONE', #284, #476 ) ;
#17 = VERTEX_POINT ( 'NONE', #227 ) ;
#18 = CARTESIAN_POINT ( 'NONE',  ( -3.828430242851232901, 2.760334413162493394, 9.044879999428637518 ) ) ;
#19 = LINE ( 'NONE', #694, #852 ) ;
#20 = CARTESIAN_POINT ( 'NONE',  ( -21.35557321424398225, -13.26657293854943021, 11.24487999942863681 ) ) ;
#21 = MANIFOLD_SOLID_BREP ( 'Boss-Extrude1[1]', #201 ) ;
#22 = CARTESIAN_POINT ( 'NONE',  ( -21.35557321424399291, -13.26657293854942665, 47.22444312810840472 ) ) ;
#23 = EDGE_CURVE ( 'NONE', #269, #605, #462, .T. ) ;
#24 = DIRECTION ( 'NONE',  ( 0.000000000000000000, 0.000000000000000000, 1.000000000000000000 ) ) ;
#25 = COLOUR_RGB ( '',0.7921568627450980005, 0.8196078431372548767, 0.9333333333333333481 ) ;
#26 = EDGE_CURVE ( 'NONE', #596, #855, #798, .T. ) ;
#27 = CARTESIAN_POINT ( 'NONE',  ( 10.30112057698648265, -10.09135005345989100, 11.24487999942863681 ) ) ;
#28 = PRODUCT_DEFINITION_CONTEXT ( 'detailed design', #44, 'design' ) ;
#29 = AXIS2_PLACEMENT_3D ( 'NONE', #273, #207, #554 ) ;
#30 = ADVANCED_FACE ( 'NONE', ( #779 ), #506, .F. ) ;
#31 = SURFACE_STYLE_USAGE ( .BOTH. , #234 ) ;
#32 = FACE_BOUND ( 'NONE', #106, .T. ) ;
#33 = ORIENTED_EDGE ( 'NONE', *, *, #247, .T. ) ;
#34 = AXIS2_PLACEMENT_3D ( 'NONE', #401, #442, #459 ) ;
#35 = LINE ( 'NONE', #101, #491 ) ;
#36 = AXIS2_PLACEMENT_3D ( 'NONE', #419, #617, #686 ) ;
#37 = ORIENTED_EDGE ( 'NONE', *, *, #563, .F. ) ;
#38 = AXIS2_PLACEMENT_3D ( 'NONE', #464, #652, #64 ) ;
#39 = EDGE_CURVE ( 'NONE', #98, #337, #532, .T. ) ;
#40 = CARTESIAN_POINT ( 'NONE',  ( -3.828430242851232901, 2.760334413162493394, 11.24487999942863681 ) ) ;
#41 = ORIENTED_EDGE ( 'NONE', *, *, #362, .T. ) ;
#42 = FACE_OUTER_BOUND ( 'NONE', #849, .T. ) ;
#43 = EDGE_LOOP ( 'NONE', ( #474, #453, #53, #240, #317 ) ) ;
#44 = APPLICATION_CONTEXT ( 'automotive_design' ) ;
#45 = DIRECTION ( 'NONE',  ( 0.7306113773142052237, 0.6827935378568253943, 0.000000000000000000 ) ) ;
#46 = VERTEX_POINT ( 'NONE', #841 ) ;
#47 = DIRECTION ( 'NONE',  ( -1.000000000000000000, 0.000000000000000000, 0.000000000000000000 ) ) ;
#48 = ORIENTED_EDGE ( 'NONE', *, *, #588, .F. ) ;
#49 = DIRECTION ( 'NONE',  ( -0.000000000000000000, -0.000000000000000000, -1.000000000000000000 ) ) ;
#50 = DIRECTION ( 'NONE',  ( -0.7306113773142052237, -0.6827935378568253943, 0.000000000000000000 ) ) ;
#51 = ORIENTED_EDGE ( 'NONE', *, *, #650, .T. ) ;
#52 = CARTESIAN_POINT ( 'NONE',  ( -3.828430242851232901, 2.760334413162493394, 11.24487999942863681 ) ) ;
#53 = ORIENTED_EDGE ( 'NONE', *, *, #870, .F. ) ;
#54 = AXIS2_PLACEMENT_3D ( 'NONE', #769, #845, #636 ) ;
#55 = CYLINDRICAL_SURFACE ( 'NONE', #69, 23.75000000000000000 ) ;
#56 = VECTOR ( 'NONE', #587, 1000.000000000000000 ) ;
#57 = PLANE ( 'NONE',  #409 ) ;
#58 = ORIENTED_EDGE ( 'NONE', *, *, #410, .F. ) ;
#59 = CARTESIAN_POINT ( 'NONE',  ( -6.178430242851232990, 2.760334413162493394, 12.74487999942863681 ) ) ;
#60 = ADVANCED_FACE ( 'NONE', ( #448 ), #511, .F. ) ;
#61 = ORIENTED_EDGE ( 'NONE', *, *, #552, .T. ) ;
#62 = DIRECTION ( 'NONE',  ( 0.6827935378568253943, -0.7306113773142052237, 0.000000000000000000 ) ) ;
#63 = ORIENTED_EDGE ( 'NONE', *, *, #195, .F. ) ;
#64 = DIRECTION ( 'NONE',  ( -1.000000000000000000, 0.000000000000000000, 0.000000000000000000 ) ) ;
#65 = ADVANCED_FACE ( 'NONE', ( #707 ), #55, .T. ) ;
#66 = ADVANCED_FACE ( 'NONE', ( #261 ), #104, .F. ) ;
#67 = VERTEX_POINT ( 'NONE', #590 ) ;
#68 = PLANE ( 'NONE',  #853 ) ;
#69 = AXIS2_PLACEMENT_3D ( 'NONE', #236, #115, #387 ) ;
#70 = AXIS2_PLACEMENT_3D ( 'NONE', #595, #797, #192 ) ;
#71 = EDGE_CURVE ( 'NONE', #529, #809, #444, .T. ) ;
#72 = VECTOR ( 'NONE', #763, 1000.000000000000000 ) ;
#73 = ORIENTED_EDGE ( 'NONE', *, *, #782, .F. ) ;
#74 = LINE ( 'NONE', #472, #294 ) ;
#75 = ORIENTED_EDGE ( 'NONE', *, *, #552, .F. ) ;
#76 = CARTESIAN_POINT ( 'NONE',  ( -3.828430242851232901, 2.760334413162493394, 11.24487999942863681 ) ) ;
#77 = DIRECTION ( 'NONE',  ( 0.000000000000000000, 0.000000000000000000, -1.000000000000000000 ) ) ;
#78 = CARTESIAN_POINT ( 'NONE',  ( 13.69871272854152799, -13.26657293854942665, 12.24487999942863681 ) ) ;
#79 = EDGE_LOOP ( 'NONE', ( #823, #199, #589, #447 ) ) ;
#80 = DIRECTION ( 'NONE',  ( -1.000000000000000000, 0.000000000000000000, -0.000000000000000000 ) ) ;
#81 = CYLINDRICAL_SURFACE ( 'NONE', #348, 19.09999999999999432 ) ;
#82 = AXIS2_PLACEMENT_3D ( 'NONE', #744, #346, #691 ) ;
#83 = ORIENTED_EDGE ( 'NONE', *, *, #740, .T. ) ;
#84 = AXIS2_PLACEMENT_3D ( 'NONE', #52, #385, #335 ) ;
#85 = CARTESIAN_POINT ( 'NONE',  ( -3.828430242851232901, 2.760334413162493394, 13.74487999942863681 ) ) ;
#86 = CARTESIAN_POINT ( 'NONE',  ( -3.828430242851232901, 2.760334413162493394, 12.74487999942863681 ) ) ;
#87 = DIRECTION ( 'NONE',  ( -0.000000000000000000, -0.000000000000000000, 1.000000000000000000 ) ) ;
#88 = UNCERTAINTY_MEASURE_WITH_UNIT (LENGTH_MEASURE( 1.000000000000000082E-05 ), #107, 'distance_accuracy_value', 'NONE');
#89 =( NAMED_UNIT ( * ) SI_UNIT ( $, .STERADIAN. ) SOLID_ANGLE_UNIT ( ) );
#90 = DIRECTION ( 'NONE',  ( -0.7306113773142052237, -0.6827935378568253943, 0.000000000000000000 ) ) ;
#91 = CARTESIAN_POINT ( 'NONE',  ( -3.828430242851232901, 2.760334413162493394, 47.22444312810840472 ) ) ;
#92 = ADVANCED_FACE ( 'NONE', ( #787 ), #726, .T. ) ;
#93 = DIRECTION ( 'NONE',  ( -0.6827935378568253943, 0.7306113773142052237, 0.000000000000000000 ) ) ;
#94 = CIRCLE ( 'NONE', #84, 23.75000000000000355 ) ;
#95 = PRESENTATION_STYLE_ASSIGNMENT (( #31 ) ) ;
#96 = DIRECTION ( 'NONE',  ( -0.000000000000000000, -0.000000000000000000, 1.000000000000000000 ) ) ;
#97 = LINE ( 'NONE', #231, #781 ) ;
#98 = VERTEX_POINT ( 'NONE', #255 ) ;
#99 = ORIENTED_EDGE ( 'NONE', *, *, #540, .F. ) ;
#100 = AXIS2_PLACEMENT_3D ( 'NONE', #732, #382, #847 ) ;
#101 = CARTESIAN_POINT ( 'NONE',  ( 12.19847710886069336, 20.28747738455524541, 12.24487999942863681 ) ) ;
#102 = ORIENTED_EDGE ( 'NONE', *, *, #759, .F. ) ;
#103 = MECHANICAL_DESIGN_GEOMETRIC_PRESENTATION_REPRESENTATION (  '', ( #204 ), #322 ) ;
#104 = CYLINDRICAL_SURFACE ( 'NONE', #557, 19.10000000000000142 ) ;
#105 = CARTESIAN_POINT ( 'NONE',  ( -21.35557321424398225, -13.26657293854943021, 12.24487999942863681 ) ) ;
#106 = EDGE_LOOP ( 'NONE', ( #375, #718 ) ) ;
#107 =( LENGTH_UNIT ( ) NAMED_UNIT ( * ) SI_UNIT ( .MILLI., .METRE. ) );
#108 = ORIENTED_EDGE ( 'NONE', *, *, #314, .T. ) ;
#109 = CARTESIAN_POINT ( 'NONE',  ( -3.828430242851232901, 2.760334413162493394, 9.044879999428637518 ) ) ;
#110 = LINE ( 'NONE', #696, #618 ) ;
#111 = EDGE_CURVE ( 'NONE', #46, #529, #530, .T. ) ;
#112 = ORIENTED_EDGE ( 'NONE', *, *, #218, .T. ) ;
#113 = DIRECTION ( 'NONE',  ( 0.000000000000000000, 0.000000000000000000, 1.000000000000000000 ) ) ;
#114 = ORIENTED_EDGE ( 'NONE', *, *, #695, .T. ) ;
#115 = DIRECTION ( 'NONE',  ( -0.000000000000000000, -0.000000000000000000, -1.000000000000000000 ) ) ;
#116 = LINE ( 'NONE', #788, #561 ) ;
#117 = ADVANCED_FACE ( 'NONE', ( #186 ), #524, .T. ) ;
#118 = PLANE ( 'NONE',  #670 ) ;
#119 = VERTEX_POINT ( 'NONE', #662 ) ;
#120 = CARTESIAN_POINT ( 'NONE',  ( -3.828430242851232901, 2.760334413162493394, 12.24487999942863681 ) ) ;
#121 = ORIENTED_EDGE ( 'NONE', *, *, #157, .F. ) ;
#122 = CIRCLE ( 'NONE', #546, 23.75000000000000355 ) ;
#123 = DIRECTION ( 'NONE',  ( 0.000000000000000000, 0.000000000000000000, 1.000000000000000000 ) ) ;
#124 = VECTOR ( 'NONE', #601, 1000.000000000000000 ) ;
#125 = VECTOR ( 'NONE', #378, 1000.000000000000000 ) ;
#126 = ORIENTED_EDGE ( 'NONE', *, *, #257, .F. ) ;
#127 = CARTESIAN_POINT ( 'NONE',  ( -3.828430242851232901, 2.760334413162493394, 12.24487999942863681 ) ) ;
#128 = DIRECTION ( 'NONE',  ( 0.000000000000000000, 0.000000000000000000, 1.000000000000000000 ) ) ;
#129 = EDGE_CURVE ( 'NONE', #319, #6, #685, .T. ) ;
#130 = FACE_OUTER_BOUND ( 'NONE', #212, .T. ) ;
#131 = ORIENTED_EDGE ( 'NONE', *, *, #349, .F. ) ;
#132 = PLANE ( 'NONE',  #434 ) ;
#133 = EDGE_CURVE ( 'NONE', #194, #17, #229, .T. ) ;
#134 = EDGE_LOOP ( 'NONE', ( #647, #33, #51, #312 ) ) ;
#135 = DIRECTION ( 'NONE',  ( -1.000000000000000000, 0.000000000000000000, 0.000000000000000000 ) ) ;
#136 = VECTOR ( 'NONE', #519, 1000.000000000000000 ) ;
#137 = CIRCLE ( 'NONE', #191, 23.75000000000000000 ) ;
#138 = VECTOR ( 'NONE', #165, 1000.000000000000000 ) ;
#139 = PRODUCT_DEFINITION_FORMATION_WITH_SPECIFIED_SOURCE ( 'ANY', '', #299, .NOT_KNOWN. ) ;
#140 = ORIENTED_EDGE ( 'NONE', *, *, #745, .F. ) ;
#141 = CARTESIAN_POINT ( 'NONE',  ( -3.828430242851232901, 2.760334413162493394, 9.044879999428637518 ) ) ;
#142 = CARTESIAN_POINT ( 'NONE',  ( 9.023254223771152382, 16.88988523300021072, 47.22444312810840472 ) ) ;
#143 = CARTESIAN_POINT ( 'NONE',  ( -16.82843024285123334, 2.760334413162493394, 13.74487999942863681 ) ) ;
#144 = ORIENTED_EDGE ( 'NONE', *, *, #133, .T. ) ;
#145 = DIRECTION ( 'NONE',  ( -0.000000000000000000, -0.000000000000000000, -1.000000000000000000 ) ) ;
#146 = CARTESIAN_POINT ( 'NONE',  ( -3.828430242851232901, 2.760334413162493394, 47.22444312810840472 ) ) ;
#147 = ORIENTED_EDGE ( 'NONE', *, *, #708, .F. ) ;
#148 = ADVANCED_FACE ( 'NONE', ( #420 ), #343, .T. ) ;
#149 = CARTESIAN_POINT ( 'NONE',  ( -1.478430242851232368, 2.760334413162493838, 12.74487999942863681 ) ) ;
#150 = LINE ( 'NONE', #142, #266 ) ;
#151 = AXIS2_PLACEMENT_3D ( 'NONE', #300, #574, #439 ) ;
#152 = FACE_OUTER_BOUND ( 'NONE', #471, .T. ) ;
#153 = ADVANCED_FACE ( 'NONE', ( #488, #822 ), #118, .T. ) ;
#154 = FACE_OUTER_BOUND ( 'NONE', #264, .T. ) ;
#155 = DIRECTION ( 'NONE',  ( -0.000000000000000000, -0.000000000000000000, 1.000000000000000000 ) ) ;
#156 = UNCERTAINTY_MEASURE_WITH_UNIT (LENGTH_MEASURE( 1.000000000000000082E-05 ), #475, 'distance_accuracy_value', 'NONE');
#157 = EDGE_CURVE ( 'NONE', #683, #704, #224, .T. ) ;
#158 = LINE ( 'NONE', #776, #801 ) ;
#159 = DIRECTION ( 'NONE',  ( -0.000000000000000000, -0.000000000000000000, -1.000000000000000000 ) ) ;
#160 = CIRCLE ( 'NONE', #151, 12.00000000000000178 ) ;
#161 = AXIS2_PLACEMENT_3D ( 'NONE', #824, #489, #338 ) ;
#162 = AXIS2_PLACEMENT_3D ( 'NONE', #751, #609, #423 ) ;
#163 = CARTESIAN_POINT ( 'NONE',  ( -19.85533759456316005, 20.28747738455524541, 11.24487999942863681 ) ) ;
#164 = SURFACE_SIDE_STYLE ('',( #770 ) ) ;
#165 = DIRECTION ( 'NONE',  ( -0.000000000000000000, -0.000000000000000000, -1.000000000000000000 ) ) ;
#166 = EDGE_LOOP ( 'NONE', ( #840, #734, #140, #403 ) ) ;
#167 = LINE ( 'NONE', #163, #174 ) ;
#168 = ORIENTED_EDGE ( 'NONE', *, *, #708, .T. ) ;
#169 = FACE_OUTER_BOUND ( 'NONE', #508, .T. ) ;
#170 = AXIS2_PLACEMENT_3D ( 'NONE', #109, #49, #571 ) ;
#171 = ORIENTED_EDGE ( 'NONE', *, *, #216, .T. ) ;
#172 = VECTOR ( 'NONE', #682, 1000.000000000000000 ) ;
#173 = ORIENTED_EDGE ( 'NONE', *, *, #353, .F. ) ;
#174 = VECTOR ( 'NONE', #437, 1000.000000000000000 ) ;
#175 = EDGE_CURVE ( 'NONE', #67, #578, #219, .T. ) ;
#176 = VECTOR ( 'NONE', #804, 1000.000000000000000 ) ;
#177 = LINE ( 'NONE', #256, #205 ) ;
#178 = ORIENTED_EDGE ( 'NONE', *, *, #71, .T. ) ;
#179 = PLANE ( 'NONE',  #267 ) ;
#180 = ORIENTED_EDGE ( 'NONE', *, *, #175, .T. ) ;
#181 = ADVANCED_FACE ( 'NONE', ( #356 ), #564, .F. ) ;
#182 = FACE_OUTER_BOUND ( 'NONE', #282, .T. ) ;
#183 = ORIENTED_EDGE ( 'NONE', *, *, #440, .T. ) ;
#184 = DIRECTION ( 'NONE',  ( -0.000000000000000000, -0.000000000000000000, -1.000000000000000000 ) ) ;
#185 = ORIENTED_EDGE ( 'NONE', *, *, #410, .T. ) ;
#186 = FACE_OUTER_BOUND ( 'NONE', #510, .T. ) ;
#187 = FACE_OUTER_BOUND ( 'NONE', #723, .T. ) ;
#188 = ORIENTED_EDGE ( 'NONE', *, *, #340, .T. ) ;
#189 = CARTESIAN_POINT ( 'NONE',  ( -15.82843024285123690, 2.760334413162494727, 12.74487999942863681 ) ) ;
#190 = ORIENTED_EDGE ( 'NONE', *, *, #843, .T. ) ;
#191 = AXIS2_PLACEMENT_3D ( 'NONE', #610, #756, #288 ) ;
#192 = DIRECTION ( 'NONE',  ( 1.000000000000000000, 0.000000000000000000, 0.000000000000000000 ) ) ;
#193 = AXIS2_PLACEMENT_3D ( 'NONE', #318, #251, #479 ) ;
#194 = VERTEX_POINT ( 'NONE', #559 ) ;
#195 = EDGE_CURVE ( 'NONE', #17, #194, #202, .T. ) ;
#196 = CARTESIAN_POINT ( 'NONE',  ( -27.57843024285123690, 2.760334413162493394, 47.22444312810840472 ) ) ;
#197 = EDGE_LOOP ( 'NONE', ( #99, #679, #180, #41 ) ) ;
#198 = CARTESIAN_POINT ( 'NONE',  ( -3.828430242851232901, 2.760334413162493394, 12.74487999942863681 ) ) ;
#199 = ORIENTED_EDGE ( 'NONE', *, *, #247, .F. ) ;
#200 = DIRECTION ( 'NONE',  ( -1.000000000000000000, 0.000000000000000000, 0.000000000000000000 ) ) ;
#201 = CLOSED_SHELL ( 'NONE', ( #66, #622, #688, #807, #148, #772, #181, #701 ) ) ;
#202 = CIRCLE ( 'NONE', #800, 12.00000000000000178 ) ;
#203 = APPLICATION_PROTOCOL_DEFINITION ( 'draft international standard', 'automotive_design', 1998, #44 ) ;
#204 = STYLED_ITEM ( 'NONE', ( #684 ), #611 ) ;
#205 = VECTOR ( 'NONE', #443, 1000.000000000000114 ) ;
#206 = ORIENTED_EDGE ( 'NONE', *, *, #693, .F. ) ;
#207 = DIRECTION ( 'NONE',  ( 0.6827935378568266156, 0.7306113773142041135, -0.000000000000000000 ) ) ;
#208 = DIRECTION ( 'NONE',  ( -0.000000000000000000, -0.000000000000000000, -1.000000000000000000 ) ) ;
#209 = DIRECTION ( 'NONE',  ( -0.000000000000000000, -0.000000000000000000, -1.000000000000000000 ) ) ;
#210 = CARTESIAN_POINT ( 'NONE',  ( -3.828430242851232901, 2.760334413162493394, 11.24487999942863681 ) ) ;
#211 = ADVANCED_FACE ( 'NONE', ( #817 ), #81, .F. ) ;
#212 = EDGE_LOOP ( 'NONE', ( #305, #215, #416, #503 ) ) ;
#213 = DIRECTION ( 'NONE',  ( 1.000000000000000000, 0.000000000000000000, 0.000000000000000000 ) ) ;
#214 = CARTESIAN_POINT ( 'NONE',  ( -3.828430242851232901, 2.760334413162493394, 12.24487999942863681 ) ) ;
#215 = ORIENTED_EDGE ( 'NONE', *, *, #525, .T. ) ;
#216 = EDGE_CURVE ( 'NONE', #337, #653, #137, .T. ) ;
#217 =( NAMED_UNIT ( * ) PLANE_ANGLE_UNIT ( ) SI_UNIT ( $, .RADIAN. ) );
#218 = EDGE_CURVE ( 'NONE', #706, #272, #19, .T. ) ;
#219 = LINE ( 'NONE', #342, #567 ) ;
#220 = AXIS2_PLACEMENT_3D ( 'NONE', #454, #376, #654 ) ;
#221 = CARTESIAN_POINT ( 'NONE',  ( 13.69871272854152444, -13.26657293854943021, 47.22444312810840472 ) ) ;
#222 = CIRCLE ( 'NONE', #827, 23.75000000000000355 ) ;
#223 = ADVANCED_FACE ( 'NONE', ( #152 ), #628, .T. ) ;
#224 = LINE ( 'NONE', #22, #172 ) ;
#225 = CARTESIAN_POINT ( 'NONE',  ( -21.35557321424398580, -13.26657293854943376, 47.22444312810840472 ) ) ;
#226 = DIRECTION ( 'NONE',  ( 0.000000000000000000, 0.000000000000000000, 1.000000000000000000 ) ) ;
#227 = CARTESIAN_POINT ( 'NONE',  ( 8.171569757148768431, 2.760334413162493394, 12.74487999942863681 ) ) ;
#228 =( GEOMETRIC_REPRESENTATION_CONTEXT ( 3 ) GLOBAL_UNCERTAINTY_ASSIGNED_CONTEXT ( ( #757 ) ) GLOBAL_UNIT_ASSIGNED_CONTEXT ( ( #292, #632, #89 ) ) REPRESENTATION_CONTEXT ( 'NONE', 'WORKASPACE' ) );
#229 = CIRCLE ( 'NONE', #560, 12.00000000000000178 ) ;
#230 = VECTOR ( 'NONE', #408, 1000.000000000000000 ) ;
#231 = CARTESIAN_POINT ( 'NONE',  ( -21.35557321424398225, -13.26657293854943021, 12.24487999942863681 ) ) ;
#232 = PRODUCT_DEFINITION_SHAPE ( 'NONE', 'NONE',  #354 ) ;
#233 = ORIENTED_EDGE ( 'NONE', *, *, #873, .F. ) ;
#234 = SURFACE_SIDE_STYLE ('',( #432 ) ) ;
#235 = ORIENTED_EDGE ( 'NONE', *, *, #461, .T. ) ;
#236 = CARTESIAN_POINT ( 'NONE',  ( -3.828430242851232901, 2.760334413162493394, 12.24487999942863681 ) ) ;
#237 = DIRECTION ( 'NONE',  ( 0.6827935378568253943, -0.7306113773142052237, 0.000000000000000000 ) ) ;
#238 = ORIENTED_EDGE ( 'NONE', *, *, #195, .T. ) ;
#239 = CARTESIAN_POINT ( 'NONE',  ( -27.57843024285123334, 2.760334413162493394, 11.24487999942863681 ) ) ;
#240 = ORIENTED_EDGE ( 'NONE', *, *, #3, .F. ) ;
#241 = DIRECTION ( 'NONE',  ( 0.000000000000000000, 0.000000000000000000, 1.000000000000000000 ) ) ;
#242 = CARTESIAN_POINT ( 'NONE',  ( 13.69871272854152444, -13.26657293854943021, 11.24487999942863681 ) ) ;
#243 = ORIENTED_EDGE ( 'NONE', *, *, #633, .T. ) ;
#244 = PRESENTATION_LAYER_ASSIGNMENT (  '', '', ( #629 ) ) ;
#245 = DIRECTION ( 'NONE',  ( 1.000000000000000000, 0.000000000000000000, -0.000000000000000000 ) ) ;
#246 = CIRCLE ( 'NONE', #477, 23.75000000000000355 ) ;
#247 = EDGE_CURVE ( 'NONE', #544, #706, #122, .T. ) ;
#248 = ORIENTED_EDGE ( 'NONE', *, *, #353, .T. ) ;
#249 = AXIS2_PLACEMENT_3D ( 'NONE', #18, #486, #287 ) ;
#250 = CARTESIAN_POINT ( 'NONE',  ( -22.92843024285123477, 2.760334413162493394, 47.22444312810840472 ) ) ;
#251 = DIRECTION ( 'NONE',  ( -0.000000000000000000, -0.000000000000000000, -1.000000000000000000 ) ) ;
#252 = ORIENTED_EDGE ( 'NONE', *, *, #558, .F. ) ;
#253 = LINE ( 'NONE', #189, #728 ) ;
#254 = ORIENTED_EDGE ( 'NONE', *, *, #302, .T. ) ;
#255 = CARTESIAN_POINT ( 'NONE',  ( -19.85533759456316005, 20.28747738455524541, 11.24487999942863681 ) ) ;
#256 = CARTESIAN_POINT ( 'NONE',  ( -21.35557321424398580, -13.26657293854943376, 11.24487999942863681 ) ) ;
#257 = EDGE_CURVE ( 'NONE', #390, #714, #150, .T. ) ;
#258 = ORIENTED_EDGE ( 'NONE', *, *, #3, .T. ) ;
#259 = DIRECTION ( 'NONE',  ( 1.000000000000000000, 0.000000000000000000, 0.000000000000000000 ) ) ;
#260 = EDGE_LOOP ( 'NONE', ( #645, #642, #243, #518 ) ) ;
#261 = FACE_OUTER_BOUND ( 'NONE', #539, .T. ) ;
#262 = ADVANCED_BREP_SHAPE_REPRESENTATION ( 'mag_support_P', ( #21, #611, #309, #783 ), #15 ) ;
#263 = LINE ( 'NONE', #733, #336 ) ;
#264 = EDGE_LOOP ( 'NONE', ( #851, #865, #61, #121 ) ) ;
#265 = CARTESIAN_POINT ( 'NONE',  ( -16.82843024285123334, 2.760334413162493394, 13.74487999942863681 ) ) ;
#266 = VECTOR ( 'NONE', #428, 1000.000000000000000 ) ;
#267 = AXIS2_PLACEMENT_3D ( 'NONE', #198, #673, #245 ) ;
#268 = DIRECTION ( 'NONE',  ( 0.000000000000000000, 0.000000000000000000, 1.000000000000000000 ) ) ;
#269 = VERTEX_POINT ( 'NONE', #624 ) ;
#270 = LINE ( 'NONE', #790, #710 ) ;
#271 = CARTESIAN_POINT ( 'NONE',  ( -27.57843024285123334, 2.760334413162493394, 12.24487999942863681 ) ) ;
#272 = VERTEX_POINT ( 'NONE', #27 ) ;
#273 = CARTESIAN_POINT ( 'NONE',  ( 13.69871272854152089, -13.26657293854943376, 47.22444312810840472 ) ) ;
#274 = ADVANCED_FACE ( 'NONE', ( #297 ), #483, .F. ) ;
#275 = DIRECTION ( 'NONE',  ( -0.000000000000000000, -0.000000000000000000, -1.000000000000000000 ) ) ;
#276 = EDGE_LOOP ( 'NONE', ( #233, #344, #183, #746 ) ) ;
#277 = DIRECTION ( 'NONE',  ( 1.000000000000000000, 0.000000000000000000, 0.000000000000000000 ) ) ;
#278 = EDGE_CURVE ( 'NONE', #2, #46, #304, .T. ) ;
#279 = DIRECTION ( 'NONE',  ( 0.000000000000000000, 0.000000000000000000, 1.000000000000000000 ) ) ;
#280 = CIRCLE ( 'NONE', #764, 23.75000000000000355 ) ;
#281 = AXIS2_PLACEMENT_3D ( 'NONE', #606, #145, #283 ) ;
#282 = EDGE_LOOP ( 'NONE', ( #737, #405, #463, #675 ) ) ;
#283 = DIRECTION ( 'NONE',  ( -1.000000000000000000, 0.000000000000000000, 0.000000000000000000 ) ) ;
#284 = CARTESIAN_POINT ( 'NONE',  ( 9.023254223771152382, 16.88988523300021072, 11.24487999942863681 ) ) ;
#285 = ADVANCED_FACE ( 'NONE', ( #551 ), #413, .F. ) ;
#286 = ORIENTED_EDGE ( 'NONE', *, *, #71, .F. ) ;
#287 = DIRECTION ( 'NONE',  ( 1.000000000000000000, 0.000000000000000000, -0.000000000000000000 ) ) ;
#288 = DIRECTION ( 'NONE',  ( 1.000000000000000000, 0.000000000000000000, 0.000000000000000000 ) ) ;
#289 = ADVANCED_FACE ( 'NONE', ( #748 ), #429, .T. ) ;
#290 = SURFACE_STYLE_FILL_AREA ( #482 ) ;
#291 = DIRECTION ( 'NONE',  ( 0.7306113773142041135, -0.6827935378568266156, 0.000000000000000000 ) ) ;
#292 =( LENGTH_UNIT ( ) NAMED_UNIT ( * ) SI_UNIT ( .MILLI., .METRE. ) );
#293 = AXIS2_PLACEMENT_3D ( 'NONE', #858, #582, #863 ) ;
#294 = VECTOR ( 'NONE', #404, 1000.000000000000000 ) ;
#295 = CARTESIAN_POINT ( 'NONE',  ( 9.171569757148768431, 2.760334413162495171, 12.24487999942863681 ) ) ;
#296 = AXIS2_PLACEMENT_3D ( 'NONE', #40, #649, #627 ) ;
#297 = FACE_OUTER_BOUND ( 'NONE', #505, .T. ) ;
#298 = CARTESIAN_POINT ( 'NONE',  ( -15.82843024285123690, 2.760334413162494727, 13.74487999942863681 ) ) ;
#299 = PRODUCT ( 'mag_support_P', 'mag_support_P', '', ( #663 ) ) ;
#300 = CARTESIAN_POINT ( 'NONE',  ( -3.828430242851232901, 2.760334413162493394, 13.74487999942863681 ) ) ;
#301 = LINE ( 'NONE', #566, #138 ) ;
#302 = EDGE_CURVE ( 'NONE', #390, #544, #16, .T. ) ;
#303 = MECHANICAL_DESIGN_GEOMETRIC_PRESENTATION_REPRESENTATION (  '', ( #867 ), #228 ) ;
#304 = CIRCLE ( 'NONE', #656, 19.10000000000000142 ) ;
#305 = ORIENTED_EDGE ( 'NONE', *, *, #644, .F. ) ;
#306 =( NAMED_UNIT ( * ) SI_UNIT ( $, .STERADIAN. ) SOLID_ANGLE_UNIT ( ) );
#307 = ORIENTED_EDGE ( 'NONE', *, *, #834, .F. ) ;
#308 = DIRECTION ( 'NONE',  ( -0.000000000000000000, -0.000000000000000000, -1.000000000000000000 ) ) ;
#309 = MANIFOLD_SOLID_BREP ( 'Boss-Extrude4', #762 ) ;
#310 = CYLINDRICAL_SURFACE ( 'NONE', #658, 12.00000000000000178 ) ;
#311 = ORIENTED_EDGE ( 'NONE', *, *, #175, .F. ) ;
#312 = ORIENTED_EDGE ( 'NONE', *, *, #480, .T. ) ;
#313 = CARTESIAN_POINT ( 'NONE',  ( -21.35557321424398580, -13.26657293854943376, 9.044879999428637518 ) ) ;
#314 = EDGE_CURVE ( 'NONE', #516, #12, #812, .T. ) ;
#315 = EDGE_LOOP ( 'NONE', ( #48, #422, #114, #168 ) ) ;
#316 = DIRECTION ( 'NONE',  ( -0.000000000000000000, -0.000000000000000000, 1.000000000000000000 ) ) ;
#317 = ORIENTED_EDGE ( 'NONE', *, *, #216, .F. ) ;
#318 = CARTESIAN_POINT ( 'NONE',  ( -3.828430242851232901, 2.760334413162493394, 12.24487999942863681 ) ) ;
#319 = VERTEX_POINT ( 'NONE', #700 ) ;
#320 =( GEOMETRIC_REPRESENTATION_CONTEXT ( 3 ) GLOBAL_UNCERTAINTY_ASSIGNED_CONTEXT ( ( #88 ) ) GLOBAL_UNIT_ASSIGNED_CONTEXT ( ( #107, #501, #306 ) ) REPRESENTATION_CONTEXT ( 'NONE', 'WORKASPACE' ) );
#321 = CARTESIAN_POINT ( 'NONE',  ( 9.171569757148768431, 2.760334413162495171, 13.74487999942863681 ) ) ;
#322 =( GEOMETRIC_REPRESENTATION_CONTEXT ( 3 ) GLOBAL_UNCERTAINTY_ASSIGNED_CONTEXT ( ( #156 ) ) GLOBAL_UNIT_ASSIGNED_CONTEXT ( ( #475, #217, #417 ) ) REPRESENTATION_CONTEXT ( 'NONE', 'WORKASPACE' ) );
#323 = EDGE_LOOP ( 'NONE', ( #741, #789, #725, #364 ) ) ;
#324 = VECTOR ( 'NONE', #466, 1000.000000000000000 ) ;
#325 = DIRECTION ( 'NONE',  ( 1.000000000000000000, 0.000000000000000000, 0.000000000000000000 ) ) ;
#326 = DIRECTION ( 'NONE',  ( 1.000000000000000000, 0.000000000000000000, 0.000000000000000000 ) ) ;
#327 = CARTESIAN_POINT ( 'NONE',  ( -3.828430242851232901, 2.760334413162493394, 13.74487999942863681 ) ) ;
#328 = ORIENTED_EDGE ( 'NONE', *, *, #525, .F. ) ;
#329 = FACE_OUTER_BOUND ( 'NONE', #523, .T. ) ;
#330 = CARTESIAN_POINT ( 'NONE',  ( -16.68011470947362795, 16.88988523300021072, 11.24487999942863681 ) ) ;
#331 = DIRECTION ( 'NONE',  ( 0.000000000000000000, 0.000000000000000000, 1.000000000000000000 ) ) ;
#332 = ORIENTED_EDGE ( 'NONE', *, *, #469, .T. ) ;
#333 = DIRECTION ( 'NONE',  ( -0.000000000000000000, -0.000000000000000000, -1.000000000000000000 ) ) ;
#334 = ORIENTED_EDGE ( 'NONE', *, *, #680, .F. ) ;
#335 = DIRECTION ( 'NONE',  ( -1.000000000000000000, 0.000000000000000000, 0.000000000000000000 ) ) ;
#336 = VECTOR ( 'NONE', #275, 1000.000000000000000 ) ;
#337 = VERTEX_POINT ( 'NONE', #239 ) ;
#338 = DIRECTION ( 'NONE',  ( -1.000000000000000000, 0.000000000000000000, 0.000000000000000000 ) ) ;
#339 = ORIENTED_EDGE ( 'NONE', *, *, #864, .F. ) ;
#340 = EDGE_CURVE ( 'NONE', #635, #456, #433, .T. ) ;
#341 = LINE ( 'NONE', #7, #361 ) ;
#342 = CARTESIAN_POINT ( 'NONE',  ( -19.85533759456316005, 20.28747738455524541, 47.22444312810840472 ) ) ;
#343 = CYLINDRICAL_SURFACE ( 'NONE', #370, 23.75000000000000355 ) ;
#344 = ORIENTED_EDGE ( 'NONE', *, *, #314, .F. ) ;
#345 = LINE ( 'NONE', #743, #657 ) ;
#346 = DIRECTION ( 'NONE',  ( -0.000000000000000000, -0.000000000000000000, -1.000000000000000000 ) ) ;
#347 = AXIS2_PLACEMENT_3D ( 'NONE', #666, #241, #325 ) ;
#348 = AXIS2_PLACEMENT_3D ( 'NONE', #91, #208, #358 ) ;
#349 = EDGE_CURVE ( 'NONE', #17, #319, #702, .T. ) ;
#350 = VERTEX_POINT ( 'NONE', #839 ) ;
#351 = CARTESIAN_POINT ( 'NONE',  ( -21.35557321424399291, -13.26657293854942665, 11.24487999942863681 ) ) ;
#352 = DIRECTION ( 'NONE',  ( -1.000000000000000000, 0.000000000000000000, 0.000000000000000000 ) ) ;
#353 = EDGE_CURVE ( 'NONE', #6, #319, #160, .T. ) ;
#354 = PRODUCT_DEFINITION ( 'UNKNOWN', '', #139, #28 ) ;
#355 = FACE_OUTER_BOUND ( 'NONE', #79, .T. ) ;
#356 = FACE_OUTER_BOUND ( 'NONE', #260, .T. ) ;
#357 = DIRECTION ( 'NONE',  ( -0.6827935378568253943, 0.7306113773142052237, 0.000000000000000000 ) ) ;
#358 = DIRECTION ( 'NONE',  ( -1.000000000000000000, 0.000000000000000000, 0.000000000000000000 ) ) ;
#359 = AXIS2_PLACEMENT_3D ( 'NONE', #677, #155, #621 ) ;
#360 = AXIS2_PLACEMENT_3D ( 'NONE', #641, #226, #496 ) ;
#361 = VECTOR ( 'NONE', #753, 1000.000000000000000 ) ;
#362 = EDGE_CURVE ( 'NONE', #578, #553, #280, .T. ) ;
#363 = CARTESIAN_POINT ( 'NONE',  ( 13.69871272854152089, -13.26657293854943376, 9.044879999428637518 ) ) ;
#364 = ORIENTED_EDGE ( 'NONE', *, *, #377, .T. ) ;
#365 = CARTESIAN_POINT ( 'NONE',  ( 13.69871272854152799, -13.26657293854942665, 12.24487999942863681 ) ) ;
#366 = ORIENTED_EDGE ( 'NONE', *, *, #23, .T. ) ;
#367 = EDGE_CURVE ( 'NONE', #272, #390, #391, .T. ) ;
#368 = DIRECTION ( 'NONE',  ( -0.000000000000000000, -0.000000000000000000, 1.000000000000000000 ) ) ;
#369 = PRESENTATION_LAYER_ASSIGNMENT (  '', '', ( #867 ) ) ;
#370 = AXIS2_PLACEMENT_3D ( 'NONE', #749, #209, #421 ) ;
#371 = DIRECTION ( 'NONE',  ( 1.000000000000000000, 0.000000000000000000, 0.000000000000000000 ) ) ;
#372 = AXIS2_PLACEMENT_3D ( 'NONE', #738, #579, #259 ) ;
#373 = ORIENTED_EDGE ( 'NONE', *, *, #26, .F. ) ;
#374 = FACE_OUTER_BOUND ( 'NONE', #796, .T. ) ;
#375 = ORIENTED_EDGE ( 'NONE', *, *, #461, .F. ) ;
#376 = DIRECTION ( 'NONE',  ( 0.000000000000000000, 1.000000000000000000, 0.000000000000000000 ) ) ;
#377 = EDGE_CURVE ( 'NONE', #784, #119, #35, .T. ) ;
#378 = DIRECTION ( 'NONE',  ( -0.000000000000000000, -0.000000000000000000, -1.000000000000000000 ) ) ;
#379 = EDGE_LOOP ( 'NONE', ( #252, #63, #872, #651 ) ) ;
#380 = DIRECTION ( 'NONE',  ( 1.000000000000000000, 0.000000000000000000, 0.000000000000000000 ) ) ;
#381 = ORIENTED_EDGE ( 'NONE', *, *, #808, .T. ) ;
#382 = DIRECTION ( 'NONE',  ( 0.000000000000000000, 0.000000000000000000, 1.000000000000000000 ) ) ;
#383 = CARTESIAN_POINT ( 'NONE',  ( 10.30112057698648265, -10.09135005345989100, 9.044879999428637518 ) ) ;
#384 = ORIENTED_EDGE ( 'NONE', *, *, #497, .F. ) ;
#385 = DIRECTION ( 'NONE',  ( 0.000000000000000000, 0.000000000000000000, -1.000000000000000000 ) ) ;
#386 = ORIENTED_EDGE ( 'NONE', *, *, #133, .F. ) ;
#387 = DIRECTION ( 'NONE',  ( -1.000000000000000000, 0.000000000000000000, 0.000000000000000000 ) ) ;
#388 = DIRECTION ( 'NONE',  ( -1.000000000000000000, 0.000000000000000000, 0.000000000000000000 ) ) ;
#389 = CLOSED_SHELL ( 'NONE', ( #450, #274, #473, #697, #211, #616 ) ) ;
#390 = VERTEX_POINT ( 'NONE', #504 ) ;
#391 = CIRCLE ( 'NONE', #499, 19.09999999999999432 ) ;
#392 = DIRECTION ( 'NONE',  ( 0.000000000000000000, 0.000000000000000000, 1.000000000000000000 ) ) ;
#393 = AXIS2_PLACEMENT_3D ( 'NONE', #850, #113, #795 ) ;
#394 = VERTEX_POINT ( 'NONE', #833 ) ;
#395 = CIRCLE ( 'NONE', #296, 19.10000000000000142 ) ;
#396 = DIRECTION ( 'NONE',  ( 1.000000000000000000, 0.000000000000000000, -0.000000000000000000 ) ) ;
#397 = DIRECTION ( 'NONE',  ( -1.000000000000000000, 0.000000000000000000, 0.000000000000000000 ) ) ;
#398 = ORIENTED_EDGE ( 'NONE', *, *, #693, .T. ) ;
#399 = DIRECTION ( 'NONE',  ( 0.000000000000000000, 0.000000000000000000, 1.000000000000000000 ) ) ;
#400 = EDGE_CURVE ( 'NONE', #605, #269, #742, .T. ) ;
#401 = CARTESIAN_POINT ( 'NONE',  ( -19.85533759456316005, 20.28747738455524541, 12.24487999942863681 ) ) ;
#402 =( NAMED_UNIT ( * ) PLANE_ANGLE_UNIT ( ) SI_UNIT ( $, .RADIAN. ) );
#403 = ORIENTED_EDGE ( 'NONE', *, *, #832, .T. ) ;
#404 = DIRECTION ( 'NONE',  ( -0.000000000000000000, -0.000000000000000000, -1.000000000000000000 ) ) ;
#405 = ORIENTED_EDGE ( 'NONE', *, *, #759, .T. ) ;
#406 = FACE_BOUND ( 'NONE', #846, .T. ) ;
#407 = VECTOR ( 'NONE', #62, 1000.000000000000114 ) ;
#408 = DIRECTION ( 'NONE',  ( -0.000000000000000000, -0.000000000000000000, -1.000000000000000000 ) ) ;
#409 = AXIS2_PLACEMENT_3D ( 'NONE', #859, #460, #577 ) ;
#410 = EDGE_CURVE ( 'NONE', #778, #659, #773, .T. ) ;
#411 = ORIENTED_EDGE ( 'NONE', *, *, #777, .F. ) ;
#412 = DIRECTION ( 'NONE',  ( -0.000000000000000000, -0.000000000000000000, -1.000000000000000000 ) ) ;
#413 = CYLINDRICAL_SURFACE ( 'NONE', #359, 12.00000000000000178 ) ;
#414 = CARTESIAN_POINT ( 'NONE',  ( 9.171569757148768431, 2.760334413162495171, 13.74487999942863681 ) ) ;
#415 = PRODUCT_RELATED_PRODUCT_CATEGORY ( 'part', '', ( #299 ) ) ;
#416 = ORIENTED_EDGE ( 'NONE', *, *, #599, .T. ) ;
#417 =( NAMED_UNIT ( * ) SI_UNIT ( $, .STERADIAN. ) SOLID_ANGLE_UNIT ( ) );
#418 = EDGE_CURVE ( 'NONE', #394, #445, #97, .T. ) ;
#419 = CARTESIAN_POINT ( 'NONE',  ( -3.828430242851232901, 2.760334413162493394, 16.24487999942863681 ) ) ;
#420 = FACE_OUTER_BOUND ( 'NONE', #197, .T. ) ;
#421 = DIRECTION ( 'NONE',  ( -1.000000000000000000, 0.000000000000000000, 0.000000000000000000 ) ) ;
#422 = ORIENTED_EDGE ( 'NONE', *, *, #23, .F. ) ;
#423 = DIRECTION ( 'NONE',  ( -1.000000000000000000, 0.000000000000000000, 0.000000000000000000 ) ) ;
#424 = FILL_AREA_STYLE ('',( #487 ) ) ;
#425 = AXIS2_PLACEMENT_3D ( 'NONE', #721, #576, #648 ) ;
#426 = AXIS2_PLACEMENT_3D ( 'NONE', #829, #446, #498 ) ;
#427 = DIRECTION ( 'NONE',  ( -0.000000000000000000, -0.000000000000000000, -1.000000000000000000 ) ) ;
#428 = DIRECTION ( 'NONE',  ( -0.000000000000000000, -0.000000000000000000, -1.000000000000000000 ) ) ;
#429 = CYLINDRICAL_SURFACE ( 'NONE', #36, 2.350000000000000533 ) ;
#430 = EDGE_CURVE ( 'NONE', #119, #98, #167, .T. ) ;
#431 = LINE ( 'NONE', #105, #125 ) ;
#432 = SURFACE_STYLE_FILL_AREA ( #424 ) ;
#433 = CIRCLE ( 'NONE', #54, 2.350000000000000533 ) ;
#434 = AXIS2_PLACEMENT_3D ( 'NONE', #76, #815, #80 ) ;
#435 = ADVANCED_FACE ( 'NONE', ( #32, #374 ), #705, .T. ) ;
#436 = AXIS2_PLACEMENT_3D ( 'NONE', #210, #678, #397 ) ;
#437 = DIRECTION ( 'NONE',  ( -1.000000000000000000, -0.000000000000000000, -0.000000000000000000 ) ) ;
#438 = SURFACE_STYLE_USAGE ( .BOTH. , #164 ) ;
#439 = DIRECTION ( 'NONE',  ( 1.000000000000000000, 0.000000000000000000, 0.000000000000000000 ) ) ;
#440 = EDGE_CURVE ( 'NONE', #516, #98, #301, .T. ) ;
#441 = ORIENTED_EDGE ( 'NONE', *, *, #716, .F. ) ;
#442 = DIRECTION ( 'NONE',  ( 0.000000000000000000, -1.000000000000000000, 0.000000000000000000 ) ) ;
#443 = DIRECTION ( 'NONE',  ( -0.7306113773142052237, -0.6827935378568253943, 0.000000000000000000 ) ) ;
#444 = CIRCLE ( 'NONE', #170, 19.10000000000000142 ) ;
#445 = VERTEX_POINT ( 'NONE', #365 ) ;
#446 = DIRECTION ( 'NONE',  ( 0.000000000000000000, 0.000000000000000000, 1.000000000000000000 ) ) ;
#447 = ORIENTED_EDGE ( 'NONE', *, *, #367, .F. ) ;
#448 = FACE_OUTER_BOUND ( 'NONE', #786, .T. ) ;
#449 = DIRECTION ( 'NONE',  ( 0.000000000000000000, 0.000000000000000000, 1.000000000000000000 ) ) ;
#450 = ADVANCED_FACE ( 'NONE', ( #42 ), #68, .T. ) ;
#451 = ORIENTED_EDGE ( 'NONE', *, *, #469, .F. ) ;
#452 = CARTESIAN_POINT ( 'NONE',  ( 12.19847710886069336, 20.28747738455524541, 11.24487999942863681 ) ) ;
#453 = ORIENTED_EDGE ( 'NONE', *, *, #430, .F. ) ;
#454 = CARTESIAN_POINT ( 'NONE',  ( -21.35557321424398225, -13.26657293854943021, 12.24487999942863681 ) ) ;
#455 = CARTESIAN_POINT ( 'NONE',  ( -3.828430242851232901, 2.760334413162493394, 12.74487999942863681 ) ) ;
#456 = VERTEX_POINT ( 'NONE', #59 ) ;
#457 = CARTESIAN_POINT ( 'NONE',  ( -27.57843024285123690, 2.760334413162493394, 11.24487999942863681 ) ) ;
#458 = ORIENTED_EDGE ( 'NONE', *, *, #418, .T. ) ;
#459 = DIRECTION ( 'NONE',  ( 0.000000000000000000, -0.000000000000000000, -1.000000000000000000 ) ) ;
#460 = DIRECTION ( 'NONE',  ( 0.000000000000000000, 0.000000000000000000, -1.000000000000000000 ) ) ;
#461 = EDGE_CURVE ( 'NONE', #592, #791, #630, .T. ) ;
#462 = CIRCLE ( 'NONE', #347, 2.350000000000000533 ) ;
#463 = ORIENTED_EDGE ( 'NONE', *, *, #157, .T. ) ;
#464 = CARTESIAN_POINT ( 'NONE',  ( -3.828430242851232901, 2.760334413162493394, 47.22444312810840472 ) ) ;
#465 = CARTESIAN_POINT ( 'NONE',  ( -3.828430242851232901, 2.760334413162493394, 12.74487999942863681 ) ) ;
#466 = DIRECTION ( 'NONE',  ( -0.000000000000000000, -0.000000000000000000, -1.000000000000000000 ) ) ;
#467 = ORIENTED_EDGE ( 'NONE', *, *, #558, .T. ) ;
#468 = CARTESIAN_POINT ( 'NONE',  ( -17.95798106268894756, -10.09135005345989988, 11.24487999942863681 ) ) ;
#469 = EDGE_CURVE ( 'NONE', #2, #809, #74, .T. ) ;
#470 = SHAPE_DEFINITION_REPRESENTATION ( #232, #262 ) ;
#471 = EDGE_LOOP ( 'NONE', ( #813, #838, #188, #844 ) ) ;
#472 = CARTESIAN_POINT ( 'NONE',  ( -16.68011470947362795, 16.88988523300021072, 47.22444312810840472 ) ) ;
#473 = ADVANCED_FACE ( 'NONE', ( #785 ), #522, .T. ) ;
#474 = ORIENTED_EDGE ( 'NONE', *, *, #39, .F. ) ;
#475 =( LENGTH_UNIT ( ) NAMED_UNIT ( * ) SI_UNIT ( .MILLI., .METRE. ) );
#476 = VECTOR ( 'NONE', #821, 1000.000000000000000 ) ;
#477 = AXIS2_PLACEMENT_3D ( 'NONE', #665, #735, #668 ) ;
#478 = DIRECTION ( 'NONE',  ( -0.7306113773142041135, 0.6827935378568266156, 0.000000000000000000 ) ) ;
#479 = DIRECTION ( 'NONE',  ( -1.000000000000000000, 0.000000000000000000, 0.000000000000000000 ) ) ;
#480 = EDGE_CURVE ( 'NONE', #659, #527, #246, .T. ) ;
#481 = EDGE_LOOP ( 'NONE', ( #334, #441, #75, #794, #411, #286 ) ) ;
#482 = FILL_AREA_STYLE ('',( #681 ) ) ;
#483 = PLANE ( 'NONE',  #11 ) ;
#484 = DIRECTION ( 'NONE',  ( 1.000000000000000000, 0.000000000000000000, 0.000000000000000000 ) ) ;
#485 = ORIENTED_EDGE ( 'NONE', *, *, #777, .T. ) ;
#486 = DIRECTION ( 'NONE',  ( 0.000000000000000000, 0.000000000000000000, 1.000000000000000000 ) ) ;
#487 = FILL_AREA_STYLE_COLOUR ( '', #514 ) ;
#488 = FACE_BOUND ( 'NONE', #619, .T. ) ;
#489 = DIRECTION ( 'NONE',  ( -0.000000000000000000, -0.000000000000000000, -1.000000000000000000 ) ) ;
#490 = DIRECTION ( 'NONE',  ( -0.000000000000000000, -0.000000000000000000, -1.000000000000000000 ) ) ;
#491 = VECTOR ( 'NONE', #159, 1000.000000000000000 ) ;
#492 = AXIS2_PLACEMENT_3D ( 'NONE', #604, #739, #612 ) ;
#493 = SURFACE_STYLE_USAGE ( .BOTH. , #810 ) ;
#494 = CARTESIAN_POINT ( 'NONE',  ( 9.023254223771152382, 16.88988523300021072, 47.22444312810840472 ) ) ;
#495 = FACE_OUTER_BOUND ( 'NONE', #703, .T. ) ;
#496 = DIRECTION ( 'NONE',  ( 1.000000000000000000, 0.000000000000000000, -0.000000000000000000 ) ) ;
#497 = EDGE_CURVE ( 'NONE', #683, #580, #94, .T. ) ;
#498 = DIRECTION ( 'NONE',  ( 1.000000000000000000, 0.000000000000000000, 0.000000000000000000 ) ) ;
#499 = AXIS2_PLACEMENT_3D ( 'NONE', #646, #96, #47 ) ;
#500 = VECTOR ( 'NONE', #427, 1000.000000000000000 ) ;
#501 =( NAMED_UNIT ( * ) PLANE_ANGLE_UNIT ( ) SI_UNIT ( $, .RADIAN. ) );
#502 = FILL_AREA_STYLE_COLOUR ( '', #512 ) ;
#503 = ORIENTED_EDGE ( 'NONE', *, *, #837, .F. ) ;
#504 = CARTESIAN_POINT ( 'NONE',  ( 9.023254223771150606, 16.88988523300021072, 11.24487999942863681 ) ) ;
#505 = EDGE_LOOP ( 'NONE', ( #126, #254, #190, #381 ) ) ;
#506 = PLANE ( 'NONE',  #34 ) ;
#507 = CARTESIAN_POINT ( 'NONE',  ( 12.19847710886069336, 20.28747738455524541, 12.24487999942863681 ) ) ;
#508 = EDGE_LOOP ( 'NONE', ( #307, #339, #384, #102, #73, #712 ) ) ;
#509 = CARTESIAN_POINT ( 'NONE',  ( -3.828430242851232901, 2.760334413162493394, 9.044879999428637518 ) ) ;
#510 = EDGE_LOOP ( 'NONE', ( #366, #802 ) ) ;
#511 = PLANE ( 'NONE',  #220 ) ;
#512 = COLOUR_RGB ( '',0.7921568627450980005, 0.8196078431372548767, 0.9333333333333333481 ) ;
#513 = CARTESIAN_POINT ( 'NONE',  ( -3.828430242851232901, 2.760334413162493394, 12.24487999942863681 ) ) ;
#514 = COLOUR_RGB ( '',0.7921568627450980005, 0.8196078431372548767, 0.9333333333333333481 ) ;
#515 = AXIS2_PLACEMENT_3D ( 'NONE', #120, #392, #593 ) ;
#516 = VERTEX_POINT ( 'NONE', #719 ) ;
#517 = CARTESIAN_POINT ( 'NONE',  ( -3.828430242851232901, 2.760334413162493394, 9.044879999428637518 ) ) ;
#518 = ORIENTED_EDGE ( 'NONE', *, *, #680, .T. ) ;
#519 = DIRECTION ( 'NONE',  ( -0.000000000000000000, -0.000000000000000000, -1.000000000000000000 ) ) ;
#520 = PLANE ( 'NONE',  #711 ) ;
#521 = ORIENTED_EDGE ( 'NONE', *, *, #129, .F. ) ;
#522 = CYLINDRICAL_SURFACE ( 'NONE', #38, 23.75000000000000355 ) ;
#523 = EDGE_LOOP ( 'NONE', ( #238, #144 ) ) ;
#524 = PLANE ( 'NONE',  #698 ) ;
#525 = EDGE_CURVE ( 'NONE', #855, #791, #806, .T. ) ;
#526 = LINE ( 'NONE', #313, #603 ) ;
#527 = VERTEX_POINT ( 'NONE', #660 ) ;
#528 = CARTESIAN_POINT ( 'NONE',  ( -16.82843024285123334, 2.760334413162493394, 12.24487999942863681 ) ) ;
#529 = VERTEX_POINT ( 'NONE', #597 ) ;
#530 = LINE ( 'NONE', #250, #136 ) ;
#531 = LINE ( 'NONE', #5, #407 ) ;
#532 = CIRCLE ( 'NONE', #100, 23.75000000000000000 ) ;
#533 = ORIENTED_EDGE ( 'NONE', *, *, #26, .T. ) ;
#534 = AXIS2_PLACEMENT_3D ( 'NONE', #214, #565, #713 ) ;
#535 = DIRECTION ( 'NONE',  ( 1.000000000000000000, 0.000000000000000000, 0.000000000000000000 ) ) ;
#536 = LINE ( 'NONE', #690, #10 ) ;
#537 = CIRCLE ( 'NONE', #162, 19.09999999999999432 ) ;
#538 = APPLICATION_PROTOCOL_DEFINITION ( 'draft international standard', 'automotive_design', 1998, #692 ) ;
#539 = EDGE_LOOP ( 'NONE', ( #862, #661, #178, #451 ) ) ;
#540 = EDGE_CURVE ( 'NONE', #580, #553, #731, .T. ) ;
#541 = DIRECTION ( 'NONE',  ( -0.000000000000000000, 0.000000000000000000, -1.000000000000000000 ) ) ;
#542 = ORIENTED_EDGE ( 'NONE', *, *, #808, .F. ) ;
#543 = ADVANCED_FACE ( 'NONE', ( #406, #329 ), #179, .T. ) ;
#544 = VERTEX_POINT ( 'NONE', #452 ) ;
#545 = FACE_OUTER_BOUND ( 'NONE', #481, .T. ) ;
#546 = AXIS2_PLACEMENT_3D ( 'NONE', #826, #77, #200 ) ;
#547 = DIRECTION ( 'NONE',  ( 1.000000000000000000, 0.000000000000000000, -0.000000000000000000 ) ) ;
#548 = AXIS2_PLACEMENT_3D ( 'NONE', #1, #331, #799 ) ;
#549 = EDGE_LOOP ( 'NONE', ( #37, #586, #664, #398 ) ) ;
#550 = CARTESIAN_POINT ( 'NONE',  ( 13.69871272854152444, -13.26657293854943021, 9.044879999428637518 ) ) ;
#551 = FACE_OUTER_BOUND ( 'NONE', #379, .T. ) ;
#552 = EDGE_CURVE ( 'NONE', #553, #704, #602, .T. ) ;
#553 = VERTEX_POINT ( 'NONE', #856 ) ;
#554 = DIRECTION ( 'NONE',  ( -0.7306113773142041135, 0.6827935378568266156, 0.000000000000000000 ) ) ;
#555 = DIRECTION ( 'NONE',  ( -0.000000000000000000, -0.000000000000000000, -1.000000000000000000 ) ) ;
#556 = FACE_OUTER_BOUND ( 'NONE', #570, .T. ) ;
#557 = AXIS2_PLACEMENT_3D ( 'NONE', #775, #308, #715 ) ;
#558 = EDGE_CURVE ( 'NONE', #194, #6, #253, .T. ) ;
#559 = CARTESIAN_POINT ( 'NONE',  ( -15.82843024285123690, 2.760334413162494727, 12.74487999942863681 ) ) ;
#560 = AXIS2_PLACEMENT_3D ( 'NONE', #465, #128, #484 ) ;
#561 = VECTOR ( 'NONE', #572, 1000.000000000000000 ) ;
#562 = PLANE ( 'NONE',  #699 ) ;
#563 = EDGE_CURVE ( 'NONE', #272, #778, #270, .T. ) ;
#564 = CYLINDRICAL_SURFACE ( 'NONE', #672, 19.10000000000000142 ) ;
#565 = DIRECTION ( 'NONE',  ( 0.000000000000000000, 0.000000000000000000, 1.000000000000000000 ) ) ;
#566 = CARTESIAN_POINT ( 'NONE',  ( -19.85533759456316005, 20.28747738455524541, 12.24487999942863681 ) ) ;
#567 = VECTOR ( 'NONE', #555, 1000.000000000000000 ) ;
#568 = CIRCLE ( 'NONE', #585, 13.00000000000000178 ) ;
#569 = ORIENTED_EDGE ( 'NONE', *, *, #563, .T. ) ;
#570 = EDGE_LOOP ( 'NONE', ( #573, #112, #569, #185 ) ) ;
#571 = DIRECTION ( 'NONE',  ( 1.000000000000000000, 0.000000000000000000, 0.000000000000000000 ) ) ;
#572 = DIRECTION ( 'NONE',  ( -1.000000000000000000, -0.000000000000000000, -0.000000000000000000 ) ) ;
#573 = ORIENTED_EDGE ( 'NONE', *, *, #650, .F. ) ;
#574 = DIRECTION ( 'NONE',  ( 0.000000000000000000, 0.000000000000000000, 1.000000000000000000 ) ) ;
#575 = ORIENTED_EDGE ( 'NONE', *, *, #581, .T. ) ;
#576 = DIRECTION ( 'NONE',  ( 0.000000000000000000, 0.000000000000000000, 1.000000000000000000 ) ) ;
#577 = DIRECTION ( 'NONE',  ( -1.000000000000000000, 0.000000000000000000, -0.000000000000000000 ) ) ;
#578 = VERTEX_POINT ( 'NONE', #724 ) ;
#579 = DIRECTION ( 'NONE',  ( 0.000000000000000000, 0.000000000000000000, 1.000000000000000000 ) ) ;
#580 = VERTEX_POINT ( 'NONE', #457 ) ;
#581 = EDGE_CURVE ( 'NONE', #12, #394, #869, .T. ) ;
#582 = DIRECTION ( 'NONE',  ( -0.000000000000000000, -0.000000000000000000, -1.000000000000000000 ) ) ;
#583 = CARTESIAN_POINT ( 'NONE',  ( -16.68011470947362795, 16.88988523300021072, 9.044879999428637518 ) ) ;
#584 = MECHANICAL_DESIGN_GEOMETRIC_PRESENTATION_REPRESENTATION (  '', ( #629 ), #320 ) ;
#585 = AXIS2_PLACEMENT_3D ( 'NONE', #127, #399, #535 ) ;
#586 = ORIENTED_EDGE ( 'NONE', *, *, #367, .T. ) ;
#587 = DIRECTION ( 'NONE',  ( -0.000000000000000000, -0.000000000000000000, -1.000000000000000000 ) ) ;
#588 = EDGE_CURVE ( 'NONE', #605, #635, #861, .T. ) ;
#589 = ORIENTED_EDGE ( 'NONE', *, *, #302, .F. ) ;
#590 = CARTESIAN_POINT ( 'NONE',  ( -19.85533759456316005, 20.28747738455524541, 11.24487999942863681 ) ) ;
#591 = DIRECTION ( 'NONE',  ( 0.000000000000000000, 0.000000000000000000, 1.000000000000000000 ) ) ;
#592 = VERTEX_POINT ( 'NONE', #528 ) ;
#593 = DIRECTION ( 'NONE',  ( 1.000000000000000000, 0.000000000000000000, 0.000000000000000000 ) ) ;
#594 = EDGE_LOOP ( 'NONE', ( #533, #750 ) ) ;
#595 = CARTESIAN_POINT ( 'NONE',  ( -3.828430242851232901, 2.760334413162493394, 13.74487999942863681 ) ) ;
#596 = VERTEX_POINT ( 'NONE', #265 ) ;
#597 = CARTESIAN_POINT ( 'NONE',  ( -22.92843024285123477, 2.760334413162493394, 9.044879999428637518 ) ) ;
#598 = LINE ( 'NONE', #271, #324 ) ;
#599 = EDGE_CURVE ( 'NONE', #791, #592, #568, .T. ) ;
#600 = ORIENTED_EDGE ( 'NONE', *, *, #811, .F. ) ;
#601 = DIRECTION ( 'NONE',  ( -0.000000000000000000, -0.000000000000000000, -1.000000000000000000 ) ) ;
#602 = CIRCLE ( 'NONE', #372, 23.75000000000000355 ) ;
#603 = VECTOR ( 'NONE', #45, 1000.000000000000114 ) ;
#604 = CARTESIAN_POINT ( 'NONE',  ( -3.828430242851232901, 2.760334413162493394, 13.74487999942863681 ) ) ;
#605 = VERTEX_POINT ( 'NONE', #803 ) ;
#606 = CARTESIAN_POINT ( 'NONE',  ( -3.828430242851232901, 2.760334413162493394, 13.74487999942863681 ) ) ;
#607 = LINE ( 'NONE', #78, #230 ) ;
#608 = VERTEX_POINT ( 'NONE', #468 ) ;
#609 = DIRECTION ( 'NONE',  ( -0.000000000000000000, -0.000000000000000000, -1.000000000000000000 ) ) ;
#610 = CARTESIAN_POINT ( 'NONE',  ( -3.828430242851232901, 2.760334413162493394, 11.24487999942863681 ) ) ;
#611 = MANIFOLD_SOLID_BREP ( 'Boss-Extrude1[2]', #389 ) ;
#612 = DIRECTION ( 'NONE',  ( -1.000000000000000000, 0.000000000000000000, 0.000000000000000000 ) ) ;
#613 = ORIENTED_EDGE ( 'NONE', *, *, #480, .F. ) ;
#614 = LINE ( 'NONE', #221, #500 ) ;
#615 = CIRCLE ( 'NONE', #816, 19.10000000000000142 ) ;
#616 = ADVANCED_FACE ( 'NONE', ( #355 ), #132, .F. ) ;
#617 = DIRECTION ( 'NONE',  ( -0.000000000000000000, -0.000000000000000000, -1.000000000000000000 ) ) ;
#618 = VECTOR ( 'NONE', #357, 1000.000000000000114 ) ;
#619 = EDGE_LOOP ( 'NONE', ( #521, #173 ) ) ;
#620 = CYLINDRICAL_SURFACE ( 'NONE', #161, 23.75000000000000355 ) ;
#621 = DIRECTION ( 'NONE',  ( 1.000000000000000000, 0.000000000000000000, 0.000000000000000000 ) ) ;
#622 = ADVANCED_FACE ( 'NONE', ( #154 ), #620, .T. ) ;
#623 = DIRECTION ( 'NONE',  ( -0.000000000000000000, -0.000000000000000000, -1.000000000000000000 ) ) ;
#624 = CARTESIAN_POINT ( 'NONE',  ( -6.178430242851232990, 2.760334413162493394, 16.24487999942863681 ) ) ;
#625 = UNCERTAINTY_MEASURE_WITH_UNIT (LENGTH_MEASURE( 1.000000000000000082E-05 ), #818, 'distance_accuracy_value', 'NONE');
#626 = ADVANCED_FACE ( 'NONE', ( #747 ), #14, .T. ) ;
#627 = DIRECTION ( 'NONE',  ( -1.000000000000000000, 0.000000000000000000, 0.000000000000000000 ) ) ;
#628 = CYLINDRICAL_SURFACE ( 'NONE', #82, 2.350000000000000533 ) ;
#629 = STYLED_ITEM ( 'NONE', ( #95 ), #309 ) ;
#630 = CIRCLE ( 'NONE', #393, 13.00000000000000178 ) ;
#631 = CARTESIAN_POINT ( 'NONE',  ( 8.171569757148768431, 2.760334413162493394, 12.74487999942863681 ) ) ;
#632 =( NAMED_UNIT ( * ) PLANE_ANGLE_UNIT ( ) SI_UNIT ( $, .RADIAN. ) );
#633 = EDGE_CURVE ( 'NONE', #608, #350, #345, .T. ) ;
#634 = DIRECTION ( 'NONE',  ( 1.000000000000000000, 0.000000000000000000, 0.000000000000000000 ) ) ;
#635 = VERTEX_POINT ( 'NONE', #149 ) ;
#636 = DIRECTION ( 'NONE',  ( 1.000000000000000000, 0.000000000000000000, 0.000000000000000000 ) ) ;
#637 = ORIENTED_EDGE ( 'NONE', *, *, #832, .F. ) ;
#638 = VECTOR ( 'NONE', #316, 1000.000000000000000 ) ;
#639 = CARTESIAN_POINT ( 'NONE',  ( -21.35557321424399291, -13.26657293854942665, 9.044879999428637518 ) ) ;
#640 = ORIENTED_EDGE ( 'NONE', *, *, #873, .T. ) ;
#641 = CARTESIAN_POINT ( 'NONE',  ( -3.828430242851232901, 2.760334413162493394, 12.24487999942863681 ) ) ;
#642 = ORIENTED_EDGE ( 'NONE', *, *, #782, .T. ) ;
#643 = CYLINDRICAL_SURFACE ( 'NONE', #193, 23.75000000000000000 ) ;
#644 = EDGE_CURVE ( 'NONE', #855, #596, #766, .T. ) ;
#645 = ORIENTED_EDGE ( 'NONE', *, *, #111, .F. ) ;
#646 = CARTESIAN_POINT ( 'NONE',  ( -3.828430242851232901, 2.760334413162493394, 11.24487999942863681 ) ) ;
#647 = ORIENTED_EDGE ( 'NONE', *, *, #843, .F. ) ;
#648 = DIRECTION ( 'NONE',  ( 1.000000000000000000, 0.000000000000000000, 0.000000000000000000 ) ) ;
#649 = DIRECTION ( 'NONE',  ( -0.000000000000000000, -0.000000000000000000, 1.000000000000000000 ) ) ;
#650 = EDGE_CURVE ( 'NONE', #706, #659, #614, .T. ) ;
#651 = ORIENTED_EDGE ( 'NONE', *, *, #129, .T. ) ;
#652 = DIRECTION ( 'NONE',  ( -0.000000000000000000, -0.000000000000000000, -1.000000000000000000 ) ) ;
#653 = VERTEX_POINT ( 'NONE', #20 ) ;
#654 = DIRECTION ( 'NONE',  ( 0.000000000000000000, -0.000000000000000000, 1.000000000000000000 ) ) ;
#655 = DIRECTION ( 'NONE',  ( 1.000000000000000000, 0.000000000000000000, 0.000000000000000000 ) ) ;
#656 = AXIS2_PLACEMENT_3D ( 'NONE', #752, #87, #758 ) ;
#657 = VECTOR ( 'NONE', #623, 1000.000000000000000 ) ;
#658 = AXIS2_PLACEMENT_3D ( 'NONE', #780, #368, #655 ) ;
#659 = VERTEX_POINT ( 'NONE', #550 ) ;
#660 = CARTESIAN_POINT ( 'NONE',  ( 12.19847710886069336, 20.28747738455524541, 9.044879999428637518 ) ) ;
#661 = ORIENTED_EDGE ( 'NONE', *, *, #111, .T. ) ;
#662 = CARTESIAN_POINT ( 'NONE',  ( 12.19847710886069336, 20.28747738455524541, 11.24487999942863681 ) ) ;
#663 = PRODUCT_CONTEXT ( 'NONE', #692, 'mechanical' ) ;
#664 = ORIENTED_EDGE ( 'NONE', *, *, #257, .T. ) ;
#665 = CARTESIAN_POINT ( 'NONE',  ( -3.828430242851232901, 2.760334413162493394, 9.044879999428637518 ) ) ;
#666 = CARTESIAN_POINT ( 'NONE',  ( -3.828430242851232901, 2.760334413162493394, 16.24487999942863681 ) ) ;
#667 = EDGE_LOOP ( 'NONE', ( #328, #373, #671, #235 ) ) ;
#668 = DIRECTION ( 'NONE',  ( 1.000000000000000000, 0.000000000000000000, 0.000000000000000000 ) ) ;
#669 = CARTESIAN_POINT ( 'NONE',  ( 0.000000000000000000, 0.000000000000000000, 0.000000000000000000 ) ) ;
#670 = AXIS2_PLACEMENT_3D ( 'NONE', #327, #765, #547 ) ;
#671 = ORIENTED_EDGE ( 'NONE', *, *, #837, .T. ) ;
#672 = AXIS2_PLACEMENT_3D ( 'NONE', #146, #490, #352 ) ;
#673 = DIRECTION ( 'NONE',  ( 0.000000000000000000, 0.000000000000000000, 1.000000000000000000 ) ) ;
#674 = CIRCLE ( 'NONE', #548, 23.75000000000000355 ) ;
#675 = ORIENTED_EDGE ( 'NONE', *, *, #716, .T. ) ;
#676 = PLANE ( 'NONE',  #249 ) ;
#677 = CARTESIAN_POINT ( 'NONE',  ( -3.828430242851232901, 2.760334413162493394, 12.74487999942863681 ) ) ;
#678 = DIRECTION ( 'NONE',  ( 0.000000000000000000, 0.000000000000000000, -1.000000000000000000 ) ) ;
#679 = ORIENTED_EDGE ( 'NONE', *, *, #864, .T. ) ;
#680 = EDGE_CURVE ( 'NONE', #350, #529, #615, .T. ) ;
#681 = FILL_AREA_STYLE_COLOUR ( '', #25 ) ;
#682 = DIRECTION ( 'NONE',  ( -0.000000000000000000, -0.000000000000000000, -1.000000000000000000 ) ) ;
#683 = VERTEX_POINT ( 'NONE', #351 ) ;
#684 = PRESENTATION_STYLE_ASSIGNMENT (( #493 ) ) ;
#685 = CIRCLE ( 'NONE', #70, 12.00000000000000178 ) ;
#686 = DIRECTION ( 'NONE',  ( -1.000000000000000000, 0.000000000000000000, 0.000000000000000000 ) ) ;
#687 = PRESENTATION_STYLE_ASSIGNMENT (( #438 ) ) ;
#688 = ADVANCED_FACE ( 'NONE', ( #545 ), #676, .F. ) ;
#689 = PLANE ( 'NONE',  #29 ) ;
#690 = CARTESIAN_POINT ( 'NONE',  ( -21.35557321424398225, -13.26657293854943021, 11.24487999942863681 ) ) ;
#691 = DIRECTION ( 'NONE',  ( -1.000000000000000000, 0.000000000000000000, 0.000000000000000000 ) ) ;
#692 = APPLICATION_CONTEXT ( 'automotive_design' ) ;
#693 = EDGE_CURVE ( 'NONE', #714, #778, #537, .T. ) ;
#694 = CARTESIAN_POINT ( 'NONE',  ( 13.69871272854152089, -13.26657293854943376, 11.24487999942863681 ) ) ;
#695 = EDGE_CURVE ( 'NONE', #269, #456, #341, .T. ) ;
#696 = CARTESIAN_POINT ( 'NONE',  ( -16.68011470947362795, 16.88988523300021072, 9.044879999428637518 ) ) ;
#697 = ADVANCED_FACE ( 'NONE', ( #556 ), #689, .F. ) ;
#698 = AXIS2_PLACEMENT_3D ( 'NONE', #792, #123, #396 ) ;
#699 = AXIS2_PLACEMENT_3D ( 'NONE', #225, #93, #50 ) ;
#700 = CARTESIAN_POINT ( 'NONE',  ( 8.171569757148768431, 2.760334413162493394, 13.74487999942863681 ) ) ;
#701 = ADVANCED_FACE ( 'NONE', ( #169 ), #57, .F. ) ;
#702 = LINE ( 'NONE', #631, #638 ) ;
#703 = EDGE_LOOP ( 'NONE', ( #386, #467, #248, #131 ) ) ;
#704 = VERTEX_POINT ( 'NONE', #639 ) ;
#705 = PLANE ( 'NONE',  #360 ) ;
#706 = VERTEX_POINT ( 'NONE', #242 ) ;
#707 = FACE_OUTER_BOUND ( 'NONE', #276, .T. ) ;
#708 = EDGE_CURVE ( 'NONE', #456, #635, #767, .T. ) ;
#709 = DIRECTION ( 'NONE',  ( -0.6827935378568266156, -0.7306113773142041135, -0.000000000000000000 ) ) ;
#710 = VECTOR ( 'NONE', #184, 1000.000000000000000 ) ;
#711 = AXIS2_PLACEMENT_3D ( 'NONE', #760, #449, #828 ) ;
#712 = ORIENTED_EDGE ( 'NONE', *, *, #278, .F. ) ;
#713 = DIRECTION ( 'NONE',  ( 1.000000000000000000, 0.000000000000000000, 0.000000000000000000 ) ) ;
#714 = VERTEX_POINT ( 'NONE', #848 ) ;
#715 = DIRECTION ( 'NONE',  ( -1.000000000000000000, 0.000000000000000000, 0.000000000000000000 ) ) ;
#716 = EDGE_CURVE ( 'NONE', #704, #350, #526, .T. ) ;
#717 = PLANE ( 'NONE',  #836 ) ;
#718 = ORIENTED_EDGE ( 'NONE', *, *, #599, .F. ) ;
#719 = CARTESIAN_POINT ( 'NONE',  ( -19.85533759456316005, 20.28747738455524541, 12.24487999942863681 ) ) ;
#720 = VERTEX_POINT ( 'NONE', #722 ) ;
#721 = CARTESIAN_POINT ( 'NONE',  ( -3.828430242851232901, 2.760334413162493394, 13.74487999942863681 ) ) ;
#722 = CARTESIAN_POINT ( 'NONE',  ( 13.69871272854152799, -13.26657293854942665, 11.24487999942863681 ) ) ;
#723 = EDGE_LOOP ( 'NONE', ( #311, #805, #332, #485 ) ) ;
#724 = CARTESIAN_POINT ( 'NONE',  ( -19.85533759456316005, 20.28747738455524541, 9.044879999428637518 ) ) ;
#725 = ORIENTED_EDGE ( 'NONE', *, *, #740, .F. ) ;
#726 = CYLINDRICAL_SURFACE ( 'NONE', #293, 23.75000000000000355 ) ;
#727 = LINE ( 'NONE', #143, #176 ) ;
#728 = VECTOR ( 'NONE', #874, 1000.000000000000000 ) ;
#729 = CIRCLE ( 'NONE', #436, 23.75000000000000355 ) ;
#730 = EDGE_LOOP ( 'NONE', ( #774, #640, #171, #600 ) ) ;
#731 = LINE ( 'NONE', #196, #124 ) ;
#732 = CARTESIAN_POINT ( 'NONE',  ( -3.828430242851232901, 2.760334413162493394, 11.24487999942863681 ) ) ;
#733 = CARTESIAN_POINT ( 'NONE',  ( 12.19847710886069336, 20.28747738455524541, 47.22444312810840472 ) ) ;
#734 = ORIENTED_EDGE ( 'NONE', *, *, #377, .F. ) ;
#735 = DIRECTION ( 'NONE',  ( 0.000000000000000000, 0.000000000000000000, 1.000000000000000000 ) ) ;
#736 = CYLINDRICAL_SURFACE ( 'NONE', #492, 13.00000000000000178 ) ;
#737 = ORIENTED_EDGE ( 'NONE', *, *, #633, .F. ) ;
#738 = CARTESIAN_POINT ( 'NONE',  ( -3.828430242851232901, 2.760334413162493394, 9.044879999428637518 ) ) ;
#739 = DIRECTION ( 'NONE',  ( -0.000000000000000000, -0.000000000000000000, -1.000000000000000000 ) ) ;
#740 = EDGE_CURVE ( 'NONE', #784, #516, #116, .T. ) ;
#741 = ORIENTED_EDGE ( 'NONE', *, *, #430, .T. ) ;
#742 = CIRCLE ( 'NONE', #426, 2.350000000000000533 ) ;
#743 = CARTESIAN_POINT ( 'NONE',  ( -17.95798106268894756, -10.09135005345990166, 47.22444312810840472 ) ) ;
#744 = CARTESIAN_POINT ( 'NONE',  ( -3.828430242851232901, 2.760334413162493394, 16.24487999942863681 ) ) ;
#745 = EDGE_CURVE ( 'NONE', #445, #784, #222, .T. ) ;
#746 = ORIENTED_EDGE ( 'NONE', *, *, #39, .T. ) ;
#747 = FACE_OUTER_BOUND ( 'NONE', #667, .T. ) ;
#748 = FACE_OUTER_BOUND ( 'NONE', #315, .T. ) ;
#749 = CARTESIAN_POINT ( 'NONE',  ( -3.828430242851232901, 2.760334413162493394, 47.22444312810840472 ) ) ;
#750 = ORIENTED_EDGE ( 'NONE', *, *, #644, .T. ) ;
#751 = CARTESIAN_POINT ( 'NONE',  ( -3.828430242851232901, 2.760334413162493394, 9.044879999428637518 ) ) ;
#752 = CARTESIAN_POINT ( 'NONE',  ( -3.828430242851232901, 2.760334413162493394, 11.24487999942863681 ) ) ;
#753 = DIRECTION ( 'NONE',  ( -0.000000000000000000, -0.000000000000000000, -1.000000000000000000 ) ) ;
#754 = ADVANCED_FACE ( 'NONE', ( #495 ), #310, .F. ) ;
#755 = VECTOR ( 'NONE', #333, 1000.000000000000000 ) ;
#756 = DIRECTION ( 'NONE',  ( 0.000000000000000000, 0.000000000000000000, 1.000000000000000000 ) ) ;
#757 = UNCERTAINTY_MEASURE_WITH_UNIT (LENGTH_MEASURE( 1.000000000000000082E-05 ), #292, 'distance_accuracy_value', 'NONE');
#758 = DIRECTION ( 'NONE',  ( -1.000000000000000000, 0.000000000000000000, 0.000000000000000000 ) ) ;
#759 = EDGE_CURVE ( 'NONE', #608, #683, #177, .T. ) ;
#760 = CARTESIAN_POINT ( 'NONE',  ( -3.828430242851232901, 2.760334413162493394, 11.24487999942863681 ) ) ;
#761 = FILL_AREA_STYLE ('',( #502 ) ) ;
#762 = CLOSED_SHELL ( 'NONE', ( #223, #754, #830, #819, #65, #60, #92, #30, #435, #768, #626, #153, #285, #543, #117, #289 ) ) ;
#763 = DIRECTION ( 'NONE',  ( 0.7306113773142041135, -0.6827935378568266156, -0.000000000000000000 ) ) ;
#764 = AXIS2_PLACEMENT_3D ( 'NONE', #509, #835, #380 ) ;
#765 = DIRECTION ( 'NONE',  ( 0.000000000000000000, 0.000000000000000000, 1.000000000000000000 ) ) ;
#766 = CIRCLE ( 'NONE', #13, 13.00000000000000178 ) ;
#767 = CIRCLE ( 'NONE', #871, 2.350000000000000533 ) ;
#768 = ADVANCED_FACE ( 'NONE', ( #793 ), #520, .F. ) ;
#769 = CARTESIAN_POINT ( 'NONE',  ( -3.828430242851232901, 2.760334413162493394, 12.74487999942863681 ) ) ;
#770 = SURFACE_STYLE_FILL_AREA ( #761 ) ;
#771 = ORIENTED_EDGE ( 'NONE', *, *, #340, .F. ) ;
#772 = ADVANCED_FACE ( 'NONE', ( #187 ), #717, .F. ) ;
#773 = LINE ( 'NONE', #363, #72 ) ;
#774 = ORIENTED_EDGE ( 'NONE', *, *, #581, .F. ) ;
#775 = CARTESIAN_POINT ( 'NONE',  ( -3.828430242851232901, 2.760334413162493394, 47.22444312810840472 ) ) ;
#776 = CARTESIAN_POINT ( 'NONE',  ( 9.023254223771152382, 16.88988523300021072, 9.044879999428637518 ) ) ;
#777 = EDGE_CURVE ( 'NONE', #809, #578, #110, .T. ) ;
#778 = VERTEX_POINT ( 'NONE', #383 ) ;
#779 = FACE_OUTER_BOUND ( 'NONE', #323, .T. ) ;
#780 = CARTESIAN_POINT ( 'NONE',  ( -3.828430242851232901, 2.760334413162493394, 12.74487999942863681 ) ) ;
#781 = VECTOR ( 'NONE', #634, 1000.000000000000000 ) ;
#782 = EDGE_CURVE ( 'NONE', #46, #608, #395, .T. ) ;
#783 = AXIS2_PLACEMENT_3D ( 'NONE', #669, #268, #868 ) ;
#784 = VERTEX_POINT ( 'NONE', #507 ) ;
#785 = FACE_OUTER_BOUND ( 'NONE', #134, .T. ) ;
#786 = EDGE_LOOP ( 'NONE', ( #258, #637, #860, #820 ) ) ;
#787 = FACE_OUTER_BOUND ( 'NONE', #166, .T. ) ;
#788 = CARTESIAN_POINT ( 'NONE',  ( -19.85533759456316005, 20.28747738455524541, 12.24487999942863681 ) ) ;
#789 = ORIENTED_EDGE ( 'NONE', *, *, #440, .F. ) ;
#790 = CARTESIAN_POINT ( 'NONE',  ( 10.30112057698648265, -10.09135005345989100, 47.22444312810840472 ) ) ;
#791 = VERTEX_POINT ( 'NONE', #295 ) ;
#792 = CARTESIAN_POINT ( 'NONE',  ( -3.828430242851232901, 2.760334413162493394, 16.24487999942863681 ) ) ;
#793 = FACE_OUTER_BOUND ( 'NONE', #43, .T. ) ;
#794 = ORIENTED_EDGE ( 'NONE', *, *, #362, .F. ) ;
#795 = DIRECTION ( 'NONE',  ( 1.000000000000000000, 0.000000000000000000, 0.000000000000000000 ) ) ;
#796 = EDGE_LOOP ( 'NONE', ( #108, #575, #458, #857, #83 ) ) ;
#797 = DIRECTION ( 'NONE',  ( 0.000000000000000000, 0.000000000000000000, 1.000000000000000000 ) ) ;
#798 = CIRCLE ( 'NONE', #425, 13.00000000000000178 ) ;
#799 = DIRECTION ( 'NONE',  ( -1.000000000000000000, 0.000000000000000000, 0.000000000000000000 ) ) ;
#800 = AXIS2_PLACEMENT_3D ( 'NONE', #86, #279, #825 ) ;
#801 = VECTOR ( 'NONE', #709, 1000.000000000000000 ) ;
#802 = ORIENTED_EDGE ( 'NONE', *, *, #400, .T. ) ;
#803 = CARTESIAN_POINT ( 'NONE',  ( -1.478430242851232368, 2.760334413162493838, 16.24487999942863681 ) ) ;
#804 = DIRECTION ( 'NONE',  ( -0.000000000000000000, -0.000000000000000000, -1.000000000000000000 ) ) ;
#805 = ORIENTED_EDGE ( 'NONE', *, *, #834, .T. ) ;
#806 = LINE ( 'NONE', #321, #56 ) ;
#807 = ADVANCED_FACE ( 'NONE', ( #182 ), #562, .F. ) ;
#808 = EDGE_CURVE ( 'NONE', #527, #714, #158, .T. ) ;
#809 = VERTEX_POINT ( 'NONE', #583 ) ;
#810 = SURFACE_SIDE_STYLE ('',( #290 ) ) ;
#811 = EDGE_CURVE ( 'NONE', #394, #653, #431, .T. ) ;
#812 = CIRCLE ( 'NONE', #534, 23.75000000000000000 ) ;
#813 = ORIENTED_EDGE ( 'NONE', *, *, #400, .F. ) ;
#814 = PRESENTATION_LAYER_ASSIGNMENT (  '', '', ( #204 ) ) ;
#815 = DIRECTION ( 'NONE',  ( 0.000000000000000000, 0.000000000000000000, -1.000000000000000000 ) ) ;
#816 = AXIS2_PLACEMENT_3D ( 'NONE', #141, #412, #213 ) ;
#817 = FACE_OUTER_BOUND ( 'NONE', #549, .T. ) ;
#818 =( LENGTH_UNIT ( ) NAMED_UNIT ( * ) SI_UNIT ( .MILLI., .METRE. ) );
#819 = ADVANCED_FACE ( 'NONE', ( #854 ), #643, .T. ) ;
#820 = ORIENTED_EDGE ( 'NONE', *, *, #811, .T. ) ;
#821 = DIRECTION ( 'NONE',  ( 0.6827935378568266156, 0.7306113773142041135, 0.000000000000000000 ) ) ;
#822 = FACE_OUTER_BOUND ( 'NONE', #594, .T. ) ;
#823 = ORIENTED_EDGE ( 'NONE', *, *, #218, .F. ) ;
#824 = CARTESIAN_POINT ( 'NONE',  ( -3.828430242851232901, 2.760334413162493394, 47.22444312810840472 ) ) ;
#825 = DIRECTION ( 'NONE',  ( 1.000000000000000000, 0.000000000000000000, 0.000000000000000000 ) ) ;
#826 = CARTESIAN_POINT ( 'NONE',  ( -3.828430242851232901, 2.760334413162493394, 11.24487999942863681 ) ) ;
#827 = AXIS2_PLACEMENT_3D ( 'NONE', #513, #591, #388 ) ;
#828 = DIRECTION ( 'NONE',  ( 1.000000000000000000, 0.000000000000000000, -0.000000000000000000 ) ) ;
#829 = CARTESIAN_POINT ( 'NONE',  ( -3.828430242851232901, 2.760334413162493394, 16.24487999942863681 ) ) ;
#830 = ADVANCED_FACE ( 'NONE', ( #130 ), #736, .T. ) ;
#831 = CARTESIAN_POINT ( 'NONE',  ( -27.57843024285123334, 2.760334413162493394, 12.24487999942863681 ) ) ;
#832 = EDGE_CURVE ( 'NONE', #445, #720, #607, .T. ) ;
#833 = CARTESIAN_POINT ( 'NONE',  ( -21.35557321424398225, -13.26657293854943021, 12.24487999942863681 ) ) ;
#834 = EDGE_CURVE ( 'NONE', #67, #2, #531, .T. ) ;
#835 = DIRECTION ( 'NONE',  ( 0.000000000000000000, 0.000000000000000000, 1.000000000000000000 ) ) ;
#836 = AXIS2_PLACEMENT_3D ( 'NONE', #842, #90, #237 ) ;
#837 = EDGE_CURVE ( 'NONE', #596, #592, #727, .T. ) ;
#838 = ORIENTED_EDGE ( 'NONE', *, *, #588, .T. ) ;
#839 = CARTESIAN_POINT ( 'NONE',  ( -17.95798106268894756, -10.09135005345990166, 9.044879999428637518 ) ) ;
#840 = ORIENTED_EDGE ( 'NONE', *, *, #870, .T. ) ;
#841 = CARTESIAN_POINT ( 'NONE',  ( -22.92843024285123477, 2.760334413162493394, 11.24487999942863681 ) ) ;
#842 = CARTESIAN_POINT ( 'NONE',  ( -16.68011470947362795, 16.88988523300021072, 47.22444312810840472 ) ) ;
#843 = EDGE_CURVE ( 'NONE', #544, #527, #263, .T. ) ;
#844 = ORIENTED_EDGE ( 'NONE', *, *, #695, .F. ) ;
#845 = DIRECTION ( 'NONE',  ( 0.000000000000000000, 0.000000000000000000, 1.000000000000000000 ) ) ;
#846 = EDGE_LOOP ( 'NONE', ( #147, #771 ) ) ;
#847 = DIRECTION ( 'NONE',  ( 1.000000000000000000, 0.000000000000000000, 0.000000000000000000 ) ) ;
#848 = CARTESIAN_POINT ( 'NONE',  ( 9.023254223771152382, 16.88988523300021072, 9.044879999428637518 ) ) ;
#849 = EDGE_LOOP ( 'NONE', ( #206, #542, #613, #58 ) ) ;
#850 = CARTESIAN_POINT ( 'NONE',  ( -3.828430242851232901, 2.760334413162493394, 12.24487999942863681 ) ) ;
#851 = ORIENTED_EDGE ( 'NONE', *, *, #497, .T. ) ;
#852 = VECTOR ( 'NONE', #478, 1000.000000000000000 ) ;
#853 = AXIS2_PLACEMENT_3D ( 'NONE', #517, #541, #135 ) ;
#854 = FACE_OUTER_BOUND ( 'NONE', #730, .T. ) ;
#855 = VERTEX_POINT ( 'NONE', #414 ) ;
#856 = CARTESIAN_POINT ( 'NONE',  ( -27.57843024285123690, 2.760334413162493394, 9.044879999428637518 ) ) ;
#857 = ORIENTED_EDGE ( 'NONE', *, *, #745, .T. ) ;
#858 = CARTESIAN_POINT ( 'NONE',  ( -3.828430242851232901, 2.760334413162493394, 12.24487999942863681 ) ) ;
#859 = CARTESIAN_POINT ( 'NONE',  ( -3.828430242851232901, 2.760334413162493394, 11.24487999942863681 ) ) ;
#860 = ORIENTED_EDGE ( 'NONE', *, *, #418, .F. ) ;
#861 = LINE ( 'NONE', #866, #755 ) ;
#862 = ORIENTED_EDGE ( 'NONE', *, *, #278, .T. ) ;
#863 = DIRECTION ( 'NONE',  ( -1.000000000000000000, 0.000000000000000000, 0.000000000000000000 ) ) ;
#864 = EDGE_CURVE ( 'NONE', #580, #67, #729, .T. ) ;
#865 = ORIENTED_EDGE ( 'NONE', *, *, #540, .T. ) ;
#866 = CARTESIAN_POINT ( 'NONE',  ( -1.478430242851232368, 2.760334413162493838, 16.24487999942863681 ) ) ;
#867 = STYLED_ITEM ( 'NONE', ( #687 ), #21 ) ;
#868 = DIRECTION ( 'NONE',  ( 1.000000000000000000, 0.000000000000000000, 0.000000000000000000 ) ) ;
#869 = CIRCLE ( 'NONE', #515, 23.75000000000000000 ) ;
#870 = EDGE_CURVE ( 'NONE', #720, #119, #674, .T. ) ;
#871 = AXIS2_PLACEMENT_3D ( 'NONE', #455, #24, #326 ) ;
#872 = ORIENTED_EDGE ( 'NONE', *, *, #349, .T. ) ;
#873 = EDGE_CURVE ( 'NONE', #12, #337, #598, .T. ) ;
#874 = DIRECTION ( 'NONE',  ( -0.000000000000000000, -0.000000000000000000, 1.000000000000000000 ) ) ;
ENDSEC;
END-ISO-10303-21;
