ISO-10303-21;
HEADER;
FILE_DESCRIPTION (( 'STEP AP214' ),
    '1' );
FILE_NAME ('wheel.STEP',
    '2024-05-18T08:18:31',
    ( '' ),
    ( '' ),
    'SwSTEP 2.0',
    'SolidWorks 2023',
    '' );
FILE_SCHEMA (( 'AUTOMOTIVE_DESIGN' ));
ENDSEC;

DATA;
#1 = ORIENTED_EDGE ( 'NONE', *, *, #414, .T. ) ;
#2 = AXIS2_PLACEMENT_3D ( 'NONE', #401, #226, #196 ) ;
#3 = DIRECTION ( 'NONE',  ( 0.000000000000000000, 0.000000000000000000, -1.000000000000000000 ) ) ;
#4 = ORIENTED_EDGE ( 'NONE', *, *, #425, .T. ) ;
#5 = CARTESIAN_POINT ( 'NONE',  ( 0.000000000000000000, 0.000000000000000000, -5.400000000000000355 ) ) ;
#6 = VERTEX_POINT ( 'NONE', #371 ) ;
#7 = EDGE_CURVE ( 'NONE', #46, #408, #118, .T. ) ;
#8 = DIRECTION ( 'NONE',  ( -0.000000000000000000, -0.000000000000000000, -1.000000000000000000 ) ) ;
#9 = EDGE_LOOP ( 'NONE', ( #268, #19, #295, #152 ) ) ;
#10 = CARTESIAN_POINT ( 'NONE',  ( 0.000000000000000000, 0.000000000000000000, 12.19999999999999929 ) ) ;
#11 = VERTEX_POINT ( 'NONE', #415 ) ;
#12 = CARTESIAN_POINT ( 'NONE',  ( 9.125000000000000000, 1.117490204221959607E-15, 12.19999999999999929 ) ) ;
#13 = EDGE_LOOP ( 'NONE', ( #218, #215, #303, #417 ) ) ;
#14 = MANIFOLD_SOLID_BREP ( 'Fillet1', #18 ) ;
#15 = DIRECTION ( 'NONE',  ( 0.000000000000000000, 0.000000000000000000, -1.000000000000000000 ) ) ;
#16 = VERTEX_POINT ( 'NONE', #398 ) ;
#17 = CARTESIAN_POINT ( 'NONE',  ( 0.000000000000000000, 0.000000000000000000, -5.400000000000000355 ) ) ;
#18 = CLOSED_SHELL ( 'NONE', ( #59, #422, #318, #185, #364, #133, #160, #32, #55, #389, #291, #239, #232, #193, #92, #439, #469 ) ) ;
#19 = ORIENTED_EDGE ( 'NONE', *, *, #461, .T. ) ;
#20 = CIRCLE ( 'NONE', #424, 0.8499999999999999778 ) ;
#21 = DIRECTION ( 'NONE',  ( 1.000000000000000000, 0.000000000000000000, 0.000000000000000000 ) ) ;
#22 = ORIENTED_EDGE ( 'NONE', *, *, #309, .T. ) ;
#23 = DIRECTION ( 'NONE',  ( -0.000000000000000000, -0.000000000000000000, -1.000000000000000000 ) ) ;
#24 = FACE_OUTER_BOUND ( 'NONE', #165, .T. ) ;
#25 = CARTESIAN_POINT ( 'NONE',  ( 3.124999999999999112, 0.000000000000000000, 0.000000000000000000 ) ) ;
#26 = VECTOR ( 'NONE', #453, 1000.000000000000000 ) ;
#27 = DIRECTION ( 'NONE',  ( 0.000000000000000000, 0.000000000000000000, 1.000000000000000000 ) ) ;
#28 = APPLICATION_PROTOCOL_DEFINITION ( 'draft international standard', 'automotive_design', 1998, #38 ) ;
#29 = AXIS2_PLACEMENT_3D ( 'NONE', #162, #299, #327 ) ;
#30 = DIRECTION ( 'NONE',  ( 1.000000000000000000, 0.000000000000000000, -0.000000000000000000 ) ) ;
#31 = DIRECTION ( 'NONE',  ( 1.224646799147353207E-16, 1.000000000000000000, -0.000000000000000000 ) ) ;
#32 = ADVANCED_FACE ( 'NONE', ( #347, #90 ), #146, .T. ) ;
#33 = DIRECTION ( 'NONE',  ( 0.000000000000000000, 0.000000000000000000, 1.000000000000000000 ) ) ;
#34 = ORIENTED_EDGE ( 'NONE', *, *, #351, .F. ) ;
#35 = CARTESIAN_POINT ( 'NONE',  ( 0.000000000000000000, 0.000000000000000000, 0.000000000000000000 ) ) ;
#36 = AXIS2_PLACEMENT_3D ( 'NONE', #280, #180, #250 ) ;
#37 = CYLINDRICAL_SURFACE ( 'NONE', #29, 0.8499999999999999778 ) ;
#38 = APPLICATION_CONTEXT ( 'automotive_design' ) ;
#39 = DIRECTION ( 'NONE',  ( -1.000000000000000000, 0.000000000000000000, 0.000000000000000000 ) ) ;
#40 = ORIENTED_EDGE ( 'NONE', *, *, #325, .F. ) ;
#41 = PLANE ( 'NONE',  #176 ) ;
#42 = ORIENTED_EDGE ( 'NONE', *, *, #7, .T. ) ;
#43 = DIRECTION ( 'NONE',  ( 0.000000000000000000, 0.000000000000000000, 1.000000000000000000 ) ) ;
#44 = UNCERTAINTY_MEASURE_WITH_UNIT (LENGTH_MEASURE( 1.000000000000000082E-05 ), #65, 'distance_accuracy_value', 'NONE');
#45 = CIRCLE ( 'NONE', #95, 9.125000000000000000 ) ;
#46 = VERTEX_POINT ( 'NONE', #463 ) ;
#47 = AXIS2_PLACEMENT_3D ( 'NONE', #355, #210, #209 ) ;
#48 = CARTESIAN_POINT ( 'NONE',  ( 1.500000000000000222, 1.836970198721030181E-16, 12.19999999999999929 ) ) ;
#49 = EDGE_CURVE ( 'NONE', #282, #11, #384, .T. ) ;
#50 = EDGE_LOOP ( 'NONE', ( #126, #251, #190, #163 ) ) ;
#51 = CARTESIAN_POINT ( 'NONE',  ( 0.000000000000000000, 0.000000000000000000, 15.51999999999999957 ) ) ;
#52 = ORIENTED_EDGE ( 'NONE', *, *, #309, .F. ) ;
#53 = CARTESIAN_POINT ( 'NONE',  ( 0.000000000000000000, 0.000000000000000000, 13.11999999999999922 ) ) ;
#54 = VERTEX_POINT ( 'NONE', #419 ) ;
#55 = ADVANCED_FACE ( 'NONE', ( #465, #136 ), #110, .F. ) ;
#56 = CARTESIAN_POINT ( 'NONE',  ( 0.000000000000000000, 0.000000000000000000, 15.51999999999999957 ) ) ;
#57 = DIRECTION ( 'NONE',  ( -0.000000000000000000, -0.000000000000000000, 1.000000000000000000 ) ) ;
#58 = DIRECTION ( 'NONE',  ( 0.000000000000000000, 0.000000000000000000, -1.000000000000000000 ) ) ;
#59 = ADVANCED_FACE ( 'NONE', ( #271 ), #449, .T. ) ;
#60 = CIRCLE ( 'NONE', #451, 3.124999999999999112 ) ;
#61 = AXIS2_PLACEMENT_3D ( 'NONE', #344, #58, #242 ) ;
#62 = TOROIDAL_SURFACE ( 'NONE', #427, 3.124999999999999112, 6.000000000000000000 ) ;
#63 = DIRECTION ( 'NONE',  ( 1.000000000000000000, 0.000000000000000000, 0.000000000000000000 ) ) ;
#64 = DIRECTION ( 'NONE',  ( 0.000000000000000000, 0.000000000000000000, 1.000000000000000000 ) ) ;
#65 =( LENGTH_UNIT ( ) NAMED_UNIT ( * ) SI_UNIT ( .MILLI., .METRE. ) );
#66 = ORIENTED_EDGE ( 'NONE', *, *, #336, .T. ) ;
#67 =( LENGTH_UNIT ( ) NAMED_UNIT ( * ) SI_UNIT ( .MILLI., .METRE. ) );
#68 = DIRECTION ( 'NONE',  ( 0.000000000000000000, 0.000000000000000000, 1.000000000000000000 ) ) ;
#69 = ORIENTED_EDGE ( 'NONE', *, *, #342, .T. ) ;
#70 = DIRECTION ( 'NONE',  ( 0.000000000000000000, 0.000000000000000000, -1.000000000000000000 ) ) ;
#71 = ORIENTED_EDGE ( 'NONE', *, *, #211, .F. ) ;
#72 = LINE ( 'NONE', #12, #108 ) ;
#73 = EDGE_CURVE ( 'NONE', #374, #331, #247, .T. ) ;
#74 = ORIENTED_EDGE ( 'NONE', *, *, #222, .F. ) ;
#75 = CIRCLE ( 'NONE', #2, 3.124999999999999112 ) ;
#76 = DIRECTION ( 'NONE',  ( 1.000000000000000000, 0.000000000000000000, -0.000000000000000000 ) ) ;
#77 = PRODUCT_RELATED_PRODUCT_CATEGORY ( 'part', '', ( #444 ) ) ;
#78 = ORIENTED_EDGE ( 'NONE', *, *, #106, .T. ) ;
#79 = AXIS2_PLACEMENT_3D ( 'NONE', #274, #236, #423 ) ;
#80 = DIRECTION ( 'NONE',  ( -1.000000000000000000, 0.000000000000000000, 0.000000000000000000 ) ) ;
#81 = ORIENTED_EDGE ( 'NONE', *, *, #351, .T. ) ;
#82 = FACE_OUTER_BOUND ( 'NONE', #383, .T. ) ;
#83 = DIRECTION ( 'NONE',  ( 0.000000000000000000, 0.000000000000000000, -1.000000000000000000 ) ) ;
#84 = EDGE_CURVE ( 'NONE', #399, #374, #304, .T. ) ;
#85 = DIRECTION ( 'NONE',  ( 1.000000000000000000, 0.000000000000000000, 0.000000000000000000 ) ) ;
#86 = CIRCLE ( 'NONE', #168, 6.000000000000000000 ) ;
#87 = VECTOR ( 'NONE', #234, 1000.000000000000000 ) ;
#88 = EDGE_LOOP ( 'NONE', ( #228, #4 ) ) ;
#89 = CARTESIAN_POINT ( 'NONE',  ( -3.124999999999999112, 7.500961644777537685E-16, 0.000000000000000000 ) ) ;
#90 = FACE_BOUND ( 'NONE', #172, .T. ) ;
#91 = CARTESIAN_POINT ( 'NONE',  ( 1.500000000000000222, 0.000000000000000000, -5.400000000000000355 ) ) ;
#92 = ADVANCED_FACE ( 'NONE', ( #24 ), #174, .T. ) ;
#93 = ORIENTED_EDGE ( 'NONE', *, *, #354, .T. ) ;
#94 = DIRECTION ( 'NONE',  ( 1.000000000000000000, 0.000000000000000000, 0.000000000000000000 ) ) ;
#95 = AXIS2_PLACEMENT_3D ( 'NONE', #125, #159, #156 ) ;
#96 =( NAMED_UNIT ( * ) PLANE_ANGLE_UNIT ( ) SI_UNIT ( $, .RADIAN. ) );
#97 = AXIS2_PLACEMENT_3D ( 'NONE', #135, #15, #265 ) ;
#98 = FACE_OUTER_BOUND ( 'NONE', #13, .T. ) ;
#99 = CYLINDRICAL_SURFACE ( 'NONE', #286, 0.8499999999999999778 ) ;
#100 = CARTESIAN_POINT ( 'NONE',  ( 0.000000000000000000, 0.000000000000000000, 0.000000000000000000 ) ) ;
#101 = EDGE_CURVE ( 'NONE', #54, #233, #367, .T. ) ;
#102 = DIRECTION ( 'NONE',  ( 0.000000000000000000, 0.000000000000000000, 1.000000000000000000 ) ) ;
#103 = DIRECTION ( 'NONE',  ( -0.000000000000000000, -0.000000000000000000, -1.000000000000000000 ) ) ;
#104 = CIRCLE ( 'NONE', #131, 0.8499999999999999778 ) ;
#105 = DIRECTION ( 'NONE',  ( 1.000000000000000000, 0.000000000000000000, -0.000000000000000000 ) ) ;
#106 = EDGE_CURVE ( 'NONE', #124, #199, #411, .T. ) ;
#107 = DIRECTION ( 'NONE',  ( -1.000000000000000000, 0.000000000000000000, 0.000000000000000000 ) ) ;
#108 = VECTOR ( 'NONE', #262, 1000.000000000000000 ) ;
#109 = FACE_OUTER_BOUND ( 'NONE', #50, .T. ) ;
#110 = PLANE ( 'NONE',  #187 ) ;
#111 = ORIENTED_EDGE ( 'NONE', *, *, #211, .T. ) ;
#112 = PRODUCT_DEFINITION ( 'UNKNOWN', '', #140, #227 ) ;
#113 = EDGE_CURVE ( 'NONE', #54, #331, #321, .T. ) ;
#114 = CARTESIAN_POINT ( 'NONE',  ( 1.500000000000000222, 0.000000000000000000, -5.400000000000000355 ) ) ;
#115 = EDGE_LOOP ( 'NONE', ( #341, #22, #255, #40 ) ) ;
#116 = DIRECTION ( 'NONE',  ( -1.000000000000000000, 0.000000000000000000, 0.000000000000000000 ) ) ;
#117 = VERTEX_POINT ( 'NONE', #284 ) ;
#118 = CIRCLE ( 'NONE', #229, 1.500000000000000222 ) ;
#119 = VECTOR ( 'NONE', #150, 1000.000000000000000 ) ;
#120 = CYLINDRICAL_SURFACE ( 'NONE', #324, 1.500000000000000222 ) ;
#121 = EDGE_LOOP ( 'NONE', ( #192, #235 ) ) ;
#122 = CARTESIAN_POINT ( 'NONE',  ( 3.124999999999999112, 0.000000000000000000, 6.199999999999999289 ) ) ;
#123 = UNCERTAINTY_MEASURE_WITH_UNIT (LENGTH_MEASURE( 1.000000000000000082E-05 ), #67, 'distance_accuracy_value', 'NONE');
#124 = VERTEX_POINT ( 'NONE', #432 ) ;
#125 = CARTESIAN_POINT ( 'NONE',  ( 0.000000000000000000, 0.000000000000000000, 6.199999999999999289 ) ) ;
#126 = ORIENTED_EDGE ( 'NONE', *, *, #461, .F. ) ;
#127 = COLOUR_RGB ( '',0.7921568627450980005, 0.8196078431372548767, 0.9333333333333333481 ) ;
#128 = CARTESIAN_POINT ( 'NONE',  ( -9.125000000000000000, 0.000000000000000000, 6.000000000000000000 ) ) ;
#129 = PRESENTATION_LAYER_ASSIGNMENT (  '', '', ( #230 ) ) ;
#130 = EDGE_LOOP ( 'NONE', ( #345, #437, #333, #378 ) ) ;
#131 = AXIS2_PLACEMENT_3D ( 'NONE', #53, #244, #430 ) ;
#132 = FACE_OUTER_BOUND ( 'NONE', #263, .T. ) ;
#133 = ADVANCED_FACE ( 'NONE', ( #217 ), #363, .T. ) ;
#134 = EDGE_LOOP ( 'NONE', ( #197, #42 ) ) ;
#135 = CARTESIAN_POINT ( 'NONE',  ( 0.000000000000000000, 0.000000000000000000, -5.400000000000000355 ) ) ;
#136 = FACE_BOUND ( 'NONE', #161, .T. ) ;
#137 = DIRECTION ( 'NONE',  ( -0.000000000000000000, -0.000000000000000000, 1.000000000000000000 ) ) ;
#138 = AXIS2_PLACEMENT_3D ( 'NONE', #426, #103, #116 ) ;
#139 = DIRECTION ( 'NONE',  ( -0.000000000000000000, -0.000000000000000000, -1.000000000000000000 ) ) ;
#140 = PRODUCT_DEFINITION_FORMATION_WITH_SPECIFIED_SOURCE ( 'ANY', '', #444, .NOT_KNOWN. ) ;
#141 = EDGE_CURVE ( 'NONE', #408, #46, #397, .T. ) ;
#142 = DIRECTION ( 'NONE',  ( -0.000000000000000000, -0.000000000000000000, -1.000000000000000000 ) ) ;
#143 = CARTESIAN_POINT ( 'NONE',  ( 0.000000000000000000, 0.000000000000000000, 6.000000000000000000 ) ) ;
#144 = CARTESIAN_POINT ( 'NONE',  ( -3.124999999999999112, 3.827021247335477817E-16, 6.199999999999999289 ) ) ;
#145 = AXIS2_PLACEMENT_3D ( 'NONE', #394, #387, #428 ) ;
#146 = PLANE ( 'NONE',  #213 ) ;
#147 = CIRCLE ( 'NONE', #466, 0.8499999999999999778 ) ;
#148 = CARTESIAN_POINT ( 'NONE',  ( -3.124999999999999112, 3.827021247335477817E-16, 6.000000000000000000 ) ) ;
#149 = SURFACE_STYLE_FILL_AREA ( #306 ) ;
#150 = DIRECTION ( 'NONE',  ( -0.000000000000000000, -0.000000000000000000, -1.000000000000000000 ) ) ;
#151 = EDGE_CURVE ( 'NONE', #181, #6, #86, .T. ) ;
#152 = ORIENTED_EDGE ( 'NONE', *, *, #84, .F. ) ;
#153 = AXIS2_PLACEMENT_3D ( 'NONE', #144, #467, #245 ) ;
#154 = FACE_OUTER_BOUND ( 'NONE', #358, .T. ) ;
#155 = ORIENTED_EDGE ( 'NONE', *, *, #380, .T. ) ;
#156 = DIRECTION ( 'NONE',  ( 1.000000000000000000, 0.000000000000000000, 0.000000000000000000 ) ) ;
#157 = ORIENTED_EDGE ( 'NONE', *, *, #166, .T. ) ;
#158 = CARTESIAN_POINT ( 'NONE',  ( 0.8499999999999999778, 1.040949779275249893E-16, 15.51999999999999957 ) ) ;
#159 = DIRECTION ( 'NONE',  ( -0.000000000000000000, -0.000000000000000000, -1.000000000000000000 ) ) ;
#160 = ADVANCED_FACE ( 'NONE', ( #82 ), #254, .T. ) ;
#161 = EDGE_LOOP ( 'NONE', ( #443, #365 ) ) ;
#162 = CARTESIAN_POINT ( 'NONE',  ( 0.000000000000000000, 0.000000000000000000, 15.51999999999999957 ) ) ;
#163 = ORIENTED_EDGE ( 'NONE', *, *, #372, .F. ) ;
#164 = CARTESIAN_POINT ( 'NONE',  ( 0.000000000000000000, 0.000000000000000000, 13.11999999999999922 ) ) ;
#165 = EDGE_LOOP ( 'NONE', ( #204, #69 ) ) ;
#166 = EDGE_CURVE ( 'NONE', #399, #310, #75, .T. ) ;
#167 = CARTESIAN_POINT ( 'NONE',  ( 0.000000000000000000, 0.000000000000000000, 6.199999999999999289 ) ) ;
#168 = AXIS2_PLACEMENT_3D ( 'NONE', #122, #368, #435 ) ;
#169 = DIRECTION ( 'NONE',  ( -1.000000000000000000, 0.000000000000000000, 0.000000000000000000 ) ) ;
#170 =( GEOMETRIC_REPRESENTATION_CONTEXT ( 3 ) GLOBAL_UNCERTAINTY_ASSIGNED_CONTEXT ( ( #123 ) ) GLOBAL_UNIT_ASSIGNED_CONTEXT ( ( #67, #316, #360 ) ) REPRESENTATION_CONTEXT ( 'NONE', 'WORKASPACE' ) );
#171 = DIRECTION ( 'NONE',  ( -1.000000000000000000, 0.000000000000000000, 0.000000000000000000 ) ) ;
#172 = EDGE_LOOP ( 'NONE', ( #326, #369 ) ) ;
#173 = CARTESIAN_POINT ( 'NONE',  ( -1.500000000000000222, 1.836970198721029934E-16, -5.400000000000000355 ) ) ;
#174 = PLANE ( 'NONE',  #256 ) ;
#175 = DIRECTION ( 'NONE',  ( -0.000000000000000000, -0.000000000000000000, 1.000000000000000000 ) ) ;
#176 = AXIS2_PLACEMENT_3D ( 'NONE', #409, #436, #76 ) ;
#177 = VECTOR ( 'NONE', #139, 1000.000000000000000 ) ;
#178 = DIRECTION ( 'NONE',  ( 1.000000000000000000, 0.000000000000000000, 0.000000000000000000 ) ) ;
#179 = APPLICATION_PROTOCOL_DEFINITION ( 'draft international standard', 'automotive_design', 1998, #462 ) ;
#180 = DIRECTION ( 'NONE',  ( 0.000000000000000000, 0.000000000000000000, 1.000000000000000000 ) ) ;
#181 = VERTEX_POINT ( 'NONE', #191 ) ;
#182 = DIRECTION ( 'NONE',  ( 1.000000000000000000, 0.000000000000000000, 0.000000000000000000 ) ) ;
#183 = EDGE_LOOP ( 'NONE', ( #201, #71, #410, #457 ) ) ;
#184 = DIRECTION ( 'NONE',  ( 1.000000000000000000, 0.000000000000000000, -0.000000000000000000 ) ) ;
#185 = ADVANCED_FACE ( 'NONE', ( #373 ), #219, .T. ) ;
#186 = ORIENTED_EDGE ( 'NONE', *, *, #101, .T. ) ;
#187 = AXIS2_PLACEMENT_3D ( 'NONE', #35, #33, #184 ) ;
#188 = CARTESIAN_POINT ( 'NONE',  ( -0.8499999999999999778, 0.000000000000000000, 13.11999999999999922 ) ) ;
#189 = CIRCLE ( 'NONE', #47, 0.8499999999999999778 ) ;
#190 = ORIENTED_EDGE ( 'NONE', *, *, #84, .T. ) ;
#191 = CARTESIAN_POINT ( 'NONE',  ( 9.125000000000000000, 1.117490204221959607E-15, 6.199999999999999289 ) ) ;
#192 = ORIENTED_EDGE ( 'NONE', *, *, #281, .T. ) ;
#193 = ADVANCED_FACE ( 'NONE', ( #154 ), #37, .T. ) ;
#194 = DIRECTION ( 'NONE',  ( 1.000000000000000000, 0.000000000000000000, 0.000000000000000000 ) ) ;
#195 = EDGE_LOOP ( 'NONE', ( #81, #78 ) ) ;
#196 = DIRECTION ( 'NONE',  ( 1.000000000000000000, 0.000000000000000000, 0.000000000000000000 ) ) ;
#197 = ORIENTED_EDGE ( 'NONE', *, *, #141, .T. ) ;
#198 = DIRECTION ( 'NONE',  ( -1.000000000000000000, 0.000000000000000000, 0.000000000000000000 ) ) ;
#199 = VERTEX_POINT ( 'NONE', #407 ) ;
#200 = DIRECTION ( 'NONE',  ( 0.000000000000000000, 0.000000000000000000, 1.000000000000000000 ) ) ;
#201 = ORIENTED_EDGE ( 'NONE', *, *, #101, .F. ) ;
#202 = DIRECTION ( 'NONE',  ( 0.000000000000000000, 0.000000000000000000, 1.000000000000000000 ) ) ;
#203 = AXIS2_PLACEMENT_3D ( 'NONE', #10, #43, #231 ) ;
#204 = ORIENTED_EDGE ( 'NONE', *, *, #434, .T. ) ;
#205 = CARTESIAN_POINT ( 'NONE',  ( -1.500000000000000222, 0.000000000000000000, 13.11999999999999922 ) ) ;
#206 = PRESENTATION_STYLE_ASSIGNMENT (( #319 ) ) ;
#207 = FACE_OUTER_BOUND ( 'NONE', #130, .T. ) ;
#208 = EDGE_CURVE ( 'NONE', #408, #282, #405, .T. ) ;
#209 = DIRECTION ( 'NONE',  ( 1.000000000000000000, 0.000000000000000000, 0.000000000000000000 ) ) ;
#210 = DIRECTION ( 'NONE',  ( 0.000000000000000000, 0.000000000000000000, 1.000000000000000000 ) ) ;
#211 = EDGE_CURVE ( 'NONE', #181, #54, #45, .T. ) ;
#212 = CARTESIAN_POINT ( 'NONE',  ( 0.000000000000000000, 0.000000000000000000, 15.51999999999999957 ) ) ;
#213 = AXIS2_PLACEMENT_3D ( 'NONE', #323, #353, #30 ) ;
#214 = ORIENTED_EDGE ( 'NONE', *, *, #270, .T. ) ;
#215 = ORIENTED_EDGE ( 'NONE', *, *, #222, .T. ) ;
#216 = EDGE_CURVE ( 'NONE', #181, #374, #72, .T. ) ;
#217 = FACE_OUTER_BOUND ( 'NONE', #322, .T. ) ;
#218 = ORIENTED_EDGE ( 'NONE', *, *, #342, .F. ) ;
#219 = CYLINDRICAL_SURFACE ( 'NONE', #264, 1.500000000000000222 ) ;
#220 = CIRCLE ( 'NONE', #278, 1.500000000000000222 ) ;
#221 = FACE_OUTER_BOUND ( 'NONE', #287, .T. ) ;
#222 = EDGE_CURVE ( 'NONE', #403, #16, #442, .T. ) ;
#223 = VERTEX_POINT ( 'NONE', #188 ) ;
#224 = CARTESIAN_POINT ( 'NONE',  ( 0.000000000000000000, 0.000000000000000000, 12.19999999999999929 ) ) ;
#225 = ORIENTED_EDGE ( 'NONE', *, *, #73, .T. ) ;
#226 = DIRECTION ( 'NONE',  ( -0.000000000000000000, -0.000000000000000000, -1.000000000000000000 ) ) ;
#227 = PRODUCT_DEFINITION_CONTEXT ( 'detailed design', #38, 'design' ) ;
#228 = ORIENTED_EDGE ( 'NONE', *, *, #447, .T. ) ;
#229 = AXIS2_PLACEMENT_3D ( 'NONE', #298, #83, #169 ) ;
#230 = STYLED_ITEM ( 'NONE', ( #206 ), #14 ) ;
#231 = DIRECTION ( 'NONE',  ( 1.000000000000000000, 0.000000000000000000, 0.000000000000000000 ) ) ;
#232 = ADVANCED_FACE ( 'NONE', ( #402, #292 ), #41, .T. ) ;
#233 = VERTEX_POINT ( 'NONE', #294 ) ;
#234 = DIRECTION ( 'NONE',  ( -0.000000000000000000, -0.000000000000000000, -1.000000000000000000 ) ) ;
#235 = ORIENTED_EDGE ( 'NONE', *, *, #248, .T. ) ;
#236 = DIRECTION ( 'NONE',  ( -0.000000000000000000, -0.000000000000000000, -1.000000000000000000 ) ) ;
#237 = EDGE_LOOP ( 'NONE', ( #259, #186, #446, #455 ) ) ;
#238 = DIRECTION ( 'NONE',  ( 1.000000000000000000, 0.000000000000000000, 0.000000000000000000 ) ) ;
#239 = ADVANCED_FACE ( 'NONE', ( #221 ), #120, .T. ) ;
#240 = CARTESIAN_POINT ( 'NONE',  ( 9.125000000000000000, 1.117490204221959607E-15, 6.000000000000000000 ) ) ;
#241 = PRODUCT_DEFINITION_SHAPE ( 'NONE', 'NONE',  #112 ) ;
#242 = DIRECTION ( 'NONE',  ( -1.000000000000000000, 0.000000000000000000, 0.000000000000000000 ) ) ;
#243 = DIRECTION ( 'NONE',  ( 0.000000000000000000, 0.000000000000000000, 1.000000000000000000 ) ) ;
#244 = DIRECTION ( 'NONE',  ( -0.000000000000000000, -0.000000000000000000, -1.000000000000000000 ) ) ;
#245 = DIRECTION ( 'NONE',  ( -1.000000000000000000, 1.224646799147353207E-16, 0.000000000000000000 ) ) ;
#246 = CARTESIAN_POINT ( 'NONE',  ( 0.000000000000000000, 0.000000000000000000, 13.11999999999999922 ) ) ;
#247 = CIRCLE ( 'NONE', #285, 9.125000000000000000 ) ;
#248 = EDGE_CURVE ( 'NONE', #233, #6, #60, .T. ) ;
#249 = CARTESIAN_POINT ( 'NONE',  ( 0.000000000000000000, 0.000000000000000000, 13.11999999999999922 ) ) ;
#250 = DIRECTION ( 'NONE',  ( 1.000000000000000000, 0.000000000000000000, 0.000000000000000000 ) ) ;
#251 = ORIENTED_EDGE ( 'NONE', *, *, #166, .F. ) ;
#252 = CARTESIAN_POINT ( 'NONE',  ( 0.000000000000000000, 0.000000000000000000, 12.19999999999999929 ) ) ;
#253 = ORIENTED_EDGE ( 'NONE', *, *, #208, .F. ) ;
#254 = CYLINDRICAL_SURFACE ( 'NONE', #349, 9.125000000000000000 ) ;
#255 = ORIENTED_EDGE ( 'NONE', *, *, #300, .T. ) ;
#256 = AXIS2_PLACEMENT_3D ( 'NONE', #212, #312, #105 ) ;
#257 = DIRECTION ( 'NONE',  ( -0.000000000000000000, -0.000000000000000000, -1.000000000000000000 ) ) ;
#258 = AXIS2_PLACEMENT_3D ( 'NONE', #148, #31, #276 ) ;
#259 = ORIENTED_EDGE ( 'NONE', *, *, #395, .F. ) ;
#260 = CARTESIAN_POINT ( 'NONE',  ( 0.000000000000000000, 0.000000000000000000, 13.11999999999999922 ) ) ;
#261 = VERTEX_POINT ( 'NONE', #297 ) ;
#262 = DIRECTION ( 'NONE',  ( -0.000000000000000000, -0.000000000000000000, -1.000000000000000000 ) ) ;
#263 = EDGE_LOOP ( 'NONE', ( #301, #155, #66, #253 ) ) ;
#264 = AXIS2_PLACEMENT_3D ( 'NONE', #260, #8, #198 ) ;
#265 = DIRECTION ( 'NONE',  ( -1.000000000000000000, 0.000000000000000000, -0.000000000000000000 ) ) ;
#266 = ORIENTED_EDGE ( 'NONE', *, *, #425, .F. ) ;
#267 = CARTESIAN_POINT ( 'NONE',  ( 1.500000000000000222, 1.836970198721030181E-16, 13.11999999999999922 ) ) ;
#268 = ORIENTED_EDGE ( 'NONE', *, *, #414, .F. ) ;
#269 = DIRECTION ( 'NONE',  ( 0.000000000000000000, 0.000000000000000000, 1.000000000000000000 ) ) ;
#270 = EDGE_CURVE ( 'NONE', #117, #290, #392, .T. ) ;
#271 = FACE_OUTER_BOUND ( 'NONE', #9, .T. ) ;
#272 = DIRECTION ( 'NONE',  ( -0.000000000000000000, -0.000000000000000000, -1.000000000000000000 ) ) ;
#273 = CIRCLE ( 'NONE', #452, 9.125000000000000000 ) ;
#274 = CARTESIAN_POINT ( 'NONE',  ( 0.000000000000000000, 0.000000000000000000, 0.000000000000000000 ) ) ;
#275 = FACE_OUTER_BOUND ( 'NONE', #183, .T. ) ;
#276 = DIRECTION ( 'NONE',  ( -1.000000000000000000, 1.224646799147353207E-16, 0.000000000000000000 ) ) ;
#277 = DIRECTION ( 'NONE',  ( 1.000000000000000000, 0.000000000000000000, 0.000000000000000000 ) ) ;
#278 = AXIS2_PLACEMENT_3D ( 'NONE', #164, #302, #346 ) ;
#279 = TOROIDAL_SURFACE ( 'NONE', #441, 3.124999999999999112, 6.000000000000000000 ) ;
#280 = CARTESIAN_POINT ( 'NONE',  ( 0.000000000000000000, 0.000000000000000000, 6.000000000000000000 ) ) ;
#281 = EDGE_CURVE ( 'NONE', #6, #233, #440, .T. ) ;
#282 = VERTEX_POINT ( 'NONE', #376 ) ;
#283 = SHAPE_DEFINITION_REPRESENTATION ( #241, #459 ) ;
#284 = CARTESIAN_POINT ( 'NONE',  ( -1.500000000000000222, 0.000000000000000000, 12.19999999999999929 ) ) ;
#285 = AXIS2_PLACEMENT_3D ( 'NONE', #356, #64, #182 ) ;
#286 = AXIS2_PLACEMENT_3D ( 'NONE', #56, #23, #171 ) ;
#287 = EDGE_LOOP ( 'NONE', ( #52, #34, #450, #214 ) ) ;
#288 = AXIS2_PLACEMENT_3D ( 'NONE', #17, #57, #94 ) ;
#289 = CARTESIAN_POINT ( 'NONE',  ( 0.000000000000000000, 0.000000000000000000, 12.19999999999999929 ) ) ;
#290 = VERTEX_POINT ( 'NONE', #48 ) ;
#291 = ADVANCED_FACE ( 'NONE', ( #458 ), #308, .T. ) ;
#292 = FACE_OUTER_BOUND ( 'NONE', #195, .T. ) ;
#293 = EDGE_LOOP ( 'NONE', ( #157, #1 ) ) ;
#294 = CARTESIAN_POINT ( 'NONE',  ( -3.124999999999999112, 7.500961644777537685E-16, 12.19999999999999929 ) ) ;
#295 = ORIENTED_EDGE ( 'NONE', *, *, #73, .F. ) ;
#296 = AXIS2_PLACEMENT_3D ( 'NONE', #361, #70, #107 ) ;
#297 = CARTESIAN_POINT ( 'NONE',  ( -0.8499999999999999778, 0.000000000000000000, 15.51999999999999957 ) ) ;
#298 = CARTESIAN_POINT ( 'NONE',  ( 0.000000000000000000, 0.000000000000000000, -5.400000000000000355 ) ) ;
#299 = DIRECTION ( 'NONE',  ( -0.000000000000000000, -0.000000000000000000, -1.000000000000000000 ) ) ;
#300 = EDGE_CURVE ( 'NONE', #290, #117, #357, .T. ) ;
#301 = ORIENTED_EDGE ( 'NONE', *, *, #7, .F. ) ;
#302 = DIRECTION ( 'NONE',  ( 0.000000000000000000, 0.000000000000000000, 1.000000000000000000 ) ) ;
#303 = ORIENTED_EDGE ( 'NONE', *, *, #447, .F. ) ;
#304 = CIRCLE ( 'NONE', #145, 6.000000000000000000 ) ;
#305 = CARTESIAN_POINT ( 'NONE',  ( 0.000000000000000000, 0.000000000000000000, 12.19999999999999929 ) ) ;
#306 = FILL_AREA_STYLE ('',( #381 ) ) ;
#307 = AXIS2_PLACEMENT_3D ( 'NONE', #167, #272, #388 ) ;
#308 = PLANE ( 'NONE',  #97 ) ;
#309 = EDGE_CURVE ( 'NONE', #124, #290, #311, .T. ) ;
#310 = VERTEX_POINT ( 'NONE', #89 ) ;
#311 = LINE ( 'NONE', #267, #26 ) ;
#312 = DIRECTION ( 'NONE',  ( 0.000000000000000000, 0.000000000000000000, 1.000000000000000000 ) ) ;
#313 = CARTESIAN_POINT ( 'NONE',  ( 0.8499999999999999778, 1.040949779275249893E-16, 15.51999999999999957 ) ) ;
#314 = AXIS2_PLACEMENT_3D ( 'NONE', #246, #68, #277 ) ;
#315 = AXIS2_PLACEMENT_3D ( 'NONE', #305, #418, #413 ) ;
#316 =( NAMED_UNIT ( * ) PLANE_ANGLE_UNIT ( ) SI_UNIT ( $, .RADIAN. ) );
#317 = CARTESIAN_POINT ( 'NONE',  ( 0.000000000000000000, 0.000000000000000000, 6.199999999999999289 ) ) ;
#318 = ADVANCED_FACE ( 'NONE', ( #98 ), #99, .T. ) ;
#319 = SURFACE_STYLE_USAGE ( .BOTH. , #396 ) ;
#320 = PRODUCT_CONTEXT ( 'NONE', #462, 'mechanical' ) ;
#321 = LINE ( 'NONE', #468, #119 ) ;
#322 = EDGE_LOOP ( 'NONE', ( #362, #400, #225, #406 ) ) ;
#323 = CARTESIAN_POINT ( 'NONE',  ( 0.000000000000000000, 0.000000000000000000, 12.19999999999999929 ) ) ;
#324 = AXIS2_PLACEMENT_3D ( 'NONE', #438, #257, #80 ) ;
#325 = EDGE_CURVE ( 'NONE', #199, #117, #456, .T. ) ;
#326 = ORIENTED_EDGE ( 'NONE', *, *, #270, .F. ) ;
#327 = DIRECTION ( 'NONE',  ( -1.000000000000000000, 0.000000000000000000, 0.000000000000000000 ) ) ;
#328 = AXIS2_PLACEMENT_3D ( 'NONE', #338, #202, #393 ) ;
#329 = ORIENTED_EDGE ( 'NONE', *, *, #113, .T. ) ;
#330 = DIRECTION ( 'NONE',  ( -0.000000000000000000, -0.000000000000000000, -1.000000000000000000 ) ) ;
#331 = VERTEX_POINT ( 'NONE', #128 ) ;
#332 = DIRECTION ( 'NONE',  ( 0.000000000000000000, 0.000000000000000000, 1.000000000000000000 ) ) ;
#333 = ORIENTED_EDGE ( 'NONE', *, *, #208, .T. ) ;
#334 =( GEOMETRIC_REPRESENTATION_CONTEXT ( 3 ) GLOBAL_UNCERTAINTY_ASSIGNED_CONTEXT ( ( #44 ) ) GLOBAL_UNIT_ASSIGNED_CONTEXT ( ( #65, #96, #429 ) ) REPRESENTATION_CONTEXT ( 'NONE', 'WORKASPACE' ) );
#335 = DIRECTION ( 'NONE',  ( -0.000000000000000000, -0.000000000000000000, 1.000000000000000000 ) ) ;
#336 = EDGE_CURVE ( 'NONE', #11, #282, #412, .T. ) ;
#337 = ORIENTED_EDGE ( 'NONE', *, *, #434, .F. ) ;
#338 = CARTESIAN_POINT ( 'NONE',  ( 0.000000000000000000, 0.000000000000000000, 6.199999999999999289 ) ) ;
#339 = ORIENTED_EDGE ( 'NONE', *, *, #372, .T. ) ;
#340 = CYLINDRICAL_SURFACE ( 'NONE', #421, 1.500000000000000222 ) ;
#341 = ORIENTED_EDGE ( 'NONE', *, *, #106, .F. ) ;
#342 = EDGE_CURVE ( 'NONE', #403, #261, #20, .T. ) ;
#343 = VECTOR ( 'NONE', #175, 1000.000000000000000 ) ;
#344 = CARTESIAN_POINT ( 'NONE',  ( 0.000000000000000000, 0.000000000000000000, 0.000000000000000000 ) ) ;
#345 = ORIENTED_EDGE ( 'NONE', *, *, #380, .F. ) ;
#346 = DIRECTION ( 'NONE',  ( 1.000000000000000000, 0.000000000000000000, 0.000000000000000000 ) ) ;
#347 = FACE_OUTER_BOUND ( 'NONE', #121, .T. ) ;
#348 = CARTESIAN_POINT ( 'NONE',  ( -0.8499999999999999778, 0.000000000000000000, 15.51999999999999957 ) ) ;
#349 = AXIS2_PLACEMENT_3D ( 'NONE', #289, #330, #39 ) ;
#350 = AXIS2_PLACEMENT_3D ( 'NONE', #252, #332, #85 ) ;
#351 = EDGE_CURVE ( 'NONE', #199, #124, #220, .T. ) ;
#352 = DIRECTION ( 'NONE',  ( 1.000000000000000000, 0.000000000000000000, 0.000000000000000000 ) ) ;
#353 = DIRECTION ( 'NONE',  ( 0.000000000000000000, 0.000000000000000000, 1.000000000000000000 ) ) ;
#354 = EDGE_CURVE ( 'NONE', #261, #223, #379, .T. ) ;
#355 = CARTESIAN_POINT ( 'NONE',  ( 0.000000000000000000, 0.000000000000000000, 15.51999999999999957 ) ) ;
#356 = CARTESIAN_POINT ( 'NONE',  ( 0.000000000000000000, 0.000000000000000000, 6.000000000000000000 ) ) ;
#357 = CIRCLE ( 'NONE', #315, 1.500000000000000222 ) ;
#358 = EDGE_LOOP ( 'NONE', ( #74, #337, #93, #266 ) ) ;
#359 = TOROIDAL_SURFACE ( 'NONE', #328, 3.124999999999999112, 6.000000000000000000 ) ;
#360 =( NAMED_UNIT ( * ) SI_UNIT ( $, .STERADIAN. ) SOLID_ANGLE_UNIT ( ) );
#361 = CARTESIAN_POINT ( 'NONE',  ( 0.000000000000000000, 0.000000000000000000, 0.000000000000000000 ) ) ;
#362 = ORIENTED_EDGE ( 'NONE', *, *, #395, .T. ) ;
#363 = CYLINDRICAL_SURFACE ( 'NONE', #138, 9.125000000000000000 ) ;
#364 = ADVANCED_FACE ( 'NONE', ( #132 ), #448, .T. ) ;
#365 = ORIENTED_EDGE ( 'NONE', *, *, #336, .F. ) ;
#366 = DIRECTION ( 'NONE',  ( -1.000000000000000000, 0.000000000000000000, 0.000000000000000000 ) ) ;
#367 = CIRCLE ( 'NONE', #153, 6.000000000000000000 ) ;
#368 = DIRECTION ( 'NONE',  ( 0.000000000000000000, -1.000000000000000000, 0.000000000000000000 ) ) ;
#369 = ORIENTED_EDGE ( 'NONE', *, *, #300, .F. ) ;
#370 = DIRECTION ( 'NONE',  ( 0.000000000000000000, 0.000000000000000000, 1.000000000000000000 ) ) ;
#371 = CARTESIAN_POINT ( 'NONE',  ( 3.124999999999999112, 0.000000000000000000, 12.19999999999999929 ) ) ;
#372 = EDGE_CURVE ( 'NONE', #331, #374, #273, .T. ) ;
#373 = FACE_OUTER_BOUND ( 'NONE', #115, .T. ) ;
#374 = VERTEX_POINT ( 'NONE', #240 ) ;
#375 = VECTOR ( 'NONE', #445, 1000.000000000000000 ) ;
#376 = CARTESIAN_POINT ( 'NONE',  ( 1.500000000000000222, 0.000000000000000000, 0.000000000000000000 ) ) ;
#377 = CIRCLE ( 'NONE', #258, 6.000000000000000000 ) ;
#378 = ORIENTED_EDGE ( 'NONE', *, *, #49, .T. ) ;
#379 = LINE ( 'NONE', #348, #177 ) ;
#380 = EDGE_CURVE ( 'NONE', #46, #11, #416, .T. ) ;
#381 = FILL_AREA_STYLE_COLOUR ( '', #127 ) ;
#382 = FACE_OUTER_BOUND ( 'NONE', #237, .T. ) ;
#383 = EDGE_LOOP ( 'NONE', ( #433, #111, #329, #339 ) ) ;
#384 = CIRCLE ( 'NONE', #296, 1.500000000000000222 ) ;
#385 = CARTESIAN_POINT ( 'NONE',  ( 0.000000000000000000, 0.000000000000000000, -5.400000000000000355 ) ) ;
#386 = AXIS2_PLACEMENT_3D ( 'NONE', #100, #243, #391 ) ;
#387 = DIRECTION ( 'NONE',  ( 0.000000000000000000, -1.000000000000000000, 0.000000000000000000 ) ) ;
#388 = DIRECTION ( 'NONE',  ( 1.000000000000000000, 0.000000000000000000, 0.000000000000000000 ) ) ;
#389 = ADVANCED_FACE ( 'NONE', ( #207 ), #340, .T. ) ;
#390 = MECHANICAL_DESIGN_GEOMETRIC_PRESENTATION_REPRESENTATION (  '', ( #230 ), #334 ) ;
#391 = DIRECTION ( 'NONE',  ( 1.000000000000000000, 0.000000000000000000, 0.000000000000000000 ) ) ;
#392 = CIRCLE ( 'NONE', #350, 1.500000000000000222 ) ;
#393 = DIRECTION ( 'NONE',  ( 1.000000000000000000, 0.000000000000000000, 0.000000000000000000 ) ) ;
#394 = CARTESIAN_POINT ( 'NONE',  ( 3.124999999999999112, 0.000000000000000000, 6.000000000000000000 ) ) ;
#395 = EDGE_CURVE ( 'NONE', #54, #181, #404, .T. ) ;
#396 = SURFACE_SIDE_STYLE ('',( #149 ) ) ;
#397 = CIRCLE ( 'NONE', #431, 1.500000000000000222 ) ;
#398 = CARTESIAN_POINT ( 'NONE',  ( 0.8499999999999999778, 1.040949779275249893E-16, 13.11999999999999922 ) ) ;
#399 = VERTEX_POINT ( 'NONE', #25 ) ;
#400 = ORIENTED_EDGE ( 'NONE', *, *, #216, .T. ) ;
#401 = CARTESIAN_POINT ( 'NONE',  ( 0.000000000000000000, 0.000000000000000000, 0.000000000000000000 ) ) ;
#402 = FACE_BOUND ( 'NONE', #88, .T. ) ;
#403 = VERTEX_POINT ( 'NONE', #313 ) ;
#404 = CIRCLE ( 'NONE', #307, 9.125000000000000000 ) ;
#405 = LINE ( 'NONE', #114, #464 ) ;
#406 = ORIENTED_EDGE ( 'NONE', *, *, #113, .F. ) ;
#407 = CARTESIAN_POINT ( 'NONE',  ( -1.500000000000000222, 0.000000000000000000, 13.11999999999999922 ) ) ;
#408 = VERTEX_POINT ( 'NONE', #91 ) ;
#409 = CARTESIAN_POINT ( 'NONE',  ( 0.000000000000000000, 0.000000000000000000, 13.11999999999999922 ) ) ;
#410 = ORIENTED_EDGE ( 'NONE', *, *, #151, .T. ) ;
#411 = CIRCLE ( 'NONE', #314, 1.500000000000000222 ) ;
#412 = CIRCLE ( 'NONE', #61, 1.500000000000000222 ) ;
#413 = DIRECTION ( 'NONE',  ( 1.000000000000000000, 0.000000000000000000, 0.000000000000000000 ) ) ;
#414 = EDGE_CURVE ( 'NONE', #310, #399, #454, .T. ) ;
#415 = CARTESIAN_POINT ( 'NONE',  ( -1.500000000000000222, 1.836970198721029934E-16, 0.000000000000000000 ) ) ;
#416 = LINE ( 'NONE', #173, #343 ) ;
#417 = ORIENTED_EDGE ( 'NONE', *, *, #354, .F. ) ;
#418 = DIRECTION ( 'NONE',  ( 0.000000000000000000, 0.000000000000000000, 1.000000000000000000 ) ) ;
#419 = CARTESIAN_POINT ( 'NONE',  ( -9.125000000000000000, 0.000000000000000000, 6.199999999999999289 ) ) ;
#420 = CARTESIAN_POINT ( 'NONE',  ( 0.000000000000000000, 0.000000000000000000, 6.000000000000000000 ) ) ;
#421 = AXIS2_PLACEMENT_3D ( 'NONE', #385, #137, #460 ) ;
#422 = ADVANCED_FACE ( 'NONE', ( #382 ), #359, .T. ) ;
#423 = DIRECTION ( 'NONE',  ( 1.000000000000000000, 0.000000000000000000, 0.000000000000000000 ) ) ;
#424 = AXIS2_PLACEMENT_3D ( 'NONE', #51, #269, #21 ) ;
#425 = EDGE_CURVE ( 'NONE', #16, #223, #104, .T. ) ;
#426 = CARTESIAN_POINT ( 'NONE',  ( 0.000000000000000000, 0.000000000000000000, 12.19999999999999929 ) ) ;
#427 = AXIS2_PLACEMENT_3D ( 'NONE', #317, #102, #178 ) ;
#428 = DIRECTION ( 'NONE',  ( 0.000000000000000000, 0.000000000000000000, -1.000000000000000000 ) ) ;
#429 =( NAMED_UNIT ( * ) SI_UNIT ( $, .STERADIAN. ) SOLID_ANGLE_UNIT ( ) );
#430 = DIRECTION ( 'NONE',  ( 1.000000000000000000, 0.000000000000000000, 0.000000000000000000 ) ) ;
#431 = AXIS2_PLACEMENT_3D ( 'NONE', #5, #3, #366 ) ;
#432 = CARTESIAN_POINT ( 'NONE',  ( 1.500000000000000222, 1.836970198721030181E-16, 13.11999999999999922 ) ) ;
#433 = ORIENTED_EDGE ( 'NONE', *, *, #216, .F. ) ;
#434 = EDGE_CURVE ( 'NONE', #261, #403, #189, .T. ) ;
#435 = DIRECTION ( 'NONE',  ( 0.000000000000000000, 0.000000000000000000, -1.000000000000000000 ) ) ;
#436 = DIRECTION ( 'NONE',  ( 0.000000000000000000, 0.000000000000000000, 1.000000000000000000 ) ) ;
#437 = ORIENTED_EDGE ( 'NONE', *, *, #141, .F. ) ;
#438 = CARTESIAN_POINT ( 'NONE',  ( 0.000000000000000000, 0.000000000000000000, 13.11999999999999922 ) ) ;
#439 = ADVANCED_FACE ( 'NONE', ( #275 ), #62, .T. ) ;
#440 = CIRCLE ( 'NONE', #203, 3.124999999999999112 ) ;
#441 = AXIS2_PLACEMENT_3D ( 'NONE', #143, #27, #63 ) ;
#442 = LINE ( 'NONE', #158, #375 ) ;
#443 = ORIENTED_EDGE ( 'NONE', *, *, #49, .F. ) ;
#444 = PRODUCT ( 'wheel', 'wheel', '', ( #320 ) ) ;
#445 = DIRECTION ( 'NONE',  ( -0.000000000000000000, -0.000000000000000000, -1.000000000000000000 ) ) ;
#446 = ORIENTED_EDGE ( 'NONE', *, *, #281, .F. ) ;
#447 = EDGE_CURVE ( 'NONE', #223, #16, #147, .T. ) ;
#448 = CYLINDRICAL_SURFACE ( 'NONE', #288, 1.500000000000000222 ) ;
#449 = TOROIDAL_SURFACE ( 'NONE', #36, 3.124999999999999112, 6.000000000000000000 ) ;
#450 = ORIENTED_EDGE ( 'NONE', *, *, #325, .T. ) ;
#451 = AXIS2_PLACEMENT_3D ( 'NONE', #224, #370, #194 ) ;
#452 = AXIS2_PLACEMENT_3D ( 'NONE', #420, #200, #238 ) ;
#453 = DIRECTION ( 'NONE',  ( -0.000000000000000000, -0.000000000000000000, -1.000000000000000000 ) ) ;
#454 = CIRCLE ( 'NONE', #79, 3.124999999999999112 ) ;
#455 = ORIENTED_EDGE ( 'NONE', *, *, #151, .F. ) ;
#456 = LINE ( 'NONE', #205, #87 ) ;
#457 = ORIENTED_EDGE ( 'NONE', *, *, #248, .F. ) ;
#458 = FACE_OUTER_BOUND ( 'NONE', #134, .T. ) ;
#459 = ADVANCED_BREP_SHAPE_REPRESENTATION ( 'wheel', ( #14, #386 ), #170 ) ;
#460 = DIRECTION ( 'NONE',  ( 1.000000000000000000, 0.000000000000000000, 0.000000000000000000 ) ) ;
#461 = EDGE_CURVE ( 'NONE', #310, #331, #377, .T. ) ;
#462 = APPLICATION_CONTEXT ( 'automotive_design' ) ;
#463 = CARTESIAN_POINT ( 'NONE',  ( -1.500000000000000222, 1.836970198721029934E-16, -5.400000000000000355 ) ) ;
#464 = VECTOR ( 'NONE', #335, 1000.000000000000000 ) ;
#465 = FACE_OUTER_BOUND ( 'NONE', #293, .T. ) ;
#466 = AXIS2_PLACEMENT_3D ( 'NONE', #249, #142, #352 ) ;
#467 = DIRECTION ( 'NONE',  ( 1.224646799147353207E-16, 1.000000000000000000, -0.000000000000000000 ) ) ;
#468 = CARTESIAN_POINT ( 'NONE',  ( -9.125000000000000000, 0.000000000000000000, 12.19999999999999929 ) ) ;
#469 = ADVANCED_FACE ( 'NONE', ( #109 ), #279, .T. ) ;
ENDSEC;
END-ISO-10303-21;
